  0
SECTION
  2
HEADER
  9
$ANGBASE
  50
0.0
  9
$ANGDIR
  70
1
  9
$MEASUREMENT
  70
0
  0
ENDSEC
  0
SECTION
  2
TABLES
  0
TABLE
  2
LTYPE
  70
4
  0
LTYPE
  5
40F
  2
CONTINUOUS
  70
0
  3
Solid line
  72
65
  73
0
  40
0.0
  0
LTYPE
  5
410
  2
DASHDOT
 70
0
  3
Dash Dot ____ _ ____ _
 72
65
 73
4
 40
2.0
 49
1.25
 49
-0.25
 49
0.25
 49
-0.25
  0
LTYPE
  5
411
  2
DASHED
 70
0
  3
Dashed __ __ __ __ __
 72
65
 73
2
 40
0.75
 49
0.5
 49
-0.25
  0
LTYPE
  5
43B
  2
DOTTED
 70
0
  3
Dotted .  .  .  .
 72
65
 73
2
 40
0.2
 49
0.0
 49
-0.2
  0
ENDTAB
  0
TABLE
  2
STYLE
  70
4
  0
STYLE
  2
KICAD
  70
0
  40
0
  41
1
  42
1
  50
0
  71
0
  3
isocp.shx
  0
STYLE
  2
KICADB
  70
0
  40
0
  41
1
  42
1
  50
0
  71
0
  3
isocp.shx
  0
STYLE
  2
KICADI
  70
0
  40
0
  41
1
  42
1
  50
15
  71
0
  3
isocp.shx
  0
STYLE
  2
KICADBI
  70
0
  40
0
  41
1
  42
1
  50
15
  71
0
  3
isocp.shx
  0
ENDTAB
  0
TABLE
  2
LAYER
  70
1
  0
LAYER
  2
BLACK
  70
0
  62
7
  6
CONTINUOUS
  0
ENDTAB
  0
ENDSEC
  0
SECTION
  2
ENTITIES
0
LINE
8
BLACK
6
CONTINUOUS
10
0.214106
20
0.325192
11
0.228034
21
0.322826
0
LINE
8
BLACK
6
CONTINUOUS
10
0.228034
20
0.322826
11
0.24161
21
0.318914
0
LINE
8
BLACK
6
CONTINUOUS
10
0.24161
20
0.318914
11
0.254663
21
0.313508
0
LINE
8
BLACK
6
CONTINUOUS
10
0.254663
20
0.313508
11
0.267028
21
0.306674
0
LINE
8
BLACK
6
CONTINUOUS
10
0.267028
20
0.306674
11
0.27855
21
0.298498
0
LINE
8
BLACK
6
CONTINUOUS
10
0.27855
20
0.298498
11
0.289084
21
0.289084
0
LINE
8
BLACK
6
CONTINUOUS
10
0.289084
20
0.289084
11
0.298498
21
0.27855
0
LINE
8
BLACK
6
CONTINUOUS
10
0.298498
20
0.27855
11
0.306674
21
0.267028
0
LINE
8
BLACK
6
CONTINUOUS
10
0.306674
20
0.267028
11
0.313508
21
0.254663
0
LINE
8
BLACK
6
CONTINUOUS
10
0.313508
20
0.254663
11
0.318914
21
0.24161
0
LINE
8
BLACK
6
CONTINUOUS
10
0.318914
20
0.24161
11
0.322826
21
0.228034
0
LINE
8
BLACK
6
CONTINUOUS
10
0.322826
20
0.228034
11
0.325192
21
0.214106
0
LINE
8
BLACK
6
CONTINUOUS
10
0.325192
20
0.214106
11
0.325984
21
0.2
0
LINE
8
BLACK
6
CONTINUOUS
10
0.325984
20
0.2
11
0.325192
21
0.185894
0
LINE
8
BLACK
6
CONTINUOUS
10
0.325192
20
0.185894
11
0.322826
21
0.171966
0
LINE
8
BLACK
6
CONTINUOUS
10
0.322826
20
0.171966
11
0.318914
21
0.15839
0
LINE
8
BLACK
6
CONTINUOUS
10
0.318914
20
0.15839
11
0.313508
21
0.145337
0
LINE
8
BLACK
6
CONTINUOUS
10
0.313508
20
0.145337
11
0.306674
21
0.132972
0
LINE
8
BLACK
6
CONTINUOUS
10
0.306674
20
0.132972
11
0.298498
21
0.12145
0
LINE
8
BLACK
6
CONTINUOUS
10
0.298498
20
0.12145
11
0.289084
21
0.110916
0
LINE
8
BLACK
6
CONTINUOUS
10
0.289084
20
0.110916
11
0.27855
21
0.101502
0
LINE
8
BLACK
6
CONTINUOUS
10
0.27855
20
0.101502
11
0.267028
21
0.0933261
0
LINE
8
BLACK
6
CONTINUOUS
10
0.267028
20
0.0933261
11
0.254663
21
0.0864921
0
LINE
8
BLACK
6
CONTINUOUS
10
0.254663
20
0.0864921
11
0.24161
21
0.0810856
0
LINE
8
BLACK
6
CONTINUOUS
10
0.24161
20
0.0810856
11
0.228034
21
0.0771744
0
LINE
8
BLACK
6
CONTINUOUS
10
0.228034
20
0.0771744
11
0.214106
21
0.0748079
0
LINE
8
BLACK
6
CONTINUOUS
10
0.214106
20
0.0748079
11
0.2
21
0.0740157
0
LINE
8
BLACK
6
CONTINUOUS
10
0.2
20
0.0740157
11
0.185894
21
0.0748079
0
LINE
8
BLACK
6
CONTINUOUS
10
0.185894
20
0.0748079
11
0.171966
21
0.0771744
0
LINE
8
BLACK
6
CONTINUOUS
10
0.171966
20
0.0771744
11
0.15839
21
0.0810856
0
LINE
8
BLACK
6
CONTINUOUS
10
0.15839
20
0.0810856
11
0.145337
21
0.0864921
0
LINE
8
BLACK
6
CONTINUOUS
10
0.145337
20
0.0864921
11
0.132972
21
0.0933261
0
LINE
8
BLACK
6
CONTINUOUS
10
0.132972
20
0.0933261
11
0.12145
21
0.101502
0
LINE
8
BLACK
6
CONTINUOUS
10
0.12145
20
0.101502
11
0.110916
21
0.110916
0
LINE
8
BLACK
6
CONTINUOUS
10
0.110916
20
0.110916
11
0.101502
21
0.12145
0
LINE
8
BLACK
6
CONTINUOUS
10
0.101502
20
0.12145
11
0.0933261
21
0.132972
0
LINE
8
BLACK
6
CONTINUOUS
10
0.0933261
20
0.132972
11
0.0864921
21
0.145337
0
LINE
8
BLACK
6
CONTINUOUS
10
0.0864921
20
0.145337
11
0.0810856
21
0.15839
0
LINE
8
BLACK
6
CONTINUOUS
10
0.0810856
20
0.15839
11
0.0771744
21
0.171966
0
LINE
8
BLACK
6
CONTINUOUS
10
0.0771744
20
0.171966
11
0.0748079
21
0.185894
0
LINE
8
BLACK
6
CONTINUOUS
10
0.0748079
20
0.185894
11
0.0740157
21
0.2
0
LINE
8
BLACK
6
CONTINUOUS
10
0.0740157
20
0.2
11
0.0748079
21
0.214106
0
LINE
8
BLACK
6
CONTINUOUS
10
0.0748079
20
0.214106
11
0.0771744
21
0.228034
0
LINE
8
BLACK
6
CONTINUOUS
10
0.0771744
20
0.228034
11
0.0810856
21
0.24161
0
LINE
8
BLACK
6
CONTINUOUS
10
0.0810856
20
0.24161
11
0.0864921
21
0.254663
0
LINE
8
BLACK
6
CONTINUOUS
10
0.0864921
20
0.254663
11
0.0933261
21
0.267028
0
LINE
8
BLACK
6
CONTINUOUS
10
0.0933261
20
0.267028
11
0.101502
21
0.27855
0
LINE
8
BLACK
6
CONTINUOUS
10
0.101502
20
0.27855
11
0.110916
21
0.289084
0
LINE
8
BLACK
6
CONTINUOUS
10
0.110916
20
0.289084
11
0.12145
21
0.298498
0
LINE
8
BLACK
6
CONTINUOUS
10
0.12145
20
0.298498
11
0.132972
21
0.306674
0
LINE
8
BLACK
6
CONTINUOUS
10
0.132972
20
0.306674
11
0.145337
21
0.313508
0
LINE
8
BLACK
6
CONTINUOUS
10
0.145337
20
0.313508
11
0.15839
21
0.318914
0
LINE
8
BLACK
6
CONTINUOUS
10
0.15839
20
0.318914
11
0.171966
21
0.322826
0
LINE
8
BLACK
6
CONTINUOUS
10
0.171966
20
0.322826
11
0.185894
21
0.325192
0
LINE
8
BLACK
6
CONTINUOUS
10
0.185894
20
0.325192
11
0.2
21
0.325984
0
LINE
8
BLACK
6
CONTINUOUS
10
0.2
20
0.325984
11
0.214106
21
0.325192
0
LINE
8
BLACK
6
CONTINUOUS
10
1.41411
20
0.325192
11
1.42803
21
0.322826
0
LINE
8
BLACK
6
CONTINUOUS
10
1.42803
20
0.322826
11
1.44161
21
0.318914
0
LINE
8
BLACK
6
CONTINUOUS
10
1.44161
20
0.318914
11
1.45466
21
0.313508
0
LINE
8
BLACK
6
CONTINUOUS
10
1.45466
20
0.313508
11
1.46703
21
0.306674
0
LINE
8
BLACK
6
CONTINUOUS
10
1.46703
20
0.306674
11
1.47855
21
0.298498
0
LINE
8
BLACK
6
CONTINUOUS
10
1.47855
20
0.298498
11
1.48908
21
0.289084
0
LINE
8
BLACK
6
CONTINUOUS
10
1.48908
20
0.289084
11
1.4985
21
0.27855
0
LINE
8
BLACK
6
CONTINUOUS
10
1.4985
20
0.27855
11
1.50667
21
0.267028
0
LINE
8
BLACK
6
CONTINUOUS
10
1.50667
20
0.267028
11
1.51351
21
0.254663
0
LINE
8
BLACK
6
CONTINUOUS
10
1.51351
20
0.254663
11
1.51891
21
0.24161
0
LINE
8
BLACK
6
CONTINUOUS
10
1.51891
20
0.24161
11
1.52283
21
0.228034
0
LINE
8
BLACK
6
CONTINUOUS
10
1.52283
20
0.228034
11
1.52519
21
0.214106
0
LINE
8
BLACK
6
CONTINUOUS
10
1.52519
20
0.214106
11
1.52598
21
0.2
0
LINE
8
BLACK
6
CONTINUOUS
10
1.52598
20
0.2
11
1.52519
21
0.185894
0
LINE
8
BLACK
6
CONTINUOUS
10
1.52519
20
0.185894
11
1.52283
21
0.171966
0
LINE
8
BLACK
6
CONTINUOUS
10
1.52283
20
0.171966
11
1.51891
21
0.15839
0
LINE
8
BLACK
6
CONTINUOUS
10
1.51891
20
0.15839
11
1.51351
21
0.145337
0
LINE
8
BLACK
6
CONTINUOUS
10
1.51351
20
0.145337
11
1.50667
21
0.132972
0
LINE
8
BLACK
6
CONTINUOUS
10
1.50667
20
0.132972
11
1.4985
21
0.12145
0
LINE
8
BLACK
6
CONTINUOUS
10
1.4985
20
0.12145
11
1.48908
21
0.110916
0
LINE
8
BLACK
6
CONTINUOUS
10
1.48908
20
0.110916
11
1.47855
21
0.101502
0
LINE
8
BLACK
6
CONTINUOUS
10
1.47855
20
0.101502
11
1.46703
21
0.0933261
0
LINE
8
BLACK
6
CONTINUOUS
10
1.46703
20
0.0933261
11
1.45466
21
0.0864921
0
LINE
8
BLACK
6
CONTINUOUS
10
1.45466
20
0.0864921
11
1.44161
21
0.0810856
0
LINE
8
BLACK
6
CONTINUOUS
10
1.44161
20
0.0810856
11
1.42803
21
0.0771744
0
LINE
8
BLACK
6
CONTINUOUS
10
1.42803
20
0.0771744
11
1.41411
21
0.0748079
0
LINE
8
BLACK
6
CONTINUOUS
10
1.41411
20
0.0748079
11
1.4
21
0.0740157
0
LINE
8
BLACK
6
CONTINUOUS
10
1.4
20
0.0740157
11
1.38589
21
0.0748079
0
LINE
8
BLACK
6
CONTINUOUS
10
1.38589
20
0.0748079
11
1.37197
21
0.0771744
0
LINE
8
BLACK
6
CONTINUOUS
10
1.37197
20
0.0771744
11
1.35839
21
0.0810856
0
LINE
8
BLACK
6
CONTINUOUS
10
1.35839
20
0.0810856
11
1.34534
21
0.0864921
0
LINE
8
BLACK
6
CONTINUOUS
10
1.34534
20
0.0864921
11
1.33297
21
0.0933261
0
LINE
8
BLACK
6
CONTINUOUS
10
1.33297
20
0.0933261
11
1.32145
21
0.101502
0
LINE
8
BLACK
6
CONTINUOUS
10
1.32145
20
0.101502
11
1.31092
21
0.110916
0
LINE
8
BLACK
6
CONTINUOUS
10
1.31092
20
0.110916
11
1.3015
21
0.12145
0
LINE
8
BLACK
6
CONTINUOUS
10
1.3015
20
0.12145
11
1.29333
21
0.132972
0
LINE
8
BLACK
6
CONTINUOUS
10
1.29333
20
0.132972
11
1.28649
21
0.145337
0
LINE
8
BLACK
6
CONTINUOUS
10
1.28649
20
0.145337
11
1.28109
21
0.15839
0
LINE
8
BLACK
6
CONTINUOUS
10
1.28109
20
0.15839
11
1.27717
21
0.171966
0
LINE
8
BLACK
6
CONTINUOUS
10
1.27717
20
0.171966
11
1.27481
21
0.185894
0
LINE
8
BLACK
6
CONTINUOUS
10
1.27481
20
0.185894
11
1.27402
21
0.2
0
LINE
8
BLACK
6
CONTINUOUS
10
1.27402
20
0.2
11
1.27481
21
0.214106
0
LINE
8
BLACK
6
CONTINUOUS
10
1.27481
20
0.214106
11
1.27717
21
0.228034
0
LINE
8
BLACK
6
CONTINUOUS
10
1.27717
20
0.228034
11
1.28109
21
0.24161
0
LINE
8
BLACK
6
CONTINUOUS
10
1.28109
20
0.24161
11
1.28649
21
0.254663
0
LINE
8
BLACK
6
CONTINUOUS
10
1.28649
20
0.254663
11
1.29333
21
0.267028
0
LINE
8
BLACK
6
CONTINUOUS
10
1.29333
20
0.267028
11
1.3015
21
0.27855
0
LINE
8
BLACK
6
CONTINUOUS
10
1.3015
20
0.27855
11
1.31092
21
0.289084
0
LINE
8
BLACK
6
CONTINUOUS
10
1.31092
20
0.289084
11
1.32145
21
0.298498
0
LINE
8
BLACK
6
CONTINUOUS
10
1.32145
20
0.298498
11
1.33297
21
0.306674
0
LINE
8
BLACK
6
CONTINUOUS
10
1.33297
20
0.306674
11
1.34534
21
0.313508
0
LINE
8
BLACK
6
CONTINUOUS
10
1.34534
20
0.313508
11
1.35839
21
0.318914
0
LINE
8
BLACK
6
CONTINUOUS
10
1.35839
20
0.318914
11
1.37197
21
0.322826
0
LINE
8
BLACK
6
CONTINUOUS
10
1.37197
20
0.322826
11
1.38589
21
0.325192
0
LINE
8
BLACK
6
CONTINUOUS
10
1.38589
20
0.325192
11
1.4
21
0.325984
0
LINE
8
BLACK
6
CONTINUOUS
10
1.4
20
0.325984
11
1.41411
21
0.325192
0
LINE
8
BLACK
6
CONTINUOUS
10
0.683013
20
0.162275
11
0.685568
21
0.160568
0
LINE
8
BLACK
6
CONTINUOUS
10
0.685568
20
0.160568
11
0.687275
21
0.158013
0
LINE
8
BLACK
6
CONTINUOUS
10
0.687275
20
0.158013
11
0.687874
21
0.155
0
LINE
8
BLACK
6
CONTINUOUS
10
0.687874
20
0.155
11
0.687874
21
0.095
0
LINE
8
BLACK
6
CONTINUOUS
10
0.687874
20
0.095
11
0.687275
21
0.0919867
0
LINE
8
BLACK
6
CONTINUOUS
10
0.687275
20
0.0919867
11
0.685568
21
0.0894322
0
LINE
8
BLACK
6
CONTINUOUS
10
0.685568
20
0.0894322
11
0.683013
21
0.0877254
0
LINE
8
BLACK
6
CONTINUOUS
10
0.683013
20
0.0877254
11
0.68
21
0.087126
0
LINE
8
BLACK
6
CONTINUOUS
10
0.68
20
0.087126
11
0.62
21
0.087126
0
LINE
8
BLACK
6
CONTINUOUS
10
0.62
20
0.087126
11
0.616987
21
0.0877254
0
LINE
8
BLACK
6
CONTINUOUS
10
0.616987
20
0.0877254
11
0.614432
21
0.0894322
0
LINE
8
BLACK
6
CONTINUOUS
10
0.614432
20
0.0894322
11
0.612725
21
0.0919867
0
LINE
8
BLACK
6
CONTINUOUS
10
0.612725
20
0.0919867
11
0.612126
21
0.095
0
LINE
8
BLACK
6
CONTINUOUS
10
0.612126
20
0.095
11
0.612126
21
0.155
0
LINE
8
BLACK
6
CONTINUOUS
10
0.612126
20
0.155
11
0.612725
21
0.158013
0
LINE
8
BLACK
6
CONTINUOUS
10
0.612725
20
0.158013
11
0.614432
21
0.160568
0
LINE
8
BLACK
6
CONTINUOUS
10
0.614432
20
0.160568
11
0.616987
21
0.162275
0
LINE
8
BLACK
6
CONTINUOUS
10
0.616987
20
0.162275
11
0.62
21
0.162874
0
LINE
8
BLACK
6
CONTINUOUS
10
0.62
20
0.162874
11
0.68
21
0.162874
0
LINE
8
BLACK
6
CONTINUOUS
10
0.68
20
0.162874
11
0.683013
21
0.162275
0
LINE
8
BLACK
6
CONTINUOUS
10
0.933013
20
0.162275
11
0.935568
21
0.160568
0
LINE
8
BLACK
6
CONTINUOUS
10
0.935568
20
0.160568
11
0.937275
21
0.158013
0
LINE
8
BLACK
6
CONTINUOUS
10
0.937275
20
0.158013
11
0.937874
21
0.155
0
LINE
8
BLACK
6
CONTINUOUS
10
0.937874
20
0.155
11
0.937874
21
0.095
0
LINE
8
BLACK
6
CONTINUOUS
10
0.937874
20
0.095
11
0.937275
21
0.0919867
0
LINE
8
BLACK
6
CONTINUOUS
10
0.937275
20
0.0919867
11
0.935568
21
0.0894322
0
LINE
8
BLACK
6
CONTINUOUS
10
0.935568
20
0.0894322
11
0.933013
21
0.0877254
0
LINE
8
BLACK
6
CONTINUOUS
10
0.933013
20
0.0877254
11
0.93
21
0.087126
0
LINE
8
BLACK
6
CONTINUOUS
10
0.93
20
0.087126
11
0.87
21
0.087126
0
LINE
8
BLACK
6
CONTINUOUS
10
0.87
20
0.087126
11
0.866987
21
0.0877254
0
LINE
8
BLACK
6
CONTINUOUS
10
0.866987
20
0.0877254
11
0.864432
21
0.0894322
0
LINE
8
BLACK
6
CONTINUOUS
10
0.864432
20
0.0894322
11
0.862725
21
0.0919867
0
LINE
8
BLACK
6
CONTINUOUS
10
0.862725
20
0.0919867
11
0.862126
21
0.095
0
LINE
8
BLACK
6
CONTINUOUS
10
0.862126
20
0.095
11
0.862126
21
0.155
0
LINE
8
BLACK
6
CONTINUOUS
10
0.862126
20
0.155
11
0.862725
21
0.158013
0
LINE
8
BLACK
6
CONTINUOUS
10
0.862725
20
0.158013
11
0.864432
21
0.160568
0
LINE
8
BLACK
6
CONTINUOUS
10
0.864432
20
0.160568
11
0.866987
21
0.162275
0
LINE
8
BLACK
6
CONTINUOUS
10
0.866987
20
0.162275
11
0.87
21
0.162874
0
LINE
8
BLACK
6
CONTINUOUS
10
0.87
20
0.162874
11
0.93
21
0.162874
0
LINE
8
BLACK
6
CONTINUOUS
10
0.93
20
0.162874
11
0.933013
21
0.162275
0
LINE
8
BLACK
6
CONTINUOUS
10
1.03301
20
0.162275
11
1.03557
21
0.160568
0
LINE
8
BLACK
6
CONTINUOUS
10
1.03557
20
0.160568
11
1.03727
21
0.158013
0
LINE
8
BLACK
6
CONTINUOUS
10
1.03727
20
0.158013
11
1.03787
21
0.155
0
LINE
8
BLACK
6
CONTINUOUS
10
1.03787
20
0.155
11
1.03787
21
0.095
0
LINE
8
BLACK
6
CONTINUOUS
10
1.03787
20
0.095
11
1.03727
21
0.0919867
0
LINE
8
BLACK
6
CONTINUOUS
10
1.03727
20
0.0919867
11
1.03557
21
0.0894322
0
LINE
8
BLACK
6
CONTINUOUS
10
1.03557
20
0.0894322
11
1.03301
21
0.0877254
0
LINE
8
BLACK
6
CONTINUOUS
10
1.03301
20
0.0877254
11
1.03
21
0.087126
0
LINE
8
BLACK
6
CONTINUOUS
10
1.03
20
0.087126
11
0.97
21
0.087126
0
LINE
8
BLACK
6
CONTINUOUS
10
0.97
20
0.087126
11
0.966987
21
0.0877254
0
LINE
8
BLACK
6
CONTINUOUS
10
0.966987
20
0.0877254
11
0.964432
21
0.0894322
0
LINE
8
BLACK
6
CONTINUOUS
10
0.964432
20
0.0894322
11
0.962725
21
0.0919867
0
LINE
8
BLACK
6
CONTINUOUS
10
0.962725
20
0.0919867
11
0.962126
21
0.095
0
LINE
8
BLACK
6
CONTINUOUS
10
0.962126
20
0.095
11
0.962126
21
0.155
0
LINE
8
BLACK
6
CONTINUOUS
10
0.962126
20
0.155
11
0.962725
21
0.158013
0
LINE
8
BLACK
6
CONTINUOUS
10
0.962725
20
0.158013
11
0.964432
21
0.160568
0
LINE
8
BLACK
6
CONTINUOUS
10
0.964432
20
0.160568
11
0.966987
21
0.162275
0
LINE
8
BLACK
6
CONTINUOUS
10
0.966987
20
0.162275
11
0.97
21
0.162874
0
LINE
8
BLACK
6
CONTINUOUS
10
0.97
20
0.162874
11
1.03
21
0.162874
0
LINE
8
BLACK
6
CONTINUOUS
10
1.03
20
0.162874
11
1.03301
21
0.162275
0
LINE
8
BLACK
6
CONTINUOUS
10
1.13301
20
0.162275
11
1.13557
21
0.160568
0
LINE
8
BLACK
6
CONTINUOUS
10
1.13557
20
0.160568
11
1.13727
21
0.158013
0
LINE
8
BLACK
6
CONTINUOUS
10
1.13727
20
0.158013
11
1.13787
21
0.155
0
LINE
8
BLACK
6
CONTINUOUS
10
1.13787
20
0.155
11
1.13787
21
0.095
0
LINE
8
BLACK
6
CONTINUOUS
10
1.13787
20
0.095
11
1.13727
21
0.0919867
0
LINE
8
BLACK
6
CONTINUOUS
10
1.13727
20
0.0919867
11
1.13557
21
0.0894322
0
LINE
8
BLACK
6
CONTINUOUS
10
1.13557
20
0.0894322
11
1.13301
21
0.0877254
0
LINE
8
BLACK
6
CONTINUOUS
10
1.13301
20
0.0877254
11
1.13
21
0.087126
0
LINE
8
BLACK
6
CONTINUOUS
10
1.13
20
0.087126
11
1.07
21
0.087126
0
LINE
8
BLACK
6
CONTINUOUS
10
1.07
20
0.087126
11
1.06699
21
0.0877254
0
LINE
8
BLACK
6
CONTINUOUS
10
1.06699
20
0.0877254
11
1.06443
21
0.0894322
0
LINE
8
BLACK
6
CONTINUOUS
10
1.06443
20
0.0894322
11
1.06273
21
0.0919867
0
LINE
8
BLACK
6
CONTINUOUS
10
1.06273
20
0.0919867
11
1.06213
21
0.095
0
LINE
8
BLACK
6
CONTINUOUS
10
1.06213
20
0.095
11
1.06213
21
0.155
0
LINE
8
BLACK
6
CONTINUOUS
10
1.06213
20
0.155
11
1.06273
21
0.158013
0
LINE
8
BLACK
6
CONTINUOUS
10
1.06273
20
0.158013
11
1.06443
21
0.160568
0
LINE
8
BLACK
6
CONTINUOUS
10
1.06443
20
0.160568
11
1.06699
21
0.162275
0
LINE
8
BLACK
6
CONTINUOUS
10
1.06699
20
0.162275
11
1.07
21
0.162874
0
LINE
8
BLACK
6
CONTINUOUS
10
1.07
20
0.162874
11
1.13
21
0.162874
0
LINE
8
BLACK
6
CONTINUOUS
10
1.13
20
0.162874
11
1.13301
21
0.162275
0
LINE
8
BLACK
6
CONTINUOUS
10
0.683013
20
0.262275
11
0.685568
21
0.260568
0
LINE
8
BLACK
6
CONTINUOUS
10
0.685568
20
0.260568
11
0.687275
21
0.258013
0
LINE
8
BLACK
6
CONTINUOUS
10
0.687275
20
0.258013
11
0.687874
21
0.255
0
LINE
8
BLACK
6
CONTINUOUS
10
0.687874
20
0.255
11
0.687874
21
0.195
0
LINE
8
BLACK
6
CONTINUOUS
10
0.687874
20
0.195
11
0.687275
21
0.191987
0
LINE
8
BLACK
6
CONTINUOUS
10
0.687275
20
0.191987
11
0.685568
21
0.189432
0
LINE
8
BLACK
6
CONTINUOUS
10
0.685568
20
0.189432
11
0.683013
21
0.187725
0
LINE
8
BLACK
6
CONTINUOUS
10
0.683013
20
0.187725
11
0.68
21
0.187126
0
LINE
8
BLACK
6
CONTINUOUS
10
0.68
20
0.187126
11
0.62
21
0.187126
0
LINE
8
BLACK
6
CONTINUOUS
10
0.62
20
0.187126
11
0.616987
21
0.187725
0
LINE
8
BLACK
6
CONTINUOUS
10
0.616987
20
0.187725
11
0.614432
21
0.189432
0
LINE
8
BLACK
6
CONTINUOUS
10
0.614432
20
0.189432
11
0.612725
21
0.191987
0
LINE
8
BLACK
6
CONTINUOUS
10
0.612725
20
0.191987
11
0.612126
21
0.195
0
LINE
8
BLACK
6
CONTINUOUS
10
0.612126
20
0.195
11
0.612126
21
0.255
0
LINE
8
BLACK
6
CONTINUOUS
10
0.612126
20
0.255
11
0.612725
21
0.258013
0
LINE
8
BLACK
6
CONTINUOUS
10
0.612725
20
0.258013
11
0.614432
21
0.260568
0
LINE
8
BLACK
6
CONTINUOUS
10
0.614432
20
0.260568
11
0.616987
21
0.262275
0
LINE
8
BLACK
6
CONTINUOUS
10
0.616987
20
0.262275
11
0.62
21
0.262874
0
LINE
8
BLACK
6
CONTINUOUS
10
0.62
20
0.262874
11
0.68
21
0.262874
0
LINE
8
BLACK
6
CONTINUOUS
10
0.68
20
0.262874
11
0.683013
21
0.262275
0
LINE
8
BLACK
6
CONTINUOUS
10
0.933013
20
0.262275
11
0.935568
21
0.260568
0
LINE
8
BLACK
6
CONTINUOUS
10
0.935568
20
0.260568
11
0.937275
21
0.258013
0
LINE
8
BLACK
6
CONTINUOUS
10
0.937275
20
0.258013
11
0.937874
21
0.255
0
LINE
8
BLACK
6
CONTINUOUS
10
0.937874
20
0.255
11
0.937874
21
0.195
0
LINE
8
BLACK
6
CONTINUOUS
10
0.937874
20
0.195
11
0.937275
21
0.191987
0
LINE
8
BLACK
6
CONTINUOUS
10
0.937275
20
0.191987
11
0.935568
21
0.189432
0
LINE
8
BLACK
6
CONTINUOUS
10
0.935568
20
0.189432
11
0.933013
21
0.187725
0
LINE
8
BLACK
6
CONTINUOUS
10
0.933013
20
0.187725
11
0.93
21
0.187126
0
LINE
8
BLACK
6
CONTINUOUS
10
0.93
20
0.187126
11
0.87
21
0.187126
0
LINE
8
BLACK
6
CONTINUOUS
10
0.87
20
0.187126
11
0.866987
21
0.187725
0
LINE
8
BLACK
6
CONTINUOUS
10
0.866987
20
0.187725
11
0.864432
21
0.189432
0
LINE
8
BLACK
6
CONTINUOUS
10
0.864432
20
0.189432
11
0.862725
21
0.191987
0
LINE
8
BLACK
6
CONTINUOUS
10
0.862725
20
0.191987
11
0.862126
21
0.195
0
LINE
8
BLACK
6
CONTINUOUS
10
0.862126
20
0.195
11
0.862126
21
0.255
0
LINE
8
BLACK
6
CONTINUOUS
10
0.862126
20
0.255
11
0.862725
21
0.258013
0
LINE
8
BLACK
6
CONTINUOUS
10
0.862725
20
0.258013
11
0.864432
21
0.260568
0
LINE
8
BLACK
6
CONTINUOUS
10
0.864432
20
0.260568
11
0.866987
21
0.262275
0
LINE
8
BLACK
6
CONTINUOUS
10
0.866987
20
0.262275
11
0.87
21
0.262874
0
LINE
8
BLACK
6
CONTINUOUS
10
0.87
20
0.262874
11
0.93
21
0.262874
0
LINE
8
BLACK
6
CONTINUOUS
10
0.93
20
0.262874
11
0.933013
21
0.262275
0
LINE
8
BLACK
6
CONTINUOUS
10
1.03301
20
0.262275
11
1.03557
21
0.260568
0
LINE
8
BLACK
6
CONTINUOUS
10
1.03557
20
0.260568
11
1.03727
21
0.258013
0
LINE
8
BLACK
6
CONTINUOUS
10
1.03727
20
0.258013
11
1.03787
21
0.255
0
LINE
8
BLACK
6
CONTINUOUS
10
1.03787
20
0.255
11
1.03787
21
0.195
0
LINE
8
BLACK
6
CONTINUOUS
10
1.03787
20
0.195
11
1.03727
21
0.191987
0
LINE
8
BLACK
6
CONTINUOUS
10
1.03727
20
0.191987
11
1.03557
21
0.189432
0
LINE
8
BLACK
6
CONTINUOUS
10
1.03557
20
0.189432
11
1.03301
21
0.187725
0
LINE
8
BLACK
6
CONTINUOUS
10
1.03301
20
0.187725
11
1.03
21
0.187126
0
LINE
8
BLACK
6
CONTINUOUS
10
1.03
20
0.187126
11
0.97
21
0.187126
0
LINE
8
BLACK
6
CONTINUOUS
10
0.97
20
0.187126
11
0.966987
21
0.187725
0
LINE
8
BLACK
6
CONTINUOUS
10
0.966987
20
0.187725
11
0.964432
21
0.189432
0
LINE
8
BLACK
6
CONTINUOUS
10
0.964432
20
0.189432
11
0.962725
21
0.191987
0
LINE
8
BLACK
6
CONTINUOUS
10
0.962725
20
0.191987
11
0.962126
21
0.195
0
LINE
8
BLACK
6
CONTINUOUS
10
0.962126
20
0.195
11
0.962126
21
0.255
0
LINE
8
BLACK
6
CONTINUOUS
10
0.962126
20
0.255
11
0.962725
21
0.258013
0
LINE
8
BLACK
6
CONTINUOUS
10
0.962725
20
0.258013
11
0.964432
21
0.260568
0
LINE
8
BLACK
6
CONTINUOUS
10
0.964432
20
0.260568
11
0.966987
21
0.262275
0
LINE
8
BLACK
6
CONTINUOUS
10
0.966987
20
0.262275
11
0.97
21
0.262874
0
LINE
8
BLACK
6
CONTINUOUS
10
0.97
20
0.262874
11
1.03
21
0.262874
0
LINE
8
BLACK
6
CONTINUOUS
10
1.03
20
0.262874
11
1.03301
21
0.262275
0
LINE
8
BLACK
6
CONTINUOUS
10
1.13301
20
0.262275
11
1.13557
21
0.260568
0
LINE
8
BLACK
6
CONTINUOUS
10
1.13557
20
0.260568
11
1.13727
21
0.258013
0
LINE
8
BLACK
6
CONTINUOUS
10
1.13727
20
0.258013
11
1.13787
21
0.255
0
LINE
8
BLACK
6
CONTINUOUS
10
1.13787
20
0.255
11
1.13787
21
0.195
0
LINE
8
BLACK
6
CONTINUOUS
10
1.13787
20
0.195
11
1.13727
21
0.191987
0
LINE
8
BLACK
6
CONTINUOUS
10
1.13727
20
0.191987
11
1.13557
21
0.189432
0
LINE
8
BLACK
6
CONTINUOUS
10
1.13557
20
0.189432
11
1.13301
21
0.187725
0
LINE
8
BLACK
6
CONTINUOUS
10
1.13301
20
0.187725
11
1.13
21
0.187126
0
LINE
8
BLACK
6
CONTINUOUS
10
1.13
20
0.187126
11
1.07
21
0.187126
0
LINE
8
BLACK
6
CONTINUOUS
10
1.07
20
0.187126
11
1.06699
21
0.187725
0
LINE
8
BLACK
6
CONTINUOUS
10
1.06699
20
0.187725
11
1.06443
21
0.189432
0
LINE
8
BLACK
6
CONTINUOUS
10
1.06443
20
0.189432
11
1.06273
21
0.191987
0
LINE
8
BLACK
6
CONTINUOUS
10
1.06273
20
0.191987
11
1.06213
21
0.195
0
LINE
8
BLACK
6
CONTINUOUS
10
1.06213
20
0.195
11
1.06213
21
0.255
0
LINE
8
BLACK
6
CONTINUOUS
10
1.06213
20
0.255
11
1.06273
21
0.258013
0
LINE
8
BLACK
6
CONTINUOUS
10
1.06273
20
0.258013
11
1.06443
21
0.260568
0
LINE
8
BLACK
6
CONTINUOUS
10
1.06443
20
0.260568
11
1.06699
21
0.262275
0
LINE
8
BLACK
6
CONTINUOUS
10
1.06699
20
0.262275
11
1.07
21
0.262874
0
LINE
8
BLACK
6
CONTINUOUS
10
1.07
20
0.262874
11
1.13
21
0.262874
0
LINE
8
BLACK
6
CONTINUOUS
10
1.13
20
0.262874
11
1.13301
21
0.262275
0
LINE
8
BLACK
6
CONTINUOUS
10
1.37301
20
0.637275
11
1.37557
21
0.635568
0
LINE
8
BLACK
6
CONTINUOUS
10
1.37557
20
0.635568
11
1.37727
21
0.633013
0
LINE
8
BLACK
6
CONTINUOUS
10
1.37727
20
0.633013
11
1.37787
21
0.63
0
LINE
8
BLACK
6
CONTINUOUS
10
1.37787
20
0.63
11
1.37787
21
0.57
0
LINE
8
BLACK
6
CONTINUOUS
10
1.37787
20
0.57
11
1.37727
21
0.566987
0
LINE
8
BLACK
6
CONTINUOUS
10
1.37727
20
0.566987
11
1.37557
21
0.564432
0
LINE
8
BLACK
6
CONTINUOUS
10
1.37557
20
0.564432
11
1.37301
21
0.562725
0
LINE
8
BLACK
6
CONTINUOUS
10
1.37301
20
0.562725
11
1.37
21
0.562126
0
LINE
8
BLACK
6
CONTINUOUS
10
1.37
20
0.562126
11
1.31
21
0.562126
0
LINE
8
BLACK
6
CONTINUOUS
10
1.31
20
0.562126
11
1.30699
21
0.562725
0
LINE
8
BLACK
6
CONTINUOUS
10
1.30699
20
0.562725
11
1.30443
21
0.564432
0
LINE
8
BLACK
6
CONTINUOUS
10
1.30443
20
0.564432
11
1.30273
21
0.566987
0
LINE
8
BLACK
6
CONTINUOUS
10
1.30273
20
0.566987
11
1.30213
21
0.57
0
LINE
8
BLACK
6
CONTINUOUS
10
1.30213
20
0.57
11
1.30213
21
0.63
0
LINE
8
BLACK
6
CONTINUOUS
10
1.30213
20
0.63
11
1.30273
21
0.633013
0
LINE
8
BLACK
6
CONTINUOUS
10
1.30273
20
0.633013
11
1.30443
21
0.635568
0
LINE
8
BLACK
6
CONTINUOUS
10
1.30443
20
0.635568
11
1.30699
21
0.637275
0
LINE
8
BLACK
6
CONTINUOUS
10
1.30699
20
0.637275
11
1.31
21
0.637874
0
LINE
8
BLACK
6
CONTINUOUS
10
1.31
20
0.637874
11
1.37
21
0.637874
0
LINE
8
BLACK
6
CONTINUOUS
10
1.37
20
0.637874
11
1.37301
21
0.637275
0
LINE
8
BLACK
6
CONTINUOUS
10
1.47301
20
0.637275
11
1.47557
21
0.635568
0
LINE
8
BLACK
6
CONTINUOUS
10
1.47557
20
0.635568
11
1.47727
21
0.633013
0
LINE
8
BLACK
6
CONTINUOUS
10
1.47727
20
0.633013
11
1.47787
21
0.63
0
LINE
8
BLACK
6
CONTINUOUS
10
1.47787
20
0.63
11
1.47787
21
0.57
0
LINE
8
BLACK
6
CONTINUOUS
10
1.47787
20
0.57
11
1.47727
21
0.566987
0
LINE
8
BLACK
6
CONTINUOUS
10
1.47727
20
0.566987
11
1.47557
21
0.564432
0
LINE
8
BLACK
6
CONTINUOUS
10
1.47557
20
0.564432
11
1.47301
21
0.562725
0
LINE
8
BLACK
6
CONTINUOUS
10
1.47301
20
0.562725
11
1.47
21
0.562126
0
LINE
8
BLACK
6
CONTINUOUS
10
1.47
20
0.562126
11
1.41
21
0.562126
0
LINE
8
BLACK
6
CONTINUOUS
10
1.41
20
0.562126
11
1.40699
21
0.562725
0
LINE
8
BLACK
6
CONTINUOUS
10
1.40699
20
0.562725
11
1.40443
21
0.564432
0
LINE
8
BLACK
6
CONTINUOUS
10
1.40443
20
0.564432
11
1.40273
21
0.566987
0
LINE
8
BLACK
6
CONTINUOUS
10
1.40273
20
0.566987
11
1.40213
21
0.57
0
LINE
8
BLACK
6
CONTINUOUS
10
1.40213
20
0.57
11
1.40213
21
0.63
0
LINE
8
BLACK
6
CONTINUOUS
10
1.40213
20
0.63
11
1.40273
21
0.633013
0
LINE
8
BLACK
6
CONTINUOUS
10
1.40273
20
0.633013
11
1.40443
21
0.635568
0
LINE
8
BLACK
6
CONTINUOUS
10
1.40443
20
0.635568
11
1.40699
21
0.637275
0
LINE
8
BLACK
6
CONTINUOUS
10
1.40699
20
0.637275
11
1.41
21
0.637874
0
LINE
8
BLACK
6
CONTINUOUS
10
1.41
20
0.637874
11
1.47
21
0.637874
0
LINE
8
BLACK
6
CONTINUOUS
10
1.47
20
0.637874
11
1.47301
21
0.637275
0
LINE
8
BLACK
6
CONTINUOUS
10
1.37301
20
0.737275
11
1.37557
21
0.735568
0
LINE
8
BLACK
6
CONTINUOUS
10
1.37557
20
0.735568
11
1.37727
21
0.733013
0
LINE
8
BLACK
6
CONTINUOUS
10
1.37727
20
0.733013
11
1.37787
21
0.73
0
LINE
8
BLACK
6
CONTINUOUS
10
1.37787
20
0.73
11
1.37787
21
0.67
0
LINE
8
BLACK
6
CONTINUOUS
10
1.37787
20
0.67
11
1.37727
21
0.666987
0
LINE
8
BLACK
6
CONTINUOUS
10
1.37727
20
0.666987
11
1.37557
21
0.664432
0
LINE
8
BLACK
6
CONTINUOUS
10
1.37557
20
0.664432
11
1.37301
21
0.662725
0
LINE
8
BLACK
6
CONTINUOUS
10
1.37301
20
0.662725
11
1.37
21
0.662126
0
LINE
8
BLACK
6
CONTINUOUS
10
1.37
20
0.662126
11
1.31
21
0.662126
0
LINE
8
BLACK
6
CONTINUOUS
10
1.31
20
0.662126
11
1.30699
21
0.662725
0
LINE
8
BLACK
6
CONTINUOUS
10
1.30699
20
0.662725
11
1.30443
21
0.664432
0
LINE
8
BLACK
6
CONTINUOUS
10
1.30443
20
0.664432
11
1.30273
21
0.666987
0
LINE
8
BLACK
6
CONTINUOUS
10
1.30273
20
0.666987
11
1.30213
21
0.67
0
LINE
8
BLACK
6
CONTINUOUS
10
1.30213
20
0.67
11
1.30213
21
0.73
0
LINE
8
BLACK
6
CONTINUOUS
10
1.30213
20
0.73
11
1.30273
21
0.733013
0
LINE
8
BLACK
6
CONTINUOUS
10
1.30273
20
0.733013
11
1.30443
21
0.735568
0
LINE
8
BLACK
6
CONTINUOUS
10
1.30443
20
0.735568
11
1.30699
21
0.737275
0
LINE
8
BLACK
6
CONTINUOUS
10
1.30699
20
0.737275
11
1.31
21
0.737874
0
LINE
8
BLACK
6
CONTINUOUS
10
1.31
20
0.737874
11
1.37
21
0.737874
0
LINE
8
BLACK
6
CONTINUOUS
10
1.37
20
0.737874
11
1.37301
21
0.737275
0
LINE
8
BLACK
6
CONTINUOUS
10
1.47301
20
0.737275
11
1.47557
21
0.735568
0
LINE
8
BLACK
6
CONTINUOUS
10
1.47557
20
0.735568
11
1.47727
21
0.733013
0
LINE
8
BLACK
6
CONTINUOUS
10
1.47727
20
0.733013
11
1.47787
21
0.73
0
LINE
8
BLACK
6
CONTINUOUS
10
1.47787
20
0.73
11
1.47787
21
0.67
0
LINE
8
BLACK
6
CONTINUOUS
10
1.47787
20
0.67
11
1.47727
21
0.666987
0
LINE
8
BLACK
6
CONTINUOUS
10
1.47727
20
0.666987
11
1.47557
21
0.664432
0
LINE
8
BLACK
6
CONTINUOUS
10
1.47557
20
0.664432
11
1.47301
21
0.662725
0
LINE
8
BLACK
6
CONTINUOUS
10
1.47301
20
0.662725
11
1.47
21
0.662126
0
LINE
8
BLACK
6
CONTINUOUS
10
1.47
20
0.662126
11
1.41
21
0.662126
0
LINE
8
BLACK
6
CONTINUOUS
10
1.41
20
0.662126
11
1.40699
21
0.662725
0
LINE
8
BLACK
6
CONTINUOUS
10
1.40699
20
0.662725
11
1.40443
21
0.664432
0
LINE
8
BLACK
6
CONTINUOUS
10
1.40443
20
0.664432
11
1.40273
21
0.666987
0
LINE
8
BLACK
6
CONTINUOUS
10
1.40273
20
0.666987
11
1.40213
21
0.67
0
LINE
8
BLACK
6
CONTINUOUS
10
1.40213
20
0.67
11
1.40213
21
0.73
0
LINE
8
BLACK
6
CONTINUOUS
10
1.40213
20
0.73
11
1.40273
21
0.733013
0
LINE
8
BLACK
6
CONTINUOUS
10
1.40273
20
0.733013
11
1.40443
21
0.735568
0
LINE
8
BLACK
6
CONTINUOUS
10
1.40443
20
0.735568
11
1.40699
21
0.737275
0
LINE
8
BLACK
6
CONTINUOUS
10
1.40699
20
0.737275
11
1.41
21
0.737874
0
LINE
8
BLACK
6
CONTINUOUS
10
1.41
20
0.737874
11
1.47
21
0.737874
0
LINE
8
BLACK
6
CONTINUOUS
10
1.47
20
0.737874
11
1.47301
21
0.737275
0
LINE
8
BLACK
6
CONTINUOUS
10
0.214106
20
1.12519
11
0.228034
21
1.12283
0
LINE
8
BLACK
6
CONTINUOUS
10
0.228034
20
1.12283
11
0.24161
21
1.11891
0
LINE
8
BLACK
6
CONTINUOUS
10
0.24161
20
1.11891
11
0.254663
21
1.11351
0
LINE
8
BLACK
6
CONTINUOUS
10
0.254663
20
1.11351
11
0.267028
21
1.10667
0
LINE
8
BLACK
6
CONTINUOUS
10
0.267028
20
1.10667
11
0.27855
21
1.0985
0
LINE
8
BLACK
6
CONTINUOUS
10
0.27855
20
1.0985
11
0.289084
21
1.08908
0
LINE
8
BLACK
6
CONTINUOUS
10
0.289084
20
1.08908
11
0.298498
21
1.07855
0
LINE
8
BLACK
6
CONTINUOUS
10
0.298498
20
1.07855
11
0.306674
21
1.06703
0
LINE
8
BLACK
6
CONTINUOUS
10
0.306674
20
1.06703
11
0.313508
21
1.05466
0
LINE
8
BLACK
6
CONTINUOUS
10
0.313508
20
1.05466
11
0.318914
21
1.04161
0
LINE
8
BLACK
6
CONTINUOUS
10
0.318914
20
1.04161
11
0.322826
21
1.02803
0
LINE
8
BLACK
6
CONTINUOUS
10
0.322826
20
1.02803
11
0.325192
21
1.01411
0
LINE
8
BLACK
6
CONTINUOUS
10
0.325192
20
1.01411
11
0.325984
21
1
0
LINE
8
BLACK
6
CONTINUOUS
10
0.325984
20
1
11
0.325192
21
0.985894
0
LINE
8
BLACK
6
CONTINUOUS
10
0.325192
20
0.985894
11
0.322826
21
0.971966
0
LINE
8
BLACK
6
CONTINUOUS
10
0.322826
20
0.971966
11
0.318914
21
0.95839
0
LINE
8
BLACK
6
CONTINUOUS
10
0.318914
20
0.95839
11
0.313508
21
0.945337
0
LINE
8
BLACK
6
CONTINUOUS
10
0.313508
20
0.945337
11
0.306674
21
0.932972
0
LINE
8
BLACK
6
CONTINUOUS
10
0.306674
20
0.932972
11
0.298498
21
0.92145
0
LINE
8
BLACK
6
CONTINUOUS
10
0.298498
20
0.92145
11
0.289084
21
0.910916
0
LINE
8
BLACK
6
CONTINUOUS
10
0.289084
20
0.910916
11
0.27855
21
0.901502
0
LINE
8
BLACK
6
CONTINUOUS
10
0.27855
20
0.901502
11
0.267028
21
0.893326
0
LINE
8
BLACK
6
CONTINUOUS
10
0.267028
20
0.893326
11
0.254663
21
0.886492
0
LINE
8
BLACK
6
CONTINUOUS
10
0.254663
20
0.886492
11
0.24161
21
0.881086
0
LINE
8
BLACK
6
CONTINUOUS
10
0.24161
20
0.881086
11
0.228034
21
0.877174
0
LINE
8
BLACK
6
CONTINUOUS
10
0.228034
20
0.877174
11
0.214106
21
0.874808
0
LINE
8
BLACK
6
CONTINUOUS
10
0.214106
20
0.874808
11
0.2
21
0.874016
0
LINE
8
BLACK
6
CONTINUOUS
10
0.2
20
0.874016
11
0.185894
21
0.874808
0
LINE
8
BLACK
6
CONTINUOUS
10
0.185894
20
0.874808
11
0.171966
21
0.877174
0
LINE
8
BLACK
6
CONTINUOUS
10
0.171966
20
0.877174
11
0.15839
21
0.881086
0
LINE
8
BLACK
6
CONTINUOUS
10
0.15839
20
0.881086
11
0.145337
21
0.886492
0
LINE
8
BLACK
6
CONTINUOUS
10
0.145337
20
0.886492
11
0.132972
21
0.893326
0
LINE
8
BLACK
6
CONTINUOUS
10
0.132972
20
0.893326
11
0.12145
21
0.901502
0
LINE
8
BLACK
6
CONTINUOUS
10
0.12145
20
0.901502
11
0.110916
21
0.910916
0
LINE
8
BLACK
6
CONTINUOUS
10
0.110916
20
0.910916
11
0.101502
21
0.92145
0
LINE
8
BLACK
6
CONTINUOUS
10
0.101502
20
0.92145
11
0.0933261
21
0.932972
0
LINE
8
BLACK
6
CONTINUOUS
10
0.0933261
20
0.932972
11
0.0864921
21
0.945337
0
LINE
8
BLACK
6
CONTINUOUS
10
0.0864921
20
0.945337
11
0.0810856
21
0.95839
0
LINE
8
BLACK
6
CONTINUOUS
10
0.0810856
20
0.95839
11
0.0771744
21
0.971966
0
LINE
8
BLACK
6
CONTINUOUS
10
0.0771744
20
0.971966
11
0.0748079
21
0.985894
0
LINE
8
BLACK
6
CONTINUOUS
10
0.0748079
20
0.985894
11
0.0740157
21
1
0
LINE
8
BLACK
6
CONTINUOUS
10
0.0740157
20
1
11
0.0748079
21
1.01411
0
LINE
8
BLACK
6
CONTINUOUS
10
0.0748079
20
1.01411
11
0.0771744
21
1.02803
0
LINE
8
BLACK
6
CONTINUOUS
10
0.0771744
20
1.02803
11
0.0810856
21
1.04161
0
LINE
8
BLACK
6
CONTINUOUS
10
0.0810856
20
1.04161
11
0.0864921
21
1.05466
0
LINE
8
BLACK
6
CONTINUOUS
10
0.0864921
20
1.05466
11
0.0933261
21
1.06703
0
LINE
8
BLACK
6
CONTINUOUS
10
0.0933261
20
1.06703
11
0.101502
21
1.07855
0
LINE
8
BLACK
6
CONTINUOUS
10
0.101502
20
1.07855
11
0.110916
21
1.08908
0
LINE
8
BLACK
6
CONTINUOUS
10
0.110916
20
1.08908
11
0.12145
21
1.0985
0
LINE
8
BLACK
6
CONTINUOUS
10
0.12145
20
1.0985
11
0.132972
21
1.10667
0
LINE
8
BLACK
6
CONTINUOUS
10
0.132972
20
1.10667
11
0.145337
21
1.11351
0
LINE
8
BLACK
6
CONTINUOUS
10
0.145337
20
1.11351
11
0.15839
21
1.11891
0
LINE
8
BLACK
6
CONTINUOUS
10
0.15839
20
1.11891
11
0.171966
21
1.12283
0
LINE
8
BLACK
6
CONTINUOUS
10
0.171966
20
1.12283
11
0.185894
21
1.12519
0
LINE
8
BLACK
6
CONTINUOUS
10
0.185894
20
1.12519
11
0.2
21
1.12598
0
LINE
8
BLACK
6
CONTINUOUS
10
0.2
20
1.12598
11
0.214106
21
1.12519
0
LINE
8
BLACK
6
CONTINUOUS
10
1.41411
20
1.12519
11
1.42803
21
1.12283
0
LINE
8
BLACK
6
CONTINUOUS
10
1.42803
20
1.12283
11
1.44161
21
1.11891
0
LINE
8
BLACK
6
CONTINUOUS
10
1.44161
20
1.11891
11
1.45466
21
1.11351
0
LINE
8
BLACK
6
CONTINUOUS
10
1.45466
20
1.11351
11
1.46703
21
1.10667
0
LINE
8
BLACK
6
CONTINUOUS
10
1.46703
20
1.10667
11
1.47855
21
1.0985
0
LINE
8
BLACK
6
CONTINUOUS
10
1.47855
20
1.0985
11
1.48908
21
1.08908
0
LINE
8
BLACK
6
CONTINUOUS
10
1.48908
20
1.08908
11
1.4985
21
1.07855
0
LINE
8
BLACK
6
CONTINUOUS
10
1.4985
20
1.07855
11
1.50667
21
1.06703
0
LINE
8
BLACK
6
CONTINUOUS
10
1.50667
20
1.06703
11
1.51351
21
1.05466
0
LINE
8
BLACK
6
CONTINUOUS
10
1.51351
20
1.05466
11
1.51891
21
1.04161
0
LINE
8
BLACK
6
CONTINUOUS
10
1.51891
20
1.04161
11
1.52283
21
1.02803
0
LINE
8
BLACK
6
CONTINUOUS
10
1.52283
20
1.02803
11
1.52519
21
1.01411
0
LINE
8
BLACK
6
CONTINUOUS
10
1.52519
20
1.01411
11
1.52598
21
1
0
LINE
8
BLACK
6
CONTINUOUS
10
1.52598
20
1
11
1.52519
21
0.985894
0
LINE
8
BLACK
6
CONTINUOUS
10
1.52519
20
0.985894
11
1.52283
21
0.971966
0
LINE
8
BLACK
6
CONTINUOUS
10
1.52283
20
0.971966
11
1.51891
21
0.95839
0
LINE
8
BLACK
6
CONTINUOUS
10
1.51891
20
0.95839
11
1.51351
21
0.945337
0
LINE
8
BLACK
6
CONTINUOUS
10
1.51351
20
0.945337
11
1.50667
21
0.932972
0
LINE
8
BLACK
6
CONTINUOUS
10
1.50667
20
0.932972
11
1.4985
21
0.92145
0
LINE
8
BLACK
6
CONTINUOUS
10
1.4985
20
0.92145
11
1.48908
21
0.910916
0
LINE
8
BLACK
6
CONTINUOUS
10
1.48908
20
0.910916
11
1.47855
21
0.901502
0
LINE
8
BLACK
6
CONTINUOUS
10
1.47855
20
0.901502
11
1.46703
21
0.893326
0
LINE
8
BLACK
6
CONTINUOUS
10
1.46703
20
0.893326
11
1.45466
21
0.886492
0
LINE
8
BLACK
6
CONTINUOUS
10
1.45466
20
0.886492
11
1.44161
21
0.881086
0
LINE
8
BLACK
6
CONTINUOUS
10
1.44161
20
0.881086
11
1.42803
21
0.877174
0
LINE
8
BLACK
6
CONTINUOUS
10
1.42803
20
0.877174
11
1.41411
21
0.874808
0
LINE
8
BLACK
6
CONTINUOUS
10
1.41411
20
0.874808
11
1.4
21
0.874016
0
LINE
8
BLACK
6
CONTINUOUS
10
1.4
20
0.874016
11
1.38589
21
0.874808
0
LINE
8
BLACK
6
CONTINUOUS
10
1.38589
20
0.874808
11
1.37197
21
0.877174
0
LINE
8
BLACK
6
CONTINUOUS
10
1.37197
20
0.877174
11
1.35839
21
0.881086
0
LINE
8
BLACK
6
CONTINUOUS
10
1.35839
20
0.881086
11
1.34534
21
0.886492
0
LINE
8
BLACK
6
CONTINUOUS
10
1.34534
20
0.886492
11
1.33297
21
0.893326
0
LINE
8
BLACK
6
CONTINUOUS
10
1.33297
20
0.893326
11
1.32145
21
0.901502
0
LINE
8
BLACK
6
CONTINUOUS
10
1.32145
20
0.901502
11
1.31092
21
0.910916
0
LINE
8
BLACK
6
CONTINUOUS
10
1.31092
20
0.910916
11
1.3015
21
0.92145
0
LINE
8
BLACK
6
CONTINUOUS
10
1.3015
20
0.92145
11
1.29333
21
0.932972
0
LINE
8
BLACK
6
CONTINUOUS
10
1.29333
20
0.932972
11
1.28649
21
0.945337
0
LINE
8
BLACK
6
CONTINUOUS
10
1.28649
20
0.945337
11
1.28109
21
0.95839
0
LINE
8
BLACK
6
CONTINUOUS
10
1.28109
20
0.95839
11
1.27717
21
0.971966
0
LINE
8
BLACK
6
CONTINUOUS
10
1.27717
20
0.971966
11
1.27481
21
0.985894
0
LINE
8
BLACK
6
CONTINUOUS
10
1.27481
20
0.985894
11
1.27402
21
1
0
LINE
8
BLACK
6
CONTINUOUS
10
1.27402
20
1
11
1.27481
21
1.01411
0
LINE
8
BLACK
6
CONTINUOUS
10
1.27481
20
1.01411
11
1.27717
21
1.02803
0
LINE
8
BLACK
6
CONTINUOUS
10
1.27717
20
1.02803
11
1.28109
21
1.04161
0
LINE
8
BLACK
6
CONTINUOUS
10
1.28109
20
1.04161
11
1.28649
21
1.05466
0
LINE
8
BLACK
6
CONTINUOUS
10
1.28649
20
1.05466
11
1.29333
21
1.06703
0
LINE
8
BLACK
6
CONTINUOUS
10
1.29333
20
1.06703
11
1.3015
21
1.07855
0
LINE
8
BLACK
6
CONTINUOUS
10
1.3015
20
1.07855
11
1.31092
21
1.08908
0
LINE
8
BLACK
6
CONTINUOUS
10
1.31092
20
1.08908
11
1.32145
21
1.0985
0
LINE
8
BLACK
6
CONTINUOUS
10
1.32145
20
1.0985
11
1.33297
21
1.10667
0
LINE
8
BLACK
6
CONTINUOUS
10
1.33297
20
1.10667
11
1.34534
21
1.11351
0
LINE
8
BLACK
6
CONTINUOUS
10
1.34534
20
1.11351
11
1.35839
21
1.11891
0
LINE
8
BLACK
6
CONTINUOUS
10
1.35839
20
1.11891
11
1.37197
21
1.12283
0
LINE
8
BLACK
6
CONTINUOUS
10
1.37197
20
1.12283
11
1.38589
21
1.12519
0
LINE
8
BLACK
6
CONTINUOUS
10
1.38589
20
1.12519
11
1.4
21
1.12598
0
LINE
8
BLACK
6
CONTINUOUS
10
1.4
20
1.12598
11
1.41411
21
1.12519
0
LINE
8
BLACK
6
CONTINUOUS
10
0.623013
20
1.05504
11
0.625568
21
1.05334
0
LINE
8
BLACK
6
CONTINUOUS
10
0.625568
20
1.05334
11
0.627275
21
1.05078
0
LINE
8
BLACK
6
CONTINUOUS
10
0.627275
20
1.05078
11
0.627874
21
1.04777
0
LINE
8
BLACK
6
CONTINUOUS
10
0.627874
20
1.04777
11
0.627874
21
0.987769
0
LINE
8
BLACK
6
CONTINUOUS
10
0.627874
20
0.987769
11
0.627275
21
0.984756
0
LINE
8
BLACK
6
CONTINUOUS
10
0.627275
20
0.984756
11
0.625568
21
0.982201
0
LINE
8
BLACK
6
CONTINUOUS
10
0.625568
20
0.982201
11
0.623013
21
0.980494
0
LINE
8
BLACK
6
CONTINUOUS
10
0.623013
20
0.980494
11
0.62
21
0.979895
0
LINE
8
BLACK
6
CONTINUOUS
10
0.62
20
0.979895
11
0.56
21
0.979895
0
LINE
8
BLACK
6
CONTINUOUS
10
0.56
20
0.979895
11
0.556987
21
0.980494
0
LINE
8
BLACK
6
CONTINUOUS
10
0.556987
20
0.980494
11
0.554432
21
0.982201
0
LINE
8
BLACK
6
CONTINUOUS
10
0.554432
20
0.982201
11
0.552725
21
0.984756
0
LINE
8
BLACK
6
CONTINUOUS
10
0.552725
20
0.984756
11
0.552126
21
0.987769
0
LINE
8
BLACK
6
CONTINUOUS
10
0.552126
20
0.987769
11
0.552126
21
1.04777
0
LINE
8
BLACK
6
CONTINUOUS
10
0.552126
20
1.04777
11
0.552725
21
1.05078
0
LINE
8
BLACK
6
CONTINUOUS
10
0.552725
20
1.05078
11
0.554432
21
1.05334
0
LINE
8
BLACK
6
CONTINUOUS
10
0.554432
20
1.05334
11
0.556987
21
1.05504
0
LINE
8
BLACK
6
CONTINUOUS
10
0.556987
20
1.05504
11
0.56
21
1.05564
0
LINE
8
BLACK
6
CONTINUOUS
10
0.56
20
1.05564
11
0.62
21
1.05564
0
LINE
8
BLACK
6
CONTINUOUS
10
0.62
20
1.05564
11
0.623013
21
1.05504
0
LINE
8
BLACK
6
CONTINUOUS
10
0.723013
20
1.05504
11
0.725568
21
1.05334
0
LINE
8
BLACK
6
CONTINUOUS
10
0.725568
20
1.05334
11
0.727275
21
1.05078
0
LINE
8
BLACK
6
CONTINUOUS
10
0.727275
20
1.05078
11
0.727874
21
1.04777
0
LINE
8
BLACK
6
CONTINUOUS
10
0.727874
20
1.04777
11
0.727874
21
0.987769
0
LINE
8
BLACK
6
CONTINUOUS
10
0.727874
20
0.987769
11
0.727275
21
0.984756
0
LINE
8
BLACK
6
CONTINUOUS
10
0.727275
20
0.984756
11
0.725568
21
0.982201
0
LINE
8
BLACK
6
CONTINUOUS
10
0.725568
20
0.982201
11
0.723013
21
0.980494
0
LINE
8
BLACK
6
CONTINUOUS
10
0.723013
20
0.980494
11
0.72
21
0.979895
0
LINE
8
BLACK
6
CONTINUOUS
10
0.72
20
0.979895
11
0.66
21
0.979895
0
LINE
8
BLACK
6
CONTINUOUS
10
0.66
20
0.979895
11
0.656987
21
0.980494
0
LINE
8
BLACK
6
CONTINUOUS
10
0.656987
20
0.980494
11
0.654432
21
0.982201
0
LINE
8
BLACK
6
CONTINUOUS
10
0.654432
20
0.982201
11
0.652725
21
0.984756
0
LINE
8
BLACK
6
CONTINUOUS
10
0.652725
20
0.984756
11
0.652126
21
0.987769
0
LINE
8
BLACK
6
CONTINUOUS
10
0.652126
20
0.987769
11
0.652126
21
1.04777
0
LINE
8
BLACK
6
CONTINUOUS
10
0.652126
20
1.04777
11
0.652725
21
1.05078
0
LINE
8
BLACK
6
CONTINUOUS
10
0.652725
20
1.05078
11
0.654432
21
1.05334
0
LINE
8
BLACK
6
CONTINUOUS
10
0.654432
20
1.05334
11
0.656987
21
1.05504
0
LINE
8
BLACK
6
CONTINUOUS
10
0.656987
20
1.05504
11
0.66
21
1.05564
0
LINE
8
BLACK
6
CONTINUOUS
10
0.66
20
1.05564
11
0.72
21
1.05564
0
LINE
8
BLACK
6
CONTINUOUS
10
0.72
20
1.05564
11
0.723013
21
1.05504
0
LINE
8
BLACK
6
CONTINUOUS
10
0.823013
20
1.05504
11
0.825568
21
1.05334
0
LINE
8
BLACK
6
CONTINUOUS
10
0.825568
20
1.05334
11
0.827275
21
1.05078
0
LINE
8
BLACK
6
CONTINUOUS
10
0.827275
20
1.05078
11
0.827874
21
1.04777
0
LINE
8
BLACK
6
CONTINUOUS
10
0.827874
20
1.04777
11
0.827874
21
0.987769
0
LINE
8
BLACK
6
CONTINUOUS
10
0.827874
20
0.987769
11
0.827275
21
0.984756
0
LINE
8
BLACK
6
CONTINUOUS
10
0.827275
20
0.984756
11
0.825568
21
0.982201
0
LINE
8
BLACK
6
CONTINUOUS
10
0.825568
20
0.982201
11
0.823013
21
0.980494
0
LINE
8
BLACK
6
CONTINUOUS
10
0.823013
20
0.980494
11
0.82
21
0.979895
0
LINE
8
BLACK
6
CONTINUOUS
10
0.82
20
0.979895
11
0.76
21
0.979895
0
LINE
8
BLACK
6
CONTINUOUS
10
0.76
20
0.979895
11
0.756987
21
0.980494
0
LINE
8
BLACK
6
CONTINUOUS
10
0.756987
20
0.980494
11
0.754432
21
0.982201
0
LINE
8
BLACK
6
CONTINUOUS
10
0.754432
20
0.982201
11
0.752725
21
0.984756
0
LINE
8
BLACK
6
CONTINUOUS
10
0.752725
20
0.984756
11
0.752126
21
0.987769
0
LINE
8
BLACK
6
CONTINUOUS
10
0.752126
20
0.987769
11
0.752126
21
1.04777
0
LINE
8
BLACK
6
CONTINUOUS
10
0.752126
20
1.04777
11
0.752725
21
1.05078
0
LINE
8
BLACK
6
CONTINUOUS
10
0.752725
20
1.05078
11
0.754432
21
1.05334
0
LINE
8
BLACK
6
CONTINUOUS
10
0.754432
20
1.05334
11
0.756987
21
1.05504
0
LINE
8
BLACK
6
CONTINUOUS
10
0.756987
20
1.05504
11
0.76
21
1.05564
0
LINE
8
BLACK
6
CONTINUOUS
10
0.76
20
1.05564
11
0.82
21
1.05564
0
LINE
8
BLACK
6
CONTINUOUS
10
0.82
20
1.05564
11
0.823013
21
1.05504
0
LINE
8
BLACK
6
CONTINUOUS
10
0.923013
20
1.05504
11
0.925568
21
1.05334
0
LINE
8
BLACK
6
CONTINUOUS
10
0.925568
20
1.05334
11
0.927275
21
1.05078
0
LINE
8
BLACK
6
CONTINUOUS
10
0.927275
20
1.05078
11
0.927874
21
1.04777
0
LINE
8
BLACK
6
CONTINUOUS
10
0.927874
20
1.04777
11
0.927874
21
0.987769
0
LINE
8
BLACK
6
CONTINUOUS
10
0.927874
20
0.987769
11
0.927275
21
0.984756
0
LINE
8
BLACK
6
CONTINUOUS
10
0.927275
20
0.984756
11
0.925568
21
0.982201
0
LINE
8
BLACK
6
CONTINUOUS
10
0.925568
20
0.982201
11
0.923013
21
0.980494
0
LINE
8
BLACK
6
CONTINUOUS
10
0.923013
20
0.980494
11
0.92
21
0.979895
0
LINE
8
BLACK
6
CONTINUOUS
10
0.92
20
0.979895
11
0.86
21
0.979895
0
LINE
8
BLACK
6
CONTINUOUS
10
0.86
20
0.979895
11
0.856987
21
0.980494
0
LINE
8
BLACK
6
CONTINUOUS
10
0.856987
20
0.980494
11
0.854432
21
0.982201
0
LINE
8
BLACK
6
CONTINUOUS
10
0.854432
20
0.982201
11
0.852725
21
0.984756
0
LINE
8
BLACK
6
CONTINUOUS
10
0.852725
20
0.984756
11
0.852126
21
0.987769
0
LINE
8
BLACK
6
CONTINUOUS
10
0.852126
20
0.987769
11
0.852126
21
1.04777
0
LINE
8
BLACK
6
CONTINUOUS
10
0.852126
20
1.04777
11
0.852725
21
1.05078
0
LINE
8
BLACK
6
CONTINUOUS
10
0.852725
20
1.05078
11
0.854432
21
1.05334
0
LINE
8
BLACK
6
CONTINUOUS
10
0.854432
20
1.05334
11
0.856987
21
1.05504
0
LINE
8
BLACK
6
CONTINUOUS
10
0.856987
20
1.05504
11
0.86
21
1.05564
0
LINE
8
BLACK
6
CONTINUOUS
10
0.86
20
1.05564
11
0.92
21
1.05564
0
LINE
8
BLACK
6
CONTINUOUS
10
0.92
20
1.05564
11
0.923013
21
1.05504
0
LINE
8
BLACK
6
CONTINUOUS
10
1.02301
20
1.05504
11
1.02557
21
1.05334
0
LINE
8
BLACK
6
CONTINUOUS
10
1.02557
20
1.05334
11
1.02727
21
1.05078
0
LINE
8
BLACK
6
CONTINUOUS
10
1.02727
20
1.05078
11
1.02787
21
1.04777
0
LINE
8
BLACK
6
CONTINUOUS
10
1.02787
20
1.04777
11
1.02787
21
0.987769
0
LINE
8
BLACK
6
CONTINUOUS
10
1.02787
20
0.987769
11
1.02727
21
0.984756
0
LINE
8
BLACK
6
CONTINUOUS
10
1.02727
20
0.984756
11
1.02557
21
0.982201
0
LINE
8
BLACK
6
CONTINUOUS
10
1.02557
20
0.982201
11
1.02301
21
0.980494
0
LINE
8
BLACK
6
CONTINUOUS
10
1.02301
20
0.980494
11
1.02
21
0.979895
0
LINE
8
BLACK
6
CONTINUOUS
10
1.02
20
0.979895
11
0.96
21
0.979895
0
LINE
8
BLACK
6
CONTINUOUS
10
0.96
20
0.979895
11
0.956987
21
0.980494
0
LINE
8
BLACK
6
CONTINUOUS
10
0.956987
20
0.980494
11
0.954432
21
0.982201
0
LINE
8
BLACK
6
CONTINUOUS
10
0.954432
20
0.982201
11
0.952725
21
0.984756
0
LINE
8
BLACK
6
CONTINUOUS
10
0.952725
20
0.984756
11
0.952126
21
0.987769
0
LINE
8
BLACK
6
CONTINUOUS
10
0.952126
20
0.987769
11
0.952126
21
1.04777
0
LINE
8
BLACK
6
CONTINUOUS
10
0.952126
20
1.04777
11
0.952725
21
1.05078
0
LINE
8
BLACK
6
CONTINUOUS
10
0.952725
20
1.05078
11
0.954432
21
1.05334
0
LINE
8
BLACK
6
CONTINUOUS
10
0.954432
20
1.05334
11
0.956987
21
1.05504
0
LINE
8
BLACK
6
CONTINUOUS
10
0.956987
20
1.05504
11
0.96
21
1.05564
0
LINE
8
BLACK
6
CONTINUOUS
10
0.96
20
1.05564
11
1.02
21
1.05564
0
LINE
8
BLACK
6
CONTINUOUS
10
1.02
20
1.05564
11
1.02301
21
1.05504
0
LINE
8
BLACK
6
CONTINUOUS
10
1.20301
20
1.05727
11
1.20557
21
1.05557
0
LINE
8
BLACK
6
CONTINUOUS
10
1.20557
20
1.05557
11
1.20727
21
1.05301
0
LINE
8
BLACK
6
CONTINUOUS
10
1.20727
20
1.05301
11
1.20787
21
1.05
0
LINE
8
BLACK
6
CONTINUOUS
10
1.20787
20
1.05
11
1.20787
21
0.99
0
LINE
8
BLACK
6
CONTINUOUS
10
1.20787
20
0.99
11
1.20727
21
0.986987
0
LINE
8
BLACK
6
CONTINUOUS
10
1.20727
20
0.986987
11
1.20557
21
0.984432
0
LINE
8
BLACK
6
CONTINUOUS
10
1.20557
20
0.984432
11
1.20301
21
0.982725
0
LINE
8
BLACK
6
CONTINUOUS
10
1.20301
20
0.982725
11
1.2
21
0.982126
0
LINE
8
BLACK
6
CONTINUOUS
10
1.2
20
0.982126
11
1.14
21
0.982126
0
LINE
8
BLACK
6
CONTINUOUS
10
1.14
20
0.982126
11
1.13699
21
0.982725
0
LINE
8
BLACK
6
CONTINUOUS
10
1.13699
20
0.982725
11
1.13443
21
0.984432
0
LINE
8
BLACK
6
CONTINUOUS
10
1.13443
20
0.984432
11
1.13273
21
0.986987
0
LINE
8
BLACK
6
CONTINUOUS
10
1.13273
20
0.986987
11
1.13213
21
0.99
0
LINE
8
BLACK
6
CONTINUOUS
10
1.13213
20
0.99
11
1.13213
21
1.05
0
LINE
8
BLACK
6
CONTINUOUS
10
1.13213
20
1.05
11
1.13273
21
1.05301
0
LINE
8
BLACK
6
CONTINUOUS
10
1.13273
20
1.05301
11
1.13443
21
1.05557
0
LINE
8
BLACK
6
CONTINUOUS
10
1.13443
20
1.05557
11
1.13699
21
1.05727
0
LINE
8
BLACK
6
CONTINUOUS
10
1.13699
20
1.05727
11
1.14
21
1.05787
0
LINE
8
BLACK
6
CONTINUOUS
10
1.14
20
1.05787
11
1.2
21
1.05787
0
LINE
8
BLACK
6
CONTINUOUS
10
1.2
20
1.05787
11
1.20301
21
1.05727
0
LINE
8
BLACK
6
CONTINUOUS
10
0.623013
20
1.15504
11
0.625568
21
1.15334
0
LINE
8
BLACK
6
CONTINUOUS
10
0.625568
20
1.15334
11
0.627275
21
1.15078
0
LINE
8
BLACK
6
CONTINUOUS
10
0.627275
20
1.15078
11
0.627874
21
1.14777
0
LINE
8
BLACK
6
CONTINUOUS
10
0.627874
20
1.14777
11
0.627874
21
1.08777
0
LINE
8
BLACK
6
CONTINUOUS
10
0.627874
20
1.08777
11
0.627275
21
1.08476
0
LINE
8
BLACK
6
CONTINUOUS
10
0.627275
20
1.08476
11
0.625568
21
1.0822
0
LINE
8
BLACK
6
CONTINUOUS
10
0.625568
20
1.0822
11
0.623013
21
1.08049
0
LINE
8
BLACK
6
CONTINUOUS
10
0.623013
20
1.08049
11
0.62
21
1.07989
0
LINE
8
BLACK
6
CONTINUOUS
10
0.62
20
1.07989
11
0.56
21
1.07989
0
LINE
8
BLACK
6
CONTINUOUS
10
0.56
20
1.07989
11
0.556987
21
1.08049
0
LINE
8
BLACK
6
CONTINUOUS
10
0.556987
20
1.08049
11
0.554432
21
1.0822
0
LINE
8
BLACK
6
CONTINUOUS
10
0.554432
20
1.0822
11
0.552725
21
1.08476
0
LINE
8
BLACK
6
CONTINUOUS
10
0.552725
20
1.08476
11
0.552126
21
1.08777
0
LINE
8
BLACK
6
CONTINUOUS
10
0.552126
20
1.08777
11
0.552126
21
1.14777
0
LINE
8
BLACK
6
CONTINUOUS
10
0.552126
20
1.14777
11
0.552725
21
1.15078
0
LINE
8
BLACK
6
CONTINUOUS
10
0.552725
20
1.15078
11
0.554432
21
1.15334
0
LINE
8
BLACK
6
CONTINUOUS
10
0.554432
20
1.15334
11
0.556987
21
1.15504
0
LINE
8
BLACK
6
CONTINUOUS
10
0.556987
20
1.15504
11
0.56
21
1.15564
0
LINE
8
BLACK
6
CONTINUOUS
10
0.56
20
1.15564
11
0.62
21
1.15564
0
LINE
8
BLACK
6
CONTINUOUS
10
0.62
20
1.15564
11
0.623013
21
1.15504
0
LINE
8
BLACK
6
CONTINUOUS
10
0.723013
20
1.15504
11
0.725568
21
1.15334
0
LINE
8
BLACK
6
CONTINUOUS
10
0.725568
20
1.15334
11
0.727275
21
1.15078
0
LINE
8
BLACK
6
CONTINUOUS
10
0.727275
20
1.15078
11
0.727874
21
1.14777
0
LINE
8
BLACK
6
CONTINUOUS
10
0.727874
20
1.14777
11
0.727874
21
1.08777
0
LINE
8
BLACK
6
CONTINUOUS
10
0.727874
20
1.08777
11
0.727275
21
1.08476
0
LINE
8
BLACK
6
CONTINUOUS
10
0.727275
20
1.08476
11
0.725568
21
1.0822
0
LINE
8
BLACK
6
CONTINUOUS
10
0.725568
20
1.0822
11
0.723013
21
1.08049
0
LINE
8
BLACK
6
CONTINUOUS
10
0.723013
20
1.08049
11
0.72
21
1.07989
0
LINE
8
BLACK
6
CONTINUOUS
10
0.72
20
1.07989
11
0.66
21
1.07989
0
LINE
8
BLACK
6
CONTINUOUS
10
0.66
20
1.07989
11
0.656987
21
1.08049
0
LINE
8
BLACK
6
CONTINUOUS
10
0.656987
20
1.08049
11
0.654432
21
1.0822
0
LINE
8
BLACK
6
CONTINUOUS
10
0.654432
20
1.0822
11
0.652725
21
1.08476
0
LINE
8
BLACK
6
CONTINUOUS
10
0.652725
20
1.08476
11
0.652126
21
1.08777
0
LINE
8
BLACK
6
CONTINUOUS
10
0.652126
20
1.08777
11
0.652126
21
1.14777
0
LINE
8
BLACK
6
CONTINUOUS
10
0.652126
20
1.14777
11
0.652725
21
1.15078
0
LINE
8
BLACK
6
CONTINUOUS
10
0.652725
20
1.15078
11
0.654432
21
1.15334
0
LINE
8
BLACK
6
CONTINUOUS
10
0.654432
20
1.15334
11
0.656987
21
1.15504
0
LINE
8
BLACK
6
CONTINUOUS
10
0.656987
20
1.15504
11
0.66
21
1.15564
0
LINE
8
BLACK
6
CONTINUOUS
10
0.66
20
1.15564
11
0.72
21
1.15564
0
LINE
8
BLACK
6
CONTINUOUS
10
0.72
20
1.15564
11
0.723013
21
1.15504
0
LINE
8
BLACK
6
CONTINUOUS
10
0.823013
20
1.15504
11
0.825568
21
1.15334
0
LINE
8
BLACK
6
CONTINUOUS
10
0.825568
20
1.15334
11
0.827275
21
1.15078
0
LINE
8
BLACK
6
CONTINUOUS
10
0.827275
20
1.15078
11
0.827874
21
1.14777
0
LINE
8
BLACK
6
CONTINUOUS
10
0.827874
20
1.14777
11
0.827874
21
1.08777
0
LINE
8
BLACK
6
CONTINUOUS
10
0.827874
20
1.08777
11
0.827275
21
1.08476
0
LINE
8
BLACK
6
CONTINUOUS
10
0.827275
20
1.08476
11
0.825568
21
1.0822
0
LINE
8
BLACK
6
CONTINUOUS
10
0.825568
20
1.0822
11
0.823013
21
1.08049
0
LINE
8
BLACK
6
CONTINUOUS
10
0.823013
20
1.08049
11
0.82
21
1.07989
0
LINE
8
BLACK
6
CONTINUOUS
10
0.82
20
1.07989
11
0.76
21
1.07989
0
LINE
8
BLACK
6
CONTINUOUS
10
0.76
20
1.07989
11
0.756987
21
1.08049
0
LINE
8
BLACK
6
CONTINUOUS
10
0.756987
20
1.08049
11
0.754432
21
1.0822
0
LINE
8
BLACK
6
CONTINUOUS
10
0.754432
20
1.0822
11
0.752725
21
1.08476
0
LINE
8
BLACK
6
CONTINUOUS
10
0.752725
20
1.08476
11
0.752126
21
1.08777
0
LINE
8
BLACK
6
CONTINUOUS
10
0.752126
20
1.08777
11
0.752126
21
1.14777
0
LINE
8
BLACK
6
CONTINUOUS
10
0.752126
20
1.14777
11
0.752725
21
1.15078
0
LINE
8
BLACK
6
CONTINUOUS
10
0.752725
20
1.15078
11
0.754432
21
1.15334
0
LINE
8
BLACK
6
CONTINUOUS
10
0.754432
20
1.15334
11
0.756987
21
1.15504
0
LINE
8
BLACK
6
CONTINUOUS
10
0.756987
20
1.15504
11
0.76
21
1.15564
0
LINE
8
BLACK
6
CONTINUOUS
10
0.76
20
1.15564
11
0.82
21
1.15564
0
LINE
8
BLACK
6
CONTINUOUS
10
0.82
20
1.15564
11
0.823013
21
1.15504
0
LINE
8
BLACK
6
CONTINUOUS
10
0.923013
20
1.15504
11
0.925568
21
1.15334
0
LINE
8
BLACK
6
CONTINUOUS
10
0.925568
20
1.15334
11
0.927275
21
1.15078
0
LINE
8
BLACK
6
CONTINUOUS
10
0.927275
20
1.15078
11
0.927874
21
1.14777
0
LINE
8
BLACK
6
CONTINUOUS
10
0.927874
20
1.14777
11
0.927874
21
1.08777
0
LINE
8
BLACK
6
CONTINUOUS
10
0.927874
20
1.08777
11
0.927275
21
1.08476
0
LINE
8
BLACK
6
CONTINUOUS
10
0.927275
20
1.08476
11
0.925568
21
1.0822
0
LINE
8
BLACK
6
CONTINUOUS
10
0.925568
20
1.0822
11
0.923013
21
1.08049
0
LINE
8
BLACK
6
CONTINUOUS
10
0.923013
20
1.08049
11
0.92
21
1.07989
0
LINE
8
BLACK
6
CONTINUOUS
10
0.92
20
1.07989
11
0.86
21
1.07989
0
LINE
8
BLACK
6
CONTINUOUS
10
0.86
20
1.07989
11
0.856987
21
1.08049
0
LINE
8
BLACK
6
CONTINUOUS
10
0.856987
20
1.08049
11
0.854432
21
1.0822
0
LINE
8
BLACK
6
CONTINUOUS
10
0.854432
20
1.0822
11
0.852725
21
1.08476
0
LINE
8
BLACK
6
CONTINUOUS
10
0.852725
20
1.08476
11
0.852126
21
1.08777
0
LINE
8
BLACK
6
CONTINUOUS
10
0.852126
20
1.08777
11
0.852126
21
1.14777
0
LINE
8
BLACK
6
CONTINUOUS
10
0.852126
20
1.14777
11
0.852725
21
1.15078
0
LINE
8
BLACK
6
CONTINUOUS
10
0.852725
20
1.15078
11
0.854432
21
1.15334
0
LINE
8
BLACK
6
CONTINUOUS
10
0.854432
20
1.15334
11
0.856987
21
1.15504
0
LINE
8
BLACK
6
CONTINUOUS
10
0.856987
20
1.15504
11
0.86
21
1.15564
0
LINE
8
BLACK
6
CONTINUOUS
10
0.86
20
1.15564
11
0.92
21
1.15564
0
LINE
8
BLACK
6
CONTINUOUS
10
0.92
20
1.15564
11
0.923013
21
1.15504
0
LINE
8
BLACK
6
CONTINUOUS
10
1.02301
20
1.15504
11
1.02557
21
1.15334
0
LINE
8
BLACK
6
CONTINUOUS
10
1.02557
20
1.15334
11
1.02727
21
1.15078
0
LINE
8
BLACK
6
CONTINUOUS
10
1.02727
20
1.15078
11
1.02787
21
1.14777
0
LINE
8
BLACK
6
CONTINUOUS
10
1.02787
20
1.14777
11
1.02787
21
1.08777
0
LINE
8
BLACK
6
CONTINUOUS
10
1.02787
20
1.08777
11
1.02727
21
1.08476
0
LINE
8
BLACK
6
CONTINUOUS
10
1.02727
20
1.08476
11
1.02557
21
1.0822
0
LINE
8
BLACK
6
CONTINUOUS
10
1.02557
20
1.0822
11
1.02301
21
1.08049
0
LINE
8
BLACK
6
CONTINUOUS
10
1.02301
20
1.08049
11
1.02
21
1.07989
0
LINE
8
BLACK
6
CONTINUOUS
10
1.02
20
1.07989
11
0.96
21
1.07989
0
LINE
8
BLACK
6
CONTINUOUS
10
0.96
20
1.07989
11
0.956987
21
1.08049
0
LINE
8
BLACK
6
CONTINUOUS
10
0.956987
20
1.08049
11
0.954432
21
1.0822
0
LINE
8
BLACK
6
CONTINUOUS
10
0.954432
20
1.0822
11
0.952725
21
1.08476
0
LINE
8
BLACK
6
CONTINUOUS
10
0.952725
20
1.08476
11
0.952126
21
1.08777
0
LINE
8
BLACK
6
CONTINUOUS
10
0.952126
20
1.08777
11
0.952126
21
1.14777
0
LINE
8
BLACK
6
CONTINUOUS
10
0.952126
20
1.14777
11
0.952725
21
1.15078
0
LINE
8
BLACK
6
CONTINUOUS
10
0.952725
20
1.15078
11
0.954432
21
1.15334
0
LINE
8
BLACK
6
CONTINUOUS
10
0.954432
20
1.15334
11
0.956987
21
1.15504
0
LINE
8
BLACK
6
CONTINUOUS
10
0.956987
20
1.15504
11
0.96
21
1.15564
0
LINE
8
BLACK
6
CONTINUOUS
10
0.96
20
1.15564
11
1.02
21
1.15564
0
LINE
8
BLACK
6
CONTINUOUS
10
1.02
20
1.15564
11
1.02301
21
1.15504
0
LINE
8
BLACK
6
CONTINUOUS
10
1.20301
20
1.15727
11
1.20557
21
1.15557
0
LINE
8
BLACK
6
CONTINUOUS
10
1.20557
20
1.15557
11
1.20727
21
1.15301
0
LINE
8
BLACK
6
CONTINUOUS
10
1.20727
20
1.15301
11
1.20787
21
1.15
0
LINE
8
BLACK
6
CONTINUOUS
10
1.20787
20
1.15
11
1.20787
21
1.09
0
LINE
8
BLACK
6
CONTINUOUS
10
1.20787
20
1.09
11
1.20727
21
1.08699
0
LINE
8
BLACK
6
CONTINUOUS
10
1.20727
20
1.08699
11
1.20557
21
1.08443
0
LINE
8
BLACK
6
CONTINUOUS
10
1.20557
20
1.08443
11
1.20301
21
1.08273
0
LINE
8
BLACK
6
CONTINUOUS
10
1.20301
20
1.08273
11
1.2
21
1.08213
0
LINE
8
BLACK
6
CONTINUOUS
10
1.2
20
1.08213
11
1.14
21
1.08213
0
LINE
8
BLACK
6
CONTINUOUS
10
1.14
20
1.08213
11
1.13699
21
1.08273
0
LINE
8
BLACK
6
CONTINUOUS
10
1.13699
20
1.08273
11
1.13443
21
1.08443
0
LINE
8
BLACK
6
CONTINUOUS
10
1.13443
20
1.08443
11
1.13273
21
1.08699
0
LINE
8
BLACK
6
CONTINUOUS
10
1.13273
20
1.08699
11
1.13213
21
1.09
0
LINE
8
BLACK
6
CONTINUOUS
10
1.13213
20
1.09
11
1.13213
21
1.15
0
LINE
8
BLACK
6
CONTINUOUS
10
1.13213
20
1.15
11
1.13273
21
1.15301
0
LINE
8
BLACK
6
CONTINUOUS
10
1.13273
20
1.15301
11
1.13443
21
1.15557
0
LINE
8
BLACK
6
CONTINUOUS
10
1.13443
20
1.15557
11
1.13699
21
1.15727
0
LINE
8
BLACK
6
CONTINUOUS
10
1.13699
20
1.15727
11
1.14
21
1.15787
0
LINE
8
BLACK
6
CONTINUOUS
10
1.14
20
1.15787
11
1.2
21
1.15787
0
LINE
8
BLACK
6
CONTINUOUS
10
1.2
20
1.15787
11
1.20301
21
1.15727
  0
ENDSEC
  0
EOF
