  0
SECTION
  2
HEADER
  9
$ANGBASE
  50
0.0
  9
$ANGDIR
  70
1
  9
$MEASUREMENT
  70
0
  0
ENDSEC
  0
SECTION
  2
TABLES
  0
TABLE
  2
LTYPE
  70
4
  0
LTYPE
  5
40F
  2
CONTINUOUS
  70
0
  3
Solid line
  72
65
  73
0
  40
0.0
  0
LTYPE
  5
410
  2
DASHDOT
 70
0
  3
Dash Dot ____ _ ____ _
 72
65
 73
4
 40
2.0
 49
1.25
 49
-0.25
 49
0.25
 49
-0.25
  0
LTYPE
  5
411
  2
DASHED
 70
0
  3
Dashed __ __ __ __ __
 72
65
 73
2
 40
0.75
 49
0.5
 49
-0.25
  0
LTYPE
  5
43B
  2
DOTTED
 70
0
  3
Dotted .  .  .  .
 72
65
 73
2
 40
0.2
 49
0.0
 49
-0.2
  0
ENDTAB
  0
TABLE
  2
STYLE
  70
4
  0
STYLE
  2
KICAD
  70
0
  40
0
  41
1
  42
1
  50
0
  71
0
  3
isocp.shx
  0
STYLE
  2
KICADB
  70
0
  40
0
  41
1
  42
1
  50
0
  71
0
  3
isocp.shx
  0
STYLE
  2
KICADI
  70
0
  40
0
  41
1
  42
1
  50
15
  71
0
  3
isocp.shx
  0
STYLE
  2
KICADBI
  70
0
  40
0
  41
1
  42
1
  50
15
  71
0
  3
isocp.shx
  0
ENDTAB
  0
TABLE
  2
LAYER
  70
1
  0
LAYER
  2
BLACK
  70
0
  62
7
  6
CONTINUOUS
  0
ENDTAB
  0
ENDSEC
  0
SECTION
  2
ENTITIES
0
LINE
8
BLACK
6
CONTINUOUS
10
0.20865
20
0.317793
11
0.222132
21
0.316018
0
LINE
8
BLACK
6
CONTINUOUS
10
0.222132
20
0.316018
11
0.23532
21
0.312706
0
LINE
8
BLACK
6
CONTINUOUS
10
0.23532
20
0.312706
11
0.24804
21
0.307899
0
LINE
8
BLACK
6
CONTINUOUS
10
0.24804
20
0.307899
11
0.260123
21
0.301662
0
LINE
8
BLACK
6
CONTINUOUS
10
0.260123
20
0.301662
11
0.271409
21
0.294078
0
LINE
8
BLACK
6
CONTINUOUS
10
0.271409
20
0.294078
11
0.281749
21
0.285247
0
LINE
8
BLACK
6
CONTINUOUS
10
0.281749
20
0.285247
11
0.291006
21
0.275286
0
LINE
8
BLACK
6
CONTINUOUS
10
0.291006
20
0.275286
11
0.299056
21
0.264327
0
LINE
8
BLACK
6
CONTINUOUS
10
0.299056
20
0.264327
11
0.305793
21
0.252516
0
LINE
8
BLACK
6
CONTINUOUS
10
0.305793
20
0.252516
11
0.311128
21
0.240008
0
LINE
8
BLACK
6
CONTINUOUS
10
0.311128
20
0.240008
11
0.31499
21
0.226971
0
LINE
8
BLACK
6
CONTINUOUS
10
0.31499
20
0.226971
11
0.317327
21
0.213575
0
LINE
8
BLACK
6
CONTINUOUS
10
0.317327
20
0.213575
11
0.31811
21
0.2
0
LINE
8
BLACK
6
CONTINUOUS
10
0.31811
20
0.2
11
0.317877
21
0.192584
0
LINE
8
BLACK
6
CONTINUOUS
10
0.317877
20
0.192584
11
0.316244
21
0.179084
0
LINE
8
BLACK
6
CONTINUOUS
10
0.316244
20
0.179084
11
0.313069
21
0.165862
0
LINE
8
BLACK
6
CONTINUOUS
10
0.313069
20
0.165862
11
0.308396
21
0.153093
0
LINE
8
BLACK
6
CONTINUOUS
10
0.308396
20
0.153093
11
0.302286
21
0.140945
0
LINE
8
BLACK
6
CONTINUOUS
10
0.302286
20
0.140945
11
0.294821
21
0.12958
0
LINE
8
BLACK
6
CONTINUOUS
10
0.294821
20
0.12958
11
0.286099
21
0.119148
0
LINE
8
BLACK
6
CONTINUOUS
10
0.286099
20
0.119148
11
0.276235
21
0.109788
0
LINE
8
BLACK
6
CONTINUOUS
10
0.276235
20
0.109788
11
0.265361
21
0.101623
0
LINE
8
BLACK
6
CONTINUOUS
10
0.265361
20
0.101623
11
0.253621
21
0.094763
0
LINE
8
BLACK
6
CONTINUOUS
10
0.253621
20
0.094763
11
0.24117
21
0.0892974
0
LINE
8
BLACK
6
CONTINUOUS
10
0.24117
20
0.0892974
11
0.228173
21
0.0852991
0
LINE
8
BLACK
6
CONTINUOUS
10
0.228173
20
0.0852991
11
0.214803
21
0.0828211
0
LINE
8
BLACK
6
CONTINUOUS
10
0.214803
20
0.0828211
11
0.201237
21
0.0818962
0
LINE
8
BLACK
6
CONTINUOUS
10
0.201237
20
0.0818962
11
0.187654
21
0.0825368
0
LINE
8
BLACK
6
CONTINUOUS
10
0.187654
20
0.0825368
11
0.174235
21
0.0847343
0
LINE
8
BLACK
6
CONTINUOUS
10
0.174235
20
0.0847343
11
0.161157
21
0.0884595
0
LINE
8
BLACK
6
CONTINUOUS
10
0.161157
20
0.0884595
11
0.148595
21
0.0936631
0
LINE
8
BLACK
6
CONTINUOUS
10
0.148595
20
0.0936631
11
0.136713
21
0.100276
0
LINE
8
BLACK
6
CONTINUOUS
10
0.136713
20
0.100276
11
0.125671
21
0.108211
0
LINE
8
BLACK
6
CONTINUOUS
10
0.125671
20
0.108211
11
0.115613
21
0.117363
0
LINE
8
BLACK
6
CONTINUOUS
10
0.115613
20
0.117363
11
0.106675
21
0.127609
0
LINE
8
BLACK
6
CONTINUOUS
10
0.106675
20
0.127609
11
0.0989727
21
0.138816
0
LINE
8
BLACK
6
CONTINUOUS
10
0.0989727
20
0.138816
11
0.0926099
21
0.150833
0
LINE
8
BLACK
6
CONTINUOUS
10
0.0926099
20
0.150833
11
0.0876705
21
0.163502
0
LINE
8
BLACK
6
CONTINUOUS
10
0.0876705
20
0.163502
11
0.0842199
21
0.176655
0
LINE
8
BLACK
6
CONTINUOUS
10
0.0842199
20
0.176655
11
0.082304
21
0.190117
0
LINE
8
BLACK
6
CONTINUOUS
10
0.082304
20
0.190117
11
0.081948
21
0.20371
0
LINE
8
BLACK
6
CONTINUOUS
10
0.081948
20
0.20371
11
0.0831568
21
0.217254
0
LINE
8
BLACK
6
CONTINUOUS
10
0.0831568
20
0.217254
11
0.0859143
21
0.230569
0
LINE
8
BLACK
6
CONTINUOUS
10
0.0859143
20
0.230569
11
0.0901839
21
0.243479
0
LINE
8
BLACK
6
CONTINUOUS
10
0.0901839
20
0.243479
11
0.0959091
21
0.255813
0
LINE
8
BLACK
6
CONTINUOUS
10
0.0959091
20
0.255813
11
0.103014
21
0.267407
0
LINE
8
BLACK
6
CONTINUOUS
10
0.103014
20
0.267407
11
0.111404
21
0.278108
0
LINE
8
BLACK
6
CONTINUOUS
10
0.111404
20
0.278108
11
0.120969
21
0.287773
0
LINE
8
BLACK
6
CONTINUOUS
10
0.120969
20
0.287773
11
0.131581
21
0.296275
0
LINE
8
BLACK
6
CONTINUOUS
10
0.131581
20
0.296275
11
0.1431
21
0.303501
0
LINE
8
BLACK
6
CONTINUOUS
10
0.1431
20
0.303501
11
0.155373
21
0.309355
0
LINE
8
BLACK
6
CONTINUOUS
10
0.155373
20
0.309355
11
0.168238
21
0.313759
0
LINE
8
BLACK
6
CONTINUOUS
10
0.168238
20
0.313759
11
0.181524
21
0.316656
0
LINE
8
BLACK
6
CONTINUOUS
10
0.181524
20
0.316656
11
0.195054
21
0.318007
0
LINE
8
BLACK
6
CONTINUOUS
10
0.195054
20
0.318007
11
0.20865
21
0.317793
0
LINE
8
BLACK
6
CONTINUOUS
10
0.20865
20
1.11779
11
0.222132
21
1.11602
0
LINE
8
BLACK
6
CONTINUOUS
10
0.222132
20
1.11602
11
0.23532
21
1.11271
0
LINE
8
BLACK
6
CONTINUOUS
10
0.23532
20
1.11271
11
0.24804
21
1.1079
0
LINE
8
BLACK
6
CONTINUOUS
10
0.24804
20
1.1079
11
0.260123
21
1.10166
0
LINE
8
BLACK
6
CONTINUOUS
10
0.260123
20
1.10166
11
0.271409
21
1.09408
0
LINE
8
BLACK
6
CONTINUOUS
10
0.271409
20
1.09408
11
0.281749
21
1.08525
0
LINE
8
BLACK
6
CONTINUOUS
10
0.281749
20
1.08525
11
0.291006
21
1.07529
0
LINE
8
BLACK
6
CONTINUOUS
10
0.291006
20
1.07529
11
0.299056
21
1.06433
0
LINE
8
BLACK
6
CONTINUOUS
10
0.299056
20
1.06433
11
0.305793
21
1.05252
0
LINE
8
BLACK
6
CONTINUOUS
10
0.305793
20
1.05252
11
0.311128
21
1.04001
0
LINE
8
BLACK
6
CONTINUOUS
10
0.311128
20
1.04001
11
0.31499
21
1.02697
0
LINE
8
BLACK
6
CONTINUOUS
10
0.31499
20
1.02697
11
0.317327
21
1.01358
0
LINE
8
BLACK
6
CONTINUOUS
10
0.317327
20
1.01358
11
0.31811
21
1
0
LINE
8
BLACK
6
CONTINUOUS
10
0.31811
20
1
11
0.317877
21
0.992584
0
LINE
8
BLACK
6
CONTINUOUS
10
0.317877
20
0.992584
11
0.316244
21
0.979084
0
LINE
8
BLACK
6
CONTINUOUS
10
0.316244
20
0.979084
11
0.313069
21
0.965862
0
LINE
8
BLACK
6
CONTINUOUS
10
0.313069
20
0.965862
11
0.308396
21
0.953093
0
LINE
8
BLACK
6
CONTINUOUS
10
0.308396
20
0.953093
11
0.302286
21
0.940945
0
LINE
8
BLACK
6
CONTINUOUS
10
0.302286
20
0.940945
11
0.294821
21
0.92958
0
LINE
8
BLACK
6
CONTINUOUS
10
0.294821
20
0.92958
11
0.286099
21
0.919148
0
LINE
8
BLACK
6
CONTINUOUS
10
0.286099
20
0.919148
11
0.276235
21
0.909788
0
LINE
8
BLACK
6
CONTINUOUS
10
0.276235
20
0.909788
11
0.265361
21
0.901623
0
LINE
8
BLACK
6
CONTINUOUS
10
0.265361
20
0.901623
11
0.253621
21
0.894763
0
LINE
8
BLACK
6
CONTINUOUS
10
0.253621
20
0.894763
11
0.24117
21
0.889297
0
LINE
8
BLACK
6
CONTINUOUS
10
0.24117
20
0.889297
11
0.228173
21
0.885299
0
LINE
8
BLACK
6
CONTINUOUS
10
0.228173
20
0.885299
11
0.214803
21
0.882821
0
LINE
8
BLACK
6
CONTINUOUS
10
0.214803
20
0.882821
11
0.201237
21
0.881896
0
LINE
8
BLACK
6
CONTINUOUS
10
0.201237
20
0.881896
11
0.187654
21
0.882537
0
LINE
8
BLACK
6
CONTINUOUS
10
0.187654
20
0.882537
11
0.174235
21
0.884734
0
LINE
8
BLACK
6
CONTINUOUS
10
0.174235
20
0.884734
11
0.161157
21
0.888459
0
LINE
8
BLACK
6
CONTINUOUS
10
0.161157
20
0.888459
11
0.148595
21
0.893663
0
LINE
8
BLACK
6
CONTINUOUS
10
0.148595
20
0.893663
11
0.136713
21
0.900276
0
LINE
8
BLACK
6
CONTINUOUS
10
0.136713
20
0.900276
11
0.125671
21
0.908211
0
LINE
8
BLACK
6
CONTINUOUS
10
0.125671
20
0.908211
11
0.115613
21
0.917363
0
LINE
8
BLACK
6
CONTINUOUS
10
0.115613
20
0.917363
11
0.106675
21
0.927609
0
LINE
8
BLACK
6
CONTINUOUS
10
0.106675
20
0.927609
11
0.0989727
21
0.938816
0
LINE
8
BLACK
6
CONTINUOUS
10
0.0989727
20
0.938816
11
0.0926099
21
0.950833
0
LINE
8
BLACK
6
CONTINUOUS
10
0.0926099
20
0.950833
11
0.0876705
21
0.963502
0
LINE
8
BLACK
6
CONTINUOUS
10
0.0876705
20
0.963502
11
0.0842199
21
0.976655
0
LINE
8
BLACK
6
CONTINUOUS
10
0.0842199
20
0.976655
11
0.082304
21
0.990117
0
LINE
8
BLACK
6
CONTINUOUS
10
0.082304
20
0.990117
11
0.081948
21
1.00371
0
LINE
8
BLACK
6
CONTINUOUS
10
0.081948
20
1.00371
11
0.0831568
21
1.01725
0
LINE
8
BLACK
6
CONTINUOUS
10
0.0831568
20
1.01725
11
0.0859143
21
1.03057
0
LINE
8
BLACK
6
CONTINUOUS
10
0.0859143
20
1.03057
11
0.0901839
21
1.04348
0
LINE
8
BLACK
6
CONTINUOUS
10
0.0901839
20
1.04348
11
0.0959091
21
1.05581
0
LINE
8
BLACK
6
CONTINUOUS
10
0.0959091
20
1.05581
11
0.103014
21
1.06741
0
LINE
8
BLACK
6
CONTINUOUS
10
0.103014
20
1.06741
11
0.111404
21
1.07811
0
LINE
8
BLACK
6
CONTINUOUS
10
0.111404
20
1.07811
11
0.120969
21
1.08777
0
LINE
8
BLACK
6
CONTINUOUS
10
0.120969
20
1.08777
11
0.131581
21
1.09627
0
LINE
8
BLACK
6
CONTINUOUS
10
0.131581
20
1.09627
11
0.1431
21
1.1035
0
LINE
8
BLACK
6
CONTINUOUS
10
0.1431
20
1.1035
11
0.155373
21
1.10935
0
LINE
8
BLACK
6
CONTINUOUS
10
0.155373
20
1.10935
11
0.168238
21
1.11376
0
LINE
8
BLACK
6
CONTINUOUS
10
0.168238
20
1.11376
11
0.181524
21
1.11666
0
LINE
8
BLACK
6
CONTINUOUS
10
0.181524
20
1.11666
11
0.195054
21
1.11801
0
LINE
8
BLACK
6
CONTINUOUS
10
0.195054
20
1.11801
11
0.20865
21
1.11779
0
LINE
8
BLACK
6
CONTINUOUS
10
1.07
20
0.095
11
1.07
21
0.155
0
LINE
8
BLACK
6
CONTINUOUS
10
1.07
20
0.155
11
1.09
21
0.155
0
LINE
8
BLACK
6
CONTINUOUS
10
1.09
20
0.155
11
1.09
21
0.171785
0
LINE
8
BLACK
6
CONTINUOUS
10
1.09
20
0.171785
11
1.08913
21
0.173087
0
LINE
8
BLACK
6
CONTINUOUS
10
1.08913
20
0.173087
11
1.08875
21
0.175
0
LINE
8
BLACK
6
CONTINUOUS
10
1.08875
20
0.175
11
1.08913
21
0.176913
0
LINE
8
BLACK
6
CONTINUOUS
10
1.08913
20
0.176913
11
1.09
21
0.178215
0
LINE
8
BLACK
6
CONTINUOUS
10
1.09
20
0.178215
11
1.09
21
0.195
0
LINE
8
BLACK
6
CONTINUOUS
10
1.09
20
0.195
11
1.07
21
0.195
0
LINE
8
BLACK
6
CONTINUOUS
10
1.07
20
0.195
11
1.07
21
0.255
0
LINE
8
BLACK
6
CONTINUOUS
10
1.07
20
0.255
11
1.09
21
0.255
0
LINE
8
BLACK
6
CONTINUOUS
10
1.09
20
0.255
11
1.09
21
0.271679
0
LINE
8
BLACK
6
CONTINUOUS
10
1.09
20
0.271679
11
1.08668
21
0.275
0
LINE
8
BLACK
6
CONTINUOUS
10
1.08668
20
0.275
11
1.06602
21
0.275
0
LINE
8
BLACK
6
CONTINUOUS
10
1.06602
20
0.275
11
1.05867
21
0.271955
0
LINE
8
BLACK
6
CONTINUOUS
10
1.05867
20
0.271955
11
1.05342
21
0.266704
0
LINE
8
BLACK
6
CONTINUOUS
10
1.05342
20
0.266704
11
1.0518
21
0.26562
0
LINE
8
BLACK
6
CONTINUOUS
10
1.0518
20
0.26562
11
1.04988
21
0.26524
0
LINE
8
BLACK
6
CONTINUOUS
10
1.04988
20
0.26524
11
1.04797
21
0.26562
0
LINE
8
BLACK
6
CONTINUOUS
10
1.04797
20
0.26562
11
1.04635
21
0.266704
0
LINE
8
BLACK
6
CONTINUOUS
10
1.04635
20
0.266704
11
1.04573
21
0.267462
0
LINE
8
BLACK
6
CONTINUOUS
10
1.04573
20
0.267462
11
1.04442
21
0.269419
0
LINE
8
BLACK
6
CONTINUOUS
10
1.04442
20
0.269419
11
1.0378
21
0.27384
0
LINE
8
BLACK
6
CONTINUOUS
10
1.0378
20
0.27384
11
1.036
21
0.274586
0
LINE
8
BLACK
6
CONTINUOUS
10
1.036
20
0.274586
11
1.03462
21
0.275965
0
LINE
8
BLACK
6
CONTINUOUS
10
1.03462
20
0.275965
11
1.03388
21
0.277768
0
LINE
8
BLACK
6
CONTINUOUS
10
1.03388
20
0.277768
11
1.03388
21
0.279719
0
LINE
8
BLACK
6
CONTINUOUS
10
1.03388
20
0.279719
11
1.03444
21
0.282559
0
LINE
8
BLACK
6
CONTINUOUS
10
1.03444
20
0.282559
11
1.03182
21
0.295739
0
LINE
8
BLACK
6
CONTINUOUS
10
1.03182
20
0.295739
11
1.02435
21
0.306913
0
LINE
8
BLACK
6
CONTINUOUS
10
1.02435
20
0.306913
11
1.02194
21
0.308524
0
LINE
8
BLACK
6
CONTINUOUS
10
1.02194
20
0.308524
11
1.02119
21
0.309145
0
LINE
8
BLACK
6
CONTINUOUS
10
1.02119
20
0.309145
11
0.889145
21
0.441185
0
LINE
8
BLACK
6
CONTINUOUS
10
0.889145
20
0.441185
11
0.888524
21
0.441943
0
LINE
8
BLACK
6
CONTINUOUS
10
0.888524
20
0.441943
11
0.886913
21
0.444354
0
LINE
8
BLACK
6
CONTINUOUS
10
0.886913
20
0.444354
11
0.875739
21
0.45182
0
LINE
8
BLACK
6
CONTINUOUS
10
0.875739
20
0.45182
11
0.869123
21
0.453136
0
LINE
8
BLACK
6
CONTINUOUS
10
0.869123
20
0.453136
11
0.86732
21
0.453882
0
LINE
8
BLACK
6
CONTINUOUS
10
0.86732
20
0.453882
11
0.865941
21
0.455262
0
LINE
8
BLACK
6
CONTINUOUS
10
0.865941
20
0.455262
11
0.865194
21
0.457064
0
LINE
8
BLACK
6
CONTINUOUS
10
0.865194
20
0.457064
11
0.865194
21
0.459015
0
LINE
8
BLACK
6
CONTINUOUS
10
0.865194
20
0.459015
11
0.865941
21
0.460817
0
LINE
8
BLACK
6
CONTINUOUS
10
0.865941
20
0.460817
11
0.866563
21
0.461575
0
LINE
8
BLACK
6
CONTINUOUS
10
0.866563
20
0.461575
11
0.866968
21
0.461981
0
LINE
8
BLACK
6
CONTINUOUS
10
0.866968
20
0.461981
11
0.86954
21
0.46819
0
LINE
8
BLACK
6
CONTINUOUS
10
0.86954
20
0.46819
11
0.870624
21
0.469812
0
LINE
8
BLACK
6
CONTINUOUS
10
0.870624
20
0.469812
11
1.03049
21
0.629677
0
LINE
8
BLACK
6
CONTINUOUS
10
1.03049
20
0.629677
11
1.03211
21
0.630761
0
LINE
8
BLACK
6
CONTINUOUS
10
1.03211
20
0.630761
11
1.03402
21
0.631142
0
LINE
8
BLACK
6
CONTINUOUS
10
1.03402
20
0.631142
11
1.25598
21
0.631142
0
LINE
8
BLACK
6
CONTINUOUS
10
1.25598
20
0.631142
11
1.25789
21
0.630761
0
LINE
8
BLACK
6
CONTINUOUS
10
1.25789
20
0.630761
11
1.25951
21
0.629677
0
LINE
8
BLACK
6
CONTINUOUS
10
1.25951
20
0.629677
11
1.28805
21
0.601142
0
LINE
8
BLACK
6
CONTINUOUS
10
1.28805
20
0.601142
11
1.28913
21
0.59952
0
LINE
8
BLACK
6
CONTINUOUS
10
1.28913
20
0.59952
11
1.28951
21
0.597607
0
LINE
8
BLACK
6
CONTINUOUS
10
1.28951
20
0.597607
11
1.28951
21
0.570492
0
LINE
8
BLACK
6
CONTINUOUS
10
1.28951
20
0.570492
11
1.29116
21
0.562196
0
LINE
8
BLACK
6
CONTINUOUS
10
1.29116
20
0.562196
11
1.29558
21
0.555581
0
LINE
8
BLACK
6
CONTINUOUS
10
1.29558
20
0.555581
11
1.3022
21
0.55116
0
LINE
8
BLACK
6
CONTINUOUS
10
1.3022
20
0.55116
11
1.31049
21
0.54951
0
LINE
8
BLACK
6
CONTINUOUS
10
1.31049
20
0.54951
11
1.36951
21
0.54951
0
LINE
8
BLACK
6
CONTINUOUS
10
1.36951
20
0.54951
11
1.3778
21
0.55116
0
LINE
8
BLACK
6
CONTINUOUS
10
1.3778
20
0.55116
11
1.38442
21
0.555581
0
LINE
8
BLACK
6
CONTINUOUS
10
1.38442
20
0.555581
11
1.38584
21
0.557711
0
LINE
8
BLACK
6
CONTINUOUS
10
1.38584
20
0.557711
11
1.38722
21
0.559091
0
LINE
8
BLACK
6
CONTINUOUS
10
1.38722
20
0.559091
11
1.38902
21
0.559837
0
LINE
8
BLACK
6
CONTINUOUS
10
1.38902
20
0.559837
11
1.39098
21
0.559837
0
LINE
8
BLACK
6
CONTINUOUS
10
1.39098
20
0.559837
11
1.39278
21
0.559091
0
LINE
8
BLACK
6
CONTINUOUS
10
1.39278
20
0.559091
11
1.39416
21
0.557711
0
LINE
8
BLACK
6
CONTINUOUS
10
1.39416
20
0.557711
11
1.39558
21
0.555581
0
LINE
8
BLACK
6
CONTINUOUS
10
1.39558
20
0.555581
11
1.4022
21
0.55116
0
LINE
8
BLACK
6
CONTINUOUS
10
1.4022
20
0.55116
11
1.41049
21
0.54951
0
LINE
8
BLACK
6
CONTINUOUS
10
1.41049
20
0.54951
11
1.46951
21
0.54951
0
LINE
8
BLACK
6
CONTINUOUS
10
1.46951
20
0.54951
11
1.4778
21
0.55116
0
LINE
8
BLACK
6
CONTINUOUS
10
1.4778
20
0.55116
11
1.48442
21
0.555581
0
LINE
8
BLACK
6
CONTINUOUS
10
1.48442
20
0.555581
11
1.48884
21
0.562196
0
LINE
8
BLACK
6
CONTINUOUS
10
1.48884
20
0.562196
11
1.49049
21
0.570492
0
LINE
8
BLACK
6
CONTINUOUS
10
1.49049
20
0.570492
11
1.49049
21
0.629508
0
LINE
8
BLACK
6
CONTINUOUS
10
1.49049
20
0.629508
11
1.48884
21
0.637804
0
LINE
8
BLACK
6
CONTINUOUS
10
1.48884
20
0.637804
11
1.48442
21
0.644419
0
LINE
8
BLACK
6
CONTINUOUS
10
1.48442
20
0.644419
11
1.48229
21
0.645843
0
LINE
8
BLACK
6
CONTINUOUS
10
1.48229
20
0.645843
11
1.48091
21
0.647222
0
LINE
8
BLACK
6
CONTINUOUS
10
1.48091
20
0.647222
11
1.48016
21
0.649025
0
LINE
8
BLACK
6
CONTINUOUS
10
1.48016
20
0.649025
11
1.48016
21
0.650975
0
LINE
8
BLACK
6
CONTINUOUS
10
1.48016
20
0.650975
11
1.48091
21
0.652778
0
LINE
8
BLACK
6
CONTINUOUS
10
1.48091
20
0.652778
11
1.48229
21
0.654157
0
LINE
8
BLACK
6
CONTINUOUS
10
1.48229
20
0.654157
11
1.48442
21
0.655581
0
LINE
8
BLACK
6
CONTINUOUS
10
1.48442
20
0.655581
11
1.48884
21
0.662196
0
LINE
8
BLACK
6
CONTINUOUS
10
1.48884
20
0.662196
11
1.49049
21
0.670492
0
LINE
8
BLACK
6
CONTINUOUS
10
1.49049
20
0.670492
11
1.49049
21
0.729508
0
LINE
8
BLACK
6
CONTINUOUS
10
1.49049
20
0.729508
11
1.48884
21
0.737804
0
LINE
8
BLACK
6
CONTINUOUS
10
1.48884
20
0.737804
11
1.48442
21
0.744419
0
LINE
8
BLACK
6
CONTINUOUS
10
1.48442
20
0.744419
11
1.4778
21
0.74884
0
LINE
8
BLACK
6
CONTINUOUS
10
1.4778
20
0.74884
11
1.46951
21
0.75049
0
LINE
8
BLACK
6
CONTINUOUS
10
1.46951
20
0.75049
11
1.41049
21
0.75049
0
LINE
8
BLACK
6
CONTINUOUS
10
1.41049
20
0.75049
11
1.4022
21
0.74884
0
LINE
8
BLACK
6
CONTINUOUS
10
1.4022
20
0.74884
11
1.39558
21
0.744419
0
LINE
8
BLACK
6
CONTINUOUS
10
1.39558
20
0.744419
11
1.39416
21
0.742289
0
LINE
8
BLACK
6
CONTINUOUS
10
1.39416
20
0.742289
11
1.39278
21
0.740909
0
LINE
8
BLACK
6
CONTINUOUS
10
1.39278
20
0.740909
11
1.39098
21
0.740163
0
LINE
8
BLACK
6
CONTINUOUS
10
1.39098
20
0.740163
11
1.38902
21
0.740163
0
LINE
8
BLACK
6
CONTINUOUS
10
1.38902
20
0.740163
11
1.38722
21
0.740909
0
LINE
8
BLACK
6
CONTINUOUS
10
1.38722
20
0.740909
11
1.38584
21
0.742289
0
LINE
8
BLACK
6
CONTINUOUS
10
1.38584
20
0.742289
11
1.38442
21
0.744419
0
LINE
8
BLACK
6
CONTINUOUS
10
1.38442
20
0.744419
11
1.3778
21
0.74884
0
LINE
8
BLACK
6
CONTINUOUS
10
1.3778
20
0.74884
11
1.36951
21
0.75049
0
LINE
8
BLACK
6
CONTINUOUS
10
1.36951
20
0.75049
11
1.31049
21
0.75049
0
LINE
8
BLACK
6
CONTINUOUS
10
1.31049
20
0.75049
11
1.3022
21
0.74884
0
LINE
8
BLACK
6
CONTINUOUS
10
1.3022
20
0.74884
11
1.29558
21
0.744419
0
LINE
8
BLACK
6
CONTINUOUS
10
1.29558
20
0.744419
11
1.29116
21
0.737804
0
LINE
8
BLACK
6
CONTINUOUS
10
1.29116
20
0.737804
11
1.29018
21
0.732883
0
LINE
8
BLACK
6
CONTINUOUS
10
1.29018
20
0.732883
11
1.28944
21
0.73108
0
LINE
8
BLACK
6
CONTINUOUS
10
1.28944
20
0.73108
11
1.28806
21
0.729701
0
LINE
8
BLACK
6
CONTINUOUS
10
1.28806
20
0.729701
11
1.28625
21
0.728954
0
LINE
8
BLACK
6
CONTINUOUS
10
1.28625
20
0.728954
11
1.28528
21
0.728858
0
LINE
8
BLACK
6
CONTINUOUS
10
1.28528
20
0.728858
11
1.09445
21
0.728858
0
LINE
8
BLACK
6
CONTINUOUS
10
1.09445
20
0.728858
11
1.09254
21
0.729239
0
LINE
8
BLACK
6
CONTINUOUS
10
1.09254
20
0.729239
11
1.09062
21
0.730033
0
LINE
8
BLACK
6
CONTINUOUS
10
1.09062
20
0.730033
11
1.089
21
0.731116
0
LINE
8
BLACK
6
CONTINUOUS
10
1.089
20
0.731116
11
1.08792
21
0.732739
0
LINE
8
BLACK
6
CONTINUOUS
10
1.08792
20
0.732739
11
1.08753
21
0.734652
0
LINE
8
BLACK
6
CONTINUOUS
10
1.08753
20
0.734652
11
1.08792
21
0.736565
0
LINE
8
BLACK
6
CONTINUOUS
10
1.08792
20
0.736565
11
1.089
21
0.738187
0
LINE
8
BLACK
6
CONTINUOUS
10
1.089
20
0.738187
11
1.18805
21
0.837236
0
LINE
8
BLACK
6
CONTINUOUS
10
1.18805
20
0.837236
11
1.18881
21
0.837858
0
LINE
8
BLACK
6
CONTINUOUS
10
1.18881
20
0.837858
11
1.19081
21
0.839194
0
LINE
8
BLACK
6
CONTINUOUS
10
1.19081
20
0.839194
11
1.19718
21
0.84874
0
LINE
8
BLACK
6
CONTINUOUS
10
1.19718
20
0.84874
11
1.19942
21
0.86
0
LINE
8
BLACK
6
CONTINUOUS
10
1.19942
20
0.86
11
1.19895
21
0.862359
0
LINE
8
BLACK
6
CONTINUOUS
10
1.19895
20
0.862359
11
1.19886
21
0.863334
0
LINE
8
BLACK
6
CONTINUOUS
10
1.19886
20
0.863334
11
1.19886
21
0.965278
0
LINE
8
BLACK
6
CONTINUOUS
10
1.19886
20
0.965278
11
1.19924
21
0.967191
0
LINE
8
BLACK
6
CONTINUOUS
10
1.19924
20
0.967191
11
1.20032
21
0.968813
0
LINE
8
BLACK
6
CONTINUOUS
10
1.20032
20
0.968813
11
1.20194
21
0.969897
0
LINE
8
BLACK
6
CONTINUOUS
10
1.20194
20
0.969897
11
1.20288
21
0.970182
0
LINE
8
BLACK
6
CONTINUOUS
10
1.20288
20
0.970182
11
1.2078
21
0.97116
0
LINE
8
BLACK
6
CONTINUOUS
10
1.2078
20
0.97116
11
1.21442
21
0.975581
0
LINE
8
BLACK
6
CONTINUOUS
10
1.21442
20
0.975581
11
1.21884
21
0.982196
0
LINE
8
BLACK
6
CONTINUOUS
10
1.21884
20
0.982196
11
1.22049
21
0.990492
0
LINE
8
BLACK
6
CONTINUOUS
10
1.22049
20
0.990492
11
1.22049
21
1.04951
0
LINE
8
BLACK
6
CONTINUOUS
10
1.22049
20
1.04951
11
1.21884
21
1.0578
0
LINE
8
BLACK
6
CONTINUOUS
10
1.21884
20
1.0578
11
1.21442
21
1.06442
0
LINE
8
BLACK
6
CONTINUOUS
10
1.21442
20
1.06442
11
1.21229
21
1.06584
0
LINE
8
BLACK
6
CONTINUOUS
10
1.21229
20
1.06584
11
1.21091
21
1.06722
0
LINE
8
BLACK
6
CONTINUOUS
10
1.21091
20
1.06722
11
1.21016
21
1.06902
0
LINE
8
BLACK
6
CONTINUOUS
10
1.21016
20
1.06902
11
1.21016
21
1.07098
0
LINE
8
BLACK
6
CONTINUOUS
10
1.21016
20
1.07098
11
1.21091
21
1.07278
0
LINE
8
BLACK
6
CONTINUOUS
10
1.21091
20
1.07278
11
1.21229
21
1.07416
0
LINE
8
BLACK
6
CONTINUOUS
10
1.21229
20
1.07416
11
1.21442
21
1.07558
0
LINE
8
BLACK
6
CONTINUOUS
10
1.21442
20
1.07558
11
1.21884
21
1.0822
0
LINE
8
BLACK
6
CONTINUOUS
10
1.21884
20
1.0822
11
1.22049
21
1.09049
0
LINE
8
BLACK
6
CONTINUOUS
10
1.22049
20
1.09049
11
1.22049
21
1.14951
0
LINE
8
BLACK
6
CONTINUOUS
10
1.22049
20
1.14951
11
1.21884
21
1.1578
0
LINE
8
BLACK
6
CONTINUOUS
10
1.21884
20
1.1578
11
1.21786
21
1.15927
0
LINE
8
BLACK
6
CONTINUOUS
10
1.21786
20
1.15927
11
1.21711
21
1.16107
0
LINE
8
BLACK
6
CONTINUOUS
10
1.21711
20
1.16107
11
1.21711
21
1.16302
0
LINE
8
BLACK
6
CONTINUOUS
10
1.21711
20
1.16302
11
1.21786
21
1.16483
0
LINE
8
BLACK
6
CONTINUOUS
10
1.21786
20
1.16483
11
1.21924
21
1.1662
0
LINE
8
BLACK
6
CONTINUOUS
10
1.21924
20
1.1662
11
1.22104
21
1.16695
0
LINE
8
BLACK
6
CONTINUOUS
10
1.22104
20
1.16695
11
1.22202
21
1.16705
0
LINE
8
BLACK
6
CONTINUOUS
10
1.22202
20
1.16705
11
1.56205
21
1.16705
0
LINE
8
BLACK
6
CONTINUOUS
10
1.56205
20
1.16705
11
1.56396
21
1.16667
0
LINE
8
BLACK
6
CONTINUOUS
10
1.56396
20
1.16667
11
1.56558
21
1.16558
0
LINE
8
BLACK
6
CONTINUOUS
10
1.56558
20
1.16558
11
1.56667
21
1.16396
0
LINE
8
BLACK
6
CONTINUOUS
10
1.56667
20
1.16396
11
1.56705
21
1.16205
0
LINE
8
BLACK
6
CONTINUOUS
10
1.56705
20
1.16205
11
1.56705
21
0.0379528
0
LINE
8
BLACK
6
CONTINUOUS
10
1.56705
20
0.0379528
11
1.56667
21
0.0360393
0
LINE
8
BLACK
6
CONTINUOUS
10
1.56667
20
0.0360393
11
1.56558
21
0.0344172
0
LINE
8
BLACK
6
CONTINUOUS
10
1.56558
20
0.0344172
11
1.56396
21
0.0333333
0
LINE
8
BLACK
6
CONTINUOUS
10
1.56396
20
0.0333333
11
1.56205
21
0.0329528
0
LINE
8
BLACK
6
CONTINUOUS
10
1.56205
20
0.0329528
11
0.385
21
0.0329528
0
LINE
8
BLACK
6
CONTINUOUS
10
0.385
20
0.0329528
11
0.383087
21
0.0333333
0
LINE
8
BLACK
6
CONTINUOUS
10
0.383087
20
0.0333333
11
0.381464
21
0.0344172
0
LINE
8
BLACK
6
CONTINUOUS
10
0.381464
20
0.0344172
11
0.380381
21
0.0360393
0
LINE
8
BLACK
6
CONTINUOUS
10
0.380381
20
0.0360393
11
0.38
21
0.0379528
0
LINE
8
BLACK
6
CONTINUOUS
10
0.38
20
0.0379528
11
0.38
21
0.48691
0
LINE
8
BLACK
6
CONTINUOUS
10
0.38
20
0.48691
11
0.380381
21
0.488823
0
LINE
8
BLACK
6
CONTINUOUS
10
0.380381
20
0.488823
11
0.381464
21
0.490445
0
LINE
8
BLACK
6
CONTINUOUS
10
0.381464
20
0.490445
11
0.382764
21
0.491382
0
LINE
8
BLACK
6
CONTINUOUS
10
0.382764
20
0.491382
11
0.47964
21
0.53982
0
LINE
8
BLACK
6
CONTINUOUS
10
0.47964
20
0.53982
11
0.47988
21
0.539993
0
LINE
8
BLACK
6
CONTINUOUS
10
0.47988
20
0.539993
11
0.479909
21
0.540037
0
LINE
8
BLACK
6
CONTINUOUS
10
0.479909
20
0.540037
11
0.48
21
0.540492
0
LINE
8
BLACK
6
CONTINUOUS
10
0.48
20
0.540492
11
0.48
21
0.689597
0
LINE
8
BLACK
6
CONTINUOUS
10
0.48
20
0.689597
11
0.479953
21
0.689889
0
LINE
8
BLACK
6
CONTINUOUS
10
0.479953
20
0.689889
11
0.479926
21
0.689936
0
LINE
8
BLACK
6
CONTINUOUS
10
0.479926
20
0.689936
11
0.47956
21
0.69022
0
LINE
8
BLACK
6
CONTINUOUS
10
0.47956
20
0.69022
11
0.382764
21
0.738618
0
LINE
8
BLACK
6
CONTINUOUS
10
0.382764
20
0.738618
11
0.381223
21
0.739814
0
LINE
8
BLACK
6
CONTINUOUS
10
0.381223
20
0.739814
11
0.380257
21
0.741509
0
LINE
8
BLACK
6
CONTINUOUS
10
0.380257
20
0.741509
11
0.38
21
0.74309
0
LINE
8
BLACK
6
CONTINUOUS
10
0.38
20
0.74309
11
0.38
21
1.16205
0
LINE
8
BLACK
6
CONTINUOUS
10
0.38
20
1.16205
11
0.380381
21
1.16396
0
LINE
8
BLACK
6
CONTINUOUS
10
0.380381
20
1.16396
11
0.381464
21
1.16558
0
LINE
8
BLACK
6
CONTINUOUS
10
0.381464
20
1.16558
11
0.383087
21
1.16667
0
LINE
8
BLACK
6
CONTINUOUS
10
0.383087
20
1.16667
11
0.385
21
1.16705
0
LINE
8
BLACK
6
CONTINUOUS
10
0.385
20
1.16705
11
0.538923
21
1.16705
0
LINE
8
BLACK
6
CONTINUOUS
10
0.538923
20
1.16705
11
0.540837
21
1.16667
0
LINE
8
BLACK
6
CONTINUOUS
10
0.540837
20
1.16667
11
0.542459
21
1.16558
0
LINE
8
BLACK
6
CONTINUOUS
10
0.542459
20
1.16558
11
0.543543
21
1.16396
0
LINE
8
BLACK
6
CONTINUOUS
10
0.543543
20
1.16396
11
0.543923
21
1.16205
0
LINE
8
BLACK
6
CONTINUOUS
10
0.543923
20
1.16205
11
0.543543
21
1.16013
0
LINE
8
BLACK
6
CONTINUOUS
10
0.543543
20
1.16013
11
0.543362
21
1.15986
0
LINE
8
BLACK
6
CONTINUOUS
10
0.543362
20
1.15986
11
0.54
21
1.15175
0
LINE
8
BLACK
6
CONTINUOUS
10
0.54
20
1.15175
11
0.54
21
1.13109
0
LINE
8
BLACK
6
CONTINUOUS
10
0.54
20
1.13109
11
0.543321
21
1.12777
0
LINE
8
BLACK
6
CONTINUOUS
10
0.543321
20
1.12777
11
0.56
21
1.12777
0
LINE
8
BLACK
6
CONTINUOUS
10
0.56
20
1.12777
11
0.56
21
1.14777
0
LINE
8
BLACK
6
CONTINUOUS
10
0.56
20
1.14777
11
0.62
21
1.14777
0
LINE
8
BLACK
6
CONTINUOUS
10
0.62
20
1.14777
11
0.62
21
1.08777
0
LINE
8
BLACK
6
CONTINUOUS
10
0.62
20
1.08777
11
0.6
21
1.08777
0
LINE
8
BLACK
6
CONTINUOUS
10
0.6
20
1.08777
11
0.6
21
1.07098
0
LINE
8
BLACK
6
CONTINUOUS
10
0.6
20
1.07098
11
0.600869
21
1.06968
0
LINE
8
BLACK
6
CONTINUOUS
10
0.600869
20
1.06968
11
0.60125
21
1.06777
0
LINE
8
BLACK
6
CONTINUOUS
10
0.60125
20
1.06777
11
0.600869
21
1.06586
0
LINE
8
BLACK
6
CONTINUOUS
10
0.600869
20
1.06586
11
0.6
21
1.06455
0
LINE
8
BLACK
6
CONTINUOUS
10
0.6
20
1.06455
11
0.6
21
1.04777
0
LINE
8
BLACK
6
CONTINUOUS
10
0.6
20
1.04777
11
0.62
21
1.04777
0
LINE
8
BLACK
6
CONTINUOUS
10
0.62
20
1.04777
11
0.62
21
0.987769
0
LINE
8
BLACK
6
CONTINUOUS
10
0.62
20
0.987769
11
0.6
21
0.987769
0
LINE
8
BLACK
6
CONTINUOUS
10
0.6
20
0.987769
11
0.6
21
0.97109
0
LINE
8
BLACK
6
CONTINUOUS
10
0.6
20
0.97109
11
0.603321
21
0.967769
0
LINE
8
BLACK
6
CONTINUOUS
10
0.603321
20
0.967769
11
0.623978
21
0.967769
0
LINE
8
BLACK
6
CONTINUOUS
10
0.623978
20
0.967769
11
0.631329
21
0.970814
0
LINE
8
BLACK
6
CONTINUOUS
10
0.631329
20
0.970814
11
0.63658
21
0.976065
0
LINE
8
BLACK
6
CONTINUOUS
10
0.63658
20
0.976065
11
0.638202
21
0.977149
0
LINE
8
BLACK
6
CONTINUOUS
10
0.638202
20
0.977149
11
0.640116
21
0.977529
0
LINE
8
BLACK
6
CONTINUOUS
10
0.640116
20
0.977529
11
0.642029
21
0.977149
0
LINE
8
BLACK
6
CONTINUOUS
10
0.642029
20
0.977149
11
0.643651
21
0.976065
0
LINE
8
BLACK
6
CONTINUOUS
10
0.643651
20
0.976065
11
0.644273
21
0.975307
0
LINE
8
BLACK
6
CONTINUOUS
10
0.644273
20
0.975307
11
0.645581
21
0.97335
0
LINE
8
BLACK
6
CONTINUOUS
10
0.645581
20
0.97335
11
0.652196
21
0.968929
0
LINE
8
BLACK
6
CONTINUOUS
10
0.652196
20
0.968929
11
0.660492
21
0.967279
0
LINE
8
BLACK
6
CONTINUOUS
10
0.660492
20
0.967279
11
0.719508
21
0.967279
0
LINE
8
BLACK
6
CONTINUOUS
10
0.719508
20
0.967279
11
0.727804
21
0.968929
0
LINE
8
BLACK
6
CONTINUOUS
10
0.727804
20
0.968929
11
0.734419
21
0.97335
0
LINE
8
BLACK
6
CONTINUOUS
10
0.734419
20
0.97335
11
0.735843
21
0.97548
0
LINE
8
BLACK
6
CONTINUOUS
10
0.735843
20
0.97548
11
0.737222
21
0.976859
0
LINE
8
BLACK
6
CONTINUOUS
10
0.737222
20
0.976859
11
0.739025
21
0.977606
0
LINE
8
BLACK
6
CONTINUOUS
10
0.739025
20
0.977606
11
0.740975
21
0.977606
0
LINE
8
BLACK
6
CONTINUOUS
10
0.740975
20
0.977606
11
0.742778
21
0.976859
0
LINE
8
BLACK
6
CONTINUOUS
10
0.742778
20
0.976859
11
0.744157
21
0.97548
0
LINE
8
BLACK
6
CONTINUOUS
10
0.744157
20
0.97548
11
0.745581
21
0.97335
0
LINE
8
BLACK
6
CONTINUOUS
10
0.745581
20
0.97335
11
0.752197
21
0.968929
0
LINE
8
BLACK
6
CONTINUOUS
10
0.752197
20
0.968929
11
0.753998
21
0.968183
0
LINE
8
BLACK
6
CONTINUOUS
10
0.753998
20
0.968183
11
0.755378
21
0.966803
0
LINE
8
BLACK
6
CONTINUOUS
10
0.755378
20
0.966803
11
0.756124
21
0.965001
0
LINE
8
BLACK
6
CONTINUOUS
10
0.756124
20
0.965001
11
0.756221
21
0.964025
0
LINE
8
BLACK
6
CONTINUOUS
10
0.756221
20
0.964025
11
0.75622
21
0.813858
0
LINE
8
BLACK
6
CONTINUOUS
10
0.75622
20
0.813858
11
0.75584
21
0.811945
0
LINE
8
BLACK
6
CONTINUOUS
10
0.75584
20
0.811945
11
0.754756
21
0.810323
0
LINE
8
BLACK
6
CONTINUOUS
10
0.754756
20
0.810323
11
0.753134
21
0.809239
0
LINE
8
BLACK
6
CONTINUOUS
10
0.753134
20
0.809239
11
0.75122
21
0.808858
0
LINE
8
BLACK
6
CONTINUOUS
10
0.75122
20
0.808858
11
0.674451
21
0.808858
0
LINE
8
BLACK
6
CONTINUOUS
10
0.674451
20
0.808858
11
0.672537
21
0.809239
0
LINE
8
BLACK
6
CONTINUOUS
10
0.672537
20
0.809239
11
0.666328
21
0.811811
0
LINE
8
BLACK
6
CONTINUOUS
10
0.666328
20
0.811811
11
0.653672
21
0.811811
0
LINE
8
BLACK
6
CONTINUOUS
10
0.653672
20
0.811811
11
0.647463
21
0.809239
0
LINE
8
BLACK
6
CONTINUOUS
10
0.647463
20
0.809239
11
0.645549
21
0.808858
0
LINE
8
BLACK
6
CONTINUOUS
10
0.645549
20
0.808858
11
0.623334
21
0.808858
0
LINE
8
BLACK
6
CONTINUOUS
10
0.623334
20
0.808858
11
0.622359
21
0.808954
0
LINE
8
BLACK
6
CONTINUOUS
10
0.622359
20
0.808954
11
0.62
21
0.809424
0
LINE
8
BLACK
6
CONTINUOUS
10
0.62
20
0.809424
11
0.60874
21
0.807184
0
LINE
8
BLACK
6
CONTINUOUS
10
0.60874
20
0.807184
11
0.599194
21
0.800806
0
LINE
8
BLACK
6
CONTINUOUS
10
0.599194
20
0.800806
11
0.597858
21
0.798806
0
LINE
8
BLACK
6
CONTINUOUS
10
0.597858
20
0.798806
11
0.597236
21
0.798048
0
LINE
8
BLACK
6
CONTINUOUS
10
0.597236
20
0.798048
11
0.549812
21
0.750624
0
LINE
8
BLACK
6
CONTINUOUS
10
0.549812
20
0.750624
11
0.54819
21
0.74954
0
LINE
8
BLACK
6
CONTINUOUS
10
0.54819
20
0.74954
11
0.541981
21
0.746968
0
LINE
8
BLACK
6
CONTINUOUS
10
0.541981
20
0.746968
11
0.533032
21
0.738019
0
LINE
8
BLACK
6
CONTINUOUS
10
0.533032
20
0.738019
11
0.528189
21
0.726328
0
LINE
8
BLACK
6
CONTINUOUS
10
0.528189
20
0.726328
11
0.528189
21
0.713672
0
LINE
8
BLACK
6
CONTINUOUS
10
0.528189
20
0.713672
11
0.533032
21
0.701981
0
LINE
8
BLACK
6
CONTINUOUS
10
0.533032
20
0.701981
11
0.541981
21
0.693032
0
LINE
8
BLACK
6
CONTINUOUS
10
0.541981
20
0.693032
11
0.553672
21
0.688189
0
LINE
8
BLACK
6
CONTINUOUS
10
0.553672
20
0.688189
11
0.566328
21
0.688189
0
LINE
8
BLACK
6
CONTINUOUS
10
0.566328
20
0.688189
11
0.578019
21
0.693032
0
LINE
8
BLACK
6
CONTINUOUS
10
0.578019
20
0.693032
11
0.586968
21
0.701981
0
LINE
8
BLACK
6
CONTINUOUS
10
0.586968
20
0.701981
11
0.58954
21
0.70819
0
LINE
8
BLACK
6
CONTINUOUS
10
0.58954
20
0.70819
11
0.590624
21
0.709812
0
LINE
8
BLACK
6
CONTINUOUS
10
0.590624
20
0.709812
11
0.630489
21
0.749677
0
LINE
8
BLACK
6
CONTINUOUS
10
0.630489
20
0.749677
11
0.632111
21
0.750761
0
LINE
8
BLACK
6
CONTINUOUS
10
0.632111
20
0.750761
11
0.634025
21
0.751142
0
LINE
8
BLACK
6
CONTINUOUS
10
0.634025
20
0.751142
11
0.645549
21
0.751142
0
LINE
8
BLACK
6
CONTINUOUS
10
0.645549
20
0.751142
11
0.647463
21
0.750761
0
LINE
8
BLACK
6
CONTINUOUS
10
0.647463
20
0.750761
11
0.653672
21
0.748189
0
LINE
8
BLACK
6
CONTINUOUS
10
0.653672
20
0.748189
11
0.666328
21
0.748189
0
LINE
8
BLACK
6
CONTINUOUS
10
0.666328
20
0.748189
11
0.672537
21
0.750761
0
LINE
8
BLACK
6
CONTINUOUS
10
0.672537
20
0.750761
11
0.674451
21
0.751142
0
LINE
8
BLACK
6
CONTINUOUS
10
0.674451
20
0.751142
11
0.75122
21
0.751142
0
LINE
8
BLACK
6
CONTINUOUS
10
0.75122
20
0.751142
11
0.753134
21
0.750761
0
LINE
8
BLACK
6
CONTINUOUS
10
0.753134
20
0.750761
11
0.754756
21
0.749677
0
LINE
8
BLACK
6
CONTINUOUS
10
0.754756
20
0.749677
11
0.75584
21
0.748055
0
LINE
8
BLACK
6
CONTINUOUS
10
0.75584
20
0.748055
11
0.75622
21
0.746142
0
LINE
8
BLACK
6
CONTINUOUS
10
0.75622
20
0.746142
11
0.75622
21
0.656063
0
LINE
8
BLACK
6
CONTINUOUS
10
0.75622
20
0.656063
11
0.75584
21
0.65415
0
LINE
8
BLACK
6
CONTINUOUS
10
0.75584
20
0.65415
11
0.754756
21
0.652527
0
LINE
8
BLACK
6
CONTINUOUS
10
0.754756
20
0.652527
11
0.684406
21
0.582177
0
LINE
8
BLACK
6
CONTINUOUS
10
0.684406
20
0.582177
11
0.683648
21
0.581555
0
LINE
8
BLACK
6
CONTINUOUS
10
0.683648
20
0.581555
11
0.681237
21
0.579944
0
LINE
8
BLACK
6
CONTINUOUS
10
0.681237
20
0.579944
11
0.673771
21
0.568771
0
LINE
8
BLACK
6
CONTINUOUS
10
0.673771
20
0.568771
11
0.671149
21
0.555591
0
LINE
8
BLACK
6
CONTINUOUS
10
0.671149
20
0.555591
11
0.671715
21
0.552747
0
LINE
8
BLACK
6
CONTINUOUS
10
0.671715
20
0.552747
11
0.671811
21
0.551771
0
LINE
8
BLACK
6
CONTINUOUS
10
0.671811
20
0.551771
11
0.671811
21
0.423819
0
LINE
8
BLACK
6
CONTINUOUS
10
0.671811
20
0.423819
11
0.671715
21
0.422844
0
LINE
8
BLACK
6
CONTINUOUS
10
0.671715
20
0.422844
11
0.671149
21
0.42
0
LINE
8
BLACK
6
CONTINUOUS
10
0.671149
20
0.42
11
0.671715
21
0.417156
0
LINE
8
BLACK
6
CONTINUOUS
10
0.671715
20
0.417156
11
0.671811
21
0.416181
0
LINE
8
BLACK
6
CONTINUOUS
10
0.671811
20
0.416181
11
0.671811
21
0.28049
0
LINE
8
BLACK
6
CONTINUOUS
10
0.671811
20
0.28049
11
0.671431
21
0.278576
0
LINE
8
BLACK
6
CONTINUOUS
10
0.671431
20
0.278576
11
0.670347
21
0.276954
0
LINE
8
BLACK
6
CONTINUOUS
10
0.670347
20
0.276954
11
0.668725
21
0.27587
0
LINE
8
BLACK
6
CONTINUOUS
10
0.668725
20
0.27587
11
0.666811
21
0.27549
0
LINE
8
BLACK
6
CONTINUOUS
10
0.666811
20
0.27549
11
0.620492
21
0.27549
0
LINE
8
BLACK
6
CONTINUOUS
10
0.620492
20
0.27549
11
0.612196
21
0.27384
0
LINE
8
BLACK
6
CONTINUOUS
10
0.612196
20
0.27384
11
0.605581
21
0.269419
0
LINE
8
BLACK
6
CONTINUOUS
10
0.605581
20
0.269419
11
0.60116
21
0.262804
0
LINE
8
BLACK
6
CONTINUOUS
10
0.60116
20
0.262804
11
0.59951
21
0.254508
0
LINE
8
BLACK
6
CONTINUOUS
10
0.59951
20
0.254508
11
0.59951
21
0.195492
0
LINE
8
BLACK
6
CONTINUOUS
10
0.59951
20
0.195492
11
0.60116
21
0.187196
0
LINE
8
BLACK
6
CONTINUOUS
10
0.60116
20
0.187196
11
0.605581
21
0.180581
0
LINE
8
BLACK
6
CONTINUOUS
10
0.605581
20
0.180581
11
0.607711
21
0.179157
0
LINE
8
BLACK
6
CONTINUOUS
10
0.607711
20
0.179157
11
0.609091
21
0.177778
0
LINE
8
BLACK
6
CONTINUOUS
10
0.609091
20
0.177778
11
0.609837
21
0.175975
0
LINE
8
BLACK
6
CONTINUOUS
10
0.609837
20
0.175975
11
0.609837
21
0.174025
0
LINE
8
BLACK
6
CONTINUOUS
10
0.609837
20
0.174025
11
0.609091
21
0.172222
0
LINE
8
BLACK
6
CONTINUOUS
10
0.609091
20
0.172222
11
0.607711
21
0.170843
0
LINE
8
BLACK
6
CONTINUOUS
10
0.607711
20
0.170843
11
0.605581
21
0.169419
0
LINE
8
BLACK
6
CONTINUOUS
10
0.605581
20
0.169419
11
0.60116
21
0.162804
0
LINE
8
BLACK
6
CONTINUOUS
10
0.60116
20
0.162804
11
0.59951
21
0.154508
0
LINE
8
BLACK
6
CONTINUOUS
10
0.59951
20
0.154508
11
0.59951
21
0.0954925
0
LINE
8
BLACK
6
CONTINUOUS
10
0.59951
20
0.0954925
11
0.60116
21
0.0871963
0
LINE
8
BLACK
6
CONTINUOUS
10
0.60116
20
0.0871963
11
0.605581
21
0.0805808
0
LINE
8
BLACK
6
CONTINUOUS
10
0.605581
20
0.0805808
11
0.612196
21
0.0761604
0
LINE
8
BLACK
6
CONTINUOUS
10
0.612196
20
0.0761604
11
0.620492
21
0.0745102
0
LINE
8
BLACK
6
CONTINUOUS
10
0.620492
20
0.0745102
11
0.679508
21
0.0745102
0
LINE
8
BLACK
6
CONTINUOUS
10
0.679508
20
0.0745102
11
0.687804
21
0.0761604
0
LINE
8
BLACK
6
CONTINUOUS
10
0.687804
20
0.0761604
11
0.694419
21
0.0805808
0
LINE
8
BLACK
6
CONTINUOUS
10
0.694419
20
0.0805808
11
0.69884
21
0.0871963
0
LINE
8
BLACK
6
CONTINUOUS
10
0.69884
20
0.0871963
11
0.699601
21
0.0910218
0
LINE
8
BLACK
6
CONTINUOUS
10
0.699601
20
0.0910218
11
0.70049
21
0.0954925
0
LINE
8
BLACK
6
CONTINUOUS
10
0.70049
20
0.0954925
11
0.70049
21
0.125647
0
LINE
8
BLACK
6
CONTINUOUS
10
0.70049
20
0.125647
11
0.70087
21
0.127561
0
LINE
8
BLACK
6
CONTINUOUS
10
0.70087
20
0.127561
11
0.701954
21
0.129183
0
LINE
8
BLACK
6
CONTINUOUS
10
0.701954
20
0.129183
11
0.726776
21
0.154004
0
LINE
8
BLACK
6
CONTINUOUS
10
0.726776
20
0.154004
11
0.727533
21
0.154626
0
LINE
8
BLACK
6
CONTINUOUS
10
0.727533
20
0.154626
11
0.729944
21
0.156237
0
LINE
8
BLACK
6
CONTINUOUS
10
0.729944
20
0.156237
11
0.73741
21
0.16741
0
LINE
8
BLACK
6
CONTINUOUS
10
0.73741
20
0.16741
11
0.740032
21
0.180591
0
LINE
8
BLACK
6
CONTINUOUS
10
0.740032
20
0.180591
11
0.739466
21
0.183434
0
LINE
8
BLACK
6
CONTINUOUS
10
0.739466
20
0.183434
11
0.73937
21
0.18441
0
LINE
8
BLACK
6
CONTINUOUS
10
0.73937
20
0.18441
11
0.73937
21
0.38122
0
LINE
8
BLACK
6
CONTINUOUS
10
0.73937
20
0.38122
11
0.739751
21
0.383134
0
LINE
8
BLACK
6
CONTINUOUS
10
0.739751
20
0.383134
11
0.740835
21
0.384756
0
LINE
8
BLACK
6
CONTINUOUS
10
0.740835
20
0.384756
11
0.742457
21
0.38584
0
LINE
8
BLACK
6
CONTINUOUS
10
0.742457
20
0.38584
11
0.74437
21
0.38622
0
LINE
8
BLACK
6
CONTINUOUS
10
0.74437
20
0.38622
11
0.846496
21
0.38622
0
LINE
8
BLACK
6
CONTINUOUS
10
0.846496
20
0.38622
11
0.848409
21
0.38584
0
LINE
8
BLACK
6
CONTINUOUS
10
0.848409
20
0.38584
11
0.850032
21
0.384756
0
LINE
8
BLACK
6
CONTINUOUS
10
0.850032
20
0.384756
11
0.95714
21
0.277648
0
LINE
8
BLACK
6
CONTINUOUS
10
0.95714
20
0.277648
11
0.958224
21
0.276025
0
LINE
8
BLACK
6
CONTINUOUS
10
0.958224
20
0.276025
11
0.958604
21
0.274112
0
LINE
8
BLACK
6
CONTINUOUS
10
0.958604
20
0.274112
11
0.958224
21
0.272199
0
LINE
8
BLACK
6
CONTINUOUS
10
0.958224
20
0.272199
11
0.95714
21
0.270576
0
LINE
8
BLACK
6
CONTINUOUS
10
0.95714
20
0.270576
11
0.956382
21
0.269955
0
LINE
8
BLACK
6
CONTINUOUS
10
0.956382
20
0.269955
11
0.955581
21
0.269419
0
LINE
8
BLACK
6
CONTINUOUS
10
0.955581
20
0.269419
11
0.954273
21
0.267462
0
LINE
8
BLACK
6
CONTINUOUS
10
0.954273
20
0.267462
11
0.952894
21
0.266082
0
LINE
8
BLACK
6
CONTINUOUS
10
0.952894
20
0.266082
11
0.951091
21
0.265336
0
LINE
8
BLACK
6
CONTINUOUS
10
0.951091
20
0.265336
11
0.94914
21
0.265336
0
LINE
8
BLACK
6
CONTINUOUS
10
0.94914
20
0.265336
11
0.947338
21
0.266082
0
LINE
8
BLACK
6
CONTINUOUS
10
0.947338
20
0.266082
11
0.94658
21
0.266704
0
LINE
8
BLACK
6
CONTINUOUS
10
0.94658
20
0.266704
11
0.941329
21
0.271955
0
LINE
8
BLACK
6
CONTINUOUS
10
0.941329
20
0.271955
11
0.933978
21
0.275
0
LINE
8
BLACK
6
CONTINUOUS
10
0.933978
20
0.275
11
0.913321
21
0.275
0
LINE
8
BLACK
6
CONTINUOUS
10
0.913321
20
0.275
11
0.91
21
0.271679
0
LINE
8
BLACK
6
CONTINUOUS
10
0.91
20
0.271679
11
0.91
21
0.255
0
LINE
8
BLACK
6
CONTINUOUS
10
0.91
20
0.255
11
0.93
21
0.255
0
LINE
8
BLACK
6
CONTINUOUS
10
0.93
20
0.255
11
0.93
21
0.195
0
LINE
8
BLACK
6
CONTINUOUS
10
0.93
20
0.195
11
0.91
21
0.195
0
LINE
8
BLACK
6
CONTINUOUS
10
0.91
20
0.195
11
0.91
21
0.178215
0
LINE
8
BLACK
6
CONTINUOUS
10
0.91
20
0.178215
11
0.910869
21
0.176913
0
LINE
8
BLACK
6
CONTINUOUS
10
0.910869
20
0.176913
11
0.91125
21
0.175
0
LINE
8
BLACK
6
CONTINUOUS
10
0.91125
20
0.175
11
0.910869
21
0.173087
0
LINE
8
BLACK
6
CONTINUOUS
10
0.910869
20
0.173087
11
0.91
21
0.171785
0
LINE
8
BLACK
6
CONTINUOUS
10
0.91
20
0.171785
11
0.91
21
0.155
0
LINE
8
BLACK
6
CONTINUOUS
10
0.91
20
0.155
11
0.93
21
0.155
0
LINE
8
BLACK
6
CONTINUOUS
10
0.93
20
0.155
11
0.93
21
0.095
0
LINE
8
BLACK
6
CONTINUOUS
10
0.93
20
0.095
11
0.91
21
0.095
0
LINE
8
BLACK
6
CONTINUOUS
10
0.91
20
0.095
11
0.91
21
0.0783211
0
LINE
8
BLACK
6
CONTINUOUS
10
0.91
20
0.0783211
11
0.913321
21
0.075
0
LINE
8
BLACK
6
CONTINUOUS
10
0.913321
20
0.075
11
0.933978
21
0.075
0
LINE
8
BLACK
6
CONTINUOUS
10
0.933978
20
0.075
11
0.941329
21
0.0780448
0
LINE
8
BLACK
6
CONTINUOUS
10
0.941329
20
0.0780448
11
0.94658
21
0.0832958
0
LINE
8
BLACK
6
CONTINUOUS
10
0.94658
20
0.0832958
11
0.948202
21
0.0843797
0
LINE
8
BLACK
6
CONTINUOUS
10
0.948202
20
0.0843797
11
0.950116
21
0.0847603
0
LINE
8
BLACK
6
CONTINUOUS
10
0.950116
20
0.0847603
11
0.952029
21
0.0843797
0
LINE
8
BLACK
6
CONTINUOUS
10
0.952029
20
0.0843797
11
0.953651
21
0.0832959
0
LINE
8
BLACK
6
CONTINUOUS
10
0.953651
20
0.0832959
11
0.954273
21
0.0825381
0
LINE
8
BLACK
6
CONTINUOUS
10
0.954273
20
0.0825381
11
0.955581
21
0.0805808
0
LINE
8
BLACK
6
CONTINUOUS
10
0.955581
20
0.0805808
11
0.962196
21
0.0761604
0
LINE
8
BLACK
6
CONTINUOUS
10
0.962196
20
0.0761604
11
0.970492
21
0.0745102
0
LINE
8
BLACK
6
CONTINUOUS
10
0.970492
20
0.0745102
11
1.02951
21
0.0745102
0
LINE
8
BLACK
6
CONTINUOUS
10
1.02951
20
0.0745102
11
1.0378
21
0.0761604
0
LINE
8
BLACK
6
CONTINUOUS
10
1.0378
20
0.0761604
11
1.04442
21
0.0805808
0
LINE
8
BLACK
6
CONTINUOUS
10
1.04442
20
0.0805808
11
1.04573
21
0.0825381
0
LINE
8
BLACK
6
CONTINUOUS
10
1.04573
20
0.0825381
11
1.04711
21
0.0839176
0
LINE
8
BLACK
6
CONTINUOUS
10
1.04711
20
0.0839176
11
1.04891
21
0.0846643
0
LINE
8
BLACK
6
CONTINUOUS
10
1.04891
20
0.0846643
11
1.05086
21
0.0846643
0
LINE
8
BLACK
6
CONTINUOUS
10
1.05086
20
0.0846643
11
1.05266
21
0.0839177
0
LINE
8
BLACK
6
CONTINUOUS
10
1.05266
20
0.0839177
11
1.05342
21
0.0832958
0
LINE
8
BLACK
6
CONTINUOUS
10
1.05342
20
0.0832958
11
1.05867
21
0.0780448
0
LINE
8
BLACK
6
CONTINUOUS
10
1.05867
20
0.0780448
11
1.06602
21
0.075
0
LINE
8
BLACK
6
CONTINUOUS
10
1.06602
20
0.075
11
1.08668
21
0.075
0
LINE
8
BLACK
6
CONTINUOUS
10
1.08668
20
0.075
11
1.09
21
0.0783211
0
LINE
8
BLACK
6
CONTINUOUS
10
1.09
20
0.0783211
11
1.09
21
0.095
0
LINE
8
BLACK
6
CONTINUOUS
10
1.09
20
0.095
11
1.07
21
0.095
0
LINE
8
BLACK
6
CONTINUOUS
10
1.13398
20
0.075
11
1.14133
21
0.0780448
0
LINE
8
BLACK
6
CONTINUOUS
10
1.14133
20
0.0780448
11
1.14696
21
0.0836709
0
LINE
8
BLACK
6
CONTINUOUS
10
1.14696
20
0.0836709
11
1.15
21
0.0910218
0
LINE
8
BLACK
6
CONTINUOUS
10
1.15
20
0.0910218
11
1.15
21
0.111679
0
LINE
8
BLACK
6
CONTINUOUS
10
1.15
20
0.111679
11
1.14668
21
0.115
0
LINE
8
BLACK
6
CONTINUOUS
10
1.14668
20
0.115
11
1.13
21
0.115
0
LINE
8
BLACK
6
CONTINUOUS
10
1.13
20
0.115
11
1.13
21
0.095
0
LINE
8
BLACK
6
CONTINUOUS
10
1.13
20
0.095
11
1.11
21
0.095
0
LINE
8
BLACK
6
CONTINUOUS
10
1.11
20
0.095
11
1.11
21
0.0783211
0
LINE
8
BLACK
6
CONTINUOUS
10
1.11
20
0.0783211
11
1.11332
21
0.075
0
LINE
8
BLACK
6
CONTINUOUS
10
1.11332
20
0.075
11
1.13398
21
0.075
0
LINE
8
BLACK
6
CONTINUOUS
10
0.858671
20
0.0780448
11
0.866022
21
0.075
0
LINE
8
BLACK
6
CONTINUOUS
10
0.866022
20
0.075
11
0.886679
21
0.075
0
LINE
8
BLACK
6
CONTINUOUS
10
0.886679
20
0.075
11
0.89
21
0.0783211
0
LINE
8
BLACK
6
CONTINUOUS
10
0.89
20
0.0783211
11
0.89
21
0.095
0
LINE
8
BLACK
6
CONTINUOUS
10
0.89
20
0.095
11
0.87
21
0.095
0
LINE
8
BLACK
6
CONTINUOUS
10
0.87
20
0.095
11
0.87
21
0.115
0
LINE
8
BLACK
6
CONTINUOUS
10
0.87
20
0.115
11
0.853321
21
0.115
0
LINE
8
BLACK
6
CONTINUOUS
10
0.853321
20
0.115
11
0.85
21
0.111679
0
LINE
8
BLACK
6
CONTINUOUS
10
0.85
20
0.111679
11
0.85
21
0.0910218
0
LINE
8
BLACK
6
CONTINUOUS
10
0.85
20
0.0910218
11
0.853045
21
0.0836709
0
LINE
8
BLACK
6
CONTINUOUS
10
0.853045
20
0.0836709
11
0.858671
21
0.0780448
0
LINE
8
BLACK
6
CONTINUOUS
10
1.13
20
0.215
11
1.13
21
0.195
0
LINE
8
BLACK
6
CONTINUOUS
10
1.13
20
0.195
11
1.11
21
0.195
0
LINE
8
BLACK
6
CONTINUOUS
10
1.11
20
0.195
11
1.11
21
0.178215
0
LINE
8
BLACK
6
CONTINUOUS
10
1.11
20
0.178215
11
1.11087
21
0.176913
0
LINE
8
BLACK
6
CONTINUOUS
10
1.11087
20
0.176913
11
1.11125
21
0.175
0
LINE
8
BLACK
6
CONTINUOUS
10
1.11125
20
0.175
11
1.11087
21
0.173087
0
LINE
8
BLACK
6
CONTINUOUS
10
1.11087
20
0.173087
11
1.11
21
0.171785
0
LINE
8
BLACK
6
CONTINUOUS
10
1.11
20
0.171785
11
1.11
21
0.155
0
LINE
8
BLACK
6
CONTINUOUS
10
1.11
20
0.155
11
1.13
21
0.155
0
LINE
8
BLACK
6
CONTINUOUS
10
1.13
20
0.155
11
1.13
21
0.135
0
LINE
8
BLACK
6
CONTINUOUS
10
1.13
20
0.135
11
1.14668
21
0.135
0
LINE
8
BLACK
6
CONTINUOUS
10
1.14668
20
0.135
11
1.15
21
0.138321
0
LINE
8
BLACK
6
CONTINUOUS
10
1.15
20
0.138321
11
1.15
21
0.158978
0
LINE
8
BLACK
6
CONTINUOUS
10
1.15
20
0.158978
11
1.14696
21
0.166329
0
LINE
8
BLACK
6
CONTINUOUS
10
1.14696
20
0.166329
11
1.14182
21
0.171464
0
LINE
8
BLACK
6
CONTINUOUS
10
1.14182
20
0.171464
11
1.14074
21
0.173087
0
LINE
8
BLACK
6
CONTINUOUS
10
1.14074
20
0.173087
11
1.14036
21
0.175
0
LINE
8
BLACK
6
CONTINUOUS
10
1.14036
20
0.175
11
1.14074
21
0.176913
0
LINE
8
BLACK
6
CONTINUOUS
10
1.14074
20
0.176913
11
1.14182
21
0.178536
0
LINE
8
BLACK
6
CONTINUOUS
10
1.14182
20
0.178536
11
1.14696
21
0.183671
0
LINE
8
BLACK
6
CONTINUOUS
10
1.14696
20
0.183671
11
1.15
21
0.191022
0
LINE
8
BLACK
6
CONTINUOUS
10
1.15
20
0.191022
11
1.15
21
0.211679
0
LINE
8
BLACK
6
CONTINUOUS
10
1.15
20
0.211679
11
1.14668
21
0.215
0
LINE
8
BLACK
6
CONTINUOUS
10
1.14668
20
0.215
11
1.13
21
0.215
0
LINE
8
BLACK
6
CONTINUOUS
10
1.11332
20
0.275
11
1.11
21
0.271679
0
LINE
8
BLACK
6
CONTINUOUS
10
1.11
20
0.271679
11
1.11
21
0.255
0
LINE
8
BLACK
6
CONTINUOUS
10
1.11
20
0.255
11
1.13
21
0.255
0
LINE
8
BLACK
6
CONTINUOUS
10
1.13
20
0.255
11
1.13
21
0.235
0
LINE
8
BLACK
6
CONTINUOUS
10
1.13
20
0.235
11
1.14668
21
0.235
0
LINE
8
BLACK
6
CONTINUOUS
10
1.14668
20
0.235
11
1.15
21
0.238321
0
LINE
8
BLACK
6
CONTINUOUS
10
1.15
20
0.238321
11
1.15
21
0.258978
0
LINE
8
BLACK
6
CONTINUOUS
10
1.15
20
0.258978
11
1.14696
21
0.266329
0
LINE
8
BLACK
6
CONTINUOUS
10
1.14696
20
0.266329
11
1.14133
21
0.271955
0
LINE
8
BLACK
6
CONTINUOUS
10
1.14133
20
0.271955
11
1.13398
21
0.275
0
LINE
8
BLACK
6
CONTINUOUS
10
1.13398
20
0.275
11
1.11332
21
0.275
0
LINE
8
BLACK
6
CONTINUOUS
10
0.548671
20
0.970814
11
0.556022
21
0.967769
0
LINE
8
BLACK
6
CONTINUOUS
10
0.556022
20
0.967769
11
0.576679
21
0.967769
0
LINE
8
BLACK
6
CONTINUOUS
10
0.576679
20
0.967769
11
0.58
21
0.97109
0
LINE
8
BLACK
6
CONTINUOUS
10
0.58
20
0.97109
11
0.58
21
0.987769
0
LINE
8
BLACK
6
CONTINUOUS
10
0.58
20
0.987769
11
0.56
21
0.987769
0
LINE
8
BLACK
6
CONTINUOUS
10
0.56
20
0.987769
11
0.56
21
1.00777
0
LINE
8
BLACK
6
CONTINUOUS
10
0.56
20
1.00777
11
0.543321
21
1.00777
0
LINE
8
BLACK
6
CONTINUOUS
10
0.543321
20
1.00777
11
0.54
21
1.00445
0
LINE
8
BLACK
6
CONTINUOUS
10
0.54
20
1.00445
11
0.54
21
0.983791
0
LINE
8
BLACK
6
CONTINUOUS
10
0.54
20
0.983791
11
0.543045
21
0.97644
0
LINE
8
BLACK
6
CONTINUOUS
10
0.543045
20
0.97644
11
0.548671
21
0.970814
0
LINE
8
BLACK
6
CONTINUOUS
10
0.56
20
1.02777
11
0.56
21
1.04777
0
LINE
8
BLACK
6
CONTINUOUS
10
0.56
20
1.04777
11
0.58
21
1.04777
0
LINE
8
BLACK
6
CONTINUOUS
10
0.58
20
1.04777
11
0.58
21
1.06455
0
LINE
8
BLACK
6
CONTINUOUS
10
0.58
20
1.06455
11
0.579131
21
1.06586
0
LINE
8
BLACK
6
CONTINUOUS
10
0.579131
20
1.06586
11
0.57875
21
1.06777
0
LINE
8
BLACK
6
CONTINUOUS
10
0.57875
20
1.06777
11
0.579131
21
1.06968
0
LINE
8
BLACK
6
CONTINUOUS
10
0.579131
20
1.06968
11
0.58
21
1.07098
0
LINE
8
BLACK
6
CONTINUOUS
10
0.58
20
1.07098
11
0.58
21
1.08777
0
LINE
8
BLACK
6
CONTINUOUS
10
0.58
20
1.08777
11
0.56
21
1.08777
0
LINE
8
BLACK
6
CONTINUOUS
10
0.56
20
1.08777
11
0.56
21
1.10777
0
LINE
8
BLACK
6
CONTINUOUS
10
0.56
20
1.10777
11
0.543321
21
1.10777
0
LINE
8
BLACK
6
CONTINUOUS
10
0.543321
20
1.10777
11
0.54
21
1.10445
0
LINE
8
BLACK
6
CONTINUOUS
10
0.54
20
1.10445
11
0.54
21
1.08379
0
LINE
8
BLACK
6
CONTINUOUS
10
0.54
20
1.08379
11
0.543045
21
1.07644
0
LINE
8
BLACK
6
CONTINUOUS
10
0.543045
20
1.07644
11
0.54818
21
1.0713
0
LINE
8
BLACK
6
CONTINUOUS
10
0.54818
20
1.0713
11
0.549264
21
1.06968
0
LINE
8
BLACK
6
CONTINUOUS
10
0.549264
20
1.06968
11
0.549645
21
1.06777
0
LINE
8
BLACK
6
CONTINUOUS
10
0.549645
20
1.06777
11
0.549264
21
1.06586
0
LINE
8
BLACK
6
CONTINUOUS
10
0.549264
20
1.06586
11
0.54818
21
1.06423
0
LINE
8
BLACK
6
CONTINUOUS
10
0.54818
20
1.06423
11
0.543045
21
1.0591
0
LINE
8
BLACK
6
CONTINUOUS
10
0.543045
20
1.0591
11
0.54
21
1.05175
0
LINE
8
BLACK
6
CONTINUOUS
10
0.54
20
1.05175
11
0.54
21
1.03109
0
LINE
8
BLACK
6
CONTINUOUS
10
0.54
20
1.03109
11
0.543321
21
1.02777
0
LINE
8
BLACK
6
CONTINUOUS
10
0.543321
20
1.02777
11
0.56
21
1.02777
0
LINE
8
BLACK
6
CONTINUOUS
10
0.87
20
0.135
11
0.87
21
0.155
0
LINE
8
BLACK
6
CONTINUOUS
10
0.87
20
0.155
11
0.89
21
0.155
0
LINE
8
BLACK
6
CONTINUOUS
10
0.89
20
0.155
11
0.89
21
0.171785
0
LINE
8
BLACK
6
CONTINUOUS
10
0.89
20
0.171785
11
0.889131
21
0.173087
0
LINE
8
BLACK
6
CONTINUOUS
10
0.889131
20
0.173087
11
0.88875
21
0.175
0
LINE
8
BLACK
6
CONTINUOUS
10
0.88875
20
0.175
11
0.889131
21
0.176913
0
LINE
8
BLACK
6
CONTINUOUS
10
0.889131
20
0.176913
11
0.89
21
0.178215
0
LINE
8
BLACK
6
CONTINUOUS
10
0.89
20
0.178215
11
0.89
21
0.195
0
LINE
8
BLACK
6
CONTINUOUS
10
0.89
20
0.195
11
0.87
21
0.195
0
LINE
8
BLACK
6
CONTINUOUS
10
0.87
20
0.195
11
0.87
21
0.215
0
LINE
8
BLACK
6
CONTINUOUS
10
0.87
20
0.215
11
0.853321
21
0.215
0
LINE
8
BLACK
6
CONTINUOUS
10
0.853321
20
0.215
11
0.85
21
0.211679
0
LINE
8
BLACK
6
CONTINUOUS
10
0.85
20
0.211679
11
0.85
21
0.191022
0
LINE
8
BLACK
6
CONTINUOUS
10
0.85
20
0.191022
11
0.853045
21
0.183671
0
LINE
8
BLACK
6
CONTINUOUS
10
0.853045
20
0.183671
11
0.85818
21
0.178536
0
LINE
8
BLACK
6
CONTINUOUS
10
0.85818
20
0.178536
11
0.859264
21
0.176913
0
LINE
8
BLACK
6
CONTINUOUS
10
0.859264
20
0.176913
11
0.859645
21
0.175
0
LINE
8
BLACK
6
CONTINUOUS
10
0.859645
20
0.175
11
0.859264
21
0.173087
0
LINE
8
BLACK
6
CONTINUOUS
10
0.859264
20
0.173087
11
0.85818
21
0.171464
0
LINE
8
BLACK
6
CONTINUOUS
10
0.85818
20
0.171464
11
0.853045
21
0.166329
0
LINE
8
BLACK
6
CONTINUOUS
10
0.853045
20
0.166329
11
0.85
21
0.158978
0
LINE
8
BLACK
6
CONTINUOUS
10
0.85
20
0.158978
11
0.85
21
0.138321
0
LINE
8
BLACK
6
CONTINUOUS
10
0.85
20
0.138321
11
0.853321
21
0.135
0
LINE
8
BLACK
6
CONTINUOUS
10
0.853321
20
0.135
11
0.87
21
0.135
0
LINE
8
BLACK
6
CONTINUOUS
10
0.87
20
0.235
11
0.87
21
0.255
0
LINE
8
BLACK
6
CONTINUOUS
10
0.87
20
0.255
11
0.89
21
0.255
0
LINE
8
BLACK
6
CONTINUOUS
10
0.89
20
0.255
11
0.89
21
0.271679
0
LINE
8
BLACK
6
CONTINUOUS
10
0.89
20
0.271679
11
0.886679
21
0.275
0
LINE
8
BLACK
6
CONTINUOUS
10
0.886679
20
0.275
11
0.866022
21
0.275
0
LINE
8
BLACK
6
CONTINUOUS
10
0.866022
20
0.275
11
0.858671
21
0.271955
0
LINE
8
BLACK
6
CONTINUOUS
10
0.858671
20
0.271955
11
0.853045
21
0.266329
0
LINE
8
BLACK
6
CONTINUOUS
10
0.853045
20
0.266329
11
0.85
21
0.258978
0
LINE
8
BLACK
6
CONTINUOUS
10
0.85
20
0.258978
11
0.85
21
0.238321
0
LINE
8
BLACK
6
CONTINUOUS
10
0.85
20
0.238321
11
0.853321
21
0.235
0
LINE
8
BLACK
6
CONTINUOUS
10
0.853321
20
0.235
11
0.87
21
0.235
0
LINE
8
BLACK
6
CONTINUOUS
10
1.03
20
0.095
11
0.97
21
0.095
0
LINE
8
BLACK
6
CONTINUOUS
10
0.97
20
0.095
11
0.97
21
0.155
0
LINE
8
BLACK
6
CONTINUOUS
10
0.97
20
0.155
11
1.03
21
0.155
0
LINE
8
BLACK
6
CONTINUOUS
10
1.03
20
0.155
11
1.03
21
0.095
0
LINE
8
BLACK
6
CONTINUOUS
10
0.803658
20
0.638598
11
0.803671
21
0.638273
0
LINE
8
BLACK
6
CONTINUOUS
10
0.803671
20
0.638273
11
0.803613
21
0.638081
0
LINE
8
BLACK
6
CONTINUOUS
10
0.803613
20
0.638081
11
0.803574
21
0.637631
0
LINE
8
BLACK
6
CONTINUOUS
10
0.803574
20
0.637631
11
0.802931
21
0.635798
0
LINE
8
BLACK
6
CONTINUOUS
10
0.802931
20
0.635798
11
0.802374
21
0.633938
0
LINE
8
BLACK
6
CONTINUOUS
10
0.802374
20
0.633938
11
0.802184
21
0.633671
0
LINE
8
BLACK
6
CONTINUOUS
10
0.802184
20
0.633671
11
0.802075
21
0.633362
0
LINE
8
BLACK
6
CONTINUOUS
10
0.802075
20
0.633362
11
0.800873
21
0.631837
0
LINE
8
BLACK
6
CONTINUOUS
10
0.800873
20
0.631837
11
0.799744
21
0.630256
0
LINE
8
BLACK
6
CONTINUOUS
10
0.799744
20
0.630256
11
0.71937
21
0.549883
0
LINE
8
BLACK
6
CONTINUOUS
10
0.71937
20
0.549883
11
0.71937
21
0.43378
0
LINE
8
BLACK
6
CONTINUOUS
10
0.71937
20
0.43378
11
0.862559
21
0.43378
0
LINE
8
BLACK
6
CONTINUOUS
10
0.862559
20
0.43378
11
0.863961
21
0.433658
0
LINE
8
BLACK
6
CONTINUOUS
10
0.863961
20
0.433658
11
0.864286
21
0.433671
0
LINE
8
BLACK
6
CONTINUOUS
10
0.864286
20
0.433671
11
0.864479
21
0.433613
0
LINE
8
BLACK
6
CONTINUOUS
10
0.864479
20
0.433613
11
0.864928
21
0.433574
0
LINE
8
BLACK
6
CONTINUOUS
10
0.864928
20
0.433574
11
0.86676
21
0.432931
0
LINE
8
BLACK
6
CONTINUOUS
10
0.86676
20
0.432931
11
0.868621
21
0.432374
0
LINE
8
BLACK
6
CONTINUOUS
10
0.868621
20
0.432374
11
0.868888
21
0.432184
0
LINE
8
BLACK
6
CONTINUOUS
10
0.868888
20
0.432184
11
0.869197
21
0.432075
0
LINE
8
BLACK
6
CONTINUOUS
10
0.869197
20
0.432075
11
0.870723
21
0.430873
0
LINE
8
BLACK
6
CONTINUOUS
10
0.870723
20
0.430873
11
0.872303
21
0.429744
0
LINE
8
BLACK
6
CONTINUOUS
10
0.872303
20
0.429744
11
1.00974
21
0.292303
0
LINE
8
BLACK
6
CONTINUOUS
10
1.00974
20
0.292303
11
1.01065
21
0.291225
0
LINE
8
BLACK
6
CONTINUOUS
10
1.01065
20
0.291225
11
1.01089
21
0.291005
0
LINE
8
BLACK
6
CONTINUOUS
10
1.01089
20
0.291005
11
1.01098
21
0.290828
0
LINE
8
BLACK
6
CONTINUOUS
10
1.01098
20
0.290828
11
1.01127
21
0.290482
0
LINE
8
BLACK
6
CONTINUOUS
10
1.01127
20
0.290482
11
1.01211
21
0.288732
0
LINE
8
BLACK
6
CONTINUOUS
10
1.01211
20
0.288732
11
1.01304
21
0.287022
0
LINE
8
BLACK
6
CONTINUOUS
10
1.01304
20
0.287022
11
1.01309
21
0.286699
0
LINE
8
BLACK
6
CONTINUOUS
10
1.01309
20
0.286699
11
1.01323
21
0.286403
0
LINE
8
BLACK
6
CONTINUOUS
10
1.01323
20
0.286403
11
1.01346
21
0.284475
0
LINE
8
BLACK
6
CONTINUOUS
10
1.01346
20
0.284475
11
1.01378
21
0.282559
0
LINE
8
BLACK
6
CONTINUOUS
10
1.01378
20
0.282559
11
1.01378
21
0.255
0
LINE
8
BLACK
6
CONTINUOUS
10
1.01378
20
0.255
11
1.03
21
0.255
0
LINE
8
BLACK
6
CONTINUOUS
10
1.03
20
0.255
11
1.03
21
0.195
0
LINE
8
BLACK
6
CONTINUOUS
10
1.03
20
0.195
11
0.97
21
0.195
0
LINE
8
BLACK
6
CONTINUOUS
10
0.97
20
0.195
11
0.97
21
0.255
0
LINE
8
BLACK
6
CONTINUOUS
10
0.97
20
0.255
11
0.98622
21
0.255
0
LINE
8
BLACK
6
CONTINUOUS
10
0.98622
20
0.255
11
0.98622
21
0.276851
0
LINE
8
BLACK
6
CONTINUOUS
10
0.98622
20
0.276851
11
0.856851
21
0.40622
0
LINE
8
BLACK
6
CONTINUOUS
10
0.856851
20
0.40622
11
0.71937
21
0.40622
0
LINE
8
BLACK
6
CONTINUOUS
10
0.71937
20
0.40622
11
0.71937
21
0.180591
0
LINE
8
BLACK
6
CONTINUOUS
10
0.71937
20
0.180591
11
0.719249
21
0.179189
0
LINE
8
BLACK
6
CONTINUOUS
10
0.719249
20
0.179189
11
0.719261
21
0.178864
0
LINE
8
BLACK
6
CONTINUOUS
10
0.719261
20
0.178864
11
0.719204
21
0.178671
0
LINE
8
BLACK
6
CONTINUOUS
10
0.719204
20
0.178671
11
0.719165
21
0.178221
0
LINE
8
BLACK
6
CONTINUOUS
10
0.719165
20
0.178221
11
0.718522
21
0.176389
0
LINE
8
BLACK
6
CONTINUOUS
10
0.718522
20
0.176389
11
0.717965
21
0.174528
0
LINE
8
BLACK
6
CONTINUOUS
10
0.717965
20
0.174528
11
0.717774
21
0.174262
0
LINE
8
BLACK
6
CONTINUOUS
10
0.717774
20
0.174262
11
0.717666
21
0.173952
0
LINE
8
BLACK
6
CONTINUOUS
10
0.717666
20
0.173952
11
0.716463
21
0.172427
0
LINE
8
BLACK
6
CONTINUOUS
10
0.716463
20
0.172427
11
0.715334
21
0.170847
0
LINE
8
BLACK
6
CONTINUOUS
10
0.715334
20
0.170847
11
0.68
21
0.135513
0
LINE
8
BLACK
6
CONTINUOUS
10
0.68
20
0.135513
11
0.68
21
0.095
0
LINE
8
BLACK
6
CONTINUOUS
10
0.68
20
0.095
11
0.62
21
0.095
0
LINE
8
BLACK
6
CONTINUOUS
10
0.62
20
0.095
11
0.62
21
0.155
0
LINE
8
BLACK
6
CONTINUOUS
10
0.62
20
0.155
11
0.660513
21
0.155
0
LINE
8
BLACK
6
CONTINUOUS
10
0.660513
20
0.155
11
0.691811
21
0.186298
0
LINE
8
BLACK
6
CONTINUOUS
10
0.691811
20
0.186298
11
0.691811
21
0.555591
0
LINE
8
BLACK
6
CONTINUOUS
10
0.691811
20
0.555591
11
0.691932
21
0.556993
0
LINE
8
BLACK
6
CONTINUOUS
10
0.691932
20
0.556993
11
0.69192
21
0.557318
0
LINE
8
BLACK
6
CONTINUOUS
10
0.69192
20
0.557318
11
0.691977
21
0.55751
0
LINE
8
BLACK
6
CONTINUOUS
10
0.691977
20
0.55751
11
0.692016
21
0.55796
0
LINE
8
BLACK
6
CONTINUOUS
10
0.692016
20
0.55796
11
0.69266
21
0.559792
0
LINE
8
BLACK
6
CONTINUOUS
10
0.69266
20
0.559792
11
0.693216
21
0.561653
0
LINE
8
BLACK
6
CONTINUOUS
10
0.693216
20
0.561653
11
0.693407
21
0.56192
0
LINE
8
BLACK
6
CONTINUOUS
10
0.693407
20
0.56192
11
0.693516
21
0.562229
0
LINE
8
BLACK
6
CONTINUOUS
10
0.693516
20
0.562229
11
0.694718
21
0.563754
0
LINE
8
BLACK
6
CONTINUOUS
10
0.694718
20
0.563754
11
0.695847
21
0.565334
0
LINE
8
BLACK
6
CONTINUOUS
10
0.695847
20
0.565334
11
0.77622
21
0.645708
0
LINE
8
BLACK
6
CONTINUOUS
10
0.77622
20
0.645708
11
0.77622
21
0.771142
0
LINE
8
BLACK
6
CONTINUOUS
10
0.77622
20
0.771142
11
0.682943
21
0.771142
0
LINE
8
BLACK
6
CONTINUOUS
10
0.682943
20
0.771142
11
0.68274
21
0.770744
0
LINE
8
BLACK
6
CONTINUOUS
10
0.68274
20
0.770744
11
0.679256
21
0.76726
0
LINE
8
BLACK
6
CONTINUOUS
10
0.679256
20
0.76726
11
0.674866
21
0.765023
0
LINE
8
BLACK
6
CONTINUOUS
10
0.674866
20
0.765023
11
0.67
21
0.764252
0
LINE
8
BLACK
6
CONTINUOUS
10
0.67
20
0.764252
11
0.665134
21
0.765023
0
LINE
8
BLACK
6
CONTINUOUS
10
0.665134
20
0.765023
11
0.660744
21
0.76726
0
LINE
8
BLACK
6
CONTINUOUS
10
0.660744
20
0.76726
11
0.65726
21
0.770744
0
LINE
8
BLACK
6
CONTINUOUS
10
0.65726
20
0.770744
11
0.657057
21
0.771142
0
LINE
8
BLACK
6
CONTINUOUS
10
0.657057
20
0.771142
11
0.623669
21
0.771142
0
LINE
8
BLACK
6
CONTINUOUS
10
0.623669
20
0.771142
11
0.578631
21
0.726103
0
LINE
8
BLACK
6
CONTINUOUS
10
0.578631
20
0.726103
11
0.578894
21
0.725525
0
LINE
8
BLACK
6
CONTINUOUS
10
0.578894
20
0.725525
11
0.579685
21
0.72
0
LINE
8
BLACK
6
CONTINUOUS
10
0.579685
20
0.72
11
0.579679
21
0.719519
0
LINE
8
BLACK
6
CONTINUOUS
10
0.579679
20
0.719519
11
0.578753
21
0.714015
0
LINE
8
BLACK
6
CONTINUOUS
10
0.578753
20
0.714015
11
0.57632
21
0.708992
0
LINE
8
BLACK
6
CONTINUOUS
10
0.57632
20
0.708992
11
0.572574
21
0.704854
0
LINE
8
BLACK
6
CONTINUOUS
10
0.572574
20
0.704854
11
0.567818
21
0.701934
0
LINE
8
BLACK
6
CONTINUOUS
10
0.567818
20
0.701934
11
0.562433
21
0.700466
0
LINE
8
BLACK
6
CONTINUOUS
10
0.562433
20
0.700466
11
0.556853
21
0.700568
0
LINE
8
BLACK
6
CONTINUOUS
10
0.556853
20
0.700568
11
0.551525
21
0.702233
0
LINE
8
BLACK
6
CONTINUOUS
10
0.551525
20
0.702233
11
0.546879
21
0.705325
0
LINE
8
BLACK
6
CONTINUOUS
10
0.546879
20
0.705325
11
0.543288
21
0.709598
0
LINE
8
BLACK
6
CONTINUOUS
10
0.543288
20
0.709598
11
0.54104
21
0.714706
0
LINE
8
BLACK
6
CONTINUOUS
10
0.54104
20
0.714706
11
0.540316
21
0.720241
0
LINE
8
BLACK
6
CONTINUOUS
10
0.540316
20
0.720241
11
0.541175
21
0.725755
0
LINE
8
BLACK
6
CONTINUOUS
10
0.541175
20
0.725755
11
0.543547
21
0.730808
0
LINE
8
BLACK
6
CONTINUOUS
10
0.543547
20
0.730808
11
0.547242
21
0.734991
0
LINE
8
BLACK
6
CONTINUOUS
10
0.547242
20
0.734991
11
0.551962
21
0.737969
0
LINE
8
BLACK
6
CONTINUOUS
10
0.551962
20
0.737969
11
0.557328
21
0.739503
0
LINE
8
BLACK
6
CONTINUOUS
10
0.557328
20
0.739503
11
0.56291
21
0.739469
0
LINE
8
BLACK
6
CONTINUOUS
10
0.56291
20
0.739469
11
0.566013
21
0.738541
0
LINE
8
BLACK
6
CONTINUOUS
10
0.566013
20
0.738541
11
0.613736
21
0.786264
0
LINE
8
BLACK
6
CONTINUOUS
10
0.613736
20
0.786264
11
0.615175
21
0.787429
0
LINE
8
BLACK
6
CONTINUOUS
10
0.615175
20
0.787429
11
0.61583
21
0.78768
0
LINE
8
BLACK
6
CONTINUOUS
10
0.61583
20
0.78768
11
0.616397
21
0.788092
0
LINE
8
BLACK
6
CONTINUOUS
10
0.616397
20
0.788092
11
0.617532
21
0.788334
0
LINE
8
BLACK
6
CONTINUOUS
10
0.617532
20
0.788334
11
0.618614
21
0.788749
0
LINE
8
BLACK
6
CONTINUOUS
10
0.618614
20
0.788749
11
0.619314
21
0.788713
0
LINE
8
BLACK
6
CONTINUOUS
10
0.619314
20
0.788713
11
0.62
21
0.788858
0
LINE
8
BLACK
6
CONTINUOUS
10
0.62
20
0.788858
11
0.657057
21
0.788858
0
LINE
8
BLACK
6
CONTINUOUS
10
0.657057
20
0.788858
11
0.65726
21
0.789256
0
LINE
8
BLACK
6
CONTINUOUS
10
0.65726
20
0.789256
11
0.660744
21
0.79274
0
LINE
8
BLACK
6
CONTINUOUS
10
0.660744
20
0.79274
11
0.665134
21
0.794977
0
LINE
8
BLACK
6
CONTINUOUS
10
0.665134
20
0.794977
11
0.67
21
0.795748
0
LINE
8
BLACK
6
CONTINUOUS
10
0.67
20
0.795748
11
0.674866
21
0.794977
0
LINE
8
BLACK
6
CONTINUOUS
10
0.674866
20
0.794977
11
0.679256
21
0.79274
0
LINE
8
BLACK
6
CONTINUOUS
10
0.679256
20
0.79274
11
0.68274
21
0.789256
0
LINE
8
BLACK
6
CONTINUOUS
10
0.68274
20
0.789256
11
0.682943
21
0.788858
0
LINE
8
BLACK
6
CONTINUOUS
10
0.682943
20
0.788858
11
0.77622
21
0.788858
0
LINE
8
BLACK
6
CONTINUOUS
10
0.77622
20
0.788858
11
0.77622
21
0.987769
0
LINE
8
BLACK
6
CONTINUOUS
10
0.77622
20
0.987769
11
0.76
21
0.987769
0
LINE
8
BLACK
6
CONTINUOUS
10
0.76
20
0.987769
11
0.76
21
1.04777
0
LINE
8
BLACK
6
CONTINUOUS
10
0.76
20
1.04777
11
0.82
21
1.04777
0
LINE
8
BLACK
6
CONTINUOUS
10
0.82
20
1.04777
11
0.82
21
0.987769
0
LINE
8
BLACK
6
CONTINUOUS
10
0.82
20
0.987769
11
0.80378
21
0.987769
0
LINE
8
BLACK
6
CONTINUOUS
10
0.80378
20
0.987769
11
0.80378
21
0.64
0
LINE
8
BLACK
6
CONTINUOUS
10
0.80378
20
0.64
11
0.803658
21
0.638598
0
LINE
8
BLACK
6
CONTINUOUS
10
0.68
20
0.195
11
0.62
21
0.195
0
LINE
8
BLACK
6
CONTINUOUS
10
0.62
20
0.195
11
0.62
21
0.255
0
LINE
8
BLACK
6
CONTINUOUS
10
0.62
20
0.255
11
0.68
21
0.255
0
LINE
8
BLACK
6
CONTINUOUS
10
0.68
20
0.255
11
0.68
21
0.195
0
LINE
8
BLACK
6
CONTINUOUS
10
0.855748
20
0.48
11
0.854977
21
0.475134
0
LINE
8
BLACK
6
CONTINUOUS
10
0.854977
20
0.475134
11
0.85274
21
0.470744
0
LINE
8
BLACK
6
CONTINUOUS
10
0.85274
20
0.470744
11
0.849256
21
0.46726
0
LINE
8
BLACK
6
CONTINUOUS
10
0.849256
20
0.46726
11
0.844866
21
0.465023
0
LINE
8
BLACK
6
CONTINUOUS
10
0.844866
20
0.465023
11
0.84
21
0.464252
0
LINE
8
BLACK
6
CONTINUOUS
10
0.84
20
0.464252
11
0.835134
21
0.465023
0
LINE
8
BLACK
6
CONTINUOUS
10
0.835134
20
0.465023
11
0.830744
21
0.46726
0
LINE
8
BLACK
6
CONTINUOUS
10
0.830744
20
0.46726
11
0.82726
21
0.470744
0
LINE
8
BLACK
6
CONTINUOUS
10
0.82726
20
0.470744
11
0.825023
21
0.475134
0
LINE
8
BLACK
6
CONTINUOUS
10
0.825023
20
0.475134
11
0.824252
21
0.48
0
LINE
8
BLACK
6
CONTINUOUS
10
0.824252
20
0.48
11
0.825023
21
0.484866
0
LINE
8
BLACK
6
CONTINUOUS
10
0.825023
20
0.484866
11
0.82726
21
0.489256
0
LINE
8
BLACK
6
CONTINUOUS
10
0.82726
20
0.489256
11
0.830744
21
0.49274
0
LINE
8
BLACK
6
CONTINUOUS
10
0.830744
20
0.49274
11
0.835134
21
0.494977
0
LINE
8
BLACK
6
CONTINUOUS
10
0.835134
20
0.494977
11
0.84
21
0.495748
0
LINE
8
BLACK
6
CONTINUOUS
10
0.84
20
0.495748
11
0.84278
21
0.495308
0
LINE
8
BLACK
6
CONTINUOUS
10
0.84278
20
0.495308
11
1.01374
21
0.666264
0
LINE
8
BLACK
6
CONTINUOUS
10
1.01374
20
0.666264
11
1.01518
21
0.667429
0
LINE
8
BLACK
6
CONTINUOUS
10
1.01518
20
0.667429
11
1.01583
21
0.66768
0
LINE
8
BLACK
6
CONTINUOUS
10
1.01583
20
0.66768
11
1.0164
21
0.668092
0
LINE
8
BLACK
6
CONTINUOUS
10
1.0164
20
0.668092
11
1.01753
21
0.668334
0
LINE
8
BLACK
6
CONTINUOUS
10
1.01753
20
0.668334
11
1.01861
21
0.668749
0
LINE
8
BLACK
6
CONTINUOUS
10
1.01861
20
0.668749
11
1.01931
21
0.668713
0
LINE
8
BLACK
6
CONTINUOUS
10
1.01931
20
0.668713
11
1.02
21
0.668858
0
LINE
8
BLACK
6
CONTINUOUS
10
1.02
20
0.668858
11
1.27
21
0.668858
0
LINE
8
BLACK
6
CONTINUOUS
10
1.27
20
0.668858
11
1.27184
21
0.668665
0
LINE
8
BLACK
6
CONTINUOUS
10
1.27184
20
0.668665
11
1.27248
21
0.66838
0
LINE
8
BLACK
6
CONTINUOUS
10
1.27248
20
0.66838
11
1.27317
21
0.66827
0
LINE
8
BLACK
6
CONTINUOUS
10
1.27317
20
0.66827
11
1.27415
21
0.667638
0
LINE
8
BLACK
6
CONTINUOUS
10
1.27415
20
0.667638
11
1.27521
21
0.667166
0
LINE
8
BLACK
6
CONTINUOUS
10
1.27521
20
0.667166
11
1.27568
21
0.666646
0
LINE
8
BLACK
6
CONTINUOUS
10
1.27568
20
0.666646
11
1.27626
21
0.666264
0
LINE
8
BLACK
6
CONTINUOUS
10
1.27626
20
0.666264
11
1.31253
21
0.63
0
LINE
8
BLACK
6
CONTINUOUS
10
1.31253
20
0.63
11
1.37
21
0.63
0
LINE
8
BLACK
6
CONTINUOUS
10
1.37
20
0.63
11
1.37
21
0.57
0
LINE
8
BLACK
6
CONTINUOUS
10
1.37
20
0.57
11
1.31
21
0.57
0
LINE
8
BLACK
6
CONTINUOUS
10
1.31
20
0.57
11
1.31
21
0.607473
0
LINE
8
BLACK
6
CONTINUOUS
10
1.31
20
0.607473
11
1.26633
21
0.651142
0
LINE
8
BLACK
6
CONTINUOUS
10
1.26633
20
0.651142
11
1.02367
21
0.651142
0
LINE
8
BLACK
6
CONTINUOUS
10
1.02367
20
0.651142
11
0.855308
21
0.48278
0
LINE
8
BLACK
6
CONTINUOUS
10
0.855308
20
0.48278
11
0.855748
21
0.48
0
LINE
8
BLACK
6
CONTINUOUS
10
1.2
20
0.99
11
1.17886
21
0.99
0
LINE
8
BLACK
6
CONTINUOUS
10
1.17886
20
0.99
11
1.17886
21
0.86
0
LINE
8
BLACK
6
CONTINUOUS
10
1.17886
20
0.86
11
1.17866
21
0.858158
0
LINE
8
BLACK
6
CONTINUOUS
10
1.17866
20
0.858158
11
1.17838
21
0.857518
0
LINE
8
BLACK
6
CONTINUOUS
10
1.17838
20
0.857518
11
1.17827
21
0.856825
0
LINE
8
BLACK
6
CONTINUOUS
10
1.17827
20
0.856825
11
1.17764
21
0.855853
0
LINE
8
BLACK
6
CONTINUOUS
10
1.17764
20
0.855853
11
1.17717
21
0.854793
0
LINE
8
BLACK
6
CONTINUOUS
10
1.17717
20
0.854793
11
1.17665
21
0.854324
0
LINE
8
BLACK
6
CONTINUOUS
10
1.17665
20
0.854324
11
1.17626
21
0.853736
0
LINE
8
BLACK
6
CONTINUOUS
10
1.17626
20
0.853736
11
0.805308
21
0.48278
0
LINE
8
BLACK
6
CONTINUOUS
10
0.805308
20
0.48278
11
0.805748
21
0.48
0
LINE
8
BLACK
6
CONTINUOUS
10
0.805748
20
0.48
11
0.804977
21
0.475134
0
LINE
8
BLACK
6
CONTINUOUS
10
0.804977
20
0.475134
11
0.80274
21
0.470744
0
LINE
8
BLACK
6
CONTINUOUS
10
0.80274
20
0.470744
11
0.799256
21
0.46726
0
LINE
8
BLACK
6
CONTINUOUS
10
0.799256
20
0.46726
11
0.794866
21
0.465023
0
LINE
8
BLACK
6
CONTINUOUS
10
0.794866
20
0.465023
11
0.79
21
0.464252
0
LINE
8
BLACK
6
CONTINUOUS
10
0.79
20
0.464252
11
0.785134
21
0.465023
0
LINE
8
BLACK
6
CONTINUOUS
10
0.785134
20
0.465023
11
0.780744
21
0.46726
0
LINE
8
BLACK
6
CONTINUOUS
10
0.780744
20
0.46726
11
0.77726
21
0.470744
0
LINE
8
BLACK
6
CONTINUOUS
10
0.77726
20
0.470744
11
0.775023
21
0.475134
0
LINE
8
BLACK
6
CONTINUOUS
10
0.775023
20
0.475134
11
0.774252
21
0.48
0
LINE
8
BLACK
6
CONTINUOUS
10
0.774252
20
0.48
11
0.775023
21
0.484866
0
LINE
8
BLACK
6
CONTINUOUS
10
0.775023
20
0.484866
11
0.77726
21
0.489256
0
LINE
8
BLACK
6
CONTINUOUS
10
0.77726
20
0.489256
11
0.780744
21
0.49274
0
LINE
8
BLACK
6
CONTINUOUS
10
0.780744
20
0.49274
11
0.785134
21
0.494977
0
LINE
8
BLACK
6
CONTINUOUS
10
0.785134
20
0.494977
11
0.79
21
0.495748
0
LINE
8
BLACK
6
CONTINUOUS
10
0.79
20
0.495748
11
0.79278
21
0.495308
0
LINE
8
BLACK
6
CONTINUOUS
10
0.79278
20
0.495308
11
1.16114
21
0.863669
0
LINE
8
BLACK
6
CONTINUOUS
10
1.16114
20
0.863669
11
1.16114
21
0.99
0
LINE
8
BLACK
6
CONTINUOUS
10
1.16114
20
0.99
11
1.14
21
0.99
0
LINE
8
BLACK
6
CONTINUOUS
10
1.14
20
0.99
11
1.14
21
1.05
0
LINE
8
BLACK
6
CONTINUOUS
10
1.14
20
1.05
11
1.2
21
1.05
0
LINE
8
BLACK
6
CONTINUOUS
10
1.2
20
1.05
11
1.2
21
0.99
0
LINE
8
BLACK
6
CONTINUOUS
10
0.92
20
0.987769
11
0.898858
21
0.987769
0
LINE
8
BLACK
6
CONTINUOUS
10
0.898858
20
0.987769
11
0.898858
21
0.63
0
LINE
8
BLACK
6
CONTINUOUS
10
0.898858
20
0.63
11
0.898665
21
0.628158
0
LINE
8
BLACK
6
CONTINUOUS
10
0.898665
20
0.628158
11
0.89838
21
0.627518
0
LINE
8
BLACK
6
CONTINUOUS
10
0.89838
20
0.627518
11
0.89827
21
0.626825
0
LINE
8
BLACK
6
CONTINUOUS
10
0.89827
20
0.626825
11
0.897638
21
0.625853
0
LINE
8
BLACK
6
CONTINUOUS
10
0.897638
20
0.625853
11
0.897166
21
0.624793
0
LINE
8
BLACK
6
CONTINUOUS
10
0.897166
20
0.624793
11
0.896646
21
0.624324
0
LINE
8
BLACK
6
CONTINUOUS
10
0.896646
20
0.624324
11
0.896264
21
0.623736
0
LINE
8
BLACK
6
CONTINUOUS
10
0.896264
20
0.623736
11
0.826264
21
0.553736
0
LINE
8
BLACK
6
CONTINUOUS
10
0.826264
20
0.553736
11
0.824825
21
0.552571
0
LINE
8
BLACK
6
CONTINUOUS
10
0.824825
20
0.552571
11
0.824183
21
0.552324
0
LINE
8
BLACK
6
CONTINUOUS
10
0.824183
20
0.552324
11
0.777406
21
0.505547
0
LINE
8
BLACK
6
CONTINUOUS
10
0.777406
20
0.505547
11
0.775966
21
0.504382
0
LINE
8
BLACK
6
CONTINUOUS
10
0.775966
20
0.504382
11
0.775312
21
0.504131
0
LINE
8
BLACK
6
CONTINUOUS
10
0.775312
20
0.504131
11
0.774745
21
0.503719
0
LINE
8
BLACK
6
CONTINUOUS
10
0.774745
20
0.503719
11
0.77361
21
0.503477
0
LINE
8
BLACK
6
CONTINUOUS
10
0.77361
20
0.503477
11
0.772528
21
0.503062
0
LINE
8
BLACK
6
CONTINUOUS
10
0.772528
20
0.503062
11
0.771827
21
0.503098
0
LINE
8
BLACK
6
CONTINUOUS
10
0.771827
20
0.503098
11
0.771142
21
0.502953
0
LINE
8
BLACK
6
CONTINUOUS
10
0.771142
20
0.502953
11
0.76548
21
0.502953
0
LINE
8
BLACK
6
CONTINUOUS
10
0.76548
20
0.502953
11
0.765308
21
0.50278
0
LINE
8
BLACK
6
CONTINUOUS
10
0.765308
20
0.50278
11
0.765748
21
0.5
0
LINE
8
BLACK
6
CONTINUOUS
10
0.765748
20
0.5
11
0.764977
21
0.495134
0
LINE
8
BLACK
6
CONTINUOUS
10
0.764977
20
0.495134
11
0.76274
21
0.490744
0
LINE
8
BLACK
6
CONTINUOUS
10
0.76274
20
0.490744
11
0.759256
21
0.48726
0
LINE
8
BLACK
6
CONTINUOUS
10
0.759256
20
0.48726
11
0.754866
21
0.485023
0
LINE
8
BLACK
6
CONTINUOUS
10
0.754866
20
0.485023
11
0.75
21
0.484252
0
LINE
8
BLACK
6
CONTINUOUS
10
0.75
20
0.484252
11
0.745134
21
0.485023
0
LINE
8
BLACK
6
CONTINUOUS
10
0.745134
20
0.485023
11
0.740744
21
0.48726
0
LINE
8
BLACK
6
CONTINUOUS
10
0.740744
20
0.48726
11
0.73726
21
0.490744
0
LINE
8
BLACK
6
CONTINUOUS
10
0.73726
20
0.490744
11
0.735023
21
0.495134
0
LINE
8
BLACK
6
CONTINUOUS
10
0.735023
20
0.495134
11
0.734252
21
0.5
0
LINE
8
BLACK
6
CONTINUOUS
10
0.734252
20
0.5
11
0.735023
21
0.504866
0
LINE
8
BLACK
6
CONTINUOUS
10
0.735023
20
0.504866
11
0.73726
21
0.509256
0
LINE
8
BLACK
6
CONTINUOUS
10
0.73726
20
0.509256
11
0.740744
21
0.51274
0
LINE
8
BLACK
6
CONTINUOUS
10
0.740744
20
0.51274
11
0.745134
21
0.514977
0
LINE
8
BLACK
6
CONTINUOUS
10
0.745134
20
0.514977
11
0.75
21
0.515748
0
LINE
8
BLACK
6
CONTINUOUS
10
0.75
20
0.515748
11
0.75278
21
0.515308
0
LINE
8
BLACK
6
CONTINUOUS
10
0.75278
20
0.515308
11
0.755547
21
0.518075
0
LINE
8
BLACK
6
CONTINUOUS
10
0.755547
20
0.518075
11
0.756986
21
0.51924
0
LINE
8
BLACK
6
CONTINUOUS
10
0.756986
20
0.51924
11
0.757641
21
0.519491
0
LINE
8
BLACK
6
CONTINUOUS
10
0.757641
20
0.519491
11
0.758208
21
0.519903
0
LINE
8
BLACK
6
CONTINUOUS
10
0.758208
20
0.519903
11
0.759343
21
0.520145
0
LINE
8
BLACK
6
CONTINUOUS
10
0.759343
20
0.520145
11
0.760425
21
0.52056
0
LINE
8
BLACK
6
CONTINUOUS
10
0.760425
20
0.52056
11
0.761125
21
0.520524
0
LINE
8
BLACK
6
CONTINUOUS
10
0.761125
20
0.520524
11
0.761811
21
0.520669
0
LINE
8
BLACK
6
CONTINUOUS
10
0.761811
20
0.520669
11
0.767473
21
0.520669
0
LINE
8
BLACK
6
CONTINUOUS
10
0.767473
20
0.520669
11
0.813067
21
0.566264
0
LINE
8
BLACK
6
CONTINUOUS
10
0.813067
20
0.566264
11
0.814506
21
0.567429
0
LINE
8
BLACK
6
CONTINUOUS
10
0.814506
20
0.567429
11
0.815148
21
0.567676
0
LINE
8
BLACK
6
CONTINUOUS
10
0.815148
20
0.567676
11
0.881142
21
0.633669
0
LINE
8
BLACK
6
CONTINUOUS
10
0.881142
20
0.633669
11
0.881142
21
0.987769
0
LINE
8
BLACK
6
CONTINUOUS
10
0.881142
20
0.987769
11
0.86
21
0.987769
0
LINE
8
BLACK
6
CONTINUOUS
10
0.86
20
0.987769
11
0.86
21
1.04777
0
LINE
8
BLACK
6
CONTINUOUS
10
0.86
20
1.04777
11
0.92
21
1.04777
0
LINE
8
BLACK
6
CONTINUOUS
10
0.92
20
1.04777
11
0.92
21
0.987769
0
LINE
8
BLACK
6
CONTINUOUS
10
1.47
20
0.57
11
1.41
21
0.57
0
LINE
8
BLACK
6
CONTINUOUS
10
1.41
20
0.57
11
1.41
21
0.63
0
LINE
8
BLACK
6
CONTINUOUS
10
1.41
20
0.63
11
1.47
21
0.63
0
LINE
8
BLACK
6
CONTINUOUS
10
1.47
20
0.63
11
1.47
21
0.57
0
LINE
8
BLACK
6
CONTINUOUS
10
0.854866
20
0.854977
11
0.859256
21
0.85274
0
LINE
8
BLACK
6
CONTINUOUS
10
0.859256
20
0.85274
11
0.86274
21
0.849256
0
LINE
8
BLACK
6
CONTINUOUS
10
0.86274
20
0.849256
11
0.864977
21
0.844866
0
LINE
8
BLACK
6
CONTINUOUS
10
0.864977
20
0.844866
11
0.865748
21
0.84
0
LINE
8
BLACK
6
CONTINUOUS
10
0.865748
20
0.84
11
0.864977
21
0.835134
0
LINE
8
BLACK
6
CONTINUOUS
10
0.864977
20
0.835134
11
0.86274
21
0.830744
0
LINE
8
BLACK
6
CONTINUOUS
10
0.86274
20
0.830744
11
0.859256
21
0.82726
0
LINE
8
BLACK
6
CONTINUOUS
10
0.859256
20
0.82726
11
0.858858
21
0.827057
0
LINE
8
BLACK
6
CONTINUOUS
10
0.858858
20
0.827057
11
0.858858
21
0.63
0
LINE
8
BLACK
6
CONTINUOUS
10
0.858858
20
0.63
11
0.858665
21
0.628158
0
LINE
8
BLACK
6
CONTINUOUS
10
0.858665
20
0.628158
11
0.858312
21
0.627366
0
LINE
8
BLACK
6
CONTINUOUS
10
0.858312
20
0.627366
11
0.858144
21
0.626515
0
LINE
8
BLACK
6
CONTINUOUS
10
0.858144
20
0.626515
11
0.857571
21
0.625702
0
LINE
8
BLACK
6
CONTINUOUS
10
0.857571
20
0.625702
11
0.857166
21
0.624793
0
LINE
8
BLACK
6
CONTINUOUS
10
0.857166
20
0.624793
11
0.856522
21
0.624213
0
LINE
8
BLACK
6
CONTINUOUS
10
0.856522
20
0.624213
11
0.856022
21
0.623504
0
LINE
8
BLACK
6
CONTINUOUS
10
0.856022
20
0.623504
11
0.82225
21
0.592197
0
LINE
8
BLACK
6
CONTINUOUS
10
0.82225
20
0.592197
11
0.822598
21
0.59
0
LINE
8
BLACK
6
CONTINUOUS
10
0.822598
20
0.59
11
0.821827
21
0.585134
0
LINE
8
BLACK
6
CONTINUOUS
10
0.821827
20
0.585134
11
0.81959
21
0.580744
0
LINE
8
BLACK
6
CONTINUOUS
10
0.81959
20
0.580744
11
0.816106
21
0.57726
0
LINE
8
BLACK
6
CONTINUOUS
10
0.816106
20
0.57726
11
0.811716
21
0.575023
0
LINE
8
BLACK
6
CONTINUOUS
10
0.811716
20
0.575023
11
0.80685
21
0.574252
0
LINE
8
BLACK
6
CONTINUOUS
10
0.80685
20
0.574252
11
0.801983
21
0.575023
0
LINE
8
BLACK
6
CONTINUOUS
10
0.801983
20
0.575023
11
0.797593
21
0.57726
0
LINE
8
BLACK
6
CONTINUOUS
10
0.797593
20
0.57726
11
0.794109
21
0.580744
0
LINE
8
BLACK
6
CONTINUOUS
10
0.794109
20
0.580744
11
0.791872
21
0.585134
0
LINE
8
BLACK
6
CONTINUOUS
10
0.791872
20
0.585134
11
0.791102
21
0.59
0
LINE
8
BLACK
6
CONTINUOUS
10
0.791102
20
0.59
11
0.791872
21
0.594866
0
LINE
8
BLACK
6
CONTINUOUS
10
0.791872
20
0.594866
11
0.794109
21
0.599256
0
LINE
8
BLACK
6
CONTINUOUS
10
0.794109
20
0.599256
11
0.797593
21
0.60274
0
LINE
8
BLACK
6
CONTINUOUS
10
0.797593
20
0.60274
11
0.801983
21
0.604977
0
LINE
8
BLACK
6
CONTINUOUS
10
0.801983
20
0.604977
11
0.80685
21
0.605748
0
LINE
8
BLACK
6
CONTINUOUS
10
0.80685
20
0.605748
11
0.81023
21
0.605213
0
LINE
8
BLACK
6
CONTINUOUS
10
0.81023
20
0.605213
11
0.841142
21
0.633867
0
LINE
8
BLACK
6
CONTINUOUS
10
0.841142
20
0.633867
11
0.841142
21
0.827057
0
LINE
8
BLACK
6
CONTINUOUS
10
0.841142
20
0.827057
11
0.840744
21
0.82726
0
LINE
8
BLACK
6
CONTINUOUS
10
0.840744
20
0.82726
11
0.83726
21
0.830744
0
LINE
8
BLACK
6
CONTINUOUS
10
0.83726
20
0.830744
11
0.835023
21
0.835134
0
LINE
8
BLACK
6
CONTINUOUS
10
0.835023
20
0.835134
11
0.834252
21
0.84
0
LINE
8
BLACK
6
CONTINUOUS
10
0.834252
20
0.84
11
0.835023
21
0.844866
0
LINE
8
BLACK
6
CONTINUOUS
10
0.835023
20
0.844866
11
0.83726
21
0.849256
0
LINE
8
BLACK
6
CONTINUOUS
10
0.83726
20
0.849256
11
0.840744
21
0.85274
0
LINE
8
BLACK
6
CONTINUOUS
10
0.840744
20
0.85274
11
0.845134
21
0.854977
0
LINE
8
BLACK
6
CONTINUOUS
10
0.845134
20
0.854977
11
0.85
21
0.855748
0
LINE
8
BLACK
6
CONTINUOUS
10
0.85
20
0.855748
11
0.854866
21
0.854977
0
LINE
8
BLACK
6
CONTINUOUS
10
1.1199
20
1.16667
11
1.12152
21
1.16558
0
LINE
8
BLACK
6
CONTINUOUS
10
1.12152
20
1.16558
11
1.1226
21
1.16396
0
LINE
8
BLACK
6
CONTINUOUS
10
1.1226
20
1.16396
11
1.12298
21
1.16205
0
LINE
8
BLACK
6
CONTINUOUS
10
1.12298
20
1.16205
11
1.1226
21
1.16013
0
LINE
8
BLACK
6
CONTINUOUS
10
1.1226
20
1.16013
11
1.12214
21
1.15927
0
LINE
8
BLACK
6
CONTINUOUS
10
1.12214
20
1.15927
11
1.12116
21
1.1578
0
LINE
8
BLACK
6
CONTINUOUS
10
1.12116
20
1.1578
11
1.11951
21
1.14951
0
LINE
8
BLACK
6
CONTINUOUS
10
1.11951
20
1.14951
11
1.11951
21
1.09049
0
LINE
8
BLACK
6
CONTINUOUS
10
1.11951
20
1.09049
11
1.12116
21
1.0822
0
LINE
8
BLACK
6
CONTINUOUS
10
1.12116
20
1.0822
11
1.12558
21
1.07558
0
LINE
8
BLACK
6
CONTINUOUS
10
1.12558
20
1.07558
11
1.12771
21
1.07416
0
LINE
8
BLACK
6
CONTINUOUS
10
1.12771
20
1.07416
11
1.12909
21
1.07278
0
LINE
8
BLACK
6
CONTINUOUS
10
1.12909
20
1.07278
11
1.12984
21
1.07098
0
LINE
8
BLACK
6
CONTINUOUS
10
1.12984
20
1.07098
11
1.12984
21
1.06902
0
LINE
8
BLACK
6
CONTINUOUS
10
1.12984
20
1.06902
11
1.12909
21
1.06722
0
LINE
8
BLACK
6
CONTINUOUS
10
1.12909
20
1.06722
11
1.12771
21
1.06584
0
LINE
8
BLACK
6
CONTINUOUS
10
1.12771
20
1.06584
11
1.12558
21
1.06442
0
LINE
8
BLACK
6
CONTINUOUS
10
1.12558
20
1.06442
11
1.12116
21
1.0578
0
LINE
8
BLACK
6
CONTINUOUS
10
1.12116
20
1.0578
11
1.11951
21
1.04951
0
LINE
8
BLACK
6
CONTINUOUS
10
1.11951
20
1.04951
11
1.11951
21
0.990492
0
LINE
8
BLACK
6
CONTINUOUS
10
1.11951
20
0.990492
11
1.12116
21
0.982196
0
LINE
8
BLACK
6
CONTINUOUS
10
1.12116
20
0.982196
11
1.12558
21
0.975581
0
LINE
8
BLACK
6
CONTINUOUS
10
1.12558
20
0.975581
11
1.1322
21
0.97116
0
LINE
8
BLACK
6
CONTINUOUS
10
1.1322
20
0.97116
11
1.13712
21
0.970182
0
LINE
8
BLACK
6
CONTINUOUS
10
1.13712
20
0.970182
11
1.13892
21
0.969435
0
LINE
8
BLACK
6
CONTINUOUS
10
1.13892
20
0.969435
11
1.1403
21
0.968056
0
LINE
8
BLACK
6
CONTINUOUS
10
1.1403
20
0.968056
11
1.14105
21
0.966253
0
LINE
8
BLACK
6
CONTINUOUS
10
1.14105
20
0.966253
11
1.14114
21
0.965278
0
LINE
8
BLACK
6
CONTINUOUS
10
1.14114
20
0.965278
11
1.14114
21
0.874025
0
LINE
8
BLACK
6
CONTINUOUS
10
1.14114
20
0.874025
11
1.14076
21
0.872111
0
LINE
8
BLACK
6
CONTINUOUS
10
1.14076
20
0.872111
11
1.13968
21
0.870489
0
LINE
8
BLACK
6
CONTINUOUS
10
1.13968
20
0.870489
11
0.927394
21
0.658206
0
LINE
8
BLACK
6
CONTINUOUS
10
0.927394
20
0.658206
11
0.925772
21
0.657122
0
LINE
8
BLACK
6
CONTINUOUS
10
0.925772
20
0.657122
11
0.923858
21
0.656741
0
LINE
8
BLACK
6
CONTINUOUS
10
0.923858
20
0.656741
11
0.921945
21
0.657122
0
LINE
8
BLACK
6
CONTINUOUS
10
0.921945
20
0.657122
11
0.920323
21
0.658206
0
LINE
8
BLACK
6
CONTINUOUS
10
0.920323
20
0.658206
11
0.919239
21
0.659828
0
LINE
8
BLACK
6
CONTINUOUS
10
0.919239
20
0.659828
11
0.918858
21
0.661741
0
LINE
8
BLACK
6
CONTINUOUS
10
0.918858
20
0.661741
11
0.918858
21
0.963046
0
LINE
8
BLACK
6
CONTINUOUS
10
0.918858
20
0.963046
11
0.919239
21
0.96496
0
LINE
8
BLACK
6
CONTINUOUS
10
0.919239
20
0.96496
11
0.920323
21
0.966582
0
LINE
8
BLACK
6
CONTINUOUS
10
0.920323
20
0.966582
11
0.921945
21
0.967666
0
LINE
8
BLACK
6
CONTINUOUS
10
0.921945
20
0.967666
11
0.922883
21
0.96795
0
LINE
8
BLACK
6
CONTINUOUS
10
0.922883
20
0.96795
11
0.927804
21
0.968929
0
LINE
8
BLACK
6
CONTINUOUS
10
0.927804
20
0.968929
11
0.934419
21
0.97335
0
LINE
8
BLACK
6
CONTINUOUS
10
0.934419
20
0.97335
11
0.935727
21
0.975307
0
LINE
8
BLACK
6
CONTINUOUS
10
0.935727
20
0.975307
11
0.937106
21
0.976686
0
LINE
8
BLACK
6
CONTINUOUS
10
0.937106
20
0.976686
11
0.938909
21
0.977433
0
LINE
8
BLACK
6
CONTINUOUS
10
0.938909
20
0.977433
11
0.94086
21
0.977433
0
LINE
8
BLACK
6
CONTINUOUS
10
0.94086
20
0.977433
11
0.942662
21
0.976686
0
LINE
8
BLACK
6
CONTINUOUS
10
0.942662
20
0.976686
11
0.94342
21
0.976065
0
LINE
8
BLACK
6
CONTINUOUS
10
0.94342
20
0.976065
11
0.948671
21
0.970814
0
LINE
8
BLACK
6
CONTINUOUS
10
0.948671
20
0.970814
11
0.956022
21
0.967769
0
LINE
8
BLACK
6
CONTINUOUS
10
0.956022
20
0.967769
11
0.97622
21
0.967769
0
LINE
8
BLACK
6
CONTINUOUS
10
0.97622
20
0.967769
11
0.97622
21
0.987769
0
LINE
8
BLACK
6
CONTINUOUS
10
0.97622
20
0.987769
11
0.96
21
0.987769
0
LINE
8
BLACK
6
CONTINUOUS
10
0.96
20
0.987769
11
0.96
21
1.04777
0
LINE
8
BLACK
6
CONTINUOUS
10
0.96
20
1.04777
11
0.98
21
1.04777
0
LINE
8
BLACK
6
CONTINUOUS
10
0.98
20
1.04777
11
0.98
21
1.06455
0
LINE
8
BLACK
6
CONTINUOUS
10
0.98
20
1.06455
11
0.979131
21
1.06586
0
LINE
8
BLACK
6
CONTINUOUS
10
0.979131
20
1.06586
11
0.97875
21
1.06777
0
LINE
8
BLACK
6
CONTINUOUS
10
0.97875
20
1.06777
11
0.979131
21
1.06968
0
LINE
8
BLACK
6
CONTINUOUS
10
0.979131
20
1.06968
11
0.98
21
1.07098
0
LINE
8
BLACK
6
CONTINUOUS
10
0.98
20
1.07098
11
0.98
21
1.08777
0
LINE
8
BLACK
6
CONTINUOUS
10
0.98
20
1.08777
11
0.96
21
1.08777
0
LINE
8
BLACK
6
CONTINUOUS
10
0.96
20
1.08777
11
0.96
21
1.14777
0
LINE
8
BLACK
6
CONTINUOUS
10
0.96
20
1.14777
11
1.02
21
1.14777
0
LINE
8
BLACK
6
CONTINUOUS
10
1.02
20
1.14777
11
1.02
21
1.12777
0
LINE
8
BLACK
6
CONTINUOUS
10
1.02
20
1.12777
11
1.03668
21
1.12777
0
LINE
8
BLACK
6
CONTINUOUS
10
1.03668
20
1.12777
11
1.04
21
1.13109
0
LINE
8
BLACK
6
CONTINUOUS
10
1.04
20
1.13109
11
1.04
21
1.15175
0
LINE
8
BLACK
6
CONTINUOUS
10
1.04
20
1.15175
11
1.03664
21
1.15986
0
LINE
8
BLACK
6
CONTINUOUS
10
1.03664
20
1.15986
11
1.03646
21
1.16013
0
LINE
8
BLACK
6
CONTINUOUS
10
1.03646
20
1.16013
11
1.03608
21
1.16205
0
LINE
8
BLACK
6
CONTINUOUS
10
1.03608
20
1.16205
11
1.03646
21
1.16396
0
LINE
8
BLACK
6
CONTINUOUS
10
1.03646
20
1.16396
11
1.03754
21
1.16558
0
LINE
8
BLACK
6
CONTINUOUS
10
1.03754
20
1.16558
11
1.03916
21
1.16667
0
LINE
8
BLACK
6
CONTINUOUS
10
1.03916
20
1.16667
11
1.04108
21
1.16705
0
LINE
8
BLACK
6
CONTINUOUS
10
1.04108
20
1.16705
11
1.11798
21
1.16705
0
LINE
8
BLACK
6
CONTINUOUS
10
1.11798
20
1.16705
11
1.1199
21
1.16667
0
LINE
8
BLACK
6
CONTINUOUS
10
1.02
20
1.00777
11
1.02
21
0.987769
0
LINE
8
BLACK
6
CONTINUOUS
10
1.02
20
0.987769
11
1.00378
21
0.987769
0
LINE
8
BLACK
6
CONTINUOUS
10
1.00378
20
0.987769
11
1.00378
21
0.967769
0
LINE
8
BLACK
6
CONTINUOUS
10
1.00378
20
0.967769
11
1.02398
21
0.967769
0
LINE
8
BLACK
6
CONTINUOUS
10
1.02398
20
0.967769
11
1.03133
21
0.970814
0
LINE
8
BLACK
6
CONTINUOUS
10
1.03133
20
0.970814
11
1.03696
21
0.97644
0
LINE
8
BLACK
6
CONTINUOUS
10
1.03696
20
0.97644
11
1.04
21
0.983791
0
LINE
8
BLACK
6
CONTINUOUS
10
1.04
20
0.983791
11
1.04
21
1.00445
0
LINE
8
BLACK
6
CONTINUOUS
10
1.04
20
1.00445
11
1.03668
21
1.00777
0
LINE
8
BLACK
6
CONTINUOUS
10
1.03668
20
1.00777
11
1.02
21
1.00777
0
LINE
8
BLACK
6
CONTINUOUS
10
1.02
20
1.10777
11
1.02
21
1.08777
0
LINE
8
BLACK
6
CONTINUOUS
10
1.02
20
1.08777
11
1
21
1.08777
0
LINE
8
BLACK
6
CONTINUOUS
10
1
20
1.08777
11
1
21
1.07098
0
LINE
8
BLACK
6
CONTINUOUS
10
1
20
1.07098
11
1.00087
21
1.06968
0
LINE
8
BLACK
6
CONTINUOUS
10
1.00087
20
1.06968
11
1.00125
21
1.06777
0
LINE
8
BLACK
6
CONTINUOUS
10
1.00125
20
1.06777
11
1.00087
21
1.06586
0
LINE
8
BLACK
6
CONTINUOUS
10
1.00087
20
1.06586
11
1
21
1.06455
0
LINE
8
BLACK
6
CONTINUOUS
10
1
20
1.06455
11
1
21
1.04777
0
LINE
8
BLACK
6
CONTINUOUS
10
1
20
1.04777
11
1.02
21
1.04777
0
LINE
8
BLACK
6
CONTINUOUS
10
1.02
20
1.04777
11
1.02
21
1.02777
0
LINE
8
BLACK
6
CONTINUOUS
10
1.02
20
1.02777
11
1.03668
21
1.02777
0
LINE
8
BLACK
6
CONTINUOUS
10
1.03668
20
1.02777
11
1.04
21
1.03109
0
LINE
8
BLACK
6
CONTINUOUS
10
1.04
20
1.03109
11
1.04
21
1.05175
0
LINE
8
BLACK
6
CONTINUOUS
10
1.04
20
1.05175
11
1.03696
21
1.0591
0
LINE
8
BLACK
6
CONTINUOUS
10
1.03696
20
1.0591
11
1.03182
21
1.06423
0
LINE
8
BLACK
6
CONTINUOUS
10
1.03182
20
1.06423
11
1.03074
21
1.06586
0
LINE
8
BLACK
6
CONTINUOUS
10
1.03074
20
1.06586
11
1.03036
21
1.06777
0
LINE
8
BLACK
6
CONTINUOUS
10
1.03036
20
1.06777
11
1.03074
21
1.06968
0
LINE
8
BLACK
6
CONTINUOUS
10
1.03074
20
1.06968
11
1.03182
21
1.0713
0
LINE
8
BLACK
6
CONTINUOUS
10
1.03182
20
1.0713
11
1.03696
21
1.07644
0
LINE
8
BLACK
6
CONTINUOUS
10
1.03696
20
1.07644
11
1.04
21
1.08379
0
LINE
8
BLACK
6
CONTINUOUS
10
1.04
20
1.08379
11
1.04
21
1.10445
0
LINE
8
BLACK
6
CONTINUOUS
10
1.04
20
1.10445
11
1.03668
21
1.10777
0
LINE
8
BLACK
6
CONTINUOUS
10
1.03668
20
1.10777
11
1.02
21
1.10777
0
LINE
8
BLACK
6
CONTINUOUS
10
1.47
20
0.67
11
1.41
21
0.67
0
LINE
8
BLACK
6
CONTINUOUS
10
1.41
20
0.67
11
1.41
21
0.73
0
LINE
8
BLACK
6
CONTINUOUS
10
1.41
20
0.73
11
1.47
21
0.73
0
LINE
8
BLACK
6
CONTINUOUS
10
1.47
20
0.73
11
1.47
21
0.67
0
LINE
8
BLACK
6
CONTINUOUS
10
1.37
20
0.67
11
1.31
21
0.67
0
LINE
8
BLACK
6
CONTINUOUS
10
1.31
20
0.67
11
1.31
21
0.691142
0
LINE
8
BLACK
6
CONTINUOUS
10
1.31
20
0.691142
11
1.09294
21
0.691142
0
LINE
8
BLACK
6
CONTINUOUS
10
1.09294
20
0.691142
11
1.09274
21
0.690744
0
LINE
8
BLACK
6
CONTINUOUS
10
1.09274
20
0.690744
11
1.08926
21
0.68726
0
LINE
8
BLACK
6
CONTINUOUS
10
1.08926
20
0.68726
11
1.08487
21
0.685023
0
LINE
8
BLACK
6
CONTINUOUS
10
1.08487
20
0.685023
11
1.08
21
0.684252
0
LINE
8
BLACK
6
CONTINUOUS
10
1.08
20
0.684252
11
1.07513
21
0.685023
0
LINE
8
BLACK
6
CONTINUOUS
10
1.07513
20
0.685023
11
1.07074
21
0.68726
0
LINE
8
BLACK
6
CONTINUOUS
10
1.07074
20
0.68726
11
1.06726
21
0.690744
0
LINE
8
BLACK
6
CONTINUOUS
10
1.06726
20
0.690744
11
1.06502
21
0.695134
0
LINE
8
BLACK
6
CONTINUOUS
10
1.06502
20
0.695134
11
1.06425
21
0.7
0
LINE
8
BLACK
6
CONTINUOUS
10
1.06425
20
0.7
11
1.06502
21
0.704866
0
LINE
8
BLACK
6
CONTINUOUS
10
1.06502
20
0.704866
11
1.06726
21
0.709256
0
LINE
8
BLACK
6
CONTINUOUS
10
1.06726
20
0.709256
11
1.07074
21
0.71274
0
LINE
8
BLACK
6
CONTINUOUS
10
1.07074
20
0.71274
11
1.07513
21
0.714977
0
LINE
8
BLACK
6
CONTINUOUS
10
1.07513
20
0.714977
11
1.08
21
0.715748
0
LINE
8
BLACK
6
CONTINUOUS
10
1.08
20
0.715748
11
1.08487
21
0.714977
0
LINE
8
BLACK
6
CONTINUOUS
10
1.08487
20
0.714977
11
1.08926
21
0.71274
0
LINE
8
BLACK
6
CONTINUOUS
10
1.08926
20
0.71274
11
1.09274
21
0.709256
0
LINE
8
BLACK
6
CONTINUOUS
10
1.09274
20
0.709256
11
1.09294
21
0.708858
0
LINE
8
BLACK
6
CONTINUOUS
10
1.09294
20
0.708858
11
1.31
21
0.708858
0
LINE
8
BLACK
6
CONTINUOUS
10
1.31
20
0.708858
11
1.31
21
0.73
0
LINE
8
BLACK
6
CONTINUOUS
10
1.31
20
0.73
11
1.37
21
0.73
0
LINE
8
BLACK
6
CONTINUOUS
10
1.37
20
0.73
11
1.37
21
0.67
0
LINE
8
BLACK
6
CONTINUOUS
10
0.72
20
0.987769
11
0.66
21
0.987769
0
LINE
8
BLACK
6
CONTINUOUS
10
0.66
20
0.987769
11
0.66
21
1.04777
0
LINE
8
BLACK
6
CONTINUOUS
10
0.66
20
1.04777
11
0.72
21
1.04777
0
LINE
8
BLACK
6
CONTINUOUS
10
0.72
20
1.04777
11
0.72
21
0.987769
0
LINE
8
BLACK
6
CONTINUOUS
10
0.92
20
1.08777
11
0.86
21
1.08777
0
LINE
8
BLACK
6
CONTINUOUS
10
0.86
20
1.08777
11
0.86
21
1.14777
0
LINE
8
BLACK
6
CONTINUOUS
10
0.86
20
1.14777
11
0.92
21
1.14777
0
LINE
8
BLACK
6
CONTINUOUS
10
0.92
20
1.14777
11
0.92
21
1.08777
0
LINE
8
BLACK
6
CONTINUOUS
10
0.82
20
1.08777
11
0.76
21
1.08777
0
LINE
8
BLACK
6
CONTINUOUS
10
0.76
20
1.08777
11
0.76
21
1.14777
0
LINE
8
BLACK
6
CONTINUOUS
10
0.76
20
1.14777
11
0.82
21
1.14777
0
LINE
8
BLACK
6
CONTINUOUS
10
0.82
20
1.14777
11
0.82
21
1.08777
0
LINE
8
BLACK
6
CONTINUOUS
10
0.72
20
1.08777
11
0.66
21
1.08777
0
LINE
8
BLACK
6
CONTINUOUS
10
0.66
20
1.08777
11
0.66
21
1.14777
0
LINE
8
BLACK
6
CONTINUOUS
10
0.66
20
1.14777
11
0.72
21
1.14777
0
LINE
8
BLACK
6
CONTINUOUS
10
0.72
20
1.14777
11
0.72
21
1.08777
0
LINE
8
BLACK
6
CONTINUOUS
10
1.2
20
1.09
11
1.14
21
1.09
0
LINE
8
BLACK
6
CONTINUOUS
10
1.14
20
1.09
11
1.14
21
1.15
0
LINE
8
BLACK
6
CONTINUOUS
10
1.14
20
1.15
11
1.2
21
1.15
0
LINE
8
BLACK
6
CONTINUOUS
10
1.2
20
1.15
11
1.2
21
1.09
0
CIRCLE
8
BLACK
10
0.41
20
0.06
40
0.011811
0
CIRCLE
8
BLACK
10
0.73
20
0.06
40
0.011811
0
CIRCLE
8
BLACK
10
0.41
20
0.16
40
0.011811
0
CIRCLE
8
BLACK
10
0.96
20
0.81
40
0.011811
0
CIRCLE
8
BLACK
10
0.68
20
0.65
40
0.011811
0
CIRCLE
8
BLACK
10
0.44
20
0.86
40
0.011811
0
CIRCLE
8
BLACK
10
0.5
20
0.7
40
0.011811
0
CIRCLE
8
BLACK
10
1.31
20
0.45
40
0.011811
0
CIRCLE
8
BLACK
10
1.36
20
0.8
40
0.011811
0
CIRCLE
8
BLACK
10
1.43
20
0.8
40
0.011811
0
CIRCLE
8
BLACK
10
1.11
20
0.54
40
0.011811
0
CIRCLE
8
BLACK
10
0.42
20
0.97
40
0.011811
0
CIRCLE
8
BLACK
10
0.667826
20
0.849082
40
0.011811
0
CIRCLE
8
BLACK
10
0.73
20
0.11
40
0.011811
0
CIRCLE
8
BLACK
10
0.42
20
1.12
40
0.011811
0
CIRCLE
8
BLACK
10
0.65
20
0.62
40
0.011811
0
CIRCLE
8
BLACK
10
1.02
20
0.93
40
0.011811
0
CIRCLE
8
BLACK
10
1.21
20
0.29
40
0.011811
0
CIRCLE
8
BLACK
10
0.505
20
0.555
40
0.011811
0
CIRCLE
8
BLACK
10
0.45
20
0.78
40
0.011811
0
CIRCLE
8
BLACK
10
0.42
20
1.05
40
0.011811
0
CIRCLE
8
BLACK
10
0.5
20
1.12
40
0.011811
0
CIRCLE
8
BLACK
10
0.47
20
0.91
40
0.011811
0
CIRCLE
8
BLACK
10
0.62
20
0.65
40
0.011811
0
CIRCLE
8
BLACK
10
1.11
20
0.34
40
0.011811
0
CIRCLE
8
BLACK
10
0.62
20
0.5925
40
0.011811
0
CIRCLE
8
BLACK
10
0.56
20
0.72
40
0.011811
0
CIRCLE
8
BLACK
10
0.67
20
0.78
40
0.00787402
0
CIRCLE
8
BLACK
10
0.85
20
0.84
40
0.00787402
0
CIRCLE
8
BLACK
10
0.80685
20
0.59
40
0.00787402
0
CIRCLE
8
BLACK
10
1.08
20
0.7
40
0.00787402
0
CIRCLE
8
BLACK
10
0.79
20
0.48
40
0.00787402
0
CIRCLE
8
BLACK
10
0.84
20
0.48
40
0.00787402
0
CIRCLE
8
BLACK
10
0.75
20
0.5
40
0.00787402
  0
ENDSEC
  0
EOF
