  0
SECTION
  2
HEADER
  9
$ANGBASE
  50
0.0
  9
$ANGDIR
  70
1
  9
$MEASUREMENT
  70
0
  0
ENDSEC
  0
SECTION
  2
TABLES
  0
TABLE
  2
LTYPE
  70
4
  0
LTYPE
  5
40F
  2
CONTINUOUS
  70
0
  3
Solid line
  72
65
  73
0
  40
0.0
  0
LTYPE
  5
410
  2
DASHDOT
 70
0
  3
Dash Dot ____ _ ____ _
 72
65
 73
4
 40
2.0
 49
1.25
 49
-0.25
 49
0.25
 49
-0.25
  0
LTYPE
  5
411
  2
DASHED
 70
0
  3
Dashed __ __ __ __ __
 72
65
 73
2
 40
0.75
 49
0.5
 49
-0.25
  0
LTYPE
  5
43B
  2
DOTTED
 70
0
  3
Dotted .  .  .  .
 72
65
 73
2
 40
0.2
 49
0.0
 49
-0.2
  0
ENDTAB
  0
TABLE
  2
STYLE
  70
4
  0
STYLE
  2
KICAD
  70
0
  40
0
  41
1
  42
1
  50
0
  71
0
  3
isocp.shx
  0
STYLE
  2
KICADB
  70
0
  40
0
  41
1
  42
1
  50
0
  71
0
  3
isocp.shx
  0
STYLE
  2
KICADI
  70
0
  40
0
  41
1
  42
1
  50
15
  71
0
  3
isocp.shx
  0
STYLE
  2
KICADBI
  70
0
  40
0
  41
1
  42
1
  50
15
  71
0
  3
isocp.shx
  0
ENDTAB
  0
TABLE
  2
LAYER
  70
1
  0
LAYER
  2
BLACK
  70
0
  62
7
  6
CONTINUOUS
  0
ENDTAB
  0
ENDSEC
  0
SECTION
  2
ENTITIES
0
LINE
8
BLACK
6
CONTINUOUS
10
0.48
20
0.1425
11
0.425
21
0.1425
0
LINE
8
BLACK
6
CONTINUOUS
10
0.425
20
0.1425
11
0.425
21
0.1775
0
LINE
8
BLACK
6
CONTINUOUS
10
0.425
20
0.1775
11
0.48
21
0.1775
0
LINE
8
BLACK
6
CONTINUOUS
10
0.48
20
0.1775
11
0.48
21
0.1425
0
LINE
8
BLACK
6
CONTINUOUS
10
0.5725
20
0.145
11
0.5175
21
0.145
0
LINE
8
BLACK
6
CONTINUOUS
10
0.5175
20
0.145
11
0.5175
21
0.18
0
LINE
8
BLACK
6
CONTINUOUS
10
0.5175
20
0.18
11
0.5725
21
0.18
0
LINE
8
BLACK
6
CONTINUOUS
10
0.5725
20
0.18
11
0.5725
21
0.145
0
LINE
8
BLACK
6
CONTINUOUS
10
0.48
20
0.2175
11
0.425
21
0.2175
0
LINE
8
BLACK
6
CONTINUOUS
10
0.425
20
0.2175
11
0.425
21
0.2525
0
LINE
8
BLACK
6
CONTINUOUS
10
0.425
20
0.2525
11
0.48
21
0.2525
0
LINE
8
BLACK
6
CONTINUOUS
10
0.48
20
0.2525
11
0.48
21
0.2175
0
LINE
8
BLACK
6
CONTINUOUS
10
0.5725
20
0.22
11
0.5175
21
0.22
0
LINE
8
BLACK
6
CONTINUOUS
10
0.5175
20
0.22
11
0.5175
21
0.255
0
LINE
8
BLACK
6
CONTINUOUS
10
0.5175
20
0.255
11
0.5725
21
0.255
0
LINE
8
BLACK
6
CONTINUOUS
10
0.5725
20
0.255
11
0.5725
21
0.22
0
LINE
8
BLACK
6
CONTINUOUS
10
0.6675
20
0.2975
11
0.6325
21
0.2975
0
LINE
8
BLACK
6
CONTINUOUS
10
0.6325
20
0.2975
11
0.6325
21
0.3525
0
LINE
8
BLACK
6
CONTINUOUS
10
0.6325
20
0.3525
11
0.6675
21
0.3525
0
LINE
8
BLACK
6
CONTINUOUS
10
0.6675
20
0.3525
11
0.6675
21
0.2975
0
LINE
8
BLACK
6
CONTINUOUS
10
0.7425
20
0.2975
11
0.7075
21
0.2975
0
LINE
8
BLACK
6
CONTINUOUS
10
0.7075
20
0.2975
11
0.7075
21
0.3525
0
LINE
8
BLACK
6
CONTINUOUS
10
0.7075
20
0.3525
11
0.7425
21
0.3525
0
LINE
8
BLACK
6
CONTINUOUS
10
0.7425
20
0.3525
11
0.7425
21
0.2975
0
LINE
8
BLACK
6
CONTINUOUS
10
0.865
20
0.3025
11
0.83
21
0.3025
0
LINE
8
BLACK
6
CONTINUOUS
10
0.83
20
0.3025
11
0.83
21
0.3575
0
LINE
8
BLACK
6
CONTINUOUS
10
0.83
20
0.3575
11
0.865
21
0.3575
0
LINE
8
BLACK
6
CONTINUOUS
10
0.865
20
0.3575
11
0.865
21
0.3025
0
LINE
8
BLACK
6
CONTINUOUS
10
0.94
20
0.3025
11
0.905
21
0.3025
0
LINE
8
BLACK
6
CONTINUOUS
10
0.905
20
0.3025
11
0.905
21
0.3575
0
LINE
8
BLACK
6
CONTINUOUS
10
0.905
20
0.3575
11
0.94
21
0.3575
0
LINE
8
BLACK
6
CONTINUOUS
10
0.94
20
0.3575
11
0.94
21
0.3025
0
LINE
8
BLACK
6
CONTINUOUS
10
1.04705
20
0.37935
11
0.98795
21
0.37935
0
LINE
8
BLACK
6
CONTINUOUS
10
0.98795
20
0.37935
11
0.98795
21
0.48565
0
LINE
8
BLACK
6
CONTINUOUS
10
0.98795
20
0.48565
11
1.04705
21
0.48565
0
LINE
8
BLACK
6
CONTINUOUS
10
1.04705
20
0.48565
11
1.04705
21
0.37935
0
LINE
8
BLACK
6
CONTINUOUS
10
1.23605
20
0.37935
11
1.17695
21
0.37935
0
LINE
8
BLACK
6
CONTINUOUS
10
1.17695
20
0.37935
11
1.17695
21
0.48565
0
LINE
8
BLACK
6
CONTINUOUS
10
1.17695
20
0.48565
11
1.23605
21
0.48565
0
LINE
8
BLACK
6
CONTINUOUS
10
1.23605
20
0.48565
11
1.23605
21
0.37935
0
LINE
8
BLACK
6
CONTINUOUS
10
0.865
20
0.39
11
0.83
21
0.39
0
LINE
8
BLACK
6
CONTINUOUS
10
0.83
20
0.39
11
0.83
21
0.445
0
LINE
8
BLACK
6
CONTINUOUS
10
0.83
20
0.445
11
0.865
21
0.445
0
LINE
8
BLACK
6
CONTINUOUS
10
0.865
20
0.445
11
0.865
21
0.39
0
LINE
8
BLACK
6
CONTINUOUS
10
0.94
20
0.39
11
0.905
21
0.39
0
LINE
8
BLACK
6
CONTINUOUS
10
0.905
20
0.39
11
0.905
21
0.445
0
LINE
8
BLACK
6
CONTINUOUS
10
0.905
20
0.445
11
0.94
21
0.445
0
LINE
8
BLACK
6
CONTINUOUS
10
0.94
20
0.445
11
0.94
21
0.39
0
LINE
8
BLACK
6
CONTINUOUS
10
0.190492
20
0.391339
11
0.0645079
21
0.391339
0
LINE
8
BLACK
6
CONTINUOUS
10
0.0645079
20
0.391339
11
0.0645079
21
0.44252
0
LINE
8
BLACK
6
CONTINUOUS
10
0.0645079
20
0.44252
11
0.190492
21
0.44252
0
LINE
8
BLACK
6
CONTINUOUS
10
0.190492
20
0.44252
11
0.190492
21
0.391339
0
LINE
8
BLACK
6
CONTINUOUS
10
0.5475
20
0.4025
11
0.4925
21
0.4025
0
LINE
8
BLACK
6
CONTINUOUS
10
0.4925
20
0.4025
11
0.4925
21
0.4375
0
LINE
8
BLACK
6
CONTINUOUS
10
0.4925
20
0.4375
11
0.5475
21
0.4375
0
LINE
8
BLACK
6
CONTINUOUS
10
0.5475
20
0.4375
11
0.5475
21
0.4025
0
LINE
8
BLACK
6
CONTINUOUS
10
0.5475
20
0.4775
11
0.4925
21
0.4775
0
LINE
8
BLACK
6
CONTINUOUS
10
0.4925
20
0.4775
11
0.4925
21
0.5125
0
LINE
8
BLACK
6
CONTINUOUS
10
0.4925
20
0.5125
11
0.5475
21
0.5125
0
LINE
8
BLACK
6
CONTINUOUS
10
0.5475
20
0.5125
11
0.5475
21
0.4775
0
LINE
8
BLACK
6
CONTINUOUS
10
0.696457
20
0.50189
11
0.680709
21
0.50189
0
LINE
8
BLACK
6
CONTINUOUS
10
0.680709
20
0.50189
11
0.680709
21
0.557008
0
LINE
8
BLACK
6
CONTINUOUS
10
0.680709
20
0.557008
11
0.696457
21
0.557008
0
LINE
8
BLACK
6
CONTINUOUS
10
0.696457
20
0.557008
11
0.696457
21
0.50189
0
LINE
8
BLACK
6
CONTINUOUS
10
0.619488
20
0.502047
11
0.60374
21
0.502047
0
LINE
8
BLACK
6
CONTINUOUS
10
0.60374
20
0.502047
11
0.60374
21
0.557165
0
LINE
8
BLACK
6
CONTINUOUS
10
0.60374
20
0.557165
11
0.619488
21
0.557165
0
LINE
8
BLACK
6
CONTINUOUS
10
0.619488
20
0.557165
11
0.619488
21
0.502047
0
LINE
8
BLACK
6
CONTINUOUS
10
0.645079
20
0.502047
11
0.629331
21
0.502047
0
LINE
8
BLACK
6
CONTINUOUS
10
0.629331
20
0.502047
11
0.629331
21
0.557165
0
LINE
8
BLACK
6
CONTINUOUS
10
0.629331
20
0.557165
11
0.645079
21
0.557165
0
LINE
8
BLACK
6
CONTINUOUS
10
0.645079
20
0.557165
11
0.645079
21
0.502047
0
LINE
8
BLACK
6
CONTINUOUS
10
0.670669
20
0.502047
11
0.654921
21
0.502047
0
LINE
8
BLACK
6
CONTINUOUS
10
0.654921
20
0.502047
11
0.654921
21
0.557165
0
LINE
8
BLACK
6
CONTINUOUS
10
0.654921
20
0.557165
11
0.670669
21
0.557165
0
LINE
8
BLACK
6
CONTINUOUS
10
0.670669
20
0.557165
11
0.670669
21
0.502047
0
LINE
8
BLACK
6
CONTINUOUS
10
0.9025
20
0.5225
11
0.8675
21
0.5225
0
LINE
8
BLACK
6
CONTINUOUS
10
0.8675
20
0.5225
11
0.8675
21
0.5775
0
LINE
8
BLACK
6
CONTINUOUS
10
0.8675
20
0.5775
11
0.9025
21
0.5775
0
LINE
8
BLACK
6
CONTINUOUS
10
0.9025
20
0.5775
11
0.9025
21
0.5225
0
LINE
8
BLACK
6
CONTINUOUS
10
0.9775
20
0.5225
11
0.9425
21
0.5225
0
LINE
8
BLACK
6
CONTINUOUS
10
0.9425
20
0.5225
11
0.9425
21
0.5775
0
LINE
8
BLACK
6
CONTINUOUS
10
0.9425
20
0.5775
11
0.9775
21
0.5775
0
LINE
8
BLACK
6
CONTINUOUS
10
0.9775
20
0.5775
11
0.9775
21
0.5225
0
LINE
8
BLACK
6
CONTINUOUS
10
0.4675
20
0.56
11
0.4125
21
0.56
0
LINE
8
BLACK
6
CONTINUOUS
10
0.4125
20
0.56
11
0.4125
21
0.595
0
LINE
8
BLACK
6
CONTINUOUS
10
0.4125
20
0.595
11
0.4675
21
0.595
0
LINE
8
BLACK
6
CONTINUOUS
10
0.4675
20
0.595
11
0.4675
21
0.56
0
LINE
8
BLACK
6
CONTINUOUS
10
0.2975
20
0.5625
11
0.2425
21
0.5625
0
LINE
8
BLACK
6
CONTINUOUS
10
0.2425
20
0.5625
11
0.2425
21
0.5975
0
LINE
8
BLACK
6
CONTINUOUS
10
0.2425
20
0.5975
11
0.2975
21
0.5975
0
LINE
8
BLACK
6
CONTINUOUS
10
0.2975
20
0.5975
11
0.2975
21
0.5625
0
LINE
8
BLACK
6
CONTINUOUS
10
0.3825
20
0.5625
11
0.3275
21
0.5625
0
LINE
8
BLACK
6
CONTINUOUS
10
0.3275
20
0.5625
11
0.3275
21
0.5975
0
LINE
8
BLACK
6
CONTINUOUS
10
0.3275
20
0.5975
11
0.3825
21
0.5975
0
LINE
8
BLACK
6
CONTINUOUS
10
0.3825
20
0.5975
11
0.3825
21
0.5625
0
LINE
8
BLACK
6
CONTINUOUS
10
0.70315
20
0.56685
11
0.59685
21
0.56685
0
LINE
8
BLACK
6
CONTINUOUS
10
0.59685
20
0.56685
11
0.59685
21
0.67315
0
LINE
8
BLACK
6
CONTINUOUS
10
0.59685
20
0.67315
11
0.70315
21
0.67315
0
LINE
8
BLACK
6
CONTINUOUS
10
0.70315
20
0.67315
11
0.70315
21
0.56685
0
LINE
8
BLACK
6
CONTINUOUS
10
0.767717
20
0.573543
11
0.712598
21
0.573543
0
LINE
8
BLACK
6
CONTINUOUS
10
0.712598
20
0.573543
11
0.712598
21
0.589291
0
LINE
8
BLACK
6
CONTINUOUS
10
0.712598
20
0.589291
11
0.767717
21
0.589291
0
LINE
8
BLACK
6
CONTINUOUS
10
0.767717
20
0.589291
11
0.767717
21
0.573543
0
LINE
8
BLACK
6
CONTINUOUS
10
0.587008
20
0.57374
11
0.53189
21
0.57374
0
LINE
8
BLACK
6
CONTINUOUS
10
0.53189
20
0.57374
11
0.53189
21
0.589488
0
LINE
8
BLACK
6
CONTINUOUS
10
0.53189
20
0.589488
11
0.587008
21
0.589488
0
LINE
8
BLACK
6
CONTINUOUS
10
0.587008
20
0.589488
11
0.587008
21
0.57374
0
LINE
8
BLACK
6
CONTINUOUS
10
0.587008
20
0.599331
11
0.53189
21
0.599331
0
LINE
8
BLACK
6
CONTINUOUS
10
0.53189
20
0.599331
11
0.53189
21
0.615079
0
LINE
8
BLACK
6
CONTINUOUS
10
0.53189
20
0.615079
11
0.587008
21
0.615079
0
LINE
8
BLACK
6
CONTINUOUS
10
0.587008
20
0.615079
11
0.587008
21
0.599331
0
LINE
8
BLACK
6
CONTINUOUS
10
0.767717
20
0.599331
11
0.712598
21
0.599331
0
LINE
8
BLACK
6
CONTINUOUS
10
0.712598
20
0.599331
11
0.712598
21
0.615079
0
LINE
8
BLACK
6
CONTINUOUS
10
0.712598
20
0.615079
11
0.767717
21
0.615079
0
LINE
8
BLACK
6
CONTINUOUS
10
0.767717
20
0.615079
11
0.767717
21
0.599331
0
LINE
8
BLACK
6
CONTINUOUS
10
0.587008
20
0.624921
11
0.53189
21
0.624921
0
LINE
8
BLACK
6
CONTINUOUS
10
0.53189
20
0.624921
11
0.53189
21
0.640669
0
LINE
8
BLACK
6
CONTINUOUS
10
0.53189
20
0.640669
11
0.587008
21
0.640669
0
LINE
8
BLACK
6
CONTINUOUS
10
0.587008
20
0.640669
11
0.587008
21
0.624921
0
LINE
8
BLACK
6
CONTINUOUS
10
0.767717
20
0.624921
11
0.712598
21
0.624921
0
LINE
8
BLACK
6
CONTINUOUS
10
0.712598
20
0.624921
11
0.712598
21
0.640669
0
LINE
8
BLACK
6
CONTINUOUS
10
0.712598
20
0.640669
11
0.767717
21
0.640669
0
LINE
8
BLACK
6
CONTINUOUS
10
0.767717
20
0.640669
11
0.767717
21
0.624921
0
LINE
8
BLACK
6
CONTINUOUS
10
0.9025
20
0.625995
11
0.8675
21
0.625995
0
LINE
8
BLACK
6
CONTINUOUS
10
0.8675
20
0.625995
11
0.8675
21
0.680995
0
LINE
8
BLACK
6
CONTINUOUS
10
0.8675
20
0.680995
11
0.9025
21
0.680995
0
LINE
8
BLACK
6
CONTINUOUS
10
0.9025
20
0.680995
11
0.9025
21
0.625995
0
LINE
8
BLACK
6
CONTINUOUS
10
0.9775
20
0.625995
11
0.9425
21
0.625995
0
LINE
8
BLACK
6
CONTINUOUS
10
0.9425
20
0.625995
11
0.9425
21
0.680995
0
LINE
8
BLACK
6
CONTINUOUS
10
0.9425
20
0.680995
11
0.9775
21
0.680995
0
LINE
8
BLACK
6
CONTINUOUS
10
0.9775
20
0.680995
11
0.9775
21
0.625995
0
LINE
8
BLACK
6
CONTINUOUS
10
0.4675
20
0.635
11
0.4125
21
0.635
0
LINE
8
BLACK
6
CONTINUOUS
10
0.4125
20
0.635
11
0.4125
21
0.67
0
LINE
8
BLACK
6
CONTINUOUS
10
0.4125
20
0.67
11
0.4675
21
0.67
0
LINE
8
BLACK
6
CONTINUOUS
10
0.4675
20
0.67
11
0.4675
21
0.635
0
LINE
8
BLACK
6
CONTINUOUS
10
0.2975
20
0.6375
11
0.2425
21
0.6375
0
LINE
8
BLACK
6
CONTINUOUS
10
0.2425
20
0.6375
11
0.2425
21
0.6725
0
LINE
8
BLACK
6
CONTINUOUS
10
0.2425
20
0.6725
11
0.2975
21
0.6725
0
LINE
8
BLACK
6
CONTINUOUS
10
0.2975
20
0.6725
11
0.2975
21
0.6375
0
LINE
8
BLACK
6
CONTINUOUS
10
0.3825
20
0.6375
11
0.3275
21
0.6375
0
LINE
8
BLACK
6
CONTINUOUS
10
0.3275
20
0.6375
11
0.3275
21
0.6725
0
LINE
8
BLACK
6
CONTINUOUS
10
0.3275
20
0.6725
11
0.3825
21
0.6725
0
LINE
8
BLACK
6
CONTINUOUS
10
0.3825
20
0.6725
11
0.3825
21
0.6375
0
LINE
8
BLACK
6
CONTINUOUS
10
0.587008
20
0.650709
11
0.53189
21
0.650709
0
LINE
8
BLACK
6
CONTINUOUS
10
0.53189
20
0.650709
11
0.53189
21
0.666457
0
LINE
8
BLACK
6
CONTINUOUS
10
0.53189
20
0.666457
11
0.587008
21
0.666457
0
LINE
8
BLACK
6
CONTINUOUS
10
0.587008
20
0.666457
11
0.587008
21
0.650709
0
LINE
8
BLACK
6
CONTINUOUS
10
0.767717
20
0.650709
11
0.712598
21
0.650709
0
LINE
8
BLACK
6
CONTINUOUS
10
0.712598
20
0.650709
11
0.712598
21
0.666457
0
LINE
8
BLACK
6
CONTINUOUS
10
0.712598
20
0.666457
11
0.767717
21
0.666457
0
LINE
8
BLACK
6
CONTINUOUS
10
0.767717
20
0.666457
11
0.767717
21
0.650709
0
LINE
8
BLACK
6
CONTINUOUS
10
0.619488
20
0.682835
11
0.60374
21
0.682835
0
LINE
8
BLACK
6
CONTINUOUS
10
0.60374
20
0.682835
11
0.60374
21
0.737953
0
LINE
8
BLACK
6
CONTINUOUS
10
0.60374
20
0.737953
11
0.619488
21
0.737953
0
LINE
8
BLACK
6
CONTINUOUS
10
0.619488
20
0.737953
11
0.619488
21
0.682835
0
LINE
8
BLACK
6
CONTINUOUS
10
0.645079
20
0.682835
11
0.629331
21
0.682835
0
LINE
8
BLACK
6
CONTINUOUS
10
0.629331
20
0.682835
11
0.629331
21
0.737953
0
LINE
8
BLACK
6
CONTINUOUS
10
0.629331
20
0.737953
11
0.645079
21
0.737953
0
LINE
8
BLACK
6
CONTINUOUS
10
0.645079
20
0.737953
11
0.645079
21
0.682835
0
LINE
8
BLACK
6
CONTINUOUS
10
0.670669
20
0.682835
11
0.654921
21
0.682835
0
LINE
8
BLACK
6
CONTINUOUS
10
0.654921
20
0.682835
11
0.654921
21
0.737953
0
LINE
8
BLACK
6
CONTINUOUS
10
0.654921
20
0.737953
11
0.670669
21
0.737953
0
LINE
8
BLACK
6
CONTINUOUS
10
0.670669
20
0.737953
11
0.670669
21
0.682835
0
LINE
8
BLACK
6
CONTINUOUS
10
0.696457
20
0.682992
11
0.680709
21
0.682992
0
LINE
8
BLACK
6
CONTINUOUS
10
0.680709
20
0.682992
11
0.680709
21
0.73811
0
LINE
8
BLACK
6
CONTINUOUS
10
0.680709
20
0.73811
11
0.696457
21
0.73811
0
LINE
8
BLACK
6
CONTINUOUS
10
0.696457
20
0.73811
11
0.696457
21
0.682992
0
LINE
8
BLACK
6
CONTINUOUS
10
0.190492
20
0.75748
11
0.0645079
21
0.75748
0
LINE
8
BLACK
6
CONTINUOUS
10
0.0645079
20
0.75748
11
0.0645079
21
0.808661
0
LINE
8
BLACK
6
CONTINUOUS
10
0.0645079
20
0.808661
11
0.190492
21
0.808661
0
LINE
8
BLACK
6
CONTINUOUS
10
0.190492
20
0.808661
11
0.190492
21
0.75748
0
LINE
8
BLACK
6
CONTINUOUS
10
1.0475
20
0.7675
11
0.9925
21
0.7675
0
LINE
8
BLACK
6
CONTINUOUS
10
0.9925
20
0.7675
11
0.9925
21
0.8025
0
LINE
8
BLACK
6
CONTINUOUS
10
0.9925
20
0.8025
11
1.0475
21
0.8025
0
LINE
8
BLACK
6
CONTINUOUS
10
1.0475
20
0.8025
11
1.0475
21
0.7675
0
LINE
8
BLACK
6
CONTINUOUS
10
0.5425
20
0.8225
11
0.5075
21
0.8225
0
LINE
8
BLACK
6
CONTINUOUS
10
0.5075
20
0.8225
11
0.5075
21
0.8775
0
LINE
8
BLACK
6
CONTINUOUS
10
0.5075
20
0.8775
11
0.5425
21
0.8775
0
LINE
8
BLACK
6
CONTINUOUS
10
0.5425
20
0.8775
11
0.5425
21
0.8225
0
LINE
8
BLACK
6
CONTINUOUS
10
0.6175
20
0.8225
11
0.5825
21
0.8225
0
LINE
8
BLACK
6
CONTINUOUS
10
0.5825
20
0.8225
11
0.5825
21
0.8775
0
LINE
8
BLACK
6
CONTINUOUS
10
0.5825
20
0.8775
11
0.6175
21
0.8775
0
LINE
8
BLACK
6
CONTINUOUS
10
0.6175
20
0.8775
11
0.6175
21
0.8225
0
LINE
8
BLACK
6
CONTINUOUS
10
1.0475
20
0.8425
11
0.9925
21
0.8425
0
LINE
8
BLACK
6
CONTINUOUS
10
0.9925
20
0.8425
11
0.9925
21
0.8775
0
LINE
8
BLACK
6
CONTINUOUS
10
0.9925
20
0.8775
11
1.0475
21
0.8775
0
LINE
8
BLACK
6
CONTINUOUS
10
1.0475
20
0.8775
11
1.0475
21
0.8425
0
LINE
8
BLACK
6
CONTINUOUS
10
1.1375
20
0.8725
11
1.1025
21
0.8725
0
LINE
8
BLACK
6
CONTINUOUS
10
1.1025
20
0.8725
11
1.1025
21
0.9275
0
LINE
8
BLACK
6
CONTINUOUS
10
1.1025
20
0.9275
11
1.1375
21
0.9275
0
LINE
8
BLACK
6
CONTINUOUS
10
1.1375
20
0.9275
11
1.1375
21
0.8725
0
LINE
8
BLACK
6
CONTINUOUS
10
1.2125
20
0.8725
11
1.1775
21
0.8725
0
LINE
8
BLACK
6
CONTINUOUS
10
1.1775
20
0.8725
11
1.1775
21
0.9275
0
LINE
8
BLACK
6
CONTINUOUS
10
1.1775
20
0.9275
11
1.2125
21
0.9275
0
LINE
8
BLACK
6
CONTINUOUS
10
1.2125
20
0.9275
11
1.2125
21
0.8725
0
LINE
8
BLACK
6
CONTINUOUS
10
0.7225
20
0.8825
11
0.6875
21
0.8825
0
LINE
8
BLACK
6
CONTINUOUS
10
0.6875
20
0.8825
11
0.6875
21
0.9375
0
LINE
8
BLACK
6
CONTINUOUS
10
0.6875
20
0.9375
11
0.7225
21
0.9375
0
LINE
8
BLACK
6
CONTINUOUS
10
0.7225
20
0.9375
11
0.7225
21
0.8825
0
LINE
8
BLACK
6
CONTINUOUS
10
0.7975
20
0.8825
11
0.7625
21
0.8825
0
LINE
8
BLACK
6
CONTINUOUS
10
0.7625
20
0.8825
11
0.7625
21
0.9375
0
LINE
8
BLACK
6
CONTINUOUS
10
0.7625
20
0.9375
11
0.7975
21
0.9375
0
LINE
8
BLACK
6
CONTINUOUS
10
0.7975
20
0.9375
11
0.7975
21
0.8825
0
LINE
8
BLACK
6
CONTINUOUS
10
0.88
20
0.8825
11
0.845
21
0.8825
0
LINE
8
BLACK
6
CONTINUOUS
10
0.845
20
0.8825
11
0.845
21
0.9375
0
LINE
8
BLACK
6
CONTINUOUS
10
0.845
20
0.9375
11
0.88
21
0.9375
0
LINE
8
BLACK
6
CONTINUOUS
10
0.88
20
0.9375
11
0.88
21
0.8825
0
LINE
8
BLACK
6
CONTINUOUS
10
0.955
20
0.8825
11
0.92
21
0.8825
0
LINE
8
BLACK
6
CONTINUOUS
10
0.92
20
0.8825
11
0.92
21
0.9375
0
LINE
8
BLACK
6
CONTINUOUS
10
0.92
20
0.9375
11
0.955
21
0.9375
0
LINE
8
BLACK
6
CONTINUOUS
10
0.955
20
0.9375
11
0.955
21
0.8825
  0
ENDSEC
  0
EOF
