  0
SECTION
  2
HEADER
  9
$ANGBASE
  50
0.0
  9
$ANGDIR
  70
1
  9
$MEASUREMENT
  70
0
  0
ENDSEC
  0
SECTION
  2
TABLES
  0
TABLE
  2
LTYPE
  70
4
  0
LTYPE
  5
40F
  2
CONTINUOUS
  70
0
  3
Solid line
  72
65
  73
0
  40
0.0
  0
LTYPE
  5
410
  2
DASHDOT
 70
0
  3
Dash Dot ____ _ ____ _
 72
65
 73
4
 40
2.0
 49
1.25
 49
-0.25
 49
0.25
 49
-0.25
  0
LTYPE
  5
411
  2
DASHED
 70
0
  3
Dashed __ __ __ __ __
 72
65
 73
2
 40
0.75
 49
0.5
 49
-0.25
  0
LTYPE
  5
43B
  2
DOTTED
 70
0
  3
Dotted .  .  .  .
 72
65
 73
2
 40
0.2
 49
0.0
 49
-0.2
  0
ENDTAB
  0
TABLE
  2
STYLE
  70
4
  0
STYLE
  2
KICAD
  70
0
  40
0
  41
1
  42
1
  50
0
  71
0
  3
isocp.shx
  0
STYLE
  2
KICADB
  70
0
  40
0
  41
1
  42
1
  50
0
  71
0
  3
isocp.shx
  0
STYLE
  2
KICADI
  70
0
  40
0
  41
1
  42
1
  50
15
  71
0
  3
isocp.shx
  0
STYLE
  2
KICADBI
  70
0
  40
0
  41
1
  42
1
  50
15
  71
0
  3
isocp.shx
  0
ENDTAB
  0
TABLE
  2
LAYER
  70
1
  0
LAYER
  2
BLACK
  70
0
  62
7
  6
CONTINUOUS
  0
ENDTAB
  0
ENDSEC
  0
SECTION
  2
ENTITIES
0
LINE
8
BLACK
6
CONTINUOUS
10
1.58475
20
1.18624
11
1.58658
21
1.18413
0
LINE
8
BLACK
6
CONTINUOUS
10
1.58658
20
1.18413
11
1.58703
21
1.18207
0
LINE
8
BLACK
6
CONTINUOUS
10
1.58703
20
1.18207
11
1.58703
21
0.0179331
0
LINE
8
BLACK
6
CONTINUOUS
10
1.58703
20
0.0179331
11
1.58624
21
0.0152511
0
LINE
8
BLACK
6
CONTINUOUS
10
1.58624
20
0.0152511
11
1.58413
21
0.0134207
0
LINE
8
BLACK
6
CONTINUOUS
10
1.58413
20
0.0134207
11
1.58207
21
0.0129724
0
LINE
8
BLACK
6
CONTINUOUS
10
1.58207
20
0.0129724
11
0.384961
21
0.0129724
0
LINE
8
BLACK
6
CONTINUOUS
10
0.384961
20
0.0129724
11
0.382279
21
0.0137599
0
LINE
8
BLACK
6
CONTINUOUS
10
0.382279
20
0.0137599
11
0.380448
21
0.0158724
0
LINE
8
BLACK
6
CONTINUOUS
10
0.380448
20
0.0158724
11
0.38
21
0.0179331
0
LINE
8
BLACK
6
CONTINUOUS
10
0.38
20
0.0179331
11
0.38
21
0.486934
0
LINE
8
BLACK
6
CONTINUOUS
10
0.38
20
0.486934
11
0.380787
21
0.489616
0
LINE
8
BLACK
6
CONTINUOUS
10
0.380787
20
0.489616
11
0.382742
21
0.491371
0
LINE
8
BLACK
6
CONTINUOUS
10
0.382742
20
0.491371
11
0.48
21
0.54
0
LINE
8
BLACK
6
CONTINUOUS
10
0.48
20
0.54
11
0.48
21
0.69
0
LINE
8
BLACK
6
CONTINUOUS
10
0.48
20
0.69
11
0.435566
21
0.712217
0
LINE
8
BLACK
6
CONTINUOUS
10
0.435566
20
0.712217
11
0.42
21
0.72
0
LINE
8
BLACK
6
CONTINUOUS
10
0.42
20
0.72
11
0.382742
21
0.738629
0
LINE
8
BLACK
6
CONTINUOUS
10
0.382742
20
0.738629
11
0.380696
21
0.740533
0
LINE
8
BLACK
6
CONTINUOUS
10
0.380696
20
0.740533
11
0.38
21
0.743066
0
LINE
8
BLACK
6
CONTINUOUS
10
0.38
20
0.743066
11
0.38
21
1.18207
0
LINE
8
BLACK
6
CONTINUOUS
10
0.38
20
1.18207
11
0.380787
21
1.18475
0
LINE
8
BLACK
6
CONTINUOUS
10
0.380787
20
1.18475
11
0.3829
21
1.18658
0
LINE
8
BLACK
6
CONTINUOUS
10
0.3829
20
1.18658
11
0.384961
21
1.18703
0
LINE
8
BLACK
6
CONTINUOUS
10
0.384961
20
1.18703
11
1.58207
21
1.18703
0
LINE
8
BLACK
6
CONTINUOUS
10
1.58207
20
1.18703
11
1.58475
21
1.18624
0
LINE
8
BLACK
6
CONTINUOUS
10
0.85
20
0.115
11
0.85
21
0.0930867
0
LINE
8
BLACK
6
CONTINUOUS
10
0.85
20
0.0930867
11
0.850256
21
0.090705
0
LINE
8
BLACK
6
CONTINUOUS
10
0.850256
20
0.090705
11
0.852266
21
0.0853164
0
LINE
8
BLACK
6
CONTINUOUS
10
0.852266
20
0.0853164
11
0.852266
21
0.0853163
0
LINE
8
BLACK
6
CONTINUOUS
10
0.852266
20
0.0853163
11
0.855712
21
0.0807124
0
LINE
8
BLACK
6
CONTINUOUS
10
0.855712
20
0.0807124
11
0.860316
21
0.077266
0
LINE
8
BLACK
6
CONTINUOUS
10
0.860316
20
0.077266
11
0.865705
21
0.0752561
0
LINE
8
BLACK
6
CONTINUOUS
10
0.865705
20
0.0752561
11
0.868087
21
0.075
0
LINE
8
BLACK
6
CONTINUOUS
10
0.868087
20
0.075
11
0.868087
21
0.075
0
LINE
8
BLACK
6
CONTINUOUS
10
0.868087
20
0.075
11
0.89
21
0.075
0
LINE
8
BLACK
6
CONTINUOUS
10
0.89
20
0.075
11
0.89
21
0.095
0
LINE
8
BLACK
6
CONTINUOUS
10
0.89
20
0.095
11
0.87
21
0.095
0
LINE
8
BLACK
6
CONTINUOUS
10
0.87
20
0.095
11
0.87
21
0.115
0
LINE
8
BLACK
6
CONTINUOUS
10
0.87
20
0.115
11
0.85
21
0.115
0
LINE
8
BLACK
6
CONTINUOUS
10
1.13
20
0.095
11
1.11
21
0.095
0
LINE
8
BLACK
6
CONTINUOUS
10
1.11
20
0.095
11
1.11
21
0.075
0
LINE
8
BLACK
6
CONTINUOUS
10
1.11
20
0.075
11
1.13191
21
0.075
0
LINE
8
BLACK
6
CONTINUOUS
10
1.13191
20
0.075
11
1.13191
21
0.075
0
LINE
8
BLACK
6
CONTINUOUS
10
1.13191
20
0.075
11
1.1343
21
0.0752561
0
LINE
8
BLACK
6
CONTINUOUS
10
1.1343
20
0.0752561
11
1.13968
21
0.077266
0
LINE
8
BLACK
6
CONTINUOUS
10
1.13968
20
0.077266
11
1.13968
21
0.077266
0
LINE
8
BLACK
6
CONTINUOUS
10
1.13968
20
0.077266
11
1.14429
21
0.0807124
0
LINE
8
BLACK
6
CONTINUOUS
10
1.14429
20
0.0807124
11
1.14773
21
0.0853163
0
LINE
8
BLACK
6
CONTINUOUS
10
1.14773
20
0.0853163
11
1.14773
21
0.0853164
0
LINE
8
BLACK
6
CONTINUOUS
10
1.14773
20
0.0853164
11
1.14974
21
0.090705
0
LINE
8
BLACK
6
CONTINUOUS
10
1.14974
20
0.090705
11
1.15
21
0.0930867
0
LINE
8
BLACK
6
CONTINUOUS
10
1.15
20
0.0930867
11
1.15
21
0.0930872
0
LINE
8
BLACK
6
CONTINUOUS
10
1.15
20
0.0930872
11
1.15
21
0.115
0
LINE
8
BLACK
6
CONTINUOUS
10
1.15
20
0.115
11
1.13
21
0.115
0
LINE
8
BLACK
6
CONTINUOUS
10
1.13
20
0.115
11
1.13
21
0.095
0
LINE
8
BLACK
6
CONTINUOUS
10
0.82
20
0.987769
11
0.80378
21
0.987769
0
LINE
8
BLACK
6
CONTINUOUS
10
0.80378
20
0.987769
11
0.80378
21
0.78
0
LINE
8
BLACK
6
CONTINUOUS
10
0.80378
20
0.78
11
0.80378
21
0.78
0
LINE
8
BLACK
6
CONTINUOUS
10
0.80378
20
0.78
11
0.80378
21
0.73
0
LINE
8
BLACK
6
CONTINUOUS
10
0.80378
20
0.73
11
0.80378
21
0.64
0
LINE
8
BLACK
6
CONTINUOUS
10
0.80378
20
0.64
11
0.803662
21
0.63858
0
LINE
8
BLACK
6
CONTINUOUS
10
0.803662
20
0.63858
11
0.803674
21
0.638296
0
LINE
8
BLACK
6
CONTINUOUS
10
0.803674
20
0.638296
11
0.803625
21
0.638131
0
LINE
8
BLACK
6
CONTINUOUS
10
0.803625
20
0.638131
11
0.803592
21
0.637732
0
LINE
8
BLACK
6
CONTINUOUS
10
0.803592
20
0.637732
11
0.802946
21
0.635852
0
LINE
8
BLACK
6
CONTINUOUS
10
0.802946
20
0.635852
11
0.802379
21
0.633948
0
LINE
8
BLACK
6
CONTINUOUS
10
0.802379
20
0.633948
11
0.802212
21
0.633714
0
LINE
8
BLACK
6
CONTINUOUS
10
0.802212
20
0.633714
11
0.802119
21
0.633442
0
LINE
8
BLACK
6
CONTINUOUS
10
0.802119
20
0.633442
11
0.800898
21
0.631874
0
LINE
8
BLACK
6
CONTINUOUS
10
0.800898
20
0.631874
11
0.799744
21
0.630256
0
LINE
8
BLACK
6
CONTINUOUS
10
0.799744
20
0.630256
11
0.71937
21
0.549883
0
LINE
8
BLACK
6
CONTINUOUS
10
0.71937
20
0.549883
11
0.71937
21
0.43378
0
LINE
8
BLACK
6
CONTINUOUS
10
0.71937
20
0.43378
11
0.862559
21
0.43378
0
LINE
8
BLACK
6
CONTINUOUS
10
0.862559
20
0.43378
11
0.863978
21
0.433662
0
LINE
8
BLACK
6
CONTINUOUS
10
0.863978
20
0.433662
11
0.864264
21
0.433674
0
LINE
8
BLACK
6
CONTINUOUS
10
0.864264
20
0.433674
11
0.864428
21
0.433625
0
LINE
8
BLACK
6
CONTINUOUS
10
0.864428
20
0.433625
11
0.864827
21
0.433592
0
LINE
8
BLACK
6
CONTINUOUS
10
0.864827
20
0.433592
11
0.866706
21
0.432946
0
LINE
8
BLACK
6
CONTINUOUS
10
0.866706
20
0.432946
11
0.868611
21
0.432379
0
LINE
8
BLACK
6
CONTINUOUS
10
0.868611
20
0.432379
11
0.868845
21
0.432212
0
LINE
8
BLACK
6
CONTINUOUS
10
0.868845
20
0.432212
11
0.869117
21
0.432119
0
LINE
8
BLACK
6
CONTINUOUS
10
0.869117
20
0.432119
11
0.870686
21
0.430898
0
LINE
8
BLACK
6
CONTINUOUS
10
0.870686
20
0.430898
11
0.872303
21
0.429744
0
LINE
8
BLACK
6
CONTINUOUS
10
0.872303
20
0.429744
11
1.00974
21
0.292303
0
LINE
8
BLACK
6
CONTINUOUS
10
1.00974
20
0.292303
11
1.01066
21
0.291216
0
LINE
8
BLACK
6
CONTINUOUS
10
1.01066
20
0.291216
11
1.01087
21
0.291023
0
LINE
8
BLACK
6
CONTINUOUS
10
1.01087
20
0.291023
11
1.01096
21
0.290871
0
LINE
8
BLACK
6
CONTINUOUS
10
1.01096
20
0.290871
11
1.01121
21
0.290566
0
LINE
8
BLACK
6
CONTINUOUS
10
1.01121
20
0.290566
11
1.01209
21
0.288781
0
LINE
8
BLACK
6
CONTINUOUS
10
1.01209
20
0.288781
11
1.01303
21
0.287033
0
LINE
8
BLACK
6
CONTINUOUS
10
1.01303
20
0.287033
11
1.01308
21
0.286749
0
LINE
8
BLACK
6
CONTINUOUS
10
1.01308
20
0.286749
11
1.01321
21
0.286491
0
LINE
8
BLACK
6
CONTINUOUS
10
1.01321
20
0.286491
11
1.01345
21
0.284519
0
LINE
8
BLACK
6
CONTINUOUS
10
1.01345
20
0.284519
11
1.01378
21
0.282559
0
LINE
8
BLACK
6
CONTINUOUS
10
1.01378
20
0.282559
11
1.01378
21
0.255
0
LINE
8
BLACK
6
CONTINUOUS
10
1.01378
20
0.255
11
1.03
21
0.255
0
LINE
8
BLACK
6
CONTINUOUS
10
1.03
20
0.255
11
1.03
21
0.195
0
LINE
8
BLACK
6
CONTINUOUS
10
1.03
20
0.195
11
0.97
21
0.195
0
LINE
8
BLACK
6
CONTINUOUS
10
0.97
20
0.195
11
0.97
21
0.255
0
LINE
8
BLACK
6
CONTINUOUS
10
0.97
20
0.255
11
0.98622
21
0.255
0
LINE
8
BLACK
6
CONTINUOUS
10
0.98622
20
0.255
11
0.98622
21
0.276851
0
LINE
8
BLACK
6
CONTINUOUS
10
0.98622
20
0.276851
11
0.856851
21
0.40622
0
LINE
8
BLACK
6
CONTINUOUS
10
0.856851
20
0.40622
11
0.71937
21
0.40622
0
LINE
8
BLACK
6
CONTINUOUS
10
0.71937
20
0.40622
11
0.71937
21
0.180591
0
LINE
8
BLACK
6
CONTINUOUS
10
0.71937
20
0.180591
11
0.719252
21
0.179171
0
LINE
8
BLACK
6
CONTINUOUS
10
0.719252
20
0.179171
11
0.719264
21
0.178886
0
LINE
8
BLACK
6
CONTINUOUS
10
0.719264
20
0.178886
11
0.719215
21
0.178721
0
LINE
8
BLACK
6
CONTINUOUS
10
0.719215
20
0.178721
11
0.719182
21
0.178323
0
LINE
8
BLACK
6
CONTINUOUS
10
0.719182
20
0.178323
11
0.718537
21
0.176443
0
LINE
8
BLACK
6
CONTINUOUS
10
0.718537
20
0.176443
11
0.71797
21
0.174539
0
LINE
8
BLACK
6
CONTINUOUS
10
0.71797
20
0.174539
11
0.717803
21
0.174304
0
LINE
8
BLACK
6
CONTINUOUS
10
0.717803
20
0.174304
11
0.717709
21
0.174032
0
LINE
8
BLACK
6
CONTINUOUS
10
0.717709
20
0.174032
11
0.716489
21
0.172464
0
LINE
8
BLACK
6
CONTINUOUS
10
0.716489
20
0.172464
11
0.715334
21
0.170847
0
LINE
8
BLACK
6
CONTINUOUS
10
0.715334
20
0.170847
11
0.68
21
0.135513
0
LINE
8
BLACK
6
CONTINUOUS
10
0.68
20
0.135513
11
0.68
21
0.095
0
LINE
8
BLACK
6
CONTINUOUS
10
0.68
20
0.095
11
0.62
21
0.095
0
LINE
8
BLACK
6
CONTINUOUS
10
0.62
20
0.095
11
0.62
21
0.155
0
LINE
8
BLACK
6
CONTINUOUS
10
0.62
20
0.155
11
0.660513
21
0.155
0
LINE
8
BLACK
6
CONTINUOUS
10
0.660513
20
0.155
11
0.691811
21
0.186298
0
LINE
8
BLACK
6
CONTINUOUS
10
0.691811
20
0.186298
11
0.691811
21
0.42
0
LINE
8
BLACK
6
CONTINUOUS
10
0.691811
20
0.42
11
0.691811
21
0.555591
0
LINE
8
BLACK
6
CONTINUOUS
10
0.691811
20
0.555591
11
0.691929
21
0.55701
0
LINE
8
BLACK
6
CONTINUOUS
10
0.691929
20
0.55701
11
0.691917
21
0.557295
0
LINE
8
BLACK
6
CONTINUOUS
10
0.691917
20
0.557295
11
0.691966
21
0.55746
0
LINE
8
BLACK
6
CONTINUOUS
10
0.691966
20
0.55746
11
0.691999
21
0.557859
0
LINE
8
BLACK
6
CONTINUOUS
10
0.691999
20
0.557859
11
0.692644
21
0.559738
0
LINE
8
BLACK
6
CONTINUOUS
10
0.692644
20
0.559738
11
0.693211
21
0.561643
0
LINE
8
BLACK
6
CONTINUOUS
10
0.693211
20
0.561643
11
0.693378
21
0.561877
0
LINE
8
BLACK
6
CONTINUOUS
10
0.693378
20
0.561877
11
0.693472
21
0.562149
0
LINE
8
BLACK
6
CONTINUOUS
10
0.693472
20
0.562149
11
0.694693
21
0.563717
0
LINE
8
BLACK
6
CONTINUOUS
10
0.694693
20
0.563717
11
0.695847
21
0.565334
0
LINE
8
BLACK
6
CONTINUOUS
10
0.695847
20
0.565334
11
0.77622
21
0.645708
0
LINE
8
BLACK
6
CONTINUOUS
10
0.77622
20
0.645708
11
0.77622
21
0.73
0
LINE
8
BLACK
6
CONTINUOUS
10
0.77622
20
0.73
11
0.77622
21
0.73
0
LINE
8
BLACK
6
CONTINUOUS
10
0.77622
20
0.73
11
0.77622
21
0.771142
0
LINE
8
BLACK
6
CONTINUOUS
10
0.77622
20
0.771142
11
0.682943
21
0.771142
0
LINE
8
BLACK
6
CONTINUOUS
10
0.682943
20
0.771142
11
0.68274
21
0.770744
0
LINE
8
BLACK
6
CONTINUOUS
10
0.68274
20
0.770744
11
0.679256
21
0.76726
0
LINE
8
BLACK
6
CONTINUOUS
10
0.679256
20
0.76726
11
0.674866
21
0.765023
0
LINE
8
BLACK
6
CONTINUOUS
10
0.674866
20
0.765023
11
0.67
21
0.764252
0
LINE
8
BLACK
6
CONTINUOUS
10
0.67
20
0.764252
11
0.665134
21
0.765023
0
LINE
8
BLACK
6
CONTINUOUS
10
0.665134
20
0.765023
11
0.660744
21
0.76726
0
LINE
8
BLACK
6
CONTINUOUS
10
0.660744
20
0.76726
11
0.65726
21
0.770744
0
LINE
8
BLACK
6
CONTINUOUS
10
0.65726
20
0.770744
11
0.657057
21
0.771142
0
LINE
8
BLACK
6
CONTINUOUS
10
0.657057
20
0.771142
11
0.623669
21
0.771142
0
LINE
8
BLACK
6
CONTINUOUS
10
0.623669
20
0.771142
11
0.578632
21
0.726105
0
LINE
8
BLACK
6
CONTINUOUS
10
0.578632
20
0.726105
11
0.578888
21
0.725546
0
LINE
8
BLACK
6
CONTINUOUS
10
0.578888
20
0.725546
11
0.579685
21
0.72
0
LINE
8
BLACK
6
CONTINUOUS
10
0.579685
20
0.72
11
0.578888
21
0.714454
0
LINE
8
BLACK
6
CONTINUOUS
10
0.578888
20
0.714454
11
0.57656
21
0.709357
0
LINE
8
BLACK
6
CONTINUOUS
10
0.57656
20
0.709357
11
0.572891
21
0.705123
0
LINE
8
BLACK
6
CONTINUOUS
10
0.572891
20
0.705123
11
0.568177
21
0.702094
0
LINE
8
BLACK
6
CONTINUOUS
10
0.568177
20
0.702094
11
0.562801
21
0.700515
0
LINE
8
BLACK
6
CONTINUOUS
10
0.562801
20
0.700515
11
0.557199
21
0.700515
0
LINE
8
BLACK
6
CONTINUOUS
10
0.557199
20
0.700515
11
0.551823
21
0.702094
0
LINE
8
BLACK
6
CONTINUOUS
10
0.551823
20
0.702094
11
0.547109
21
0.705123
0
LINE
8
BLACK
6
CONTINUOUS
10
0.547109
20
0.705123
11
0.54344
21
0.709357
0
LINE
8
BLACK
6
CONTINUOUS
10
0.54344
20
0.709357
11
0.541112
21
0.714454
0
LINE
8
BLACK
6
CONTINUOUS
10
0.541112
20
0.714454
11
0.540315
21
0.72
0
LINE
8
BLACK
6
CONTINUOUS
10
0.540315
20
0.72
11
0.541112
21
0.725546
0
LINE
8
BLACK
6
CONTINUOUS
10
0.541112
20
0.725546
11
0.54344
21
0.730643
0
LINE
8
BLACK
6
CONTINUOUS
10
0.54344
20
0.730643
11
0.547109
21
0.734877
0
LINE
8
BLACK
6
CONTINUOUS
10
0.547109
20
0.734877
11
0.551823
21
0.737906
0
LINE
8
BLACK
6
CONTINUOUS
10
0.551823
20
0.737906
11
0.557199
21
0.739485
0
LINE
8
BLACK
6
CONTINUOUS
10
0.557199
20
0.739485
11
0.562801
21
0.739485
0
LINE
8
BLACK
6
CONTINUOUS
10
0.562801
20
0.739485
11
0.566014
21
0.738541
0
LINE
8
BLACK
6
CONTINUOUS
10
0.566014
20
0.738541
11
0.613736
21
0.786264
0
LINE
8
BLACK
6
CONTINUOUS
10
0.613736
20
0.786264
11
0.615175
21
0.787429
0
LINE
8
BLACK
6
CONTINUOUS
10
0.615175
20
0.787429
11
0.61583
21
0.78768
0
LINE
8
BLACK
6
CONTINUOUS
10
0.61583
20
0.78768
11
0.616397
21
0.788092
0
LINE
8
BLACK
6
CONTINUOUS
10
0.616397
20
0.788092
11
0.617532
21
0.788334
0
LINE
8
BLACK
6
CONTINUOUS
10
0.617532
20
0.788334
11
0.618614
21
0.788749
0
LINE
8
BLACK
6
CONTINUOUS
10
0.618614
20
0.788749
11
0.619314
21
0.788713
0
LINE
8
BLACK
6
CONTINUOUS
10
0.619314
20
0.788713
11
0.62
21
0.788858
0
LINE
8
BLACK
6
CONTINUOUS
10
0.62
20
0.788858
11
0.657057
21
0.788858
0
LINE
8
BLACK
6
CONTINUOUS
10
0.657057
20
0.788858
11
0.65726
21
0.789256
0
LINE
8
BLACK
6
CONTINUOUS
10
0.65726
20
0.789256
11
0.660744
21
0.79274
0
LINE
8
BLACK
6
CONTINUOUS
10
0.660744
20
0.79274
11
0.665134
21
0.794977
0
LINE
8
BLACK
6
CONTINUOUS
10
0.665134
20
0.794977
11
0.67
21
0.795748
0
LINE
8
BLACK
6
CONTINUOUS
10
0.67
20
0.795748
11
0.674866
21
0.794977
0
LINE
8
BLACK
6
CONTINUOUS
10
0.674866
20
0.794977
11
0.679256
21
0.79274
0
LINE
8
BLACK
6
CONTINUOUS
10
0.679256
20
0.79274
11
0.68274
21
0.789256
0
LINE
8
BLACK
6
CONTINUOUS
10
0.68274
20
0.789256
11
0.682943
21
0.788858
0
LINE
8
BLACK
6
CONTINUOUS
10
0.682943
20
0.788858
11
0.77622
21
0.788858
0
LINE
8
BLACK
6
CONTINUOUS
10
0.77622
20
0.788858
11
0.77622
21
0.987769
0
LINE
8
BLACK
6
CONTINUOUS
10
0.77622
20
0.987769
11
0.76
21
0.987769
0
LINE
8
BLACK
6
CONTINUOUS
10
0.76
20
0.987769
11
0.76
21
1.04777
0
LINE
8
BLACK
6
CONTINUOUS
10
0.76
20
1.04777
11
0.82
21
1.04777
0
LINE
8
BLACK
6
CONTINUOUS
10
0.82
20
1.04777
11
0.82
21
0.987769
0
LINE
8
BLACK
6
CONTINUOUS
10
1.03
20
0.095
11
0.97
21
0.095
0
LINE
8
BLACK
6
CONTINUOUS
10
0.97
20
0.095
11
0.97
21
0.155
0
LINE
8
BLACK
6
CONTINUOUS
10
0.97
20
0.155
11
1.03
21
0.155
0
LINE
8
BLACK
6
CONTINUOUS
10
1.03
20
0.155
11
1.03
21
0.095
0
LINE
8
BLACK
6
CONTINUOUS
10
1.13
20
0.195
11
1.11
21
0.195
0
LINE
8
BLACK
6
CONTINUOUS
10
1.11
20
0.195
11
1.11
21
0.155
0
LINE
8
BLACK
6
CONTINUOUS
10
1.11
20
0.155
11
1.13
21
0.155
0
LINE
8
BLACK
6
CONTINUOUS
10
1.13
20
0.155
11
1.13
21
0.135
0
LINE
8
BLACK
6
CONTINUOUS
10
1.13
20
0.135
11
1.15
21
0.135
0
LINE
8
BLACK
6
CONTINUOUS
10
1.15
20
0.135
11
1.15
21
0.156913
0
LINE
8
BLACK
6
CONTINUOUS
10
1.15
20
0.156913
11
1.15
21
0.156913
0
LINE
8
BLACK
6
CONTINUOUS
10
1.15
20
0.156913
11
1.14974
21
0.159295
0
LINE
8
BLACK
6
CONTINUOUS
10
1.14974
20
0.159295
11
1.14773
21
0.164684
0
LINE
8
BLACK
6
CONTINUOUS
10
1.14773
20
0.164684
11
1.14773
21
0.164684
0
LINE
8
BLACK
6
CONTINUOUS
10
1.14773
20
0.164684
11
1.14429
21
0.169288
0
LINE
8
BLACK
6
CONTINUOUS
10
1.14429
20
0.169288
11
1.14196
21
0.171029
0
LINE
8
BLACK
6
CONTINUOUS
10
1.14196
20
0.171029
11
1.14029
21
0.173266
0
LINE
8
BLACK
6
CONTINUOUS
10
1.14029
20
0.173266
11
1.14009
21
0.176054
0
LINE
8
BLACK
6
CONTINUOUS
10
1.14009
20
0.176054
11
1.14143
21
0.178508
0
LINE
8
BLACK
6
CONTINUOUS
10
1.14143
20
0.178508
11
1.14196
21
0.178971
0
LINE
8
BLACK
6
CONTINUOUS
10
1.14196
20
0.178971
11
1.14429
21
0.180712
0
LINE
8
BLACK
6
CONTINUOUS
10
1.14429
20
0.180712
11
1.14773
21
0.185316
0
LINE
8
BLACK
6
CONTINUOUS
10
1.14773
20
0.185316
11
1.14773
21
0.185316
0
LINE
8
BLACK
6
CONTINUOUS
10
1.14773
20
0.185316
11
1.14974
21
0.190705
0
LINE
8
BLACK
6
CONTINUOUS
10
1.14974
20
0.190705
11
1.15
21
0.193087
0
LINE
8
BLACK
6
CONTINUOUS
10
1.15
20
0.193087
11
1.15
21
0.193087
0
LINE
8
BLACK
6
CONTINUOUS
10
1.15
20
0.193087
11
1.15
21
0.215
0
LINE
8
BLACK
6
CONTINUOUS
10
1.15
20
0.215
11
1.13
21
0.215
0
LINE
8
BLACK
6
CONTINUOUS
10
1.13
20
0.215
11
1.13
21
0.195
0
LINE
8
BLACK
6
CONTINUOUS
10
0.85
20
0.215
11
0.85
21
0.193087
0
LINE
8
BLACK
6
CONTINUOUS
10
0.85
20
0.193087
11
0.850256
21
0.190705
0
LINE
8
BLACK
6
CONTINUOUS
10
0.850256
20
0.190705
11
0.852266
21
0.185316
0
LINE
8
BLACK
6
CONTINUOUS
10
0.852266
20
0.185316
11
0.852266
21
0.185316
0
LINE
8
BLACK
6
CONTINUOUS
10
0.852266
20
0.185316
11
0.855712
21
0.180713
0
LINE
8
BLACK
6
CONTINUOUS
10
0.855712
20
0.180713
11
0.858038
21
0.178971
0
LINE
8
BLACK
6
CONTINUOUS
10
0.858038
20
0.178971
11
0.859714
21
0.176734
0
LINE
8
BLACK
6
CONTINUOUS
10
0.859714
20
0.176734
11
0.859913
21
0.173946
0
LINE
8
BLACK
6
CONTINUOUS
10
0.859913
20
0.173946
11
0.858573
21
0.171492
0
LINE
8
BLACK
6
CONTINUOUS
10
0.858573
20
0.171492
11
0.858038
21
0.171029
0
LINE
8
BLACK
6
CONTINUOUS
10
0.858038
20
0.171029
11
0.855712
21
0.169288
0
LINE
8
BLACK
6
CONTINUOUS
10
0.855712
20
0.169288
11
0.852266
21
0.164684
0
LINE
8
BLACK
6
CONTINUOUS
10
0.852266
20
0.164684
11
0.852266
21
0.164684
0
LINE
8
BLACK
6
CONTINUOUS
10
0.852266
20
0.164684
11
0.850256
21
0.159295
0
LINE
8
BLACK
6
CONTINUOUS
10
0.850256
20
0.159295
11
0.85
21
0.156913
0
LINE
8
BLACK
6
CONTINUOUS
10
0.85
20
0.156913
11
0.85
21
0.135
0
LINE
8
BLACK
6
CONTINUOUS
10
0.85
20
0.135
11
0.87
21
0.135
0
LINE
8
BLACK
6
CONTINUOUS
10
0.87
20
0.135
11
0.87
21
0.155
0
LINE
8
BLACK
6
CONTINUOUS
10
0.87
20
0.155
11
0.89
21
0.155
0
LINE
8
BLACK
6
CONTINUOUS
10
0.89
20
0.155
11
0.89
21
0.195
0
LINE
8
BLACK
6
CONTINUOUS
10
0.89
20
0.195
11
0.87
21
0.195
0
LINE
8
BLACK
6
CONTINUOUS
10
0.87
20
0.195
11
0.87
21
0.215
0
LINE
8
BLACK
6
CONTINUOUS
10
0.87
20
0.215
11
0.85
21
0.215
0
LINE
8
BLACK
6
CONTINUOUS
10
0.68
20
0.195
11
0.62
21
0.195
0
LINE
8
BLACK
6
CONTINUOUS
10
0.62
20
0.195
11
0.62
21
0.255
0
LINE
8
BLACK
6
CONTINUOUS
10
0.62
20
0.255
11
0.68
21
0.255
0
LINE
8
BLACK
6
CONTINUOUS
10
0.68
20
0.255
11
0.68
21
0.195
0
LINE
8
BLACK
6
CONTINUOUS
10
1.11
20
0.255
11
1.13
21
0.255
0
LINE
8
BLACK
6
CONTINUOUS
10
1.13
20
0.255
11
1.13
21
0.235
0
LINE
8
BLACK
6
CONTINUOUS
10
1.13
20
0.235
11
1.15
21
0.235
0
LINE
8
BLACK
6
CONTINUOUS
10
1.15
20
0.235
11
1.15
21
0.256913
0
LINE
8
BLACK
6
CONTINUOUS
10
1.15
20
0.256913
11
1.15
21
0.256913
0
LINE
8
BLACK
6
CONTINUOUS
10
1.15
20
0.256913
11
1.14974
21
0.259295
0
LINE
8
BLACK
6
CONTINUOUS
10
1.14974
20
0.259295
11
1.14773
21
0.264684
0
LINE
8
BLACK
6
CONTINUOUS
10
1.14773
20
0.264684
11
1.14773
21
0.264684
0
LINE
8
BLACK
6
CONTINUOUS
10
1.14773
20
0.264684
11
1.14429
21
0.269288
0
LINE
8
BLACK
6
CONTINUOUS
10
1.14429
20
0.269288
11
1.13968
21
0.272734
0
LINE
8
BLACK
6
CONTINUOUS
10
1.13968
20
0.272734
11
1.1343
21
0.274744
0
LINE
8
BLACK
6
CONTINUOUS
10
1.1343
20
0.274744
11
1.13191
21
0.275
0
LINE
8
BLACK
6
CONTINUOUS
10
1.13191
20
0.275
11
1.11
21
0.275
0
LINE
8
BLACK
6
CONTINUOUS
10
1.11
20
0.275
11
1.11
21
0.255
0
LINE
8
BLACK
6
CONTINUOUS
10
0.865705
20
0.274744
11
0.860316
21
0.272734
0
LINE
8
BLACK
6
CONTINUOUS
10
0.860316
20
0.272734
11
0.860316
21
0.272734
0
LINE
8
BLACK
6
CONTINUOUS
10
0.860316
20
0.272734
11
0.855712
21
0.269288
0
LINE
8
BLACK
6
CONTINUOUS
10
0.855712
20
0.269288
11
0.852266
21
0.264684
0
LINE
8
BLACK
6
CONTINUOUS
10
0.852266
20
0.264684
11
0.852266
21
0.264684
0
LINE
8
BLACK
6
CONTINUOUS
10
0.852266
20
0.264684
11
0.850256
21
0.259295
0
LINE
8
BLACK
6
CONTINUOUS
10
0.850256
20
0.259295
11
0.85
21
0.256913
0
LINE
8
BLACK
6
CONTINUOUS
10
0.85
20
0.256913
11
0.85
21
0.235
0
LINE
8
BLACK
6
CONTINUOUS
10
0.85
20
0.235
11
0.87
21
0.235
0
LINE
8
BLACK
6
CONTINUOUS
10
0.87
20
0.235
11
0.87
21
0.255
0
LINE
8
BLACK
6
CONTINUOUS
10
0.87
20
0.255
11
0.89
21
0.255
0
LINE
8
BLACK
6
CONTINUOUS
10
0.89
20
0.255
11
0.89
21
0.275
0
LINE
8
BLACK
6
CONTINUOUS
10
0.89
20
0.275
11
0.868087
21
0.275
0
LINE
8
BLACK
6
CONTINUOUS
10
0.868087
20
0.275
11
0.865705
21
0.274744
0
LINE
8
BLACK
6
CONTINUOUS
10
1.2
20
0.99
11
1.17886
21
0.99
0
LINE
8
BLACK
6
CONTINUOUS
10
1.17886
20
0.99
11
1.17886
21
0.86
0
LINE
8
BLACK
6
CONTINUOUS
10
1.17886
20
0.86
11
1.17866
21
0.858158
0
LINE
8
BLACK
6
CONTINUOUS
10
1.17866
20
0.858158
11
1.17838
21
0.857518
0
LINE
8
BLACK
6
CONTINUOUS
10
1.17838
20
0.857518
11
1.17827
21
0.856825
0
LINE
8
BLACK
6
CONTINUOUS
10
1.17827
20
0.856825
11
1.17764
21
0.855853
0
LINE
8
BLACK
6
CONTINUOUS
10
1.17764
20
0.855853
11
1.17717
21
0.854793
0
LINE
8
BLACK
6
CONTINUOUS
10
1.17717
20
0.854793
11
1.17665
21
0.854324
0
LINE
8
BLACK
6
CONTINUOUS
10
1.17665
20
0.854324
11
1.17626
21
0.853736
0
LINE
8
BLACK
6
CONTINUOUS
10
1.17626
20
0.853736
11
0.805308
21
0.48278
0
LINE
8
BLACK
6
CONTINUOUS
10
0.805308
20
0.48278
11
0.805748
21
0.48
0
LINE
8
BLACK
6
CONTINUOUS
10
0.805748
20
0.48
11
0.804977
21
0.475134
0
LINE
8
BLACK
6
CONTINUOUS
10
0.804977
20
0.475134
11
0.80274
21
0.470744
0
LINE
8
BLACK
6
CONTINUOUS
10
0.80274
20
0.470744
11
0.799256
21
0.46726
0
LINE
8
BLACK
6
CONTINUOUS
10
0.799256
20
0.46726
11
0.794866
21
0.465023
0
LINE
8
BLACK
6
CONTINUOUS
10
0.794866
20
0.465023
11
0.79
21
0.464252
0
LINE
8
BLACK
6
CONTINUOUS
10
0.79
20
0.464252
11
0.785134
21
0.465023
0
LINE
8
BLACK
6
CONTINUOUS
10
0.785134
20
0.465023
11
0.780744
21
0.46726
0
LINE
8
BLACK
6
CONTINUOUS
10
0.780744
20
0.46726
11
0.77726
21
0.470744
0
LINE
8
BLACK
6
CONTINUOUS
10
0.77726
20
0.470744
11
0.775023
21
0.475134
0
LINE
8
BLACK
6
CONTINUOUS
10
0.775023
20
0.475134
11
0.774252
21
0.48
0
LINE
8
BLACK
6
CONTINUOUS
10
0.774252
20
0.48
11
0.775023
21
0.484866
0
LINE
8
BLACK
6
CONTINUOUS
10
0.775023
20
0.484866
11
0.77726
21
0.489256
0
LINE
8
BLACK
6
CONTINUOUS
10
0.77726
20
0.489256
11
0.780744
21
0.49274
0
LINE
8
BLACK
6
CONTINUOUS
10
0.780744
20
0.49274
11
0.785134
21
0.494977
0
LINE
8
BLACK
6
CONTINUOUS
10
0.785134
20
0.494977
11
0.79
21
0.495748
0
LINE
8
BLACK
6
CONTINUOUS
10
0.79
20
0.495748
11
0.79278
21
0.495308
0
LINE
8
BLACK
6
CONTINUOUS
10
0.79278
20
0.495308
11
1.16114
21
0.863669
0
LINE
8
BLACK
6
CONTINUOUS
10
1.16114
20
0.863669
11
1.16114
21
0.99
0
LINE
8
BLACK
6
CONTINUOUS
10
1.16114
20
0.99
11
1.14
21
0.99
0
LINE
8
BLACK
6
CONTINUOUS
10
1.14
20
0.99
11
1.14
21
1.05
0
LINE
8
BLACK
6
CONTINUOUS
10
1.14
20
1.05
11
1.2
21
1.05
0
LINE
8
BLACK
6
CONTINUOUS
10
1.2
20
1.05
11
1.2
21
0.99
0
LINE
8
BLACK
6
CONTINUOUS
10
1.27184
20
0.668665
11
1.27248
21
0.66838
0
LINE
8
BLACK
6
CONTINUOUS
10
1.27248
20
0.66838
11
1.27317
21
0.66827
0
LINE
8
BLACK
6
CONTINUOUS
10
1.27317
20
0.66827
11
1.27415
21
0.667638
0
LINE
8
BLACK
6
CONTINUOUS
10
1.27415
20
0.667638
11
1.27521
21
0.667166
0
LINE
8
BLACK
6
CONTINUOUS
10
1.27521
20
0.667166
11
1.27568
21
0.666646
0
LINE
8
BLACK
6
CONTINUOUS
10
1.27568
20
0.666646
11
1.27626
21
0.666264
0
LINE
8
BLACK
6
CONTINUOUS
10
1.27626
20
0.666264
11
1.31253
21
0.63
0
LINE
8
BLACK
6
CONTINUOUS
10
1.31253
20
0.63
11
1.37
21
0.63
0
LINE
8
BLACK
6
CONTINUOUS
10
1.37
20
0.63
11
1.37
21
0.57
0
LINE
8
BLACK
6
CONTINUOUS
10
1.37
20
0.57
11
1.31
21
0.57
0
LINE
8
BLACK
6
CONTINUOUS
10
1.31
20
0.57
11
1.31
21
0.607473
0
LINE
8
BLACK
6
CONTINUOUS
10
1.31
20
0.607473
11
1.26633
21
0.651142
0
LINE
8
BLACK
6
CONTINUOUS
10
1.26633
20
0.651142
11
1.02367
21
0.651142
0
LINE
8
BLACK
6
CONTINUOUS
10
1.02367
20
0.651142
11
0.966264
21
0.593736
0
LINE
8
BLACK
6
CONTINUOUS
10
0.966264
20
0.593736
11
0.966264
21
0.593736
0
LINE
8
BLACK
6
CONTINUOUS
10
0.966264
20
0.593736
11
0.855308
21
0.48278
0
LINE
8
BLACK
6
CONTINUOUS
10
0.855308
20
0.48278
11
0.855748
21
0.48
0
LINE
8
BLACK
6
CONTINUOUS
10
0.855748
20
0.48
11
0.854977
21
0.475134
0
LINE
8
BLACK
6
CONTINUOUS
10
0.854977
20
0.475134
11
0.85274
21
0.470744
0
LINE
8
BLACK
6
CONTINUOUS
10
0.85274
20
0.470744
11
0.849256
21
0.46726
0
LINE
8
BLACK
6
CONTINUOUS
10
0.849256
20
0.46726
11
0.844866
21
0.465023
0
LINE
8
BLACK
6
CONTINUOUS
10
0.844866
20
0.465023
11
0.84
21
0.464252
0
LINE
8
BLACK
6
CONTINUOUS
10
0.84
20
0.464252
11
0.835134
21
0.465023
0
LINE
8
BLACK
6
CONTINUOUS
10
0.835134
20
0.465023
11
0.830744
21
0.46726
0
LINE
8
BLACK
6
CONTINUOUS
10
0.830744
20
0.46726
11
0.82726
21
0.470744
0
LINE
8
BLACK
6
CONTINUOUS
10
0.82726
20
0.470744
11
0.825023
21
0.475134
0
LINE
8
BLACK
6
CONTINUOUS
10
0.825023
20
0.475134
11
0.824252
21
0.48
0
LINE
8
BLACK
6
CONTINUOUS
10
0.824252
20
0.48
11
0.825023
21
0.484866
0
LINE
8
BLACK
6
CONTINUOUS
10
0.825023
20
0.484866
11
0.82726
21
0.489256
0
LINE
8
BLACK
6
CONTINUOUS
10
0.82726
20
0.489256
11
0.830744
21
0.49274
0
LINE
8
BLACK
6
CONTINUOUS
10
0.830744
20
0.49274
11
0.835134
21
0.494977
0
LINE
8
BLACK
6
CONTINUOUS
10
0.835134
20
0.494977
11
0.84
21
0.495748
0
LINE
8
BLACK
6
CONTINUOUS
10
0.84
20
0.495748
11
0.84278
21
0.495308
0
LINE
8
BLACK
6
CONTINUOUS
10
0.84278
20
0.495308
11
0.953736
21
0.606264
0
LINE
8
BLACK
6
CONTINUOUS
10
0.953736
20
0.606264
11
0.953736
21
0.606264
0
LINE
8
BLACK
6
CONTINUOUS
10
0.953736
20
0.606264
11
1.01374
21
0.666264
0
LINE
8
BLACK
6
CONTINUOUS
10
1.01374
20
0.666264
11
1.01518
21
0.667429
0
LINE
8
BLACK
6
CONTINUOUS
10
1.01518
20
0.667429
11
1.01583
21
0.66768
0
LINE
8
BLACK
6
CONTINUOUS
10
1.01583
20
0.66768
11
1.0164
21
0.668092
0
LINE
8
BLACK
6
CONTINUOUS
10
1.0164
20
0.668092
11
1.01753
21
0.668334
0
LINE
8
BLACK
6
CONTINUOUS
10
1.01753
20
0.668334
11
1.01861
21
0.668749
0
LINE
8
BLACK
6
CONTINUOUS
10
1.01861
20
0.668749
11
1.01931
21
0.668713
0
LINE
8
BLACK
6
CONTINUOUS
10
1.01931
20
0.668713
11
1.02
21
0.668858
0
LINE
8
BLACK
6
CONTINUOUS
10
1.02
20
0.668858
11
1.27
21
0.668858
0
LINE
8
BLACK
6
CONTINUOUS
10
1.27
20
0.668858
11
1.27184
21
0.668665
0
LINE
8
BLACK
6
CONTINUOUS
10
0.92
20
0.987769
11
0.898858
21
0.987769
0
LINE
8
BLACK
6
CONTINUOUS
10
0.898858
20
0.987769
11
0.898858
21
0.63
0
LINE
8
BLACK
6
CONTINUOUS
10
0.898858
20
0.63
11
0.898665
21
0.628158
0
LINE
8
BLACK
6
CONTINUOUS
10
0.898665
20
0.628158
11
0.89838
21
0.627518
0
LINE
8
BLACK
6
CONTINUOUS
10
0.89838
20
0.627518
11
0.89827
21
0.626825
0
LINE
8
BLACK
6
CONTINUOUS
10
0.89827
20
0.626825
11
0.897638
21
0.625853
0
LINE
8
BLACK
6
CONTINUOUS
10
0.897638
20
0.625853
11
0.897166
21
0.624793
0
LINE
8
BLACK
6
CONTINUOUS
10
0.897166
20
0.624793
11
0.896646
21
0.624324
0
LINE
8
BLACK
6
CONTINUOUS
10
0.896646
20
0.624324
11
0.896264
21
0.623736
0
LINE
8
BLACK
6
CONTINUOUS
10
0.896264
20
0.623736
11
0.826264
21
0.553736
0
LINE
8
BLACK
6
CONTINUOUS
10
0.826264
20
0.553736
11
0.824825
21
0.552571
0
LINE
8
BLACK
6
CONTINUOUS
10
0.824825
20
0.552571
11
0.824183
21
0.552324
0
LINE
8
BLACK
6
CONTINUOUS
10
0.824183
20
0.552324
11
0.777406
21
0.505547
0
LINE
8
BLACK
6
CONTINUOUS
10
0.777406
20
0.505547
11
0.775966
21
0.504382
0
LINE
8
BLACK
6
CONTINUOUS
10
0.775966
20
0.504382
11
0.775312
21
0.504131
0
LINE
8
BLACK
6
CONTINUOUS
10
0.775312
20
0.504131
11
0.774745
21
0.503719
0
LINE
8
BLACK
6
CONTINUOUS
10
0.774745
20
0.503719
11
0.77361
21
0.503477
0
LINE
8
BLACK
6
CONTINUOUS
10
0.77361
20
0.503477
11
0.772528
21
0.503062
0
LINE
8
BLACK
6
CONTINUOUS
10
0.772528
20
0.503062
11
0.771827
21
0.503098
0
LINE
8
BLACK
6
CONTINUOUS
10
0.771827
20
0.503098
11
0.771142
21
0.502953
0
LINE
8
BLACK
6
CONTINUOUS
10
0.771142
20
0.502953
11
0.76548
21
0.502953
0
LINE
8
BLACK
6
CONTINUOUS
10
0.76548
20
0.502953
11
0.765308
21
0.50278
0
LINE
8
BLACK
6
CONTINUOUS
10
0.765308
20
0.50278
11
0.765748
21
0.5
0
LINE
8
BLACK
6
CONTINUOUS
10
0.765748
20
0.5
11
0.764977
21
0.495134
0
LINE
8
BLACK
6
CONTINUOUS
10
0.764977
20
0.495134
11
0.76274
21
0.490744
0
LINE
8
BLACK
6
CONTINUOUS
10
0.76274
20
0.490744
11
0.759256
21
0.48726
0
LINE
8
BLACK
6
CONTINUOUS
10
0.759256
20
0.48726
11
0.754866
21
0.485023
0
LINE
8
BLACK
6
CONTINUOUS
10
0.754866
20
0.485023
11
0.75
21
0.484252
0
LINE
8
BLACK
6
CONTINUOUS
10
0.75
20
0.484252
11
0.745134
21
0.485023
0
LINE
8
BLACK
6
CONTINUOUS
10
0.745134
20
0.485023
11
0.740744
21
0.48726
0
LINE
8
BLACK
6
CONTINUOUS
10
0.740744
20
0.48726
11
0.73726
21
0.490744
0
LINE
8
BLACK
6
CONTINUOUS
10
0.73726
20
0.490744
11
0.735023
21
0.495134
0
LINE
8
BLACK
6
CONTINUOUS
10
0.735023
20
0.495134
11
0.734252
21
0.5
0
LINE
8
BLACK
6
CONTINUOUS
10
0.734252
20
0.5
11
0.735023
21
0.504866
0
LINE
8
BLACK
6
CONTINUOUS
10
0.735023
20
0.504866
11
0.73726
21
0.509256
0
LINE
8
BLACK
6
CONTINUOUS
10
0.73726
20
0.509256
11
0.740744
21
0.51274
0
LINE
8
BLACK
6
CONTINUOUS
10
0.740744
20
0.51274
11
0.745134
21
0.514977
0
LINE
8
BLACK
6
CONTINUOUS
10
0.745134
20
0.514977
11
0.75
21
0.515748
0
LINE
8
BLACK
6
CONTINUOUS
10
0.75
20
0.515748
11
0.75278
21
0.515308
0
LINE
8
BLACK
6
CONTINUOUS
10
0.75278
20
0.515308
11
0.755547
21
0.518075
0
LINE
8
BLACK
6
CONTINUOUS
10
0.755547
20
0.518075
11
0.756986
21
0.51924
0
LINE
8
BLACK
6
CONTINUOUS
10
0.756986
20
0.51924
11
0.757641
21
0.519491
0
LINE
8
BLACK
6
CONTINUOUS
10
0.757641
20
0.519491
11
0.758208
21
0.519903
0
LINE
8
BLACK
6
CONTINUOUS
10
0.758208
20
0.519903
11
0.759343
21
0.520145
0
LINE
8
BLACK
6
CONTINUOUS
10
0.759343
20
0.520145
11
0.760425
21
0.52056
0
LINE
8
BLACK
6
CONTINUOUS
10
0.760425
20
0.52056
11
0.761125
21
0.520524
0
LINE
8
BLACK
6
CONTINUOUS
10
0.761125
20
0.520524
11
0.761811
21
0.520669
0
LINE
8
BLACK
6
CONTINUOUS
10
0.761811
20
0.520669
11
0.767473
21
0.520669
0
LINE
8
BLACK
6
CONTINUOUS
10
0.767473
20
0.520669
11
0.813067
21
0.566264
0
LINE
8
BLACK
6
CONTINUOUS
10
0.813067
20
0.566264
11
0.814506
21
0.567429
0
LINE
8
BLACK
6
CONTINUOUS
10
0.814506
20
0.567429
11
0.815148
21
0.567676
0
LINE
8
BLACK
6
CONTINUOUS
10
0.815148
20
0.567676
11
0.881142
21
0.633669
0
LINE
8
BLACK
6
CONTINUOUS
10
0.881142
20
0.633669
11
0.881142
21
0.987769
0
LINE
8
BLACK
6
CONTINUOUS
10
0.881142
20
0.987769
11
0.86
21
0.987769
0
LINE
8
BLACK
6
CONTINUOUS
10
0.86
20
0.987769
11
0.86
21
1.04777
0
LINE
8
BLACK
6
CONTINUOUS
10
0.86
20
1.04777
11
0.92
21
1.04777
0
LINE
8
BLACK
6
CONTINUOUS
10
0.92
20
1.04777
11
0.92
21
0.987769
0
LINE
8
BLACK
6
CONTINUOUS
10
1.47
20
0.57
11
1.41
21
0.57
0
LINE
8
BLACK
6
CONTINUOUS
10
1.41
20
0.57
11
1.41
21
0.63
0
LINE
8
BLACK
6
CONTINUOUS
10
1.41
20
0.63
11
1.47
21
0.63
0
LINE
8
BLACK
6
CONTINUOUS
10
1.47
20
0.63
11
1.47
21
0.57
0
LINE
8
BLACK
6
CONTINUOUS
10
0.854866
20
0.854977
11
0.859256
21
0.85274
0
LINE
8
BLACK
6
CONTINUOUS
10
0.859256
20
0.85274
11
0.86274
21
0.849256
0
LINE
8
BLACK
6
CONTINUOUS
10
0.86274
20
0.849256
11
0.864977
21
0.844866
0
LINE
8
BLACK
6
CONTINUOUS
10
0.864977
20
0.844866
11
0.865748
21
0.84
0
LINE
8
BLACK
6
CONTINUOUS
10
0.865748
20
0.84
11
0.864977
21
0.835134
0
LINE
8
BLACK
6
CONTINUOUS
10
0.864977
20
0.835134
11
0.86274
21
0.830744
0
LINE
8
BLACK
6
CONTINUOUS
10
0.86274
20
0.830744
11
0.859256
21
0.82726
0
LINE
8
BLACK
6
CONTINUOUS
10
0.859256
20
0.82726
11
0.858858
21
0.827057
0
LINE
8
BLACK
6
CONTINUOUS
10
0.858858
20
0.827057
11
0.858858
21
0.63
0
LINE
8
BLACK
6
CONTINUOUS
10
0.858858
20
0.63
11
0.858665
21
0.628158
0
LINE
8
BLACK
6
CONTINUOUS
10
0.858665
20
0.628158
11
0.858312
21
0.627366
0
LINE
8
BLACK
6
CONTINUOUS
10
0.858312
20
0.627366
11
0.858144
21
0.626515
0
LINE
8
BLACK
6
CONTINUOUS
10
0.858144
20
0.626515
11
0.857571
21
0.625702
0
LINE
8
BLACK
6
CONTINUOUS
10
0.857571
20
0.625702
11
0.857166
21
0.624793
0
LINE
8
BLACK
6
CONTINUOUS
10
0.857166
20
0.624793
11
0.856522
21
0.624213
0
LINE
8
BLACK
6
CONTINUOUS
10
0.856522
20
0.624213
11
0.856022
21
0.623504
0
LINE
8
BLACK
6
CONTINUOUS
10
0.856022
20
0.623504
11
0.82225
21
0.592197
0
LINE
8
BLACK
6
CONTINUOUS
10
0.82225
20
0.592197
11
0.822598
21
0.59
0
LINE
8
BLACK
6
CONTINUOUS
10
0.822598
20
0.59
11
0.821827
21
0.585134
0
LINE
8
BLACK
6
CONTINUOUS
10
0.821827
20
0.585134
11
0.81959
21
0.580744
0
LINE
8
BLACK
6
CONTINUOUS
10
0.81959
20
0.580744
11
0.816106
21
0.57726
0
LINE
8
BLACK
6
CONTINUOUS
10
0.816106
20
0.57726
11
0.811716
21
0.575023
0
LINE
8
BLACK
6
CONTINUOUS
10
0.811716
20
0.575023
11
0.80685
21
0.574252
0
LINE
8
BLACK
6
CONTINUOUS
10
0.80685
20
0.574252
11
0.801983
21
0.575023
0
LINE
8
BLACK
6
CONTINUOUS
10
0.801983
20
0.575023
11
0.797593
21
0.57726
0
LINE
8
BLACK
6
CONTINUOUS
10
0.797593
20
0.57726
11
0.794109
21
0.580744
0
LINE
8
BLACK
6
CONTINUOUS
10
0.794109
20
0.580744
11
0.791872
21
0.585134
0
LINE
8
BLACK
6
CONTINUOUS
10
0.791872
20
0.585134
11
0.791102
21
0.59
0
LINE
8
BLACK
6
CONTINUOUS
10
0.791102
20
0.59
11
0.791872
21
0.594866
0
LINE
8
BLACK
6
CONTINUOUS
10
0.791872
20
0.594866
11
0.794109
21
0.599256
0
LINE
8
BLACK
6
CONTINUOUS
10
0.794109
20
0.599256
11
0.797593
21
0.60274
0
LINE
8
BLACK
6
CONTINUOUS
10
0.797593
20
0.60274
11
0.801983
21
0.604977
0
LINE
8
BLACK
6
CONTINUOUS
10
0.801983
20
0.604977
11
0.80685
21
0.605748
0
LINE
8
BLACK
6
CONTINUOUS
10
0.80685
20
0.605748
11
0.81023
21
0.605213
0
LINE
8
BLACK
6
CONTINUOUS
10
0.81023
20
0.605213
11
0.841142
21
0.633867
0
LINE
8
BLACK
6
CONTINUOUS
10
0.841142
20
0.633867
11
0.841142
21
0.827057
0
LINE
8
BLACK
6
CONTINUOUS
10
0.841142
20
0.827057
11
0.840744
21
0.82726
0
LINE
8
BLACK
6
CONTINUOUS
10
0.840744
20
0.82726
11
0.83726
21
0.830744
0
LINE
8
BLACK
6
CONTINUOUS
10
0.83726
20
0.830744
11
0.835023
21
0.835134
0
LINE
8
BLACK
6
CONTINUOUS
10
0.835023
20
0.835134
11
0.834252
21
0.84
0
LINE
8
BLACK
6
CONTINUOUS
10
0.834252
20
0.84
11
0.835023
21
0.844866
0
LINE
8
BLACK
6
CONTINUOUS
10
0.835023
20
0.844866
11
0.83726
21
0.849256
0
LINE
8
BLACK
6
CONTINUOUS
10
0.83726
20
0.849256
11
0.840744
21
0.85274
0
LINE
8
BLACK
6
CONTINUOUS
10
0.840744
20
0.85274
11
0.845134
21
0.854977
0
LINE
8
BLACK
6
CONTINUOUS
10
0.845134
20
0.854977
11
0.85
21
0.855748
0
LINE
8
BLACK
6
CONTINUOUS
10
0.85
20
0.855748
11
0.854866
21
0.854977
0
LINE
8
BLACK
6
CONTINUOUS
10
1.37
20
0.67
11
1.31
21
0.67
0
LINE
8
BLACK
6
CONTINUOUS
10
1.31
20
0.67
11
1.31
21
0.691142
0
LINE
8
BLACK
6
CONTINUOUS
10
1.31
20
0.691142
11
1.09294
21
0.691142
0
LINE
8
BLACK
6
CONTINUOUS
10
1.09294
20
0.691142
11
1.09274
21
0.690744
0
LINE
8
BLACK
6
CONTINUOUS
10
1.09274
20
0.690744
11
1.08926
21
0.68726
0
LINE
8
BLACK
6
CONTINUOUS
10
1.08926
20
0.68726
11
1.08487
21
0.685023
0
LINE
8
BLACK
6
CONTINUOUS
10
1.08487
20
0.685023
11
1.08
21
0.684252
0
LINE
8
BLACK
6
CONTINUOUS
10
1.08
20
0.684252
11
1.07513
21
0.685023
0
LINE
8
BLACK
6
CONTINUOUS
10
1.07513
20
0.685023
11
1.07074
21
0.68726
0
LINE
8
BLACK
6
CONTINUOUS
10
1.07074
20
0.68726
11
1.06726
21
0.690744
0
LINE
8
BLACK
6
CONTINUOUS
10
1.06726
20
0.690744
11
1.06502
21
0.695134
0
LINE
8
BLACK
6
CONTINUOUS
10
1.06502
20
0.695134
11
1.06425
21
0.7
0
LINE
8
BLACK
6
CONTINUOUS
10
1.06425
20
0.7
11
1.06502
21
0.704866
0
LINE
8
BLACK
6
CONTINUOUS
10
1.06502
20
0.704866
11
1.06726
21
0.709256
0
LINE
8
BLACK
6
CONTINUOUS
10
1.06726
20
0.709256
11
1.07074
21
0.71274
0
LINE
8
BLACK
6
CONTINUOUS
10
1.07074
20
0.71274
11
1.07513
21
0.714977
0
LINE
8
BLACK
6
CONTINUOUS
10
1.07513
20
0.714977
11
1.08
21
0.715748
0
LINE
8
BLACK
6
CONTINUOUS
10
1.08
20
0.715748
11
1.08487
21
0.714977
0
LINE
8
BLACK
6
CONTINUOUS
10
1.08487
20
0.714977
11
1.08926
21
0.71274
0
LINE
8
BLACK
6
CONTINUOUS
10
1.08926
20
0.71274
11
1.09274
21
0.709256
0
LINE
8
BLACK
6
CONTINUOUS
10
1.09274
20
0.709256
11
1.09294
21
0.708858
0
LINE
8
BLACK
6
CONTINUOUS
10
1.09294
20
0.708858
11
1.31
21
0.708858
0
LINE
8
BLACK
6
CONTINUOUS
10
1.31
20
0.708858
11
1.31
21
0.73
0
LINE
8
BLACK
6
CONTINUOUS
10
1.31
20
0.73
11
1.37
21
0.73
0
LINE
8
BLACK
6
CONTINUOUS
10
1.37
20
0.73
11
1.37
21
0.67
0
LINE
8
BLACK
6
CONTINUOUS
10
1.47
20
0.67
11
1.41
21
0.67
0
LINE
8
BLACK
6
CONTINUOUS
10
1.41
20
0.67
11
1.41
21
0.73
0
LINE
8
BLACK
6
CONTINUOUS
10
1.41
20
0.73
11
1.47
21
0.73
0
LINE
8
BLACK
6
CONTINUOUS
10
1.47
20
0.73
11
1.47
21
0.67
0
LINE
8
BLACK
6
CONTINUOUS
10
0.54
20
1.00777
11
0.54
21
0.985856
0
LINE
8
BLACK
6
CONTINUOUS
10
0.54
20
0.985856
11
0.540256
21
0.983474
0
LINE
8
BLACK
6
CONTINUOUS
10
0.540256
20
0.983474
11
0.542266
21
0.978085
0
LINE
8
BLACK
6
CONTINUOUS
10
0.542266
20
0.978085
11
0.542266
21
0.978085
0
LINE
8
BLACK
6
CONTINUOUS
10
0.542266
20
0.978085
11
0.545712
21
0.973481
0
LINE
8
BLACK
6
CONTINUOUS
10
0.545712
20
0.973481
11
0.550316
21
0.970035
0
LINE
8
BLACK
6
CONTINUOUS
10
0.550316
20
0.970035
11
0.555705
21
0.968025
0
LINE
8
BLACK
6
CONTINUOUS
10
0.555705
20
0.968025
11
0.558087
21
0.967769
0
LINE
8
BLACK
6
CONTINUOUS
10
0.558087
20
0.967769
11
0.558087
21
0.967769
0
LINE
8
BLACK
6
CONTINUOUS
10
0.558087
20
0.967769
11
0.58
21
0.967769
0
LINE
8
BLACK
6
CONTINUOUS
10
0.58
20
0.967769
11
0.58
21
0.987769
0
LINE
8
BLACK
6
CONTINUOUS
10
0.58
20
0.987769
11
0.56
21
0.987769
0
LINE
8
BLACK
6
CONTINUOUS
10
0.56
20
0.987769
11
0.56
21
1.00777
0
LINE
8
BLACK
6
CONTINUOUS
10
0.56
20
1.00777
11
0.54
21
1.00777
0
LINE
8
BLACK
6
CONTINUOUS
10
1.02
20
0.987769
11
1.00378
21
0.987769
0
LINE
8
BLACK
6
CONTINUOUS
10
1.00378
20
0.987769
11
1.00378
21
0.967769
0
LINE
8
BLACK
6
CONTINUOUS
10
1.00378
20
0.967769
11
1.02191
21
0.967769
0
LINE
8
BLACK
6
CONTINUOUS
10
1.02191
20
0.967769
11
1.02191
21
0.967769
0
LINE
8
BLACK
6
CONTINUOUS
10
1.02191
20
0.967769
11
1.02429
21
0.968025
0
LINE
8
BLACK
6
CONTINUOUS
10
1.02429
20
0.968025
11
1.02968
21
0.970035
0
LINE
8
BLACK
6
CONTINUOUS
10
1.02968
20
0.970035
11
1.02968
21
0.970035
0
LINE
8
BLACK
6
CONTINUOUS
10
1.02968
20
0.970035
11
1.03429
21
0.973481
0
LINE
8
BLACK
6
CONTINUOUS
10
1.03429
20
0.973481
11
1.03773
21
0.978085
0
LINE
8
BLACK
6
CONTINUOUS
10
1.03773
20
0.978085
11
1.03773
21
0.978085
0
LINE
8
BLACK
6
CONTINUOUS
10
1.03773
20
0.978085
11
1.03974
21
0.983474
0
LINE
8
BLACK
6
CONTINUOUS
10
1.03974
20
0.983474
11
1.04
21
0.985856
0
LINE
8
BLACK
6
CONTINUOUS
10
1.04
20
0.985856
11
1.04
21
0.985856
0
LINE
8
BLACK
6
CONTINUOUS
10
1.04
20
0.985856
11
1.04
21
1.00777
0
LINE
8
BLACK
6
CONTINUOUS
10
1.04
20
1.00777
11
1.02
21
1.00777
0
LINE
8
BLACK
6
CONTINUOUS
10
1.02
20
1.00777
11
1.02
21
0.987769
0
LINE
8
BLACK
6
CONTINUOUS
10
0.72
20
0.987769
11
0.66
21
0.987769
0
LINE
8
BLACK
6
CONTINUOUS
10
0.66
20
0.987769
11
0.66
21
1.04777
0
LINE
8
BLACK
6
CONTINUOUS
10
0.66
20
1.04777
11
0.72
21
1.04777
0
LINE
8
BLACK
6
CONTINUOUS
10
0.72
20
1.04777
11
0.72
21
0.987769
0
LINE
8
BLACK
6
CONTINUOUS
10
1.02
20
1.08777
11
1
21
1.08777
0
LINE
8
BLACK
6
CONTINUOUS
10
1
20
1.08777
11
1
21
1.04777
0
LINE
8
BLACK
6
CONTINUOUS
10
1
20
1.04777
11
1.02
21
1.04777
0
LINE
8
BLACK
6
CONTINUOUS
10
1.02
20
1.04777
11
1.02
21
1.02777
0
LINE
8
BLACK
6
CONTINUOUS
10
1.02
20
1.02777
11
1.04
21
1.02777
0
LINE
8
BLACK
6
CONTINUOUS
10
1.04
20
1.02777
11
1.04
21
1.04968
0
LINE
8
BLACK
6
CONTINUOUS
10
1.04
20
1.04968
11
1.04
21
1.04968
0
LINE
8
BLACK
6
CONTINUOUS
10
1.04
20
1.04968
11
1.03974
21
1.05206
0
LINE
8
BLACK
6
CONTINUOUS
10
1.03974
20
1.05206
11
1.03773
21
1.05745
0
LINE
8
BLACK
6
CONTINUOUS
10
1.03773
20
1.05745
11
1.03773
21
1.05745
0
LINE
8
BLACK
6
CONTINUOUS
10
1.03773
20
1.05745
11
1.03429
21
1.06206
0
LINE
8
BLACK
6
CONTINUOUS
10
1.03429
20
1.06206
11
1.03196
21
1.0638
0
LINE
8
BLACK
6
CONTINUOUS
10
1.03196
20
1.0638
11
1.03029
21
1.06604
0
LINE
8
BLACK
6
CONTINUOUS
10
1.03029
20
1.06604
11
1.03009
21
1.06882
0
LINE
8
BLACK
6
CONTINUOUS
10
1.03009
20
1.06882
11
1.03143
21
1.07128
0
LINE
8
BLACK
6
CONTINUOUS
10
1.03143
20
1.07128
11
1.03196
21
1.07174
0
LINE
8
BLACK
6
CONTINUOUS
10
1.03196
20
1.07174
11
1.03429
21
1.07348
0
LINE
8
BLACK
6
CONTINUOUS
10
1.03429
20
1.07348
11
1.03773
21
1.07809
0
LINE
8
BLACK
6
CONTINUOUS
10
1.03773
20
1.07809
11
1.03773
21
1.07809
0
LINE
8
BLACK
6
CONTINUOUS
10
1.03773
20
1.07809
11
1.03974
21
1.08347
0
LINE
8
BLACK
6
CONTINUOUS
10
1.03974
20
1.08347
11
1.04
21
1.08586
0
LINE
8
BLACK
6
CONTINUOUS
10
1.04
20
1.08586
11
1.04
21
1.08586
0
LINE
8
BLACK
6
CONTINUOUS
10
1.04
20
1.08586
11
1.04
21
1.10777
0
LINE
8
BLACK
6
CONTINUOUS
10
1.04
20
1.10777
11
1.02
21
1.10777
0
LINE
8
BLACK
6
CONTINUOUS
10
1.02
20
1.10777
11
1.02
21
1.08777
0
LINE
8
BLACK
6
CONTINUOUS
10
0.54
20
1.10777
11
0.54
21
1.08586
0
LINE
8
BLACK
6
CONTINUOUS
10
0.54
20
1.08586
11
0.540256
21
1.08347
0
LINE
8
BLACK
6
CONTINUOUS
10
0.540256
20
1.08347
11
0.542266
21
1.07809
0
LINE
8
BLACK
6
CONTINUOUS
10
0.542266
20
1.07809
11
0.542266
21
1.07809
0
LINE
8
BLACK
6
CONTINUOUS
10
0.542266
20
1.07809
11
0.545712
21
1.07348
0
LINE
8
BLACK
6
CONTINUOUS
10
0.545712
20
1.07348
11
0.548038
21
1.07174
0
LINE
8
BLACK
6
CONTINUOUS
10
0.548038
20
1.07174
11
0.549714
21
1.0695
0
LINE
8
BLACK
6
CONTINUOUS
10
0.549714
20
1.0695
11
0.549913
21
1.06671
0
LINE
8
BLACK
6
CONTINUOUS
10
0.549913
20
1.06671
11
0.548573
21
1.06426
0
LINE
8
BLACK
6
CONTINUOUS
10
0.548573
20
1.06426
11
0.548038
21
1.0638
0
LINE
8
BLACK
6
CONTINUOUS
10
0.548038
20
1.0638
11
0.545712
21
1.06206
0
LINE
8
BLACK
6
CONTINUOUS
10
0.545712
20
1.06206
11
0.542266
21
1.05745
0
LINE
8
BLACK
6
CONTINUOUS
10
0.542266
20
1.05745
11
0.542266
21
1.05745
0
LINE
8
BLACK
6
CONTINUOUS
10
0.542266
20
1.05745
11
0.540256
21
1.05206
0
LINE
8
BLACK
6
CONTINUOUS
10
0.540256
20
1.05206
11
0.54
21
1.04968
0
LINE
8
BLACK
6
CONTINUOUS
10
0.54
20
1.04968
11
0.54
21
1.02777
0
LINE
8
BLACK
6
CONTINUOUS
10
0.54
20
1.02777
11
0.56
21
1.02777
0
LINE
8
BLACK
6
CONTINUOUS
10
0.56
20
1.02777
11
0.56
21
1.04777
0
LINE
8
BLACK
6
CONTINUOUS
10
0.56
20
1.04777
11
0.58
21
1.04777
0
LINE
8
BLACK
6
CONTINUOUS
10
0.58
20
1.04777
11
0.58
21
1.08777
0
LINE
8
BLACK
6
CONTINUOUS
10
0.58
20
1.08777
11
0.56
21
1.08777
0
LINE
8
BLACK
6
CONTINUOUS
10
0.56
20
1.08777
11
0.56
21
1.10777
0
LINE
8
BLACK
6
CONTINUOUS
10
0.56
20
1.10777
11
0.54
21
1.10777
0
LINE
8
BLACK
6
CONTINUOUS
10
0.72
20
1.08777
11
0.66
21
1.08777
0
LINE
8
BLACK
6
CONTINUOUS
10
0.66
20
1.08777
11
0.66
21
1.14777
0
LINE
8
BLACK
6
CONTINUOUS
10
0.66
20
1.14777
11
0.72
21
1.14777
0
LINE
8
BLACK
6
CONTINUOUS
10
0.72
20
1.14777
11
0.72
21
1.08777
0
LINE
8
BLACK
6
CONTINUOUS
10
0.82
20
1.08777
11
0.76
21
1.08777
0
LINE
8
BLACK
6
CONTINUOUS
10
0.76
20
1.08777
11
0.76
21
1.14777
0
LINE
8
BLACK
6
CONTINUOUS
10
0.76
20
1.14777
11
0.82
21
1.14777
0
LINE
8
BLACK
6
CONTINUOUS
10
0.82
20
1.14777
11
0.82
21
1.08777
0
LINE
8
BLACK
6
CONTINUOUS
10
0.92
20
1.08777
11
0.86
21
1.08777
0
LINE
8
BLACK
6
CONTINUOUS
10
0.86
20
1.08777
11
0.86
21
1.14777
0
LINE
8
BLACK
6
CONTINUOUS
10
0.86
20
1.14777
11
0.92
21
1.14777
0
LINE
8
BLACK
6
CONTINUOUS
10
0.92
20
1.14777
11
0.92
21
1.08777
0
LINE
8
BLACK
6
CONTINUOUS
10
1.2
20
1.09
11
1.14
21
1.09
0
LINE
8
BLACK
6
CONTINUOUS
10
1.14
20
1.09
11
1.14
21
1.15
0
LINE
8
BLACK
6
CONTINUOUS
10
1.14
20
1.15
11
1.2
21
1.15
0
LINE
8
BLACK
6
CONTINUOUS
10
1.2
20
1.15
11
1.2
21
1.09
0
LINE
8
BLACK
6
CONTINUOUS
10
1
20
1.14777
11
1.02
21
1.14777
0
LINE
8
BLACK
6
CONTINUOUS
10
1.02
20
1.14777
11
1.02
21
1.12777
0
LINE
8
BLACK
6
CONTINUOUS
10
1.02
20
1.12777
11
1.04
21
1.12777
0
LINE
8
BLACK
6
CONTINUOUS
10
1.04
20
1.12777
11
1.04
21
1.14968
0
LINE
8
BLACK
6
CONTINUOUS
10
1.04
20
1.14968
11
1.04
21
1.14968
0
LINE
8
BLACK
6
CONTINUOUS
10
1.04
20
1.14968
11
1.03974
21
1.15206
0
LINE
8
BLACK
6
CONTINUOUS
10
1.03974
20
1.15206
11
1.03773
21
1.15745
0
LINE
8
BLACK
6
CONTINUOUS
10
1.03773
20
1.15745
11
1.03773
21
1.15745
0
LINE
8
BLACK
6
CONTINUOUS
10
1.03773
20
1.15745
11
1.03429
21
1.16206
0
LINE
8
BLACK
6
CONTINUOUS
10
1.03429
20
1.16206
11
1.02968
21
1.1655
0
LINE
8
BLACK
6
CONTINUOUS
10
1.02968
20
1.1655
11
1.02429
21
1.16751
0
LINE
8
BLACK
6
CONTINUOUS
10
1.02429
20
1.16751
11
1.02191
21
1.16777
0
LINE
8
BLACK
6
CONTINUOUS
10
1.02191
20
1.16777
11
1
21
1.16777
0
LINE
8
BLACK
6
CONTINUOUS
10
1
20
1.16777
11
1
21
1.14777
0
LINE
8
BLACK
6
CONTINUOUS
10
0.555705
20
1.16751
11
0.550316
21
1.1655
0
LINE
8
BLACK
6
CONTINUOUS
10
0.550316
20
1.1655
11
0.550316
21
1.1655
0
LINE
8
BLACK
6
CONTINUOUS
10
0.550316
20
1.1655
11
0.545712
21
1.16206
0
LINE
8
BLACK
6
CONTINUOUS
10
0.545712
20
1.16206
11
0.542266
21
1.15745
0
LINE
8
BLACK
6
CONTINUOUS
10
0.542266
20
1.15745
11
0.542266
21
1.15745
0
LINE
8
BLACK
6
CONTINUOUS
10
0.542266
20
1.15745
11
0.540256
21
1.15206
0
LINE
8
BLACK
6
CONTINUOUS
10
0.540256
20
1.15206
11
0.54
21
1.14968
0
LINE
8
BLACK
6
CONTINUOUS
10
0.54
20
1.14968
11
0.54
21
1.12777
0
LINE
8
BLACK
6
CONTINUOUS
10
0.54
20
1.12777
11
0.56
21
1.12777
0
LINE
8
BLACK
6
CONTINUOUS
10
0.56
20
1.12777
11
0.56
21
1.14777
0
LINE
8
BLACK
6
CONTINUOUS
10
0.56
20
1.14777
11
0.58
21
1.14777
0
LINE
8
BLACK
6
CONTINUOUS
10
0.58
20
1.14777
11
0.58
21
1.16777
0
LINE
8
BLACK
6
CONTINUOUS
10
0.58
20
1.16777
11
0.558087
21
1.16777
0
LINE
8
BLACK
6
CONTINUOUS
10
0.558087
20
1.16777
11
0.555705
21
1.16751
0
LINE
8
BLACK
6
CONTINUOUS
10
0.52087
20
0.712217
11
0.52087
21
0.712217
0
LINE
8
BLACK
6
CONTINUOUS
10
0.52087
20
0.712217
11
0.52087
21
0.712216
0
LINE
8
BLACK
6
CONTINUOUS
10
0.52087
20
0.712216
11
0.52314
21
0.704732
0
LINE
8
BLACK
6
CONTINUOUS
10
0.52314
20
0.704732
11
0.526827
21
0.697834
0
LINE
8
BLACK
6
CONTINUOUS
10
0.526827
20
0.697834
11
0.531789
21
0.691789
0
LINE
8
BLACK
6
CONTINUOUS
10
0.531789
20
0.691789
11
0.537834
21
0.686827
0
LINE
8
BLACK
6
CONTINUOUS
10
0.537834
20
0.686827
11
0.544732
21
0.68314
0
LINE
8
BLACK
6
CONTINUOUS
10
0.544732
20
0.68314
11
0.552216
21
0.68087
0
LINE
8
BLACK
6
CONTINUOUS
10
0.552216
20
0.68087
11
0.552217
21
0.68087
0
LINE
8
BLACK
6
CONTINUOUS
10
0.552217
20
0.68087
11
0.552217
21
0.68087
0
LINE
8
BLACK
6
CONTINUOUS
10
0.552217
20
0.68087
11
0.56
21
0.680103
0
LINE
8
BLACK
6
CONTINUOUS
10
0.56
20
0.680103
11
0.56
21
0.680103
0
LINE
8
BLACK
6
CONTINUOUS
10
0.56
20
0.680103
11
0.56
21
0.680103
0
LINE
8
BLACK
6
CONTINUOUS
10
0.56
20
0.680103
11
0.567783
21
0.68087
0
LINE
8
BLACK
6
CONTINUOUS
10
0.567783
20
0.68087
11
0.567783
21
0.68087
0
LINE
8
BLACK
6
CONTINUOUS
10
0.567783
20
0.68087
11
0.567784
21
0.68087
0
LINE
8
BLACK
6
CONTINUOUS
10
0.567784
20
0.68087
11
0.575268
21
0.68314
0
LINE
8
BLACK
6
CONTINUOUS
10
0.575268
20
0.68314
11
0.582166
21
0.686827
0
LINE
8
BLACK
6
CONTINUOUS
10
0.582166
20
0.686827
11
0.588211
21
0.691789
0
LINE
8
BLACK
6
CONTINUOUS
10
0.588211
20
0.691789
11
0.593173
21
0.697834
0
LINE
8
BLACK
6
CONTINUOUS
10
0.593173
20
0.697834
11
0.59686
21
0.704732
0
LINE
8
BLACK
6
CONTINUOUS
10
0.59686
20
0.704732
11
0.59913
21
0.712216
0
LINE
8
BLACK
6
CONTINUOUS
10
0.59913
20
0.712216
11
0.59962
21
0.717188
0
LINE
8
BLACK
6
CONTINUOUS
10
0.59962
20
0.717188
11
0.600666
21
0.71978
0
LINE
8
BLACK
6
CONTINUOUS
10
0.600666
20
0.71978
11
0.601049
21
0.720209
0
LINE
8
BLACK
6
CONTINUOUS
10
0.601049
20
0.720209
11
0.630509
21
0.749669
0
LINE
8
BLACK
6
CONTINUOUS
10
0.630509
20
0.749669
11
0.632962
21
0.751009
0
LINE
8
BLACK
6
CONTINUOUS
10
0.632962
20
0.751009
11
0.634016
21
0.751122
0
LINE
8
BLACK
6
CONTINUOUS
10
0.634016
20
0.751122
11
0.647284
21
0.751122
0
LINE
8
BLACK
6
CONTINUOUS
10
0.647284
20
0.751122
11
0.649966
21
0.750335
0
LINE
8
BLACK
6
CONTINUOUS
10
0.649966
20
0.750335
11
0.650199
21
0.750175
0
LINE
8
BLACK
6
CONTINUOUS
10
0.650199
20
0.750175
11
0.650577
21
0.749901
0
LINE
8
BLACK
6
CONTINUOUS
10
0.650577
20
0.749901
11
0.652018
21
0.748854
0
LINE
8
BLACK
6
CONTINUOUS
10
0.652018
20
0.748854
11
0.658886
21
0.745796
0
LINE
8
BLACK
6
CONTINUOUS
10
0.658886
20
0.745796
11
0.666241
21
0.744232
0
LINE
8
BLACK
6
CONTINUOUS
10
0.666241
20
0.744232
11
0.673759
21
0.744232
0
LINE
8
BLACK
6
CONTINUOUS
10
0.673759
20
0.744232
11
0.681114
21
0.745796
0
LINE
8
BLACK
6
CONTINUOUS
10
0.681114
20
0.745796
11
0.687982
21
0.748854
0
LINE
8
BLACK
6
CONTINUOUS
10
0.687982
20
0.748854
11
0.689801
21
0.750175
0
LINE
8
BLACK
6
CONTINUOUS
10
0.689801
20
0.750175
11
0.692433
21
0.751114
0
LINE
8
BLACK
6
CONTINUOUS
10
0.692433
20
0.751114
11
0.692716
21
0.751122
0
LINE
8
BLACK
6
CONTINUOUS
10
0.692716
20
0.751122
11
0.75124
21
0.751122
0
LINE
8
BLACK
6
CONTINUOUS
10
0.75124
20
0.751122
11
0.753922
21
0.750335
0
LINE
8
BLACK
6
CONTINUOUS
10
0.753922
20
0.750335
11
0.755753
21
0.748222
0
LINE
8
BLACK
6
CONTINUOUS
10
0.755753
20
0.748222
11
0.756201
21
0.746161
0
LINE
8
BLACK
6
CONTINUOUS
10
0.756201
20
0.746161
11
0.756201
21
0.656055
0
LINE
8
BLACK
6
CONTINUOUS
10
0.756201
20
0.656055
11
0.755413
21
0.653373
0
LINE
8
BLACK
6
CONTINUOUS
10
0.755413
20
0.653373
11
0.754748
21
0.652547
0
LINE
8
BLACK
6
CONTINUOUS
10
0.754748
20
0.652547
11
0.682734
21
0.580533
0
LINE
8
BLACK
6
CONTINUOUS
10
0.682734
20
0.580533
11
0.682586
21
0.580397
0
LINE
8
BLACK
6
CONTINUOUS
10
0.682586
20
0.580397
11
0.680908
21
0.578971
0
LINE
8
BLACK
6
CONTINUOUS
10
0.680908
20
0.578971
11
0.680908
21
0.578971
0
LINE
8
BLACK
6
CONTINUOUS
10
0.680908
20
0.578971
11
0.67898
21
0.576436
0
LINE
8
BLACK
6
CONTINUOUS
10
0.67898
20
0.576436
11
0.678939
21
0.576383
0
LINE
8
BLACK
6
CONTINUOUS
10
0.678939
20
0.576383
11
0.676944
21
0.573901
0
LINE
8
BLACK
6
CONTINUOUS
10
0.676944
20
0.573901
11
0.676911
21
0.57385
0
LINE
8
BLACK
6
CONTINUOUS
10
0.676911
20
0.57385
11
0.67649
21
0.573171
0
LINE
8
BLACK
6
CONTINUOUS
10
0.67649
20
0.573171
11
0.676459
21
0.573119
0
LINE
8
BLACK
6
CONTINUOUS
10
0.676459
20
0.573119
11
0.675121
21
0.570228
0
LINE
8
BLACK
6
CONTINUOUS
10
0.675121
20
0.570228
11
0.675092
21
0.570167
0
LINE
8
BLACK
6
CONTINUOUS
10
0.675092
20
0.570167
11
0.673678
21
0.567315
0
LINE
8
BLACK
6
CONTINUOUS
10
0.673678
20
0.567315
11
0.673656
21
0.567256
0
LINE
8
BLACK
6
CONTINUOUS
10
0.673656
20
0.567256
11
0.673391
21
0.566502
0
LINE
8
BLACK
6
CONTINUOUS
10
0.673391
20
0.566502
11
0.673372
21
0.566446
0
LINE
8
BLACK
6
CONTINUOUS
10
0.673372
20
0.566446
11
0.672687
21
0.563336
0
LINE
8
BLACK
6
CONTINUOUS
10
0.672687
20
0.563336
11
0.672672
21
0.563271
0
LINE
8
BLACK
6
CONTINUOUS
10
0.672672
20
0.563271
11
0.671903
21
0.56018
0
LINE
8
BLACK
6
CONTINUOUS
10
0.671903
20
0.56018
11
0.671895
21
0.56012
0
LINE
8
BLACK
6
CONTINUOUS
10
0.671895
20
0.56012
11
0.671798
21
0.559323
0
LINE
8
BLACK
6
CONTINUOUS
10
0.671798
20
0.559323
11
0.671791
21
0.559266
0
LINE
8
BLACK
6
CONTINUOUS
10
0.671791
20
0.559266
11
0.671791
21
0.556081
0
LINE
8
BLACK
6
CONTINUOUS
10
0.671791
20
0.556081
11
0.67179
21
0.556014
0
LINE
8
BLACK
6
CONTINUOUS
10
0.67179
20
0.556014
11
0.671704
21
0.552831
0
LINE
8
BLACK
6
CONTINUOUS
10
0.671704
20
0.552831
11
0.671709
21
0.552769
0
LINE
8
BLACK
6
CONTINUOUS
10
0.671709
20
0.552769
11
0.671791
21
0.551906
0
LINE
8
BLACK
6
CONTINUOUS
10
0.671791
20
0.551906
11
0.671791
21
0.423156
0
LINE
8
BLACK
6
CONTINUOUS
10
0.671791
20
0.423156
11
0.671726
21
0.422354
0
LINE
8
BLACK
6
CONTINUOUS
10
0.671726
20
0.422354
11
0.671642
21
0.421841
0
LINE
8
BLACK
6
CONTINUOUS
10
0.671642
20
0.421841
11
0.671788
21
0.419151
0
LINE
8
BLACK
6
CONTINUOUS
10
0.671788
20
0.419151
11
0.671791
21
0.419017
0
LINE
8
BLACK
6
CONTINUOUS
10
0.671791
20
0.419017
11
0.671791
21
0.27998
0
LINE
8
BLACK
6
CONTINUOUS
10
0.671791
20
0.27998
11
0.671004
21
0.277298
0
LINE
8
BLACK
6
CONTINUOUS
10
0.671004
20
0.277298
11
0.668891
21
0.275468
0
LINE
8
BLACK
6
CONTINUOUS
10
0.668891
20
0.275468
11
0.666831
21
0.27502
0
LINE
8
BLACK
6
CONTINUOUS
10
0.666831
20
0.27502
11
0.618085
21
0.27502
0
LINE
8
BLACK
6
CONTINUOUS
10
0.618085
20
0.27502
11
0.615701
21
0.274763
0
LINE
8
BLACK
6
CONTINUOUS
10
0.615701
20
0.274763
11
0.615701
21
0.274763
0
LINE
8
BLACK
6
CONTINUOUS
10
0.615701
20
0.274763
11
0.610307
21
0.272752
0
LINE
8
BLACK
6
CONTINUOUS
10
0.610307
20
0.272752
11
0.610307
21
0.272751
0
LINE
8
BLACK
6
CONTINUOUS
10
0.610307
20
0.272751
11
0.605698
21
0.269302
0
LINE
8
BLACK
6
CONTINUOUS
10
0.605698
20
0.269302
11
0.602249
21
0.264693
0
LINE
8
BLACK
6
CONTINUOUS
10
0.602249
20
0.264693
11
0.602248
21
0.264693
0
LINE
8
BLACK
6
CONTINUOUS
10
0.602248
20
0.264693
11
0.600237
21
0.259299
0
LINE
8
BLACK
6
CONTINUOUS
10
0.600237
20
0.259299
11
0.600237
21
0.259299
0
LINE
8
BLACK
6
CONTINUOUS
10
0.600237
20
0.259299
11
0.59998
21
0.256915
0
LINE
8
BLACK
6
CONTINUOUS
10
0.59998
20
0.256915
11
0.59998
21
0.193085
0
LINE
8
BLACK
6
CONTINUOUS
10
0.59998
20
0.193085
11
0.600237
21
0.190701
0
LINE
8
BLACK
6
CONTINUOUS
10
0.600237
20
0.190701
11
0.600237
21
0.190701
0
LINE
8
BLACK
6
CONTINUOUS
10
0.600237
20
0.190701
11
0.602248
21
0.185307
0
LINE
8
BLACK
6
CONTINUOUS
10
0.602248
20
0.185307
11
0.602249
21
0.185307
0
LINE
8
BLACK
6
CONTINUOUS
10
0.602249
20
0.185307
11
0.605698
21
0.180698
0
LINE
8
BLACK
6
CONTINUOUS
10
0.605698
20
0.180698
11
0.608006
21
0.178971
0
LINE
8
BLACK
6
CONTINUOUS
10
0.608006
20
0.178971
11
0.609681
21
0.176734
0
LINE
8
BLACK
6
CONTINUOUS
10
0.609681
20
0.176734
11
0.60988
21
0.173946
0
LINE
8
BLACK
6
CONTINUOUS
10
0.60988
20
0.173946
11
0.60854
21
0.171492
0
LINE
8
BLACK
6
CONTINUOUS
10
0.60854
20
0.171492
11
0.608006
21
0.171029
0
LINE
8
BLACK
6
CONTINUOUS
10
0.608006
20
0.171029
11
0.605698
21
0.169302
0
LINE
8
BLACK
6
CONTINUOUS
10
0.605698
20
0.169302
11
0.602249
21
0.164693
0
LINE
8
BLACK
6
CONTINUOUS
10
0.602249
20
0.164693
11
0.602248
21
0.164693
0
LINE
8
BLACK
6
CONTINUOUS
10
0.602248
20
0.164693
11
0.600237
21
0.159299
0
LINE
8
BLACK
6
CONTINUOUS
10
0.600237
20
0.159299
11
0.600237
21
0.159299
0
LINE
8
BLACK
6
CONTINUOUS
10
0.600237
20
0.159299
11
0.59998
21
0.156915
0
LINE
8
BLACK
6
CONTINUOUS
10
0.59998
20
0.156915
11
0.59998
21
0.0930847
0
LINE
8
BLACK
6
CONTINUOUS
10
0.59998
20
0.0930847
11
0.600237
21
0.0907009
0
LINE
8
BLACK
6
CONTINUOUS
10
0.600237
20
0.0907009
11
0.600237
21
0.0907006
0
LINE
8
BLACK
6
CONTINUOUS
10
0.600237
20
0.0907006
11
0.602248
21
0.085307
0
LINE
8
BLACK
6
CONTINUOUS
10
0.602248
20
0.085307
11
0.602249
21
0.0853068
0
LINE
8
BLACK
6
CONTINUOUS
10
0.602249
20
0.0853068
11
0.605698
21
0.0806984
0
LINE
8
BLACK
6
CONTINUOUS
10
0.605698
20
0.0806984
11
0.610307
21
0.0772485
0
LINE
8
BLACK
6
CONTINUOUS
10
0.610307
20
0.0772485
11
0.610307
21
0.0772485
0
LINE
8
BLACK
6
CONTINUOUS
10
0.610307
20
0.0772485
11
0.610307
21
0.0772485
0
LINE
8
BLACK
6
CONTINUOUS
10
0.610307
20
0.0772485
11
0.612633
21
0.0763809
0
LINE
8
BLACK
6
CONTINUOUS
10
0.612633
20
0.0763809
11
0.615701
21
0.0752367
0
LINE
8
BLACK
6
CONTINUOUS
10
0.615701
20
0.0752367
11
0.615701
21
0.0752366
0
LINE
8
BLACK
6
CONTINUOUS
10
0.615701
20
0.0752366
11
0.618085
21
0.0749804
0
LINE
8
BLACK
6
CONTINUOUS
10
0.618085
20
0.0749804
11
0.618085
21
0.0749804
0
LINE
8
BLACK
6
CONTINUOUS
10
0.618085
20
0.0749804
11
0.618085
21
0.0749803
0
LINE
8
BLACK
6
CONTINUOUS
10
0.618085
20
0.0749803
11
0.618085
21
0.0749803
0
LINE
8
BLACK
6
CONTINUOUS
10
0.618085
20
0.0749803
11
0.681915
21
0.0749803
0
LINE
8
BLACK
6
CONTINUOUS
10
0.681915
20
0.0749803
11
0.681915
21
0.0749803
0
LINE
8
BLACK
6
CONTINUOUS
10
0.681915
20
0.0749803
11
0.681915
21
0.0749804
0
LINE
8
BLACK
6
CONTINUOUS
10
0.681915
20
0.0749804
11
0.681915
21
0.0749804
0
LINE
8
BLACK
6
CONTINUOUS
10
0.681915
20
0.0749804
11
0.684299
21
0.0752366
0
LINE
8
BLACK
6
CONTINUOUS
10
0.684299
20
0.0752366
11
0.684299
21
0.0752367
0
LINE
8
BLACK
6
CONTINUOUS
10
0.684299
20
0.0752367
11
0.684299
21
0.0752367
0
LINE
8
BLACK
6
CONTINUOUS
10
0.684299
20
0.0752367
11
0.689693
21
0.0772485
0
LINE
8
BLACK
6
CONTINUOUS
10
0.689693
20
0.0772485
11
0.689716
21
0.077266
0
LINE
8
BLACK
6
CONTINUOUS
10
0.689716
20
0.077266
11
0.694302
21
0.0806984
0
LINE
8
BLACK
6
CONTINUOUS
10
0.694302
20
0.0806984
11
0.697751
21
0.0853068
0
LINE
8
BLACK
6
CONTINUOUS
10
0.697751
20
0.0853068
11
0.697751
21
0.0853069
0
LINE
8
BLACK
6
CONTINUOUS
10
0.697751
20
0.0853069
11
0.697752
21
0.0853069
0
LINE
8
BLACK
6
CONTINUOUS
10
0.697752
20
0.0853069
11
0.699763
21
0.0907007
0
LINE
8
BLACK
6
CONTINUOUS
10
0.699763
20
0.0907007
11
0.70002
21
0.0930851
0
LINE
8
BLACK
6
CONTINUOUS
10
0.70002
20
0.0930851
11
0.70002
21
0.125166
0
LINE
8
BLACK
6
CONTINUOUS
10
0.70002
20
0.125166
11
0.700807
21
0.127848
0
LINE
8
BLACK
6
CONTINUOUS
10
0.700807
20
0.127848
11
0.701472
21
0.128673
0
LINE
8
BLACK
6
CONTINUOUS
10
0.701472
20
0.128673
11
0.728448
21
0.155649
0
LINE
8
BLACK
6
CONTINUOUS
10
0.728448
20
0.155649
11
0.728596
21
0.155785
0
LINE
8
BLACK
6
CONTINUOUS
10
0.728596
20
0.155785
11
0.730273
21
0.15721
0
LINE
8
BLACK
6
CONTINUOUS
10
0.730273
20
0.15721
11
0.732202
21
0.159747
0
LINE
8
BLACK
6
CONTINUOUS
10
0.732202
20
0.159747
11
0.732241
21
0.159796
0
LINE
8
BLACK
6
CONTINUOUS
10
0.732241
20
0.159796
11
0.734237
21
0.16228
0
LINE
8
BLACK
6
CONTINUOUS
10
0.734237
20
0.16228
11
0.734237
21
0.16228
0
LINE
8
BLACK
6
CONTINUOUS
10
0.734237
20
0.16228
11
0.734275
21
0.162339
0
LINE
8
BLACK
6
CONTINUOUS
10
0.734275
20
0.162339
11
0.734686
21
0.163003
0
LINE
8
BLACK
6
CONTINUOUS
10
0.734686
20
0.163003
11
0.734722
21
0.163062
0
LINE
8
BLACK
6
CONTINUOUS
10
0.734722
20
0.163062
11
0.734722
21
0.163063
0
LINE
8
BLACK
6
CONTINUOUS
10
0.734722
20
0.163063
11
0.736061
21
0.165955
0
LINE
8
BLACK
6
CONTINUOUS
10
0.736061
20
0.165955
11
0.736088
21
0.166012
0
LINE
8
BLACK
6
CONTINUOUS
10
0.736088
20
0.166012
11
0.737504
21
0.168866
0
LINE
8
BLACK
6
CONTINUOUS
10
0.737504
20
0.168866
11
0.737504
21
0.168866
0
LINE
8
BLACK
6
CONTINUOUS
10
0.737504
20
0.168866
11
0.737504
21
0.168867
0
LINE
8
BLACK
6
CONTINUOUS
10
0.737504
20
0.168867
11
0.737526
21
0.168928
0
LINE
8
BLACK
6
CONTINUOUS
10
0.737526
20
0.168928
11
0.737788
21
0.169672
0
LINE
8
BLACK
6
CONTINUOUS
10
0.737788
20
0.169672
11
0.737809
21
0.169735
0
LINE
8
BLACK
6
CONTINUOUS
10
0.737809
20
0.169735
11
0.737809
21
0.169735
0
LINE
8
BLACK
6
CONTINUOUS
10
0.737809
20
0.169735
11
0.737809
21
0.169735
0
LINE
8
BLACK
6
CONTINUOUS
10
0.737809
20
0.169735
11
0.738494
21
0.172846
0
LINE
8
BLACK
6
CONTINUOUS
10
0.738494
20
0.172846
11
0.738509
21
0.17291
0
LINE
8
BLACK
6
CONTINUOUS
10
0.738509
20
0.17291
11
0.738598
21
0.173266
0
LINE
8
BLACK
6
CONTINUOUS
10
0.738598
20
0.173266
11
0.739278
21
0.176001
0
LINE
8
BLACK
6
CONTINUOUS
10
0.739278
20
0.176001
11
0.739278
21
0.176001
0
LINE
8
BLACK
6
CONTINUOUS
10
0.739278
20
0.176001
11
0.739287
21
0.176065
0
LINE
8
BLACK
6
CONTINUOUS
10
0.739287
20
0.176065
11
0.739383
21
0.176849
0
LINE
8
BLACK
6
CONTINUOUS
10
0.739383
20
0.176849
11
0.73939
21
0.176915
0
LINE
8
BLACK
6
CONTINUOUS
10
0.73939
20
0.176915
11
0.73939
21
0.180099
0
LINE
8
BLACK
6
CONTINUOUS
10
0.73939
20
0.180099
11
0.739391
21
0.180167
0
LINE
8
BLACK
6
CONTINUOUS
10
0.739391
20
0.180167
11
0.739477
21
0.18335
0
LINE
8
BLACK
6
CONTINUOUS
10
0.739477
20
0.18335
11
0.739472
21
0.183414
0
LINE
8
BLACK
6
CONTINUOUS
10
0.739472
20
0.183414
11
0.73939
21
0.184276
0
LINE
8
BLACK
6
CONTINUOUS
10
0.73939
20
0.184276
11
0.73939
21
0.38124
0
LINE
8
BLACK
6
CONTINUOUS
10
0.73939
20
0.38124
11
0.740177
21
0.383922
0
LINE
8
BLACK
6
CONTINUOUS
10
0.740177
20
0.383922
11
0.74229
21
0.385753
0
LINE
8
BLACK
6
CONTINUOUS
10
0.74229
20
0.385753
11
0.74435
21
0.386201
0
LINE
8
BLACK
6
CONTINUOUS
10
0.74435
20
0.386201
11
0.846504
21
0.386201
0
LINE
8
BLACK
6
CONTINUOUS
10
0.846504
20
0.386201
11
0.849186
21
0.385413
0
LINE
8
BLACK
6
CONTINUOUS
10
0.849186
20
0.385413
11
0.850012
21
0.384748
0
LINE
8
BLACK
6
CONTINUOUS
10
0.850012
20
0.384748
11
0.957232
21
0.277528
0
LINE
8
BLACK
6
CONTINUOUS
10
0.957232
20
0.277528
11
0.958571
21
0.275075
0
LINE
8
BLACK
6
CONTINUOUS
10
0.958571
20
0.275075
11
0.958372
21
0.272287
0
LINE
8
BLACK
6
CONTINUOUS
10
0.958372
20
0.272287
11
0.956697
21
0.270049
0
LINE
8
BLACK
6
CONTINUOUS
10
0.956697
20
0.270049
11
0.955698
21
0.269302
0
LINE
8
BLACK
6
CONTINUOUS
10
0.955698
20
0.269302
11
0.953959
21
0.266978
0
LINE
8
BLACK
6
CONTINUOUS
10
0.953959
20
0.266978
11
0.951721
21
0.265303
0
LINE
8
BLACK
6
CONTINUOUS
10
0.951721
20
0.265303
11
0.948933
21
0.265104
0
LINE
8
BLACK
6
CONTINUOUS
10
0.948933
20
0.265104
11
0.94648
21
0.266443
0
LINE
8
BLACK
6
CONTINUOUS
10
0.94648
20
0.266443
11
0.946016
21
0.266978
0
LINE
8
BLACK
6
CONTINUOUS
10
0.946016
20
0.266978
11
0.944288
21
0.269288
0
LINE
8
BLACK
6
CONTINUOUS
10
0.944288
20
0.269288
11
0.939684
21
0.272734
0
LINE
8
BLACK
6
CONTINUOUS
10
0.939684
20
0.272734
11
0.934295
21
0.274744
0
LINE
8
BLACK
6
CONTINUOUS
10
0.934295
20
0.274744
11
0.931913
21
0.275
0
LINE
8
BLACK
6
CONTINUOUS
10
0.931913
20
0.275
11
0.91
21
0.275
0
LINE
8
BLACK
6
CONTINUOUS
10
0.91
20
0.275
11
0.91
21
0.255
0
LINE
8
BLACK
6
CONTINUOUS
10
0.91
20
0.255
11
0.93
21
0.255
0
LINE
8
BLACK
6
CONTINUOUS
10
0.93
20
0.255
11
0.93
21
0.195
0
LINE
8
BLACK
6
CONTINUOUS
10
0.93
20
0.195
11
0.91
21
0.195
0
LINE
8
BLACK
6
CONTINUOUS
10
0.91
20
0.195
11
0.91
21
0.155
0
LINE
8
BLACK
6
CONTINUOUS
10
0.91
20
0.155
11
0.93
21
0.155
0
LINE
8
BLACK
6
CONTINUOUS
10
0.93
20
0.155
11
0.93
21
0.095
0
LINE
8
BLACK
6
CONTINUOUS
10
0.93
20
0.095
11
0.91
21
0.095
0
LINE
8
BLACK
6
CONTINUOUS
10
0.91
20
0.095
11
0.91
21
0.075
0
LINE
8
BLACK
6
CONTINUOUS
10
0.91
20
0.075
11
0.931913
21
0.075
0
LINE
8
BLACK
6
CONTINUOUS
10
0.931913
20
0.075
11
0.931913
21
0.075
0
LINE
8
BLACK
6
CONTINUOUS
10
0.931913
20
0.075
11
0.934295
21
0.0752561
0
LINE
8
BLACK
6
CONTINUOUS
10
0.934295
20
0.0752561
11
0.939684
21
0.077266
0
LINE
8
BLACK
6
CONTINUOUS
10
0.939684
20
0.077266
11
0.939684
21
0.077266
0
LINE
8
BLACK
6
CONTINUOUS
10
0.939684
20
0.077266
11
0.944288
21
0.0807124
0
LINE
8
BLACK
6
CONTINUOUS
10
0.944288
20
0.0807124
11
0.946016
21
0.083022
0
LINE
8
BLACK
6
CONTINUOUS
10
0.946016
20
0.083022
11
0.948254
21
0.0846971
0
LINE
8
BLACK
6
CONTINUOUS
10
0.948254
20
0.0846971
11
0.951042
21
0.0848965
0
LINE
8
BLACK
6
CONTINUOUS
10
0.951042
20
0.0848965
11
0.953495
21
0.083557
0
LINE
8
BLACK
6
CONTINUOUS
10
0.953495
20
0.083557
11
0.953959
21
0.0830221
0
LINE
8
BLACK
6
CONTINUOUS
10
0.953959
20
0.0830221
11
0.955698
21
0.0806984
0
LINE
8
BLACK
6
CONTINUOUS
10
0.955698
20
0.0806984
11
0.960307
21
0.0772485
0
LINE
8
BLACK
6
CONTINUOUS
10
0.960307
20
0.0772485
11
0.960307
21
0.0772485
0
LINE
8
BLACK
6
CONTINUOUS
10
0.960307
20
0.0772485
11
0.960307
21
0.0772485
0
LINE
8
BLACK
6
CONTINUOUS
10
0.960307
20
0.0772485
11
0.962633
21
0.0763809
0
LINE
8
BLACK
6
CONTINUOUS
10
0.962633
20
0.0763809
11
0.965701
21
0.0752367
0
LINE
8
BLACK
6
CONTINUOUS
10
0.965701
20
0.0752367
11
0.965701
21
0.0752366
0
LINE
8
BLACK
6
CONTINUOUS
10
0.965701
20
0.0752366
11
0.968085
21
0.0749804
0
LINE
8
BLACK
6
CONTINUOUS
10
0.968085
20
0.0749804
11
0.968085
21
0.0749804
0
LINE
8
BLACK
6
CONTINUOUS
10
0.968085
20
0.0749804
11
0.968085
21
0.0749803
0
LINE
8
BLACK
6
CONTINUOUS
10
0.968085
20
0.0749803
11
0.968085
21
0.0749803
0
LINE
8
BLACK
6
CONTINUOUS
10
0.968085
20
0.0749803
11
1.03191
21
0.0749803
0
LINE
8
BLACK
6
CONTINUOUS
10
1.03191
20
0.0749803
11
1.03191
21
0.0749803
0
LINE
8
BLACK
6
CONTINUOUS
10
1.03191
20
0.0749803
11
1.03192
21
0.0749804
0
LINE
8
BLACK
6
CONTINUOUS
10
1.03192
20
0.0749804
11
1.03192
21
0.0749804
0
LINE
8
BLACK
6
CONTINUOUS
10
1.03192
20
0.0749804
11
1.0343
21
0.0752366
0
LINE
8
BLACK
6
CONTINUOUS
10
1.0343
20
0.0752366
11
1.0343
21
0.0752367
0
LINE
8
BLACK
6
CONTINUOUS
10
1.0343
20
0.0752367
11
1.0343
21
0.0752367
0
LINE
8
BLACK
6
CONTINUOUS
10
1.0343
20
0.0752367
11
1.03969
21
0.0772485
0
LINE
8
BLACK
6
CONTINUOUS
10
1.03969
20
0.0772485
11
1.03972
21
0.077266
0
LINE
8
BLACK
6
CONTINUOUS
10
1.03972
20
0.077266
11
1.0443
21
0.0806984
0
LINE
8
BLACK
6
CONTINUOUS
10
1.0443
20
0.0806984
11
1.04604
21
0.083022
0
LINE
8
BLACK
6
CONTINUOUS
10
1.04604
20
0.083022
11
1.04828
21
0.0846971
0
LINE
8
BLACK
6
CONTINUOUS
10
1.04828
20
0.0846971
11
1.05107
21
0.0848965
0
LINE
8
BLACK
6
CONTINUOUS
10
1.05107
20
0.0848965
11
1.05352
21
0.0835569
0
LINE
8
BLACK
6
CONTINUOUS
10
1.05352
20
0.0835569
11
1.05398
21
0.083022
0
LINE
8
BLACK
6
CONTINUOUS
10
1.05398
20
0.083022
11
1.05571
21
0.0807124
0
LINE
8
BLACK
6
CONTINUOUS
10
1.05571
20
0.0807124
11
1.06032
21
0.077266
0
LINE
8
BLACK
6
CONTINUOUS
10
1.06032
20
0.077266
11
1.0657
21
0.0752561
0
LINE
8
BLACK
6
CONTINUOUS
10
1.0657
20
0.0752561
11
1.06809
21
0.075
0
LINE
8
BLACK
6
CONTINUOUS
10
1.06809
20
0.075
11
1.06809
21
0.075
0
LINE
8
BLACK
6
CONTINUOUS
10
1.06809
20
0.075
11
1.09
21
0.075
0
LINE
8
BLACK
6
CONTINUOUS
10
1.09
20
0.075
11
1.09
21
0.095
0
LINE
8
BLACK
6
CONTINUOUS
10
1.09
20
0.095
11
1.07
21
0.095
0
LINE
8
BLACK
6
CONTINUOUS
10
1.07
20
0.095
11
1.07
21
0.155
0
LINE
8
BLACK
6
CONTINUOUS
10
1.07
20
0.155
11
1.09
21
0.155
0
LINE
8
BLACK
6
CONTINUOUS
10
1.09
20
0.155
11
1.09
21
0.195
0
LINE
8
BLACK
6
CONTINUOUS
10
1.09
20
0.195
11
1.07
21
0.195
0
LINE
8
BLACK
6
CONTINUOUS
10
1.07
20
0.195
11
1.07
21
0.255
0
LINE
8
BLACK
6
CONTINUOUS
10
1.07
20
0.255
11
1.09
21
0.255
0
LINE
8
BLACK
6
CONTINUOUS
10
1.09
20
0.255
11
1.09
21
0.275
0
LINE
8
BLACK
6
CONTINUOUS
10
1.09
20
0.275
11
1.06809
21
0.275
0
LINE
8
BLACK
6
CONTINUOUS
10
1.06809
20
0.275
11
1.0657
21
0.274744
0
LINE
8
BLACK
6
CONTINUOUS
10
1.0657
20
0.274744
11
1.06032
21
0.272734
0
LINE
8
BLACK
6
CONTINUOUS
10
1.06032
20
0.272734
11
1.06032
21
0.272734
0
LINE
8
BLACK
6
CONTINUOUS
10
1.06032
20
0.272734
11
1.05571
21
0.269288
0
LINE
8
BLACK
6
CONTINUOUS
10
1.05571
20
0.269288
11
1.05398
21
0.266978
0
LINE
8
BLACK
6
CONTINUOUS
10
1.05398
20
0.266978
11
1.05175
21
0.265303
0
LINE
8
BLACK
6
CONTINUOUS
10
1.05175
20
0.265303
11
1.04896
21
0.265104
0
LINE
8
BLACK
6
CONTINUOUS
10
1.04896
20
0.265104
11
1.0465
21
0.266443
0
LINE
8
BLACK
6
CONTINUOUS
10
1.0465
20
0.266443
11
1.04604
21
0.266978
0
LINE
8
BLACK
6
CONTINUOUS
10
1.04604
20
0.266978
11
1.04431
21
0.269288
0
LINE
8
BLACK
6
CONTINUOUS
10
1.04431
20
0.269288
11
1.0443
21
0.269302
0
LINE
8
BLACK
6
CONTINUOUS
10
1.0443
20
0.269302
11
1.0443
21
0.269302
0
LINE
8
BLACK
6
CONTINUOUS
10
1.0443
20
0.269302
11
1.0443
21
0.269302
0
LINE
8
BLACK
6
CONTINUOUS
10
1.0443
20
0.269302
11
1.03969
21
0.272751
0
LINE
8
BLACK
6
CONTINUOUS
10
1.03969
20
0.272751
11
1.03969
21
0.272752
0
LINE
8
BLACK
6
CONTINUOUS
10
1.03969
20
0.272752
11
1.03703
21
0.273746
0
LINE
8
BLACK
6
CONTINUOUS
10
1.03703
20
0.273746
11
1.03479
21
0.275421
0
LINE
8
BLACK
6
CONTINUOUS
10
1.03479
20
0.275421
11
1.03381
21
0.27804
0
LINE
8
BLACK
6
CONTINUOUS
10
1.03381
20
0.27804
11
1.0338
21
0.278394
0
LINE
8
BLACK
6
CONTINUOUS
10
1.0338
20
0.278394
11
1.0338
21
0.281085
0
LINE
8
BLACK
6
CONTINUOUS
10
1.0338
20
0.281085
11
1.03381
21
0.281286
0
LINE
8
BLACK
6
CONTINUOUS
10
1.03381
20
0.281286
11
1.03399
21
0.28348
0
LINE
8
BLACK
6
CONTINUOUS
10
1.03399
20
0.28348
11
1.03399
21
0.28348
0
LINE
8
BLACK
6
CONTINUOUS
10
1.03399
20
0.28348
11
1.03356
21
0.286636
0
LINE
8
BLACK
6
CONTINUOUS
10
1.03356
20
0.286636
11
1.03355
21
0.286703
0
LINE
8
BLACK
6
CONTINUOUS
10
1.03355
20
0.286703
11
1.0332
21
0.289868
0
LINE
8
BLACK
6
CONTINUOUS
10
1.0332
20
0.289868
11
1.0332
21
0.289868
0
LINE
8
BLACK
6
CONTINUOUS
10
1.0332
20
0.289868
11
1.03319
21
0.289934
0
LINE
8
BLACK
6
CONTINUOUS
10
1.03319
20
0.289934
11
1.03301
21
0.290697
0
LINE
8
BLACK
6
CONTINUOUS
10
1.03301
20
0.290697
11
1.03299
21
0.290764
0
LINE
8
BLACK
6
CONTINUOUS
10
1.03299
20
0.290764
11
1.03251
21
0.292068
0
LINE
8
BLACK
6
CONTINUOUS
10
1.03251
20
0.292068
11
1.03189
21
0.293756
0
LINE
8
BLACK
6
CONTINUOUS
10
1.03189
20
0.293756
11
1.03187
21
0.293817
0
LINE
8
BLACK
6
CONTINUOUS
10
1.03187
20
0.293817
11
1.03086
21
0.296835
0
LINE
8
BLACK
6
CONTINUOUS
10
1.03086
20
0.296835
11
1.03083
21
0.296895
0
LINE
8
BLACK
6
CONTINUOUS
10
1.03083
20
0.296895
11
1.03049
21
0.297605
0
LINE
8
BLACK
6
CONTINUOUS
10
1.03049
20
0.297605
11
1.03046
21
0.297665
0
LINE
8
BLACK
6
CONTINUOUS
10
1.03046
20
0.297665
11
1.02874
21
0.300348
0
LINE
8
BLACK
6
CONTINUOUS
10
1.02874
20
0.300348
11
1.02871
21
0.300405
0
LINE
8
BLACK
6
CONTINUOUS
10
1.02871
20
0.300405
11
1.02822
21
0.301221
0
LINE
8
BLACK
6
CONTINUOUS
10
1.02822
20
0.301221
11
1.02707
21
0.303134
0
LINE
8
BLACK
6
CONTINUOUS
10
1.02707
20
0.303134
11
1.02707
21
0.303134
0
LINE
8
BLACK
6
CONTINUOUS
10
1.02707
20
0.303134
11
1.02707
21
0.303134
0
LINE
8
BLACK
6
CONTINUOUS
10
1.02707
20
0.303134
11
1.02703
21
0.303184
0
LINE
8
BLACK
6
CONTINUOUS
10
1.02703
20
0.303184
11
1.02654
21
0.303811
0
LINE
8
BLACK
6
CONTINUOUS
10
1.02654
20
0.303811
11
1.0265
21
0.303859
0
LINE
8
BLACK
6
CONTINUOUS
10
1.0265
20
0.303859
11
1.0265
21
0.303859
0
LINE
8
BLACK
6
CONTINUOUS
10
1.0265
20
0.303859
11
1.02425
21
0.306113
0
LINE
8
BLACK
6
CONTINUOUS
10
1.02425
20
0.306113
11
1.0242
21
0.306159
0
LINE
8
BLACK
6
CONTINUOUS
10
1.0242
20
0.306159
11
1.02201
21
0.308471
0
LINE
8
BLACK
6
CONTINUOUS
10
1.02201
20
0.308471
11
1.02201
21
0.308472
0
LINE
8
BLACK
6
CONTINUOUS
10
1.02201
20
0.308472
11
1.02196
21
0.308513
0
LINE
8
BLACK
6
CONTINUOUS
10
1.02196
20
0.308513
11
1.02129
21
0.309065
0
LINE
8
BLACK
6
CONTINUOUS
10
1.02129
20
0.309065
11
0.887502
21
0.442857
0
LINE
8
BLACK
6
CONTINUOUS
10
0.887502
20
0.442857
11
0.887365
21
0.443005
0
LINE
8
BLACK
6
CONTINUOUS
10
0.887365
20
0.443005
11
0.88594
21
0.444683
0
LINE
8
BLACK
6
CONTINUOUS
10
0.88594
20
0.444683
11
0.885634
21
0.444915
0
LINE
8
BLACK
6
CONTINUOUS
10
0.885634
20
0.444915
11
0.883401
21
0.446612
0
LINE
8
BLACK
6
CONTINUOUS
10
0.883401
20
0.446612
11
0.883354
21
0.44665
0
LINE
8
BLACK
6
CONTINUOUS
10
0.883354
20
0.44665
11
0.88087
21
0.448646
0
LINE
8
BLACK
6
CONTINUOUS
10
0.88087
20
0.448646
11
0.880869
21
0.448647
0
LINE
8
BLACK
6
CONTINUOUS
10
0.880869
20
0.448647
11
0.880815
21
0.448681
0
LINE
8
BLACK
6
CONTINUOUS
10
0.880815
20
0.448681
11
0.88014
21
0.4491
0
LINE
8
BLACK
6
CONTINUOUS
10
0.88014
20
0.4491
11
0.880087
21
0.449132
0
LINE
8
BLACK
6
CONTINUOUS
10
0.880087
20
0.449132
11
0.877197
21
0.450469
0
LINE
8
BLACK
6
CONTINUOUS
10
0.877197
20
0.450469
11
0.877137
21
0.450498
0
LINE
8
BLACK
6
CONTINUOUS
10
0.877137
20
0.450498
11
0.874283
21
0.451913
0
LINE
8
BLACK
6
CONTINUOUS
10
0.874283
20
0.451913
11
0.874283
21
0.451913
0
LINE
8
BLACK
6
CONTINUOUS
10
0.874283
20
0.451913
11
0.874283
21
0.451913
0
LINE
8
BLACK
6
CONTINUOUS
10
0.874283
20
0.451913
11
0.874225
21
0.451934
0
LINE
8
BLACK
6
CONTINUOUS
10
0.874225
20
0.451934
11
0.873474
21
0.452199
0
LINE
8
BLACK
6
CONTINUOUS
10
0.873474
20
0.452199
11
0.873415
21
0.452219
0
LINE
8
BLACK
6
CONTINUOUS
10
0.873415
20
0.452219
11
0.872798
21
0.452354
0
LINE
8
BLACK
6
CONTINUOUS
10
0.872798
20
0.452354
11
0.870349
21
0.4537
0
LINE
8
BLACK
6
CONTINUOUS
10
0.870349
20
0.4537
11
0.869015
21
0.456157
0
LINE
8
BLACK
6
CONTINUOUS
10
0.869015
20
0.456157
11
0.869221
21
0.458944
0
LINE
8
BLACK
6
CONTINUOUS
10
0.869221
20
0.458944
11
0.869569
21
0.459679
0
LINE
8
BLACK
6
CONTINUOUS
10
0.869569
20
0.459679
11
0.872855
21
0.465372
0
LINE
8
BLACK
6
CONTINUOUS
10
0.872855
20
0.465372
11
0.875179
21
0.472523
0
LINE
8
BLACK
6
CONTINUOUS
10
0.875179
20
0.472523
11
0.875209
21
0.472805
0
LINE
8
BLACK
6
CONTINUOUS
10
0.875209
20
0.472805
11
0.876272
21
0.47539
0
LINE
8
BLACK
6
CONTINUOUS
10
0.876272
20
0.47539
11
0.876634
21
0.475794
0
LINE
8
BLACK
6
CONTINUOUS
10
0.876634
20
0.475794
11
0.981609
21
0.580769
0
LINE
8
BLACK
6
CONTINUOUS
10
0.981609
20
0.580769
11
0.981609
21
0.580769
0
LINE
8
BLACK
6
CONTINUOUS
10
0.981609
20
0.580769
11
1.03051
21
0.629669
0
LINE
8
BLACK
6
CONTINUOUS
10
1.03051
20
0.629669
11
1.03296
21
0.631009
0
LINE
8
BLACK
6
CONTINUOUS
10
1.03296
20
0.631009
11
1.03402
21
0.631122
0
LINE
8
BLACK
6
CONTINUOUS
10
1.03402
20
0.631122
11
1.25598
21
0.631122
0
LINE
8
BLACK
6
CONTINUOUS
10
1.25598
20
0.631122
11
1.25867
21
0.630335
0
LINE
8
BLACK
6
CONTINUOUS
10
1.25867
20
0.630335
11
1.25949
21
0.629669
0
LINE
8
BLACK
6
CONTINUOUS
10
1.25949
20
0.629669
11
1.28853
21
0.600633
0
LINE
8
BLACK
6
CONTINUOUS
10
1.28853
20
0.600633
11
1.28987
21
0.59818
0
LINE
8
BLACK
6
CONTINUOUS
10
1.28987
20
0.59818
11
1.28998
21
0.597125
0
LINE
8
BLACK
6
CONTINUOUS
10
1.28998
20
0.597125
11
1.28998
21
0.568085
0
LINE
8
BLACK
6
CONTINUOUS
10
1.28998
20
0.568085
11
1.29024
21
0.565701
0
LINE
8
BLACK
6
CONTINUOUS
10
1.29024
20
0.565701
11
1.29024
21
0.565701
0
LINE
8
BLACK
6
CONTINUOUS
10
1.29024
20
0.565701
11
1.29225
21
0.560307
0
LINE
8
BLACK
6
CONTINUOUS
10
1.29225
20
0.560307
11
1.29225
21
0.560307
0
LINE
8
BLACK
6
CONTINUOUS
10
1.29225
20
0.560307
11
1.2957
21
0.555698
0
LINE
8
BLACK
6
CONTINUOUS
10
1.2957
20
0.555698
11
1.30031
21
0.552249
0
LINE
8
BLACK
6
CONTINUOUS
10
1.30031
20
0.552249
11
1.30031
21
0.552249
0
LINE
8
BLACK
6
CONTINUOUS
10
1.30031
20
0.552249
11
1.30031
21
0.552248
0
LINE
8
BLACK
6
CONTINUOUS
10
1.30031
20
0.552248
11
1.30263
21
0.551381
0
LINE
8
BLACK
6
CONTINUOUS
10
1.30263
20
0.551381
11
1.3057
21
0.550237
0
LINE
8
BLACK
6
CONTINUOUS
10
1.3057
20
0.550237
11
1.3057
21
0.550237
0
LINE
8
BLACK
6
CONTINUOUS
10
1.3057
20
0.550237
11
1.30808
21
0.54998
0
LINE
8
BLACK
6
CONTINUOUS
10
1.30808
20
0.54998
11
1.30808
21
0.54998
0
LINE
8
BLACK
6
CONTINUOUS
10
1.30808
20
0.54998
11
1.30809
21
0.54998
0
LINE
8
BLACK
6
CONTINUOUS
10
1.30809
20
0.54998
11
1.30809
21
0.54998
0
LINE
8
BLACK
6
CONTINUOUS
10
1.30809
20
0.54998
11
1.37191
21
0.54998
0
LINE
8
BLACK
6
CONTINUOUS
10
1.37191
20
0.54998
11
1.37191
21
0.54998
0
LINE
8
BLACK
6
CONTINUOUS
10
1.37191
20
0.54998
11
1.37192
21
0.54998
0
LINE
8
BLACK
6
CONTINUOUS
10
1.37192
20
0.54998
11
1.37192
21
0.54998
0
LINE
8
BLACK
6
CONTINUOUS
10
1.37192
20
0.54998
11
1.3743
21
0.550237
0
LINE
8
BLACK
6
CONTINUOUS
10
1.3743
20
0.550237
11
1.3743
21
0.550237
0
LINE
8
BLACK
6
CONTINUOUS
10
1.3743
20
0.550237
11
1.3743
21
0.550237
0
LINE
8
BLACK
6
CONTINUOUS
10
1.3743
20
0.550237
11
1.37969
21
0.552248
0
LINE
8
BLACK
6
CONTINUOUS
10
1.37969
20
0.552248
11
1.3843
21
0.555698
0
LINE
8
BLACK
6
CONTINUOUS
10
1.3843
20
0.555698
11
1.38603
21
0.558006
0
LINE
8
BLACK
6
CONTINUOUS
10
1.38603
20
0.558006
11
1.38827
21
0.559681
0
LINE
8
BLACK
6
CONTINUOUS
10
1.38827
20
0.559681
11
1.39105
21
0.55988
0
LINE
8
BLACK
6
CONTINUOUS
10
1.39105
20
0.55988
11
1.39351
21
0.558541
0
LINE
8
BLACK
6
CONTINUOUS
10
1.39351
20
0.558541
11
1.39397
21
0.558006
0
LINE
8
BLACK
6
CONTINUOUS
10
1.39397
20
0.558006
11
1.3957
21
0.555698
0
LINE
8
BLACK
6
CONTINUOUS
10
1.3957
20
0.555698
11
1.40031
21
0.552249
0
LINE
8
BLACK
6
CONTINUOUS
10
1.40031
20
0.552249
11
1.40031
21
0.552249
0
LINE
8
BLACK
6
CONTINUOUS
10
1.40031
20
0.552249
11
1.40031
21
0.552248
0
LINE
8
BLACK
6
CONTINUOUS
10
1.40031
20
0.552248
11
1.40263
21
0.551381
0
LINE
8
BLACK
6
CONTINUOUS
10
1.40263
20
0.551381
11
1.4057
21
0.550237
0
LINE
8
BLACK
6
CONTINUOUS
10
1.4057
20
0.550237
11
1.4057
21
0.550237
0
LINE
8
BLACK
6
CONTINUOUS
10
1.4057
20
0.550237
11
1.40808
21
0.54998
0
LINE
8
BLACK
6
CONTINUOUS
10
1.40808
20
0.54998
11
1.40808
21
0.54998
0
LINE
8
BLACK
6
CONTINUOUS
10
1.40808
20
0.54998
11
1.40809
21
0.54998
0
LINE
8
BLACK
6
CONTINUOUS
10
1.40809
20
0.54998
11
1.40809
21
0.54998
0
LINE
8
BLACK
6
CONTINUOUS
10
1.40809
20
0.54998
11
1.47191
21
0.54998
0
LINE
8
BLACK
6
CONTINUOUS
10
1.47191
20
0.54998
11
1.47191
21
0.54998
0
LINE
8
BLACK
6
CONTINUOUS
10
1.47191
20
0.54998
11
1.47192
21
0.54998
0
LINE
8
BLACK
6
CONTINUOUS
10
1.47192
20
0.54998
11
1.47192
21
0.54998
0
LINE
8
BLACK
6
CONTINUOUS
10
1.47192
20
0.54998
11
1.4743
21
0.550237
0
LINE
8
BLACK
6
CONTINUOUS
10
1.4743
20
0.550237
11
1.4743
21
0.550237
0
LINE
8
BLACK
6
CONTINUOUS
10
1.4743
20
0.550237
11
1.4743
21
0.550237
0
LINE
8
BLACK
6
CONTINUOUS
10
1.4743
20
0.550237
11
1.47969
21
0.552248
0
LINE
8
BLACK
6
CONTINUOUS
10
1.47969
20
0.552248
11
1.4843
21
0.555698
0
LINE
8
BLACK
6
CONTINUOUS
10
1.4843
20
0.555698
11
1.48775
21
0.560307
0
LINE
8
BLACK
6
CONTINUOUS
10
1.48775
20
0.560307
11
1.48976
21
0.565701
0
LINE
8
BLACK
6
CONTINUOUS
10
1.48976
20
0.565701
11
1.48984
21
0.566446
0
LINE
8
BLACK
6
CONTINUOUS
10
1.48984
20
0.566446
11
1.49002
21
0.568085
0
LINE
8
BLACK
6
CONTINUOUS
10
1.49002
20
0.568085
11
1.49002
21
0.568085
0
LINE
8
BLACK
6
CONTINUOUS
10
1.49002
20
0.568085
11
1.49002
21
0.631915
0
LINE
8
BLACK
6
CONTINUOUS
10
1.49002
20
0.631915
11
1.49002
21
0.631915
0
LINE
8
BLACK
6
CONTINUOUS
10
1.49002
20
0.631915
11
1.48976
21
0.634299
0
LINE
8
BLACK
6
CONTINUOUS
10
1.48976
20
0.634299
11
1.48976
21
0.634299
0
LINE
8
BLACK
6
CONTINUOUS
10
1.48976
20
0.634299
11
1.48775
21
0.639693
0
LINE
8
BLACK
6
CONTINUOUS
10
1.48775
20
0.639693
11
1.48775
21
0.639693
0
LINE
8
BLACK
6
CONTINUOUS
10
1.48775
20
0.639693
11
1.4843
21
0.644302
0
LINE
8
BLACK
6
CONTINUOUS
10
1.4843
20
0.644302
11
1.48199
21
0.646029
0
LINE
8
BLACK
6
CONTINUOUS
10
1.48199
20
0.646029
11
1.48032
21
0.648266
0
LINE
8
BLACK
6
CONTINUOUS
10
1.48032
20
0.648266
11
1.48012
21
0.651054
0
LINE
8
BLACK
6
CONTINUOUS
10
1.48012
20
0.651054
11
1.48146
21
0.653508
0
LINE
8
BLACK
6
CONTINUOUS
10
1.48146
20
0.653508
11
1.48199
21
0.653971
0
LINE
8
BLACK
6
CONTINUOUS
10
1.48199
20
0.653971
11
1.4843
21
0.655698
0
LINE
8
BLACK
6
CONTINUOUS
10
1.4843
20
0.655698
11
1.48775
21
0.660307
0
LINE
8
BLACK
6
CONTINUOUS
10
1.48775
20
0.660307
11
1.48775
21
0.660307
0
LINE
8
BLACK
6
CONTINUOUS
10
1.48775
20
0.660307
11
1.48775
21
0.660307
0
LINE
8
BLACK
6
CONTINUOUS
10
1.48775
20
0.660307
11
1.48976
21
0.665701
0
LINE
8
BLACK
6
CONTINUOUS
10
1.48976
20
0.665701
11
1.49002
21
0.668085
0
LINE
8
BLACK
6
CONTINUOUS
10
1.49002
20
0.668085
11
1.49002
21
0.731915
0
LINE
8
BLACK
6
CONTINUOUS
10
1.49002
20
0.731915
11
1.49
21
0.732098
0
LINE
8
BLACK
6
CONTINUOUS
10
1.49
20
0.732098
11
1.48976
21
0.734299
0
LINE
8
BLACK
6
CONTINUOUS
10
1.48976
20
0.734299
11
1.48976
21
0.734299
0
LINE
8
BLACK
6
CONTINUOUS
10
1.48976
20
0.734299
11
1.48775
21
0.739693
0
LINE
8
BLACK
6
CONTINUOUS
10
1.48775
20
0.739693
11
1.48775
21
0.739693
0
LINE
8
BLACK
6
CONTINUOUS
10
1.48775
20
0.739693
11
1.4843
21
0.744302
0
LINE
8
BLACK
6
CONTINUOUS
10
1.4843
20
0.744302
11
1.47969
21
0.747751
0
LINE
8
BLACK
6
CONTINUOUS
10
1.47969
20
0.747751
11
1.47969
21
0.747752
0
LINE
8
BLACK
6
CONTINUOUS
10
1.47969
20
0.747752
11
1.4743
21
0.749763
0
LINE
8
BLACK
6
CONTINUOUS
10
1.4743
20
0.749763
11
1.4743
21
0.749763
0
LINE
8
BLACK
6
CONTINUOUS
10
1.4743
20
0.749763
11
1.47192
21
0.75002
0
LINE
8
BLACK
6
CONTINUOUS
10
1.47192
20
0.75002
11
1.47191
21
0.75002
0
LINE
8
BLACK
6
CONTINUOUS
10
1.47191
20
0.75002
11
1.40809
21
0.75002
0
LINE
8
BLACK
6
CONTINUOUS
10
1.40809
20
0.75002
11
1.40808
21
0.75002
0
LINE
8
BLACK
6
CONTINUOUS
10
1.40808
20
0.75002
11
1.4057
21
0.749763
0
LINE
8
BLACK
6
CONTINUOUS
10
1.4057
20
0.749763
11
1.4057
21
0.749763
0
LINE
8
BLACK
6
CONTINUOUS
10
1.4057
20
0.749763
11
1.40031
21
0.747752
0
LINE
8
BLACK
6
CONTINUOUS
10
1.40031
20
0.747752
11
1.40031
21
0.747751
0
LINE
8
BLACK
6
CONTINUOUS
10
1.40031
20
0.747751
11
1.3957
21
0.744302
0
LINE
8
BLACK
6
CONTINUOUS
10
1.3957
20
0.744302
11
1.39397
21
0.741994
0
LINE
8
BLACK
6
CONTINUOUS
10
1.39397
20
0.741994
11
1.39173
21
0.740319
0
LINE
8
BLACK
6
CONTINUOUS
10
1.39173
20
0.740319
11
1.38895
21
0.74012
0
LINE
8
BLACK
6
CONTINUOUS
10
1.38895
20
0.74012
11
1.38649
21
0.74146
0
LINE
8
BLACK
6
CONTINUOUS
10
1.38649
20
0.74146
11
1.38603
21
0.741994
0
LINE
8
BLACK
6
CONTINUOUS
10
1.38603
20
0.741994
11
1.3843
21
0.744302
0
LINE
8
BLACK
6
CONTINUOUS
10
1.3843
20
0.744302
11
1.37969
21
0.747751
0
LINE
8
BLACK
6
CONTINUOUS
10
1.37969
20
0.747751
11
1.37969
21
0.747752
0
LINE
8
BLACK
6
CONTINUOUS
10
1.37969
20
0.747752
11
1.3743
21
0.749763
0
LINE
8
BLACK
6
CONTINUOUS
10
1.3743
20
0.749763
11
1.3743
21
0.749763
0
LINE
8
BLACK
6
CONTINUOUS
10
1.3743
20
0.749763
11
1.37192
21
0.75002
0
LINE
8
BLACK
6
CONTINUOUS
10
1.37192
20
0.75002
11
1.37191
21
0.75002
0
LINE
8
BLACK
6
CONTINUOUS
10
1.37191
20
0.75002
11
1.30809
21
0.75002
0
LINE
8
BLACK
6
CONTINUOUS
10
1.30809
20
0.75002
11
1.30808
21
0.75002
0
LINE
8
BLACK
6
CONTINUOUS
10
1.30808
20
0.75002
11
1.3057
21
0.749763
0
LINE
8
BLACK
6
CONTINUOUS
10
1.3057
20
0.749763
11
1.3057
21
0.749763
0
LINE
8
BLACK
6
CONTINUOUS
10
1.3057
20
0.749763
11
1.30031
21
0.747752
0
LINE
8
BLACK
6
CONTINUOUS
10
1.30031
20
0.747752
11
1.30031
21
0.747751
0
LINE
8
BLACK
6
CONTINUOUS
10
1.30031
20
0.747751
11
1.2957
21
0.744302
0
LINE
8
BLACK
6
CONTINUOUS
10
1.2957
20
0.744302
11
1.29225
21
0.739693
0
LINE
8
BLACK
6
CONTINUOUS
10
1.29225
20
0.739693
11
1.29225
21
0.739693
0
LINE
8
BLACK
6
CONTINUOUS
10
1.29225
20
0.739693
11
1.29024
21
0.734299
0
LINE
8
BLACK
6
CONTINUOUS
10
1.29024
20
0.734299
11
1.29024
21
0.734299
0
LINE
8
BLACK
6
CONTINUOUS
10
1.29024
20
0.734299
11
1.29013
21
0.733308
0
LINE
8
BLACK
6
CONTINUOUS
10
1.29013
20
0.733308
11
1.28906
21
0.730726
0
LINE
8
BLACK
6
CONTINUOUS
10
1.28906
20
0.730726
11
1.28676
21
0.729132
0
LINE
8
BLACK
6
CONTINUOUS
10
1.28676
20
0.729132
11
1.2852
21
0.728878
0
LINE
8
BLACK
6
CONTINUOUS
10
1.2852
20
0.728878
11
1.10272
21
0.728878
0
LINE
8
BLACK
6
CONTINUOUS
10
1.10272
20
0.728878
11
1.10003
21
0.729665
0
LINE
8
BLACK
6
CONTINUOUS
10
1.10003
20
0.729665
11
1.0998
21
0.729825
0
LINE
8
BLACK
6
CONTINUOUS
10
1.0998
20
0.729825
11
1.09798
21
0.731146
0
LINE
8
BLACK
6
CONTINUOUS
10
1.09798
20
0.731146
11
1.09351
21
0.733139
0
LINE
8
BLACK
6
CONTINUOUS
10
1.09351
20
0.733139
11
1.09138
21
0.734949
0
LINE
8
BLACK
6
CONTINUOUS
10
1.09138
20
0.734949
11
1.09056
21
0.737623
0
LINE
8
BLACK
6
CONTINUOUS
10
1.09056
20
0.737623
11
1.09133
21
0.740313
0
LINE
8
BLACK
6
CONTINUOUS
10
1.09133
20
0.740313
11
1.09202
21
0.741178
0
LINE
8
BLACK
6
CONTINUOUS
10
1.09202
20
0.741178
11
1.18868
21
0.837837
0
LINE
8
BLACK
6
CONTINUOUS
10
1.18868
20
0.837837
11
1.18922
21
0.838308
0
LINE
8
BLACK
6
CONTINUOUS
10
1.18922
20
0.838308
11
1.18995
21
0.838852
0
LINE
8
BLACK
6
CONTINUOUS
10
1.18995
20
0.838852
11
1.19124
21
0.840389
0
LINE
8
BLACK
6
CONTINUOUS
10
1.19124
20
0.840389
11
1.19139
21
0.840548
0
LINE
8
BLACK
6
CONTINUOUS
10
1.19139
20
0.840548
11
1.19161
21
0.840769
0
LINE
8
BLACK
6
CONTINUOUS
10
1.19161
20
0.840769
11
1.19237
21
0.841731
0
LINE
8
BLACK
6
CONTINUOUS
10
1.19237
20
0.841731
11
1.19241
21
0.841787
0
LINE
8
BLACK
6
CONTINUOUS
10
1.19241
20
0.841787
11
1.19429
21
0.844023
0
LINE
8
BLACK
6
CONTINUOUS
10
1.19429
20
0.844023
11
1.19429
21
0.844023
0
LINE
8
BLACK
6
CONTINUOUS
10
1.19429
20
0.844023
11
1.19445
21
0.844265
0
LINE
8
BLACK
6
CONTINUOUS
10
1.19445
20
0.844265
11
1.19445
21
0.844263
0
LINE
8
BLACK
6
CONTINUOUS
10
1.19445
20
0.844263
11
1.1946
21
0.844488
0
LINE
8
BLACK
6
CONTINUOUS
10
1.1946
20
0.844488
11
1.19459
21
0.844491
0
LINE
8
BLACK
6
CONTINUOUS
10
1.19459
20
0.844491
11
1.19475
21
0.844736
0
LINE
8
BLACK
6
CONTINUOUS
10
1.19475
20
0.844736
11
1.19475
21
0.844736
0
LINE
8
BLACK
6
CONTINUOUS
10
1.19475
20
0.844736
11
1.19475
21
0.844737
0
LINE
8
BLACK
6
CONTINUOUS
10
1.19475
20
0.844737
11
1.19598
21
0.847382
0
LINE
8
BLACK
6
CONTINUOUS
10
1.19598
20
0.847382
11
1.19601
21
0.847447
0
LINE
8
BLACK
6
CONTINUOUS
10
1.19601
20
0.847447
11
1.19732
21
0.850056
0
LINE
8
BLACK
6
CONTINUOUS
10
1.19732
20
0.850056
11
1.19732
21
0.850056
0
LINE
8
BLACK
6
CONTINUOUS
10
1.19732
20
0.850056
11
1.19742
21
0.850327
0
LINE
8
BLACK
6
CONTINUOUS
10
1.19742
20
0.850327
11
1.19742
21
0.850326
0
LINE
8
BLACK
6
CONTINUOUS
10
1.19742
20
0.850326
11
1.19751
21
0.850579
0
LINE
8
BLACK
6
CONTINUOUS
10
1.19751
20
0.850579
11
1.19751
21
0.85058
0
LINE
8
BLACK
6
CONTINUOUS
10
1.19751
20
0.85058
11
1.1976
21
0.850855
0
LINE
8
BLACK
6
CONTINUOUS
10
1.1976
20
0.850855
11
1.19819
21
0.853714
0
LINE
8
BLACK
6
CONTINUOUS
10
1.19819
20
0.853714
11
1.1982
21
0.85378
0
LINE
8
BLACK
6
CONTINUOUS
10
1.1982
20
0.85378
11
1.19888
21
0.856625
0
LINE
8
BLACK
6
CONTINUOUS
10
1.19888
20
0.856625
11
1.19888
21
0.856625
0
LINE
8
BLACK
6
CONTINUOUS
10
1.19888
20
0.856625
11
1.19891
21
0.856912
0
LINE
8
BLACK
6
CONTINUOUS
10
1.19891
20
0.856912
11
1.19892
21
0.856911
0
LINE
8
BLACK
6
CONTINUOUS
10
1.19892
20
0.856911
11
1.19894
21
0.857178
0
LINE
8
BLACK
6
CONTINUOUS
10
1.19894
20
0.857178
11
1.19894
21
0.857178
0
LINE
8
BLACK
6
CONTINUOUS
10
1.19894
20
0.857178
11
1.19896
21
0.857466
0
LINE
8
BLACK
6
CONTINUOUS
10
1.19896
20
0.857466
11
1.19896
21
0.857466
0
LINE
8
BLACK
6
CONTINUOUS
10
1.19896
20
0.857466
11
1.19891
21
0.859185
0
LINE
8
BLACK
6
CONTINUOUS
10
1.19891
20
0.859185
11
1.19888
21
0.860383
0
LINE
8
BLACK
6
CONTINUOUS
10
1.19888
20
0.860383
11
1.19888
21
0.860455
0
LINE
8
BLACK
6
CONTINUOUS
10
1.19888
20
0.860455
11
1.19888
21
0.965198
0
LINE
8
BLACK
6
CONTINUOUS
10
1.19888
20
0.965198
11
1.19967
21
0.96788
0
LINE
8
BLACK
6
CONTINUOUS
10
1.19967
20
0.96788
11
1.20178
21
0.96971
0
LINE
8
BLACK
6
CONTINUOUS
10
1.20178
20
0.96971
11
1.20331
21
0.97013
0
LINE
8
BLACK
6
CONTINUOUS
10
1.20331
20
0.97013
11
1.2043
21
0.970237
0
LINE
8
BLACK
6
CONTINUOUS
10
1.2043
20
0.970237
11
1.2043
21
0.970237
0
LINE
8
BLACK
6
CONTINUOUS
10
1.2043
20
0.970237
11
1.2043
21
0.970237
0
LINE
8
BLACK
6
CONTINUOUS
10
1.2043
20
0.970237
11
1.20969
21
0.972248
0
LINE
8
BLACK
6
CONTINUOUS
10
1.20969
20
0.972248
11
1.2143
21
0.975698
0
LINE
8
BLACK
6
CONTINUOUS
10
1.2143
20
0.975698
11
1.21775
21
0.980307
0
LINE
8
BLACK
6
CONTINUOUS
10
1.21775
20
0.980307
11
1.21976
21
0.985701
0
LINE
8
BLACK
6
CONTINUOUS
10
1.21976
20
0.985701
11
1.21978
21
0.985854
0
LINE
8
BLACK
6
CONTINUOUS
10
1.21978
20
0.985854
11
1.22002
21
0.988085
0
LINE
8
BLACK
6
CONTINUOUS
10
1.22002
20
0.988085
11
1.22002
21
0.988085
0
LINE
8
BLACK
6
CONTINUOUS
10
1.22002
20
0.988085
11
1.22002
21
1.05191
0
LINE
8
BLACK
6
CONTINUOUS
10
1.22002
20
1.05191
11
1.22002
21
1.05192
0
LINE
8
BLACK
6
CONTINUOUS
10
1.22002
20
1.05192
11
1.21976
21
1.0543
0
LINE
8
BLACK
6
CONTINUOUS
10
1.21976
20
1.0543
11
1.21976
21
1.0543
0
LINE
8
BLACK
6
CONTINUOUS
10
1.21976
20
1.0543
11
1.21835
21
1.05809
0
LINE
8
BLACK
6
CONTINUOUS
10
1.21835
20
1.05809
11
1.21775
21
1.05969
0
LINE
8
BLACK
6
CONTINUOUS
10
1.21775
20
1.05969
11
1.21775
21
1.05969
0
LINE
8
BLACK
6
CONTINUOUS
10
1.21775
20
1.05969
11
1.21775
21
1.05969
0
LINE
8
BLACK
6
CONTINUOUS
10
1.21775
20
1.05969
11
1.2143
21
1.0643
0
LINE
8
BLACK
6
CONTINUOUS
10
1.2143
20
1.0643
11
1.21199
21
1.06603
0
LINE
8
BLACK
6
CONTINUOUS
10
1.21199
20
1.06603
11
1.21032
21
1.06827
0
LINE
8
BLACK
6
CONTINUOUS
10
1.21032
20
1.06827
11
1.21012
21
1.07105
0
LINE
8
BLACK
6
CONTINUOUS
10
1.21012
20
1.07105
11
1.21146
21
1.07351
0
LINE
8
BLACK
6
CONTINUOUS
10
1.21146
20
1.07351
11
1.21199
21
1.07397
0
LINE
8
BLACK
6
CONTINUOUS
10
1.21199
20
1.07397
11
1.2143
21
1.0757
0
LINE
8
BLACK
6
CONTINUOUS
10
1.2143
20
1.0757
11
1.21775
21
1.08031
0
LINE
8
BLACK
6
CONTINUOUS
10
1.21775
20
1.08031
11
1.21976
21
1.0857
0
LINE
8
BLACK
6
CONTINUOUS
10
1.21976
20
1.0857
11
1.21978
21
1.08585
0
LINE
8
BLACK
6
CONTINUOUS
10
1.21978
20
1.08585
11
1.22002
21
1.08808
0
LINE
8
BLACK
6
CONTINUOUS
10
1.22002
20
1.08808
11
1.22002
21
1.08809
0
LINE
8
BLACK
6
CONTINUOUS
10
1.22002
20
1.08809
11
1.22002
21
1.15191
0
LINE
8
BLACK
6
CONTINUOUS
10
1.22002
20
1.15191
11
1.22002
21
1.15192
0
LINE
8
BLACK
6
CONTINUOUS
10
1.22002
20
1.15192
11
1.21976
21
1.1543
0
LINE
8
BLACK
6
CONTINUOUS
10
1.21976
20
1.1543
11
1.21976
21
1.1543
0
LINE
8
BLACK
6
CONTINUOUS
10
1.21976
20
1.1543
11
1.21835
21
1.15809
0
LINE
8
BLACK
6
CONTINUOUS
10
1.21835
20
1.15809
11
1.21775
21
1.15969
0
LINE
8
BLACK
6
CONTINUOUS
10
1.21775
20
1.15969
11
1.21775
21
1.15969
0
LINE
8
BLACK
6
CONTINUOUS
10
1.21775
20
1.15969
11
1.21775
21
1.15969
0
LINE
8
BLACK
6
CONTINUOUS
10
1.21775
20
1.15969
11
1.2143
21
1.1643
0
LINE
8
BLACK
6
CONTINUOUS
10
1.2143
20
1.1643
11
1.20969
21
1.16775
0
LINE
8
BLACK
6
CONTINUOUS
10
1.20969
20
1.16775
11
1.20969
21
1.16775
0
LINE
8
BLACK
6
CONTINUOUS
10
1.20969
20
1.16775
11
1.2043
21
1.16976
0
LINE
8
BLACK
6
CONTINUOUS
10
1.2043
20
1.16976
11
1.2043
21
1.16976
0
LINE
8
BLACK
6
CONTINUOUS
10
1.2043
20
1.16976
11
1.20192
21
1.17002
0
LINE
8
BLACK
6
CONTINUOUS
10
1.20192
20
1.17002
11
1.20191
21
1.17002
0
LINE
8
BLACK
6
CONTINUOUS
10
1.20191
20
1.17002
11
1.13809
21
1.17002
0
LINE
8
BLACK
6
CONTINUOUS
10
1.13809
20
1.17002
11
1.13808
21
1.17002
0
LINE
8
BLACK
6
CONTINUOUS
10
1.13808
20
1.17002
11
1.1357
21
1.16976
0
LINE
8
BLACK
6
CONTINUOUS
10
1.1357
20
1.16976
11
1.1357
21
1.16976
0
LINE
8
BLACK
6
CONTINUOUS
10
1.1357
20
1.16976
11
1.13031
21
1.16775
0
LINE
8
BLACK
6
CONTINUOUS
10
1.13031
20
1.16775
11
1.13031
21
1.16775
0
LINE
8
BLACK
6
CONTINUOUS
10
1.13031
20
1.16775
11
1.1257
21
1.1643
0
LINE
8
BLACK
6
CONTINUOUS
10
1.1257
20
1.1643
11
1.12225
21
1.15969
0
LINE
8
BLACK
6
CONTINUOUS
10
1.12225
20
1.15969
11
1.12225
21
1.15969
0
LINE
8
BLACK
6
CONTINUOUS
10
1.12225
20
1.15969
11
1.12024
21
1.1543
0
LINE
8
BLACK
6
CONTINUOUS
10
1.12024
20
1.1543
11
1.12024
21
1.1543
0
LINE
8
BLACK
6
CONTINUOUS
10
1.12024
20
1.1543
11
1.11998
21
1.15192
0
LINE
8
BLACK
6
CONTINUOUS
10
1.11998
20
1.15192
11
1.11998
21
1.08808
0
LINE
8
BLACK
6
CONTINUOUS
10
1.11998
20
1.08808
11
1.12024
21
1.0857
0
LINE
8
BLACK
6
CONTINUOUS
10
1.12024
20
1.0857
11
1.12024
21
1.0857
0
LINE
8
BLACK
6
CONTINUOUS
10
1.12024
20
1.0857
11
1.12225
21
1.08031
0
LINE
8
BLACK
6
CONTINUOUS
10
1.12225
20
1.08031
11
1.12225
21
1.08031
0
LINE
8
BLACK
6
CONTINUOUS
10
1.12225
20
1.08031
11
1.1257
21
1.0757
0
LINE
8
BLACK
6
CONTINUOUS
10
1.1257
20
1.0757
11
1.12801
21
1.07397
0
LINE
8
BLACK
6
CONTINUOUS
10
1.12801
20
1.07397
11
1.12968
21
1.07173
0
LINE
8
BLACK
6
CONTINUOUS
10
1.12968
20
1.07173
11
1.12988
21
1.06895
0
LINE
8
BLACK
6
CONTINUOUS
10
1.12988
20
1.06895
11
1.12854
21
1.06649
0
LINE
8
BLACK
6
CONTINUOUS
10
1.12854
20
1.06649
11
1.12801
21
1.06603
0
LINE
8
BLACK
6
CONTINUOUS
10
1.12801
20
1.06603
11
1.1257
21
1.0643
0
LINE
8
BLACK
6
CONTINUOUS
10
1.1257
20
1.0643
11
1.12225
21
1.05969
0
LINE
8
BLACK
6
CONTINUOUS
10
1.12225
20
1.05969
11
1.12225
21
1.05969
0
LINE
8
BLACK
6
CONTINUOUS
10
1.12225
20
1.05969
11
1.12024
21
1.0543
0
LINE
8
BLACK
6
CONTINUOUS
10
1.12024
20
1.0543
11
1.12024
21
1.0543
0
LINE
8
BLACK
6
CONTINUOUS
10
1.12024
20
1.0543
11
1.11998
21
1.05192
0
LINE
8
BLACK
6
CONTINUOUS
10
1.11998
20
1.05192
11
1.11998
21
0.988085
0
LINE
8
BLACK
6
CONTINUOUS
10
1.11998
20
0.988085
11
1.12024
21
0.985701
0
LINE
8
BLACK
6
CONTINUOUS
10
1.12024
20
0.985701
11
1.12024
21
0.985701
0
LINE
8
BLACK
6
CONTINUOUS
10
1.12024
20
0.985701
11
1.12225
21
0.980307
0
LINE
8
BLACK
6
CONTINUOUS
10
1.12225
20
0.980307
11
1.12225
21
0.980307
0
LINE
8
BLACK
6
CONTINUOUS
10
1.12225
20
0.980307
11
1.1257
21
0.975698
0
LINE
8
BLACK
6
CONTINUOUS
10
1.1257
20
0.975698
11
1.13031
21
0.972249
0
LINE
8
BLACK
6
CONTINUOUS
10
1.13031
20
0.972249
11
1.13031
21
0.972249
0
LINE
8
BLACK
6
CONTINUOUS
10
1.13031
20
0.972249
11
1.13031
21
0.972248
0
LINE
8
BLACK
6
CONTINUOUS
10
1.13031
20
0.972248
11
1.13263
21
0.971381
0
LINE
8
BLACK
6
CONTINUOUS
10
1.13263
20
0.971381
11
1.1357
21
0.970237
0
LINE
8
BLACK
6
CONTINUOUS
10
1.1357
20
0.970237
11
1.1357
21
0.970237
0
LINE
8
BLACK
6
CONTINUOUS
10
1.1357
20
0.970237
11
1.1357
21
0.970237
0
LINE
8
BLACK
6
CONTINUOUS
10
1.1357
20
0.970237
11
1.1357
21
0.970237
0
LINE
8
BLACK
6
CONTINUOUS
10
1.1357
20
0.970237
11
1.13669
21
0.97013
0
LINE
8
BLACK
6
CONTINUOUS
10
1.13669
20
0.97013
11
1.13927
21
0.969061
0
LINE
8
BLACK
6
CONTINUOUS
10
1.13927
20
0.969061
11
1.14087
21
0.966765
0
LINE
8
BLACK
6
CONTINUOUS
10
1.14087
20
0.966765
11
1.14112
21
0.965198
0
LINE
8
BLACK
6
CONTINUOUS
10
1.14112
20
0.965198
11
1.14112
21
0.874016
0
LINE
8
BLACK
6
CONTINUOUS
10
1.14112
20
0.874016
11
1.14033
21
0.871334
0
LINE
8
BLACK
6
CONTINUOUS
10
1.14033
20
0.871334
11
1.13967
21
0.870509
0
LINE
8
BLACK
6
CONTINUOUS
10
1.13967
20
0.870509
11
0.927346
21
0.658186
0
LINE
8
BLACK
6
CONTINUOUS
10
0.927346
20
0.658186
11
0.924893
21
0.656846
0
LINE
8
BLACK
6
CONTINUOUS
10
0.924893
20
0.656846
11
0.922105
21
0.657046
0
LINE
8
BLACK
6
CONTINUOUS
10
0.922105
20
0.657046
11
0.919867
21
0.658721
0
LINE
8
BLACK
6
CONTINUOUS
10
0.919867
20
0.658721
11
0.918891
21
0.66134
0
LINE
8
BLACK
6
CONTINUOUS
10
0.918891
20
0.66134
11
0.918878
21
0.661694
0
LINE
8
BLACK
6
CONTINUOUS
10
0.918878
20
0.661694
11
0.918878
21
0.962967
0
LINE
8
BLACK
6
CONTINUOUS
10
0.918878
20
0.962967
11
0.919665
21
0.965649
0
LINE
8
BLACK
6
CONTINUOUS
10
0.919665
20
0.965649
11
0.921778
21
0.967479
0
LINE
8
BLACK
6
CONTINUOUS
10
0.921778
20
0.967479
11
0.923308
21
0.967899
0
LINE
8
BLACK
6
CONTINUOUS
10
0.923308
20
0.967899
11
0.924299
21
0.968005
0
LINE
8
BLACK
6
CONTINUOUS
10
0.924299
20
0.968005
11
0.924299
21
0.968005
0
LINE
8
BLACK
6
CONTINUOUS
10
0.924299
20
0.968005
11
0.924299
21
0.968005
0
LINE
8
BLACK
6
CONTINUOUS
10
0.924299
20
0.968005
11
0.929693
21
0.970017
0
LINE
8
BLACK
6
CONTINUOUS
10
0.929693
20
0.970017
11
0.929716
21
0.970035
0
LINE
8
BLACK
6
CONTINUOUS
10
0.929716
20
0.970035
11
0.934302
21
0.973467
0
LINE
8
BLACK
6
CONTINUOUS
10
0.934302
20
0.973467
11
0.936041
21
0.975791
0
LINE
8
BLACK
6
CONTINUOUS
10
0.936041
20
0.975791
11
0.938279
21
0.977466
0
LINE
8
BLACK
6
CONTINUOUS
10
0.938279
20
0.977466
11
0.941067
21
0.977665
0
LINE
8
BLACK
6
CONTINUOUS
10
0.941067
20
0.977665
11
0.94352
21
0.976326
0
LINE
8
BLACK
6
CONTINUOUS
10
0.94352
20
0.976326
11
0.943983
21
0.975791
0
LINE
8
BLACK
6
CONTINUOUS
10
0.943983
20
0.975791
11
0.945712
21
0.973481
0
LINE
8
BLACK
6
CONTINUOUS
10
0.945712
20
0.973481
11
0.950316
21
0.970035
0
LINE
8
BLACK
6
CONTINUOUS
10
0.950316
20
0.970035
11
0.955705
21
0.968025
0
LINE
8
BLACK
6
CONTINUOUS
10
0.955705
20
0.968025
11
0.958087
21
0.967769
0
LINE
8
BLACK
6
CONTINUOUS
10
0.958087
20
0.967769
11
0.958087
21
0.967769
0
LINE
8
BLACK
6
CONTINUOUS
10
0.958087
20
0.967769
11
0.97622
21
0.967769
0
LINE
8
BLACK
6
CONTINUOUS
10
0.97622
20
0.967769
11
0.97622
21
0.987769
0
LINE
8
BLACK
6
CONTINUOUS
10
0.97622
20
0.987769
11
0.96
21
0.987769
0
LINE
8
BLACK
6
CONTINUOUS
10
0.96
20
0.987769
11
0.96
21
1.04777
0
LINE
8
BLACK
6
CONTINUOUS
10
0.96
20
1.04777
11
0.98
21
1.04777
0
LINE
8
BLACK
6
CONTINUOUS
10
0.98
20
1.04777
11
0.98
21
1.08777
0
LINE
8
BLACK
6
CONTINUOUS
10
0.98
20
1.08777
11
0.96
21
1.08777
0
LINE
8
BLACK
6
CONTINUOUS
10
0.96
20
1.08777
11
0.96
21
1.14777
0
LINE
8
BLACK
6
CONTINUOUS
10
0.96
20
1.14777
11
0.98
21
1.14777
0
LINE
8
BLACK
6
CONTINUOUS
10
0.98
20
1.14777
11
0.98
21
1.16777
0
LINE
8
BLACK
6
CONTINUOUS
10
0.98
20
1.16777
11
0.958087
21
1.16777
0
LINE
8
BLACK
6
CONTINUOUS
10
0.958087
20
1.16777
11
0.955705
21
1.16751
0
LINE
8
BLACK
6
CONTINUOUS
10
0.955705
20
1.16751
11
0.950316
21
1.1655
0
LINE
8
BLACK
6
CONTINUOUS
10
0.950316
20
1.1655
11
0.950316
21
1.1655
0
LINE
8
BLACK
6
CONTINUOUS
10
0.950316
20
1.1655
11
0.945712
21
1.16206
0
LINE
8
BLACK
6
CONTINUOUS
10
0.945712
20
1.16206
11
0.943983
21
1.15975
0
LINE
8
BLACK
6
CONTINUOUS
10
0.943983
20
1.15975
11
0.941746
21
1.15807
0
LINE
8
BLACK
6
CONTINUOUS
10
0.941746
20
1.15807
11
0.938958
21
1.15787
0
LINE
8
BLACK
6
CONTINUOUS
10
0.938958
20
1.15787
11
0.936505
21
1.15921
0
LINE
8
BLACK
6
CONTINUOUS
10
0.936505
20
1.15921
11
0.936041
21
1.15975
0
LINE
8
BLACK
6
CONTINUOUS
10
0.936041
20
1.15975
11
0.934312
21
1.16206
0
LINE
8
BLACK
6
CONTINUOUS
10
0.934312
20
1.16206
11
0.934302
21
1.16207
0
LINE
8
BLACK
6
CONTINUOUS
10
0.934302
20
1.16207
11
0.934302
21
1.16207
0
LINE
8
BLACK
6
CONTINUOUS
10
0.934302
20
1.16207
11
0.934302
21
1.16207
0
LINE
8
BLACK
6
CONTINUOUS
10
0.934302
20
1.16207
11
0.929693
21
1.16552
0
LINE
8
BLACK
6
CONTINUOUS
10
0.929693
20
1.16552
11
0.929693
21
1.16552
0
LINE
8
BLACK
6
CONTINUOUS
10
0.929693
20
1.16552
11
0.924299
21
1.16753
0
LINE
8
BLACK
6
CONTINUOUS
10
0.924299
20
1.16753
11
0.924299
21
1.16753
0
LINE
8
BLACK
6
CONTINUOUS
10
0.924299
20
1.16753
11
0.921915
21
1.16779
0
LINE
8
BLACK
6
CONTINUOUS
10
0.921915
20
1.16779
11
0.921915
21
1.16779
0
LINE
8
BLACK
6
CONTINUOUS
10
0.921915
20
1.16779
11
0.858085
21
1.16779
0
LINE
8
BLACK
6
CONTINUOUS
10
0.858085
20
1.16779
11
0.858085
21
1.16779
0
LINE
8
BLACK
6
CONTINUOUS
10
0.858085
20
1.16779
11
0.855701
21
1.16753
0
LINE
8
BLACK
6
CONTINUOUS
10
0.855701
20
1.16753
11
0.855701
21
1.16753
0
LINE
8
BLACK
6
CONTINUOUS
10
0.855701
20
1.16753
11
0.850307
21
1.16552
0
LINE
8
BLACK
6
CONTINUOUS
10
0.850307
20
1.16552
11
0.850307
21
1.16552
0
LINE
8
BLACK
6
CONTINUOUS
10
0.850307
20
1.16552
11
0.845698
21
1.16207
0
LINE
8
BLACK
6
CONTINUOUS
10
0.845698
20
1.16207
11
0.843971
21
1.15976
0
LINE
8
BLACK
6
CONTINUOUS
10
0.843971
20
1.15976
11
0.841734
21
1.15809
0
LINE
8
BLACK
6
CONTINUOUS
10
0.841734
20
1.15809
11
0.838946
21
1.15789
0
LINE
8
BLACK
6
CONTINUOUS
10
0.838946
20
1.15789
11
0.836492
21
1.15923
0
LINE
8
BLACK
6
CONTINUOUS
10
0.836492
20
1.15923
11
0.836029
21
1.15976
0
LINE
8
BLACK
6
CONTINUOUS
10
0.836029
20
1.15976
11
0.834302
21
1.16207
0
LINE
8
BLACK
6
CONTINUOUS
10
0.834302
20
1.16207
11
0.829693
21
1.16552
0
LINE
8
BLACK
6
CONTINUOUS
10
0.829693
20
1.16552
11
0.829693
21
1.16552
0
LINE
8
BLACK
6
CONTINUOUS
10
0.829693
20
1.16552
11
0.824299
21
1.16753
0
LINE
8
BLACK
6
CONTINUOUS
10
0.824299
20
1.16753
11
0.824299
21
1.16753
0
LINE
8
BLACK
6
CONTINUOUS
10
0.824299
20
1.16753
11
0.821915
21
1.16779
0
LINE
8
BLACK
6
CONTINUOUS
10
0.821915
20
1.16779
11
0.821915
21
1.16779
0
LINE
8
BLACK
6
CONTINUOUS
10
0.821915
20
1.16779
11
0.758085
21
1.16779
0
LINE
8
BLACK
6
CONTINUOUS
10
0.758085
20
1.16779
11
0.758085
21
1.16779
0
LINE
8
BLACK
6
CONTINUOUS
10
0.758085
20
1.16779
11
0.755701
21
1.16753
0
LINE
8
BLACK
6
CONTINUOUS
10
0.755701
20
1.16753
11
0.755701
21
1.16753
0
LINE
8
BLACK
6
CONTINUOUS
10
0.755701
20
1.16753
11
0.750307
21
1.16552
0
LINE
8
BLACK
6
CONTINUOUS
10
0.750307
20
1.16552
11
0.750307
21
1.16552
0
LINE
8
BLACK
6
CONTINUOUS
10
0.750307
20
1.16552
11
0.745698
21
1.16207
0
LINE
8
BLACK
6
CONTINUOUS
10
0.745698
20
1.16207
11
0.743971
21
1.15976
0
LINE
8
BLACK
6
CONTINUOUS
10
0.743971
20
1.15976
11
0.741734
21
1.15809
0
LINE
8
BLACK
6
CONTINUOUS
10
0.741734
20
1.15809
11
0.738946
21
1.15789
0
LINE
8
BLACK
6
CONTINUOUS
10
0.738946
20
1.15789
11
0.736492
21
1.15923
0
LINE
8
BLACK
6
CONTINUOUS
10
0.736492
20
1.15923
11
0.736029
21
1.15976
0
LINE
8
BLACK
6
CONTINUOUS
10
0.736029
20
1.15976
11
0.734302
21
1.16207
0
LINE
8
BLACK
6
CONTINUOUS
10
0.734302
20
1.16207
11
0.729693
21
1.16552
0
LINE
8
BLACK
6
CONTINUOUS
10
0.729693
20
1.16552
11
0.729693
21
1.16552
0
LINE
8
BLACK
6
CONTINUOUS
10
0.729693
20
1.16552
11
0.724299
21
1.16753
0
LINE
8
BLACK
6
CONTINUOUS
10
0.724299
20
1.16753
11
0.724299
21
1.16753
0
LINE
8
BLACK
6
CONTINUOUS
10
0.724299
20
1.16753
11
0.721915
21
1.16779
0
LINE
8
BLACK
6
CONTINUOUS
10
0.721915
20
1.16779
11
0.721915
21
1.16779
0
LINE
8
BLACK
6
CONTINUOUS
10
0.721915
20
1.16779
11
0.658085
21
1.16779
0
LINE
8
BLACK
6
CONTINUOUS
10
0.658085
20
1.16779
11
0.658085
21
1.16779
0
LINE
8
BLACK
6
CONTINUOUS
10
0.658085
20
1.16779
11
0.655701
21
1.16753
0
LINE
8
BLACK
6
CONTINUOUS
10
0.655701
20
1.16753
11
0.655701
21
1.16753
0
LINE
8
BLACK
6
CONTINUOUS
10
0.655701
20
1.16753
11
0.650307
21
1.16552
0
LINE
8
BLACK
6
CONTINUOUS
10
0.650307
20
1.16552
11
0.650307
21
1.16552
0
LINE
8
BLACK
6
CONTINUOUS
10
0.650307
20
1.16552
11
0.645698
21
1.16207
0
LINE
8
BLACK
6
CONTINUOUS
10
0.645698
20
1.16207
11
0.643959
21
1.15975
0
LINE
8
BLACK
6
CONTINUOUS
10
0.643959
20
1.15975
11
0.641721
21
1.15807
0
LINE
8
BLACK
6
CONTINUOUS
10
0.641721
20
1.15807
11
0.638933
21
1.15787
0
LINE
8
BLACK
6
CONTINUOUS
10
0.638933
20
1.15787
11
0.63648
21
1.15921
0
LINE
8
BLACK
6
CONTINUOUS
10
0.63648
20
1.15921
11
0.636016
21
1.15975
0
LINE
8
BLACK
6
CONTINUOUS
10
0.636016
20
1.15975
11
0.634288
21
1.16206
0
LINE
8
BLACK
6
CONTINUOUS
10
0.634288
20
1.16206
11
0.629684
21
1.1655
0
LINE
8
BLACK
6
CONTINUOUS
10
0.629684
20
1.1655
11
0.624295
21
1.16751
0
LINE
8
BLACK
6
CONTINUOUS
10
0.624295
20
1.16751
11
0.621913
21
1.16777
0
LINE
8
BLACK
6
CONTINUOUS
10
0.621913
20
1.16777
11
0.6
21
1.16777
0
LINE
8
BLACK
6
CONTINUOUS
10
0.6
20
1.16777
11
0.6
21
1.14777
0
LINE
8
BLACK
6
CONTINUOUS
10
0.6
20
1.14777
11
0.62
21
1.14777
0
LINE
8
BLACK
6
CONTINUOUS
10
0.62
20
1.14777
11
0.62
21
1.08777
0
LINE
8
BLACK
6
CONTINUOUS
10
0.62
20
1.08777
11
0.6
21
1.08777
0
LINE
8
BLACK
6
CONTINUOUS
10
0.6
20
1.08777
11
0.6
21
1.04777
0
LINE
8
BLACK
6
CONTINUOUS
10
0.6
20
1.04777
11
0.62
21
1.04777
0
LINE
8
BLACK
6
CONTINUOUS
10
0.62
20
1.04777
11
0.62
21
0.987769
0
LINE
8
BLACK
6
CONTINUOUS
10
0.62
20
0.987769
11
0.6
21
0.987769
0
LINE
8
BLACK
6
CONTINUOUS
10
0.6
20
0.987769
11
0.6
21
0.967769
0
LINE
8
BLACK
6
CONTINUOUS
10
0.6
20
0.967769
11
0.621913
21
0.967769
0
LINE
8
BLACK
6
CONTINUOUS
10
0.621913
20
0.967769
11
0.621913
21
0.967769
0
LINE
8
BLACK
6
CONTINUOUS
10
0.621913
20
0.967769
11
0.624295
21
0.968025
0
LINE
8
BLACK
6
CONTINUOUS
10
0.624295
20
0.968025
11
0.629684
21
0.970035
0
LINE
8
BLACK
6
CONTINUOUS
10
0.629684
20
0.970035
11
0.629684
21
0.970035
0
LINE
8
BLACK
6
CONTINUOUS
10
0.629684
20
0.970035
11
0.634288
21
0.973481
0
LINE
8
BLACK
6
CONTINUOUS
10
0.634288
20
0.973481
11
0.636016
21
0.975791
0
LINE
8
BLACK
6
CONTINUOUS
10
0.636016
20
0.975791
11
0.638254
21
0.977466
0
LINE
8
BLACK
6
CONTINUOUS
10
0.638254
20
0.977466
11
0.641042
21
0.977665
0
LINE
8
BLACK
6
CONTINUOUS
10
0.641042
20
0.977665
11
0.643495
21
0.976326
0
LINE
8
BLACK
6
CONTINUOUS
10
0.643495
20
0.976326
11
0.643959
21
0.975791
0
LINE
8
BLACK
6
CONTINUOUS
10
0.643959
20
0.975791
11
0.645698
21
0.973467
0
LINE
8
BLACK
6
CONTINUOUS
10
0.645698
20
0.973467
11
0.650307
21
0.970017
0
LINE
8
BLACK
6
CONTINUOUS
10
0.650307
20
0.970017
11
0.650307
21
0.970017
0
LINE
8
BLACK
6
CONTINUOUS
10
0.650307
20
0.970017
11
0.650307
21
0.970017
0
LINE
8
BLACK
6
CONTINUOUS
10
0.650307
20
0.970017
11
0.652633
21
0.96915
0
LINE
8
BLACK
6
CONTINUOUS
10
0.652633
20
0.96915
11
0.655701
21
0.968005
0
LINE
8
BLACK
6
CONTINUOUS
10
0.655701
20
0.968005
11
0.655701
21
0.968005
0
LINE
8
BLACK
6
CONTINUOUS
10
0.655701
20
0.968005
11
0.658085
21
0.967749
0
LINE
8
BLACK
6
CONTINUOUS
10
0.658085
20
0.967749
11
0.658085
21
0.967749
0
LINE
8
BLACK
6
CONTINUOUS
10
0.658085
20
0.967749
11
0.658085
21
0.967749
0
LINE
8
BLACK
6
CONTINUOUS
10
0.658085
20
0.967749
11
0.658085
21
0.967749
0
LINE
8
BLACK
6
CONTINUOUS
10
0.658085
20
0.967749
11
0.721915
21
0.967749
0
LINE
8
BLACK
6
CONTINUOUS
10
0.721915
20
0.967749
11
0.721915
21
0.967749
0
LINE
8
BLACK
6
CONTINUOUS
10
0.721915
20
0.967749
11
0.721915
21
0.967749
0
LINE
8
BLACK
6
CONTINUOUS
10
0.721915
20
0.967749
11
0.721915
21
0.967749
0
LINE
8
BLACK
6
CONTINUOUS
10
0.721915
20
0.967749
11
0.724299
21
0.968005
0
LINE
8
BLACK
6
CONTINUOUS
10
0.724299
20
0.968005
11
0.724299
21
0.968005
0
LINE
8
BLACK
6
CONTINUOUS
10
0.724299
20
0.968005
11
0.724299
21
0.968005
0
LINE
8
BLACK
6
CONTINUOUS
10
0.724299
20
0.968005
11
0.729693
21
0.970017
0
LINE
8
BLACK
6
CONTINUOUS
10
0.729693
20
0.970017
11
0.729716
21
0.970035
0
LINE
8
BLACK
6
CONTINUOUS
10
0.729716
20
0.970035
11
0.734302
21
0.973467
0
LINE
8
BLACK
6
CONTINUOUS
10
0.734302
20
0.973467
11
0.736029
21
0.975774
0
LINE
8
BLACK
6
CONTINUOUS
10
0.736029
20
0.975774
11
0.738266
21
0.977449
0
LINE
8
BLACK
6
CONTINUOUS
10
0.738266
20
0.977449
11
0.741054
21
0.977649
0
LINE
8
BLACK
6
CONTINUOUS
10
0.741054
20
0.977649
11
0.743508
21
0.976309
0
LINE
8
BLACK
6
CONTINUOUS
10
0.743508
20
0.976309
11
0.743971
21
0.975774
0
LINE
8
BLACK
6
CONTINUOUS
10
0.743971
20
0.975774
11
0.745698
21
0.973467
0
LINE
8
BLACK
6
CONTINUOUS
10
0.745698
20
0.973467
11
0.750307
21
0.970017
0
LINE
8
BLACK
6
CONTINUOUS
10
0.750307
20
0.970017
11
0.750307
21
0.970017
0
LINE
8
BLACK
6
CONTINUOUS
10
0.750307
20
0.970017
11
0.752974
21
0.969023
0
LINE
8
BLACK
6
CONTINUOUS
10
0.752974
20
0.969023
11
0.755211
21
0.967348
0
LINE
8
BLACK
6
CONTINUOUS
10
0.755211
20
0.967348
11
0.756188
21
0.964729
0
LINE
8
BLACK
6
CONTINUOUS
10
0.756188
20
0.964729
11
0.756201
21
0.964375
0
LINE
8
BLACK
6
CONTINUOUS
10
0.756201
20
0.964375
11
0.756201
21
0.813839
0
LINE
8
BLACK
6
CONTINUOUS
10
0.756201
20
0.813839
11
0.755413
21
0.811157
0
LINE
8
BLACK
6
CONTINUOUS
10
0.755413
20
0.811157
11
0.753301
21
0.809326
0
LINE
8
BLACK
6
CONTINUOUS
10
0.753301
20
0.809326
11
0.75124
21
0.808878
0
LINE
8
BLACK
6
CONTINUOUS
10
0.75124
20
0.808878
11
0.692716
21
0.808878
0
LINE
8
BLACK
6
CONTINUOUS
10
0.692716
20
0.808878
11
0.690034
21
0.809665
0
LINE
8
BLACK
6
CONTINUOUS
10
0.690034
20
0.809665
11
0.689801
21
0.809825
0
LINE
8
BLACK
6
CONTINUOUS
10
0.689801
20
0.809825
11
0.687982
21
0.811146
0
LINE
8
BLACK
6
CONTINUOUS
10
0.687982
20
0.811146
11
0.681114
21
0.814204
0
LINE
8
BLACK
6
CONTINUOUS
10
0.681114
20
0.814204
11
0.673759
21
0.815768
0
LINE
8
BLACK
6
CONTINUOUS
10
0.673759
20
0.815768
11
0.666241
21
0.815768
0
LINE
8
BLACK
6
CONTINUOUS
10
0.666241
20
0.815768
11
0.658886
21
0.814204
0
LINE
8
BLACK
6
CONTINUOUS
10
0.658886
20
0.814204
11
0.652018
21
0.811146
0
LINE
8
BLACK
6
CONTINUOUS
10
0.652018
20
0.811146
11
0.650199
21
0.809825
0
LINE
8
BLACK
6
CONTINUOUS
10
0.650199
20
0.809825
11
0.647567
21
0.808886
0
LINE
8
BLACK
6
CONTINUOUS
10
0.647567
20
0.808886
11
0.647284
21
0.808878
0
LINE
8
BLACK
6
CONTINUOUS
10
0.647284
20
0.808878
11
0.622465
21
0.808878
0
LINE
8
BLACK
6
CONTINUOUS
10
0.622465
20
0.808878
11
0.621746
21
0.80893
0
LINE
8
BLACK
6
CONTINUOUS
10
0.621746
20
0.80893
11
0.620846
21
0.809062
0
LINE
8
BLACK
6
CONTINUOUS
10
0.620846
20
0.809062
11
0.620846
21
0.809062
0
LINE
8
BLACK
6
CONTINUOUS
10
0.620846
20
0.809062
11
0.618847
21
0.808887
0
LINE
8
BLACK
6
CONTINUOUS
10
0.618847
20
0.808887
11
0.618631
21
0.808878
0
LINE
8
BLACK
6
CONTINUOUS
10
0.618631
20
0.808878
11
0.618318
21
0.808878
0
LINE
8
BLACK
6
CONTINUOUS
10
0.618318
20
0.808878
11
0.617099
21
0.808735
0
LINE
8
BLACK
6
CONTINUOUS
10
0.617099
20
0.808735
11
0.617028
21
0.808728
0
LINE
8
BLACK
6
CONTINUOUS
10
0.617028
20
0.808728
11
0.615821
21
0.808623
0
LINE
8
BLACK
6
CONTINUOUS
10
0.615821
20
0.808623
11
0.614121
21
0.808474
0
LINE
8
BLACK
6
CONTINUOUS
10
0.614121
20
0.808474
11
0.613838
21
0.808415
0
LINE
8
BLACK
6
CONTINUOUS
10
0.613838
20
0.808415
11
0.613837
21
0.808419
0
LINE
8
BLACK
6
CONTINUOUS
10
0.613837
20
0.808419
11
0.613575
21
0.808361
0
LINE
8
BLACK
6
CONTINUOUS
10
0.613575
20
0.808361
11
0.613576
21
0.808357
0
LINE
8
BLACK
6
CONTINUOUS
10
0.613576
20
0.808357
11
0.613295
21
0.808291
0
LINE
8
BLACK
6
CONTINUOUS
10
0.613295
20
0.808291
11
0.610551
21
0.807292
0
LINE
8
BLACK
6
CONTINUOUS
10
0.610551
20
0.807292
11
0.610483
21
0.807269
0
LINE
8
BLACK
6
CONTINUOUS
10
0.610483
20
0.807269
11
0.607712
21
0.80635
0
LINE
8
BLACK
6
CONTINUOUS
10
0.607712
20
0.80635
11
0.607451
21
0.806228
0
LINE
8
BLACK
6
CONTINUOUS
10
0.607451
20
0.806228
11
0.607449
21
0.806232
0
LINE
8
BLACK
6
CONTINUOUS
10
0.607449
20
0.806232
11
0.607208
21
0.806115
0
LINE
8
BLACK
6
CONTINUOUS
10
0.607208
20
0.806115
11
0.60721
21
0.806112
0
LINE
8
BLACK
6
CONTINUOUS
10
0.60721
20
0.806112
11
0.606952
21
0.805982
0
LINE
8
BLACK
6
CONTINUOUS
10
0.606952
20
0.805982
11
0.604513
21
0.804378
0
LINE
8
BLACK
6
CONTINUOUS
10
0.604513
20
0.804378
11
0.604452
21
0.80434
0
LINE
8
BLACK
6
CONTINUOUS
10
0.604452
20
0.80434
11
0.601967
21
0.802807
0
LINE
8
BLACK
6
CONTINUOUS
10
0.601967
20
0.802807
11
0.60174
21
0.802627
0
LINE
8
BLACK
6
CONTINUOUS
10
0.60174
20
0.802627
11
0.601738
21
0.802631
0
LINE
8
BLACK
6
CONTINUOUS
10
0.601738
20
0.802631
11
0.60153
21
0.802461
0
LINE
8
BLACK
6
CONTINUOUS
10
0.60153
20
0.802461
11
0.601533
21
0.802458
0
LINE
8
BLACK
6
CONTINUOUS
10
0.601533
20
0.802458
11
0.601311
21
0.802273
0
LINE
8
BLACK
6
CONTINUOUS
10
0.601311
20
0.802273
11
0.599309
21
0.80015
0
LINE
8
BLACK
6
CONTINUOUS
10
0.599309
20
0.80015
11
0.599259
21
0.800098
0
LINE
8
BLACK
6
CONTINUOUS
10
0.599259
20
0.800098
11
0.560209
21
0.761049
0
LINE
8
BLACK
6
CONTINUOUS
10
0.560209
20
0.761049
11
0.557756
21
0.759709
0
LINE
8
BLACK
6
CONTINUOUS
10
0.557756
20
0.759709
11
0.557188
21
0.75962
0
LINE
8
BLACK
6
CONTINUOUS
10
0.557188
20
0.75962
11
0.552217
21
0.75913
0
LINE
8
BLACK
6
CONTINUOUS
10
0.552217
20
0.75913
11
0.544732
21
0.75686
0
LINE
8
BLACK
6
CONTINUOUS
10
0.544732
20
0.75686
11
0.537834
21
0.753173
0
LINE
8
BLACK
6
CONTINUOUS
10
0.537834
20
0.753173
11
0.531789
21
0.748211
0
LINE
8
BLACK
6
CONTINUOUS
10
0.531789
20
0.748211
11
0.526827
21
0.742166
0
LINE
8
BLACK
6
CONTINUOUS
10
0.526827
20
0.742166
11
0.52314
21
0.735268
0
LINE
8
BLACK
6
CONTINUOUS
10
0.52314
20
0.735268
11
0.52087
21
0.727783
0
LINE
8
BLACK
6
CONTINUOUS
10
0.52087
20
0.727783
11
0.520103
21
0.72
0
LINE
8
BLACK
6
CONTINUOUS
10
0.520103
20
0.72
11
0.520103
21
0.72
0
LINE
8
BLACK
6
CONTINUOUS
10
0.520103
20
0.72
11
0.52087
21
0.712217
0
LINE
8
BLACK
6
CONTINUOUS
10
0.22051
20
0.316316
11
0.233874
21
0.313148
0
LINE
8
BLACK
6
CONTINUOUS
10
0.233874
20
0.313148
11
0.246781
21
0.308451
0
LINE
8
BLACK
6
CONTINUOUS
10
0.246781
20
0.308451
11
0.259055
21
0.302286
0
LINE
8
BLACK
6
CONTINUOUS
10
0.259055
20
0.302286
11
0.270531
21
0.294739
0
LINE
8
BLACK
6
CONTINUOUS
10
0.270531
20
0.294739
11
0.281052
21
0.28591
0
LINE
8
BLACK
6
CONTINUOUS
10
0.281052
20
0.28591
11
0.290478
21
0.27592
0
LINE
8
BLACK
6
CONTINUOUS
10
0.290478
20
0.27592
11
0.29868
21
0.264903
0
LINE
8
BLACK
6
CONTINUOUS
10
0.29868
20
0.264903
11
0.305547
21
0.253008
0
LINE
8
BLACK
6
CONTINUOUS
10
0.305547
20
0.253008
11
0.310987
21
0.240396
0
LINE
8
BLACK
6
CONTINUOUS
10
0.310987
20
0.240396
11
0.314927
21
0.227238
0
LINE
8
BLACK
6
CONTINUOUS
10
0.314927
20
0.227238
11
0.317312
21
0.213712
0
LINE
8
BLACK
6
CONTINUOUS
10
0.317312
20
0.213712
11
0.31811
21
0.2
0
LINE
8
BLACK
6
CONTINUOUS
10
0.31811
20
0.2
11
0.317312
21
0.186288
0
LINE
8
BLACK
6
CONTINUOUS
10
0.317312
20
0.186288
11
0.314927
21
0.172762
0
LINE
8
BLACK
6
CONTINUOUS
10
0.314927
20
0.172762
11
0.310987
21
0.159604
0
LINE
8
BLACK
6
CONTINUOUS
10
0.310987
20
0.159604
11
0.305547
21
0.146992
0
LINE
8
BLACK
6
CONTINUOUS
10
0.305547
20
0.146992
11
0.29868
21
0.135097
0
LINE
8
BLACK
6
CONTINUOUS
10
0.29868
20
0.135097
11
0.290478
21
0.12408
0
LINE
8
BLACK
6
CONTINUOUS
10
0.290478
20
0.12408
11
0.281052
21
0.11409
0
LINE
8
BLACK
6
CONTINUOUS
10
0.281052
20
0.11409
11
0.270531
21
0.105261
0
LINE
8
BLACK
6
CONTINUOUS
10
0.270531
20
0.105261
11
0.259055
21
0.0977135
0
LINE
8
BLACK
6
CONTINUOUS
10
0.259055
20
0.0977135
11
0.246781
21
0.0915493
0
LINE
8
BLACK
6
CONTINUOUS
10
0.246781
20
0.0915493
11
0.233874
21
0.0868516
0
LINE
8
BLACK
6
CONTINUOUS
10
0.233874
20
0.0868516
11
0.22051
21
0.0836841
0
LINE
8
BLACK
6
CONTINUOUS
10
0.22051
20
0.0836841
11
0.206867
21
0.0820896
0
LINE
8
BLACK
6
CONTINUOUS
10
0.206867
20
0.0820896
11
0.193133
21
0.0820896
0
LINE
8
BLACK
6
CONTINUOUS
10
0.193133
20
0.0820896
11
0.17949
21
0.0836841
0
LINE
8
BLACK
6
CONTINUOUS
10
0.17949
20
0.0836841
11
0.166126
21
0.0868516
0
LINE
8
BLACK
6
CONTINUOUS
10
0.166126
20
0.0868516
11
0.153219
21
0.0915493
0
LINE
8
BLACK
6
CONTINUOUS
10
0.153219
20
0.0915493
11
0.140945
21
0.0977135
0
LINE
8
BLACK
6
CONTINUOUS
10
0.140945
20
0.0977135
11
0.129469
21
0.105261
0
LINE
8
BLACK
6
CONTINUOUS
10
0.129469
20
0.105261
11
0.118948
21
0.11409
0
LINE
8
BLACK
6
CONTINUOUS
10
0.118948
20
0.11409
11
0.109522
21
0.12408
0
LINE
8
BLACK
6
CONTINUOUS
10
0.109522
20
0.12408
11
0.10132
21
0.135097
0
LINE
8
BLACK
6
CONTINUOUS
10
0.10132
20
0.135097
11
0.0944528
21
0.146992
0
LINE
8
BLACK
6
CONTINUOUS
10
0.0944528
20
0.146992
11
0.0890127
21
0.159604
0
LINE
8
BLACK
6
CONTINUOUS
10
0.0890127
20
0.159604
11
0.0850734
21
0.172762
0
LINE
8
BLACK
6
CONTINUOUS
10
0.0850734
20
0.172762
11
0.0826884
21
0.186288
0
LINE
8
BLACK
6
CONTINUOUS
10
0.0826884
20
0.186288
11
0.0818898
21
0.2
0
LINE
8
BLACK
6
CONTINUOUS
10
0.0818898
20
0.2
11
0.0826884
21
0.213712
0
LINE
8
BLACK
6
CONTINUOUS
10
0.0826884
20
0.213712
11
0.0850734
21
0.227238
0
LINE
8
BLACK
6
CONTINUOUS
10
0.0850734
20
0.227238
11
0.0890127
21
0.240396
0
LINE
8
BLACK
6
CONTINUOUS
10
0.0890127
20
0.240396
11
0.0944528
21
0.253008
0
LINE
8
BLACK
6
CONTINUOUS
10
0.0944528
20
0.253008
11
0.10132
21
0.264903
0
LINE
8
BLACK
6
CONTINUOUS
10
0.10132
20
0.264903
11
0.109522
21
0.27592
0
LINE
8
BLACK
6
CONTINUOUS
10
0.109522
20
0.27592
11
0.118948
21
0.28591
0
LINE
8
BLACK
6
CONTINUOUS
10
0.118948
20
0.28591
11
0.129469
21
0.294739
0
LINE
8
BLACK
6
CONTINUOUS
10
0.129469
20
0.294739
11
0.140945
21
0.302286
0
LINE
8
BLACK
6
CONTINUOUS
10
0.140945
20
0.302286
11
0.153219
21
0.308451
0
LINE
8
BLACK
6
CONTINUOUS
10
0.153219
20
0.308451
11
0.166126
21
0.313148
0
LINE
8
BLACK
6
CONTINUOUS
10
0.166126
20
0.313148
11
0.17949
21
0.316316
0
LINE
8
BLACK
6
CONTINUOUS
10
0.17949
20
0.316316
11
0.193133
21
0.31791
0
LINE
8
BLACK
6
CONTINUOUS
10
0.193133
20
0.31791
11
0.206867
21
0.31791
0
LINE
8
BLACK
6
CONTINUOUS
10
0.206867
20
0.31791
11
0.22051
21
0.316316
0
LINE
8
BLACK
6
CONTINUOUS
10
0.22051
20
1.11632
11
0.233874
21
1.11315
0
LINE
8
BLACK
6
CONTINUOUS
10
0.233874
20
1.11315
11
0.246781
21
1.10845
0
LINE
8
BLACK
6
CONTINUOUS
10
0.246781
20
1.10845
11
0.259055
21
1.10229
0
LINE
8
BLACK
6
CONTINUOUS
10
0.259055
20
1.10229
11
0.270531
21
1.09474
0
LINE
8
BLACK
6
CONTINUOUS
10
0.270531
20
1.09474
11
0.281052
21
1.08591
0
LINE
8
BLACK
6
CONTINUOUS
10
0.281052
20
1.08591
11
0.290478
21
1.07592
0
LINE
8
BLACK
6
CONTINUOUS
10
0.290478
20
1.07592
11
0.29868
21
1.0649
0
LINE
8
BLACK
6
CONTINUOUS
10
0.29868
20
1.0649
11
0.305547
21
1.05301
0
LINE
8
BLACK
6
CONTINUOUS
10
0.305547
20
1.05301
11
0.310987
21
1.0404
0
LINE
8
BLACK
6
CONTINUOUS
10
0.310987
20
1.0404
11
0.314927
21
1.02724
0
LINE
8
BLACK
6
CONTINUOUS
10
0.314927
20
1.02724
11
0.317312
21
1.01371
0
LINE
8
BLACK
6
CONTINUOUS
10
0.317312
20
1.01371
11
0.31811
21
1
0
LINE
8
BLACK
6
CONTINUOUS
10
0.31811
20
1
11
0.317312
21
0.986288
0
LINE
8
BLACK
6
CONTINUOUS
10
0.317312
20
0.986288
11
0.314927
21
0.972762
0
LINE
8
BLACK
6
CONTINUOUS
10
0.314927
20
0.972762
11
0.310987
21
0.959604
0
LINE
8
BLACK
6
CONTINUOUS
10
0.310987
20
0.959604
11
0.305547
21
0.946992
0
LINE
8
BLACK
6
CONTINUOUS
10
0.305547
20
0.946992
11
0.29868
21
0.935097
0
LINE
8
BLACK
6
CONTINUOUS
10
0.29868
20
0.935097
11
0.290478
21
0.92408
0
LINE
8
BLACK
6
CONTINUOUS
10
0.290478
20
0.92408
11
0.281052
21
0.91409
0
LINE
8
BLACK
6
CONTINUOUS
10
0.281052
20
0.91409
11
0.270531
21
0.905261
0
LINE
8
BLACK
6
CONTINUOUS
10
0.270531
20
0.905261
11
0.259055
21
0.897714
0
LINE
8
BLACK
6
CONTINUOUS
10
0.259055
20
0.897714
11
0.246781
21
0.891549
0
LINE
8
BLACK
6
CONTINUOUS
10
0.246781
20
0.891549
11
0.233874
21
0.886852
0
LINE
8
BLACK
6
CONTINUOUS
10
0.233874
20
0.886852
11
0.22051
21
0.883684
0
LINE
8
BLACK
6
CONTINUOUS
10
0.22051
20
0.883684
11
0.206867
21
0.88209
0
LINE
8
BLACK
6
CONTINUOUS
10
0.206867
20
0.88209
11
0.193133
21
0.88209
0
LINE
8
BLACK
6
CONTINUOUS
10
0.193133
20
0.88209
11
0.17949
21
0.883684
0
LINE
8
BLACK
6
CONTINUOUS
10
0.17949
20
0.883684
11
0.166126
21
0.886852
0
LINE
8
BLACK
6
CONTINUOUS
10
0.166126
20
0.886852
11
0.153219
21
0.891549
0
LINE
8
BLACK
6
CONTINUOUS
10
0.153219
20
0.891549
11
0.140945
21
0.897714
0
LINE
8
BLACK
6
CONTINUOUS
10
0.140945
20
0.897714
11
0.129469
21
0.905261
0
LINE
8
BLACK
6
CONTINUOUS
10
0.129469
20
0.905261
11
0.118948
21
0.91409
0
LINE
8
BLACK
6
CONTINUOUS
10
0.118948
20
0.91409
11
0.109522
21
0.92408
0
LINE
8
BLACK
6
CONTINUOUS
10
0.109522
20
0.92408
11
0.10132
21
0.935097
0
LINE
8
BLACK
6
CONTINUOUS
10
0.10132
20
0.935097
11
0.0944528
21
0.946992
0
LINE
8
BLACK
6
CONTINUOUS
10
0.0944528
20
0.946992
11
0.0890127
21
0.959604
0
LINE
8
BLACK
6
CONTINUOUS
10
0.0890127
20
0.959604
11
0.0850734
21
0.972762
0
LINE
8
BLACK
6
CONTINUOUS
10
0.0850734
20
0.972762
11
0.0826884
21
0.986288
0
LINE
8
BLACK
6
CONTINUOUS
10
0.0826884
20
0.986288
11
0.0818898
21
1
0
LINE
8
BLACK
6
CONTINUOUS
10
0.0818898
20
1
11
0.0826884
21
1.01371
0
LINE
8
BLACK
6
CONTINUOUS
10
0.0826884
20
1.01371
11
0.0850734
21
1.02724
0
LINE
8
BLACK
6
CONTINUOUS
10
0.0850734
20
1.02724
11
0.0890127
21
1.0404
0
LINE
8
BLACK
6
CONTINUOUS
10
0.0890127
20
1.0404
11
0.0944528
21
1.05301
0
LINE
8
BLACK
6
CONTINUOUS
10
0.0944528
20
1.05301
11
0.10132
21
1.0649
0
LINE
8
BLACK
6
CONTINUOUS
10
0.10132
20
1.0649
11
0.109522
21
1.07592
0
LINE
8
BLACK
6
CONTINUOUS
10
0.109522
20
1.07592
11
0.118948
21
1.08591
0
LINE
8
BLACK
6
CONTINUOUS
10
0.118948
20
1.08591
11
0.129469
21
1.09474
0
LINE
8
BLACK
6
CONTINUOUS
10
0.129469
20
1.09474
11
0.140945
21
1.10229
0
LINE
8
BLACK
6
CONTINUOUS
10
0.140945
20
1.10229
11
0.153219
21
1.10845
0
LINE
8
BLACK
6
CONTINUOUS
10
0.153219
20
1.10845
11
0.166126
21
1.11315
0
LINE
8
BLACK
6
CONTINUOUS
10
0.166126
20
1.11315
11
0.17949
21
1.11632
0
LINE
8
BLACK
6
CONTINUOUS
10
0.17949
20
1.11632
11
0.193133
21
1.11791
0
LINE
8
BLACK
6
CONTINUOUS
10
0.193133
20
1.11791
11
0.206867
21
1.11791
0
LINE
8
BLACK
6
CONTINUOUS
10
0.206867
20
1.11791
11
0.22051
21
1.11632
0
CIRCLE
8
BLACK
10
1.4
20
0.2
40
0.00688976
0
CIRCLE
8
BLACK
10
0.2
20
1
40
0.00688976
0
CIRCLE
8
BLACK
10
0.2
20
0.2
40
0.00688976
0
CIRCLE
8
BLACK
10
1.4
20
1
40
0.00688976
0
CIRCLE
8
BLACK
10
0.65
20
0.225
40
0.00688976
0
CIRCLE
8
BLACK
10
0.65
20
0.125
40
0.00688976
0
CIRCLE
8
BLACK
10
1.17
20
1.12
40
0.00688976
0
CIRCLE
8
BLACK
10
1.17
20
1.02
40
0.00688976
0
CIRCLE
8
BLACK
10
0.89
20
1.11777
40
0.00688976
0
CIRCLE
8
BLACK
10
0.89
20
1.01777
40
0.00688976
0
CIRCLE
8
BLACK
10
0.69
20
1.11777
40
0.00688976
0
CIRCLE
8
BLACK
10
0.69
20
1.01777
40
0.00688976
0
CIRCLE
8
BLACK
10
1.34
20
0.6
40
0.00688976
0
CIRCLE
8
BLACK
10
1.44
20
0.6
40
0.00688976
0
CIRCLE
8
BLACK
10
1.1
20
0.225
40
0.00688976
0
CIRCLE
8
BLACK
10
1.1
20
0.125
40
0.00688976
0
CIRCLE
8
BLACK
10
1
20
0.225
40
0.00688976
0
CIRCLE
8
BLACK
10
1
20
0.125
40
0.00688976
0
CIRCLE
8
BLACK
10
0.9
20
0.225
40
0.00688976
0
CIRCLE
8
BLACK
10
0.9
20
0.125
40
0.00688976
0
CIRCLE
8
BLACK
10
0.99
20
1.01777
40
0.00688976
0
CIRCLE
8
BLACK
10
0.99
20
1.11777
40
0.00688976
0
CIRCLE
8
BLACK
10
0.79
20
1.01777
40
0.00688976
0
CIRCLE
8
BLACK
10
0.79
20
1.11777
40
0.00688976
0
CIRCLE
8
BLACK
10
0.59
20
1.01777
40
0.00688976
0
CIRCLE
8
BLACK
10
0.59
20
1.11777
40
0.00688976
0
CIRCLE
8
BLACK
10
1.34
20
0.7
40
0.00688976
0
CIRCLE
8
BLACK
10
1.44
20
0.7
40
0.00688976
0
CIRCLE
8
BLACK
10
0.41
20
0.06
40
0.011811
0
CIRCLE
8
BLACK
10
0.73
20
0.06
40
0.011811
0
CIRCLE
8
BLACK
10
0.41
20
0.16
40
0.011811
0
CIRCLE
8
BLACK
10
0.96
20
0.81
40
0.011811
0
CIRCLE
8
BLACK
10
0.68
20
0.65
40
0.011811
0
CIRCLE
8
BLACK
10
0.44
20
0.86
40
0.011811
0
CIRCLE
8
BLACK
10
0.5
20
0.7
40
0.011811
0
CIRCLE
8
BLACK
10
1.31
20
0.45
40
0.011811
0
CIRCLE
8
BLACK
10
1.36
20
0.8
40
0.011811
0
CIRCLE
8
BLACK
10
1.43
20
0.8
40
0.011811
0
CIRCLE
8
BLACK
10
1.11
20
0.54
40
0.011811
0
CIRCLE
8
BLACK
10
0.42
20
0.97
40
0.011811
0
CIRCLE
8
BLACK
10
0.667826
20
0.849082
40
0.011811
0
CIRCLE
8
BLACK
10
0.73
20
0.11
40
0.011811
0
CIRCLE
8
BLACK
10
0.42
20
1.12
40
0.011811
0
CIRCLE
8
BLACK
10
0.65
20
0.62
40
0.011811
0
CIRCLE
8
BLACK
10
1.02
20
0.93
40
0.011811
0
CIRCLE
8
BLACK
10
1.21
20
0.29
40
0.011811
0
CIRCLE
8
BLACK
10
0.505
20
0.555
40
0.011811
0
CIRCLE
8
BLACK
10
0.45
20
0.78
40
0.011811
0
CIRCLE
8
BLACK
10
0.42
20
1.05
40
0.011811
0
CIRCLE
8
BLACK
10
0.5
20
1.12
40
0.011811
0
CIRCLE
8
BLACK
10
0.47
20
0.91
40
0.011811
0
CIRCLE
8
BLACK
10
0.62
20
0.65
40
0.011811
0
CIRCLE
8
BLACK
10
1.11
20
0.34
40
0.011811
0
CIRCLE
8
BLACK
10
0.62
20
0.5925
40
0.011811
0
CIRCLE
8
BLACK
10
0.56
20
0.72
40
0.011811
0
CIRCLE
8
BLACK
10
0.67
20
0.78
40
0.00787402
0
CIRCLE
8
BLACK
10
0.85
20
0.84
40
0.00787402
0
CIRCLE
8
BLACK
10
0.80685
20
0.59
40
0.00787402
0
CIRCLE
8
BLACK
10
1.08
20
0.7
40
0.00787402
0
CIRCLE
8
BLACK
10
0.79
20
0.48
40
0.00787402
0
CIRCLE
8
BLACK
10
0.84
20
0.48
40
0.00787402
0
CIRCLE
8
BLACK
10
0.75
20
0.5
40
0.00787402
  0
ENDSEC
  0
EOF
