  0
SECTION
  2
HEADER
  9
$ANGBASE
  50
0.0
  9
$ANGDIR
  70
1
  9
$MEASUREMENT
  70
0
  0
ENDSEC
  0
SECTION
  2
TABLES
  0
TABLE
  2
LTYPE
  70
4
  0
LTYPE
  5
40F
  2
CONTINUOUS
  70
0
  3
Solid line
  72
65
  73
0
  40
0.0
  0
LTYPE
  5
410
  2
DASHDOT
 70
0
  3
Dash Dot ____ _ ____ _
 72
65
 73
4
 40
2.0
 49
1.25
 49
-0.25
 49
0.25
 49
-0.25
  0
LTYPE
  5
411
  2
DASHED
 70
0
  3
Dashed __ __ __ __ __
 72
65
 73
2
 40
0.75
 49
0.5
 49
-0.25
  0
LTYPE
  5
43B
  2
DOTTED
 70
0
  3
Dotted .  .  .  .
 72
65
 73
2
 40
0.2
 49
0.0
 49
-0.2
  0
ENDTAB
  0
TABLE
  2
STYLE
  70
4
  0
STYLE
  2
KICAD
  70
0
  40
0
  41
1
  42
1
  50
0
  71
0
  3
isocp.shx
  0
STYLE
  2
KICADB
  70
0
  40
0
  41
1
  42
1
  50
0
  71
0
  3
isocp.shx
  0
STYLE
  2
KICADI
  70
0
  40
0
  41
1
  42
1
  50
15
  71
0
  3
isocp.shx
  0
STYLE
  2
KICADBI
  70
0
  40
0
  41
1
  42
1
  50
15
  71
0
  3
isocp.shx
  0
ENDTAB
  0
TABLE
  2
LAYER
  70
1
  0
LAYER
  2
BLACK
  70
0
  62
7
  6
CONTINUOUS
  0
ENDTAB
  0
ENDSEC
  0
SECTION
  2
ENTITIES
0
LINE
8
BLACK
6
CONTINUOUS
10
1.41492
20
0.325098
11
1.42877
21
0.322656
0
LINE
8
BLACK
6
CONTINUOUS
10
1.42877
20
0.322656
11
1.44226
21
0.318684
0
LINE
8
BLACK
6
CONTINUOUS
10
1.44226
20
0.318684
11
1.45523
21
0.313234
0
LINE
8
BLACK
6
CONTINUOUS
10
1.45523
20
0.313234
11
1.46751
21
0.306372
0
LINE
8
BLACK
6
CONTINUOUS
10
1.46751
20
0.306372
11
1.47894
21
0.298184
0
LINE
8
BLACK
6
CONTINUOUS
10
1.47894
20
0.298184
11
1.48939
21
0.288773
0
LINE
8
BLACK
6
CONTINUOUS
10
1.48939
20
0.288773
11
1.49873
21
0.278255
0
LINE
8
BLACK
6
CONTINUOUS
10
1.49873
20
0.278255
11
1.50684
21
0.266761
0
LINE
8
BLACK
6
CONTINUOUS
10
1.50684
20
0.266761
11
1.51362
21
0.254436
0
LINE
8
BLACK
6
CONTINUOUS
10
1.51362
20
0.254436
11
1.51898
21
0.241432
0
LINE
8
BLACK
6
CONTINUOUS
10
1.51898
20
0.241432
11
1.52285
21
0.227912
0
LINE
8
BLACK
6
CONTINUOUS
10
1.52285
20
0.227912
11
1.5252
21
0.214043
0
LINE
8
BLACK
6
CONTINUOUS
10
1.5252
20
0.214043
11
1.52598
21
0.2
0
LINE
8
BLACK
6
CONTINUOUS
10
1.52598
20
0.2
11
1.52594
21
0.196482
0
LINE
8
BLACK
6
CONTINUOUS
10
1.52594
20
0.196482
11
1.52476
21
0.182466
0
LINE
8
BLACK
6
CONTINUOUS
10
1.52476
20
0.182466
11
1.52203
21
0.168669
0
LINE
8
BLACK
6
CONTINUOUS
10
1.52203
20
0.168669
11
1.51777
21
0.155262
0
LINE
8
BLACK
6
CONTINUOUS
10
1.51777
20
0.155262
11
1.51205
21
0.142413
0
LINE
8
BLACK
6
CONTINUOUS
10
1.51205
20
0.142413
11
1.50493
21
0.130281
0
LINE
8
BLACK
6
CONTINUOUS
10
1.50493
20
0.130281
11
1.49651
21
0.119019
0
LINE
8
BLACK
6
CONTINUOUS
10
1.49651
20
0.119019
11
1.48688
21
0.108766
0
LINE
8
BLACK
6
CONTINUOUS
10
1.48688
20
0.108766
11
1.47617
21
0.0996498
0
LINE
8
BLACK
6
CONTINUOUS
10
1.47617
20
0.0996498
11
1.46451
21
0.0917846
0
LINE
8
BLACK
6
CONTINUOUS
10
1.46451
20
0.0917846
11
1.45204
21
0.0852682
0
LINE
8
BLACK
6
CONTINUOUS
10
1.45204
20
0.0852682
11
1.43893
21
0.0801819
0
LINE
8
BLACK
6
CONTINUOUS
10
1.43893
20
0.0801819
11
1.42533
21
0.0765889
0
LINE
8
BLACK
6
CONTINUOUS
10
1.42533
20
0.0765889
11
1.41142
21
0.0745343
0
LINE
8
BLACK
6
CONTINUOUS
10
1.41142
20
0.0745343
11
1.39736
21
0.0740434
0
LINE
8
BLACK
6
CONTINUOUS
10
1.39736
20
0.0740434
11
1.38334
21
0.0751224
0
LINE
8
BLACK
6
CONTINUOUS
10
1.38334
20
0.0751224
11
1.36952
21
0.077758
0
LINE
8
BLACK
6
CONTINUOUS
10
1.36952
20
0.077758
11
1.35609
21
0.0819172
0
LINE
8
BLACK
6
CONTINUOUS
10
1.35609
20
0.0819172
11
1.3432
21
0.0875482
0
LINE
8
BLACK
6
CONTINUOUS
10
1.3432
20
0.0875482
11
1.33102
21
0.0945809
0
LINE
8
BLACK
6
CONTINUOUS
10
1.33102
20
0.0945809
11
1.31969
21
0.102927
0
LINE
8
BLACK
6
CONTINUOUS
10
1.31969
20
0.102927
11
1.30937
21
0.112484
0
LINE
8
BLACK
6
CONTINUOUS
10
1.30937
20
0.112484
11
1.30018
21
0.123131
0
LINE
8
BLACK
6
CONTINUOUS
10
1.30018
20
0.123131
11
1.29224
21
0.134737
0
LINE
8
BLACK
6
CONTINUOUS
10
1.29224
20
0.134737
11
1.28563
21
0.147156
0
LINE
8
BLACK
6
CONTINUOUS
10
1.28563
20
0.147156
11
1.28046
21
0.160233
0
LINE
8
BLACK
6
CONTINUOUS
10
1.28046
20
0.160233
11
1.27677
21
0.173806
0
LINE
8
BLACK
6
CONTINUOUS
10
1.27677
20
0.173806
11
1.27462
21
0.187706
0
LINE
8
BLACK
6
CONTINUOUS
10
1.27462
20
0.187706
11
1.27403
21
0.201759
0
LINE
8
BLACK
6
CONTINUOUS
10
1.27403
20
0.201759
11
1.27501
21
0.21579
0
LINE
8
BLACK
6
CONTINUOUS
10
1.27501
20
0.21579
11
1.27755
21
0.229624
0
LINE
8
BLACK
6
CONTINUOUS
10
1.27755
20
0.229624
11
1.28161
21
0.243089
0
LINE
8
BLACK
6
CONTINUOUS
10
1.28161
20
0.243089
11
1.28715
21
0.256017
0
LINE
8
BLACK
6
CONTINUOUS
10
1.28715
20
0.256017
11
1.2941
21
0.268247
0
LINE
8
BLACK
6
CONTINUOUS
10
1.2941
20
0.268247
11
1.30237
21
0.279626
0
LINE
8
BLACK
6
CONTINUOUS
10
1.30237
20
0.279626
11
1.31185
21
0.290012
0
LINE
8
BLACK
6
CONTINUOUS
10
1.31185
20
0.290012
11
1.32244
21
0.299277
0
LINE
8
BLACK
6
CONTINUOUS
10
1.32244
20
0.299277
11
1.33399
21
0.307304
0
LINE
8
BLACK
6
CONTINUOUS
10
1.33399
20
0.307304
11
1.34636
21
0.313994
0
LINE
8
BLACK
6
CONTINUOUS
10
1.34636
20
0.313994
11
1.3594
21
0.319263
0
LINE
8
BLACK
6
CONTINUOUS
10
1.3594
20
0.319263
11
1.37295
21
0.323045
0
LINE
8
BLACK
6
CONTINUOUS
10
1.37295
20
0.323045
11
1.38683
21
0.325294
0
LINE
8
BLACK
6
CONTINUOUS
10
1.38683
20
0.325294
11
1.40088
21
0.325981
0
LINE
8
BLACK
6
CONTINUOUS
10
1.40088
20
0.325981
11
1.41492
21
0.325098
0
LINE
8
BLACK
6
CONTINUOUS
10
0.214917
20
0.325098
11
0.228769
21
0.322656
0
LINE
8
BLACK
6
CONTINUOUS
10
0.228769
20
0.322656
11
0.242262
21
0.318684
0
LINE
8
BLACK
6
CONTINUOUS
10
0.242262
20
0.318684
11
0.255228
21
0.313234
0
LINE
8
BLACK
6
CONTINUOUS
10
0.255228
20
0.313234
11
0.267506
21
0.306372
0
LINE
8
BLACK
6
CONTINUOUS
10
0.267506
20
0.306372
11
0.278942
21
0.298184
0
LINE
8
BLACK
6
CONTINUOUS
10
0.278942
20
0.298184
11
0.289395
21
0.288773
0
LINE
8
BLACK
6
CONTINUOUS
10
0.289395
20
0.288773
11
0.298733
21
0.278255
0
LINE
8
BLACK
6
CONTINUOUS
10
0.298733
20
0.278255
11
0.306841
21
0.266761
0
LINE
8
BLACK
6
CONTINUOUS
10
0.306841
20
0.266761
11
0.313617
21
0.254436
0
LINE
8
BLACK
6
CONTINUOUS
10
0.313617
20
0.254436
11
0.318977
21
0.241432
0
LINE
8
BLACK
6
CONTINUOUS
10
0.318977
20
0.241432
11
0.322853
21
0.227912
0
LINE
8
BLACK
6
CONTINUOUS
10
0.322853
20
0.227912
11
0.325199
21
0.214043
0
LINE
8
BLACK
6
CONTINUOUS
10
0.325199
20
0.214043
11
0.325984
21
0.2
0
LINE
8
BLACK
6
CONTINUOUS
10
0.325984
20
0.2
11
0.325935
21
0.196482
0
LINE
8
BLACK
6
CONTINUOUS
10
0.325935
20
0.196482
11
0.324758
21
0.182466
0
LINE
8
BLACK
6
CONTINUOUS
10
0.324758
20
0.182466
11
0.322026
21
0.168669
0
LINE
8
BLACK
6
CONTINUOUS
10
0.322026
20
0.168669
11
0.317773
21
0.155262
0
LINE
8
BLACK
6
CONTINUOUS
10
0.317773
20
0.155262
11
0.312052
21
0.142413
0
LINE
8
BLACK
6
CONTINUOUS
10
0.312052
20
0.142413
11
0.304935
21
0.130281
0
LINE
8
BLACK
6
CONTINUOUS
10
0.304935
20
0.130281
11
0.29651
21
0.119019
0
LINE
8
BLACK
6
CONTINUOUS
10
0.29651
20
0.119019
11
0.286881
21
0.108766
0
LINE
8
BLACK
6
CONTINUOUS
10
0.286881
20
0.108766
11
0.27617
21
0.0996498
0
LINE
8
BLACK
6
CONTINUOUS
10
0.27617
20
0.0996498
11
0.264509
21
0.0917846
0
LINE
8
BLACK
6
CONTINUOUS
10
0.264509
20
0.0917846
11
0.252045
21
0.0852682
0
LINE
8
BLACK
6
CONTINUOUS
10
0.252045
20
0.0852682
11
0.238931
21
0.0801819
0
LINE
8
BLACK
6
CONTINUOUS
10
0.238931
20
0.0801819
11
0.225333
21
0.0765889
0
LINE
8
BLACK
6
CONTINUOUS
10
0.225333
20
0.0765889
11
0.211418
21
0.0745343
0
LINE
8
BLACK
6
CONTINUOUS
10
0.211418
20
0.0745343
11
0.197362
21
0.0740434
0
LINE
8
BLACK
6
CONTINUOUS
10
0.197362
20
0.0740434
11
0.183338
21
0.0751224
0
LINE
8
BLACK
6
CONTINUOUS
10
0.183338
20
0.0751224
11
0.169522
21
0.077758
0
LINE
8
BLACK
6
CONTINUOUS
10
0.169522
20
0.077758
11
0.156085
21
0.0819172
0
LINE
8
BLACK
6
CONTINUOUS
10
0.156085
20
0.0819172
11
0.143197
21
0.0875482
0
LINE
8
BLACK
6
CONTINUOUS
10
0.143197
20
0.0875482
11
0.131016
21
0.0945809
0
LINE
8
BLACK
6
CONTINUOUS
10
0.131016
20
0.0945809
11
0.119695
21
0.102927
0
LINE
8
BLACK
6
CONTINUOUS
10
0.119695
20
0.102927
11
0.109375
21
0.112484
0
LINE
8
BLACK
6
CONTINUOUS
10
0.109375
20
0.112484
11
0.100184
21
0.123131
0
LINE
8
BLACK
6
CONTINUOUS
10
0.100184
20
0.123131
11
0.0922376
21
0.134737
0
LINE
8
BLACK
6
CONTINUOUS
10
0.0922376
20
0.134737
11
0.0856343
21
0.147156
0
LINE
8
BLACK
6
CONTINUOUS
10
0.0856343
20
0.147156
11
0.0804566
21
0.160233
0
LINE
8
BLACK
6
CONTINUOUS
10
0.0804566
20
0.160233
11
0.0767688
21
0.173806
0
LINE
8
BLACK
6
CONTINUOUS
10
0.0767688
20
0.173806
11
0.074617
21
0.187706
0
LINE
8
BLACK
6
CONTINUOUS
10
0.074617
20
0.187706
11
0.074028
21
0.201759
0
LINE
8
BLACK
6
CONTINUOUS
10
0.074028
20
0.201759
11
0.0750092
21
0.21579
0
LINE
8
BLACK
6
CONTINUOUS
10
0.0750092
20
0.21579
11
0.0775482
21
0.229624
0
LINE
8
BLACK
6
CONTINUOUS
10
0.0775482
20
0.229624
11
0.0816135
21
0.243089
0
LINE
8
BLACK
6
CONTINUOUS
10
0.0816135
20
0.243089
11
0.0871544
21
0.256017
0
LINE
8
BLACK
6
CONTINUOUS
10
0.0871544
20
0.256017
11
0.0941019
21
0.268247
0
LINE
8
BLACK
6
CONTINUOUS
10
0.0941019
20
0.268247
11
0.102369
21
0.279626
0
LINE
8
BLACK
6
CONTINUOUS
10
0.102369
20
0.279626
11
0.111853
21
0.290012
0
LINE
8
BLACK
6
CONTINUOUS
10
0.111853
20
0.290012
11
0.122436
21
0.299277
0
LINE
8
BLACK
6
CONTINUOUS
10
0.122436
20
0.299277
11
0.133986
21
0.307304
0
LINE
8
BLACK
6
CONTINUOUS
10
0.133986
20
0.307304
11
0.146359
21
0.313994
0
LINE
8
BLACK
6
CONTINUOUS
10
0.146359
20
0.313994
11
0.1594
21
0.319263
0
LINE
8
BLACK
6
CONTINUOUS
10
0.1594
20
0.319263
11
0.172947
21
0.323045
0
LINE
8
BLACK
6
CONTINUOUS
10
0.172947
20
0.323045
11
0.186831
21
0.325294
0
LINE
8
BLACK
6
CONTINUOUS
10
0.186831
20
0.325294
11
0.20088
21
0.325981
0
LINE
8
BLACK
6
CONTINUOUS
10
0.20088
20
0.325981
11
0.214917
21
0.325098
0
LINE
8
BLACK
6
CONTINUOUS
10
0.683013
20
0.162275
11
0.685568
21
0.160568
0
LINE
8
BLACK
6
CONTINUOUS
10
0.685568
20
0.160568
11
0.687275
21
0.158013
0
LINE
8
BLACK
6
CONTINUOUS
10
0.687275
20
0.158013
11
0.687874
21
0.155
0
LINE
8
BLACK
6
CONTINUOUS
10
0.687874
20
0.155
11
0.687874
21
0.095
0
LINE
8
BLACK
6
CONTINUOUS
10
0.687874
20
0.095
11
0.687275
21
0.0919867
0
LINE
8
BLACK
6
CONTINUOUS
10
0.687275
20
0.0919867
11
0.685568
21
0.0894322
0
LINE
8
BLACK
6
CONTINUOUS
10
0.685568
20
0.0894322
11
0.683013
21
0.0877254
0
LINE
8
BLACK
6
CONTINUOUS
10
0.683013
20
0.0877254
11
0.68
21
0.087126
0
LINE
8
BLACK
6
CONTINUOUS
10
0.68
20
0.087126
11
0.62
21
0.087126
0
LINE
8
BLACK
6
CONTINUOUS
10
0.62
20
0.087126
11
0.616987
21
0.0877254
0
LINE
8
BLACK
6
CONTINUOUS
10
0.616987
20
0.0877254
11
0.614432
21
0.0894322
0
LINE
8
BLACK
6
CONTINUOUS
10
0.614432
20
0.0894322
11
0.612725
21
0.0919867
0
LINE
8
BLACK
6
CONTINUOUS
10
0.612725
20
0.0919867
11
0.612126
21
0.095
0
LINE
8
BLACK
6
CONTINUOUS
10
0.612126
20
0.095
11
0.612126
21
0.155
0
LINE
8
BLACK
6
CONTINUOUS
10
0.612126
20
0.155
11
0.612725
21
0.158013
0
LINE
8
BLACK
6
CONTINUOUS
10
0.612725
20
0.158013
11
0.614432
21
0.160568
0
LINE
8
BLACK
6
CONTINUOUS
10
0.614432
20
0.160568
11
0.616987
21
0.162275
0
LINE
8
BLACK
6
CONTINUOUS
10
0.616987
20
0.162275
11
0.62
21
0.162874
0
LINE
8
BLACK
6
CONTINUOUS
10
0.62
20
0.162874
11
0.68
21
0.162874
0
LINE
8
BLACK
6
CONTINUOUS
10
0.68
20
0.162874
11
0.683013
21
0.162275
0
LINE
8
BLACK
6
CONTINUOUS
10
0.933013
20
0.162275
11
0.935568
21
0.160568
0
LINE
8
BLACK
6
CONTINUOUS
10
0.935568
20
0.160568
11
0.937275
21
0.158013
0
LINE
8
BLACK
6
CONTINUOUS
10
0.937275
20
0.158013
11
0.937874
21
0.155
0
LINE
8
BLACK
6
CONTINUOUS
10
0.937874
20
0.155
11
0.937874
21
0.095
0
LINE
8
BLACK
6
CONTINUOUS
10
0.937874
20
0.095
11
0.937275
21
0.0919867
0
LINE
8
BLACK
6
CONTINUOUS
10
0.937275
20
0.0919867
11
0.935568
21
0.0894322
0
LINE
8
BLACK
6
CONTINUOUS
10
0.935568
20
0.0894322
11
0.933013
21
0.0877254
0
LINE
8
BLACK
6
CONTINUOUS
10
0.933013
20
0.0877254
11
0.93
21
0.087126
0
LINE
8
BLACK
6
CONTINUOUS
10
0.93
20
0.087126
11
0.87
21
0.087126
0
LINE
8
BLACK
6
CONTINUOUS
10
0.87
20
0.087126
11
0.866987
21
0.0877254
0
LINE
8
BLACK
6
CONTINUOUS
10
0.866987
20
0.0877254
11
0.864432
21
0.0894322
0
LINE
8
BLACK
6
CONTINUOUS
10
0.864432
20
0.0894322
11
0.862725
21
0.0919867
0
LINE
8
BLACK
6
CONTINUOUS
10
0.862725
20
0.0919867
11
0.862126
21
0.095
0
LINE
8
BLACK
6
CONTINUOUS
10
0.862126
20
0.095
11
0.862126
21
0.155
0
LINE
8
BLACK
6
CONTINUOUS
10
0.862126
20
0.155
11
0.862725
21
0.158013
0
LINE
8
BLACK
6
CONTINUOUS
10
0.862725
20
0.158013
11
0.864432
21
0.160568
0
LINE
8
BLACK
6
CONTINUOUS
10
0.864432
20
0.160568
11
0.866987
21
0.162275
0
LINE
8
BLACK
6
CONTINUOUS
10
0.866987
20
0.162275
11
0.87
21
0.162874
0
LINE
8
BLACK
6
CONTINUOUS
10
0.87
20
0.162874
11
0.93
21
0.162874
0
LINE
8
BLACK
6
CONTINUOUS
10
0.93
20
0.162874
11
0.933013
21
0.162275
0
LINE
8
BLACK
6
CONTINUOUS
10
1.03301
20
0.162275
11
1.03557
21
0.160568
0
LINE
8
BLACK
6
CONTINUOUS
10
1.03557
20
0.160568
11
1.03727
21
0.158013
0
LINE
8
BLACK
6
CONTINUOUS
10
1.03727
20
0.158013
11
1.03787
21
0.155
0
LINE
8
BLACK
6
CONTINUOUS
10
1.03787
20
0.155
11
1.03787
21
0.095
0
LINE
8
BLACK
6
CONTINUOUS
10
1.03787
20
0.095
11
1.03727
21
0.0919867
0
LINE
8
BLACK
6
CONTINUOUS
10
1.03727
20
0.0919867
11
1.03557
21
0.0894322
0
LINE
8
BLACK
6
CONTINUOUS
10
1.03557
20
0.0894322
11
1.03301
21
0.0877254
0
LINE
8
BLACK
6
CONTINUOUS
10
1.03301
20
0.0877254
11
1.03
21
0.087126
0
LINE
8
BLACK
6
CONTINUOUS
10
1.03
20
0.087126
11
0.97
21
0.087126
0
LINE
8
BLACK
6
CONTINUOUS
10
0.97
20
0.087126
11
0.966987
21
0.0877254
0
LINE
8
BLACK
6
CONTINUOUS
10
0.966987
20
0.0877254
11
0.964432
21
0.0894322
0
LINE
8
BLACK
6
CONTINUOUS
10
0.964432
20
0.0894322
11
0.962725
21
0.0919867
0
LINE
8
BLACK
6
CONTINUOUS
10
0.962725
20
0.0919867
11
0.962126
21
0.095
0
LINE
8
BLACK
6
CONTINUOUS
10
0.962126
20
0.095
11
0.962126
21
0.155
0
LINE
8
BLACK
6
CONTINUOUS
10
0.962126
20
0.155
11
0.962725
21
0.158013
0
LINE
8
BLACK
6
CONTINUOUS
10
0.962725
20
0.158013
11
0.964432
21
0.160568
0
LINE
8
BLACK
6
CONTINUOUS
10
0.964432
20
0.160568
11
0.966987
21
0.162275
0
LINE
8
BLACK
6
CONTINUOUS
10
0.966987
20
0.162275
11
0.97
21
0.162874
0
LINE
8
BLACK
6
CONTINUOUS
10
0.97
20
0.162874
11
1.03
21
0.162874
0
LINE
8
BLACK
6
CONTINUOUS
10
1.03
20
0.162874
11
1.03301
21
0.162275
0
LINE
8
BLACK
6
CONTINUOUS
10
1.13301
20
0.162275
11
1.13557
21
0.160568
0
LINE
8
BLACK
6
CONTINUOUS
10
1.13557
20
0.160568
11
1.13727
21
0.158013
0
LINE
8
BLACK
6
CONTINUOUS
10
1.13727
20
0.158013
11
1.13787
21
0.155
0
LINE
8
BLACK
6
CONTINUOUS
10
1.13787
20
0.155
11
1.13787
21
0.095
0
LINE
8
BLACK
6
CONTINUOUS
10
1.13787
20
0.095
11
1.13727
21
0.0919867
0
LINE
8
BLACK
6
CONTINUOUS
10
1.13727
20
0.0919867
11
1.13557
21
0.0894322
0
LINE
8
BLACK
6
CONTINUOUS
10
1.13557
20
0.0894322
11
1.13301
21
0.0877254
0
LINE
8
BLACK
6
CONTINUOUS
10
1.13301
20
0.0877254
11
1.13
21
0.087126
0
LINE
8
BLACK
6
CONTINUOUS
10
1.13
20
0.087126
11
1.07
21
0.087126
0
LINE
8
BLACK
6
CONTINUOUS
10
1.07
20
0.087126
11
1.06699
21
0.0877254
0
LINE
8
BLACK
6
CONTINUOUS
10
1.06699
20
0.0877254
11
1.06443
21
0.0894322
0
LINE
8
BLACK
6
CONTINUOUS
10
1.06443
20
0.0894322
11
1.06273
21
0.0919867
0
LINE
8
BLACK
6
CONTINUOUS
10
1.06273
20
0.0919867
11
1.06213
21
0.095
0
LINE
8
BLACK
6
CONTINUOUS
10
1.06213
20
0.095
11
1.06213
21
0.155
0
LINE
8
BLACK
6
CONTINUOUS
10
1.06213
20
0.155
11
1.06273
21
0.158013
0
LINE
8
BLACK
6
CONTINUOUS
10
1.06273
20
0.158013
11
1.06443
21
0.160568
0
LINE
8
BLACK
6
CONTINUOUS
10
1.06443
20
0.160568
11
1.06699
21
0.162275
0
LINE
8
BLACK
6
CONTINUOUS
10
1.06699
20
0.162275
11
1.07
21
0.162874
0
LINE
8
BLACK
6
CONTINUOUS
10
1.07
20
0.162874
11
1.13
21
0.162874
0
LINE
8
BLACK
6
CONTINUOUS
10
1.13
20
0.162874
11
1.13301
21
0.162275
0
LINE
8
BLACK
6
CONTINUOUS
10
0.683013
20
0.262275
11
0.685568
21
0.260568
0
LINE
8
BLACK
6
CONTINUOUS
10
0.685568
20
0.260568
11
0.687275
21
0.258013
0
LINE
8
BLACK
6
CONTINUOUS
10
0.687275
20
0.258013
11
0.687874
21
0.255
0
LINE
8
BLACK
6
CONTINUOUS
10
0.687874
20
0.255
11
0.687874
21
0.195
0
LINE
8
BLACK
6
CONTINUOUS
10
0.687874
20
0.195
11
0.687275
21
0.191987
0
LINE
8
BLACK
6
CONTINUOUS
10
0.687275
20
0.191987
11
0.685568
21
0.189432
0
LINE
8
BLACK
6
CONTINUOUS
10
0.685568
20
0.189432
11
0.683013
21
0.187725
0
LINE
8
BLACK
6
CONTINUOUS
10
0.683013
20
0.187725
11
0.68
21
0.187126
0
LINE
8
BLACK
6
CONTINUOUS
10
0.68
20
0.187126
11
0.62
21
0.187126
0
LINE
8
BLACK
6
CONTINUOUS
10
0.62
20
0.187126
11
0.616987
21
0.187725
0
LINE
8
BLACK
6
CONTINUOUS
10
0.616987
20
0.187725
11
0.614432
21
0.189432
0
LINE
8
BLACK
6
CONTINUOUS
10
0.614432
20
0.189432
11
0.612725
21
0.191987
0
LINE
8
BLACK
6
CONTINUOUS
10
0.612725
20
0.191987
11
0.612126
21
0.195
0
LINE
8
BLACK
6
CONTINUOUS
10
0.612126
20
0.195
11
0.612126
21
0.255
0
LINE
8
BLACK
6
CONTINUOUS
10
0.612126
20
0.255
11
0.612725
21
0.258013
0
LINE
8
BLACK
6
CONTINUOUS
10
0.612725
20
0.258013
11
0.614432
21
0.260568
0
LINE
8
BLACK
6
CONTINUOUS
10
0.614432
20
0.260568
11
0.616987
21
0.262275
0
LINE
8
BLACK
6
CONTINUOUS
10
0.616987
20
0.262275
11
0.62
21
0.262874
0
LINE
8
BLACK
6
CONTINUOUS
10
0.62
20
0.262874
11
0.68
21
0.262874
0
LINE
8
BLACK
6
CONTINUOUS
10
0.68
20
0.262874
11
0.683013
21
0.262275
0
LINE
8
BLACK
6
CONTINUOUS
10
0.933013
20
0.262275
11
0.935568
21
0.260568
0
LINE
8
BLACK
6
CONTINUOUS
10
0.935568
20
0.260568
11
0.937275
21
0.258013
0
LINE
8
BLACK
6
CONTINUOUS
10
0.937275
20
0.258013
11
0.937874
21
0.255
0
LINE
8
BLACK
6
CONTINUOUS
10
0.937874
20
0.255
11
0.937874
21
0.195
0
LINE
8
BLACK
6
CONTINUOUS
10
0.937874
20
0.195
11
0.937275
21
0.191987
0
LINE
8
BLACK
6
CONTINUOUS
10
0.937275
20
0.191987
11
0.935568
21
0.189432
0
LINE
8
BLACK
6
CONTINUOUS
10
0.935568
20
0.189432
11
0.933013
21
0.187725
0
LINE
8
BLACK
6
CONTINUOUS
10
0.933013
20
0.187725
11
0.93
21
0.187126
0
LINE
8
BLACK
6
CONTINUOUS
10
0.93
20
0.187126
11
0.87
21
0.187126
0
LINE
8
BLACK
6
CONTINUOUS
10
0.87
20
0.187126
11
0.866987
21
0.187725
0
LINE
8
BLACK
6
CONTINUOUS
10
0.866987
20
0.187725
11
0.864432
21
0.189432
0
LINE
8
BLACK
6
CONTINUOUS
10
0.864432
20
0.189432
11
0.862725
21
0.191987
0
LINE
8
BLACK
6
CONTINUOUS
10
0.862725
20
0.191987
11
0.862126
21
0.195
0
LINE
8
BLACK
6
CONTINUOUS
10
0.862126
20
0.195
11
0.862126
21
0.255
0
LINE
8
BLACK
6
CONTINUOUS
10
0.862126
20
0.255
11
0.862725
21
0.258013
0
LINE
8
BLACK
6
CONTINUOUS
10
0.862725
20
0.258013
11
0.864432
21
0.260568
0
LINE
8
BLACK
6
CONTINUOUS
10
0.864432
20
0.260568
11
0.866987
21
0.262275
0
LINE
8
BLACK
6
CONTINUOUS
10
0.866987
20
0.262275
11
0.87
21
0.262874
0
LINE
8
BLACK
6
CONTINUOUS
10
0.87
20
0.262874
11
0.93
21
0.262874
0
LINE
8
BLACK
6
CONTINUOUS
10
0.93
20
0.262874
11
0.933013
21
0.262275
0
LINE
8
BLACK
6
CONTINUOUS
10
1.03301
20
0.262275
11
1.03557
21
0.260568
0
LINE
8
BLACK
6
CONTINUOUS
10
1.03557
20
0.260568
11
1.03727
21
0.258013
0
LINE
8
BLACK
6
CONTINUOUS
10
1.03727
20
0.258013
11
1.03787
21
0.255
0
LINE
8
BLACK
6
CONTINUOUS
10
1.03787
20
0.255
11
1.03787
21
0.195
0
LINE
8
BLACK
6
CONTINUOUS
10
1.03787
20
0.195
11
1.03727
21
0.191987
0
LINE
8
BLACK
6
CONTINUOUS
10
1.03727
20
0.191987
11
1.03557
21
0.189432
0
LINE
8
BLACK
6
CONTINUOUS
10
1.03557
20
0.189432
11
1.03301
21
0.187725
0
LINE
8
BLACK
6
CONTINUOUS
10
1.03301
20
0.187725
11
1.03
21
0.187126
0
LINE
8
BLACK
6
CONTINUOUS
10
1.03
20
0.187126
11
0.97
21
0.187126
0
LINE
8
BLACK
6
CONTINUOUS
10
0.97
20
0.187126
11
0.966987
21
0.187725
0
LINE
8
BLACK
6
CONTINUOUS
10
0.966987
20
0.187725
11
0.964432
21
0.189432
0
LINE
8
BLACK
6
CONTINUOUS
10
0.964432
20
0.189432
11
0.962725
21
0.191987
0
LINE
8
BLACK
6
CONTINUOUS
10
0.962725
20
0.191987
11
0.962126
21
0.195
0
LINE
8
BLACK
6
CONTINUOUS
10
0.962126
20
0.195
11
0.962126
21
0.255
0
LINE
8
BLACK
6
CONTINUOUS
10
0.962126
20
0.255
11
0.962725
21
0.258013
0
LINE
8
BLACK
6
CONTINUOUS
10
0.962725
20
0.258013
11
0.964432
21
0.260568
0
LINE
8
BLACK
6
CONTINUOUS
10
0.964432
20
0.260568
11
0.966987
21
0.262275
0
LINE
8
BLACK
6
CONTINUOUS
10
0.966987
20
0.262275
11
0.97
21
0.262874
0
LINE
8
BLACK
6
CONTINUOUS
10
0.97
20
0.262874
11
1.03
21
0.262874
0
LINE
8
BLACK
6
CONTINUOUS
10
1.03
20
0.262874
11
1.03301
21
0.262275
0
LINE
8
BLACK
6
CONTINUOUS
10
1.13301
20
0.262275
11
1.13557
21
0.260568
0
LINE
8
BLACK
6
CONTINUOUS
10
1.13557
20
0.260568
11
1.13727
21
0.258013
0
LINE
8
BLACK
6
CONTINUOUS
10
1.13727
20
0.258013
11
1.13787
21
0.255
0
LINE
8
BLACK
6
CONTINUOUS
10
1.13787
20
0.255
11
1.13787
21
0.195
0
LINE
8
BLACK
6
CONTINUOUS
10
1.13787
20
0.195
11
1.13727
21
0.191987
0
LINE
8
BLACK
6
CONTINUOUS
10
1.13727
20
0.191987
11
1.13557
21
0.189432
0
LINE
8
BLACK
6
CONTINUOUS
10
1.13557
20
0.189432
11
1.13301
21
0.187725
0
LINE
8
BLACK
6
CONTINUOUS
10
1.13301
20
0.187725
11
1.13
21
0.187126
0
LINE
8
BLACK
6
CONTINUOUS
10
1.13
20
0.187126
11
1.07
21
0.187126
0
LINE
8
BLACK
6
CONTINUOUS
10
1.07
20
0.187126
11
1.06699
21
0.187725
0
LINE
8
BLACK
6
CONTINUOUS
10
1.06699
20
0.187725
11
1.06443
21
0.189432
0
LINE
8
BLACK
6
CONTINUOUS
10
1.06443
20
0.189432
11
1.06273
21
0.191987
0
LINE
8
BLACK
6
CONTINUOUS
10
1.06273
20
0.191987
11
1.06213
21
0.195
0
LINE
8
BLACK
6
CONTINUOUS
10
1.06213
20
0.195
11
1.06213
21
0.255
0
LINE
8
BLACK
6
CONTINUOUS
10
1.06213
20
0.255
11
1.06273
21
0.258013
0
LINE
8
BLACK
6
CONTINUOUS
10
1.06273
20
0.258013
11
1.06443
21
0.260568
0
LINE
8
BLACK
6
CONTINUOUS
10
1.06443
20
0.260568
11
1.06699
21
0.262275
0
LINE
8
BLACK
6
CONTINUOUS
10
1.06699
20
0.262275
11
1.07
21
0.262874
0
LINE
8
BLACK
6
CONTINUOUS
10
1.07
20
0.262874
11
1.13
21
0.262874
0
LINE
8
BLACK
6
CONTINUOUS
10
1.13
20
0.262874
11
1.13301
21
0.262275
0
LINE
8
BLACK
6
CONTINUOUS
10
1.37301
20
0.637275
11
1.37557
21
0.635568
0
LINE
8
BLACK
6
CONTINUOUS
10
1.37557
20
0.635568
11
1.37727
21
0.633013
0
LINE
8
BLACK
6
CONTINUOUS
10
1.37727
20
0.633013
11
1.37787
21
0.63
0
LINE
8
BLACK
6
CONTINUOUS
10
1.37787
20
0.63
11
1.37787
21
0.57
0
LINE
8
BLACK
6
CONTINUOUS
10
1.37787
20
0.57
11
1.37727
21
0.566987
0
LINE
8
BLACK
6
CONTINUOUS
10
1.37727
20
0.566987
11
1.37557
21
0.564432
0
LINE
8
BLACK
6
CONTINUOUS
10
1.37557
20
0.564432
11
1.37301
21
0.562725
0
LINE
8
BLACK
6
CONTINUOUS
10
1.37301
20
0.562725
11
1.37
21
0.562126
0
LINE
8
BLACK
6
CONTINUOUS
10
1.37
20
0.562126
11
1.31
21
0.562126
0
LINE
8
BLACK
6
CONTINUOUS
10
1.31
20
0.562126
11
1.30699
21
0.562725
0
LINE
8
BLACK
6
CONTINUOUS
10
1.30699
20
0.562725
11
1.30443
21
0.564432
0
LINE
8
BLACK
6
CONTINUOUS
10
1.30443
20
0.564432
11
1.30273
21
0.566987
0
LINE
8
BLACK
6
CONTINUOUS
10
1.30273
20
0.566987
11
1.30213
21
0.57
0
LINE
8
BLACK
6
CONTINUOUS
10
1.30213
20
0.57
11
1.30213
21
0.63
0
LINE
8
BLACK
6
CONTINUOUS
10
1.30213
20
0.63
11
1.30273
21
0.633013
0
LINE
8
BLACK
6
CONTINUOUS
10
1.30273
20
0.633013
11
1.30443
21
0.635568
0
LINE
8
BLACK
6
CONTINUOUS
10
1.30443
20
0.635568
11
1.30699
21
0.637275
0
LINE
8
BLACK
6
CONTINUOUS
10
1.30699
20
0.637275
11
1.31
21
0.637874
0
LINE
8
BLACK
6
CONTINUOUS
10
1.31
20
0.637874
11
1.37
21
0.637874
0
LINE
8
BLACK
6
CONTINUOUS
10
1.37
20
0.637874
11
1.37301
21
0.637275
0
LINE
8
BLACK
6
CONTINUOUS
10
1.47301
20
0.637275
11
1.47557
21
0.635568
0
LINE
8
BLACK
6
CONTINUOUS
10
1.47557
20
0.635568
11
1.47727
21
0.633013
0
LINE
8
BLACK
6
CONTINUOUS
10
1.47727
20
0.633013
11
1.47787
21
0.63
0
LINE
8
BLACK
6
CONTINUOUS
10
1.47787
20
0.63
11
1.47787
21
0.57
0
LINE
8
BLACK
6
CONTINUOUS
10
1.47787
20
0.57
11
1.47727
21
0.566987
0
LINE
8
BLACK
6
CONTINUOUS
10
1.47727
20
0.566987
11
1.47557
21
0.564432
0
LINE
8
BLACK
6
CONTINUOUS
10
1.47557
20
0.564432
11
1.47301
21
0.562725
0
LINE
8
BLACK
6
CONTINUOUS
10
1.47301
20
0.562725
11
1.47
21
0.562126
0
LINE
8
BLACK
6
CONTINUOUS
10
1.47
20
0.562126
11
1.41
21
0.562126
0
LINE
8
BLACK
6
CONTINUOUS
10
1.41
20
0.562126
11
1.40699
21
0.562725
0
LINE
8
BLACK
6
CONTINUOUS
10
1.40699
20
0.562725
11
1.40443
21
0.564432
0
LINE
8
BLACK
6
CONTINUOUS
10
1.40443
20
0.564432
11
1.40273
21
0.566987
0
LINE
8
BLACK
6
CONTINUOUS
10
1.40273
20
0.566987
11
1.40213
21
0.57
0
LINE
8
BLACK
6
CONTINUOUS
10
1.40213
20
0.57
11
1.40213
21
0.63
0
LINE
8
BLACK
6
CONTINUOUS
10
1.40213
20
0.63
11
1.40273
21
0.633013
0
LINE
8
BLACK
6
CONTINUOUS
10
1.40273
20
0.633013
11
1.40443
21
0.635568
0
LINE
8
BLACK
6
CONTINUOUS
10
1.40443
20
0.635568
11
1.40699
21
0.637275
0
LINE
8
BLACK
6
CONTINUOUS
10
1.40699
20
0.637275
11
1.41
21
0.637874
0
LINE
8
BLACK
6
CONTINUOUS
10
1.41
20
0.637874
11
1.47
21
0.637874
0
LINE
8
BLACK
6
CONTINUOUS
10
1.47
20
0.637874
11
1.47301
21
0.637275
0
LINE
8
BLACK
6
CONTINUOUS
10
1.47301
20
0.737275
11
1.47557
21
0.735568
0
LINE
8
BLACK
6
CONTINUOUS
10
1.47557
20
0.735568
11
1.47727
21
0.733013
0
LINE
8
BLACK
6
CONTINUOUS
10
1.47727
20
0.733013
11
1.47787
21
0.73
0
LINE
8
BLACK
6
CONTINUOUS
10
1.47787
20
0.73
11
1.47787
21
0.67
0
LINE
8
BLACK
6
CONTINUOUS
10
1.47787
20
0.67
11
1.47727
21
0.666987
0
LINE
8
BLACK
6
CONTINUOUS
10
1.47727
20
0.666987
11
1.47557
21
0.664432
0
LINE
8
BLACK
6
CONTINUOUS
10
1.47557
20
0.664432
11
1.47301
21
0.662725
0
LINE
8
BLACK
6
CONTINUOUS
10
1.47301
20
0.662725
11
1.47
21
0.662126
0
LINE
8
BLACK
6
CONTINUOUS
10
1.47
20
0.662126
11
1.41
21
0.662126
0
LINE
8
BLACK
6
CONTINUOUS
10
1.41
20
0.662126
11
1.40699
21
0.662725
0
LINE
8
BLACK
6
CONTINUOUS
10
1.40699
20
0.662725
11
1.40443
21
0.664432
0
LINE
8
BLACK
6
CONTINUOUS
10
1.40443
20
0.664432
11
1.40273
21
0.666987
0
LINE
8
BLACK
6
CONTINUOUS
10
1.40273
20
0.666987
11
1.40213
21
0.67
0
LINE
8
BLACK
6
CONTINUOUS
10
1.40213
20
0.67
11
1.40213
21
0.73
0
LINE
8
BLACK
6
CONTINUOUS
10
1.40213
20
0.73
11
1.40273
21
0.733013
0
LINE
8
BLACK
6
CONTINUOUS
10
1.40273
20
0.733013
11
1.40443
21
0.735568
0
LINE
8
BLACK
6
CONTINUOUS
10
1.40443
20
0.735568
11
1.40699
21
0.737275
0
LINE
8
BLACK
6
CONTINUOUS
10
1.40699
20
0.737275
11
1.41
21
0.737874
0
LINE
8
BLACK
6
CONTINUOUS
10
1.41
20
0.737874
11
1.47
21
0.737874
0
LINE
8
BLACK
6
CONTINUOUS
10
1.47
20
0.737874
11
1.47301
21
0.737275
0
LINE
8
BLACK
6
CONTINUOUS
10
1.37301
20
0.737275
11
1.37557
21
0.735568
0
LINE
8
BLACK
6
CONTINUOUS
10
1.37557
20
0.735568
11
1.37727
21
0.733013
0
LINE
8
BLACK
6
CONTINUOUS
10
1.37727
20
0.733013
11
1.37787
21
0.73
0
LINE
8
BLACK
6
CONTINUOUS
10
1.37787
20
0.73
11
1.37787
21
0.67
0
LINE
8
BLACK
6
CONTINUOUS
10
1.37787
20
0.67
11
1.37727
21
0.666987
0
LINE
8
BLACK
6
CONTINUOUS
10
1.37727
20
0.666987
11
1.37557
21
0.664432
0
LINE
8
BLACK
6
CONTINUOUS
10
1.37557
20
0.664432
11
1.37301
21
0.662725
0
LINE
8
BLACK
6
CONTINUOUS
10
1.37301
20
0.662725
11
1.37
21
0.662126
0
LINE
8
BLACK
6
CONTINUOUS
10
1.37
20
0.662126
11
1.31
21
0.662126
0
LINE
8
BLACK
6
CONTINUOUS
10
1.31
20
0.662126
11
1.30699
21
0.662725
0
LINE
8
BLACK
6
CONTINUOUS
10
1.30699
20
0.662725
11
1.30443
21
0.664432
0
LINE
8
BLACK
6
CONTINUOUS
10
1.30443
20
0.664432
11
1.30273
21
0.666987
0
LINE
8
BLACK
6
CONTINUOUS
10
1.30273
20
0.666987
11
1.30213
21
0.67
0
LINE
8
BLACK
6
CONTINUOUS
10
1.30213
20
0.67
11
1.30213
21
0.73
0
LINE
8
BLACK
6
CONTINUOUS
10
1.30213
20
0.73
11
1.30273
21
0.733013
0
LINE
8
BLACK
6
CONTINUOUS
10
1.30273
20
0.733013
11
1.30443
21
0.735568
0
LINE
8
BLACK
6
CONTINUOUS
10
1.30443
20
0.735568
11
1.30699
21
0.737275
0
LINE
8
BLACK
6
CONTINUOUS
10
1.30699
20
0.737275
11
1.31
21
0.737874
0
LINE
8
BLACK
6
CONTINUOUS
10
1.31
20
0.737874
11
1.37
21
0.737874
0
LINE
8
BLACK
6
CONTINUOUS
10
1.37
20
0.737874
11
1.37301
21
0.737275
0
LINE
8
BLACK
6
CONTINUOUS
10
1.41492
20
1.1251
11
1.42877
21
1.12266
0
LINE
8
BLACK
6
CONTINUOUS
10
1.42877
20
1.12266
11
1.44226
21
1.11868
0
LINE
8
BLACK
6
CONTINUOUS
10
1.44226
20
1.11868
11
1.45523
21
1.11323
0
LINE
8
BLACK
6
CONTINUOUS
10
1.45523
20
1.11323
11
1.46751
21
1.10637
0
LINE
8
BLACK
6
CONTINUOUS
10
1.46751
20
1.10637
11
1.47894
21
1.09818
0
LINE
8
BLACK
6
CONTINUOUS
10
1.47894
20
1.09818
11
1.48939
21
1.08877
0
LINE
8
BLACK
6
CONTINUOUS
10
1.48939
20
1.08877
11
1.49873
21
1.07825
0
LINE
8
BLACK
6
CONTINUOUS
10
1.49873
20
1.07825
11
1.50684
21
1.06676
0
LINE
8
BLACK
6
CONTINUOUS
10
1.50684
20
1.06676
11
1.51362
21
1.05444
0
LINE
8
BLACK
6
CONTINUOUS
10
1.51362
20
1.05444
11
1.51898
21
1.04143
0
LINE
8
BLACK
6
CONTINUOUS
10
1.51898
20
1.04143
11
1.52285
21
1.02791
0
LINE
8
BLACK
6
CONTINUOUS
10
1.52285
20
1.02791
11
1.5252
21
1.01404
0
LINE
8
BLACK
6
CONTINUOUS
10
1.5252
20
1.01404
11
1.52598
21
1
0
LINE
8
BLACK
6
CONTINUOUS
10
1.52598
20
1
11
1.52594
21
0.996482
0
LINE
8
BLACK
6
CONTINUOUS
10
1.52594
20
0.996482
11
1.52476
21
0.982466
0
LINE
8
BLACK
6
CONTINUOUS
10
1.52476
20
0.982466
11
1.52203
21
0.968669
0
LINE
8
BLACK
6
CONTINUOUS
10
1.52203
20
0.968669
11
1.51777
21
0.955262
0
LINE
8
BLACK
6
CONTINUOUS
10
1.51777
20
0.955262
11
1.51205
21
0.942413
0
LINE
8
BLACK
6
CONTINUOUS
10
1.51205
20
0.942413
11
1.50493
21
0.930281
0
LINE
8
BLACK
6
CONTINUOUS
10
1.50493
20
0.930281
11
1.49651
21
0.919019
0
LINE
8
BLACK
6
CONTINUOUS
10
1.49651
20
0.919019
11
1.48688
21
0.908766
0
LINE
8
BLACK
6
CONTINUOUS
10
1.48688
20
0.908766
11
1.47617
21
0.89965
0
LINE
8
BLACK
6
CONTINUOUS
10
1.47617
20
0.89965
11
1.46451
21
0.891785
0
LINE
8
BLACK
6
CONTINUOUS
10
1.46451
20
0.891785
11
1.45204
21
0.885268
0
LINE
8
BLACK
6
CONTINUOUS
10
1.45204
20
0.885268
11
1.43893
21
0.880182
0
LINE
8
BLACK
6
CONTINUOUS
10
1.43893
20
0.880182
11
1.42533
21
0.876589
0
LINE
8
BLACK
6
CONTINUOUS
10
1.42533
20
0.876589
11
1.41142
21
0.874534
0
LINE
8
BLACK
6
CONTINUOUS
10
1.41142
20
0.874534
11
1.39736
21
0.874043
0
LINE
8
BLACK
6
CONTINUOUS
10
1.39736
20
0.874043
11
1.38334
21
0.875122
0
LINE
8
BLACK
6
CONTINUOUS
10
1.38334
20
0.875122
11
1.36952
21
0.877758
0
LINE
8
BLACK
6
CONTINUOUS
10
1.36952
20
0.877758
11
1.35609
21
0.881917
0
LINE
8
BLACK
6
CONTINUOUS
10
1.35609
20
0.881917
11
1.3432
21
0.887548
0
LINE
8
BLACK
6
CONTINUOUS
10
1.3432
20
0.887548
11
1.33102
21
0.894581
0
LINE
8
BLACK
6
CONTINUOUS
10
1.33102
20
0.894581
11
1.31969
21
0.902927
0
LINE
8
BLACK
6
CONTINUOUS
10
1.31969
20
0.902927
11
1.30937
21
0.912484
0
LINE
8
BLACK
6
CONTINUOUS
10
1.30937
20
0.912484
11
1.30018
21
0.923131
0
LINE
8
BLACK
6
CONTINUOUS
10
1.30018
20
0.923131
11
1.29224
21
0.934737
0
LINE
8
BLACK
6
CONTINUOUS
10
1.29224
20
0.934737
11
1.28563
21
0.947156
0
LINE
8
BLACK
6
CONTINUOUS
10
1.28563
20
0.947156
11
1.28046
21
0.960233
0
LINE
8
BLACK
6
CONTINUOUS
10
1.28046
20
0.960233
11
1.27677
21
0.973806
0
LINE
8
BLACK
6
CONTINUOUS
10
1.27677
20
0.973806
11
1.27462
21
0.987706
0
LINE
8
BLACK
6
CONTINUOUS
10
1.27462
20
0.987706
11
1.27403
21
1.00176
0
LINE
8
BLACK
6
CONTINUOUS
10
1.27403
20
1.00176
11
1.27501
21
1.01579
0
LINE
8
BLACK
6
CONTINUOUS
10
1.27501
20
1.01579
11
1.27755
21
1.02962
0
LINE
8
BLACK
6
CONTINUOUS
10
1.27755
20
1.02962
11
1.28161
21
1.04309
0
LINE
8
BLACK
6
CONTINUOUS
10
1.28161
20
1.04309
11
1.28715
21
1.05602
0
LINE
8
BLACK
6
CONTINUOUS
10
1.28715
20
1.05602
11
1.2941
21
1.06825
0
LINE
8
BLACK
6
CONTINUOUS
10
1.2941
20
1.06825
11
1.30237
21
1.07963
0
LINE
8
BLACK
6
CONTINUOUS
10
1.30237
20
1.07963
11
1.31185
21
1.09001
0
LINE
8
BLACK
6
CONTINUOUS
10
1.31185
20
1.09001
11
1.32244
21
1.09928
0
LINE
8
BLACK
6
CONTINUOUS
10
1.32244
20
1.09928
11
1.33399
21
1.1073
0
LINE
8
BLACK
6
CONTINUOUS
10
1.33399
20
1.1073
11
1.34636
21
1.11399
0
LINE
8
BLACK
6
CONTINUOUS
10
1.34636
20
1.11399
11
1.3594
21
1.11926
0
LINE
8
BLACK
6
CONTINUOUS
10
1.3594
20
1.11926
11
1.37295
21
1.12305
0
LINE
8
BLACK
6
CONTINUOUS
10
1.37295
20
1.12305
11
1.38683
21
1.12529
0
LINE
8
BLACK
6
CONTINUOUS
10
1.38683
20
1.12529
11
1.40088
21
1.12598
0
LINE
8
BLACK
6
CONTINUOUS
10
1.40088
20
1.12598
11
1.41492
21
1.1251
0
LINE
8
BLACK
6
CONTINUOUS
10
0.214917
20
1.1251
11
0.228769
21
1.12266
0
LINE
8
BLACK
6
CONTINUOUS
10
0.228769
20
1.12266
11
0.242262
21
1.11868
0
LINE
8
BLACK
6
CONTINUOUS
10
0.242262
20
1.11868
11
0.255228
21
1.11323
0
LINE
8
BLACK
6
CONTINUOUS
10
0.255228
20
1.11323
11
0.267506
21
1.10637
0
LINE
8
BLACK
6
CONTINUOUS
10
0.267506
20
1.10637
11
0.278942
21
1.09818
0
LINE
8
BLACK
6
CONTINUOUS
10
0.278942
20
1.09818
11
0.289395
21
1.08877
0
LINE
8
BLACK
6
CONTINUOUS
10
0.289395
20
1.08877
11
0.298733
21
1.07825
0
LINE
8
BLACK
6
CONTINUOUS
10
0.298733
20
1.07825
11
0.306841
21
1.06676
0
LINE
8
BLACK
6
CONTINUOUS
10
0.306841
20
1.06676
11
0.313617
21
1.05444
0
LINE
8
BLACK
6
CONTINUOUS
10
0.313617
20
1.05444
11
0.318977
21
1.04143
0
LINE
8
BLACK
6
CONTINUOUS
10
0.318977
20
1.04143
11
0.322853
21
1.02791
0
LINE
8
BLACK
6
CONTINUOUS
10
0.322853
20
1.02791
11
0.325199
21
1.01404
0
LINE
8
BLACK
6
CONTINUOUS
10
0.325199
20
1.01404
11
0.325984
21
1
0
LINE
8
BLACK
6
CONTINUOUS
10
0.325984
20
1
11
0.325935
21
0.996482
0
LINE
8
BLACK
6
CONTINUOUS
10
0.325935
20
0.996482
11
0.324758
21
0.982466
0
LINE
8
BLACK
6
CONTINUOUS
10
0.324758
20
0.982466
11
0.322026
21
0.968669
0
LINE
8
BLACK
6
CONTINUOUS
10
0.322026
20
0.968669
11
0.317773
21
0.955262
0
LINE
8
BLACK
6
CONTINUOUS
10
0.317773
20
0.955262
11
0.312052
21
0.942413
0
LINE
8
BLACK
6
CONTINUOUS
10
0.312052
20
0.942413
11
0.304935
21
0.930281
0
LINE
8
BLACK
6
CONTINUOUS
10
0.304935
20
0.930281
11
0.29651
21
0.919019
0
LINE
8
BLACK
6
CONTINUOUS
10
0.29651
20
0.919019
11
0.286881
21
0.908766
0
LINE
8
BLACK
6
CONTINUOUS
10
0.286881
20
0.908766
11
0.27617
21
0.89965
0
LINE
8
BLACK
6
CONTINUOUS
10
0.27617
20
0.89965
11
0.264509
21
0.891785
0
LINE
8
BLACK
6
CONTINUOUS
10
0.264509
20
0.891785
11
0.252045
21
0.885268
0
LINE
8
BLACK
6
CONTINUOUS
10
0.252045
20
0.885268
11
0.238931
21
0.880182
0
LINE
8
BLACK
6
CONTINUOUS
10
0.238931
20
0.880182
11
0.225333
21
0.876589
0
LINE
8
BLACK
6
CONTINUOUS
10
0.225333
20
0.876589
11
0.211418
21
0.874534
0
LINE
8
BLACK
6
CONTINUOUS
10
0.211418
20
0.874534
11
0.197362
21
0.874043
0
LINE
8
BLACK
6
CONTINUOUS
10
0.197362
20
0.874043
11
0.183338
21
0.875122
0
LINE
8
BLACK
6
CONTINUOUS
10
0.183338
20
0.875122
11
0.169522
21
0.877758
0
LINE
8
BLACK
6
CONTINUOUS
10
0.169522
20
0.877758
11
0.156085
21
0.881917
0
LINE
8
BLACK
6
CONTINUOUS
10
0.156085
20
0.881917
11
0.143197
21
0.887548
0
LINE
8
BLACK
6
CONTINUOUS
10
0.143197
20
0.887548
11
0.131016
21
0.894581
0
LINE
8
BLACK
6
CONTINUOUS
10
0.131016
20
0.894581
11
0.119695
21
0.902927
0
LINE
8
BLACK
6
CONTINUOUS
10
0.119695
20
0.902927
11
0.109375
21
0.912484
0
LINE
8
BLACK
6
CONTINUOUS
10
0.109375
20
0.912484
11
0.100184
21
0.923131
0
LINE
8
BLACK
6
CONTINUOUS
10
0.100184
20
0.923131
11
0.0922376
21
0.934737
0
LINE
8
BLACK
6
CONTINUOUS
10
0.0922376
20
0.934737
11
0.0856343
21
0.947156
0
LINE
8
BLACK
6
CONTINUOUS
10
0.0856343
20
0.947156
11
0.0804566
21
0.960233
0
LINE
8
BLACK
6
CONTINUOUS
10
0.0804566
20
0.960233
11
0.0767688
21
0.973806
0
LINE
8
BLACK
6
CONTINUOUS
10
0.0767688
20
0.973806
11
0.074617
21
0.987706
0
LINE
8
BLACK
6
CONTINUOUS
10
0.074617
20
0.987706
11
0.074028
21
1.00176
0
LINE
8
BLACK
6
CONTINUOUS
10
0.074028
20
1.00176
11
0.0750092
21
1.01579
0
LINE
8
BLACK
6
CONTINUOUS
10
0.0750092
20
1.01579
11
0.0775482
21
1.02962
0
LINE
8
BLACK
6
CONTINUOUS
10
0.0775482
20
1.02962
11
0.0816135
21
1.04309
0
LINE
8
BLACK
6
CONTINUOUS
10
0.0816135
20
1.04309
11
0.0871544
21
1.05602
0
LINE
8
BLACK
6
CONTINUOUS
10
0.0871544
20
1.05602
11
0.0941019
21
1.06825
0
LINE
8
BLACK
6
CONTINUOUS
10
0.0941019
20
1.06825
11
0.102369
21
1.07963
0
LINE
8
BLACK
6
CONTINUOUS
10
0.102369
20
1.07963
11
0.111853
21
1.09001
0
LINE
8
BLACK
6
CONTINUOUS
10
0.111853
20
1.09001
11
0.122436
21
1.09928
0
LINE
8
BLACK
6
CONTINUOUS
10
0.122436
20
1.09928
11
0.133986
21
1.1073
0
LINE
8
BLACK
6
CONTINUOUS
10
0.133986
20
1.1073
11
0.146359
21
1.11399
0
LINE
8
BLACK
6
CONTINUOUS
10
0.146359
20
1.11399
11
0.1594
21
1.11926
0
LINE
8
BLACK
6
CONTINUOUS
10
0.1594
20
1.11926
11
0.172947
21
1.12305
0
LINE
8
BLACK
6
CONTINUOUS
10
0.172947
20
1.12305
11
0.186831
21
1.12529
0
LINE
8
BLACK
6
CONTINUOUS
10
0.186831
20
1.12529
11
0.20088
21
1.12598
0
LINE
8
BLACK
6
CONTINUOUS
10
0.20088
20
1.12598
11
0.214917
21
1.1251
0
LINE
8
BLACK
6
CONTINUOUS
10
0.723013
20
1.05504
11
0.725568
21
1.05334
0
LINE
8
BLACK
6
CONTINUOUS
10
0.725568
20
1.05334
11
0.727275
21
1.05078
0
LINE
8
BLACK
6
CONTINUOUS
10
0.727275
20
1.05078
11
0.727874
21
1.04777
0
LINE
8
BLACK
6
CONTINUOUS
10
0.727874
20
1.04777
11
0.727874
21
0.987769
0
LINE
8
BLACK
6
CONTINUOUS
10
0.727874
20
0.987769
11
0.727275
21
0.984756
0
LINE
8
BLACK
6
CONTINUOUS
10
0.727275
20
0.984756
11
0.725568
21
0.982201
0
LINE
8
BLACK
6
CONTINUOUS
10
0.725568
20
0.982201
11
0.723013
21
0.980494
0
LINE
8
BLACK
6
CONTINUOUS
10
0.723013
20
0.980494
11
0.72
21
0.979895
0
LINE
8
BLACK
6
CONTINUOUS
10
0.72
20
0.979895
11
0.66
21
0.979895
0
LINE
8
BLACK
6
CONTINUOUS
10
0.66
20
0.979895
11
0.656987
21
0.980494
0
LINE
8
BLACK
6
CONTINUOUS
10
0.656987
20
0.980494
11
0.654432
21
0.982201
0
LINE
8
BLACK
6
CONTINUOUS
10
0.654432
20
0.982201
11
0.652725
21
0.984756
0
LINE
8
BLACK
6
CONTINUOUS
10
0.652725
20
0.984756
11
0.652126
21
0.987769
0
LINE
8
BLACK
6
CONTINUOUS
10
0.652126
20
0.987769
11
0.652126
21
1.04777
0
LINE
8
BLACK
6
CONTINUOUS
10
0.652126
20
1.04777
11
0.652725
21
1.05078
0
LINE
8
BLACK
6
CONTINUOUS
10
0.652725
20
1.05078
11
0.654432
21
1.05334
0
LINE
8
BLACK
6
CONTINUOUS
10
0.654432
20
1.05334
11
0.656987
21
1.05504
0
LINE
8
BLACK
6
CONTINUOUS
10
0.656987
20
1.05504
11
0.66
21
1.05564
0
LINE
8
BLACK
6
CONTINUOUS
10
0.66
20
1.05564
11
0.72
21
1.05564
0
LINE
8
BLACK
6
CONTINUOUS
10
0.72
20
1.05564
11
0.723013
21
1.05504
0
LINE
8
BLACK
6
CONTINUOUS
10
0.923013
20
1.05504
11
0.925568
21
1.05334
0
LINE
8
BLACK
6
CONTINUOUS
10
0.925568
20
1.05334
11
0.927275
21
1.05078
0
LINE
8
BLACK
6
CONTINUOUS
10
0.927275
20
1.05078
11
0.927874
21
1.04777
0
LINE
8
BLACK
6
CONTINUOUS
10
0.927874
20
1.04777
11
0.927874
21
0.987769
0
LINE
8
BLACK
6
CONTINUOUS
10
0.927874
20
0.987769
11
0.927275
21
0.984756
0
LINE
8
BLACK
6
CONTINUOUS
10
0.927275
20
0.984756
11
0.925568
21
0.982201
0
LINE
8
BLACK
6
CONTINUOUS
10
0.925568
20
0.982201
11
0.923013
21
0.980494
0
LINE
8
BLACK
6
CONTINUOUS
10
0.923013
20
0.980494
11
0.92
21
0.979895
0
LINE
8
BLACK
6
CONTINUOUS
10
0.92
20
0.979895
11
0.86
21
0.979895
0
LINE
8
BLACK
6
CONTINUOUS
10
0.86
20
0.979895
11
0.856987
21
0.980494
0
LINE
8
BLACK
6
CONTINUOUS
10
0.856987
20
0.980494
11
0.854432
21
0.982201
0
LINE
8
BLACK
6
CONTINUOUS
10
0.854432
20
0.982201
11
0.852725
21
0.984756
0
LINE
8
BLACK
6
CONTINUOUS
10
0.852725
20
0.984756
11
0.852126
21
0.987769
0
LINE
8
BLACK
6
CONTINUOUS
10
0.852126
20
0.987769
11
0.852126
21
1.04777
0
LINE
8
BLACK
6
CONTINUOUS
10
0.852126
20
1.04777
11
0.852725
21
1.05078
0
LINE
8
BLACK
6
CONTINUOUS
10
0.852725
20
1.05078
11
0.854432
21
1.05334
0
LINE
8
BLACK
6
CONTINUOUS
10
0.854432
20
1.05334
11
0.856987
21
1.05504
0
LINE
8
BLACK
6
CONTINUOUS
10
0.856987
20
1.05504
11
0.86
21
1.05564
0
LINE
8
BLACK
6
CONTINUOUS
10
0.86
20
1.05564
11
0.92
21
1.05564
0
LINE
8
BLACK
6
CONTINUOUS
10
0.92
20
1.05564
11
0.923013
21
1.05504
0
LINE
8
BLACK
6
CONTINUOUS
10
1.02301
20
1.05504
11
1.02557
21
1.05334
0
LINE
8
BLACK
6
CONTINUOUS
10
1.02557
20
1.05334
11
1.02727
21
1.05078
0
LINE
8
BLACK
6
CONTINUOUS
10
1.02727
20
1.05078
11
1.02787
21
1.04777
0
LINE
8
BLACK
6
CONTINUOUS
10
1.02787
20
1.04777
11
1.02787
21
0.987769
0
LINE
8
BLACK
6
CONTINUOUS
10
1.02787
20
0.987769
11
1.02727
21
0.984756
0
LINE
8
BLACK
6
CONTINUOUS
10
1.02727
20
0.984756
11
1.02557
21
0.982201
0
LINE
8
BLACK
6
CONTINUOUS
10
1.02557
20
0.982201
11
1.02301
21
0.980494
0
LINE
8
BLACK
6
CONTINUOUS
10
1.02301
20
0.980494
11
1.02
21
0.979895
0
LINE
8
BLACK
6
CONTINUOUS
10
1.02
20
0.979895
11
0.96
21
0.979895
0
LINE
8
BLACK
6
CONTINUOUS
10
0.96
20
0.979895
11
0.956987
21
0.980494
0
LINE
8
BLACK
6
CONTINUOUS
10
0.956987
20
0.980494
11
0.954432
21
0.982201
0
LINE
8
BLACK
6
CONTINUOUS
10
0.954432
20
0.982201
11
0.952725
21
0.984756
0
LINE
8
BLACK
6
CONTINUOUS
10
0.952725
20
0.984756
11
0.952126
21
0.987769
0
LINE
8
BLACK
6
CONTINUOUS
10
0.952126
20
0.987769
11
0.952126
21
1.04777
0
LINE
8
BLACK
6
CONTINUOUS
10
0.952126
20
1.04777
11
0.952725
21
1.05078
0
LINE
8
BLACK
6
CONTINUOUS
10
0.952725
20
1.05078
11
0.954432
21
1.05334
0
LINE
8
BLACK
6
CONTINUOUS
10
0.954432
20
1.05334
11
0.956987
21
1.05504
0
LINE
8
BLACK
6
CONTINUOUS
10
0.956987
20
1.05504
11
0.96
21
1.05564
0
LINE
8
BLACK
6
CONTINUOUS
10
0.96
20
1.05564
11
1.02
21
1.05564
0
LINE
8
BLACK
6
CONTINUOUS
10
1.02
20
1.05564
11
1.02301
21
1.05504
0
LINE
8
BLACK
6
CONTINUOUS
10
0.823013
20
1.05504
11
0.825568
21
1.05334
0
LINE
8
BLACK
6
CONTINUOUS
10
0.825568
20
1.05334
11
0.827275
21
1.05078
0
LINE
8
BLACK
6
CONTINUOUS
10
0.827275
20
1.05078
11
0.827874
21
1.04777
0
LINE
8
BLACK
6
CONTINUOUS
10
0.827874
20
1.04777
11
0.827874
21
0.987769
0
LINE
8
BLACK
6
CONTINUOUS
10
0.827874
20
0.987769
11
0.827275
21
0.984756
0
LINE
8
BLACK
6
CONTINUOUS
10
0.827275
20
0.984756
11
0.825568
21
0.982201
0
LINE
8
BLACK
6
CONTINUOUS
10
0.825568
20
0.982201
11
0.823013
21
0.980494
0
LINE
8
BLACK
6
CONTINUOUS
10
0.823013
20
0.980494
11
0.82
21
0.979895
0
LINE
8
BLACK
6
CONTINUOUS
10
0.82
20
0.979895
11
0.76
21
0.979895
0
LINE
8
BLACK
6
CONTINUOUS
10
0.76
20
0.979895
11
0.756987
21
0.980494
0
LINE
8
BLACK
6
CONTINUOUS
10
0.756987
20
0.980494
11
0.754432
21
0.982201
0
LINE
8
BLACK
6
CONTINUOUS
10
0.754432
20
0.982201
11
0.752725
21
0.984756
0
LINE
8
BLACK
6
CONTINUOUS
10
0.752725
20
0.984756
11
0.752126
21
0.987769
0
LINE
8
BLACK
6
CONTINUOUS
10
0.752126
20
0.987769
11
0.752126
21
1.04777
0
LINE
8
BLACK
6
CONTINUOUS
10
0.752126
20
1.04777
11
0.752725
21
1.05078
0
LINE
8
BLACK
6
CONTINUOUS
10
0.752725
20
1.05078
11
0.754432
21
1.05334
0
LINE
8
BLACK
6
CONTINUOUS
10
0.754432
20
1.05334
11
0.756987
21
1.05504
0
LINE
8
BLACK
6
CONTINUOUS
10
0.756987
20
1.05504
11
0.76
21
1.05564
0
LINE
8
BLACK
6
CONTINUOUS
10
0.76
20
1.05564
11
0.82
21
1.05564
0
LINE
8
BLACK
6
CONTINUOUS
10
0.82
20
1.05564
11
0.823013
21
1.05504
0
LINE
8
BLACK
6
CONTINUOUS
10
0.623013
20
1.05504
11
0.625568
21
1.05334
0
LINE
8
BLACK
6
CONTINUOUS
10
0.625568
20
1.05334
11
0.627275
21
1.05078
0
LINE
8
BLACK
6
CONTINUOUS
10
0.627275
20
1.05078
11
0.627874
21
1.04777
0
LINE
8
BLACK
6
CONTINUOUS
10
0.627874
20
1.04777
11
0.627874
21
0.987769
0
LINE
8
BLACK
6
CONTINUOUS
10
0.627874
20
0.987769
11
0.627275
21
0.984756
0
LINE
8
BLACK
6
CONTINUOUS
10
0.627275
20
0.984756
11
0.625568
21
0.982201
0
LINE
8
BLACK
6
CONTINUOUS
10
0.625568
20
0.982201
11
0.623013
21
0.980494
0
LINE
8
BLACK
6
CONTINUOUS
10
0.623013
20
0.980494
11
0.62
21
0.979895
0
LINE
8
BLACK
6
CONTINUOUS
10
0.62
20
0.979895
11
0.56
21
0.979895
0
LINE
8
BLACK
6
CONTINUOUS
10
0.56
20
0.979895
11
0.556987
21
0.980494
0
LINE
8
BLACK
6
CONTINUOUS
10
0.556987
20
0.980494
11
0.554432
21
0.982201
0
LINE
8
BLACK
6
CONTINUOUS
10
0.554432
20
0.982201
11
0.552725
21
0.984756
0
LINE
8
BLACK
6
CONTINUOUS
10
0.552725
20
0.984756
11
0.552126
21
0.987769
0
LINE
8
BLACK
6
CONTINUOUS
10
0.552126
20
0.987769
11
0.552126
21
1.04777
0
LINE
8
BLACK
6
CONTINUOUS
10
0.552126
20
1.04777
11
0.552725
21
1.05078
0
LINE
8
BLACK
6
CONTINUOUS
10
0.552725
20
1.05078
11
0.554432
21
1.05334
0
LINE
8
BLACK
6
CONTINUOUS
10
0.554432
20
1.05334
11
0.556987
21
1.05504
0
LINE
8
BLACK
6
CONTINUOUS
10
0.556987
20
1.05504
11
0.56
21
1.05564
0
LINE
8
BLACK
6
CONTINUOUS
10
0.56
20
1.05564
11
0.62
21
1.05564
0
LINE
8
BLACK
6
CONTINUOUS
10
0.62
20
1.05564
11
0.623013
21
1.05504
0
LINE
8
BLACK
6
CONTINUOUS
10
1.20301
20
1.05727
11
1.20557
21
1.05557
0
LINE
8
BLACK
6
CONTINUOUS
10
1.20557
20
1.05557
11
1.20727
21
1.05301
0
LINE
8
BLACK
6
CONTINUOUS
10
1.20727
20
1.05301
11
1.20787
21
1.05
0
LINE
8
BLACK
6
CONTINUOUS
10
1.20787
20
1.05
11
1.20787
21
0.99
0
LINE
8
BLACK
6
CONTINUOUS
10
1.20787
20
0.99
11
1.20727
21
0.986987
0
LINE
8
BLACK
6
CONTINUOUS
10
1.20727
20
0.986987
11
1.20557
21
0.984432
0
LINE
8
BLACK
6
CONTINUOUS
10
1.20557
20
0.984432
11
1.20301
21
0.982725
0
LINE
8
BLACK
6
CONTINUOUS
10
1.20301
20
0.982725
11
1.2
21
0.982126
0
LINE
8
BLACK
6
CONTINUOUS
10
1.2
20
0.982126
11
1.14
21
0.982126
0
LINE
8
BLACK
6
CONTINUOUS
10
1.14
20
0.982126
11
1.13699
21
0.982725
0
LINE
8
BLACK
6
CONTINUOUS
10
1.13699
20
0.982725
11
1.13443
21
0.984432
0
LINE
8
BLACK
6
CONTINUOUS
10
1.13443
20
0.984432
11
1.13273
21
0.986987
0
LINE
8
BLACK
6
CONTINUOUS
10
1.13273
20
0.986987
11
1.13213
21
0.99
0
LINE
8
BLACK
6
CONTINUOUS
10
1.13213
20
0.99
11
1.13213
21
1.05
0
LINE
8
BLACK
6
CONTINUOUS
10
1.13213
20
1.05
11
1.13273
21
1.05301
0
LINE
8
BLACK
6
CONTINUOUS
10
1.13273
20
1.05301
11
1.13443
21
1.05557
0
LINE
8
BLACK
6
CONTINUOUS
10
1.13443
20
1.05557
11
1.13699
21
1.05727
0
LINE
8
BLACK
6
CONTINUOUS
10
1.13699
20
1.05727
11
1.14
21
1.05787
0
LINE
8
BLACK
6
CONTINUOUS
10
1.14
20
1.05787
11
1.2
21
1.05787
0
LINE
8
BLACK
6
CONTINUOUS
10
1.2
20
1.05787
11
1.20301
21
1.05727
0
LINE
8
BLACK
6
CONTINUOUS
10
0.723013
20
1.15504
11
0.725568
21
1.15334
0
LINE
8
BLACK
6
CONTINUOUS
10
0.725568
20
1.15334
11
0.727275
21
1.15078
0
LINE
8
BLACK
6
CONTINUOUS
10
0.727275
20
1.15078
11
0.727874
21
1.14777
0
LINE
8
BLACK
6
CONTINUOUS
10
0.727874
20
1.14777
11
0.727874
21
1.08777
0
LINE
8
BLACK
6
CONTINUOUS
10
0.727874
20
1.08777
11
0.727275
21
1.08476
0
LINE
8
BLACK
6
CONTINUOUS
10
0.727275
20
1.08476
11
0.725568
21
1.0822
0
LINE
8
BLACK
6
CONTINUOUS
10
0.725568
20
1.0822
11
0.723013
21
1.08049
0
LINE
8
BLACK
6
CONTINUOUS
10
0.723013
20
1.08049
11
0.72
21
1.07989
0
LINE
8
BLACK
6
CONTINUOUS
10
0.72
20
1.07989
11
0.66
21
1.07989
0
LINE
8
BLACK
6
CONTINUOUS
10
0.66
20
1.07989
11
0.656987
21
1.08049
0
LINE
8
BLACK
6
CONTINUOUS
10
0.656987
20
1.08049
11
0.654432
21
1.0822
0
LINE
8
BLACK
6
CONTINUOUS
10
0.654432
20
1.0822
11
0.652725
21
1.08476
0
LINE
8
BLACK
6
CONTINUOUS
10
0.652725
20
1.08476
11
0.652126
21
1.08777
0
LINE
8
BLACK
6
CONTINUOUS
10
0.652126
20
1.08777
11
0.652126
21
1.14777
0
LINE
8
BLACK
6
CONTINUOUS
10
0.652126
20
1.14777
11
0.652725
21
1.15078
0
LINE
8
BLACK
6
CONTINUOUS
10
0.652725
20
1.15078
11
0.654432
21
1.15334
0
LINE
8
BLACK
6
CONTINUOUS
10
0.654432
20
1.15334
11
0.656987
21
1.15504
0
LINE
8
BLACK
6
CONTINUOUS
10
0.656987
20
1.15504
11
0.66
21
1.15564
0
LINE
8
BLACK
6
CONTINUOUS
10
0.66
20
1.15564
11
0.72
21
1.15564
0
LINE
8
BLACK
6
CONTINUOUS
10
0.72
20
1.15564
11
0.723013
21
1.15504
0
LINE
8
BLACK
6
CONTINUOUS
10
0.923013
20
1.15504
11
0.925568
21
1.15334
0
LINE
8
BLACK
6
CONTINUOUS
10
0.925568
20
1.15334
11
0.927275
21
1.15078
0
LINE
8
BLACK
6
CONTINUOUS
10
0.927275
20
1.15078
11
0.927874
21
1.14777
0
LINE
8
BLACK
6
CONTINUOUS
10
0.927874
20
1.14777
11
0.927874
21
1.08777
0
LINE
8
BLACK
6
CONTINUOUS
10
0.927874
20
1.08777
11
0.927275
21
1.08476
0
LINE
8
BLACK
6
CONTINUOUS
10
0.927275
20
1.08476
11
0.925568
21
1.0822
0
LINE
8
BLACK
6
CONTINUOUS
10
0.925568
20
1.0822
11
0.923013
21
1.08049
0
LINE
8
BLACK
6
CONTINUOUS
10
0.923013
20
1.08049
11
0.92
21
1.07989
0
LINE
8
BLACK
6
CONTINUOUS
10
0.92
20
1.07989
11
0.86
21
1.07989
0
LINE
8
BLACK
6
CONTINUOUS
10
0.86
20
1.07989
11
0.856987
21
1.08049
0
LINE
8
BLACK
6
CONTINUOUS
10
0.856987
20
1.08049
11
0.854432
21
1.0822
0
LINE
8
BLACK
6
CONTINUOUS
10
0.854432
20
1.0822
11
0.852725
21
1.08476
0
LINE
8
BLACK
6
CONTINUOUS
10
0.852725
20
1.08476
11
0.852126
21
1.08777
0
LINE
8
BLACK
6
CONTINUOUS
10
0.852126
20
1.08777
11
0.852126
21
1.14777
0
LINE
8
BLACK
6
CONTINUOUS
10
0.852126
20
1.14777
11
0.852725
21
1.15078
0
LINE
8
BLACK
6
CONTINUOUS
10
0.852725
20
1.15078
11
0.854432
21
1.15334
0
LINE
8
BLACK
6
CONTINUOUS
10
0.854432
20
1.15334
11
0.856987
21
1.15504
0
LINE
8
BLACK
6
CONTINUOUS
10
0.856987
20
1.15504
11
0.86
21
1.15564
0
LINE
8
BLACK
6
CONTINUOUS
10
0.86
20
1.15564
11
0.92
21
1.15564
0
LINE
8
BLACK
6
CONTINUOUS
10
0.92
20
1.15564
11
0.923013
21
1.15504
0
LINE
8
BLACK
6
CONTINUOUS
10
1.02301
20
1.15504
11
1.02557
21
1.15334
0
LINE
8
BLACK
6
CONTINUOUS
10
1.02557
20
1.15334
11
1.02727
21
1.15078
0
LINE
8
BLACK
6
CONTINUOUS
10
1.02727
20
1.15078
11
1.02787
21
1.14777
0
LINE
8
BLACK
6
CONTINUOUS
10
1.02787
20
1.14777
11
1.02787
21
1.08777
0
LINE
8
BLACK
6
CONTINUOUS
10
1.02787
20
1.08777
11
1.02727
21
1.08476
0
LINE
8
BLACK
6
CONTINUOUS
10
1.02727
20
1.08476
11
1.02557
21
1.0822
0
LINE
8
BLACK
6
CONTINUOUS
10
1.02557
20
1.0822
11
1.02301
21
1.08049
0
LINE
8
BLACK
6
CONTINUOUS
10
1.02301
20
1.08049
11
1.02
21
1.07989
0
LINE
8
BLACK
6
CONTINUOUS
10
1.02
20
1.07989
11
0.96
21
1.07989
0
LINE
8
BLACK
6
CONTINUOUS
10
0.96
20
1.07989
11
0.956987
21
1.08049
0
LINE
8
BLACK
6
CONTINUOUS
10
0.956987
20
1.08049
11
0.954432
21
1.0822
0
LINE
8
BLACK
6
CONTINUOUS
10
0.954432
20
1.0822
11
0.952725
21
1.08476
0
LINE
8
BLACK
6
CONTINUOUS
10
0.952725
20
1.08476
11
0.952126
21
1.08777
0
LINE
8
BLACK
6
CONTINUOUS
10
0.952126
20
1.08777
11
0.952126
21
1.14777
0
LINE
8
BLACK
6
CONTINUOUS
10
0.952126
20
1.14777
11
0.952725
21
1.15078
0
LINE
8
BLACK
6
CONTINUOUS
10
0.952725
20
1.15078
11
0.954432
21
1.15334
0
LINE
8
BLACK
6
CONTINUOUS
10
0.954432
20
1.15334
11
0.956987
21
1.15504
0
LINE
8
BLACK
6
CONTINUOUS
10
0.956987
20
1.15504
11
0.96
21
1.15564
0
LINE
8
BLACK
6
CONTINUOUS
10
0.96
20
1.15564
11
1.02
21
1.15564
0
LINE
8
BLACK
6
CONTINUOUS
10
1.02
20
1.15564
11
1.02301
21
1.15504
0
LINE
8
BLACK
6
CONTINUOUS
10
0.823013
20
1.15504
11
0.825568
21
1.15334
0
LINE
8
BLACK
6
CONTINUOUS
10
0.825568
20
1.15334
11
0.827275
21
1.15078
0
LINE
8
BLACK
6
CONTINUOUS
10
0.827275
20
1.15078
11
0.827874
21
1.14777
0
LINE
8
BLACK
6
CONTINUOUS
10
0.827874
20
1.14777
11
0.827874
21
1.08777
0
LINE
8
BLACK
6
CONTINUOUS
10
0.827874
20
1.08777
11
0.827275
21
1.08476
0
LINE
8
BLACK
6
CONTINUOUS
10
0.827275
20
1.08476
11
0.825568
21
1.0822
0
LINE
8
BLACK
6
CONTINUOUS
10
0.825568
20
1.0822
11
0.823013
21
1.08049
0
LINE
8
BLACK
6
CONTINUOUS
10
0.823013
20
1.08049
11
0.82
21
1.07989
0
LINE
8
BLACK
6
CONTINUOUS
10
0.82
20
1.07989
11
0.76
21
1.07989
0
LINE
8
BLACK
6
CONTINUOUS
10
0.76
20
1.07989
11
0.756987
21
1.08049
0
LINE
8
BLACK
6
CONTINUOUS
10
0.756987
20
1.08049
11
0.754432
21
1.0822
0
LINE
8
BLACK
6
CONTINUOUS
10
0.754432
20
1.0822
11
0.752725
21
1.08476
0
LINE
8
BLACK
6
CONTINUOUS
10
0.752725
20
1.08476
11
0.752126
21
1.08777
0
LINE
8
BLACK
6
CONTINUOUS
10
0.752126
20
1.08777
11
0.752126
21
1.14777
0
LINE
8
BLACK
6
CONTINUOUS
10
0.752126
20
1.14777
11
0.752725
21
1.15078
0
LINE
8
BLACK
6
CONTINUOUS
10
0.752725
20
1.15078
11
0.754432
21
1.15334
0
LINE
8
BLACK
6
CONTINUOUS
10
0.754432
20
1.15334
11
0.756987
21
1.15504
0
LINE
8
BLACK
6
CONTINUOUS
10
0.756987
20
1.15504
11
0.76
21
1.15564
0
LINE
8
BLACK
6
CONTINUOUS
10
0.76
20
1.15564
11
0.82
21
1.15564
0
LINE
8
BLACK
6
CONTINUOUS
10
0.82
20
1.15564
11
0.823013
21
1.15504
0
LINE
8
BLACK
6
CONTINUOUS
10
0.623013
20
1.15504
11
0.625568
21
1.15334
0
LINE
8
BLACK
6
CONTINUOUS
10
0.625568
20
1.15334
11
0.627275
21
1.15078
0
LINE
8
BLACK
6
CONTINUOUS
10
0.627275
20
1.15078
11
0.627874
21
1.14777
0
LINE
8
BLACK
6
CONTINUOUS
10
0.627874
20
1.14777
11
0.627874
21
1.08777
0
LINE
8
BLACK
6
CONTINUOUS
10
0.627874
20
1.08777
11
0.627275
21
1.08476
0
LINE
8
BLACK
6
CONTINUOUS
10
0.627275
20
1.08476
11
0.625568
21
1.0822
0
LINE
8
BLACK
6
CONTINUOUS
10
0.625568
20
1.0822
11
0.623013
21
1.08049
0
LINE
8
BLACK
6
CONTINUOUS
10
0.623013
20
1.08049
11
0.62
21
1.07989
0
LINE
8
BLACK
6
CONTINUOUS
10
0.62
20
1.07989
11
0.56
21
1.07989
0
LINE
8
BLACK
6
CONTINUOUS
10
0.56
20
1.07989
11
0.556987
21
1.08049
0
LINE
8
BLACK
6
CONTINUOUS
10
0.556987
20
1.08049
11
0.554432
21
1.0822
0
LINE
8
BLACK
6
CONTINUOUS
10
0.554432
20
1.0822
11
0.552725
21
1.08476
0
LINE
8
BLACK
6
CONTINUOUS
10
0.552725
20
1.08476
11
0.552126
21
1.08777
0
LINE
8
BLACK
6
CONTINUOUS
10
0.552126
20
1.08777
11
0.552126
21
1.14777
0
LINE
8
BLACK
6
CONTINUOUS
10
0.552126
20
1.14777
11
0.552725
21
1.15078
0
LINE
8
BLACK
6
CONTINUOUS
10
0.552725
20
1.15078
11
0.554432
21
1.15334
0
LINE
8
BLACK
6
CONTINUOUS
10
0.554432
20
1.15334
11
0.556987
21
1.15504
0
LINE
8
BLACK
6
CONTINUOUS
10
0.556987
20
1.15504
11
0.56
21
1.15564
0
LINE
8
BLACK
6
CONTINUOUS
10
0.56
20
1.15564
11
0.62
21
1.15564
0
LINE
8
BLACK
6
CONTINUOUS
10
0.62
20
1.15564
11
0.623013
21
1.15504
0
LINE
8
BLACK
6
CONTINUOUS
10
1.20301
20
1.15727
11
1.20557
21
1.15557
0
LINE
8
BLACK
6
CONTINUOUS
10
1.20557
20
1.15557
11
1.20727
21
1.15301
0
LINE
8
BLACK
6
CONTINUOUS
10
1.20727
20
1.15301
11
1.20787
21
1.15
0
LINE
8
BLACK
6
CONTINUOUS
10
1.20787
20
1.15
11
1.20787
21
1.09
0
LINE
8
BLACK
6
CONTINUOUS
10
1.20787
20
1.09
11
1.20727
21
1.08699
0
LINE
8
BLACK
6
CONTINUOUS
10
1.20727
20
1.08699
11
1.20557
21
1.08443
0
LINE
8
BLACK
6
CONTINUOUS
10
1.20557
20
1.08443
11
1.20301
21
1.08273
0
LINE
8
BLACK
6
CONTINUOUS
10
1.20301
20
1.08273
11
1.2
21
1.08213
0
LINE
8
BLACK
6
CONTINUOUS
10
1.2
20
1.08213
11
1.14
21
1.08213
0
LINE
8
BLACK
6
CONTINUOUS
10
1.14
20
1.08213
11
1.13699
21
1.08273
0
LINE
8
BLACK
6
CONTINUOUS
10
1.13699
20
1.08273
11
1.13443
21
1.08443
0
LINE
8
BLACK
6
CONTINUOUS
10
1.13443
20
1.08443
11
1.13273
21
1.08699
0
LINE
8
BLACK
6
CONTINUOUS
10
1.13273
20
1.08699
11
1.13213
21
1.09
0
LINE
8
BLACK
6
CONTINUOUS
10
1.13213
20
1.09
11
1.13213
21
1.15
0
LINE
8
BLACK
6
CONTINUOUS
10
1.13213
20
1.15
11
1.13273
21
1.15301
0
LINE
8
BLACK
6
CONTINUOUS
10
1.13273
20
1.15301
11
1.13443
21
1.15557
0
LINE
8
BLACK
6
CONTINUOUS
10
1.13443
20
1.15557
11
1.13699
21
1.15727
0
LINE
8
BLACK
6
CONTINUOUS
10
1.13699
20
1.15727
11
1.14
21
1.15787
0
LINE
8
BLACK
6
CONTINUOUS
10
1.14
20
1.15787
11
1.2
21
1.15787
0
LINE
8
BLACK
6
CONTINUOUS
10
1.2
20
1.15787
11
1.20301
21
1.15727
  0
ENDSEC
  0
EOF
