  0
SECTION
  2
HEADER
  9
$ANGBASE
  50
0.0
  9
$ANGDIR
  70
1
  9
$MEASUREMENT
  70
0
  0
ENDSEC
  0
SECTION
  2
TABLES
  0
TABLE
  2
LTYPE
  70
4
  0
LTYPE
  5
40F
  2
CONTINUOUS
  70
0
  3
Solid line
  72
65
  73
0
  40
0.0
  0
LTYPE
  5
410
  2
DASHDOT
 70
0
  3
Dash Dot ____ _ ____ _
 72
65
 73
4
 40
2.0
 49
1.25
 49
-0.25
 49
0.25
 49
-0.25
  0
LTYPE
  5
411
  2
DASHED
 70
0
  3
Dashed __ __ __ __ __
 72
65
 73
2
 40
0.75
 49
0.5
 49
-0.25
  0
LTYPE
  5
43B
  2
DOTTED
 70
0
  3
Dotted .  .  .  .
 72
65
 73
2
 40
0.2
 49
0.0
 49
-0.2
  0
ENDTAB
  0
TABLE
  2
STYLE
  70
4
  0
STYLE
  2
KICAD
  70
0
  40
0
  41
1
  42
1
  50
0
  71
0
  3
isocp.shx
  0
STYLE
  2
KICADB
  70
0
  40
0
  41
1
  42
1
  50
0
  71
0
  3
isocp.shx
  0
STYLE
  2
KICADI
  70
0
  40
0
  41
1
  42
1
  50
15
  71
0
  3
isocp.shx
  0
STYLE
  2
KICADBI
  70
0
  40
0
  41
1
  42
1
  50
15
  71
0
  3
isocp.shx
  0
ENDTAB
  0
TABLE
  2
LAYER
  70
1
  0
LAYER
  2
BLACK
  70
0
  62
7
  6
CONTINUOUS
  0
ENDTAB
  0
ENDSEC
  0
SECTION
  2
ENTITIES
0
LINE
8
BLACK
6
CONTINUOUS
10
0.20865
20
0.317793
11
0.222132
21
0.316018
0
LINE
8
BLACK
6
CONTINUOUS
10
0.222132
20
0.316018
11
0.23532
21
0.312706
0
LINE
8
BLACK
6
CONTINUOUS
10
0.23532
20
0.312706
11
0.24804
21
0.307899
0
LINE
8
BLACK
6
CONTINUOUS
10
0.24804
20
0.307899
11
0.260123
21
0.301662
0
LINE
8
BLACK
6
CONTINUOUS
10
0.260123
20
0.301662
11
0.271409
21
0.294078
0
LINE
8
BLACK
6
CONTINUOUS
10
0.271409
20
0.294078
11
0.281749
21
0.285247
0
LINE
8
BLACK
6
CONTINUOUS
10
0.281749
20
0.285247
11
0.291006
21
0.275286
0
LINE
8
BLACK
6
CONTINUOUS
10
0.291006
20
0.275286
11
0.299056
21
0.264327
0
LINE
8
BLACK
6
CONTINUOUS
10
0.299056
20
0.264327
11
0.305793
21
0.252516
0
LINE
8
BLACK
6
CONTINUOUS
10
0.305793
20
0.252516
11
0.311128
21
0.240008
0
LINE
8
BLACK
6
CONTINUOUS
10
0.311128
20
0.240008
11
0.31499
21
0.226971
0
LINE
8
BLACK
6
CONTINUOUS
10
0.31499
20
0.226971
11
0.317327
21
0.213575
0
LINE
8
BLACK
6
CONTINUOUS
10
0.317327
20
0.213575
11
0.31811
21
0.2
0
LINE
8
BLACK
6
CONTINUOUS
10
0.31811
20
0.2
11
0.317877
21
0.192584
0
LINE
8
BLACK
6
CONTINUOUS
10
0.317877
20
0.192584
11
0.316244
21
0.179084
0
LINE
8
BLACK
6
CONTINUOUS
10
0.316244
20
0.179084
11
0.313069
21
0.165862
0
LINE
8
BLACK
6
CONTINUOUS
10
0.313069
20
0.165862
11
0.308396
21
0.153093
0
LINE
8
BLACK
6
CONTINUOUS
10
0.308396
20
0.153093
11
0.302286
21
0.140945
0
LINE
8
BLACK
6
CONTINUOUS
10
0.302286
20
0.140945
11
0.294821
21
0.12958
0
LINE
8
BLACK
6
CONTINUOUS
10
0.294821
20
0.12958
11
0.286099
21
0.119148
0
LINE
8
BLACK
6
CONTINUOUS
10
0.286099
20
0.119148
11
0.276235
21
0.109788
0
LINE
8
BLACK
6
CONTINUOUS
10
0.276235
20
0.109788
11
0.265361
21
0.101623
0
LINE
8
BLACK
6
CONTINUOUS
10
0.265361
20
0.101623
11
0.253621
21
0.094763
0
LINE
8
BLACK
6
CONTINUOUS
10
0.253621
20
0.094763
11
0.24117
21
0.0892974
0
LINE
8
BLACK
6
CONTINUOUS
10
0.24117
20
0.0892974
11
0.228173
21
0.0852991
0
LINE
8
BLACK
6
CONTINUOUS
10
0.228173
20
0.0852991
11
0.214803
21
0.0828211
0
LINE
8
BLACK
6
CONTINUOUS
10
0.214803
20
0.0828211
11
0.201237
21
0.0818962
0
LINE
8
BLACK
6
CONTINUOUS
10
0.201237
20
0.0818962
11
0.187654
21
0.0825368
0
LINE
8
BLACK
6
CONTINUOUS
10
0.187654
20
0.0825368
11
0.174235
21
0.0847343
0
LINE
8
BLACK
6
CONTINUOUS
10
0.174235
20
0.0847343
11
0.161157
21
0.0884595
0
LINE
8
BLACK
6
CONTINUOUS
10
0.161157
20
0.0884595
11
0.148595
21
0.0936631
0
LINE
8
BLACK
6
CONTINUOUS
10
0.148595
20
0.0936631
11
0.136713
21
0.100276
0
LINE
8
BLACK
6
CONTINUOUS
10
0.136713
20
0.100276
11
0.125671
21
0.108211
0
LINE
8
BLACK
6
CONTINUOUS
10
0.125671
20
0.108211
11
0.115613
21
0.117363
0
LINE
8
BLACK
6
CONTINUOUS
10
0.115613
20
0.117363
11
0.106675
21
0.127609
0
LINE
8
BLACK
6
CONTINUOUS
10
0.106675
20
0.127609
11
0.0989727
21
0.138816
0
LINE
8
BLACK
6
CONTINUOUS
10
0.0989727
20
0.138816
11
0.0926099
21
0.150833
0
LINE
8
BLACK
6
CONTINUOUS
10
0.0926099
20
0.150833
11
0.0876705
21
0.163502
0
LINE
8
BLACK
6
CONTINUOUS
10
0.0876705
20
0.163502
11
0.0842199
21
0.176655
0
LINE
8
BLACK
6
CONTINUOUS
10
0.0842199
20
0.176655
11
0.082304
21
0.190117
0
LINE
8
BLACK
6
CONTINUOUS
10
0.082304
20
0.190117
11
0.081948
21
0.20371
0
LINE
8
BLACK
6
CONTINUOUS
10
0.081948
20
0.20371
11
0.0831568
21
0.217254
0
LINE
8
BLACK
6
CONTINUOUS
10
0.0831568
20
0.217254
11
0.0859143
21
0.230569
0
LINE
8
BLACK
6
CONTINUOUS
10
0.0859143
20
0.230569
11
0.0901839
21
0.243479
0
LINE
8
BLACK
6
CONTINUOUS
10
0.0901839
20
0.243479
11
0.0959091
21
0.255813
0
LINE
8
BLACK
6
CONTINUOUS
10
0.0959091
20
0.255813
11
0.103014
21
0.267407
0
LINE
8
BLACK
6
CONTINUOUS
10
0.103014
20
0.267407
11
0.111404
21
0.278108
0
LINE
8
BLACK
6
CONTINUOUS
10
0.111404
20
0.278108
11
0.120969
21
0.287773
0
LINE
8
BLACK
6
CONTINUOUS
10
0.120969
20
0.287773
11
0.131581
21
0.296275
0
LINE
8
BLACK
6
CONTINUOUS
10
0.131581
20
0.296275
11
0.1431
21
0.303501
0
LINE
8
BLACK
6
CONTINUOUS
10
0.1431
20
0.303501
11
0.155373
21
0.309355
0
LINE
8
BLACK
6
CONTINUOUS
10
0.155373
20
0.309355
11
0.168238
21
0.313759
0
LINE
8
BLACK
6
CONTINUOUS
10
0.168238
20
0.313759
11
0.181524
21
0.316656
0
LINE
8
BLACK
6
CONTINUOUS
10
0.181524
20
0.316656
11
0.195054
21
0.318007
0
LINE
8
BLACK
6
CONTINUOUS
10
0.195054
20
0.318007
11
0.20865
21
0.317793
0
LINE
8
BLACK
6
CONTINUOUS
10
0.20865
20
1.11779
11
0.222132
21
1.11602
0
LINE
8
BLACK
6
CONTINUOUS
10
0.222132
20
1.11602
11
0.23532
21
1.11271
0
LINE
8
BLACK
6
CONTINUOUS
10
0.23532
20
1.11271
11
0.24804
21
1.1079
0
LINE
8
BLACK
6
CONTINUOUS
10
0.24804
20
1.1079
11
0.260123
21
1.10166
0
LINE
8
BLACK
6
CONTINUOUS
10
0.260123
20
1.10166
11
0.271409
21
1.09408
0
LINE
8
BLACK
6
CONTINUOUS
10
0.271409
20
1.09408
11
0.281749
21
1.08525
0
LINE
8
BLACK
6
CONTINUOUS
10
0.281749
20
1.08525
11
0.291006
21
1.07529
0
LINE
8
BLACK
6
CONTINUOUS
10
0.291006
20
1.07529
11
0.299056
21
1.06433
0
LINE
8
BLACK
6
CONTINUOUS
10
0.299056
20
1.06433
11
0.305793
21
1.05252
0
LINE
8
BLACK
6
CONTINUOUS
10
0.305793
20
1.05252
11
0.311128
21
1.04001
0
LINE
8
BLACK
6
CONTINUOUS
10
0.311128
20
1.04001
11
0.31499
21
1.02697
0
LINE
8
BLACK
6
CONTINUOUS
10
0.31499
20
1.02697
11
0.317327
21
1.01358
0
LINE
8
BLACK
6
CONTINUOUS
10
0.317327
20
1.01358
11
0.31811
21
1
0
LINE
8
BLACK
6
CONTINUOUS
10
0.31811
20
1
11
0.317877
21
0.992584
0
LINE
8
BLACK
6
CONTINUOUS
10
0.317877
20
0.992584
11
0.316244
21
0.979084
0
LINE
8
BLACK
6
CONTINUOUS
10
0.316244
20
0.979084
11
0.313069
21
0.965862
0
LINE
8
BLACK
6
CONTINUOUS
10
0.313069
20
0.965862
11
0.308396
21
0.953093
0
LINE
8
BLACK
6
CONTINUOUS
10
0.308396
20
0.953093
11
0.302286
21
0.940945
0
LINE
8
BLACK
6
CONTINUOUS
10
0.302286
20
0.940945
11
0.294821
21
0.92958
0
LINE
8
BLACK
6
CONTINUOUS
10
0.294821
20
0.92958
11
0.286099
21
0.919148
0
LINE
8
BLACK
6
CONTINUOUS
10
0.286099
20
0.919148
11
0.276235
21
0.909788
0
LINE
8
BLACK
6
CONTINUOUS
10
0.276235
20
0.909788
11
0.265361
21
0.901623
0
LINE
8
BLACK
6
CONTINUOUS
10
0.265361
20
0.901623
11
0.253621
21
0.894763
0
LINE
8
BLACK
6
CONTINUOUS
10
0.253621
20
0.894763
11
0.24117
21
0.889297
0
LINE
8
BLACK
6
CONTINUOUS
10
0.24117
20
0.889297
11
0.228173
21
0.885299
0
LINE
8
BLACK
6
CONTINUOUS
10
0.228173
20
0.885299
11
0.214803
21
0.882821
0
LINE
8
BLACK
6
CONTINUOUS
10
0.214803
20
0.882821
11
0.201237
21
0.881896
0
LINE
8
BLACK
6
CONTINUOUS
10
0.201237
20
0.881896
11
0.187654
21
0.882537
0
LINE
8
BLACK
6
CONTINUOUS
10
0.187654
20
0.882537
11
0.174235
21
0.884734
0
LINE
8
BLACK
6
CONTINUOUS
10
0.174235
20
0.884734
11
0.161157
21
0.888459
0
LINE
8
BLACK
6
CONTINUOUS
10
0.161157
20
0.888459
11
0.148595
21
0.893663
0
LINE
8
BLACK
6
CONTINUOUS
10
0.148595
20
0.893663
11
0.136713
21
0.900276
0
LINE
8
BLACK
6
CONTINUOUS
10
0.136713
20
0.900276
11
0.125671
21
0.908211
0
LINE
8
BLACK
6
CONTINUOUS
10
0.125671
20
0.908211
11
0.115613
21
0.917363
0
LINE
8
BLACK
6
CONTINUOUS
10
0.115613
20
0.917363
11
0.106675
21
0.927609
0
LINE
8
BLACK
6
CONTINUOUS
10
0.106675
20
0.927609
11
0.0989727
21
0.938816
0
LINE
8
BLACK
6
CONTINUOUS
10
0.0989727
20
0.938816
11
0.0926099
21
0.950833
0
LINE
8
BLACK
6
CONTINUOUS
10
0.0926099
20
0.950833
11
0.0876705
21
0.963502
0
LINE
8
BLACK
6
CONTINUOUS
10
0.0876705
20
0.963502
11
0.0842199
21
0.976655
0
LINE
8
BLACK
6
CONTINUOUS
10
0.0842199
20
0.976655
11
0.082304
21
0.990117
0
LINE
8
BLACK
6
CONTINUOUS
10
0.082304
20
0.990117
11
0.081948
21
1.00371
0
LINE
8
BLACK
6
CONTINUOUS
10
0.081948
20
1.00371
11
0.0831568
21
1.01725
0
LINE
8
BLACK
6
CONTINUOUS
10
0.0831568
20
1.01725
11
0.0859143
21
1.03057
0
LINE
8
BLACK
6
CONTINUOUS
10
0.0859143
20
1.03057
11
0.0901839
21
1.04348
0
LINE
8
BLACK
6
CONTINUOUS
10
0.0901839
20
1.04348
11
0.0959091
21
1.05581
0
LINE
8
BLACK
6
CONTINUOUS
10
0.0959091
20
1.05581
11
0.103014
21
1.06741
0
LINE
8
BLACK
6
CONTINUOUS
10
0.103014
20
1.06741
11
0.111404
21
1.07811
0
LINE
8
BLACK
6
CONTINUOUS
10
0.111404
20
1.07811
11
0.120969
21
1.08777
0
LINE
8
BLACK
6
CONTINUOUS
10
0.120969
20
1.08777
11
0.131581
21
1.09627
0
LINE
8
BLACK
6
CONTINUOUS
10
0.131581
20
1.09627
11
0.1431
21
1.1035
0
LINE
8
BLACK
6
CONTINUOUS
10
0.1431
20
1.1035
11
0.155373
21
1.10935
0
LINE
8
BLACK
6
CONTINUOUS
10
0.155373
20
1.10935
11
0.168238
21
1.11376
0
LINE
8
BLACK
6
CONTINUOUS
10
0.168238
20
1.11376
11
0.181524
21
1.11666
0
LINE
8
BLACK
6
CONTINUOUS
10
0.181524
20
1.11666
11
0.195054
21
1.11801
0
LINE
8
BLACK
6
CONTINUOUS
10
0.195054
20
1.11801
11
0.20865
21
1.11779
0
LINE
8
BLACK
6
CONTINUOUS
10
1.07
20
0.095
11
1.07
21
0.155
0
LINE
8
BLACK
6
CONTINUOUS
10
1.07
20
0.155
11
1.09
21
0.155
0
LINE
8
BLACK
6
CONTINUOUS
10
1.09
20
0.155
11
1.09
21
0.195
0
LINE
8
BLACK
6
CONTINUOUS
10
1.09
20
0.195
11
1.07
21
0.195
0
LINE
8
BLACK
6
CONTINUOUS
10
1.07
20
0.195
11
1.07
21
0.255
0
LINE
8
BLACK
6
CONTINUOUS
10
1.07
20
0.255
11
1.09
21
0.255
0
LINE
8
BLACK
6
CONTINUOUS
10
1.09
20
0.255
11
1.09
21
0.274287
0
LINE
8
BLACK
6
CONTINUOUS
10
1.09
20
0.274287
11
1.08982
21
0.274887
0
LINE
8
BLACK
6
CONTINUOUS
10
1.08982
20
0.274887
11
1.08977
21
0.274934
0
LINE
8
BLACK
6
CONTINUOUS
10
1.08977
20
0.274934
11
1.08947
21
0.275
0
LINE
8
BLACK
6
CONTINUOUS
10
1.08947
20
0.275
11
1.06824
21
0.275
0
LINE
8
BLACK
6
CONTINUOUS
10
1.06824
20
0.275
11
1.06797
21
0.274985
0
LINE
8
BLACK
6
CONTINUOUS
10
1.06797
20
0.274985
11
1.06597
21
0.274768
0
LINE
8
BLACK
6
CONTINUOUS
10
1.06597
20
0.274768
11
1.06537
21
0.274625
0
LINE
8
BLACK
6
CONTINUOUS
10
1.06537
20
0.274625
11
1.06063
21
0.272847
0
LINE
8
BLACK
6
CONTINUOUS
10
1.06063
20
0.272847
11
1.06001
21
0.272511
0
LINE
8
BLACK
6
CONTINUOUS
10
1.06001
20
0.272511
11
1.056
21
0.269499
0
LINE
8
BLACK
6
CONTINUOUS
10
1.056
20
0.269499
11
1.0555
21
0.269005
0
LINE
8
BLACK
6
CONTINUOUS
10
1.0555
20
0.269005
11
1.05398
21
0.266978
0
LINE
8
BLACK
6
CONTINUOUS
10
1.05398
20
0.266978
11
1.05174
21
0.265305
0
LINE
8
BLACK
6
CONTINUOUS
10
1.05174
20
0.265305
11
1.04896
21
0.265107
0
LINE
8
BLACK
6
CONTINUOUS
10
1.04896
20
0.265107
11
1.0465
21
0.266448
0
LINE
8
BLACK
6
CONTINUOUS
10
1.0465
20
0.266448
11
1.04604
21
0.266978
0
LINE
8
BLACK
6
CONTINUOUS
10
1.04604
20
0.266978
11
1.0443
21
0.269302
0
LINE
8
BLACK
6
CONTINUOUS
10
1.0443
20
0.269302
11
1.03971
21
0.272741
0
LINE
8
BLACK
6
CONTINUOUS
10
1.03971
20
0.272741
11
1.03938
21
0.272865
0
LINE
8
BLACK
6
CONTINUOUS
10
1.03938
20
0.272865
11
1.03938
21
0.272865
0
LINE
8
BLACK
6
CONTINUOUS
10
1.03938
20
0.272865
11
1.03702
21
0.273751
0
LINE
8
BLACK
6
CONTINUOUS
10
1.03702
20
0.273751
11
1.03478
21
0.27543
0
LINE
8
BLACK
6
CONTINUOUS
10
1.03478
20
0.27543
11
1.03381
21
0.27805
0
LINE
8
BLACK
6
CONTINUOUS
10
1.03381
20
0.27805
11
1.0338
21
0.278396
0
LINE
8
BLACK
6
CONTINUOUS
10
1.0338
20
0.278396
11
1.0338
21
0.280929
0
LINE
8
BLACK
6
CONTINUOUS
10
1.0338
20
0.280929
11
1.03382
21
0.281345
0
LINE
8
BLACK
6
CONTINUOUS
10
1.03382
20
0.281345
11
1.03397
21
0.283122
0
LINE
8
BLACK
6
CONTINUOUS
10
1.03397
20
0.283122
11
1.03399
21
0.28339
0
LINE
8
BLACK
6
CONTINUOUS
10
1.03399
20
0.28339
11
1.03357
21
0.286559
0
LINE
8
BLACK
6
CONTINUOUS
10
1.03357
20
0.286559
11
1.03355
21
0.286679
0
LINE
8
BLACK
6
CONTINUOUS
10
1.03355
20
0.286679
11
1.03323
21
0.289593
0
LINE
8
BLACK
6
CONTINUOUS
10
1.03323
20
0.289593
11
1.03321
21
0.28986
0
LINE
8
BLACK
6
CONTINUOUS
10
1.03321
20
0.28986
11
1.03312
21
0.290114
0
LINE
8
BLACK
6
CONTINUOUS
10
1.03312
20
0.290114
11
1.03309
21
0.290242
0
LINE
8
BLACK
6
CONTINUOUS
10
1.03309
20
0.290242
11
1.03309
21
0.290259
0
LINE
8
BLACK
6
CONTINUOUS
10
1.03309
20
0.290259
11
1.03308
21
0.290275
0
LINE
8
BLACK
6
CONTINUOUS
10
1.03308
20
0.290275
11
1.03305
21
0.290403
0
LINE
8
BLACK
6
CONTINUOUS
10
1.03305
20
0.290403
11
1.03302
21
0.290669
0
LINE
8
BLACK
6
CONTINUOUS
10
1.03302
20
0.290669
11
1.03192
21
0.293675
0
LINE
8
BLACK
6
CONTINUOUS
10
1.03192
20
0.293675
11
1.03188
21
0.293788
0
LINE
8
BLACK
6
CONTINUOUS
10
1.03188
20
0.293788
11
1.03095
21
0.296565
0
LINE
8
BLACK
6
CONTINUOUS
10
1.03095
20
0.296565
11
1.03086
21
0.29682
0
LINE
8
BLACK
6
CONTINUOUS
10
1.03086
20
0.29682
11
1.03072
21
0.29705
0
LINE
8
BLACK
6
CONTINUOUS
10
1.03072
20
0.29705
11
1.03067
21
0.297169
0
LINE
8
BLACK
6
CONTINUOUS
10
1.03067
20
0.297169
11
1.03066
21
0.297185
0
LINE
8
BLACK
6
CONTINUOUS
10
1.03066
20
0.297185
11
1.03065
21
0.2972
0
LINE
8
BLACK
6
CONTINUOUS
10
1.03065
20
0.2972
11
1.0306
21
0.297317
0
LINE
8
BLACK
6
CONTINUOUS
10
1.0306
20
0.297317
11
1.03051
21
0.29757
0
LINE
8
BLACK
6
CONTINUOUS
10
1.03051
20
0.29757
11
1.02879
21
0.300269
0
LINE
8
BLACK
6
CONTINUOUS
10
1.02879
20
0.300269
11
1.02873
21
0.300372
0
LINE
8
BLACK
6
CONTINUOUS
10
1.02873
20
0.300372
11
1.02722
21
0.302884
0
LINE
8
BLACK
6
CONTINUOUS
10
1.02722
20
0.302884
11
1.02708
21
0.303115
0
LINE
8
BLACK
6
CONTINUOUS
10
1.02708
20
0.303115
11
1.0269
21
0.30331
0
LINE
8
BLACK
6
CONTINUOUS
10
1.0269
20
0.30331
11
1.02682
21
0.303414
0
LINE
8
BLACK
6
CONTINUOUS
10
1.02682
20
0.303414
11
1.0268
21
0.303444
0
LINE
8
BLACK
6
CONTINUOUS
10
1.0268
20
0.303444
11
1.02668
21
0.303599
0
LINE
8
BLACK
6
CONTINUOUS
10
1.02668
20
0.303599
11
1.02657
21
0.30377
0
LINE
8
BLACK
6
CONTINUOUS
10
1.02657
20
0.30377
11
1.02642
21
0.303938
0
LINE
8
BLACK
6
CONTINUOUS
10
1.02642
20
0.303938
11
1.02429
21
0.306064
0
LINE
8
BLACK
6
CONTINUOUS
10
1.02429
20
0.306064
11
1.0242
21
0.306163
0
LINE
8
BLACK
6
CONTINUOUS
10
1.0242
20
0.306163
11
1.02222
21
0.308255
0
LINE
8
BLACK
6
CONTINUOUS
10
1.02222
20
0.308255
11
1.02204
21
0.30845
0
LINE
8
BLACK
6
CONTINUOUS
10
1.02204
20
0.30845
11
1.02181
21
0.308601
0
LINE
8
BLACK
6
CONTINUOUS
10
1.02181
20
0.308601
11
1.02161
21
0.308775
0
LINE
8
BLACK
6
CONTINUOUS
10
1.02161
20
0.308775
11
1.02162
21
0.308791
0
LINE
8
BLACK
6
CONTINUOUS
10
1.02162
20
0.308791
11
1.02131
21
0.309051
0
LINE
8
BLACK
6
CONTINUOUS
10
1.02131
20
0.309051
11
0.887611
21
0.442747
0
LINE
8
BLACK
6
CONTINUOUS
10
0.887611
20
0.442747
11
0.88733
21
0.443053
0
LINE
8
BLACK
6
CONTINUOUS
10
0.88733
20
0.443053
11
0.886179
21
0.444415
0
LINE
8
BLACK
6
CONTINUOUS
10
0.886179
20
0.444415
11
0.886005
21
0.444621
0
LINE
8
BLACK
6
CONTINUOUS
10
0.886005
20
0.444621
11
0.883466
21
0.446562
0
LINE
8
BLACK
6
CONTINUOUS
10
0.883466
20
0.446562
11
0.883371
21
0.446637
0
LINE
8
BLACK
6
CONTINUOUS
10
0.883371
20
0.446637
11
0.881086
21
0.448474
0
LINE
8
BLACK
6
CONTINUOUS
10
0.881086
20
0.448474
11
0.881086
21
0.448474
0
LINE
8
BLACK
6
CONTINUOUS
10
0.881086
20
0.448474
11
0.880876
21
0.448642
0
LINE
8
BLACK
6
CONTINUOUS
10
0.880876
20
0.448642
11
0.880636
21
0.448762
0
LINE
8
BLACK
6
CONTINUOUS
10
0.880636
20
0.448762
11
0.880526
21
0.448832
0
LINE
8
BLACK
6
CONTINUOUS
10
0.880526
20
0.448832
11
0.880511
21
0.448842
0
LINE
8
BLACK
6
CONTINUOUS
10
0.880511
20
0.448842
11
0.880497
21
0.44885
0
LINE
8
BLACK
6
CONTINUOUS
10
0.880497
20
0.44885
11
0.880384
21
0.448918
0
LINE
8
BLACK
6
CONTINUOUS
10
0.880384
20
0.448918
11
0.880171
21
0.449081
0
LINE
8
BLACK
6
CONTINUOUS
10
0.880171
20
0.449081
11
0.877273
21
0.450433
0
LINE
8
BLACK
6
CONTINUOUS
10
0.877273
20
0.450433
11
0.877164
21
0.450485
0
LINE
8
BLACK
6
CONTINUOUS
10
0.877164
20
0.450485
11
0.874539
21
0.451788
0
LINE
8
BLACK
6
CONTINUOUS
10
0.874539
20
0.451788
11
0.874299
21
0.451907
0
LINE
8
BLACK
6
CONTINUOUS
10
0.874299
20
0.451907
11
0.874038
21
0.451972
0
LINE
8
BLACK
6
CONTINUOUS
10
0.874038
20
0.451972
11
0.873915
21
0.452018
0
LINE
8
BLACK
6
CONTINUOUS
10
0.873915
20
0.452018
11
0.873899
21
0.452024
0
LINE
8
BLACK
6
CONTINUOUS
10
0.873899
20
0.452024
11
0.873883
21
0.452029
0
LINE
8
BLACK
6
CONTINUOUS
10
0.873883
20
0.452029
11
0.873759
21
0.452071
0
LINE
8
BLACK
6
CONTINUOUS
10
0.873759
20
0.452071
11
0.873516
21
0.452185
0
LINE
8
BLACK
6
CONTINUOUS
10
0.873516
20
0.452185
11
0.872778
21
0.45235
0
LINE
8
BLACK
6
CONTINUOUS
10
0.872778
20
0.45235
11
0.870332
21
0.453703
0
LINE
8
BLACK
6
CONTINUOUS
10
0.870332
20
0.453703
11
0.869007
21
0.456164
0
LINE
8
BLACK
6
CONTINUOUS
10
0.869007
20
0.456164
11
0.869222
21
0.458951
0
LINE
8
BLACK
6
CONTINUOUS
10
0.869222
20
0.458951
11
0.869564
21
0.459671
0
LINE
8
BLACK
6
CONTINUOUS
10
0.869564
20
0.459671
11
0.872725
21
0.465146
0
LINE
8
BLACK
6
CONTINUOUS
10
0.872725
20
0.465146
11
0.872725
21
0.465147
0
LINE
8
BLACK
6
CONTINUOUS
10
0.872725
20
0.465147
11
0.872855
21
0.465372
0
LINE
8
BLACK
6
CONTINUOUS
10
0.872855
20
0.465372
11
0.875179
21
0.472523
0
LINE
8
BLACK
6
CONTINUOUS
10
0.875179
20
0.472523
11
0.875206
21
0.472781
0
LINE
8
BLACK
6
CONTINUOUS
10
0.875206
20
0.472781
11
0.875206
21
0.472781
0
LINE
8
BLACK
6
CONTINUOUS
10
0.875206
20
0.472781
11
0.875209
21
0.472806
0
LINE
8
BLACK
6
CONTINUOUS
10
0.875209
20
0.472806
11
0.875214
21
0.472819
0
LINE
8
BLACK
6
CONTINUOUS
10
0.875214
20
0.472819
11
0.87526
21
0.473035
0
LINE
8
BLACK
6
CONTINUOUS
10
0.87526
20
0.473035
11
0.8753
21
0.473027
0
LINE
8
BLACK
6
CONTINUOUS
10
0.8753
20
0.473027
11
0.876272
21
0.475391
0
LINE
8
BLACK
6
CONTINUOUS
10
0.876272
20
0.475391
11
0.876634
21
0.475795
0
LINE
8
BLACK
6
CONTINUOUS
10
0.876634
20
0.475795
11
0.978179
21
0.577339
0
LINE
8
BLACK
6
CONTINUOUS
10
0.978179
20
0.577339
11
0.978179
21
0.57734
0
LINE
8
BLACK
6
CONTINUOUS
10
0.978179
20
0.57734
11
1.03051
21
0.629669
0
LINE
8
BLACK
6
CONTINUOUS
10
1.03051
20
0.629669
11
1.03296
21
0.631009
0
LINE
8
BLACK
6
CONTINUOUS
10
1.03296
20
0.631009
11
1.03402
21
0.631122
0
LINE
8
BLACK
6
CONTINUOUS
10
1.03402
20
0.631122
11
1.25598
21
0.631122
0
LINE
8
BLACK
6
CONTINUOUS
10
1.25598
20
0.631122
11
1.25867
21
0.630335
0
LINE
8
BLACK
6
CONTINUOUS
10
1.25867
20
0.630335
11
1.25949
21
0.629669
0
LINE
8
BLACK
6
CONTINUOUS
10
1.25949
20
0.629669
11
1.28853
21
0.600633
0
LINE
8
BLACK
6
CONTINUOUS
10
1.28853
20
0.600633
11
1.28987
21
0.59818
0
LINE
8
BLACK
6
CONTINUOUS
10
1.28987
20
0.59818
11
1.28998
21
0.597125
0
LINE
8
BLACK
6
CONTINUOUS
10
1.28998
20
0.597125
11
1.28998
21
0.568105
0
LINE
8
BLACK
6
CONTINUOUS
10
1.28998
20
0.568105
11
1.29025
21
0.565657
0
LINE
8
BLACK
6
CONTINUOUS
10
1.29025
20
0.565657
11
1.29226
21
0.560287
0
LINE
8
BLACK
6
CONTINUOUS
10
1.29226
20
0.560287
11
1.2957
21
0.555698
0
LINE
8
BLACK
6
CONTINUOUS
10
1.2957
20
0.555698
11
1.30029
21
0.552259
0
LINE
8
BLACK
6
CONTINUOUS
10
1.30029
20
0.552259
11
1.30566
21
0.550246
0
LINE
8
BLACK
6
CONTINUOUS
10
1.30566
20
0.550246
11
1.3081
21
0.54998
0
LINE
8
BLACK
6
CONTINUOUS
10
1.3081
20
0.54998
11
1.3719
21
0.54998
0
LINE
8
BLACK
6
CONTINUOUS
10
1.3719
20
0.54998
11
1.37434
21
0.550246
0
LINE
8
BLACK
6
CONTINUOUS
10
1.37434
20
0.550246
11
1.37971
21
0.552259
0
LINE
8
BLACK
6
CONTINUOUS
10
1.37971
20
0.552259
11
1.3843
21
0.555698
0
LINE
8
BLACK
6
CONTINUOUS
10
1.3843
20
0.555698
11
1.38603
21
0.558005
0
LINE
8
BLACK
6
CONTINUOUS
10
1.38603
20
0.558005
11
1.38827
21
0.559679
0
LINE
8
BLACK
6
CONTINUOUS
10
1.38827
20
0.559679
11
1.39106
21
0.559877
0
LINE
8
BLACK
6
CONTINUOUS
10
1.39106
20
0.559877
11
1.39351
21
0.558536
0
LINE
8
BLACK
6
CONTINUOUS
10
1.39351
20
0.558536
11
1.39397
21
0.558005
0
LINE
8
BLACK
6
CONTINUOUS
10
1.39397
20
0.558005
11
1.3957
21
0.555698
0
LINE
8
BLACK
6
CONTINUOUS
10
1.3957
20
0.555698
11
1.40029
21
0.552259
0
LINE
8
BLACK
6
CONTINUOUS
10
1.40029
20
0.552259
11
1.40566
21
0.550246
0
LINE
8
BLACK
6
CONTINUOUS
10
1.40566
20
0.550246
11
1.4081
21
0.54998
0
LINE
8
BLACK
6
CONTINUOUS
10
1.4081
20
0.54998
11
1.4719
21
0.54998
0
LINE
8
BLACK
6
CONTINUOUS
10
1.4719
20
0.54998
11
1.47434
21
0.550246
0
LINE
8
BLACK
6
CONTINUOUS
10
1.47434
20
0.550246
11
1.47971
21
0.552259
0
LINE
8
BLACK
6
CONTINUOUS
10
1.47971
20
0.552259
11
1.4843
21
0.555698
0
LINE
8
BLACK
6
CONTINUOUS
10
1.4843
20
0.555698
11
1.48774
21
0.560287
0
LINE
8
BLACK
6
CONTINUOUS
10
1.48774
20
0.560287
11
1.48975
21
0.565657
0
LINE
8
BLACK
6
CONTINUOUS
10
1.48975
20
0.565657
11
1.49002
21
0.568105
0
LINE
8
BLACK
6
CONTINUOUS
10
1.49002
20
0.568105
11
1.49002
21
0.631895
0
LINE
8
BLACK
6
CONTINUOUS
10
1.49002
20
0.631895
11
1.48975
21
0.634343
0
LINE
8
BLACK
6
CONTINUOUS
10
1.48975
20
0.634343
11
1.48774
21
0.639713
0
LINE
8
BLACK
6
CONTINUOUS
10
1.48774
20
0.639713
11
1.4843
21
0.644302
0
LINE
8
BLACK
6
CONTINUOUS
10
1.4843
20
0.644302
11
1.48199
21
0.64603
0
LINE
8
BLACK
6
CONTINUOUS
10
1.48199
20
0.64603
11
1.48032
21
0.648269
0
LINE
8
BLACK
6
CONTINUOUS
10
1.48032
20
0.648269
11
1.48012
21
0.651057
0
LINE
8
BLACK
6
CONTINUOUS
10
1.48012
20
0.651057
11
1.48146
21
0.65351
0
LINE
8
BLACK
6
CONTINUOUS
10
1.48146
20
0.65351
11
1.48199
21
0.65397
0
LINE
8
BLACK
6
CONTINUOUS
10
1.48199
20
0.65397
11
1.4843
21
0.655698
0
LINE
8
BLACK
6
CONTINUOUS
10
1.4843
20
0.655698
11
1.48774
21
0.660287
0
LINE
8
BLACK
6
CONTINUOUS
10
1.48774
20
0.660287
11
1.48975
21
0.665657
0
LINE
8
BLACK
6
CONTINUOUS
10
1.48975
20
0.665657
11
1.49002
21
0.668105
0
LINE
8
BLACK
6
CONTINUOUS
10
1.49002
20
0.668105
11
1.49002
21
0.731895
0
LINE
8
BLACK
6
CONTINUOUS
10
1.49002
20
0.731895
11
1.48975
21
0.734343
0
LINE
8
BLACK
6
CONTINUOUS
10
1.48975
20
0.734343
11
1.48774
21
0.739713
0
LINE
8
BLACK
6
CONTINUOUS
10
1.48774
20
0.739713
11
1.4843
21
0.744302
0
LINE
8
BLACK
6
CONTINUOUS
10
1.4843
20
0.744302
11
1.47971
21
0.747741
0
LINE
8
BLACK
6
CONTINUOUS
10
1.47971
20
0.747741
11
1.47434
21
0.749754
0
LINE
8
BLACK
6
CONTINUOUS
10
1.47434
20
0.749754
11
1.4719
21
0.75002
0
LINE
8
BLACK
6
CONTINUOUS
10
1.4719
20
0.75002
11
1.4081
21
0.75002
0
LINE
8
BLACK
6
CONTINUOUS
10
1.4081
20
0.75002
11
1.40566
21
0.749754
0
LINE
8
BLACK
6
CONTINUOUS
10
1.40566
20
0.749754
11
1.40029
21
0.747741
0
LINE
8
BLACK
6
CONTINUOUS
10
1.40029
20
0.747741
11
1.3957
21
0.744302
0
LINE
8
BLACK
6
CONTINUOUS
10
1.3957
20
0.744302
11
1.39549
21
0.744019
0
LINE
8
BLACK
6
CONTINUOUS
10
1.39549
20
0.744019
11
1.39397
21
0.741995
0
LINE
8
BLACK
6
CONTINUOUS
10
1.39397
20
0.741995
11
1.39173
21
0.740321
0
LINE
8
BLACK
6
CONTINUOUS
10
1.39173
20
0.740321
11
1.38894
21
0.740123
0
LINE
8
BLACK
6
CONTINUOUS
10
1.38894
20
0.740123
11
1.38649
21
0.741464
0
LINE
8
BLACK
6
CONTINUOUS
10
1.38649
20
0.741464
11
1.38603
21
0.741995
0
LINE
8
BLACK
6
CONTINUOUS
10
1.38603
20
0.741995
11
1.38451
21
0.744019
0
LINE
8
BLACK
6
CONTINUOUS
10
1.38451
20
0.744019
11
1.3843
21
0.744302
0
LINE
8
BLACK
6
CONTINUOUS
10
1.3843
20
0.744302
11
1.37971
21
0.747741
0
LINE
8
BLACK
6
CONTINUOUS
10
1.37971
20
0.747741
11
1.37434
21
0.749754
0
LINE
8
BLACK
6
CONTINUOUS
10
1.37434
20
0.749754
11
1.3719
21
0.75002
0
LINE
8
BLACK
6
CONTINUOUS
10
1.3719
20
0.75002
11
1.3081
21
0.75002
0
LINE
8
BLACK
6
CONTINUOUS
10
1.3081
20
0.75002
11
1.30566
21
0.749754
0
LINE
8
BLACK
6
CONTINUOUS
10
1.30566
20
0.749754
11
1.30029
21
0.747741
0
LINE
8
BLACK
6
CONTINUOUS
10
1.30029
20
0.747741
11
1.2957
21
0.744302
0
LINE
8
BLACK
6
CONTINUOUS
10
1.2957
20
0.744302
11
1.29226
21
0.739713
0
LINE
8
BLACK
6
CONTINUOUS
10
1.29226
20
0.739713
11
1.29025
21
0.734343
0
LINE
8
BLACK
6
CONTINUOUS
10
1.29025
20
0.734343
11
1.29021
21
0.734034
0
LINE
8
BLACK
6
CONTINUOUS
10
1.29021
20
0.734034
11
1.29013
21
0.733303
0
LINE
8
BLACK
6
CONTINUOUS
10
1.29013
20
0.733303
11
1.28906
21
0.730722
0
LINE
8
BLACK
6
CONTINUOUS
10
1.28906
20
0.730722
11
1.28676
21
0.72913
0
LINE
8
BLACK
6
CONTINUOUS
10
1.28676
20
0.72913
11
1.2852
21
0.728878
0
LINE
8
BLACK
6
CONTINUOUS
10
1.2852
20
0.728878
11
1.10272
21
0.728878
0
LINE
8
BLACK
6
CONTINUOUS
10
1.10272
20
0.728878
11
1.10003
21
0.729665
0
LINE
8
BLACK
6
CONTINUOUS
10
1.10003
20
0.729665
11
1.0998
21
0.729825
0
LINE
8
BLACK
6
CONTINUOUS
10
1.0998
20
0.729825
11
1.09819
21
0.730994
0
LINE
8
BLACK
6
CONTINUOUS
10
1.09819
20
0.730994
11
1.09819
21
0.730994
0
LINE
8
BLACK
6
CONTINUOUS
10
1.09819
20
0.730994
11
1.09798
21
0.731146
0
LINE
8
BLACK
6
CONTINUOUS
10
1.09798
20
0.731146
11
1.09775
21
0.731252
0
LINE
8
BLACK
6
CONTINUOUS
10
1.09775
20
0.731252
11
1.09774
21
0.731252
0
LINE
8
BLACK
6
CONTINUOUS
10
1.09774
20
0.731252
11
1.09351
21
0.733139
0
LINE
8
BLACK
6
CONTINUOUS
10
1.09351
20
0.733139
11
1.09138
21
0.734949
0
LINE
8
BLACK
6
CONTINUOUS
10
1.09138
20
0.734949
11
1.09056
21
0.737623
0
LINE
8
BLACK
6
CONTINUOUS
10
1.09056
20
0.737623
11
1.09133
21
0.740312
0
LINE
8
BLACK
6
CONTINUOUS
10
1.09133
20
0.740312
11
1.09202
21
0.741178
0
LINE
8
BLACK
6
CONTINUOUS
10
1.09202
20
0.741178
11
1.18861
21
0.837766
0
LINE
8
BLACK
6
CONTINUOUS
10
1.18861
20
0.837766
11
1.18917
21
0.838254
0
LINE
8
BLACK
6
CONTINUOUS
10
1.18917
20
0.838254
11
1.1896
21
0.838565
0
LINE
8
BLACK
6
CONTINUOUS
10
1.1896
20
0.838565
11
1.18983
21
0.838736
0
LINE
8
BLACK
6
CONTINUOUS
10
1.18983
20
0.838736
11
1.19113
21
0.840265
0
LINE
8
BLACK
6
CONTINUOUS
10
1.19113
20
0.840265
11
1.1914
21
0.84056
0
LINE
8
BLACK
6
CONTINUOUS
10
1.1914
20
0.84056
11
1.19161
21
0.840772
0
LINE
8
BLACK
6
CONTINUOUS
10
1.19161
20
0.840772
11
1.1917
21
0.840886
0
LINE
8
BLACK
6
CONTINUOUS
10
1.1917
20
0.840886
11
1.19228
21
0.841618
0
LINE
8
BLACK
6
CONTINUOUS
10
1.19228
20
0.841618
11
1.19239
21
0.841751
0
LINE
8
BLACK
6
CONTINUOUS
10
1.19239
20
0.841751
11
1.19419
21
0.843868
0
LINE
8
BLACK
6
CONTINUOUS
10
1.19419
20
0.843868
11
1.19432
21
0.844125
0
LINE
8
BLACK
6
CONTINUOUS
10
1.19432
20
0.844125
11
1.19444
21
0.844308
0
LINE
8
BLACK
6
CONTINUOUS
10
1.19444
20
0.844308
11
1.19456
21
0.844496
0
LINE
8
BLACK
6
CONTINUOUS
10
1.19456
20
0.844496
11
1.19474
21
0.844722
0
LINE
8
BLACK
6
CONTINUOUS
10
1.19474
20
0.844722
11
1.19591
21
0.847237
0
LINE
8
BLACK
6
CONTINUOUS
10
1.19591
20
0.847237
11
1.19599
21
0.847392
0
LINE
8
BLACK
6
CONTINUOUS
10
1.19599
20
0.847392
11
1.19712
21
0.849609
0
LINE
8
BLACK
6
CONTINUOUS
10
1.19712
20
0.849609
11
1.19725
21
0.849865
0
LINE
8
BLACK
6
CONTINUOUS
10
1.19725
20
0.849865
11
1.19732
21
0.850145
0
LINE
8
BLACK
6
CONTINUOUS
10
1.19732
20
0.850145
11
1.1974
21
0.850352
0
LINE
8
BLACK
6
CONTINUOUS
10
1.1974
20
0.850352
11
1.19747
21
0.850562
0
LINE
8
BLACK
6
CONTINUOUS
10
1.19747
20
0.850562
11
1.19759
21
0.850823
0
LINE
8
BLACK
6
CONTINUOUS
10
1.19759
20
0.850823
11
1.19815
21
0.853541
0
LINE
8
BLACK
6
CONTINUOUS
10
1.19815
20
0.853541
11
1.19819
21
0.85371
0
LINE
8
BLACK
6
CONTINUOUS
10
1.19819
20
0.85371
11
1.1988
21
0.856192
0
LINE
8
BLACK
6
CONTINUOUS
10
1.1988
20
0.856192
11
1.19885
21
0.856406
0
LINE
8
BLACK
6
CONTINUOUS
10
1.19885
20
0.856406
11
1.19888
21
0.856831
0
LINE
8
BLACK
6
CONTINUOUS
10
1.19888
20
0.856831
11
1.19888
21
0.856831
0
LINE
8
BLACK
6
CONTINUOUS
10
1.19888
20
0.856831
11
1.19889
21
0.857005
0
LINE
8
BLACK
6
CONTINUOUS
10
1.19889
20
0.857005
11
1.1989
21
0.857133
0
LINE
8
BLACK
6
CONTINUOUS
10
1.1989
20
0.857133
11
1.19896
21
0.857415
0
LINE
8
BLACK
6
CONTINUOUS
10
1.19896
20
0.857415
11
1.19888
21
0.860359
0
LINE
8
BLACK
6
CONTINUOUS
10
1.19888
20
0.860359
11
1.19888
21
0.860493
0
LINE
8
BLACK
6
CONTINUOUS
10
1.19888
20
0.860493
11
1.19888
21
0.965202
0
LINE
8
BLACK
6
CONTINUOUS
10
1.19888
20
0.965202
11
1.19967
21
0.967884
0
LINE
8
BLACK
6
CONTINUOUS
10
1.19967
20
0.967884
11
1.20178
21
0.969714
0
LINE
8
BLACK
6
CONTINUOUS
10
1.20178
20
0.969714
11
1.2033
21
0.970133
0
LINE
8
BLACK
6
CONTINUOUS
10
1.2033
20
0.970133
11
1.20364
21
0.97017
0
LINE
8
BLACK
6
CONTINUOUS
10
1.20364
20
0.97017
11
1.20434
21
0.970246
0
LINE
8
BLACK
6
CONTINUOUS
10
1.20434
20
0.970246
11
1.20971
21
0.972259
0
LINE
8
BLACK
6
CONTINUOUS
10
1.20971
20
0.972259
11
1.2143
21
0.975698
0
LINE
8
BLACK
6
CONTINUOUS
10
1.2143
20
0.975698
11
1.21774
21
0.980287
0
LINE
8
BLACK
6
CONTINUOUS
10
1.21774
20
0.980287
11
1.21975
21
0.985657
0
LINE
8
BLACK
6
CONTINUOUS
10
1.21975
20
0.985657
11
1.22002
21
0.988105
0
LINE
8
BLACK
6
CONTINUOUS
10
1.22002
20
0.988105
11
1.22002
21
1.0519
0
LINE
8
BLACK
6
CONTINUOUS
10
1.22002
20
1.0519
11
1.21975
21
1.05434
0
LINE
8
BLACK
6
CONTINUOUS
10
1.21975
20
1.05434
11
1.21774
21
1.05971
0
LINE
8
BLACK
6
CONTINUOUS
10
1.21774
20
1.05971
11
1.2143
21
1.0643
0
LINE
8
BLACK
6
CONTINUOUS
10
1.2143
20
1.0643
11
1.21199
21
1.06603
0
LINE
8
BLACK
6
CONTINUOUS
10
1.21199
20
1.06603
11
1.21032
21
1.06827
0
LINE
8
BLACK
6
CONTINUOUS
10
1.21032
20
1.06827
11
1.21012
21
1.07106
0
LINE
8
BLACK
6
CONTINUOUS
10
1.21012
20
1.07106
11
1.21146
21
1.07351
0
LINE
8
BLACK
6
CONTINUOUS
10
1.21146
20
1.07351
11
1.21199
21
1.07397
0
LINE
8
BLACK
6
CONTINUOUS
10
1.21199
20
1.07397
11
1.21402
21
1.07549
0
LINE
8
BLACK
6
CONTINUOUS
10
1.21402
20
1.07549
11
1.2143
21
1.0757
0
LINE
8
BLACK
6
CONTINUOUS
10
1.2143
20
1.0757
11
1.21774
21
1.08029
0
LINE
8
BLACK
6
CONTINUOUS
10
1.21774
20
1.08029
11
1.21975
21
1.08566
0
LINE
8
BLACK
6
CONTINUOUS
10
1.21975
20
1.08566
11
1.22002
21
1.0881
0
LINE
8
BLACK
6
CONTINUOUS
10
1.22002
20
1.0881
11
1.22002
21
1.1519
0
LINE
8
BLACK
6
CONTINUOUS
10
1.22002
20
1.1519
11
1.21975
21
1.15434
0
LINE
8
BLACK
6
CONTINUOUS
10
1.21975
20
1.15434
11
1.21774
21
1.15971
0
LINE
8
BLACK
6
CONTINUOUS
10
1.21774
20
1.15971
11
1.21599
21
1.16204
0
LINE
8
BLACK
6
CONTINUOUS
10
1.21599
20
1.16204
11
1.21501
21
1.16466
0
LINE
8
BLACK
6
CONTINUOUS
10
1.21501
20
1.16466
11
1.21561
21
1.16739
0
LINE
8
BLACK
6
CONTINUOUS
10
1.21561
20
1.16739
11
1.21758
21
1.16937
0
LINE
8
BLACK
6
CONTINUOUS
10
1.21758
20
1.16937
11
1.21996
21
1.16998
0
LINE
8
BLACK
6
CONTINUOUS
10
1.21996
20
1.16998
11
1.56502
21
1.16998
0
LINE
8
BLACK
6
CONTINUOUS
10
1.56502
20
1.16998
11
1.5677
21
1.16919
0
LINE
8
BLACK
6
CONTINUOUS
10
1.5677
20
1.16919
11
1.56953
21
1.16708
0
LINE
8
BLACK
6
CONTINUOUS
10
1.56953
20
1.16708
11
1.56998
21
1.16502
0
LINE
8
BLACK
6
CONTINUOUS
10
1.56998
20
1.16502
11
1.56998
21
0.0349803
0
LINE
8
BLACK
6
CONTINUOUS
10
1.56998
20
0.0349803
11
1.56919
21
0.0322984
0
LINE
8
BLACK
6
CONTINUOUS
10
1.56919
20
0.0322984
11
1.56708
21
0.030468
0
LINE
8
BLACK
6
CONTINUOUS
10
1.56708
20
0.030468
11
1.56502
21
0.0300197
0
LINE
8
BLACK
6
CONTINUOUS
10
1.56502
20
0.0300197
11
0.384961
21
0.0300197
0
LINE
8
BLACK
6
CONTINUOUS
10
0.384961
20
0.0300197
11
0.382279
21
0.0308072
0
LINE
8
BLACK
6
CONTINUOUS
10
0.382279
20
0.0308072
11
0.380448
21
0.0329196
0
LINE
8
BLACK
6
CONTINUOUS
10
0.380448
20
0.0329196
11
0.38
21
0.0349803
0
LINE
8
BLACK
6
CONTINUOUS
10
0.38
20
0.0349803
11
0.38
21
0.486934
0
LINE
8
BLACK
6
CONTINUOUS
10
0.38
20
0.486934
11
0.380787
21
0.489616
0
LINE
8
BLACK
6
CONTINUOUS
10
0.380787
20
0.489616
11
0.382742
21
0.491371
0
LINE
8
BLACK
6
CONTINUOUS
10
0.382742
20
0.491371
11
0.479362
21
0.539681
0
LINE
8
BLACK
6
CONTINUOUS
10
0.479362
20
0.539681
11
0.48
21
0.54
0
LINE
8
BLACK
6
CONTINUOUS
10
0.48
20
0.54
11
0.48
21
0.69
0
LINE
8
BLACK
6
CONTINUOUS
10
0.48
20
0.69
11
0.382742
21
0.738629
0
LINE
8
BLACK
6
CONTINUOUS
10
0.382742
20
0.738629
11
0.380696
21
0.740533
0
LINE
8
BLACK
6
CONTINUOUS
10
0.380696
20
0.740533
11
0.38
21
0.743066
0
LINE
8
BLACK
6
CONTINUOUS
10
0.38
20
0.743066
11
0.38
21
1.16502
0
LINE
8
BLACK
6
CONTINUOUS
10
0.38
20
1.16502
11
0.380787
21
1.1677
0
LINE
8
BLACK
6
CONTINUOUS
10
0.380787
20
1.1677
11
0.3829
21
1.16953
0
LINE
8
BLACK
6
CONTINUOUS
10
0.3829
20
1.16953
11
0.384961
21
1.16998
0
LINE
8
BLACK
6
CONTINUOUS
10
0.384961
20
1.16998
11
0.541734
21
1.16998
0
LINE
8
BLACK
6
CONTINUOUS
10
0.541734
20
1.16998
11
0.544416
21
1.16919
0
LINE
8
BLACK
6
CONTINUOUS
10
0.544416
20
1.16919
11
0.546247
21
1.16708
0
LINE
8
BLACK
6
CONTINUOUS
10
0.546247
20
1.16708
11
0.546644
21
1.16431
0
LINE
8
BLACK
6
CONTINUOUS
10
0.546644
20
1.16431
11
0.545704
21
1.16204
0
LINE
8
BLACK
6
CONTINUOUS
10
0.545704
20
1.16204
11
0.542489
21
1.15775
0
LINE
8
BLACK
6
CONTINUOUS
10
0.542489
20
1.15775
11
0.542153
21
1.15714
0
LINE
8
BLACK
6
CONTINUOUS
10
0.542153
20
1.15714
11
0.540375
21
1.1524
0
LINE
8
BLACK
6
CONTINUOUS
10
0.540375
20
1.1524
11
0.540232
21
1.1518
0
LINE
8
BLACK
6
CONTINUOUS
10
0.540232
20
1.1518
11
0.540015
21
1.1498
0
LINE
8
BLACK
6
CONTINUOUS
10
0.540015
20
1.1498
11
0.54
21
1.14953
0
LINE
8
BLACK
6
CONTINUOUS
10
0.54
20
1.14953
11
0.54
21
1.12848
0
LINE
8
BLACK
6
CONTINUOUS
10
0.54
20
1.12848
11
0.540176
21
1.12788
0
LINE
8
BLACK
6
CONTINUOUS
10
0.540176
20
1.12788
11
0.540231
21
1.12783
0
LINE
8
BLACK
6
CONTINUOUS
10
0.540231
20
1.12783
11
0.540533
21
1.12777
0
LINE
8
BLACK
6
CONTINUOUS
10
0.540533
20
1.12777
11
0.56
21
1.12777
0
LINE
8
BLACK
6
CONTINUOUS
10
0.56
20
1.12777
11
0.56
21
1.14777
0
LINE
8
BLACK
6
CONTINUOUS
10
0.56
20
1.14777
11
0.62
21
1.14777
0
LINE
8
BLACK
6
CONTINUOUS
10
0.62
20
1.14777
11
0.62
21
1.08777
0
LINE
8
BLACK
6
CONTINUOUS
10
0.62
20
1.08777
11
0.6
21
1.08777
0
LINE
8
BLACK
6
CONTINUOUS
10
0.6
20
1.08777
11
0.6
21
1.04777
0
LINE
8
BLACK
6
CONTINUOUS
10
0.6
20
1.04777
11
0.62
21
1.04777
0
LINE
8
BLACK
6
CONTINUOUS
10
0.62
20
1.04777
11
0.62
21
0.987769
0
LINE
8
BLACK
6
CONTINUOUS
10
0.62
20
0.987769
11
0.6
21
0.987769
0
LINE
8
BLACK
6
CONTINUOUS
10
0.6
20
0.987769
11
0.6
21
0.968482
0
LINE
8
BLACK
6
CONTINUOUS
10
0.6
20
0.968482
11
0.600176
21
0.967882
0
LINE
8
BLACK
6
CONTINUOUS
10
0.600176
20
0.967882
11
0.600231
21
0.967835
0
LINE
8
BLACK
6
CONTINUOUS
10
0.600231
20
0.967835
11
0.600533
21
0.967769
0
LINE
8
BLACK
6
CONTINUOUS
10
0.600533
20
0.967769
11
0.621759
21
0.967769
0
LINE
8
BLACK
6
CONTINUOUS
10
0.621759
20
0.967769
11
0.622027
21
0.967783
0
LINE
8
BLACK
6
CONTINUOUS
10
0.622027
20
0.967783
11
0.62403
21
0.968001
0
LINE
8
BLACK
6
CONTINUOUS
10
0.62403
20
0.968001
11
0.62463
21
0.968144
0
LINE
8
BLACK
6
CONTINUOUS
10
0.62463
20
0.968144
11
0.629372
21
0.969921
0
LINE
8
BLACK
6
CONTINUOUS
10
0.629372
20
0.969921
11
0.629986
21
0.970258
0
LINE
8
BLACK
6
CONTINUOUS
10
0.629986
20
0.970258
11
0.634005
21
0.973269
0
LINE
8
BLACK
6
CONTINUOUS
10
0.634005
20
0.973269
11
0.634499
21
0.973764
0
LINE
8
BLACK
6
CONTINUOUS
10
0.634499
20
0.973764
11
0.636018
21
0.97579
0
LINE
8
BLACK
6
CONTINUOUS
10
0.636018
20
0.97579
11
0.638257
21
0.977464
0
LINE
8
BLACK
6
CONTINUOUS
10
0.638257
20
0.977464
11
0.641045
21
0.977662
0
LINE
8
BLACK
6
CONTINUOUS
10
0.641045
20
0.977662
11
0.643497
21
0.976321
0
LINE
8
BLACK
6
CONTINUOUS
10
0.643497
20
0.976321
11
0.643957
21
0.975791
0
LINE
8
BLACK
6
CONTINUOUS
10
0.643957
20
0.975791
11
0.645698
21
0.973467
0
LINE
8
BLACK
6
CONTINUOUS
10
0.645698
20
0.973467
11
0.650287
21
0.970028
0
LINE
8
BLACK
6
CONTINUOUS
10
0.650287
20
0.970028
11
0.655657
21
0.968015
0
LINE
8
BLACK
6
CONTINUOUS
10
0.655657
20
0.968015
11
0.658105
21
0.967749
0
LINE
8
BLACK
6
CONTINUOUS
10
0.658105
20
0.967749
11
0.721895
21
0.967749
0
LINE
8
BLACK
6
CONTINUOUS
10
0.721895
20
0.967749
11
0.724343
21
0.968015
0
LINE
8
BLACK
6
CONTINUOUS
10
0.724343
20
0.968015
11
0.729713
21
0.970028
0
LINE
8
BLACK
6
CONTINUOUS
10
0.729713
20
0.970028
11
0.734302
21
0.973467
0
LINE
8
BLACK
6
CONTINUOUS
10
0.734302
20
0.973467
11
0.73603
21
0.975774
0
LINE
8
BLACK
6
CONTINUOUS
10
0.73603
20
0.975774
11
0.738269
21
0.977448
0
LINE
8
BLACK
6
CONTINUOUS
10
0.738269
20
0.977448
11
0.741057
21
0.977646
0
LINE
8
BLACK
6
CONTINUOUS
10
0.741057
20
0.977646
11
0.74351
21
0.976305
0
LINE
8
BLACK
6
CONTINUOUS
10
0.74351
20
0.976305
11
0.743969
21
0.975774
0
LINE
8
BLACK
6
CONTINUOUS
10
0.743969
20
0.975774
11
0.745698
21
0.973467
0
LINE
8
BLACK
6
CONTINUOUS
10
0.745698
20
0.973467
11
0.750287
21
0.970028
0
LINE
8
BLACK
6
CONTINUOUS
10
0.750287
20
0.970028
11
0.750618
21
0.969904
0
LINE
8
BLACK
6
CONTINUOUS
10
0.750618
20
0.969904
11
0.750618
21
0.969904
0
LINE
8
BLACK
6
CONTINUOUS
10
0.750618
20
0.969904
11
0.752981
21
0.969018
0
LINE
8
BLACK
6
CONTINUOUS
10
0.752981
20
0.969018
11
0.755216
21
0.967339
0
LINE
8
BLACK
6
CONTINUOUS
10
0.755216
20
0.967339
11
0.756189
21
0.964719
0
LINE
8
BLACK
6
CONTINUOUS
10
0.756189
20
0.964719
11
0.756201
21
0.964373
0
LINE
8
BLACK
6
CONTINUOUS
10
0.756201
20
0.964373
11
0.756201
21
0.813839
0
LINE
8
BLACK
6
CONTINUOUS
10
0.756201
20
0.813839
11
0.755413
21
0.811157
0
LINE
8
BLACK
6
CONTINUOUS
10
0.755413
20
0.811157
11
0.753301
21
0.809326
0
LINE
8
BLACK
6
CONTINUOUS
10
0.753301
20
0.809326
11
0.75124
21
0.808878
0
LINE
8
BLACK
6
CONTINUOUS
10
0.75124
20
0.808878
11
0.692716
21
0.808878
0
LINE
8
BLACK
6
CONTINUOUS
10
0.692716
20
0.808878
11
0.690034
21
0.809665
0
LINE
8
BLACK
6
CONTINUOUS
10
0.690034
20
0.809665
11
0.689801
21
0.809825
0
LINE
8
BLACK
6
CONTINUOUS
10
0.689801
20
0.809825
11
0.688193
21
0.810994
0
LINE
8
BLACK
6
CONTINUOUS
10
0.688193
20
0.810994
11
0.688193
21
0.810994
0
LINE
8
BLACK
6
CONTINUOUS
10
0.688193
20
0.810994
11
0.687982
21
0.811146
0
LINE
8
BLACK
6
CONTINUOUS
10
0.687982
20
0.811146
11
0.687745
21
0.811252
0
LINE
8
BLACK
6
CONTINUOUS
10
0.687745
20
0.811252
11
0.687745
21
0.811252
0
LINE
8
BLACK
6
CONTINUOUS
10
0.687745
20
0.811252
11
0.681351
21
0.814099
0
LINE
8
BLACK
6
CONTINUOUS
10
0.681351
20
0.814099
11
0.681351
21
0.814099
0
LINE
8
BLACK
6
CONTINUOUS
10
0.681351
20
0.814099
11
0.681114
21
0.814204
0
LINE
8
BLACK
6
CONTINUOUS
10
0.681114
20
0.814204
11
0.677437
21
0.814986
0
LINE
8
BLACK
6
CONTINUOUS
10
0.677437
20
0.814986
11
0.674014
21
0.815714
0
LINE
8
BLACK
6
CONTINUOUS
10
0.674014
20
0.815714
11
0.674013
21
0.815714
0
LINE
8
BLACK
6
CONTINUOUS
10
0.674013
20
0.815714
11
0.673759
21
0.815768
0
LINE
8
BLACK
6
CONTINUOUS
10
0.673759
20
0.815768
11
0.666241
21
0.815768
0
LINE
8
BLACK
6
CONTINUOUS
10
0.666241
20
0.815768
11
0.665987
21
0.815714
0
LINE
8
BLACK
6
CONTINUOUS
10
0.665987
20
0.815714
11
0.665986
21
0.815714
0
LINE
8
BLACK
6
CONTINUOUS
10
0.665986
20
0.815714
11
0.662564
21
0.814986
0
LINE
8
BLACK
6
CONTINUOUS
10
0.662564
20
0.814986
11
0.658886
21
0.814204
0
LINE
8
BLACK
6
CONTINUOUS
10
0.658886
20
0.814204
11
0.658649
21
0.814099
0
LINE
8
BLACK
6
CONTINUOUS
10
0.658649
20
0.814099
11
0.658649
21
0.814099
0
LINE
8
BLACK
6
CONTINUOUS
10
0.658649
20
0.814099
11
0.652255
21
0.811252
0
LINE
8
BLACK
6
CONTINUOUS
10
0.652255
20
0.811252
11
0.652255
21
0.811252
0
LINE
8
BLACK
6
CONTINUOUS
10
0.652255
20
0.811252
11
0.652018
21
0.811146
0
LINE
8
BLACK
6
CONTINUOUS
10
0.652018
20
0.811146
11
0.651807
21
0.810994
0
LINE
8
BLACK
6
CONTINUOUS
10
0.651807
20
0.810994
11
0.651807
21
0.810994
0
LINE
8
BLACK
6
CONTINUOUS
10
0.651807
20
0.810994
11
0.650199
21
0.809825
0
LINE
8
BLACK
6
CONTINUOUS
10
0.650199
20
0.809825
11
0.647567
21
0.808886
0
LINE
8
BLACK
6
CONTINUOUS
10
0.647567
20
0.808886
11
0.647284
21
0.808878
0
LINE
8
BLACK
6
CONTINUOUS
10
0.647284
20
0.808878
11
0.622566
21
0.808878
0
LINE
8
BLACK
6
CONTINUOUS
10
0.622566
20
0.808878
11
0.62182
21
0.808934
0
LINE
8
BLACK
6
CONTINUOUS
10
0.62182
20
0.808934
11
0.621299
21
0.809014
0
LINE
8
BLACK
6
CONTINUOUS
10
0.621299
20
0.809014
11
0.621299
21
0.809014
0
LINE
8
BLACK
6
CONTINUOUS
10
0.621299
20
0.809014
11
0.621015
21
0.809057
0
LINE
8
BLACK
6
CONTINUOUS
10
0.621015
20
0.809057
11
0.620728
21
0.809033
0
LINE
8
BLACK
6
CONTINUOUS
10
0.620728
20
0.809033
11
0.620727
21
0.809033
0
LINE
8
BLACK
6
CONTINUOUS
10
0.620727
20
0.809033
11
0.619016
21
0.808894
0
LINE
8
BLACK
6
CONTINUOUS
10
0.619016
20
0.808894
11
0.618614
21
0.808878
0
LINE
8
BLACK
6
CONTINUOUS
10
0.618614
20
0.808878
11
0.618314
21
0.808878
0
LINE
8
BLACK
6
CONTINUOUS
10
0.618314
20
0.808878
11
0.618171
21
0.808861
0
LINE
8
BLACK
6
CONTINUOUS
10
0.618171
20
0.808861
11
0.618171
21
0.808861
0
LINE
8
BLACK
6
CONTINUOUS
10
0.618171
20
0.808861
11
0.617679
21
0.808804
0
LINE
8
BLACK
6
CONTINUOUS
10
0.617679
20
0.808804
11
0.617242
21
0.808753
0
LINE
8
BLACK
6
CONTINUOUS
10
0.617242
20
0.808753
11
0.617071
21
0.808736
0
LINE
8
BLACK
6
CONTINUOUS
10
0.617071
20
0.808736
11
0.614303
21
0.808511
0
LINE
8
BLACK
6
CONTINUOUS
10
0.614303
20
0.808511
11
0.614029
21
0.808422
0
LINE
8
BLACK
6
CONTINUOUS
10
0.614029
20
0.808422
11
0.613812
21
0.808379
0
LINE
8
BLACK
6
CONTINUOUS
10
0.613812
20
0.808379
11
0.613598
21
0.808328
0
LINE
8
BLACK
6
CONTINUOUS
10
0.613598
20
0.808328
11
0.613311
21
0.808295
0
LINE
8
BLACK
6
CONTINUOUS
10
0.613311
20
0.808295
11
0.610701
21
0.807347
0
LINE
8
BLACK
6
CONTINUOUS
10
0.610701
20
0.807347
11
0.610538
21
0.807291
0
LINE
8
BLACK
6
CONTINUOUS
10
0.610538
20
0.807291
11
0.60976
21
0.807039
0
LINE
8
BLACK
6
CONTINUOUS
10
0.60976
20
0.807039
11
0.608171
21
0.806524
0
LINE
8
BLACK
6
CONTINUOUS
10
0.608171
20
0.806524
11
0.608171
21
0.806524
0
LINE
8
BLACK
6
CONTINUOUS
10
0.608171
20
0.806524
11
0.607897
21
0.806436
0
LINE
8
BLACK
6
CONTINUOUS
10
0.607897
20
0.806436
11
0.607651
21
0.806286
0
LINE
8
BLACK
6
CONTINUOUS
10
0.607651
20
0.806286
11
0.607449
21
0.806194
0
LINE
8
BLACK
6
CONTINUOUS
10
0.607449
20
0.806194
11
0.607252
21
0.806095
0
LINE
8
BLACK
6
CONTINUOUS
10
0.607252
20
0.806095
11
0.606982
21
0.805997
0
LINE
8
BLACK
6
CONTINUOUS
10
0.606982
20
0.805997
11
0.606741
21
0.805839
0
LINE
8
BLACK
6
CONTINUOUS
10
0.606741
20
0.805839
11
0.606741
21
0.805839
0
LINE
8
BLACK
6
CONTINUOUS
10
0.606741
20
0.805839
11
0.604659
21
0.804474
0
LINE
8
BLACK
6
CONTINUOUS
10
0.604659
20
0.804474
11
0.604512
21
0.804382
0
LINE
8
BLACK
6
CONTINUOUS
10
0.604512
20
0.804382
11
0.60214
21
0.802942
0
LINE
8
BLACK
6
CONTINUOUS
10
0.60214
20
0.802942
11
0.601821
21
0.80266
0
LINE
8
BLACK
6
CONTINUOUS
10
0.601821
20
0.80266
11
0.60182
21
0.802661
0
LINE
8
BLACK
6
CONTINUOUS
10
0.60182
20
0.802661
11
0.60169
21
0.802546
0
LINE
8
BLACK
6
CONTINUOUS
10
0.60169
20
0.802546
11
0.601591
21
0.802463
0
LINE
8
BLACK
6
CONTINUOUS
10
0.601591
20
0.802463
11
0.60135
21
0.802305
0
LINE
8
BLACK
6
CONTINUOUS
10
0.60135
20
0.802305
11
0.601152
21
0.802096
0
LINE
8
BLACK
6
CONTINUOUS
10
0.601152
20
0.802096
11
0.599323
21
0.800166
0
LINE
8
BLACK
6
CONTINUOUS
10
0.599323
20
0.800166
11
0.59923
21
0.800069
0
LINE
8
BLACK
6
CONTINUOUS
10
0.59923
20
0.800069
11
0.560204
21
0.761043
0
LINE
8
BLACK
6
CONTINUOUS
10
0.560204
20
0.761043
11
0.55775
21
0.759704
0
LINE
8
BLACK
6
CONTINUOUS
10
0.55775
20
0.759704
11
0.557146
21
0.759611
0
LINE
8
BLACK
6
CONTINUOUS
10
0.557146
20
0.759611
11
0.555712
21
0.75948
0
LINE
8
BLACK
6
CONTINUOUS
10
0.555712
20
0.75948
11
0.552766
21
0.759212
0
LINE
8
BLACK
6
CONTINUOUS
10
0.552766
20
0.759212
11
0.552766
21
0.759212
0
LINE
8
BLACK
6
CONTINUOUS
10
0.552766
20
0.759212
11
0.552524
21
0.75919
0
LINE
8
BLACK
6
CONTINUOUS
10
0.552524
20
0.75919
11
0.552292
21
0.759122
0
LINE
8
BLACK
6
CONTINUOUS
10
0.552292
20
0.759122
11
0.552291
21
0.759122
0
LINE
8
BLACK
6
CONTINUOUS
10
0.552291
20
0.759122
11
0.548153
21
0.757904
0
LINE
8
BLACK
6
CONTINUOUS
10
0.548153
20
0.757904
11
0.545054
21
0.756992
0
LINE
8
BLACK
6
CONTINUOUS
10
0.545054
20
0.756992
11
0.544839
21
0.756879
0
LINE
8
BLACK
6
CONTINUOUS
10
0.544839
20
0.756879
11
0.544839
21
0.756879
0
LINE
8
BLACK
6
CONTINUOUS
10
0.544839
20
0.756879
11
0.541266
21
0.755011
0
LINE
8
BLACK
6
CONTINUOUS
10
0.541266
20
0.755011
11
0.538154
21
0.753384
0
LINE
8
BLACK
6
CONTINUOUS
10
0.538154
20
0.753384
11
0.532086
21
0.748505
0
LINE
8
BLACK
6
CONTINUOUS
10
0.532086
20
0.748505
11
0.527081
21
0.74254
0
LINE
8
BLACK
6
CONTINUOUS
10
0.527081
20
0.74254
11
0.526964
21
0.742328
0
LINE
8
BLACK
6
CONTINUOUS
10
0.526964
20
0.742328
11
0.526964
21
0.742328
0
LINE
8
BLACK
6
CONTINUOUS
10
0.526964
20
0.742328
11
0.525526
21
0.739713
0
LINE
8
BLACK
6
CONTINUOUS
10
0.525526
20
0.739713
11
0.523329
21
0.735717
0
LINE
8
BLACK
6
CONTINUOUS
10
0.523329
20
0.735717
11
0.523256
21
0.735486
0
LINE
8
BLACK
6
CONTINUOUS
10
0.523256
20
0.735486
11
0.523256
21
0.735486
0
LINE
8
BLACK
6
CONTINUOUS
10
0.523256
20
0.735486
11
0.52146
21
0.729825
0
LINE
8
BLACK
6
CONTINUOUS
10
0.52146
20
0.729825
11
0.520975
21
0.728295
0
LINE
8
BLACK
6
CONTINUOUS
10
0.520975
20
0.728295
11
0.520107
21
0.720557
0
LINE
8
BLACK
6
CONTINUOUS
10
0.520107
20
0.720557
11
0.520759
21
0.712798
0
LINE
8
BLACK
6
CONTINUOUS
10
0.520759
20
0.712798
11
0.522905
21
0.705313
0
LINE
8
BLACK
6
CONTINUOUS
10
0.522905
20
0.705313
11
0.526464
21
0.698388
0
LINE
8
BLACK
6
CONTINUOUS
10
0.526464
20
0.698388
11
0.531301
21
0.692285
0
LINE
8
BLACK
6
CONTINUOUS
10
0.531301
20
0.692285
11
0.531485
21
0.692128
0
LINE
8
BLACK
6
CONTINUOUS
10
0.531485
20
0.692128
11
0.531485
21
0.692128
0
LINE
8
BLACK
6
CONTINUOUS
10
0.531485
20
0.692128
11
0.534066
21
0.689932
0
LINE
8
BLACK
6
CONTINUOUS
10
0.534066
20
0.689932
11
0.53723
21
0.687239
0
LINE
8
BLACK
6
CONTINUOUS
10
0.53723
20
0.687239
11
0.544027
21
0.68344
0
LINE
8
BLACK
6
CONTINUOUS
10
0.544027
20
0.68344
11
0.551433
21
0.681034
0
LINE
8
BLACK
6
CONTINUOUS
10
0.551433
20
0.681034
11
0.559164
21
0.680112
0
LINE
8
BLACK
6
CONTINUOUS
10
0.559164
20
0.680112
11
0.559406
21
0.68013
0
LINE
8
BLACK
6
CONTINUOUS
10
0.559406
20
0.68013
11
0.559406
21
0.68013
0
LINE
8
BLACK
6
CONTINUOUS
10
0.559406
20
0.68013
11
0.566686
21
0.680691
0
LINE
8
BLACK
6
CONTINUOUS
10
0.566686
20
0.680691
11
0.566686
21
0.680691
0
LINE
8
BLACK
6
CONTINUOUS
10
0.566686
20
0.680691
11
0.566928
21
0.680709
0
LINE
8
BLACK
6
CONTINUOUS
10
0.566928
20
0.680709
11
0.574428
21
0.682803
0
LINE
8
BLACK
6
CONTINUOUS
10
0.574428
20
0.682803
11
0.574644
21
0.682913
0
LINE
8
BLACK
6
CONTINUOUS
10
0.574644
20
0.682913
11
0.574644
21
0.682913
0
LINE
8
BLACK
6
CONTINUOUS
10
0.574644
20
0.682913
11
0.581161
21
0.686205
0
LINE
8
BLACK
6
CONTINUOUS
10
0.581161
20
0.686205
11
0.581161
21
0.686205
0
LINE
8
BLACK
6
CONTINUOUS
10
0.581161
20
0.686205
11
0.581378
21
0.686314
0
LINE
8
BLACK
6
CONTINUOUS
10
0.581378
20
0.686314
11
0.587514
21
0.691108
0
LINE
8
BLACK
6
CONTINUOUS
10
0.587514
20
0.691108
11
0.592601
21
0.697002
0
LINE
8
BLACK
6
CONTINUOUS
10
0.592601
20
0.697002
11
0.596448
21
0.703772
0
LINE
8
BLACK
6
CONTINUOUS
10
0.596448
20
0.703772
11
0.598905
21
0.711161
0
LINE
8
BLACK
6
CONTINUOUS
10
0.598905
20
0.711161
11
0.599691
21
0.717379
0
LINE
8
BLACK
6
CONTINUOUS
10
0.599691
20
0.717379
11
0.600808
21
0.719941
0
LINE
8
BLACK
6
CONTINUOUS
10
0.600808
20
0.719941
11
0.601105
21
0.720265
0
LINE
8
BLACK
6
CONTINUOUS
10
0.601105
20
0.720265
11
0.630509
21
0.749669
0
LINE
8
BLACK
6
CONTINUOUS
10
0.630509
20
0.749669
11
0.632962
21
0.751009
0
LINE
8
BLACK
6
CONTINUOUS
10
0.632962
20
0.751009
11
0.634016
21
0.751122
0
LINE
8
BLACK
6
CONTINUOUS
10
0.634016
20
0.751122
11
0.647284
21
0.751122
0
LINE
8
BLACK
6
CONTINUOUS
10
0.647284
20
0.751122
11
0.649966
21
0.750335
0
LINE
8
BLACK
6
CONTINUOUS
10
0.649966
20
0.750335
11
0.650199
21
0.750175
0
LINE
8
BLACK
6
CONTINUOUS
10
0.650199
20
0.750175
11
0.650413
21
0.75002
0
LINE
8
BLACK
6
CONTINUOUS
10
0.650413
20
0.75002
11
0.652018
21
0.748854
0
LINE
8
BLACK
6
CONTINUOUS
10
0.652018
20
0.748854
11
0.652255
21
0.748748
0
LINE
8
BLACK
6
CONTINUOUS
10
0.652255
20
0.748748
11
0.652255
21
0.748748
0
LINE
8
BLACK
6
CONTINUOUS
10
0.652255
20
0.748748
11
0.654993
21
0.747529
0
LINE
8
BLACK
6
CONTINUOUS
10
0.654993
20
0.747529
11
0.658886
21
0.745796
0
LINE
8
BLACK
6
CONTINUOUS
10
0.658886
20
0.745796
11
0.662563
21
0.745014
0
LINE
8
BLACK
6
CONTINUOUS
10
0.662563
20
0.745014
11
0.665986
21
0.744286
0
LINE
8
BLACK
6
CONTINUOUS
10
0.665986
20
0.744286
11
0.665987
21
0.744286
0
LINE
8
BLACK
6
CONTINUOUS
10
0.665987
20
0.744286
11
0.666241
21
0.744232
0
LINE
8
BLACK
6
CONTINUOUS
10
0.666241
20
0.744232
11
0.673759
21
0.744232
0
LINE
8
BLACK
6
CONTINUOUS
10
0.673759
20
0.744232
11
0.674013
21
0.744286
0
LINE
8
BLACK
6
CONTINUOUS
10
0.674013
20
0.744286
11
0.674014
21
0.744286
0
LINE
8
BLACK
6
CONTINUOUS
10
0.674014
20
0.744286
11
0.677437
21
0.745014
0
LINE
8
BLACK
6
CONTINUOUS
10
0.677437
20
0.745014
11
0.681114
21
0.745796
0
LINE
8
BLACK
6
CONTINUOUS
10
0.681114
20
0.745796
11
0.685007
21
0.747529
0
LINE
8
BLACK
6
CONTINUOUS
10
0.685007
20
0.747529
11
0.687745
21
0.748748
0
LINE
8
BLACK
6
CONTINUOUS
10
0.687745
20
0.748748
11
0.687745
21
0.748748
0
LINE
8
BLACK
6
CONTINUOUS
10
0.687745
20
0.748748
11
0.687982
21
0.748854
0
LINE
8
BLACK
6
CONTINUOUS
10
0.687982
20
0.748854
11
0.689587
21
0.75002
0
LINE
8
BLACK
6
CONTINUOUS
10
0.689587
20
0.75002
11
0.689801
21
0.750175
0
LINE
8
BLACK
6
CONTINUOUS
10
0.689801
20
0.750175
11
0.692433
21
0.751114
0
LINE
8
BLACK
6
CONTINUOUS
10
0.692433
20
0.751114
11
0.692716
21
0.751122
0
LINE
8
BLACK
6
CONTINUOUS
10
0.692716
20
0.751122
11
0.75124
21
0.751122
0
LINE
8
BLACK
6
CONTINUOUS
10
0.75124
20
0.751122
11
0.753922
21
0.750335
0
LINE
8
BLACK
6
CONTINUOUS
10
0.753922
20
0.750335
11
0.755753
21
0.748222
0
LINE
8
BLACK
6
CONTINUOUS
10
0.755753
20
0.748222
11
0.756201
21
0.746161
0
LINE
8
BLACK
6
CONTINUOUS
10
0.756201
20
0.746161
11
0.756201
21
0.656055
0
LINE
8
BLACK
6
CONTINUOUS
10
0.756201
20
0.656055
11
0.755413
21
0.653373
0
LINE
8
BLACK
6
CONTINUOUS
10
0.755413
20
0.653373
11
0.754748
21
0.652547
0
LINE
8
BLACK
6
CONTINUOUS
10
0.754748
20
0.652547
11
0.682843
21
0.580643
0
LINE
8
BLACK
6
CONTINUOUS
10
0.682843
20
0.580643
11
0.682537
21
0.580361
0
LINE
8
BLACK
6
CONTINUOUS
10
0.682537
20
0.580361
11
0.68097
21
0.579037
0
LINE
8
BLACK
6
CONTINUOUS
10
0.68097
20
0.579037
11
0.680807
21
0.578823
0
LINE
8
BLACK
6
CONTINUOUS
10
0.680807
20
0.578823
11
0.680807
21
0.578823
0
LINE
8
BLACK
6
CONTINUOUS
10
0.680807
20
0.578823
11
0.679029
21
0.576498
0
LINE
8
BLACK
6
CONTINUOUS
10
0.679029
20
0.576498
11
0.678954
21
0.576402
0
LINE
8
BLACK
6
CONTINUOUS
10
0.678954
20
0.576402
11
0.676948
21
0.573908
0
LINE
8
BLACK
6
CONTINUOUS
10
0.676948
20
0.573908
11
0.676829
21
0.573667
0
LINE
8
BLACK
6
CONTINUOUS
10
0.676829
20
0.573667
11
0.676759
21
0.573557
0
LINE
8
BLACK
6
CONTINUOUS
10
0.676759
20
0.573557
11
0.676749
21
0.573543
0
LINE
8
BLACK
6
CONTINUOUS
10
0.676749
20
0.573543
11
0.676741
21
0.573528
0
LINE
8
BLACK
6
CONTINUOUS
10
0.676741
20
0.573528
11
0.676672
21
0.573416
0
LINE
8
BLACK
6
CONTINUOUS
10
0.676672
20
0.573416
11
0.676509
21
0.573203
0
LINE
8
BLACK
6
CONTINUOUS
10
0.676509
20
0.573203
11
0.675633
21
0.571322
0
LINE
8
BLACK
6
CONTINUOUS
10
0.675633
20
0.571322
11
0.675158
21
0.570305
0
LINE
8
BLACK
6
CONTINUOUS
10
0.675158
20
0.570305
11
0.675106
21
0.570196
0
LINE
8
BLACK
6
CONTINUOUS
10
0.675106
20
0.570196
11
0.673683
21
0.56733
0
LINE
8
BLACK
6
CONTINUOUS
10
0.673683
20
0.56733
11
0.673618
21
0.56707
0
LINE
8
BLACK
6
CONTINUOUS
10
0.673618
20
0.56707
11
0.673573
21
0.566946
0
LINE
8
BLACK
6
CONTINUOUS
10
0.673573
20
0.566946
11
0.673566
21
0.566931
0
LINE
8
BLACK
6
CONTINUOUS
10
0.673566
20
0.566931
11
0.673562
21
0.566915
0
LINE
8
BLACK
6
CONTINUOUS
10
0.673562
20
0.566915
11
0.673519
21
0.56679
0
LINE
8
BLACK
6
CONTINUOUS
10
0.673519
20
0.56679
11
0.673406
21
0.566547
0
LINE
8
BLACK
6
CONTINUOUS
10
0.673406
20
0.566547
11
0.673142
21
0.565366
0
LINE
8
BLACK
6
CONTINUOUS
10
0.673142
20
0.565366
11
0.672708
21
0.563425
0
LINE
8
BLACK
6
CONTINUOUS
10
0.672708
20
0.563425
11
0.67268
21
0.563307
0
LINE
8
BLACK
6
CONTINUOUS
10
0.67268
20
0.563307
11
0.671907
21
0.560205
0
LINE
8
BLACK
6
CONTINUOUS
10
0.671907
20
0.560205
11
0.671899
21
0.559936
0
LINE
8
BLACK
6
CONTINUOUS
10
0.671899
20
0.559936
11
0.671881
21
0.559806
0
LINE
8
BLACK
6
CONTINUOUS
10
0.671881
20
0.559806
11
0.671875
21
0.559771
0
LINE
8
BLACK
6
CONTINUOUS
10
0.671875
20
0.559771
11
0.671848
21
0.559579
0
LINE
8
BLACK
6
CONTINUOUS
10
0.671848
20
0.559579
11
0.671804
21
0.55938
0
LINE
8
BLACK
6
CONTINUOUS
10
0.671804
20
0.55938
11
0.671791
21
0.559155
0
LINE
8
BLACK
6
CONTINUOUS
10
0.671791
20
0.559155
11
0.671791
21
0.556148
0
LINE
8
BLACK
6
CONTINUOUS
10
0.671791
20
0.556148
11
0.671789
21
0.556009
0
LINE
8
BLACK
6
CONTINUOUS
10
0.671789
20
0.556009
11
0.671702
21
0.552864
0
LINE
8
BLACK
6
CONTINUOUS
10
0.671702
20
0.552864
11
0.671752
21
0.5526
0
LINE
8
BLACK
6
CONTINUOUS
10
0.671752
20
0.5526
11
0.671773
21
0.552332
0
LINE
8
BLACK
6
CONTINUOUS
10
0.671773
20
0.552332
11
0.671753
21
0.552331
0
LINE
8
BLACK
6
CONTINUOUS
10
0.671753
20
0.552331
11
0.671791
21
0.551924
0
LINE
8
BLACK
6
CONTINUOUS
10
0.671791
20
0.551924
11
0.671791
21
0.423189
0
LINE
8
BLACK
6
CONTINUOUS
10
0.671791
20
0.423189
11
0.671725
21
0.422379
0
LINE
8
BLACK
6
CONTINUOUS
10
0.671725
20
0.422379
11
0.671645
21
0.421898
0
LINE
8
BLACK
6
CONTINUOUS
10
0.671645
20
0.421898
11
0.671659
21
0.421629
0
LINE
8
BLACK
6
CONTINUOUS
10
0.671659
20
0.421629
11
0.671659
21
0.421629
0
LINE
8
BLACK
6
CONTINUOUS
10
0.671659
20
0.421629
11
0.671785
21
0.419236
0
LINE
8
BLACK
6
CONTINUOUS
10
0.671785
20
0.419236
11
0.671791
21
0.418977
0
LINE
8
BLACK
6
CONTINUOUS
10
0.671791
20
0.418977
11
0.671791
21
0.27998
0
LINE
8
BLACK
6
CONTINUOUS
10
0.671791
20
0.27998
11
0.671004
21
0.277298
0
LINE
8
BLACK
6
CONTINUOUS
10
0.671004
20
0.277298
11
0.668891
21
0.275468
0
LINE
8
BLACK
6
CONTINUOUS
10
0.668891
20
0.275468
11
0.666831
21
0.27502
0
LINE
8
BLACK
6
CONTINUOUS
10
0.666831
20
0.27502
11
0.618105
21
0.27502
0
LINE
8
BLACK
6
CONTINUOUS
10
0.618105
20
0.27502
11
0.615657
21
0.274754
0
LINE
8
BLACK
6
CONTINUOUS
10
0.615657
20
0.274754
11
0.610287
21
0.272741
0
LINE
8
BLACK
6
CONTINUOUS
10
0.610287
20
0.272741
11
0.605698
21
0.269302
0
LINE
8
BLACK
6
CONTINUOUS
10
0.605698
20
0.269302
11
0.602259
21
0.264713
0
LINE
8
BLACK
6
CONTINUOUS
10
0.602259
20
0.264713
11
0.600246
21
0.259343
0
LINE
8
BLACK
6
CONTINUOUS
10
0.600246
20
0.259343
11
0.59998
21
0.256895
0
LINE
8
BLACK
6
CONTINUOUS
10
0.59998
20
0.256895
11
0.59998
21
0.193105
0
LINE
8
BLACK
6
CONTINUOUS
10
0.59998
20
0.193105
11
0.600246
21
0.190657
0
LINE
8
BLACK
6
CONTINUOUS
10
0.600246
20
0.190657
11
0.602259
21
0.185287
0
LINE
8
BLACK
6
CONTINUOUS
10
0.602259
20
0.185287
11
0.605698
21
0.180698
0
LINE
8
BLACK
6
CONTINUOUS
10
0.605698
20
0.180698
11
0.605981
21
0.180487
0
LINE
8
BLACK
6
CONTINUOUS
10
0.605981
20
0.180487
11
0.608005
21
0.17897
0
LINE
8
BLACK
6
CONTINUOUS
10
0.608005
20
0.17897
11
0.609679
21
0.176731
0
LINE
8
BLACK
6
CONTINUOUS
10
0.609679
20
0.176731
11
0.609877
21
0.173943
0
LINE
8
BLACK
6
CONTINUOUS
10
0.609877
20
0.173943
11
0.608536
21
0.17149
0
LINE
8
BLACK
6
CONTINUOUS
10
0.608536
20
0.17149
11
0.608005
21
0.171031
0
LINE
8
BLACK
6
CONTINUOUS
10
0.608005
20
0.171031
11
0.605698
21
0.169302
0
LINE
8
BLACK
6
CONTINUOUS
10
0.605698
20
0.169302
11
0.602259
21
0.164713
0
LINE
8
BLACK
6
CONTINUOUS
10
0.602259
20
0.164713
11
0.600246
21
0.159343
0
LINE
8
BLACK
6
CONTINUOUS
10
0.600246
20
0.159343
11
0.59998
21
0.156895
0
LINE
8
BLACK
6
CONTINUOUS
10
0.59998
20
0.156895
11
0.59998
21
0.093105
0
LINE
8
BLACK
6
CONTINUOUS
10
0.59998
20
0.093105
11
0.600246
21
0.0906569
0
LINE
8
BLACK
6
CONTINUOUS
10
0.600246
20
0.0906569
11
0.602259
21
0.0852872
0
LINE
8
BLACK
6
CONTINUOUS
10
0.602259
20
0.0852872
11
0.605698
21
0.0806984
0
LINE
8
BLACK
6
CONTINUOUS
10
0.605698
20
0.0806984
11
0.610287
21
0.0772593
0
LINE
8
BLACK
6
CONTINUOUS
10
0.610287
20
0.0772593
11
0.615657
21
0.0752463
0
LINE
8
BLACK
6
CONTINUOUS
10
0.615657
20
0.0752463
11
0.618105
21
0.0749803
0
LINE
8
BLACK
6
CONTINUOUS
10
0.618105
20
0.0749803
11
0.681895
21
0.0749803
0
LINE
8
BLACK
6
CONTINUOUS
10
0.681895
20
0.0749803
11
0.684343
21
0.0752463
0
LINE
8
BLACK
6
CONTINUOUS
10
0.684343
20
0.0752463
11
0.689713
21
0.0772593
0
LINE
8
BLACK
6
CONTINUOUS
10
0.689713
20
0.0772593
11
0.694302
21
0.0806984
0
LINE
8
BLACK
6
CONTINUOUS
10
0.694302
20
0.0806984
11
0.697741
21
0.0852872
0
LINE
8
BLACK
6
CONTINUOUS
10
0.697741
20
0.0852872
11
0.699754
21
0.0906569
0
LINE
8
BLACK
6
CONTINUOUS
10
0.699754
20
0.0906569
11
0.70002
21
0.093105
0
LINE
8
BLACK
6
CONTINUOUS
10
0.70002
20
0.093105
11
0.70002
21
0.125166
0
LINE
8
BLACK
6
CONTINUOUS
10
0.70002
20
0.125166
11
0.700807
21
0.127848
0
LINE
8
BLACK
6
CONTINUOUS
10
0.700807
20
0.127848
11
0.701473
21
0.128673
0
LINE
8
BLACK
6
CONTINUOUS
10
0.701473
20
0.128673
11
0.708512
21
0.135713
0
LINE
8
BLACK
6
CONTINUOUS
10
0.708512
20
0.135713
11
0.728338
21
0.155539
0
LINE
8
BLACK
6
CONTINUOUS
10
0.728338
20
0.155539
11
0.728644
21
0.15582
0
LINE
8
BLACK
6
CONTINUOUS
10
0.728644
20
0.15582
11
0.730006
21
0.156971
0
LINE
8
BLACK
6
CONTINUOUS
10
0.730006
20
0.156971
11
0.730006
21
0.156971
0
LINE
8
BLACK
6
CONTINUOUS
10
0.730006
20
0.156971
11
0.730211
21
0.157145
0
LINE
8
BLACK
6
CONTINUOUS
10
0.730211
20
0.157145
11
0.732153
21
0.159684
0
LINE
8
BLACK
6
CONTINUOUS
10
0.732153
20
0.159684
11
0.732227
21
0.159779
0
LINE
8
BLACK
6
CONTINUOUS
10
0.732227
20
0.159779
11
0.734064
21
0.162064
0
LINE
8
BLACK
6
CONTINUOUS
10
0.734064
20
0.162064
11
0.734064
21
0.162064
0
LINE
8
BLACK
6
CONTINUOUS
10
0.734064
20
0.162064
11
0.734233
21
0.162273
0
LINE
8
BLACK
6
CONTINUOUS
10
0.734233
20
0.162273
11
0.734352
21
0.162514
0
LINE
8
BLACK
6
CONTINUOUS
10
0.734352
20
0.162514
11
0.734423
21
0.162624
0
LINE
8
BLACK
6
CONTINUOUS
10
0.734423
20
0.162624
11
0.734433
21
0.162638
0
LINE
8
BLACK
6
CONTINUOUS
10
0.734433
20
0.162638
11
0.734441
21
0.162653
0
LINE
8
BLACK
6
CONTINUOUS
10
0.734441
20
0.162653
11
0.734509
21
0.162765
0
LINE
8
BLACK
6
CONTINUOUS
10
0.734509
20
0.162765
11
0.734672
21
0.162978
0
LINE
8
BLACK
6
CONTINUOUS
10
0.734672
20
0.162978
11
0.736023
21
0.165877
0
LINE
8
BLACK
6
CONTINUOUS
10
0.736023
20
0.165877
11
0.736076
21
0.165986
0
LINE
8
BLACK
6
CONTINUOUS
10
0.736076
20
0.165986
11
0.737379
21
0.16861
0
LINE
8
BLACK
6
CONTINUOUS
10
0.737379
20
0.16861
11
0.737498
21
0.168851
0
LINE
8
BLACK
6
CONTINUOUS
10
0.737498
20
0.168851
11
0.737563
21
0.169112
0
LINE
8
BLACK
6
CONTINUOUS
10
0.737563
20
0.169112
11
0.737608
21
0.169235
0
LINE
8
BLACK
6
CONTINUOUS
10
0.737608
20
0.169235
11
0.737615
21
0.16925
0
LINE
8
BLACK
6
CONTINUOUS
10
0.737615
20
0.16925
11
0.737619
21
0.169266
0
LINE
8
BLACK
6
CONTINUOUS
10
0.737619
20
0.169266
11
0.737662
21
0.169391
0
LINE
8
BLACK
6
CONTINUOUS
10
0.737662
20
0.169391
11
0.737775
21
0.169634
0
LINE
8
BLACK
6
CONTINUOUS
10
0.737775
20
0.169634
11
0.738473
21
0.172756
0
LINE
8
BLACK
6
CONTINUOUS
10
0.738473
20
0.172756
11
0.738501
21
0.172874
0
LINE
8
BLACK
6
CONTINUOUS
10
0.738501
20
0.172874
11
0.73921
21
0.175716
0
LINE
8
BLACK
6
CONTINUOUS
10
0.73921
20
0.175716
11
0.73921
21
0.175716
0
LINE
8
BLACK
6
CONTINUOUS
10
0.73921
20
0.175716
11
0.739275
21
0.175976
0
LINE
8
BLACK
6
CONTINUOUS
10
0.739275
20
0.175976
11
0.739282
21
0.176245
0
LINE
8
BLACK
6
CONTINUOUS
10
0.739282
20
0.176245
11
0.7393
21
0.176375
0
LINE
8
BLACK
6
CONTINUOUS
10
0.7393
20
0.176375
11
0.739306
21
0.17641
0
LINE
8
BLACK
6
CONTINUOUS
10
0.739306
20
0.17641
11
0.739333
21
0.176602
0
LINE
8
BLACK
6
CONTINUOUS
10
0.739333
20
0.176602
11
0.739377
21
0.176801
0
LINE
8
BLACK
6
CONTINUOUS
10
0.739377
20
0.176801
11
0.73939
21
0.177026
0
LINE
8
BLACK
6
CONTINUOUS
10
0.73939
20
0.177026
11
0.73939
21
0.180033
0
LINE
8
BLACK
6
CONTINUOUS
10
0.73939
20
0.180033
11
0.739392
21
0.180172
0
LINE
8
BLACK
6
CONTINUOUS
10
0.739392
20
0.180172
11
0.739472
21
0.183049
0
LINE
8
BLACK
6
CONTINUOUS
10
0.739472
20
0.183049
11
0.73948
21
0.183317
0
LINE
8
BLACK
6
CONTINUOUS
10
0.73948
20
0.183317
11
0.739429
21
0.183581
0
LINE
8
BLACK
6
CONTINUOUS
10
0.739429
20
0.183581
11
0.739408
21
0.183849
0
LINE
8
BLACK
6
CONTINUOUS
10
0.739408
20
0.183849
11
0.739428
21
0.183851
0
LINE
8
BLACK
6
CONTINUOUS
10
0.739428
20
0.183851
11
0.73939
21
0.184257
0
LINE
8
BLACK
6
CONTINUOUS
10
0.73939
20
0.184257
11
0.73939
21
0.38124
0
LINE
8
BLACK
6
CONTINUOUS
10
0.73939
20
0.38124
11
0.740177
21
0.383922
0
LINE
8
BLACK
6
CONTINUOUS
10
0.740177
20
0.383922
11
0.74229
21
0.385753
0
LINE
8
BLACK
6
CONTINUOUS
10
0.74229
20
0.385753
11
0.74435
21
0.386201
0
LINE
8
BLACK
6
CONTINUOUS
10
0.74435
20
0.386201
11
0.846504
21
0.386201
0
LINE
8
BLACK
6
CONTINUOUS
10
0.846504
20
0.386201
11
0.849186
21
0.385413
0
LINE
8
BLACK
6
CONTINUOUS
10
0.849186
20
0.385413
11
0.850012
21
0.384748
0
LINE
8
BLACK
6
CONTINUOUS
10
0.850012
20
0.384748
11
0.957231
21
0.277528
0
LINE
8
BLACK
6
CONTINUOUS
10
0.957231
20
0.277528
11
0.958571
21
0.275075
0
LINE
8
BLACK
6
CONTINUOUS
10
0.958571
20
0.275075
11
0.958371
21
0.272287
0
LINE
8
BLACK
6
CONTINUOUS
10
0.958371
20
0.272287
11
0.956699
21
0.270051
0
LINE
8
BLACK
6
CONTINUOUS
10
0.956699
20
0.270051
11
0.955698
21
0.269302
0
LINE
8
BLACK
6
CONTINUOUS
10
0.955698
20
0.269302
11
0.953957
21
0.266978
0
LINE
8
BLACK
6
CONTINUOUS
10
0.953957
20
0.266978
11
0.951719
21
0.265305
0
LINE
8
BLACK
6
CONTINUOUS
10
0.951719
20
0.265305
11
0.948931
21
0.265107
0
LINE
8
BLACK
6
CONTINUOUS
10
0.948931
20
0.265107
11
0.946478
21
0.266448
0
LINE
8
BLACK
6
CONTINUOUS
10
0.946478
20
0.266448
11
0.946018
21
0.266978
0
LINE
8
BLACK
6
CONTINUOUS
10
0.946018
20
0.266978
11
0.944499
21
0.269005
0
LINE
8
BLACK
6
CONTINUOUS
10
0.944499
20
0.269005
11
0.944005
21
0.269499
0
LINE
8
BLACK
6
CONTINUOUS
10
0.944005
20
0.269499
11
0.939986
21
0.272511
0
LINE
8
BLACK
6
CONTINUOUS
10
0.939986
20
0.272511
11
0.939372
21
0.272847
0
LINE
8
BLACK
6
CONTINUOUS
10
0.939372
20
0.272847
11
0.93463
21
0.274625
0
LINE
8
BLACK
6
CONTINUOUS
10
0.93463
20
0.274625
11
0.93403
21
0.274768
0
LINE
8
BLACK
6
CONTINUOUS
10
0.93403
20
0.274768
11
0.932027
21
0.274985
0
LINE
8
BLACK
6
CONTINUOUS
10
0.932027
20
0.274985
11
0.931759
21
0.275
0
LINE
8
BLACK
6
CONTINUOUS
10
0.931759
20
0.275
11
0.910713
21
0.275
0
LINE
8
BLACK
6
CONTINUOUS
10
0.910713
20
0.275
11
0.910113
21
0.274824
0
LINE
8
BLACK
6
CONTINUOUS
10
0.910113
20
0.274824
11
0.910066
21
0.274769
0
LINE
8
BLACK
6
CONTINUOUS
10
0.910066
20
0.274769
11
0.91
21
0.274467
0
LINE
8
BLACK
6
CONTINUOUS
10
0.91
20
0.274467
11
0.91
21
0.255
0
LINE
8
BLACK
6
CONTINUOUS
10
0.91
20
0.255
11
0.93
21
0.255
0
LINE
8
BLACK
6
CONTINUOUS
10
0.93
20
0.255
11
0.93
21
0.195
0
LINE
8
BLACK
6
CONTINUOUS
10
0.93
20
0.195
11
0.91
21
0.195
0
LINE
8
BLACK
6
CONTINUOUS
10
0.91
20
0.195
11
0.91
21
0.155
0
LINE
8
BLACK
6
CONTINUOUS
10
0.91
20
0.155
11
0.93
21
0.155
0
LINE
8
BLACK
6
CONTINUOUS
10
0.93
20
0.155
11
0.93
21
0.095
0
LINE
8
BLACK
6
CONTINUOUS
10
0.93
20
0.095
11
0.91
21
0.095
0
LINE
8
BLACK
6
CONTINUOUS
10
0.91
20
0.095
11
0.91
21
0.0757132
0
LINE
8
BLACK
6
CONTINUOUS
10
0.91
20
0.0757132
11
0.910176
21
0.0751133
0
LINE
8
BLACK
6
CONTINUOUS
10
0.910176
20
0.0751133
11
0.910231
21
0.0750658
0
LINE
8
BLACK
6
CONTINUOUS
10
0.910231
20
0.0750658
11
0.910533
21
0.075
0
LINE
8
BLACK
6
CONTINUOUS
10
0.910533
20
0.075
11
0.931759
21
0.075
0
LINE
8
BLACK
6
CONTINUOUS
10
0.931759
20
0.075
11
0.932027
21
0.0750146
0
LINE
8
BLACK
6
CONTINUOUS
10
0.932027
20
0.0750146
11
0.93403
21
0.0752321
0
LINE
8
BLACK
6
CONTINUOUS
10
0.93403
20
0.0752321
11
0.93463
21
0.0753748
0
LINE
8
BLACK
6
CONTINUOUS
10
0.93463
20
0.0753748
11
0.939372
21
0.0771526
0
LINE
8
BLACK
6
CONTINUOUS
10
0.939372
20
0.0771526
11
0.939986
21
0.0774887
0
LINE
8
BLACK
6
CONTINUOUS
10
0.939986
20
0.0774887
11
0.944005
21
0.0805006
0
LINE
8
BLACK
6
CONTINUOUS
10
0.944005
20
0.0805006
11
0.944499
21
0.0809951
0
LINE
8
BLACK
6
CONTINUOUS
10
0.944499
20
0.0809951
11
0.946018
21
0.0830216
0
LINE
8
BLACK
6
CONTINUOUS
10
0.946018
20
0.0830216
11
0.948257
21
0.0846954
0
LINE
8
BLACK
6
CONTINUOUS
10
0.948257
20
0.0846954
11
0.951045
21
0.0848933
0
LINE
8
BLACK
6
CONTINUOUS
10
0.951045
20
0.0848933
11
0.953497
21
0.0835524
0
LINE
8
BLACK
6
CONTINUOUS
10
0.953497
20
0.0835524
11
0.953957
21
0.0830219
0
LINE
8
BLACK
6
CONTINUOUS
10
0.953957
20
0.0830219
11
0.955698
21
0.0806984
0
LINE
8
BLACK
6
CONTINUOUS
10
0.955698
20
0.0806984
11
0.960287
21
0.0772593
0
LINE
8
BLACK
6
CONTINUOUS
10
0.960287
20
0.0772593
11
0.965657
21
0.0752463
0
LINE
8
BLACK
6
CONTINUOUS
10
0.965657
20
0.0752463
11
0.968105
21
0.0749803
0
LINE
8
BLACK
6
CONTINUOUS
10
0.968105
20
0.0749803
11
1.0319
21
0.0749803
0
LINE
8
BLACK
6
CONTINUOUS
10
1.0319
20
0.0749803
11
1.03434
21
0.0752463
0
LINE
8
BLACK
6
CONTINUOUS
10
1.03434
20
0.0752463
11
1.03971
21
0.0772593
0
LINE
8
BLACK
6
CONTINUOUS
10
1.03971
20
0.0772593
11
1.0443
21
0.0806984
0
LINE
8
BLACK
6
CONTINUOUS
10
1.0443
20
0.0806984
11
1.04604
21
0.0830216
0
LINE
8
BLACK
6
CONTINUOUS
10
1.04604
20
0.0830216
11
1.04828
21
0.0846954
0
LINE
8
BLACK
6
CONTINUOUS
10
1.04828
20
0.0846954
11
1.05107
21
0.0848933
0
LINE
8
BLACK
6
CONTINUOUS
10
1.05107
20
0.0848933
11
1.05352
21
0.0835524
0
LINE
8
BLACK
6
CONTINUOUS
10
1.05352
20
0.0835524
11
1.05398
21
0.0830216
0
LINE
8
BLACK
6
CONTINUOUS
10
1.05398
20
0.0830216
11
1.0555
21
0.0809951
0
LINE
8
BLACK
6
CONTINUOUS
10
1.0555
20
0.0809951
11
1.056
21
0.0805006
0
LINE
8
BLACK
6
CONTINUOUS
10
1.056
20
0.0805006
11
1.06001
21
0.0774887
0
LINE
8
BLACK
6
CONTINUOUS
10
1.06001
20
0.0774887
11
1.06063
21
0.0771526
0
LINE
8
BLACK
6
CONTINUOUS
10
1.06063
20
0.0771526
11
1.06537
21
0.0753749
0
LINE
8
BLACK
6
CONTINUOUS
10
1.06537
20
0.0753749
11
1.06597
21
0.0752321
0
LINE
8
BLACK
6
CONTINUOUS
10
1.06597
20
0.0752321
11
1.06797
21
0.0750145
0
LINE
8
BLACK
6
CONTINUOUS
10
1.06797
20
0.0750145
11
1.06824
21
0.075
0
LINE
8
BLACK
6
CONTINUOUS
10
1.06824
20
0.075
11
1.08929
21
0.075
0
LINE
8
BLACK
6
CONTINUOUS
10
1.08929
20
0.075
11
1.08989
21
0.0751762
0
LINE
8
BLACK
6
CONTINUOUS
10
1.08989
20
0.0751762
11
1.08993
21
0.0752309
0
LINE
8
BLACK
6
CONTINUOUS
10
1.08993
20
0.0752309
11
1.09
21
0.0755334
0
LINE
8
BLACK
6
CONTINUOUS
10
1.09
20
0.0755334
11
1.09
21
0.095
0
LINE
8
BLACK
6
CONTINUOUS
10
1.09
20
0.095
11
1.07
21
0.095
0
LINE
8
BLACK
6
CONTINUOUS
10
1.11023
20
0.0750658
11
1.11053
21
0.075
0
LINE
8
BLACK
6
CONTINUOUS
10
1.11053
20
0.075
11
1.13176
21
0.075
0
LINE
8
BLACK
6
CONTINUOUS
10
1.13176
20
0.075
11
1.13203
21
0.0750146
0
LINE
8
BLACK
6
CONTINUOUS
10
1.13203
20
0.0750146
11
1.13403
21
0.0752321
0
LINE
8
BLACK
6
CONTINUOUS
10
1.13403
20
0.0752321
11
1.13463
21
0.0753748
0
LINE
8
BLACK
6
CONTINUOUS
10
1.13463
20
0.0753748
11
1.13937
21
0.0771526
0
LINE
8
BLACK
6
CONTINUOUS
10
1.13937
20
0.0771526
11
1.13999
21
0.0774887
0
LINE
8
BLACK
6
CONTINUOUS
10
1.13999
20
0.0774887
11
1.144
21
0.0805006
0
LINE
8
BLACK
6
CONTINUOUS
10
1.144
20
0.0805006
11
1.1445
21
0.0809951
0
LINE
8
BLACK
6
CONTINUOUS
10
1.1445
20
0.0809951
11
1.14751
21
0.0850138
0
LINE
8
BLACK
6
CONTINUOUS
10
1.14751
20
0.0850138
11
1.14785
21
0.0856278
0
LINE
8
BLACK
6
CONTINUOUS
10
1.14785
20
0.0856278
11
1.14963
21
0.0903698
0
LINE
8
BLACK
6
CONTINUOUS
10
1.14963
20
0.0903698
11
1.14977
21
0.0909704
0
LINE
8
BLACK
6
CONTINUOUS
10
1.14977
20
0.0909704
11
1.14999
21
0.092973
0
LINE
8
BLACK
6
CONTINUOUS
10
1.14999
20
0.092973
11
1.15
21
0.0932413
0
LINE
8
BLACK
6
CONTINUOUS
10
1.15
20
0.0932413
11
1.15
21
0.114287
0
LINE
8
BLACK
6
CONTINUOUS
10
1.15
20
0.114287
11
1.14982
21
0.114887
0
LINE
8
BLACK
6
CONTINUOUS
10
1.14982
20
0.114887
11
1.14977
21
0.114934
0
LINE
8
BLACK
6
CONTINUOUS
10
1.14977
20
0.114934
11
1.14947
21
0.115
0
LINE
8
BLACK
6
CONTINUOUS
10
1.14947
20
0.115
11
1.13
21
0.115
0
LINE
8
BLACK
6
CONTINUOUS
10
1.13
20
0.115
11
1.13
21
0.095
0
LINE
8
BLACK
6
CONTINUOUS
10
1.13
20
0.095
11
1.11
21
0.095
0
LINE
8
BLACK
6
CONTINUOUS
10
1.11
20
0.095
11
1.11
21
0.0757132
0
LINE
8
BLACK
6
CONTINUOUS
10
1.11
20
0.0757132
11
1.11018
21
0.0751133
0
LINE
8
BLACK
6
CONTINUOUS
10
1.11018
20
0.0751133
11
1.11023
21
0.0750658
0
LINE
8
BLACK
6
CONTINUOUS
10
0.850232
20
0.0909704
11
0.850375
21
0.0903699
0
LINE
8
BLACK
6
CONTINUOUS
10
0.850375
20
0.0903699
11
0.852153
21
0.0856278
0
LINE
8
BLACK
6
CONTINUOUS
10
0.852153
20
0.0856278
11
0.852489
21
0.0850138
0
LINE
8
BLACK
6
CONTINUOUS
10
0.852489
20
0.0850138
11
0.855501
21
0.0809951
0
LINE
8
BLACK
6
CONTINUOUS
10
0.855501
20
0.0809951
11
0.855995
21
0.0805006
0
LINE
8
BLACK
6
CONTINUOUS
10
0.855995
20
0.0805006
11
0.860014
21
0.0774887
0
LINE
8
BLACK
6
CONTINUOUS
10
0.860014
20
0.0774887
11
0.860628
21
0.0771526
0
LINE
8
BLACK
6
CONTINUOUS
10
0.860628
20
0.0771526
11
0.86537
21
0.0753749
0
LINE
8
BLACK
6
CONTINUOUS
10
0.86537
20
0.0753749
11
0.86597
21
0.0752321
0
LINE
8
BLACK
6
CONTINUOUS
10
0.86597
20
0.0752321
11
0.867973
21
0.0750145
0
LINE
8
BLACK
6
CONTINUOUS
10
0.867973
20
0.0750145
11
0.868241
21
0.075
0
LINE
8
BLACK
6
CONTINUOUS
10
0.868241
20
0.075
11
0.889287
21
0.075
0
LINE
8
BLACK
6
CONTINUOUS
10
0.889287
20
0.075
11
0.889887
21
0.0751762
0
LINE
8
BLACK
6
CONTINUOUS
10
0.889887
20
0.0751762
11
0.889934
21
0.0752309
0
LINE
8
BLACK
6
CONTINUOUS
10
0.889934
20
0.0752309
11
0.89
21
0.0755334
0
LINE
8
BLACK
6
CONTINUOUS
10
0.89
20
0.0755334
11
0.89
21
0.095
0
LINE
8
BLACK
6
CONTINUOUS
10
0.89
20
0.095
11
0.87
21
0.095
0
LINE
8
BLACK
6
CONTINUOUS
10
0.87
20
0.095
11
0.87
21
0.115
0
LINE
8
BLACK
6
CONTINUOUS
10
0.87
20
0.115
11
0.850713
21
0.115
0
LINE
8
BLACK
6
CONTINUOUS
10
0.850713
20
0.115
11
0.850113
21
0.114824
0
LINE
8
BLACK
6
CONTINUOUS
10
0.850113
20
0.114824
11
0.850066
21
0.114769
0
LINE
8
BLACK
6
CONTINUOUS
10
0.850066
20
0.114769
11
0.85
21
0.114467
0
LINE
8
BLACK
6
CONTINUOUS
10
0.85
20
0.114467
11
0.85
21
0.0932414
0
LINE
8
BLACK
6
CONTINUOUS
10
0.85
20
0.0932414
11
0.850015
21
0.0929728
0
LINE
8
BLACK
6
CONTINUOUS
10
0.850015
20
0.0929728
11
0.850232
21
0.0909704
0
LINE
8
BLACK
6
CONTINUOUS
10
1.13
20
0.215
11
1.13
21
0.195
0
LINE
8
BLACK
6
CONTINUOUS
10
1.13
20
0.195
11
1.11
21
0.195
0
LINE
8
BLACK
6
CONTINUOUS
10
1.11
20
0.195
11
1.11
21
0.155
0
LINE
8
BLACK
6
CONTINUOUS
10
1.11
20
0.155
11
1.13
21
0.155
0
LINE
8
BLACK
6
CONTINUOUS
10
1.13
20
0.155
11
1.13
21
0.135
0
LINE
8
BLACK
6
CONTINUOUS
10
1.13
20
0.135
11
1.14929
21
0.135
0
LINE
8
BLACK
6
CONTINUOUS
10
1.14929
20
0.135
11
1.14989
21
0.135176
0
LINE
8
BLACK
6
CONTINUOUS
10
1.14989
20
0.135176
11
1.14993
21
0.135231
0
LINE
8
BLACK
6
CONTINUOUS
10
1.14993
20
0.135231
11
1.15
21
0.135533
0
LINE
8
BLACK
6
CONTINUOUS
10
1.15
20
0.135533
11
1.15
21
0.156759
0
LINE
8
BLACK
6
CONTINUOUS
10
1.15
20
0.156759
11
1.14999
21
0.157027
0
LINE
8
BLACK
6
CONTINUOUS
10
1.14999
20
0.157027
11
1.14977
21
0.15903
0
LINE
8
BLACK
6
CONTINUOUS
10
1.14977
20
0.15903
11
1.14963
21
0.15963
0
LINE
8
BLACK
6
CONTINUOUS
10
1.14963
20
0.15963
11
1.14785
21
0.164372
0
LINE
8
BLACK
6
CONTINUOUS
10
1.14785
20
0.164372
11
1.14751
21
0.164986
0
LINE
8
BLACK
6
CONTINUOUS
10
1.14751
20
0.164986
11
1.1445
21
0.169005
0
LINE
8
BLACK
6
CONTINUOUS
10
1.1445
20
0.169005
11
1.144
21
0.169499
0
LINE
8
BLACK
6
CONTINUOUS
10
1.144
20
0.169499
11
1.14196
21
0.17103
0
LINE
8
BLACK
6
CONTINUOUS
10
1.14196
20
0.17103
11
1.14029
21
0.173269
0
LINE
8
BLACK
6
CONTINUOUS
10
1.14029
20
0.173269
11
1.14009
21
0.176057
0
LINE
8
BLACK
6
CONTINUOUS
10
1.14009
20
0.176057
11
1.14143
21
0.17851
0
LINE
8
BLACK
6
CONTINUOUS
10
1.14143
20
0.17851
11
1.14196
21
0.17897
0
LINE
8
BLACK
6
CONTINUOUS
10
1.14196
20
0.17897
11
1.144
21
0.180501
0
LINE
8
BLACK
6
CONTINUOUS
10
1.144
20
0.180501
11
1.1445
21
0.180995
0
LINE
8
BLACK
6
CONTINUOUS
10
1.1445
20
0.180995
11
1.14751
21
0.185014
0
LINE
8
BLACK
6
CONTINUOUS
10
1.14751
20
0.185014
11
1.14785
21
0.185628
0
LINE
8
BLACK
6
CONTINUOUS
10
1.14785
20
0.185628
11
1.14963
21
0.19037
0
LINE
8
BLACK
6
CONTINUOUS
10
1.14963
20
0.19037
11
1.14977
21
0.19097
0
LINE
8
BLACK
6
CONTINUOUS
10
1.14977
20
0.19097
11
1.14999
21
0.192973
0
LINE
8
BLACK
6
CONTINUOUS
10
1.14999
20
0.192973
11
1.15
21
0.193241
0
LINE
8
BLACK
6
CONTINUOUS
10
1.15
20
0.193241
11
1.15
21
0.214287
0
LINE
8
BLACK
6
CONTINUOUS
10
1.15
20
0.214287
11
1.14982
21
0.214887
0
LINE
8
BLACK
6
CONTINUOUS
10
1.14982
20
0.214887
11
1.14977
21
0.214934
0
LINE
8
BLACK
6
CONTINUOUS
10
1.14977
20
0.214934
11
1.14947
21
0.215
0
LINE
8
BLACK
6
CONTINUOUS
10
1.14947
20
0.215
11
1.13
21
0.215
0
LINE
8
BLACK
6
CONTINUOUS
10
1.11071
20
0.275
11
1.11011
21
0.274824
0
LINE
8
BLACK
6
CONTINUOUS
10
1.11011
20
0.274824
11
1.11007
21
0.274769
0
LINE
8
BLACK
6
CONTINUOUS
10
1.11007
20
0.274769
11
1.11
21
0.274467
0
LINE
8
BLACK
6
CONTINUOUS
10
1.11
20
0.274467
11
1.11
21
0.255
0
LINE
8
BLACK
6
CONTINUOUS
10
1.11
20
0.255
11
1.13
21
0.255
0
LINE
8
BLACK
6
CONTINUOUS
10
1.13
20
0.255
11
1.13
21
0.235
0
LINE
8
BLACK
6
CONTINUOUS
10
1.13
20
0.235
11
1.14929
21
0.235
0
LINE
8
BLACK
6
CONTINUOUS
10
1.14929
20
0.235
11
1.14989
21
0.235176
0
LINE
8
BLACK
6
CONTINUOUS
10
1.14989
20
0.235176
11
1.14993
21
0.235231
0
LINE
8
BLACK
6
CONTINUOUS
10
1.14993
20
0.235231
11
1.15
21
0.235533
0
LINE
8
BLACK
6
CONTINUOUS
10
1.15
20
0.235533
11
1.15
21
0.256759
0
LINE
8
BLACK
6
CONTINUOUS
10
1.15
20
0.256759
11
1.14999
21
0.257027
0
LINE
8
BLACK
6
CONTINUOUS
10
1.14999
20
0.257027
11
1.14977
21
0.25903
0
LINE
8
BLACK
6
CONTINUOUS
10
1.14977
20
0.25903
11
1.14963
21
0.25963
0
LINE
8
BLACK
6
CONTINUOUS
10
1.14963
20
0.25963
11
1.14785
21
0.264372
0
LINE
8
BLACK
6
CONTINUOUS
10
1.14785
20
0.264372
11
1.14751
21
0.264986
0
LINE
8
BLACK
6
CONTINUOUS
10
1.14751
20
0.264986
11
1.1445
21
0.269005
0
LINE
8
BLACK
6
CONTINUOUS
10
1.1445
20
0.269005
11
1.144
21
0.269499
0
LINE
8
BLACK
6
CONTINUOUS
10
1.144
20
0.269499
11
1.13999
21
0.272511
0
LINE
8
BLACK
6
CONTINUOUS
10
1.13999
20
0.272511
11
1.13937
21
0.272847
0
LINE
8
BLACK
6
CONTINUOUS
10
1.13937
20
0.272847
11
1.13463
21
0.274625
0
LINE
8
BLACK
6
CONTINUOUS
10
1.13463
20
0.274625
11
1.13403
21
0.274768
0
LINE
8
BLACK
6
CONTINUOUS
10
1.13403
20
0.274768
11
1.13203
21
0.274985
0
LINE
8
BLACK
6
CONTINUOUS
10
1.13203
20
0.274985
11
1.13176
21
0.275
0
LINE
8
BLACK
6
CONTINUOUS
10
1.13176
20
0.275
11
1.11071
21
0.275
0
LINE
8
BLACK
6
CONTINUOUS
10
0.540232
20
0.983739
11
0.540375
21
0.983139
0
LINE
8
BLACK
6
CONTINUOUS
10
0.540375
20
0.983139
11
0.542153
21
0.978397
0
LINE
8
BLACK
6
CONTINUOUS
10
0.542153
20
0.978397
11
0.542489
21
0.977783
0
LINE
8
BLACK
6
CONTINUOUS
10
0.542489
20
0.977783
11
0.545501
21
0.973764
0
LINE
8
BLACK
6
CONTINUOUS
10
0.545501
20
0.973764
11
0.545995
21
0.973269
0
LINE
8
BLACK
6
CONTINUOUS
10
0.545995
20
0.973269
11
0.550014
21
0.970258
0
LINE
8
BLACK
6
CONTINUOUS
10
0.550014
20
0.970258
11
0.550628
21
0.969921
0
LINE
8
BLACK
6
CONTINUOUS
10
0.550628
20
0.969921
11
0.55537
21
0.968144
0
LINE
8
BLACK
6
CONTINUOUS
10
0.55537
20
0.968144
11
0.55597
21
0.968001
0
LINE
8
BLACK
6
CONTINUOUS
10
0.55597
20
0.968001
11
0.557973
21
0.967783
0
LINE
8
BLACK
6
CONTINUOUS
10
0.557973
20
0.967783
11
0.558241
21
0.967769
0
LINE
8
BLACK
6
CONTINUOUS
10
0.558241
20
0.967769
11
0.579287
21
0.967769
0
LINE
8
BLACK
6
CONTINUOUS
10
0.579287
20
0.967769
11
0.579887
21
0.967945
0
LINE
8
BLACK
6
CONTINUOUS
10
0.579887
20
0.967945
11
0.579934
21
0.968
0
LINE
8
BLACK
6
CONTINUOUS
10
0.579934
20
0.968
11
0.58
21
0.968302
0
LINE
8
BLACK
6
CONTINUOUS
10
0.58
20
0.968302
11
0.58
21
0.987769
0
LINE
8
BLACK
6
CONTINUOUS
10
0.58
20
0.987769
11
0.56
21
0.987769
0
LINE
8
BLACK
6
CONTINUOUS
10
0.56
20
0.987769
11
0.56
21
1.00777
0
LINE
8
BLACK
6
CONTINUOUS
10
0.56
20
1.00777
11
0.540713
21
1.00777
0
LINE
8
BLACK
6
CONTINUOUS
10
0.540713
20
1.00777
11
0.540113
21
1.00759
0
LINE
8
BLACK
6
CONTINUOUS
10
0.540113
20
1.00759
11
0.540066
21
1.00754
0
LINE
8
BLACK
6
CONTINUOUS
10
0.540066
20
1.00754
11
0.54
21
1.00724
0
LINE
8
BLACK
6
CONTINUOUS
10
0.54
20
1.00724
11
0.54
21
0.98601
0
LINE
8
BLACK
6
CONTINUOUS
10
0.54
20
0.98601
11
0.540015
21
0.985742
0
LINE
8
BLACK
6
CONTINUOUS
10
0.540015
20
0.985742
11
0.540232
21
0.983739
0
LINE
8
BLACK
6
CONTINUOUS
10
0.540231
20
1.02783
11
0.540533
21
1.02777
0
LINE
8
BLACK
6
CONTINUOUS
10
0.540533
20
1.02777
11
0.56
21
1.02777
0
LINE
8
BLACK
6
CONTINUOUS
10
0.56
20
1.02777
11
0.56
21
1.04777
0
LINE
8
BLACK
6
CONTINUOUS
10
0.56
20
1.04777
11
0.58
21
1.04777
0
LINE
8
BLACK
6
CONTINUOUS
10
0.58
20
1.04777
11
0.58
21
1.08777
0
LINE
8
BLACK
6
CONTINUOUS
10
0.58
20
1.08777
11
0.56
21
1.08777
0
LINE
8
BLACK
6
CONTINUOUS
10
0.56
20
1.08777
11
0.56
21
1.10777
0
LINE
8
BLACK
6
CONTINUOUS
10
0.56
20
1.10777
11
0.540713
21
1.10777
0
LINE
8
BLACK
6
CONTINUOUS
10
0.540713
20
1.10777
11
0.540113
21
1.10759
0
LINE
8
BLACK
6
CONTINUOUS
10
0.540113
20
1.10759
11
0.540066
21
1.10754
0
LINE
8
BLACK
6
CONTINUOUS
10
0.540066
20
1.10754
11
0.54
21
1.10724
0
LINE
8
BLACK
6
CONTINUOUS
10
0.54
20
1.10724
11
0.54
21
1.08601
0
LINE
8
BLACK
6
CONTINUOUS
10
0.54
20
1.08601
11
0.540015
21
1.08574
0
LINE
8
BLACK
6
CONTINUOUS
10
0.540015
20
1.08574
11
0.540232
21
1.08374
0
LINE
8
BLACK
6
CONTINUOUS
10
0.540232
20
1.08374
11
0.540375
21
1.08314
0
LINE
8
BLACK
6
CONTINUOUS
10
0.540375
20
1.08314
11
0.542153
21
1.0784
0
LINE
8
BLACK
6
CONTINUOUS
10
0.542153
20
1.0784
11
0.542489
21
1.07778
0
LINE
8
BLACK
6
CONTINUOUS
10
0.542489
20
1.07778
11
0.545501
21
1.07376
0
LINE
8
BLACK
6
CONTINUOUS
10
0.545501
20
1.07376
11
0.545995
21
1.07327
0
LINE
8
BLACK
6
CONTINUOUS
10
0.545995
20
1.07327
11
0.548038
21
1.07174
0
LINE
8
BLACK
6
CONTINUOUS
10
0.548038
20
1.07174
11
0.549712
21
1.0695
0
LINE
8
BLACK
6
CONTINUOUS
10
0.549712
20
1.0695
11
0.54991
21
1.06671
0
LINE
8
BLACK
6
CONTINUOUS
10
0.54991
20
1.06671
11
0.548569
21
1.06426
0
LINE
8
BLACK
6
CONTINUOUS
10
0.548569
20
1.06426
11
0.548038
21
1.0638
0
LINE
8
BLACK
6
CONTINUOUS
10
0.548038
20
1.0638
11
0.545995
21
1.06227
0
LINE
8
BLACK
6
CONTINUOUS
10
0.545995
20
1.06227
11
0.545501
21
1.06177
0
LINE
8
BLACK
6
CONTINUOUS
10
0.545501
20
1.06177
11
0.542489
21
1.05775
0
LINE
8
BLACK
6
CONTINUOUS
10
0.542489
20
1.05775
11
0.542153
21
1.05714
0
LINE
8
BLACK
6
CONTINUOUS
10
0.542153
20
1.05714
11
0.540375
21
1.0524
0
LINE
8
BLACK
6
CONTINUOUS
10
0.540375
20
1.0524
11
0.540232
21
1.0518
0
LINE
8
BLACK
6
CONTINUOUS
10
0.540232
20
1.0518
11
0.540015
21
1.0498
0
LINE
8
BLACK
6
CONTINUOUS
10
0.540015
20
1.0498
11
0.54
21
1.04953
0
LINE
8
BLACK
6
CONTINUOUS
10
0.54
20
1.04953
11
0.54
21
1.02848
0
LINE
8
BLACK
6
CONTINUOUS
10
0.54
20
1.02848
11
0.540176
21
1.02788
0
LINE
8
BLACK
6
CONTINUOUS
10
0.540176
20
1.02788
11
0.540231
21
1.02783
0
LINE
8
BLACK
6
CONTINUOUS
10
0.850231
20
0.135066
11
0.850533
21
0.135
0
LINE
8
BLACK
6
CONTINUOUS
10
0.850533
20
0.135
11
0.87
21
0.135
0
LINE
8
BLACK
6
CONTINUOUS
10
0.87
20
0.135
11
0.87
21
0.155
0
LINE
8
BLACK
6
CONTINUOUS
10
0.87
20
0.155
11
0.89
21
0.155
0
LINE
8
BLACK
6
CONTINUOUS
10
0.89
20
0.155
11
0.89
21
0.195
0
LINE
8
BLACK
6
CONTINUOUS
10
0.89
20
0.195
11
0.87
21
0.195
0
LINE
8
BLACK
6
CONTINUOUS
10
0.87
20
0.195
11
0.87
21
0.215
0
LINE
8
BLACK
6
CONTINUOUS
10
0.87
20
0.215
11
0.850713
21
0.215
0
LINE
8
BLACK
6
CONTINUOUS
10
0.850713
20
0.215
11
0.850113
21
0.214824
0
LINE
8
BLACK
6
CONTINUOUS
10
0.850113
20
0.214824
11
0.850066
21
0.214769
0
LINE
8
BLACK
6
CONTINUOUS
10
0.850066
20
0.214769
11
0.85
21
0.214467
0
LINE
8
BLACK
6
CONTINUOUS
10
0.85
20
0.214467
11
0.85
21
0.193241
0
LINE
8
BLACK
6
CONTINUOUS
10
0.85
20
0.193241
11
0.850015
21
0.192973
0
LINE
8
BLACK
6
CONTINUOUS
10
0.850015
20
0.192973
11
0.850232
21
0.19097
0
LINE
8
BLACK
6
CONTINUOUS
10
0.850232
20
0.19097
11
0.850375
21
0.19037
0
LINE
8
BLACK
6
CONTINUOUS
10
0.850375
20
0.19037
11
0.852153
21
0.185628
0
LINE
8
BLACK
6
CONTINUOUS
10
0.852153
20
0.185628
11
0.852489
21
0.185014
0
LINE
8
BLACK
6
CONTINUOUS
10
0.852489
20
0.185014
11
0.855501
21
0.180995
0
LINE
8
BLACK
6
CONTINUOUS
10
0.855501
20
0.180995
11
0.855995
21
0.180501
0
LINE
8
BLACK
6
CONTINUOUS
10
0.855995
20
0.180501
11
0.858038
21
0.17897
0
LINE
8
BLACK
6
CONTINUOUS
10
0.858038
20
0.17897
11
0.859712
21
0.176731
0
LINE
8
BLACK
6
CONTINUOUS
10
0.859712
20
0.176731
11
0.85991
21
0.173943
0
LINE
8
BLACK
6
CONTINUOUS
10
0.85991
20
0.173943
11
0.858569
21
0.17149
0
LINE
8
BLACK
6
CONTINUOUS
10
0.858569
20
0.17149
11
0.858038
21
0.17103
0
LINE
8
BLACK
6
CONTINUOUS
10
0.858038
20
0.17103
11
0.855995
21
0.169499
0
LINE
8
BLACK
6
CONTINUOUS
10
0.855995
20
0.169499
11
0.855501
21
0.169005
0
LINE
8
BLACK
6
CONTINUOUS
10
0.855501
20
0.169005
11
0.852489
21
0.164986
0
LINE
8
BLACK
6
CONTINUOUS
10
0.852489
20
0.164986
11
0.852153
21
0.164372
0
LINE
8
BLACK
6
CONTINUOUS
10
0.852153
20
0.164372
11
0.850375
21
0.15963
0
LINE
8
BLACK
6
CONTINUOUS
10
0.850375
20
0.15963
11
0.850232
21
0.15903
0
LINE
8
BLACK
6
CONTINUOUS
10
0.850232
20
0.15903
11
0.850015
21
0.157027
0
LINE
8
BLACK
6
CONTINUOUS
10
0.850015
20
0.157027
11
0.85
21
0.156759
0
LINE
8
BLACK
6
CONTINUOUS
10
0.85
20
0.156759
11
0.85
21
0.135713
0
LINE
8
BLACK
6
CONTINUOUS
10
0.85
20
0.135713
11
0.850176
21
0.135113
0
LINE
8
BLACK
6
CONTINUOUS
10
0.850176
20
0.135113
11
0.850231
21
0.135066
0
LINE
8
BLACK
6
CONTINUOUS
10
0.850231
20
0.235066
11
0.850533
21
0.235
0
LINE
8
BLACK
6
CONTINUOUS
10
0.850533
20
0.235
11
0.87
21
0.235
0
LINE
8
BLACK
6
CONTINUOUS
10
0.87
20
0.235
11
0.87
21
0.255
0
LINE
8
BLACK
6
CONTINUOUS
10
0.87
20
0.255
11
0.89
21
0.255
0
LINE
8
BLACK
6
CONTINUOUS
10
0.89
20
0.255
11
0.89
21
0.274287
0
LINE
8
BLACK
6
CONTINUOUS
10
0.89
20
0.274287
11
0.889824
21
0.274887
0
LINE
8
BLACK
6
CONTINUOUS
10
0.889824
20
0.274887
11
0.889769
21
0.274934
0
LINE
8
BLACK
6
CONTINUOUS
10
0.889769
20
0.274934
11
0.889467
21
0.275
0
LINE
8
BLACK
6
CONTINUOUS
10
0.889467
20
0.275
11
0.868241
21
0.275
0
LINE
8
BLACK
6
CONTINUOUS
10
0.868241
20
0.275
11
0.867973
21
0.274985
0
LINE
8
BLACK
6
CONTINUOUS
10
0.867973
20
0.274985
11
0.86597
21
0.274768
0
LINE
8
BLACK
6
CONTINUOUS
10
0.86597
20
0.274768
11
0.86537
21
0.274625
0
LINE
8
BLACK
6
CONTINUOUS
10
0.86537
20
0.274625
11
0.860628
21
0.272847
0
LINE
8
BLACK
6
CONTINUOUS
10
0.860628
20
0.272847
11
0.860014
21
0.272511
0
LINE
8
BLACK
6
CONTINUOUS
10
0.860014
20
0.272511
11
0.855995
21
0.269499
0
LINE
8
BLACK
6
CONTINUOUS
10
0.855995
20
0.269499
11
0.855501
21
0.269005
0
LINE
8
BLACK
6
CONTINUOUS
10
0.855501
20
0.269005
11
0.852489
21
0.264986
0
LINE
8
BLACK
6
CONTINUOUS
10
0.852489
20
0.264986
11
0.852153
21
0.264372
0
LINE
8
BLACK
6
CONTINUOUS
10
0.852153
20
0.264372
11
0.850375
21
0.25963
0
LINE
8
BLACK
6
CONTINUOUS
10
0.850375
20
0.25963
11
0.850232
21
0.25903
0
LINE
8
BLACK
6
CONTINUOUS
10
0.850232
20
0.25903
11
0.850015
21
0.257027
0
LINE
8
BLACK
6
CONTINUOUS
10
0.850015
20
0.257027
11
0.85
21
0.256759
0
LINE
8
BLACK
6
CONTINUOUS
10
0.85
20
0.256759
11
0.85
21
0.235713
0
LINE
8
BLACK
6
CONTINUOUS
10
0.85
20
0.235713
11
0.850176
21
0.235113
0
LINE
8
BLACK
6
CONTINUOUS
10
0.850176
20
0.235113
11
0.850231
21
0.235066
0
LINE
8
BLACK
6
CONTINUOUS
10
1.03
20
0.095
11
0.97
21
0.095
0
LINE
8
BLACK
6
CONTINUOUS
10
0.97
20
0.095
11
0.97
21
0.155
0
LINE
8
BLACK
6
CONTINUOUS
10
0.97
20
0.155
11
1.03
21
0.155
0
LINE
8
BLACK
6
CONTINUOUS
10
1.03
20
0.155
11
1.03
21
0.095
0
LINE
8
BLACK
6
CONTINUOUS
10
0.803658
20
0.638598
11
0.803671
21
0.638273
0
LINE
8
BLACK
6
CONTINUOUS
10
0.803671
20
0.638273
11
0.803613
21
0.638081
0
LINE
8
BLACK
6
CONTINUOUS
10
0.803613
20
0.638081
11
0.803574
21
0.637631
0
LINE
8
BLACK
6
CONTINUOUS
10
0.803574
20
0.637631
11
0.802931
21
0.635798
0
LINE
8
BLACK
6
CONTINUOUS
10
0.802931
20
0.635798
11
0.802374
21
0.633938
0
LINE
8
BLACK
6
CONTINUOUS
10
0.802374
20
0.633938
11
0.802184
21
0.633671
0
LINE
8
BLACK
6
CONTINUOUS
10
0.802184
20
0.633671
11
0.802075
21
0.633362
0
LINE
8
BLACK
6
CONTINUOUS
10
0.802075
20
0.633362
11
0.800873
21
0.631837
0
LINE
8
BLACK
6
CONTINUOUS
10
0.800873
20
0.631837
11
0.799744
21
0.630256
0
LINE
8
BLACK
6
CONTINUOUS
10
0.799744
20
0.630256
11
0.71937
21
0.549883
0
LINE
8
BLACK
6
CONTINUOUS
10
0.71937
20
0.549883
11
0.71937
21
0.43378
0
LINE
8
BLACK
6
CONTINUOUS
10
0.71937
20
0.43378
11
0.862559
21
0.43378
0
LINE
8
BLACK
6
CONTINUOUS
10
0.862559
20
0.43378
11
0.863961
21
0.433658
0
LINE
8
BLACK
6
CONTINUOUS
10
0.863961
20
0.433658
11
0.864286
21
0.433671
0
LINE
8
BLACK
6
CONTINUOUS
10
0.864286
20
0.433671
11
0.864479
21
0.433613
0
LINE
8
BLACK
6
CONTINUOUS
10
0.864479
20
0.433613
11
0.864928
21
0.433574
0
LINE
8
BLACK
6
CONTINUOUS
10
0.864928
20
0.433574
11
0.86676
21
0.432931
0
LINE
8
BLACK
6
CONTINUOUS
10
0.86676
20
0.432931
11
0.868621
21
0.432374
0
LINE
8
BLACK
6
CONTINUOUS
10
0.868621
20
0.432374
11
0.868888
21
0.432184
0
LINE
8
BLACK
6
CONTINUOUS
10
0.868888
20
0.432184
11
0.869197
21
0.432075
0
LINE
8
BLACK
6
CONTINUOUS
10
0.869197
20
0.432075
11
0.870723
21
0.430873
0
LINE
8
BLACK
6
CONTINUOUS
10
0.870723
20
0.430873
11
0.872303
21
0.429744
0
LINE
8
BLACK
6
CONTINUOUS
10
0.872303
20
0.429744
11
1.00974
21
0.292303
0
LINE
8
BLACK
6
CONTINUOUS
10
1.00974
20
0.292303
11
1.01065
21
0.291225
0
LINE
8
BLACK
6
CONTINUOUS
10
1.01065
20
0.291225
11
1.01089
21
0.291005
0
LINE
8
BLACK
6
CONTINUOUS
10
1.01089
20
0.291005
11
1.01098
21
0.290828
0
LINE
8
BLACK
6
CONTINUOUS
10
1.01098
20
0.290828
11
1.01127
21
0.290482
0
LINE
8
BLACK
6
CONTINUOUS
10
1.01127
20
0.290482
11
1.01211
21
0.288732
0
LINE
8
BLACK
6
CONTINUOUS
10
1.01211
20
0.288732
11
1.01304
21
0.287022
0
LINE
8
BLACK
6
CONTINUOUS
10
1.01304
20
0.287022
11
1.01309
21
0.286699
0
LINE
8
BLACK
6
CONTINUOUS
10
1.01309
20
0.286699
11
1.01323
21
0.286403
0
LINE
8
BLACK
6
CONTINUOUS
10
1.01323
20
0.286403
11
1.01346
21
0.284475
0
LINE
8
BLACK
6
CONTINUOUS
10
1.01346
20
0.284475
11
1.01378
21
0.282559
0
LINE
8
BLACK
6
CONTINUOUS
10
1.01378
20
0.282559
11
1.01378
21
0.255
0
LINE
8
BLACK
6
CONTINUOUS
10
1.01378
20
0.255
11
1.03
21
0.255
0
LINE
8
BLACK
6
CONTINUOUS
10
1.03
20
0.255
11
1.03
21
0.195
0
LINE
8
BLACK
6
CONTINUOUS
10
1.03
20
0.195
11
0.97
21
0.195
0
LINE
8
BLACK
6
CONTINUOUS
10
0.97
20
0.195
11
0.97
21
0.255
0
LINE
8
BLACK
6
CONTINUOUS
10
0.97
20
0.255
11
0.98622
21
0.255
0
LINE
8
BLACK
6
CONTINUOUS
10
0.98622
20
0.255
11
0.98622
21
0.276851
0
LINE
8
BLACK
6
CONTINUOUS
10
0.98622
20
0.276851
11
0.856851
21
0.40622
0
LINE
8
BLACK
6
CONTINUOUS
10
0.856851
20
0.40622
11
0.71937
21
0.40622
0
LINE
8
BLACK
6
CONTINUOUS
10
0.71937
20
0.40622
11
0.71937
21
0.180591
0
LINE
8
BLACK
6
CONTINUOUS
10
0.71937
20
0.180591
11
0.719249
21
0.179189
0
LINE
8
BLACK
6
CONTINUOUS
10
0.719249
20
0.179189
11
0.719261
21
0.178864
0
LINE
8
BLACK
6
CONTINUOUS
10
0.719261
20
0.178864
11
0.719204
21
0.178671
0
LINE
8
BLACK
6
CONTINUOUS
10
0.719204
20
0.178671
11
0.719165
21
0.178221
0
LINE
8
BLACK
6
CONTINUOUS
10
0.719165
20
0.178221
11
0.718522
21
0.176389
0
LINE
8
BLACK
6
CONTINUOUS
10
0.718522
20
0.176389
11
0.717965
21
0.174528
0
LINE
8
BLACK
6
CONTINUOUS
10
0.717965
20
0.174528
11
0.717774
21
0.174262
0
LINE
8
BLACK
6
CONTINUOUS
10
0.717774
20
0.174262
11
0.717666
21
0.173952
0
LINE
8
BLACK
6
CONTINUOUS
10
0.717666
20
0.173952
11
0.716463
21
0.172427
0
LINE
8
BLACK
6
CONTINUOUS
10
0.716463
20
0.172427
11
0.715334
21
0.170847
0
LINE
8
BLACK
6
CONTINUOUS
10
0.715334
20
0.170847
11
0.68
21
0.135513
0
LINE
8
BLACK
6
CONTINUOUS
10
0.68
20
0.135513
11
0.68
21
0.095
0
LINE
8
BLACK
6
CONTINUOUS
10
0.68
20
0.095
11
0.62
21
0.095
0
LINE
8
BLACK
6
CONTINUOUS
10
0.62
20
0.095
11
0.62
21
0.155
0
LINE
8
BLACK
6
CONTINUOUS
10
0.62
20
0.155
11
0.660513
21
0.155
0
LINE
8
BLACK
6
CONTINUOUS
10
0.660513
20
0.155
11
0.691811
21
0.186298
0
LINE
8
BLACK
6
CONTINUOUS
10
0.691811
20
0.186298
11
0.691811
21
0.555591
0
LINE
8
BLACK
6
CONTINUOUS
10
0.691811
20
0.555591
11
0.691932
21
0.556993
0
LINE
8
BLACK
6
CONTINUOUS
10
0.691932
20
0.556993
11
0.69192
21
0.557318
0
LINE
8
BLACK
6
CONTINUOUS
10
0.69192
20
0.557318
11
0.691977
21
0.55751
0
LINE
8
BLACK
6
CONTINUOUS
10
0.691977
20
0.55751
11
0.692016
21
0.55796
0
LINE
8
BLACK
6
CONTINUOUS
10
0.692016
20
0.55796
11
0.69266
21
0.559792
0
LINE
8
BLACK
6
CONTINUOUS
10
0.69266
20
0.559792
11
0.693216
21
0.561653
0
LINE
8
BLACK
6
CONTINUOUS
10
0.693216
20
0.561653
11
0.693407
21
0.56192
0
LINE
8
BLACK
6
CONTINUOUS
10
0.693407
20
0.56192
11
0.693516
21
0.562229
0
LINE
8
BLACK
6
CONTINUOUS
10
0.693516
20
0.562229
11
0.694718
21
0.563754
0
LINE
8
BLACK
6
CONTINUOUS
10
0.694718
20
0.563754
11
0.695847
21
0.565334
0
LINE
8
BLACK
6
CONTINUOUS
10
0.695847
20
0.565334
11
0.77622
21
0.645708
0
LINE
8
BLACK
6
CONTINUOUS
10
0.77622
20
0.645708
11
0.77622
21
0.771142
0
LINE
8
BLACK
6
CONTINUOUS
10
0.77622
20
0.771142
11
0.682943
21
0.771142
0
LINE
8
BLACK
6
CONTINUOUS
10
0.682943
20
0.771142
11
0.68274
21
0.770744
0
LINE
8
BLACK
6
CONTINUOUS
10
0.68274
20
0.770744
11
0.679256
21
0.76726
0
LINE
8
BLACK
6
CONTINUOUS
10
0.679256
20
0.76726
11
0.674866
21
0.765023
0
LINE
8
BLACK
6
CONTINUOUS
10
0.674866
20
0.765023
11
0.67
21
0.764252
0
LINE
8
BLACK
6
CONTINUOUS
10
0.67
20
0.764252
11
0.665134
21
0.765023
0
LINE
8
BLACK
6
CONTINUOUS
10
0.665134
20
0.765023
11
0.660744
21
0.76726
0
LINE
8
BLACK
6
CONTINUOUS
10
0.660744
20
0.76726
11
0.65726
21
0.770744
0
LINE
8
BLACK
6
CONTINUOUS
10
0.65726
20
0.770744
11
0.657057
21
0.771142
0
LINE
8
BLACK
6
CONTINUOUS
10
0.657057
20
0.771142
11
0.623669
21
0.771142
0
LINE
8
BLACK
6
CONTINUOUS
10
0.623669
20
0.771142
11
0.578631
21
0.726103
0
LINE
8
BLACK
6
CONTINUOUS
10
0.578631
20
0.726103
11
0.578894
21
0.725525
0
LINE
8
BLACK
6
CONTINUOUS
10
0.578894
20
0.725525
11
0.579685
21
0.72
0
LINE
8
BLACK
6
CONTINUOUS
10
0.579685
20
0.72
11
0.579679
21
0.719519
0
LINE
8
BLACK
6
CONTINUOUS
10
0.579679
20
0.719519
11
0.578753
21
0.714015
0
LINE
8
BLACK
6
CONTINUOUS
10
0.578753
20
0.714015
11
0.57632
21
0.708992
0
LINE
8
BLACK
6
CONTINUOUS
10
0.57632
20
0.708992
11
0.572574
21
0.704854
0
LINE
8
BLACK
6
CONTINUOUS
10
0.572574
20
0.704854
11
0.567818
21
0.701934
0
LINE
8
BLACK
6
CONTINUOUS
10
0.567818
20
0.701934
11
0.562433
21
0.700466
0
LINE
8
BLACK
6
CONTINUOUS
10
0.562433
20
0.700466
11
0.556853
21
0.700568
0
LINE
8
BLACK
6
CONTINUOUS
10
0.556853
20
0.700568
11
0.551525
21
0.702233
0
LINE
8
BLACK
6
CONTINUOUS
10
0.551525
20
0.702233
11
0.546879
21
0.705325
0
LINE
8
BLACK
6
CONTINUOUS
10
0.546879
20
0.705325
11
0.543288
21
0.709598
0
LINE
8
BLACK
6
CONTINUOUS
10
0.543288
20
0.709598
11
0.54104
21
0.714706
0
LINE
8
BLACK
6
CONTINUOUS
10
0.54104
20
0.714706
11
0.540316
21
0.720241
0
LINE
8
BLACK
6
CONTINUOUS
10
0.540316
20
0.720241
11
0.541175
21
0.725755
0
LINE
8
BLACK
6
CONTINUOUS
10
0.541175
20
0.725755
11
0.543547
21
0.730808
0
LINE
8
BLACK
6
CONTINUOUS
10
0.543547
20
0.730808
11
0.547242
21
0.734991
0
LINE
8
BLACK
6
CONTINUOUS
10
0.547242
20
0.734991
11
0.551962
21
0.737969
0
LINE
8
BLACK
6
CONTINUOUS
10
0.551962
20
0.737969
11
0.557328
21
0.739503
0
LINE
8
BLACK
6
CONTINUOUS
10
0.557328
20
0.739503
11
0.56291
21
0.739469
0
LINE
8
BLACK
6
CONTINUOUS
10
0.56291
20
0.739469
11
0.566013
21
0.738541
0
LINE
8
BLACK
6
CONTINUOUS
10
0.566013
20
0.738541
11
0.613736
21
0.786264
0
LINE
8
BLACK
6
CONTINUOUS
10
0.613736
20
0.786264
11
0.615175
21
0.787429
0
LINE
8
BLACK
6
CONTINUOUS
10
0.615175
20
0.787429
11
0.61583
21
0.78768
0
LINE
8
BLACK
6
CONTINUOUS
10
0.61583
20
0.78768
11
0.616397
21
0.788092
0
LINE
8
BLACK
6
CONTINUOUS
10
0.616397
20
0.788092
11
0.617532
21
0.788334
0
LINE
8
BLACK
6
CONTINUOUS
10
0.617532
20
0.788334
11
0.618614
21
0.788749
0
LINE
8
BLACK
6
CONTINUOUS
10
0.618614
20
0.788749
11
0.619314
21
0.788713
0
LINE
8
BLACK
6
CONTINUOUS
10
0.619314
20
0.788713
11
0.62
21
0.788858
0
LINE
8
BLACK
6
CONTINUOUS
10
0.62
20
0.788858
11
0.657057
21
0.788858
0
LINE
8
BLACK
6
CONTINUOUS
10
0.657057
20
0.788858
11
0.65726
21
0.789256
0
LINE
8
BLACK
6
CONTINUOUS
10
0.65726
20
0.789256
11
0.660744
21
0.79274
0
LINE
8
BLACK
6
CONTINUOUS
10
0.660744
20
0.79274
11
0.665134
21
0.794977
0
LINE
8
BLACK
6
CONTINUOUS
10
0.665134
20
0.794977
11
0.67
21
0.795748
0
LINE
8
BLACK
6
CONTINUOUS
10
0.67
20
0.795748
11
0.674866
21
0.794977
0
LINE
8
BLACK
6
CONTINUOUS
10
0.674866
20
0.794977
11
0.679256
21
0.79274
0
LINE
8
BLACK
6
CONTINUOUS
10
0.679256
20
0.79274
11
0.68274
21
0.789256
0
LINE
8
BLACK
6
CONTINUOUS
10
0.68274
20
0.789256
11
0.682943
21
0.788858
0
LINE
8
BLACK
6
CONTINUOUS
10
0.682943
20
0.788858
11
0.77622
21
0.788858
0
LINE
8
BLACK
6
CONTINUOUS
10
0.77622
20
0.788858
11
0.77622
21
0.987769
0
LINE
8
BLACK
6
CONTINUOUS
10
0.77622
20
0.987769
11
0.76
21
0.987769
0
LINE
8
BLACK
6
CONTINUOUS
10
0.76
20
0.987769
11
0.76
21
1.04777
0
LINE
8
BLACK
6
CONTINUOUS
10
0.76
20
1.04777
11
0.82
21
1.04777
0
LINE
8
BLACK
6
CONTINUOUS
10
0.82
20
1.04777
11
0.82
21
0.987769
0
LINE
8
BLACK
6
CONTINUOUS
10
0.82
20
0.987769
11
0.80378
21
0.987769
0
LINE
8
BLACK
6
CONTINUOUS
10
0.80378
20
0.987769
11
0.80378
21
0.64
0
LINE
8
BLACK
6
CONTINUOUS
10
0.80378
20
0.64
11
0.803658
21
0.638598
0
LINE
8
BLACK
6
CONTINUOUS
10
0.68
20
0.195
11
0.62
21
0.195
0
LINE
8
BLACK
6
CONTINUOUS
10
0.62
20
0.195
11
0.62
21
0.255
0
LINE
8
BLACK
6
CONTINUOUS
10
0.62
20
0.255
11
0.68
21
0.255
0
LINE
8
BLACK
6
CONTINUOUS
10
0.68
20
0.255
11
0.68
21
0.195
0
LINE
8
BLACK
6
CONTINUOUS
10
1.2
20
0.99
11
1.17886
21
0.99
0
LINE
8
BLACK
6
CONTINUOUS
10
1.17886
20
0.99
11
1.17886
21
0.86
0
LINE
8
BLACK
6
CONTINUOUS
10
1.17886
20
0.86
11
1.17866
21
0.858158
0
LINE
8
BLACK
6
CONTINUOUS
10
1.17866
20
0.858158
11
1.17838
21
0.857518
0
LINE
8
BLACK
6
CONTINUOUS
10
1.17838
20
0.857518
11
1.17827
21
0.856825
0
LINE
8
BLACK
6
CONTINUOUS
10
1.17827
20
0.856825
11
1.17764
21
0.855853
0
LINE
8
BLACK
6
CONTINUOUS
10
1.17764
20
0.855853
11
1.17717
21
0.854793
0
LINE
8
BLACK
6
CONTINUOUS
10
1.17717
20
0.854793
11
1.17665
21
0.854324
0
LINE
8
BLACK
6
CONTINUOUS
10
1.17665
20
0.854324
11
1.17626
21
0.853736
0
LINE
8
BLACK
6
CONTINUOUS
10
1.17626
20
0.853736
11
0.805308
21
0.48278
0
LINE
8
BLACK
6
CONTINUOUS
10
0.805308
20
0.48278
11
0.805748
21
0.48
0
LINE
8
BLACK
6
CONTINUOUS
10
0.805748
20
0.48
11
0.804977
21
0.475134
0
LINE
8
BLACK
6
CONTINUOUS
10
0.804977
20
0.475134
11
0.80274
21
0.470744
0
LINE
8
BLACK
6
CONTINUOUS
10
0.80274
20
0.470744
11
0.799256
21
0.46726
0
LINE
8
BLACK
6
CONTINUOUS
10
0.799256
20
0.46726
11
0.794866
21
0.465023
0
LINE
8
BLACK
6
CONTINUOUS
10
0.794866
20
0.465023
11
0.79
21
0.464252
0
LINE
8
BLACK
6
CONTINUOUS
10
0.79
20
0.464252
11
0.785134
21
0.465023
0
LINE
8
BLACK
6
CONTINUOUS
10
0.785134
20
0.465023
11
0.780744
21
0.46726
0
LINE
8
BLACK
6
CONTINUOUS
10
0.780744
20
0.46726
11
0.77726
21
0.470744
0
LINE
8
BLACK
6
CONTINUOUS
10
0.77726
20
0.470744
11
0.775023
21
0.475134
0
LINE
8
BLACK
6
CONTINUOUS
10
0.775023
20
0.475134
11
0.774252
21
0.48
0
LINE
8
BLACK
6
CONTINUOUS
10
0.774252
20
0.48
11
0.775023
21
0.484866
0
LINE
8
BLACK
6
CONTINUOUS
10
0.775023
20
0.484866
11
0.77726
21
0.489256
0
LINE
8
BLACK
6
CONTINUOUS
10
0.77726
20
0.489256
11
0.780744
21
0.49274
0
LINE
8
BLACK
6
CONTINUOUS
10
0.780744
20
0.49274
11
0.785134
21
0.494977
0
LINE
8
BLACK
6
CONTINUOUS
10
0.785134
20
0.494977
11
0.79
21
0.495748
0
LINE
8
BLACK
6
CONTINUOUS
10
0.79
20
0.495748
11
0.79278
21
0.495308
0
LINE
8
BLACK
6
CONTINUOUS
10
0.79278
20
0.495308
11
1.16114
21
0.863669
0
LINE
8
BLACK
6
CONTINUOUS
10
1.16114
20
0.863669
11
1.16114
21
0.99
0
LINE
8
BLACK
6
CONTINUOUS
10
1.16114
20
0.99
11
1.14
21
0.99
0
LINE
8
BLACK
6
CONTINUOUS
10
1.14
20
0.99
11
1.14
21
1.05
0
LINE
8
BLACK
6
CONTINUOUS
10
1.14
20
1.05
11
1.2
21
1.05
0
LINE
8
BLACK
6
CONTINUOUS
10
1.2
20
1.05
11
1.2
21
0.99
0
LINE
8
BLACK
6
CONTINUOUS
10
0.855748
20
0.48
11
0.854977
21
0.475134
0
LINE
8
BLACK
6
CONTINUOUS
10
0.854977
20
0.475134
11
0.85274
21
0.470744
0
LINE
8
BLACK
6
CONTINUOUS
10
0.85274
20
0.470744
11
0.849256
21
0.46726
0
LINE
8
BLACK
6
CONTINUOUS
10
0.849256
20
0.46726
11
0.844866
21
0.465023
0
LINE
8
BLACK
6
CONTINUOUS
10
0.844866
20
0.465023
11
0.84
21
0.464252
0
LINE
8
BLACK
6
CONTINUOUS
10
0.84
20
0.464252
11
0.835134
21
0.465023
0
LINE
8
BLACK
6
CONTINUOUS
10
0.835134
20
0.465023
11
0.830744
21
0.46726
0
LINE
8
BLACK
6
CONTINUOUS
10
0.830744
20
0.46726
11
0.82726
21
0.470744
0
LINE
8
BLACK
6
CONTINUOUS
10
0.82726
20
0.470744
11
0.825023
21
0.475134
0
LINE
8
BLACK
6
CONTINUOUS
10
0.825023
20
0.475134
11
0.824252
21
0.48
0
LINE
8
BLACK
6
CONTINUOUS
10
0.824252
20
0.48
11
0.825023
21
0.484866
0
LINE
8
BLACK
6
CONTINUOUS
10
0.825023
20
0.484866
11
0.82726
21
0.489256
0
LINE
8
BLACK
6
CONTINUOUS
10
0.82726
20
0.489256
11
0.830744
21
0.49274
0
LINE
8
BLACK
6
CONTINUOUS
10
0.830744
20
0.49274
11
0.835134
21
0.494977
0
LINE
8
BLACK
6
CONTINUOUS
10
0.835134
20
0.494977
11
0.84
21
0.495748
0
LINE
8
BLACK
6
CONTINUOUS
10
0.84
20
0.495748
11
0.84278
21
0.495308
0
LINE
8
BLACK
6
CONTINUOUS
10
0.84278
20
0.495308
11
1.01374
21
0.666264
0
LINE
8
BLACK
6
CONTINUOUS
10
1.01374
20
0.666264
11
1.01518
21
0.667429
0
LINE
8
BLACK
6
CONTINUOUS
10
1.01518
20
0.667429
11
1.01583
21
0.66768
0
LINE
8
BLACK
6
CONTINUOUS
10
1.01583
20
0.66768
11
1.0164
21
0.668092
0
LINE
8
BLACK
6
CONTINUOUS
10
1.0164
20
0.668092
11
1.01753
21
0.668334
0
LINE
8
BLACK
6
CONTINUOUS
10
1.01753
20
0.668334
11
1.01861
21
0.668749
0
LINE
8
BLACK
6
CONTINUOUS
10
1.01861
20
0.668749
11
1.01931
21
0.668713
0
LINE
8
BLACK
6
CONTINUOUS
10
1.01931
20
0.668713
11
1.02
21
0.668858
0
LINE
8
BLACK
6
CONTINUOUS
10
1.02
20
0.668858
11
1.27
21
0.668858
0
LINE
8
BLACK
6
CONTINUOUS
10
1.27
20
0.668858
11
1.27184
21
0.668665
0
LINE
8
BLACK
6
CONTINUOUS
10
1.27184
20
0.668665
11
1.27248
21
0.66838
0
LINE
8
BLACK
6
CONTINUOUS
10
1.27248
20
0.66838
11
1.27317
21
0.66827
0
LINE
8
BLACK
6
CONTINUOUS
10
1.27317
20
0.66827
11
1.27415
21
0.667638
0
LINE
8
BLACK
6
CONTINUOUS
10
1.27415
20
0.667638
11
1.27521
21
0.667166
0
LINE
8
BLACK
6
CONTINUOUS
10
1.27521
20
0.667166
11
1.27568
21
0.666646
0
LINE
8
BLACK
6
CONTINUOUS
10
1.27568
20
0.666646
11
1.27626
21
0.666264
0
LINE
8
BLACK
6
CONTINUOUS
10
1.27626
20
0.666264
11
1.31253
21
0.63
0
LINE
8
BLACK
6
CONTINUOUS
10
1.31253
20
0.63
11
1.37
21
0.63
0
LINE
8
BLACK
6
CONTINUOUS
10
1.37
20
0.63
11
1.37
21
0.57
0
LINE
8
BLACK
6
CONTINUOUS
10
1.37
20
0.57
11
1.31
21
0.57
0
LINE
8
BLACK
6
CONTINUOUS
10
1.31
20
0.57
11
1.31
21
0.607473
0
LINE
8
BLACK
6
CONTINUOUS
10
1.31
20
0.607473
11
1.26633
21
0.651142
0
LINE
8
BLACK
6
CONTINUOUS
10
1.26633
20
0.651142
11
1.02367
21
0.651142
0
LINE
8
BLACK
6
CONTINUOUS
10
1.02367
20
0.651142
11
0.855308
21
0.48278
0
LINE
8
BLACK
6
CONTINUOUS
10
0.855308
20
0.48278
11
0.855748
21
0.48
0
LINE
8
BLACK
6
CONTINUOUS
10
0.92
20
0.987769
11
0.898858
21
0.987769
0
LINE
8
BLACK
6
CONTINUOUS
10
0.898858
20
0.987769
11
0.898858
21
0.63
0
LINE
8
BLACK
6
CONTINUOUS
10
0.898858
20
0.63
11
0.898665
21
0.628158
0
LINE
8
BLACK
6
CONTINUOUS
10
0.898665
20
0.628158
11
0.89838
21
0.627518
0
LINE
8
BLACK
6
CONTINUOUS
10
0.89838
20
0.627518
11
0.89827
21
0.626825
0
LINE
8
BLACK
6
CONTINUOUS
10
0.89827
20
0.626825
11
0.897638
21
0.625853
0
LINE
8
BLACK
6
CONTINUOUS
10
0.897638
20
0.625853
11
0.897166
21
0.624793
0
LINE
8
BLACK
6
CONTINUOUS
10
0.897166
20
0.624793
11
0.896646
21
0.624324
0
LINE
8
BLACK
6
CONTINUOUS
10
0.896646
20
0.624324
11
0.896264
21
0.623736
0
LINE
8
BLACK
6
CONTINUOUS
10
0.896264
20
0.623736
11
0.826264
21
0.553736
0
LINE
8
BLACK
6
CONTINUOUS
10
0.826264
20
0.553736
11
0.824825
21
0.552571
0
LINE
8
BLACK
6
CONTINUOUS
10
0.824825
20
0.552571
11
0.824183
21
0.552324
0
LINE
8
BLACK
6
CONTINUOUS
10
0.824183
20
0.552324
11
0.777406
21
0.505547
0
LINE
8
BLACK
6
CONTINUOUS
10
0.777406
20
0.505547
11
0.775966
21
0.504382
0
LINE
8
BLACK
6
CONTINUOUS
10
0.775966
20
0.504382
11
0.775312
21
0.504131
0
LINE
8
BLACK
6
CONTINUOUS
10
0.775312
20
0.504131
11
0.774745
21
0.503719
0
LINE
8
BLACK
6
CONTINUOUS
10
0.774745
20
0.503719
11
0.77361
21
0.503477
0
LINE
8
BLACK
6
CONTINUOUS
10
0.77361
20
0.503477
11
0.772528
21
0.503062
0
LINE
8
BLACK
6
CONTINUOUS
10
0.772528
20
0.503062
11
0.771827
21
0.503098
0
LINE
8
BLACK
6
CONTINUOUS
10
0.771827
20
0.503098
11
0.771142
21
0.502953
0
LINE
8
BLACK
6
CONTINUOUS
10
0.771142
20
0.502953
11
0.76548
21
0.502953
0
LINE
8
BLACK
6
CONTINUOUS
10
0.76548
20
0.502953
11
0.765308
21
0.50278
0
LINE
8
BLACK
6
CONTINUOUS
10
0.765308
20
0.50278
11
0.765748
21
0.5
0
LINE
8
BLACK
6
CONTINUOUS
10
0.765748
20
0.5
11
0.764977
21
0.495134
0
LINE
8
BLACK
6
CONTINUOUS
10
0.764977
20
0.495134
11
0.76274
21
0.490744
0
LINE
8
BLACK
6
CONTINUOUS
10
0.76274
20
0.490744
11
0.759256
21
0.48726
0
LINE
8
BLACK
6
CONTINUOUS
10
0.759256
20
0.48726
11
0.754866
21
0.485023
0
LINE
8
BLACK
6
CONTINUOUS
10
0.754866
20
0.485023
11
0.75
21
0.484252
0
LINE
8
BLACK
6
CONTINUOUS
10
0.75
20
0.484252
11
0.745134
21
0.485023
0
LINE
8
BLACK
6
CONTINUOUS
10
0.745134
20
0.485023
11
0.740744
21
0.48726
0
LINE
8
BLACK
6
CONTINUOUS
10
0.740744
20
0.48726
11
0.73726
21
0.490744
0
LINE
8
BLACK
6
CONTINUOUS
10
0.73726
20
0.490744
11
0.735023
21
0.495134
0
LINE
8
BLACK
6
CONTINUOUS
10
0.735023
20
0.495134
11
0.734252
21
0.5
0
LINE
8
BLACK
6
CONTINUOUS
10
0.734252
20
0.5
11
0.735023
21
0.504866
0
LINE
8
BLACK
6
CONTINUOUS
10
0.735023
20
0.504866
11
0.73726
21
0.509256
0
LINE
8
BLACK
6
CONTINUOUS
10
0.73726
20
0.509256
11
0.740744
21
0.51274
0
LINE
8
BLACK
6
CONTINUOUS
10
0.740744
20
0.51274
11
0.745134
21
0.514977
0
LINE
8
BLACK
6
CONTINUOUS
10
0.745134
20
0.514977
11
0.75
21
0.515748
0
LINE
8
BLACK
6
CONTINUOUS
10
0.75
20
0.515748
11
0.75278
21
0.515308
0
LINE
8
BLACK
6
CONTINUOUS
10
0.75278
20
0.515308
11
0.755547
21
0.518075
0
LINE
8
BLACK
6
CONTINUOUS
10
0.755547
20
0.518075
11
0.756986
21
0.51924
0
LINE
8
BLACK
6
CONTINUOUS
10
0.756986
20
0.51924
11
0.757641
21
0.519491
0
LINE
8
BLACK
6
CONTINUOUS
10
0.757641
20
0.519491
11
0.758208
21
0.519903
0
LINE
8
BLACK
6
CONTINUOUS
10
0.758208
20
0.519903
11
0.759343
21
0.520145
0
LINE
8
BLACK
6
CONTINUOUS
10
0.759343
20
0.520145
11
0.760425
21
0.52056
0
LINE
8
BLACK
6
CONTINUOUS
10
0.760425
20
0.52056
11
0.761125
21
0.520524
0
LINE
8
BLACK
6
CONTINUOUS
10
0.761125
20
0.520524
11
0.761811
21
0.520669
0
LINE
8
BLACK
6
CONTINUOUS
10
0.761811
20
0.520669
11
0.767473
21
0.520669
0
LINE
8
BLACK
6
CONTINUOUS
10
0.767473
20
0.520669
11
0.813067
21
0.566264
0
LINE
8
BLACK
6
CONTINUOUS
10
0.813067
20
0.566264
11
0.814506
21
0.567429
0
LINE
8
BLACK
6
CONTINUOUS
10
0.814506
20
0.567429
11
0.815148
21
0.567676
0
LINE
8
BLACK
6
CONTINUOUS
10
0.815148
20
0.567676
11
0.881142
21
0.633669
0
LINE
8
BLACK
6
CONTINUOUS
10
0.881142
20
0.633669
11
0.881142
21
0.987769
0
LINE
8
BLACK
6
CONTINUOUS
10
0.881142
20
0.987769
11
0.86
21
0.987769
0
LINE
8
BLACK
6
CONTINUOUS
10
0.86
20
0.987769
11
0.86
21
1.04777
0
LINE
8
BLACK
6
CONTINUOUS
10
0.86
20
1.04777
11
0.92
21
1.04777
0
LINE
8
BLACK
6
CONTINUOUS
10
0.92
20
1.04777
11
0.92
21
0.987769
0
LINE
8
BLACK
6
CONTINUOUS
10
1.47
20
0.57
11
1.41
21
0.57
0
LINE
8
BLACK
6
CONTINUOUS
10
1.41
20
0.57
11
1.41
21
0.63
0
LINE
8
BLACK
6
CONTINUOUS
10
1.41
20
0.63
11
1.47
21
0.63
0
LINE
8
BLACK
6
CONTINUOUS
10
1.47
20
0.63
11
1.47
21
0.57
0
LINE
8
BLACK
6
CONTINUOUS
10
0.854866
20
0.854977
11
0.859256
21
0.85274
0
LINE
8
BLACK
6
CONTINUOUS
10
0.859256
20
0.85274
11
0.86274
21
0.849256
0
LINE
8
BLACK
6
CONTINUOUS
10
0.86274
20
0.849256
11
0.864977
21
0.844866
0
LINE
8
BLACK
6
CONTINUOUS
10
0.864977
20
0.844866
11
0.865748
21
0.84
0
LINE
8
BLACK
6
CONTINUOUS
10
0.865748
20
0.84
11
0.864977
21
0.835134
0
LINE
8
BLACK
6
CONTINUOUS
10
0.864977
20
0.835134
11
0.86274
21
0.830744
0
LINE
8
BLACK
6
CONTINUOUS
10
0.86274
20
0.830744
11
0.859256
21
0.82726
0
LINE
8
BLACK
6
CONTINUOUS
10
0.859256
20
0.82726
11
0.858858
21
0.827057
0
LINE
8
BLACK
6
CONTINUOUS
10
0.858858
20
0.827057
11
0.858858
21
0.63
0
LINE
8
BLACK
6
CONTINUOUS
10
0.858858
20
0.63
11
0.858665
21
0.628158
0
LINE
8
BLACK
6
CONTINUOUS
10
0.858665
20
0.628158
11
0.858312
21
0.627366
0
LINE
8
BLACK
6
CONTINUOUS
10
0.858312
20
0.627366
11
0.858144
21
0.626515
0
LINE
8
BLACK
6
CONTINUOUS
10
0.858144
20
0.626515
11
0.857571
21
0.625702
0
LINE
8
BLACK
6
CONTINUOUS
10
0.857571
20
0.625702
11
0.857166
21
0.624793
0
LINE
8
BLACK
6
CONTINUOUS
10
0.857166
20
0.624793
11
0.856522
21
0.624213
0
LINE
8
BLACK
6
CONTINUOUS
10
0.856522
20
0.624213
11
0.856022
21
0.623504
0
LINE
8
BLACK
6
CONTINUOUS
10
0.856022
20
0.623504
11
0.82225
21
0.592197
0
LINE
8
BLACK
6
CONTINUOUS
10
0.82225
20
0.592197
11
0.822598
21
0.59
0
LINE
8
BLACK
6
CONTINUOUS
10
0.822598
20
0.59
11
0.821827
21
0.585134
0
LINE
8
BLACK
6
CONTINUOUS
10
0.821827
20
0.585134
11
0.81959
21
0.580744
0
LINE
8
BLACK
6
CONTINUOUS
10
0.81959
20
0.580744
11
0.816106
21
0.57726
0
LINE
8
BLACK
6
CONTINUOUS
10
0.816106
20
0.57726
11
0.811716
21
0.575023
0
LINE
8
BLACK
6
CONTINUOUS
10
0.811716
20
0.575023
11
0.80685
21
0.574252
0
LINE
8
BLACK
6
CONTINUOUS
10
0.80685
20
0.574252
11
0.801983
21
0.575023
0
LINE
8
BLACK
6
CONTINUOUS
10
0.801983
20
0.575023
11
0.797593
21
0.57726
0
LINE
8
BLACK
6
CONTINUOUS
10
0.797593
20
0.57726
11
0.794109
21
0.580744
0
LINE
8
BLACK
6
CONTINUOUS
10
0.794109
20
0.580744
11
0.791872
21
0.585134
0
LINE
8
BLACK
6
CONTINUOUS
10
0.791872
20
0.585134
11
0.791102
21
0.59
0
LINE
8
BLACK
6
CONTINUOUS
10
0.791102
20
0.59
11
0.791872
21
0.594866
0
LINE
8
BLACK
6
CONTINUOUS
10
0.791872
20
0.594866
11
0.794109
21
0.599256
0
LINE
8
BLACK
6
CONTINUOUS
10
0.794109
20
0.599256
11
0.797593
21
0.60274
0
LINE
8
BLACK
6
CONTINUOUS
10
0.797593
20
0.60274
11
0.801983
21
0.604977
0
LINE
8
BLACK
6
CONTINUOUS
10
0.801983
20
0.604977
11
0.80685
21
0.605748
0
LINE
8
BLACK
6
CONTINUOUS
10
0.80685
20
0.605748
11
0.81023
21
0.605213
0
LINE
8
BLACK
6
CONTINUOUS
10
0.81023
20
0.605213
11
0.841142
21
0.633867
0
LINE
8
BLACK
6
CONTINUOUS
10
0.841142
20
0.633867
11
0.841142
21
0.827057
0
LINE
8
BLACK
6
CONTINUOUS
10
0.841142
20
0.827057
11
0.840744
21
0.82726
0
LINE
8
BLACK
6
CONTINUOUS
10
0.840744
20
0.82726
11
0.83726
21
0.830744
0
LINE
8
BLACK
6
CONTINUOUS
10
0.83726
20
0.830744
11
0.835023
21
0.835134
0
LINE
8
BLACK
6
CONTINUOUS
10
0.835023
20
0.835134
11
0.834252
21
0.84
0
LINE
8
BLACK
6
CONTINUOUS
10
0.834252
20
0.84
11
0.835023
21
0.844866
0
LINE
8
BLACK
6
CONTINUOUS
10
0.835023
20
0.844866
11
0.83726
21
0.849256
0
LINE
8
BLACK
6
CONTINUOUS
10
0.83726
20
0.849256
11
0.840744
21
0.85274
0
LINE
8
BLACK
6
CONTINUOUS
10
0.840744
20
0.85274
11
0.845134
21
0.854977
0
LINE
8
BLACK
6
CONTINUOUS
10
0.845134
20
0.854977
11
0.85
21
0.855748
0
LINE
8
BLACK
6
CONTINUOUS
10
0.85
20
0.855748
11
0.854866
21
0.854977
0
LINE
8
BLACK
6
CONTINUOUS
10
1.12272
20
1.16919
11
1.12455
21
1.16708
0
LINE
8
BLACK
6
CONTINUOUS
10
1.12455
20
1.16708
11
1.12495
21
1.16431
0
LINE
8
BLACK
6
CONTINUOUS
10
1.12495
20
1.16431
11
1.12401
21
1.16204
0
LINE
8
BLACK
6
CONTINUOUS
10
1.12401
20
1.16204
11
1.12226
21
1.15971
0
LINE
8
BLACK
6
CONTINUOUS
10
1.12226
20
1.15971
11
1.12025
21
1.15434
0
LINE
8
BLACK
6
CONTINUOUS
10
1.12025
20
1.15434
11
1.11998
21
1.1519
0
LINE
8
BLACK
6
CONTINUOUS
10
1.11998
20
1.1519
11
1.11998
21
1.0881
0
LINE
8
BLACK
6
CONTINUOUS
10
1.11998
20
1.0881
11
1.12025
21
1.08566
0
LINE
8
BLACK
6
CONTINUOUS
10
1.12025
20
1.08566
11
1.12226
21
1.08029
0
LINE
8
BLACK
6
CONTINUOUS
10
1.12226
20
1.08029
11
1.1257
21
1.0757
0
LINE
8
BLACK
6
CONTINUOUS
10
1.1257
20
1.0757
11
1.12598
21
1.07549
0
LINE
8
BLACK
6
CONTINUOUS
10
1.12598
20
1.07549
11
1.12801
21
1.07397
0
LINE
8
BLACK
6
CONTINUOUS
10
1.12801
20
1.07397
11
1.12968
21
1.07173
0
LINE
8
BLACK
6
CONTINUOUS
10
1.12968
20
1.07173
11
1.12988
21
1.06894
0
LINE
8
BLACK
6
CONTINUOUS
10
1.12988
20
1.06894
11
1.12854
21
1.06649
0
LINE
8
BLACK
6
CONTINUOUS
10
1.12854
20
1.06649
11
1.12801
21
1.06603
0
LINE
8
BLACK
6
CONTINUOUS
10
1.12801
20
1.06603
11
1.1257
21
1.0643
0
LINE
8
BLACK
6
CONTINUOUS
10
1.1257
20
1.0643
11
1.12226
21
1.05971
0
LINE
8
BLACK
6
CONTINUOUS
10
1.12226
20
1.05971
11
1.12025
21
1.05434
0
LINE
8
BLACK
6
CONTINUOUS
10
1.12025
20
1.05434
11
1.11998
21
1.0519
0
LINE
8
BLACK
6
CONTINUOUS
10
1.11998
20
1.0519
11
1.11998
21
0.988105
0
LINE
8
BLACK
6
CONTINUOUS
10
1.11998
20
0.988105
11
1.12025
21
0.985657
0
LINE
8
BLACK
6
CONTINUOUS
10
1.12025
20
0.985657
11
1.12226
21
0.980287
0
LINE
8
BLACK
6
CONTINUOUS
10
1.12226
20
0.980287
11
1.1257
21
0.975698
0
LINE
8
BLACK
6
CONTINUOUS
10
1.1257
20
0.975698
11
1.13029
21
0.972259
0
LINE
8
BLACK
6
CONTINUOUS
10
1.13029
20
0.972259
11
1.13566
21
0.970246
0
LINE
8
BLACK
6
CONTINUOUS
10
1.13566
20
0.970246
11
1.13636
21
0.97017
0
LINE
8
BLACK
6
CONTINUOUS
10
1.13636
20
0.97017
11
1.1367
21
0.970133
0
LINE
8
BLACK
6
CONTINUOUS
10
1.1367
20
0.970133
11
1.13928
21
0.969061
0
LINE
8
BLACK
6
CONTINUOUS
10
1.13928
20
0.969061
11
1.14087
21
0.966763
0
LINE
8
BLACK
6
CONTINUOUS
10
1.14087
20
0.966763
11
1.14112
21
0.965202
0
LINE
8
BLACK
6
CONTINUOUS
10
1.14112
20
0.965202
11
1.14112
21
0.874016
0
LINE
8
BLACK
6
CONTINUOUS
10
1.14112
20
0.874016
11
1.14033
21
0.871334
0
LINE
8
BLACK
6
CONTINUOUS
10
1.14033
20
0.871334
11
1.13967
21
0.870509
0
LINE
8
BLACK
6
CONTINUOUS
10
1.13967
20
0.870509
11
1.0302
21
0.761043
0
LINE
8
BLACK
6
CONTINUOUS
10
1.0302
20
0.761043
11
0.927346
21
0.658186
0
LINE
8
BLACK
6
CONTINUOUS
10
0.927346
20
0.658186
11
0.924893
21
0.656846
0
LINE
8
BLACK
6
CONTINUOUS
10
0.924893
20
0.656846
11
0.922105
21
0.657046
0
LINE
8
BLACK
6
CONTINUOUS
10
0.922105
20
0.657046
11
0.919867
21
0.658721
0
LINE
8
BLACK
6
CONTINUOUS
10
0.919867
20
0.658721
11
0.918891
21
0.66134
0
LINE
8
BLACK
6
CONTINUOUS
10
0.918891
20
0.66134
11
0.918878
21
0.661694
0
LINE
8
BLACK
6
CONTINUOUS
10
0.918878
20
0.661694
11
0.918878
21
0.96297
0
LINE
8
BLACK
6
CONTINUOUS
10
0.918878
20
0.96297
11
0.919665
21
0.965652
0
LINE
8
BLACK
6
CONTINUOUS
10
0.919665
20
0.965652
11
0.921778
21
0.967483
0
LINE
8
BLACK
6
CONTINUOUS
10
0.921778
20
0.967483
11
0.923303
21
0.967902
0
LINE
8
BLACK
6
CONTINUOUS
10
0.923303
20
0.967902
11
0.923644
21
0.967939
0
LINE
8
BLACK
6
CONTINUOUS
10
0.923644
20
0.967939
11
0.924343
21
0.968015
0
LINE
8
BLACK
6
CONTINUOUS
10
0.924343
20
0.968015
11
0.929713
21
0.970028
0
LINE
8
BLACK
6
CONTINUOUS
10
0.929713
20
0.970028
11
0.934302
21
0.973467
0
LINE
8
BLACK
6
CONTINUOUS
10
0.934302
20
0.973467
11
0.936043
21
0.97579
0
LINE
8
BLACK
6
CONTINUOUS
10
0.936043
20
0.97579
11
0.938281
21
0.977464
0
LINE
8
BLACK
6
CONTINUOUS
10
0.938281
20
0.977464
11
0.941069
21
0.977662
0
LINE
8
BLACK
6
CONTINUOUS
10
0.941069
20
0.977662
11
0.943522
21
0.976321
0
LINE
8
BLACK
6
CONTINUOUS
10
0.943522
20
0.976321
11
0.943982
21
0.97579
0
LINE
8
BLACK
6
CONTINUOUS
10
0.943982
20
0.97579
11
0.945501
21
0.973764
0
LINE
8
BLACK
6
CONTINUOUS
10
0.945501
20
0.973764
11
0.945995
21
0.973269
0
LINE
8
BLACK
6
CONTINUOUS
10
0.945995
20
0.973269
11
0.950014
21
0.970258
0
LINE
8
BLACK
6
CONTINUOUS
10
0.950014
20
0.970258
11
0.950628
21
0.969921
0
LINE
8
BLACK
6
CONTINUOUS
10
0.950628
20
0.969921
11
0.95537
21
0.968144
0
LINE
8
BLACK
6
CONTINUOUS
10
0.95537
20
0.968144
11
0.95597
21
0.968001
0
LINE
8
BLACK
6
CONTINUOUS
10
0.95597
20
0.968001
11
0.957973
21
0.967783
0
LINE
8
BLACK
6
CONTINUOUS
10
0.957973
20
0.967783
11
0.958241
21
0.967769
0
LINE
8
BLACK
6
CONTINUOUS
10
0.958241
20
0.967769
11
0.97622
21
0.967769
0
LINE
8
BLACK
6
CONTINUOUS
10
0.97622
20
0.967769
11
0.97622
21
0.987769
0
LINE
8
BLACK
6
CONTINUOUS
10
0.97622
20
0.987769
11
0.96
21
0.987769
0
LINE
8
BLACK
6
CONTINUOUS
10
0.96
20
0.987769
11
0.96
21
1.04777
0
LINE
8
BLACK
6
CONTINUOUS
10
0.96
20
1.04777
11
0.98
21
1.04777
0
LINE
8
BLACK
6
CONTINUOUS
10
0.98
20
1.04777
11
0.98
21
1.08777
0
LINE
8
BLACK
6
CONTINUOUS
10
0.98
20
1.08777
11
0.96
21
1.08777
0
LINE
8
BLACK
6
CONTINUOUS
10
0.96
20
1.08777
11
0.96
21
1.14777
0
LINE
8
BLACK
6
CONTINUOUS
10
0.96
20
1.14777
11
1.02
21
1.14777
0
LINE
8
BLACK
6
CONTINUOUS
10
1.02
20
1.14777
11
1.02
21
1.12777
0
LINE
8
BLACK
6
CONTINUOUS
10
1.02
20
1.12777
11
1.03929
21
1.12777
0
LINE
8
BLACK
6
CONTINUOUS
10
1.03929
20
1.12777
11
1.03989
21
1.12794
0
LINE
8
BLACK
6
CONTINUOUS
10
1.03989
20
1.12794
11
1.03993
21
1.128
0
LINE
8
BLACK
6
CONTINUOUS
10
1.03993
20
1.128
11
1.04
21
1.1283
0
LINE
8
BLACK
6
CONTINUOUS
10
1.04
20
1.1283
11
1.04
21
1.14953
0
LINE
8
BLACK
6
CONTINUOUS
10
1.04
20
1.14953
11
1.03999
21
1.1498
0
LINE
8
BLACK
6
CONTINUOUS
10
1.03999
20
1.1498
11
1.03977
21
1.1518
0
LINE
8
BLACK
6
CONTINUOUS
10
1.03977
20
1.1518
11
1.03963
21
1.1524
0
LINE
8
BLACK
6
CONTINUOUS
10
1.03963
20
1.1524
11
1.03785
21
1.15714
0
LINE
8
BLACK
6
CONTINUOUS
10
1.03785
20
1.15714
11
1.03751
21
1.15775
0
LINE
8
BLACK
6
CONTINUOUS
10
1.03751
20
1.15775
11
1.0343
21
1.16204
0
LINE
8
BLACK
6
CONTINUOUS
10
1.0343
20
1.16204
11
1.03332
21
1.16466
0
LINE
8
BLACK
6
CONTINUOUS
10
1.03332
20
1.16466
11
1.03391
21
1.16739
0
LINE
8
BLACK
6
CONTINUOUS
10
1.03391
20
1.16739
11
1.03589
21
1.16937
0
LINE
8
BLACK
6
CONTINUOUS
10
1.03589
20
1.16937
11
1.03827
21
1.16998
0
LINE
8
BLACK
6
CONTINUOUS
10
1.03827
20
1.16998
11
1.12004
21
1.16998
0
LINE
8
BLACK
6
CONTINUOUS
10
1.12004
20
1.16998
11
1.12272
21
1.16919
0
LINE
8
BLACK
6
CONTINUOUS
10
1.02
20
1.00777
11
1.02
21
0.987769
0
LINE
8
BLACK
6
CONTINUOUS
10
1.02
20
0.987769
11
1.00378
21
0.987769
0
LINE
8
BLACK
6
CONTINUOUS
10
1.00378
20
0.987769
11
1.00378
21
0.967769
0
LINE
8
BLACK
6
CONTINUOUS
10
1.00378
20
0.967769
11
1.02176
21
0.967769
0
LINE
8
BLACK
6
CONTINUOUS
10
1.02176
20
0.967769
11
1.02203
21
0.967783
0
LINE
8
BLACK
6
CONTINUOUS
10
1.02203
20
0.967783
11
1.02403
21
0.968001
0
LINE
8
BLACK
6
CONTINUOUS
10
1.02403
20
0.968001
11
1.02463
21
0.968144
0
LINE
8
BLACK
6
CONTINUOUS
10
1.02463
20
0.968144
11
1.02937
21
0.969921
0
LINE
8
BLACK
6
CONTINUOUS
10
1.02937
20
0.969921
11
1.02999
21
0.970258
0
LINE
8
BLACK
6
CONTINUOUS
10
1.02999
20
0.970258
11
1.034
21
0.973269
0
LINE
8
BLACK
6
CONTINUOUS
10
1.034
20
0.973269
11
1.0345
21
0.973764
0
LINE
8
BLACK
6
CONTINUOUS
10
1.0345
20
0.973764
11
1.03751
21
0.977783
0
LINE
8
BLACK
6
CONTINUOUS
10
1.03751
20
0.977783
11
1.03785
21
0.978397
0
LINE
8
BLACK
6
CONTINUOUS
10
1.03785
20
0.978397
11
1.03963
21
0.983139
0
LINE
8
BLACK
6
CONTINUOUS
10
1.03963
20
0.983139
11
1.03977
21
0.983739
0
LINE
8
BLACK
6
CONTINUOUS
10
1.03977
20
0.983739
11
1.03999
21
0.985742
0
LINE
8
BLACK
6
CONTINUOUS
10
1.03999
20
0.985742
11
1.04
21
0.98601
0
LINE
8
BLACK
6
CONTINUOUS
10
1.04
20
0.98601
11
1.04
21
1.00706
0
LINE
8
BLACK
6
CONTINUOUS
10
1.04
20
1.00706
11
1.03982
21
1.00766
0
LINE
8
BLACK
6
CONTINUOUS
10
1.03982
20
1.00766
11
1.03977
21
1.0077
0
LINE
8
BLACK
6
CONTINUOUS
10
1.03977
20
1.0077
11
1.03947
21
1.00777
0
LINE
8
BLACK
6
CONTINUOUS
10
1.03947
20
1.00777
11
1.02
21
1.00777
0
LINE
8
BLACK
6
CONTINUOUS
10
1.02
20
1.10777
11
1.02
21
1.08777
0
LINE
8
BLACK
6
CONTINUOUS
10
1.02
20
1.08777
11
1
21
1.08777
0
LINE
8
BLACK
6
CONTINUOUS
10
1
20
1.08777
11
1
21
1.04777
0
LINE
8
BLACK
6
CONTINUOUS
10
1
20
1.04777
11
1.02
21
1.04777
0
LINE
8
BLACK
6
CONTINUOUS
10
1.02
20
1.04777
11
1.02
21
1.02777
0
LINE
8
BLACK
6
CONTINUOUS
10
1.02
20
1.02777
11
1.03929
21
1.02777
0
LINE
8
BLACK
6
CONTINUOUS
10
1.03929
20
1.02777
11
1.03989
21
1.02794
0
LINE
8
BLACK
6
CONTINUOUS
10
1.03989
20
1.02794
11
1.03993
21
1.028
0
LINE
8
BLACK
6
CONTINUOUS
10
1.03993
20
1.028
11
1.04
21
1.0283
0
LINE
8
BLACK
6
CONTINUOUS
10
1.04
20
1.0283
11
1.04
21
1.04953
0
LINE
8
BLACK
6
CONTINUOUS
10
1.04
20
1.04953
11
1.03999
21
1.0498
0
LINE
8
BLACK
6
CONTINUOUS
10
1.03999
20
1.0498
11
1.03977
21
1.0518
0
LINE
8
BLACK
6
CONTINUOUS
10
1.03977
20
1.0518
11
1.03963
21
1.0524
0
LINE
8
BLACK
6
CONTINUOUS
10
1.03963
20
1.0524
11
1.03785
21
1.05714
0
LINE
8
BLACK
6
CONTINUOUS
10
1.03785
20
1.05714
11
1.03751
21
1.05775
0
LINE
8
BLACK
6
CONTINUOUS
10
1.03751
20
1.05775
11
1.0345
21
1.06177
0
LINE
8
BLACK
6
CONTINUOUS
10
1.0345
20
1.06177
11
1.034
21
1.06227
0
LINE
8
BLACK
6
CONTINUOUS
10
1.034
20
1.06227
11
1.03196
21
1.0638
0
LINE
8
BLACK
6
CONTINUOUS
10
1.03196
20
1.0638
11
1.03029
21
1.06604
0
LINE
8
BLACK
6
CONTINUOUS
10
1.03029
20
1.06604
11
1.03009
21
1.06883
0
LINE
8
BLACK
6
CONTINUOUS
10
1.03009
20
1.06883
11
1.03143
21
1.07128
0
LINE
8
BLACK
6
CONTINUOUS
10
1.03143
20
1.07128
11
1.03196
21
1.07174
0
LINE
8
BLACK
6
CONTINUOUS
10
1.03196
20
1.07174
11
1.034
21
1.07327
0
LINE
8
BLACK
6
CONTINUOUS
10
1.034
20
1.07327
11
1.0345
21
1.07376
0
LINE
8
BLACK
6
CONTINUOUS
10
1.0345
20
1.07376
11
1.03751
21
1.07778
0
LINE
8
BLACK
6
CONTINUOUS
10
1.03751
20
1.07778
11
1.03785
21
1.0784
0
LINE
8
BLACK
6
CONTINUOUS
10
1.03785
20
1.0784
11
1.03963
21
1.08314
0
LINE
8
BLACK
6
CONTINUOUS
10
1.03963
20
1.08314
11
1.03977
21
1.08374
0
LINE
8
BLACK
6
CONTINUOUS
10
1.03977
20
1.08374
11
1.03999
21
1.08574
0
LINE
8
BLACK
6
CONTINUOUS
10
1.03999
20
1.08574
11
1.04
21
1.08601
0
LINE
8
BLACK
6
CONTINUOUS
10
1.04
20
1.08601
11
1.04
21
1.10706
0
LINE
8
BLACK
6
CONTINUOUS
10
1.04
20
1.10706
11
1.03982
21
1.10766
0
LINE
8
BLACK
6
CONTINUOUS
10
1.03982
20
1.10766
11
1.03977
21
1.1077
0
LINE
8
BLACK
6
CONTINUOUS
10
1.03977
20
1.1077
11
1.03947
21
1.10777
0
LINE
8
BLACK
6
CONTINUOUS
10
1.03947
20
1.10777
11
1.02
21
1.10777
0
LINE
8
BLACK
6
CONTINUOUS
10
1.37
20
0.67
11
1.31
21
0.67
0
LINE
8
BLACK
6
CONTINUOUS
10
1.31
20
0.67
11
1.31
21
0.691142
0
LINE
8
BLACK
6
CONTINUOUS
10
1.31
20
0.691142
11
1.09294
21
0.691142
0
LINE
8
BLACK
6
CONTINUOUS
10
1.09294
20
0.691142
11
1.09274
21
0.690744
0
LINE
8
BLACK
6
CONTINUOUS
10
1.09274
20
0.690744
11
1.08926
21
0.68726
0
LINE
8
BLACK
6
CONTINUOUS
10
1.08926
20
0.68726
11
1.08487
21
0.685023
0
LINE
8
BLACK
6
CONTINUOUS
10
1.08487
20
0.685023
11
1.08
21
0.684252
0
LINE
8
BLACK
6
CONTINUOUS
10
1.08
20
0.684252
11
1.07513
21
0.685023
0
LINE
8
BLACK
6
CONTINUOUS
10
1.07513
20
0.685023
11
1.07074
21
0.68726
0
LINE
8
BLACK
6
CONTINUOUS
10
1.07074
20
0.68726
11
1.06726
21
0.690744
0
LINE
8
BLACK
6
CONTINUOUS
10
1.06726
20
0.690744
11
1.06502
21
0.695134
0
LINE
8
BLACK
6
CONTINUOUS
10
1.06502
20
0.695134
11
1.06425
21
0.7
0
LINE
8
BLACK
6
CONTINUOUS
10
1.06425
20
0.7
11
1.06502
21
0.704866
0
LINE
8
BLACK
6
CONTINUOUS
10
1.06502
20
0.704866
11
1.06726
21
0.709256
0
LINE
8
BLACK
6
CONTINUOUS
10
1.06726
20
0.709256
11
1.07074
21
0.71274
0
LINE
8
BLACK
6
CONTINUOUS
10
1.07074
20
0.71274
11
1.07513
21
0.714977
0
LINE
8
BLACK
6
CONTINUOUS
10
1.07513
20
0.714977
11
1.08
21
0.715748
0
LINE
8
BLACK
6
CONTINUOUS
10
1.08
20
0.715748
11
1.08487
21
0.714977
0
LINE
8
BLACK
6
CONTINUOUS
10
1.08487
20
0.714977
11
1.08926
21
0.71274
0
LINE
8
BLACK
6
CONTINUOUS
10
1.08926
20
0.71274
11
1.09274
21
0.709256
0
LINE
8
BLACK
6
CONTINUOUS
10
1.09274
20
0.709256
11
1.09294
21
0.708858
0
LINE
8
BLACK
6
CONTINUOUS
10
1.09294
20
0.708858
11
1.31
21
0.708858
0
LINE
8
BLACK
6
CONTINUOUS
10
1.31
20
0.708858
11
1.31
21
0.73
0
LINE
8
BLACK
6
CONTINUOUS
10
1.31
20
0.73
11
1.37
21
0.73
0
LINE
8
BLACK
6
CONTINUOUS
10
1.37
20
0.73
11
1.37
21
0.67
0
LINE
8
BLACK
6
CONTINUOUS
10
1.47
20
0.67
11
1.41
21
0.67
0
LINE
8
BLACK
6
CONTINUOUS
10
1.41
20
0.67
11
1.41
21
0.73
0
LINE
8
BLACK
6
CONTINUOUS
10
1.41
20
0.73
11
1.47
21
0.73
0
LINE
8
BLACK
6
CONTINUOUS
10
1.47
20
0.73
11
1.47
21
0.67
0
LINE
8
BLACK
6
CONTINUOUS
10
0.72
20
0.987769
11
0.66
21
0.987769
0
LINE
8
BLACK
6
CONTINUOUS
10
0.66
20
0.987769
11
0.66
21
1.04777
0
LINE
8
BLACK
6
CONTINUOUS
10
0.66
20
1.04777
11
0.72
21
1.04777
0
LINE
8
BLACK
6
CONTINUOUS
10
0.72
20
1.04777
11
0.72
21
0.987769
0
LINE
8
BLACK
6
CONTINUOUS
10
0.92
20
1.08777
11
0.86
21
1.08777
0
LINE
8
BLACK
6
CONTINUOUS
10
0.86
20
1.08777
11
0.86
21
1.14777
0
LINE
8
BLACK
6
CONTINUOUS
10
0.86
20
1.14777
11
0.92
21
1.14777
0
LINE
8
BLACK
6
CONTINUOUS
10
0.92
20
1.14777
11
0.92
21
1.08777
0
LINE
8
BLACK
6
CONTINUOUS
10
0.82
20
1.08777
11
0.76
21
1.08777
0
LINE
8
BLACK
6
CONTINUOUS
10
0.76
20
1.08777
11
0.76
21
1.14777
0
LINE
8
BLACK
6
CONTINUOUS
10
0.76
20
1.14777
11
0.82
21
1.14777
0
LINE
8
BLACK
6
CONTINUOUS
10
0.82
20
1.14777
11
0.82
21
1.08777
0
LINE
8
BLACK
6
CONTINUOUS
10
0.72
20
1.08777
11
0.66
21
1.08777
0
LINE
8
BLACK
6
CONTINUOUS
10
0.66
20
1.08777
11
0.66
21
1.14777
0
LINE
8
BLACK
6
CONTINUOUS
10
0.66
20
1.14777
11
0.72
21
1.14777
0
LINE
8
BLACK
6
CONTINUOUS
10
0.72
20
1.14777
11
0.72
21
1.08777
0
LINE
8
BLACK
6
CONTINUOUS
10
1.2
20
1.09
11
1.14
21
1.09
0
LINE
8
BLACK
6
CONTINUOUS
10
1.14
20
1.09
11
1.14
21
1.15
0
LINE
8
BLACK
6
CONTINUOUS
10
1.14
20
1.15
11
1.2
21
1.15
0
LINE
8
BLACK
6
CONTINUOUS
10
1.2
20
1.15
11
1.2
21
1.09
0
CIRCLE
8
BLACK
10
0.41
20
0.06
40
0.011811
0
CIRCLE
8
BLACK
10
0.73
20
0.06
40
0.011811
0
CIRCLE
8
BLACK
10
0.41
20
0.16
40
0.011811
0
CIRCLE
8
BLACK
10
0.96
20
0.81
40
0.011811
0
CIRCLE
8
BLACK
10
0.68
20
0.65
40
0.011811
0
CIRCLE
8
BLACK
10
0.44
20
0.86
40
0.011811
0
CIRCLE
8
BLACK
10
0.5
20
0.7
40
0.011811
0
CIRCLE
8
BLACK
10
1.31
20
0.45
40
0.011811
0
CIRCLE
8
BLACK
10
1.36
20
0.8
40
0.011811
0
CIRCLE
8
BLACK
10
1.43
20
0.8
40
0.011811
0
CIRCLE
8
BLACK
10
1.11
20
0.54
40
0.011811
0
CIRCLE
8
BLACK
10
0.42
20
0.97
40
0.011811
0
CIRCLE
8
BLACK
10
0.667826
20
0.849082
40
0.011811
0
CIRCLE
8
BLACK
10
0.73
20
0.11
40
0.011811
0
CIRCLE
8
BLACK
10
0.42
20
1.12
40
0.011811
0
CIRCLE
8
BLACK
10
0.65
20
0.62
40
0.011811
0
CIRCLE
8
BLACK
10
1.02
20
0.93
40
0.011811
0
CIRCLE
8
BLACK
10
1.21
20
0.29
40
0.011811
0
CIRCLE
8
BLACK
10
0.505
20
0.555
40
0.011811
0
CIRCLE
8
BLACK
10
0.45
20
0.78
40
0.011811
0
CIRCLE
8
BLACK
10
0.42
20
1.05
40
0.011811
0
CIRCLE
8
BLACK
10
0.5
20
1.12
40
0.011811
0
CIRCLE
8
BLACK
10
0.47
20
0.91
40
0.011811
0
CIRCLE
8
BLACK
10
0.62
20
0.65
40
0.011811
0
CIRCLE
8
BLACK
10
1.11
20
0.34
40
0.011811
0
CIRCLE
8
BLACK
10
0.62
20
0.5925
40
0.011811
0
CIRCLE
8
BLACK
10
0.56
20
0.72
40
0.011811
0
CIRCLE
8
BLACK
10
0.67
20
0.78
40
0.00787402
0
CIRCLE
8
BLACK
10
0.85
20
0.84
40
0.00787402
0
CIRCLE
8
BLACK
10
0.80685
20
0.59
40
0.00787402
0
CIRCLE
8
BLACK
10
1.08
20
0.7
40
0.00787402
0
CIRCLE
8
BLACK
10
0.79
20
0.48
40
0.00787402
0
CIRCLE
8
BLACK
10
0.84
20
0.48
40
0.00787402
0
CIRCLE
8
BLACK
10
0.75
20
0.5
40
0.00787402
  0
ENDSEC
  0
EOF
