  0
SECTION
  2
HEADER
  9
$ANGBASE
  50
0.0
  9
$ANGDIR
  70
1
  9
$MEASUREMENT
  70
0
  0
ENDSEC
  0
SECTION
  2
TABLES
  0
TABLE
  2
LTYPE
  70
4
  0
LTYPE
  5
40F
  2
CONTINUOUS
  70
0
  3
Solid line
  72
65
  73
0
  40
0.0
  0
LTYPE
  5
410
  2
DASHDOT
 70
0
  3
Dash Dot ____ _ ____ _
 72
65
 73
4
 40
2.0
 49
1.25
 49
-0.25
 49
0.25
 49
-0.25
  0
LTYPE
  5
411
  2
DASHED
 70
0
  3
Dashed __ __ __ __ __
 72
65
 73
2
 40
0.75
 49
0.5
 49
-0.25
  0
LTYPE
  5
43B
  2
DOTTED
 70
0
  3
Dotted .  .  .  .
 72
65
 73
2
 40
0.2
 49
0.0
 49
-0.2
  0
ENDTAB
  0
TABLE
  2
STYLE
  70
4
  0
STYLE
  2
KICAD
  70
0
  40
0
  41
1
  42
1
  50
0
  71
0
  3
isocp.shx
  0
STYLE
  2
KICADB
  70
0
  40
0
  41
1
  42
1
  50
0
  71
0
  3
isocp.shx
  0
STYLE
  2
KICADI
  70
0
  40
0
  41
1
  42
1
  50
15
  71
0
  3
isocp.shx
  0
STYLE
  2
KICADBI
  70
0
  40
0
  41
1
  42
1
  50
15
  71
0
  3
isocp.shx
  0
ENDTAB
  0
TABLE
  2
LAYER
  70
1
  0
LAYER
  2
BLACK
  70
0
  62
7
  6
CONTINUOUS
  0
ENDTAB
  0
ENDSEC
  0
SECTION
  2
ENTITIES
0
LINE
8
BLACK
6
CONTINUOUS
10
0.214106
20
0.325192
11
0.228034
21
0.322826
0
LINE
8
BLACK
6
CONTINUOUS
10
0.228034
20
0.322826
11
0.24161
21
0.318914
0
LINE
8
BLACK
6
CONTINUOUS
10
0.24161
20
0.318914
11
0.254663
21
0.313508
0
LINE
8
BLACK
6
CONTINUOUS
10
0.254663
20
0.313508
11
0.267028
21
0.306674
0
LINE
8
BLACK
6
CONTINUOUS
10
0.267028
20
0.306674
11
0.27855
21
0.298498
0
LINE
8
BLACK
6
CONTINUOUS
10
0.27855
20
0.298498
11
0.289084
21
0.289084
0
LINE
8
BLACK
6
CONTINUOUS
10
0.289084
20
0.289084
11
0.298498
21
0.27855
0
LINE
8
BLACK
6
CONTINUOUS
10
0.298498
20
0.27855
11
0.306674
21
0.267028
0
LINE
8
BLACK
6
CONTINUOUS
10
0.306674
20
0.267028
11
0.313508
21
0.254663
0
LINE
8
BLACK
6
CONTINUOUS
10
0.313508
20
0.254663
11
0.318914
21
0.24161
0
LINE
8
BLACK
6
CONTINUOUS
10
0.318914
20
0.24161
11
0.322826
21
0.228034
0
LINE
8
BLACK
6
CONTINUOUS
10
0.322826
20
0.228034
11
0.325192
21
0.214106
0
LINE
8
BLACK
6
CONTINUOUS
10
0.325192
20
0.214106
11
0.325984
21
0.2
0
LINE
8
BLACK
6
CONTINUOUS
10
0.325984
20
0.2
11
0.325192
21
0.185894
0
LINE
8
BLACK
6
CONTINUOUS
10
0.325192
20
0.185894
11
0.322826
21
0.171966
0
LINE
8
BLACK
6
CONTINUOUS
10
0.322826
20
0.171966
11
0.318914
21
0.15839
0
LINE
8
BLACK
6
CONTINUOUS
10
0.318914
20
0.15839
11
0.313508
21
0.145337
0
LINE
8
BLACK
6
CONTINUOUS
10
0.313508
20
0.145337
11
0.306674
21
0.132972
0
LINE
8
BLACK
6
CONTINUOUS
10
0.306674
20
0.132972
11
0.298498
21
0.12145
0
LINE
8
BLACK
6
CONTINUOUS
10
0.298498
20
0.12145
11
0.289084
21
0.110916
0
LINE
8
BLACK
6
CONTINUOUS
10
0.289084
20
0.110916
11
0.27855
21
0.101502
0
LINE
8
BLACK
6
CONTINUOUS
10
0.27855
20
0.101502
11
0.267028
21
0.0933261
0
LINE
8
BLACK
6
CONTINUOUS
10
0.267028
20
0.0933261
11
0.254663
21
0.0864921
0
LINE
8
BLACK
6
CONTINUOUS
10
0.254663
20
0.0864921
11
0.24161
21
0.0810856
0
LINE
8
BLACK
6
CONTINUOUS
10
0.24161
20
0.0810856
11
0.228034
21
0.0771744
0
LINE
8
BLACK
6
CONTINUOUS
10
0.228034
20
0.0771744
11
0.214106
21
0.0748079
0
LINE
8
BLACK
6
CONTINUOUS
10
0.214106
20
0.0748079
11
0.2
21
0.0740157
0
LINE
8
BLACK
6
CONTINUOUS
10
0.2
20
0.0740157
11
0.185894
21
0.0748079
0
LINE
8
BLACK
6
CONTINUOUS
10
0.185894
20
0.0748079
11
0.171966
21
0.0771744
0
LINE
8
BLACK
6
CONTINUOUS
10
0.171966
20
0.0771744
11
0.15839
21
0.0810856
0
LINE
8
BLACK
6
CONTINUOUS
10
0.15839
20
0.0810856
11
0.145337
21
0.0864921
0
LINE
8
BLACK
6
CONTINUOUS
10
0.145337
20
0.0864921
11
0.132972
21
0.0933261
0
LINE
8
BLACK
6
CONTINUOUS
10
0.132972
20
0.0933261
11
0.12145
21
0.101502
0
LINE
8
BLACK
6
CONTINUOUS
10
0.12145
20
0.101502
11
0.110916
21
0.110916
0
LINE
8
BLACK
6
CONTINUOUS
10
0.110916
20
0.110916
11
0.101502
21
0.12145
0
LINE
8
BLACK
6
CONTINUOUS
10
0.101502
20
0.12145
11
0.0933261
21
0.132972
0
LINE
8
BLACK
6
CONTINUOUS
10
0.0933261
20
0.132972
11
0.0864921
21
0.145337
0
LINE
8
BLACK
6
CONTINUOUS
10
0.0864921
20
0.145337
11
0.0810856
21
0.15839
0
LINE
8
BLACK
6
CONTINUOUS
10
0.0810856
20
0.15839
11
0.0771744
21
0.171966
0
LINE
8
BLACK
6
CONTINUOUS
10
0.0771744
20
0.171966
11
0.0748079
21
0.185894
0
LINE
8
BLACK
6
CONTINUOUS
10
0.0748079
20
0.185894
11
0.0740157
21
0.2
0
LINE
8
BLACK
6
CONTINUOUS
10
0.0740157
20
0.2
11
0.0748079
21
0.214106
0
LINE
8
BLACK
6
CONTINUOUS
10
0.0748079
20
0.214106
11
0.0771744
21
0.228034
0
LINE
8
BLACK
6
CONTINUOUS
10
0.0771744
20
0.228034
11
0.0810856
21
0.24161
0
LINE
8
BLACK
6
CONTINUOUS
10
0.0810856
20
0.24161
11
0.0864921
21
0.254663
0
LINE
8
BLACK
6
CONTINUOUS
10
0.0864921
20
0.254663
11
0.0933261
21
0.267028
0
LINE
8
BLACK
6
CONTINUOUS
10
0.0933261
20
0.267028
11
0.101502
21
0.27855
0
LINE
8
BLACK
6
CONTINUOUS
10
0.101502
20
0.27855
11
0.110916
21
0.289084
0
LINE
8
BLACK
6
CONTINUOUS
10
0.110916
20
0.289084
11
0.12145
21
0.298498
0
LINE
8
BLACK
6
CONTINUOUS
10
0.12145
20
0.298498
11
0.132972
21
0.306674
0
LINE
8
BLACK
6
CONTINUOUS
10
0.132972
20
0.306674
11
0.145337
21
0.313508
0
LINE
8
BLACK
6
CONTINUOUS
10
0.145337
20
0.313508
11
0.15839
21
0.318914
0
LINE
8
BLACK
6
CONTINUOUS
10
0.15839
20
0.318914
11
0.171966
21
0.322826
0
LINE
8
BLACK
6
CONTINUOUS
10
0.171966
20
0.322826
11
0.185894
21
0.325192
0
LINE
8
BLACK
6
CONTINUOUS
10
0.185894
20
0.325192
11
0.2
21
0.325984
0
LINE
8
BLACK
6
CONTINUOUS
10
0.2
20
0.325984
11
0.214106
21
0.325192
0
LINE
8
BLACK
6
CONTINUOUS
10
1.41411
20
0.325192
11
1.42803
21
0.322826
0
LINE
8
BLACK
6
CONTINUOUS
10
1.42803
20
0.322826
11
1.44161
21
0.318914
0
LINE
8
BLACK
6
CONTINUOUS
10
1.44161
20
0.318914
11
1.45466
21
0.313508
0
LINE
8
BLACK
6
CONTINUOUS
10
1.45466
20
0.313508
11
1.46703
21
0.306674
0
LINE
8
BLACK
6
CONTINUOUS
10
1.46703
20
0.306674
11
1.47855
21
0.298498
0
LINE
8
BLACK
6
CONTINUOUS
10
1.47855
20
0.298498
11
1.48908
21
0.289084
0
LINE
8
BLACK
6
CONTINUOUS
10
1.48908
20
0.289084
11
1.4985
21
0.27855
0
LINE
8
BLACK
6
CONTINUOUS
10
1.4985
20
0.27855
11
1.50667
21
0.267028
0
LINE
8
BLACK
6
CONTINUOUS
10
1.50667
20
0.267028
11
1.51351
21
0.254663
0
LINE
8
BLACK
6
CONTINUOUS
10
1.51351
20
0.254663
11
1.51891
21
0.24161
0
LINE
8
BLACK
6
CONTINUOUS
10
1.51891
20
0.24161
11
1.52283
21
0.228034
0
LINE
8
BLACK
6
CONTINUOUS
10
1.52283
20
0.228034
11
1.52519
21
0.214106
0
LINE
8
BLACK
6
CONTINUOUS
10
1.52519
20
0.214106
11
1.52598
21
0.2
0
LINE
8
BLACK
6
CONTINUOUS
10
1.52598
20
0.2
11
1.52519
21
0.185894
0
LINE
8
BLACK
6
CONTINUOUS
10
1.52519
20
0.185894
11
1.52283
21
0.171966
0
LINE
8
BLACK
6
CONTINUOUS
10
1.52283
20
0.171966
11
1.51891
21
0.15839
0
LINE
8
BLACK
6
CONTINUOUS
10
1.51891
20
0.15839
11
1.51351
21
0.145337
0
LINE
8
BLACK
6
CONTINUOUS
10
1.51351
20
0.145337
11
1.50667
21
0.132972
0
LINE
8
BLACK
6
CONTINUOUS
10
1.50667
20
0.132972
11
1.4985
21
0.12145
0
LINE
8
BLACK
6
CONTINUOUS
10
1.4985
20
0.12145
11
1.48908
21
0.110916
0
LINE
8
BLACK
6
CONTINUOUS
10
1.48908
20
0.110916
11
1.47855
21
0.101502
0
LINE
8
BLACK
6
CONTINUOUS
10
1.47855
20
0.101502
11
1.46703
21
0.0933261
0
LINE
8
BLACK
6
CONTINUOUS
10
1.46703
20
0.0933261
11
1.45466
21
0.0864921
0
LINE
8
BLACK
6
CONTINUOUS
10
1.45466
20
0.0864921
11
1.44161
21
0.0810856
0
LINE
8
BLACK
6
CONTINUOUS
10
1.44161
20
0.0810856
11
1.42803
21
0.0771744
0
LINE
8
BLACK
6
CONTINUOUS
10
1.42803
20
0.0771744
11
1.41411
21
0.0748079
0
LINE
8
BLACK
6
CONTINUOUS
10
1.41411
20
0.0748079
11
1.4
21
0.0740157
0
LINE
8
BLACK
6
CONTINUOUS
10
1.4
20
0.0740157
11
1.38589
21
0.0748079
0
LINE
8
BLACK
6
CONTINUOUS
10
1.38589
20
0.0748079
11
1.37197
21
0.0771744
0
LINE
8
BLACK
6
CONTINUOUS
10
1.37197
20
0.0771744
11
1.35839
21
0.0810856
0
LINE
8
BLACK
6
CONTINUOUS
10
1.35839
20
0.0810856
11
1.34534
21
0.0864921
0
LINE
8
BLACK
6
CONTINUOUS
10
1.34534
20
0.0864921
11
1.33297
21
0.0933261
0
LINE
8
BLACK
6
CONTINUOUS
10
1.33297
20
0.0933261
11
1.32145
21
0.101502
0
LINE
8
BLACK
6
CONTINUOUS
10
1.32145
20
0.101502
11
1.31092
21
0.110916
0
LINE
8
BLACK
6
CONTINUOUS
10
1.31092
20
0.110916
11
1.3015
21
0.12145
0
LINE
8
BLACK
6
CONTINUOUS
10
1.3015
20
0.12145
11
1.29333
21
0.132972
0
LINE
8
BLACK
6
CONTINUOUS
10
1.29333
20
0.132972
11
1.28649
21
0.145337
0
LINE
8
BLACK
6
CONTINUOUS
10
1.28649
20
0.145337
11
1.28109
21
0.15839
0
LINE
8
BLACK
6
CONTINUOUS
10
1.28109
20
0.15839
11
1.27717
21
0.171966
0
LINE
8
BLACK
6
CONTINUOUS
10
1.27717
20
0.171966
11
1.27481
21
0.185894
0
LINE
8
BLACK
6
CONTINUOUS
10
1.27481
20
0.185894
11
1.27402
21
0.2
0
LINE
8
BLACK
6
CONTINUOUS
10
1.27402
20
0.2
11
1.27481
21
0.214106
0
LINE
8
BLACK
6
CONTINUOUS
10
1.27481
20
0.214106
11
1.27717
21
0.228034
0
LINE
8
BLACK
6
CONTINUOUS
10
1.27717
20
0.228034
11
1.28109
21
0.24161
0
LINE
8
BLACK
6
CONTINUOUS
10
1.28109
20
0.24161
11
1.28649
21
0.254663
0
LINE
8
BLACK
6
CONTINUOUS
10
1.28649
20
0.254663
11
1.29333
21
0.267028
0
LINE
8
BLACK
6
CONTINUOUS
10
1.29333
20
0.267028
11
1.3015
21
0.27855
0
LINE
8
BLACK
6
CONTINUOUS
10
1.3015
20
0.27855
11
1.31092
21
0.289084
0
LINE
8
BLACK
6
CONTINUOUS
10
1.31092
20
0.289084
11
1.32145
21
0.298498
0
LINE
8
BLACK
6
CONTINUOUS
10
1.32145
20
0.298498
11
1.33297
21
0.306674
0
LINE
8
BLACK
6
CONTINUOUS
10
1.33297
20
0.306674
11
1.34534
21
0.313508
0
LINE
8
BLACK
6
CONTINUOUS
10
1.34534
20
0.313508
11
1.35839
21
0.318914
0
LINE
8
BLACK
6
CONTINUOUS
10
1.35839
20
0.318914
11
1.37197
21
0.322826
0
LINE
8
BLACK
6
CONTINUOUS
10
1.37197
20
0.322826
11
1.38589
21
0.325192
0
LINE
8
BLACK
6
CONTINUOUS
10
1.38589
20
0.325192
11
1.4
21
0.325984
0
LINE
8
BLACK
6
CONTINUOUS
10
1.4
20
0.325984
11
1.41411
21
0.325192
0
LINE
8
BLACK
6
CONTINUOUS
10
0.683013
20
0.162275
11
0.685568
21
0.160568
0
LINE
8
BLACK
6
CONTINUOUS
10
0.685568
20
0.160568
11
0.687275
21
0.158013
0
LINE
8
BLACK
6
CONTINUOUS
10
0.687275
20
0.158013
11
0.687874
21
0.155
0
LINE
8
BLACK
6
CONTINUOUS
10
0.687874
20
0.155
11
0.687874
21
0.095
0
LINE
8
BLACK
6
CONTINUOUS
10
0.687874
20
0.095
11
0.687275
21
0.0919867
0
LINE
8
BLACK
6
CONTINUOUS
10
0.687275
20
0.0919867
11
0.685568
21
0.0894322
0
LINE
8
BLACK
6
CONTINUOUS
10
0.685568
20
0.0894322
11
0.683013
21
0.0877254
0
LINE
8
BLACK
6
CONTINUOUS
10
0.683013
20
0.0877254
11
0.68
21
0.087126
0
LINE
8
BLACK
6
CONTINUOUS
10
0.68
20
0.087126
11
0.62
21
0.087126
0
LINE
8
BLACK
6
CONTINUOUS
10
0.62
20
0.087126
11
0.616987
21
0.0877254
0
LINE
8
BLACK
6
CONTINUOUS
10
0.616987
20
0.0877254
11
0.614432
21
0.0894322
0
LINE
8
BLACK
6
CONTINUOUS
10
0.614432
20
0.0894322
11
0.612725
21
0.0919867
0
LINE
8
BLACK
6
CONTINUOUS
10
0.612725
20
0.0919867
11
0.612126
21
0.095
0
LINE
8
BLACK
6
CONTINUOUS
10
0.612126
20
0.095
11
0.612126
21
0.155
0
LINE
8
BLACK
6
CONTINUOUS
10
0.612126
20
0.155
11
0.612725
21
0.158013
0
LINE
8
BLACK
6
CONTINUOUS
10
0.612725
20
0.158013
11
0.614432
21
0.160568
0
LINE
8
BLACK
6
CONTINUOUS
10
0.614432
20
0.160568
11
0.616987
21
0.162275
0
LINE
8
BLACK
6
CONTINUOUS
10
0.616987
20
0.162275
11
0.62
21
0.162874
0
LINE
8
BLACK
6
CONTINUOUS
10
0.62
20
0.162874
11
0.68
21
0.162874
0
LINE
8
BLACK
6
CONTINUOUS
10
0.68
20
0.162874
11
0.683013
21
0.162275
0
LINE
8
BLACK
6
CONTINUOUS
10
0.933013
20
0.162275
11
0.935568
21
0.160568
0
LINE
8
BLACK
6
CONTINUOUS
10
0.935568
20
0.160568
11
0.937275
21
0.158013
0
LINE
8
BLACK
6
CONTINUOUS
10
0.937275
20
0.158013
11
0.937874
21
0.155
0
LINE
8
BLACK
6
CONTINUOUS
10
0.937874
20
0.155
11
0.937874
21
0.095
0
LINE
8
BLACK
6
CONTINUOUS
10
0.937874
20
0.095
11
0.937275
21
0.0919867
0
LINE
8
BLACK
6
CONTINUOUS
10
0.937275
20
0.0919867
11
0.935568
21
0.0894322
0
LINE
8
BLACK
6
CONTINUOUS
10
0.935568
20
0.0894322
11
0.933013
21
0.0877254
0
LINE
8
BLACK
6
CONTINUOUS
10
0.933013
20
0.0877254
11
0.93
21
0.087126
0
LINE
8
BLACK
6
CONTINUOUS
10
0.93
20
0.087126
11
0.87
21
0.087126
0
LINE
8
BLACK
6
CONTINUOUS
10
0.87
20
0.087126
11
0.866987
21
0.0877254
0
LINE
8
BLACK
6
CONTINUOUS
10
0.866987
20
0.0877254
11
0.864432
21
0.0894322
0
LINE
8
BLACK
6
CONTINUOUS
10
0.864432
20
0.0894322
11
0.862725
21
0.0919867
0
LINE
8
BLACK
6
CONTINUOUS
10
0.862725
20
0.0919867
11
0.862126
21
0.095
0
LINE
8
BLACK
6
CONTINUOUS
10
0.862126
20
0.095
11
0.862126
21
0.155
0
LINE
8
BLACK
6
CONTINUOUS
10
0.862126
20
0.155
11
0.862725
21
0.158013
0
LINE
8
BLACK
6
CONTINUOUS
10
0.862725
20
0.158013
11
0.864432
21
0.160568
0
LINE
8
BLACK
6
CONTINUOUS
10
0.864432
20
0.160568
11
0.866987
21
0.162275
0
LINE
8
BLACK
6
CONTINUOUS
10
0.866987
20
0.162275
11
0.87
21
0.162874
0
LINE
8
BLACK
6
CONTINUOUS
10
0.87
20
0.162874
11
0.93
21
0.162874
0
LINE
8
BLACK
6
CONTINUOUS
10
0.93
20
0.162874
11
0.933013
21
0.162275
0
LINE
8
BLACK
6
CONTINUOUS
10
1.03301
20
0.162275
11
1.03557
21
0.160568
0
LINE
8
BLACK
6
CONTINUOUS
10
1.03557
20
0.160568
11
1.03727
21
0.158013
0
LINE
8
BLACK
6
CONTINUOUS
10
1.03727
20
0.158013
11
1.03787
21
0.155
0
LINE
8
BLACK
6
CONTINUOUS
10
1.03787
20
0.155
11
1.03787
21
0.095
0
LINE
8
BLACK
6
CONTINUOUS
10
1.03787
20
0.095
11
1.03727
21
0.0919867
0
LINE
8
BLACK
6
CONTINUOUS
10
1.03727
20
0.0919867
11
1.03557
21
0.0894322
0
LINE
8
BLACK
6
CONTINUOUS
10
1.03557
20
0.0894322
11
1.03301
21
0.0877254
0
LINE
8
BLACK
6
CONTINUOUS
10
1.03301
20
0.0877254
11
1.03
21
0.087126
0
LINE
8
BLACK
6
CONTINUOUS
10
1.03
20
0.087126
11
0.97
21
0.087126
0
LINE
8
BLACK
6
CONTINUOUS
10
0.97
20
0.087126
11
0.966987
21
0.0877254
0
LINE
8
BLACK
6
CONTINUOUS
10
0.966987
20
0.0877254
11
0.964432
21
0.0894322
0
LINE
8
BLACK
6
CONTINUOUS
10
0.964432
20
0.0894322
11
0.962725
21
0.0919867
0
LINE
8
BLACK
6
CONTINUOUS
10
0.962725
20
0.0919867
11
0.962126
21
0.095
0
LINE
8
BLACK
6
CONTINUOUS
10
0.962126
20
0.095
11
0.962126
21
0.155
0
LINE
8
BLACK
6
CONTINUOUS
10
0.962126
20
0.155
11
0.962725
21
0.158013
0
LINE
8
BLACK
6
CONTINUOUS
10
0.962725
20
0.158013
11
0.964432
21
0.160568
0
LINE
8
BLACK
6
CONTINUOUS
10
0.964432
20
0.160568
11
0.966987
21
0.162275
0
LINE
8
BLACK
6
CONTINUOUS
10
0.966987
20
0.162275
11
0.97
21
0.162874
0
LINE
8
BLACK
6
CONTINUOUS
10
0.97
20
0.162874
11
1.03
21
0.162874
0
LINE
8
BLACK
6
CONTINUOUS
10
1.03
20
0.162874
11
1.03301
21
0.162275
0
LINE
8
BLACK
6
CONTINUOUS
10
1.13301
20
0.162275
11
1.13557
21
0.160568
0
LINE
8
BLACK
6
CONTINUOUS
10
1.13557
20
0.160568
11
1.13727
21
0.158013
0
LINE
8
BLACK
6
CONTINUOUS
10
1.13727
20
0.158013
11
1.13787
21
0.155
0
LINE
8
BLACK
6
CONTINUOUS
10
1.13787
20
0.155
11
1.13787
21
0.095
0
LINE
8
BLACK
6
CONTINUOUS
10
1.13787
20
0.095
11
1.13727
21
0.0919867
0
LINE
8
BLACK
6
CONTINUOUS
10
1.13727
20
0.0919867
11
1.13557
21
0.0894322
0
LINE
8
BLACK
6
CONTINUOUS
10
1.13557
20
0.0894322
11
1.13301
21
0.0877254
0
LINE
8
BLACK
6
CONTINUOUS
10
1.13301
20
0.0877254
11
1.13
21
0.087126
0
LINE
8
BLACK
6
CONTINUOUS
10
1.13
20
0.087126
11
1.07
21
0.087126
0
LINE
8
BLACK
6
CONTINUOUS
10
1.07
20
0.087126
11
1.06699
21
0.0877254
0
LINE
8
BLACK
6
CONTINUOUS
10
1.06699
20
0.0877254
11
1.06443
21
0.0894322
0
LINE
8
BLACK
6
CONTINUOUS
10
1.06443
20
0.0894322
11
1.06273
21
0.0919867
0
LINE
8
BLACK
6
CONTINUOUS
10
1.06273
20
0.0919867
11
1.06213
21
0.095
0
LINE
8
BLACK
6
CONTINUOUS
10
1.06213
20
0.095
11
1.06213
21
0.155
0
LINE
8
BLACK
6
CONTINUOUS
10
1.06213
20
0.155
11
1.06273
21
0.158013
0
LINE
8
BLACK
6
CONTINUOUS
10
1.06273
20
0.158013
11
1.06443
21
0.160568
0
LINE
8
BLACK
6
CONTINUOUS
10
1.06443
20
0.160568
11
1.06699
21
0.162275
0
LINE
8
BLACK
6
CONTINUOUS
10
1.06699
20
0.162275
11
1.07
21
0.162874
0
LINE
8
BLACK
6
CONTINUOUS
10
1.07
20
0.162874
11
1.13
21
0.162874
0
LINE
8
BLACK
6
CONTINUOUS
10
1.13
20
0.162874
11
1.13301
21
0.162275
0
LINE
8
BLACK
6
CONTINUOUS
10
0.483013
20
0.184775
11
0.485568
21
0.183068
0
LINE
8
BLACK
6
CONTINUOUS
10
0.485568
20
0.183068
11
0.487275
21
0.180513
0
LINE
8
BLACK
6
CONTINUOUS
10
0.487275
20
0.180513
11
0.487874
21
0.1775
0
LINE
8
BLACK
6
CONTINUOUS
10
0.487874
20
0.1775
11
0.487874
21
0.1425
0
LINE
8
BLACK
6
CONTINUOUS
10
0.487874
20
0.1425
11
0.487275
21
0.139487
0
LINE
8
BLACK
6
CONTINUOUS
10
0.487275
20
0.139487
11
0.485568
21
0.136932
0
LINE
8
BLACK
6
CONTINUOUS
10
0.485568
20
0.136932
11
0.483013
21
0.135225
0
LINE
8
BLACK
6
CONTINUOUS
10
0.483013
20
0.135225
11
0.48
21
0.134626
0
LINE
8
BLACK
6
CONTINUOUS
10
0.48
20
0.134626
11
0.425
21
0.134626
0
LINE
8
BLACK
6
CONTINUOUS
10
0.425
20
0.134626
11
0.421987
21
0.135225
0
LINE
8
BLACK
6
CONTINUOUS
10
0.421987
20
0.135225
11
0.419432
21
0.136932
0
LINE
8
BLACK
6
CONTINUOUS
10
0.419432
20
0.136932
11
0.417725
21
0.139487
0
LINE
8
BLACK
6
CONTINUOUS
10
0.417725
20
0.139487
11
0.417126
21
0.1425
0
LINE
8
BLACK
6
CONTINUOUS
10
0.417126
20
0.1425
11
0.417126
21
0.1775
0
LINE
8
BLACK
6
CONTINUOUS
10
0.417126
20
0.1775
11
0.417725
21
0.180513
0
LINE
8
BLACK
6
CONTINUOUS
10
0.417725
20
0.180513
11
0.419432
21
0.183068
0
LINE
8
BLACK
6
CONTINUOUS
10
0.419432
20
0.183068
11
0.421987
21
0.184775
0
LINE
8
BLACK
6
CONTINUOUS
10
0.421987
20
0.184775
11
0.425
21
0.185374
0
LINE
8
BLACK
6
CONTINUOUS
10
0.425
20
0.185374
11
0.48
21
0.185374
0
LINE
8
BLACK
6
CONTINUOUS
10
0.48
20
0.185374
11
0.483013
21
0.184775
0
LINE
8
BLACK
6
CONTINUOUS
10
0.575513
20
0.187275
11
0.578068
21
0.185568
0
LINE
8
BLACK
6
CONTINUOUS
10
0.578068
20
0.185568
11
0.579775
21
0.183013
0
LINE
8
BLACK
6
CONTINUOUS
10
0.579775
20
0.183013
11
0.580374
21
0.18
0
LINE
8
BLACK
6
CONTINUOUS
10
0.580374
20
0.18
11
0.580374
21
0.145
0
LINE
8
BLACK
6
CONTINUOUS
10
0.580374
20
0.145
11
0.579775
21
0.141987
0
LINE
8
BLACK
6
CONTINUOUS
10
0.579775
20
0.141987
11
0.578068
21
0.139432
0
LINE
8
BLACK
6
CONTINUOUS
10
0.578068
20
0.139432
11
0.575513
21
0.137725
0
LINE
8
BLACK
6
CONTINUOUS
10
0.575513
20
0.137725
11
0.5725
21
0.137126
0
LINE
8
BLACK
6
CONTINUOUS
10
0.5725
20
0.137126
11
0.5175
21
0.137126
0
LINE
8
BLACK
6
CONTINUOUS
10
0.5175
20
0.137126
11
0.514487
21
0.137725
0
LINE
8
BLACK
6
CONTINUOUS
10
0.514487
20
0.137725
11
0.511932
21
0.139432
0
LINE
8
BLACK
6
CONTINUOUS
10
0.511932
20
0.139432
11
0.510225
21
0.141987
0
LINE
8
BLACK
6
CONTINUOUS
10
0.510225
20
0.141987
11
0.509626
21
0.145
0
LINE
8
BLACK
6
CONTINUOUS
10
0.509626
20
0.145
11
0.509626
21
0.18
0
LINE
8
BLACK
6
CONTINUOUS
10
0.509626
20
0.18
11
0.510225
21
0.183013
0
LINE
8
BLACK
6
CONTINUOUS
10
0.510225
20
0.183013
11
0.511932
21
0.185568
0
LINE
8
BLACK
6
CONTINUOUS
10
0.511932
20
0.185568
11
0.514487
21
0.187275
0
LINE
8
BLACK
6
CONTINUOUS
10
0.514487
20
0.187275
11
0.5175
21
0.187874
0
LINE
8
BLACK
6
CONTINUOUS
10
0.5175
20
0.187874
11
0.5725
21
0.187874
0
LINE
8
BLACK
6
CONTINUOUS
10
0.5725
20
0.187874
11
0.575513
21
0.187275
0
LINE
8
BLACK
6
CONTINUOUS
10
0.683013
20
0.262275
11
0.685568
21
0.260568
0
LINE
8
BLACK
6
CONTINUOUS
10
0.685568
20
0.260568
11
0.687275
21
0.258013
0
LINE
8
BLACK
6
CONTINUOUS
10
0.687275
20
0.258013
11
0.687874
21
0.255
0
LINE
8
BLACK
6
CONTINUOUS
10
0.687874
20
0.255
11
0.687874
21
0.195
0
LINE
8
BLACK
6
CONTINUOUS
10
0.687874
20
0.195
11
0.687275
21
0.191987
0
LINE
8
BLACK
6
CONTINUOUS
10
0.687275
20
0.191987
11
0.685568
21
0.189432
0
LINE
8
BLACK
6
CONTINUOUS
10
0.685568
20
0.189432
11
0.683013
21
0.187725
0
LINE
8
BLACK
6
CONTINUOUS
10
0.683013
20
0.187725
11
0.68
21
0.187126
0
LINE
8
BLACK
6
CONTINUOUS
10
0.68
20
0.187126
11
0.62
21
0.187126
0
LINE
8
BLACK
6
CONTINUOUS
10
0.62
20
0.187126
11
0.616987
21
0.187725
0
LINE
8
BLACK
6
CONTINUOUS
10
0.616987
20
0.187725
11
0.614432
21
0.189432
0
LINE
8
BLACK
6
CONTINUOUS
10
0.614432
20
0.189432
11
0.612725
21
0.191987
0
LINE
8
BLACK
6
CONTINUOUS
10
0.612725
20
0.191987
11
0.612126
21
0.195
0
LINE
8
BLACK
6
CONTINUOUS
10
0.612126
20
0.195
11
0.612126
21
0.255
0
LINE
8
BLACK
6
CONTINUOUS
10
0.612126
20
0.255
11
0.612725
21
0.258013
0
LINE
8
BLACK
6
CONTINUOUS
10
0.612725
20
0.258013
11
0.614432
21
0.260568
0
LINE
8
BLACK
6
CONTINUOUS
10
0.614432
20
0.260568
11
0.616987
21
0.262275
0
LINE
8
BLACK
6
CONTINUOUS
10
0.616987
20
0.262275
11
0.62
21
0.262874
0
LINE
8
BLACK
6
CONTINUOUS
10
0.62
20
0.262874
11
0.68
21
0.262874
0
LINE
8
BLACK
6
CONTINUOUS
10
0.68
20
0.262874
11
0.683013
21
0.262275
0
LINE
8
BLACK
6
CONTINUOUS
10
0.933013
20
0.262275
11
0.935568
21
0.260568
0
LINE
8
BLACK
6
CONTINUOUS
10
0.935568
20
0.260568
11
0.937275
21
0.258013
0
LINE
8
BLACK
6
CONTINUOUS
10
0.937275
20
0.258013
11
0.937874
21
0.255
0
LINE
8
BLACK
6
CONTINUOUS
10
0.937874
20
0.255
11
0.937874
21
0.195
0
LINE
8
BLACK
6
CONTINUOUS
10
0.937874
20
0.195
11
0.937275
21
0.191987
0
LINE
8
BLACK
6
CONTINUOUS
10
0.937275
20
0.191987
11
0.935568
21
0.189432
0
LINE
8
BLACK
6
CONTINUOUS
10
0.935568
20
0.189432
11
0.933013
21
0.187725
0
LINE
8
BLACK
6
CONTINUOUS
10
0.933013
20
0.187725
11
0.93
21
0.187126
0
LINE
8
BLACK
6
CONTINUOUS
10
0.93
20
0.187126
11
0.87
21
0.187126
0
LINE
8
BLACK
6
CONTINUOUS
10
0.87
20
0.187126
11
0.866987
21
0.187725
0
LINE
8
BLACK
6
CONTINUOUS
10
0.866987
20
0.187725
11
0.864432
21
0.189432
0
LINE
8
BLACK
6
CONTINUOUS
10
0.864432
20
0.189432
11
0.862725
21
0.191987
0
LINE
8
BLACK
6
CONTINUOUS
10
0.862725
20
0.191987
11
0.862126
21
0.195
0
LINE
8
BLACK
6
CONTINUOUS
10
0.862126
20
0.195
11
0.862126
21
0.255
0
LINE
8
BLACK
6
CONTINUOUS
10
0.862126
20
0.255
11
0.862725
21
0.258013
0
LINE
8
BLACK
6
CONTINUOUS
10
0.862725
20
0.258013
11
0.864432
21
0.260568
0
LINE
8
BLACK
6
CONTINUOUS
10
0.864432
20
0.260568
11
0.866987
21
0.262275
0
LINE
8
BLACK
6
CONTINUOUS
10
0.866987
20
0.262275
11
0.87
21
0.262874
0
LINE
8
BLACK
6
CONTINUOUS
10
0.87
20
0.262874
11
0.93
21
0.262874
0
LINE
8
BLACK
6
CONTINUOUS
10
0.93
20
0.262874
11
0.933013
21
0.262275
0
LINE
8
BLACK
6
CONTINUOUS
10
1.03301
20
0.262275
11
1.03557
21
0.260568
0
LINE
8
BLACK
6
CONTINUOUS
10
1.03557
20
0.260568
11
1.03727
21
0.258013
0
LINE
8
BLACK
6
CONTINUOUS
10
1.03727
20
0.258013
11
1.03787
21
0.255
0
LINE
8
BLACK
6
CONTINUOUS
10
1.03787
20
0.255
11
1.03787
21
0.195
0
LINE
8
BLACK
6
CONTINUOUS
10
1.03787
20
0.195
11
1.03727
21
0.191987
0
LINE
8
BLACK
6
CONTINUOUS
10
1.03727
20
0.191987
11
1.03557
21
0.189432
0
LINE
8
BLACK
6
CONTINUOUS
10
1.03557
20
0.189432
11
1.03301
21
0.187725
0
LINE
8
BLACK
6
CONTINUOUS
10
1.03301
20
0.187725
11
1.03
21
0.187126
0
LINE
8
BLACK
6
CONTINUOUS
10
1.03
20
0.187126
11
0.97
21
0.187126
0
LINE
8
BLACK
6
CONTINUOUS
10
0.97
20
0.187126
11
0.966987
21
0.187725
0
LINE
8
BLACK
6
CONTINUOUS
10
0.966987
20
0.187725
11
0.964432
21
0.189432
0
LINE
8
BLACK
6
CONTINUOUS
10
0.964432
20
0.189432
11
0.962725
21
0.191987
0
LINE
8
BLACK
6
CONTINUOUS
10
0.962725
20
0.191987
11
0.962126
21
0.195
0
LINE
8
BLACK
6
CONTINUOUS
10
0.962126
20
0.195
11
0.962126
21
0.255
0
LINE
8
BLACK
6
CONTINUOUS
10
0.962126
20
0.255
11
0.962725
21
0.258013
0
LINE
8
BLACK
6
CONTINUOUS
10
0.962725
20
0.258013
11
0.964432
21
0.260568
0
LINE
8
BLACK
6
CONTINUOUS
10
0.964432
20
0.260568
11
0.966987
21
0.262275
0
LINE
8
BLACK
6
CONTINUOUS
10
0.966987
20
0.262275
11
0.97
21
0.262874
0
LINE
8
BLACK
6
CONTINUOUS
10
0.97
20
0.262874
11
1.03
21
0.262874
0
LINE
8
BLACK
6
CONTINUOUS
10
1.03
20
0.262874
11
1.03301
21
0.262275
0
LINE
8
BLACK
6
CONTINUOUS
10
1.13301
20
0.262275
11
1.13557
21
0.260568
0
LINE
8
BLACK
6
CONTINUOUS
10
1.13557
20
0.260568
11
1.13727
21
0.258013
0
LINE
8
BLACK
6
CONTINUOUS
10
1.13727
20
0.258013
11
1.13787
21
0.255
0
LINE
8
BLACK
6
CONTINUOUS
10
1.13787
20
0.255
11
1.13787
21
0.195
0
LINE
8
BLACK
6
CONTINUOUS
10
1.13787
20
0.195
11
1.13727
21
0.191987
0
LINE
8
BLACK
6
CONTINUOUS
10
1.13727
20
0.191987
11
1.13557
21
0.189432
0
LINE
8
BLACK
6
CONTINUOUS
10
1.13557
20
0.189432
11
1.13301
21
0.187725
0
LINE
8
BLACK
6
CONTINUOUS
10
1.13301
20
0.187725
11
1.13
21
0.187126
0
LINE
8
BLACK
6
CONTINUOUS
10
1.13
20
0.187126
11
1.07
21
0.187126
0
LINE
8
BLACK
6
CONTINUOUS
10
1.07
20
0.187126
11
1.06699
21
0.187725
0
LINE
8
BLACK
6
CONTINUOUS
10
1.06699
20
0.187725
11
1.06443
21
0.189432
0
LINE
8
BLACK
6
CONTINUOUS
10
1.06443
20
0.189432
11
1.06273
21
0.191987
0
LINE
8
BLACK
6
CONTINUOUS
10
1.06273
20
0.191987
11
1.06213
21
0.195
0
LINE
8
BLACK
6
CONTINUOUS
10
1.06213
20
0.195
11
1.06213
21
0.255
0
LINE
8
BLACK
6
CONTINUOUS
10
1.06213
20
0.255
11
1.06273
21
0.258013
0
LINE
8
BLACK
6
CONTINUOUS
10
1.06273
20
0.258013
11
1.06443
21
0.260568
0
LINE
8
BLACK
6
CONTINUOUS
10
1.06443
20
0.260568
11
1.06699
21
0.262275
0
LINE
8
BLACK
6
CONTINUOUS
10
1.06699
20
0.262275
11
1.07
21
0.262874
0
LINE
8
BLACK
6
CONTINUOUS
10
1.07
20
0.262874
11
1.13
21
0.262874
0
LINE
8
BLACK
6
CONTINUOUS
10
1.13
20
0.262874
11
1.13301
21
0.262275
0
LINE
8
BLACK
6
CONTINUOUS
10
0.483013
20
0.259775
11
0.485568
21
0.258068
0
LINE
8
BLACK
6
CONTINUOUS
10
0.485568
20
0.258068
11
0.487275
21
0.255513
0
LINE
8
BLACK
6
CONTINUOUS
10
0.487275
20
0.255513
11
0.487874
21
0.2525
0
LINE
8
BLACK
6
CONTINUOUS
10
0.487874
20
0.2525
11
0.487874
21
0.2175
0
LINE
8
BLACK
6
CONTINUOUS
10
0.487874
20
0.2175
11
0.487275
21
0.214487
0
LINE
8
BLACK
6
CONTINUOUS
10
0.487275
20
0.214487
11
0.485568
21
0.211932
0
LINE
8
BLACK
6
CONTINUOUS
10
0.485568
20
0.211932
11
0.483013
21
0.210225
0
LINE
8
BLACK
6
CONTINUOUS
10
0.483013
20
0.210225
11
0.48
21
0.209626
0
LINE
8
BLACK
6
CONTINUOUS
10
0.48
20
0.209626
11
0.425
21
0.209626
0
LINE
8
BLACK
6
CONTINUOUS
10
0.425
20
0.209626
11
0.421987
21
0.210225
0
LINE
8
BLACK
6
CONTINUOUS
10
0.421987
20
0.210225
11
0.419432
21
0.211932
0
LINE
8
BLACK
6
CONTINUOUS
10
0.419432
20
0.211932
11
0.417725
21
0.214487
0
LINE
8
BLACK
6
CONTINUOUS
10
0.417725
20
0.214487
11
0.417126
21
0.2175
0
LINE
8
BLACK
6
CONTINUOUS
10
0.417126
20
0.2175
11
0.417126
21
0.2525
0
LINE
8
BLACK
6
CONTINUOUS
10
0.417126
20
0.2525
11
0.417725
21
0.255513
0
LINE
8
BLACK
6
CONTINUOUS
10
0.417725
20
0.255513
11
0.419432
21
0.258068
0
LINE
8
BLACK
6
CONTINUOUS
10
0.419432
20
0.258068
11
0.421987
21
0.259775
0
LINE
8
BLACK
6
CONTINUOUS
10
0.421987
20
0.259775
11
0.425
21
0.260374
0
LINE
8
BLACK
6
CONTINUOUS
10
0.425
20
0.260374
11
0.48
21
0.260374
0
LINE
8
BLACK
6
CONTINUOUS
10
0.48
20
0.260374
11
0.483013
21
0.259775
0
LINE
8
BLACK
6
CONTINUOUS
10
0.575513
20
0.262275
11
0.578068
21
0.260568
0
LINE
8
BLACK
6
CONTINUOUS
10
0.578068
20
0.260568
11
0.579775
21
0.258013
0
LINE
8
BLACK
6
CONTINUOUS
10
0.579775
20
0.258013
11
0.580374
21
0.255
0
LINE
8
BLACK
6
CONTINUOUS
10
0.580374
20
0.255
11
0.580374
21
0.22
0
LINE
8
BLACK
6
CONTINUOUS
10
0.580374
20
0.22
11
0.579775
21
0.216987
0
LINE
8
BLACK
6
CONTINUOUS
10
0.579775
20
0.216987
11
0.578068
21
0.214432
0
LINE
8
BLACK
6
CONTINUOUS
10
0.578068
20
0.214432
11
0.575513
21
0.212725
0
LINE
8
BLACK
6
CONTINUOUS
10
0.575513
20
0.212725
11
0.5725
21
0.212126
0
LINE
8
BLACK
6
CONTINUOUS
10
0.5725
20
0.212126
11
0.5175
21
0.212126
0
LINE
8
BLACK
6
CONTINUOUS
10
0.5175
20
0.212126
11
0.514487
21
0.212725
0
LINE
8
BLACK
6
CONTINUOUS
10
0.514487
20
0.212725
11
0.511932
21
0.214432
0
LINE
8
BLACK
6
CONTINUOUS
10
0.511932
20
0.214432
11
0.510225
21
0.216987
0
LINE
8
BLACK
6
CONTINUOUS
10
0.510225
20
0.216987
11
0.509626
21
0.22
0
LINE
8
BLACK
6
CONTINUOUS
10
0.509626
20
0.22
11
0.509626
21
0.255
0
LINE
8
BLACK
6
CONTINUOUS
10
0.509626
20
0.255
11
0.510225
21
0.258013
0
LINE
8
BLACK
6
CONTINUOUS
10
0.510225
20
0.258013
11
0.511932
21
0.260568
0
LINE
8
BLACK
6
CONTINUOUS
10
0.511932
20
0.260568
11
0.514487
21
0.262275
0
LINE
8
BLACK
6
CONTINUOUS
10
0.514487
20
0.262275
11
0.5175
21
0.262874
0
LINE
8
BLACK
6
CONTINUOUS
10
0.5175
20
0.262874
11
0.5725
21
0.262874
0
LINE
8
BLACK
6
CONTINUOUS
10
0.5725
20
0.262874
11
0.575513
21
0.262275
0
LINE
8
BLACK
6
CONTINUOUS
10
0.670513
20
0.359775
11
0.673068
21
0.358068
0
LINE
8
BLACK
6
CONTINUOUS
10
0.673068
20
0.358068
11
0.674775
21
0.355513
0
LINE
8
BLACK
6
CONTINUOUS
10
0.674775
20
0.355513
11
0.675374
21
0.3525
0
LINE
8
BLACK
6
CONTINUOUS
10
0.675374
20
0.3525
11
0.675374
21
0.2975
0
LINE
8
BLACK
6
CONTINUOUS
10
0.675374
20
0.2975
11
0.674775
21
0.294487
0
LINE
8
BLACK
6
CONTINUOUS
10
0.674775
20
0.294487
11
0.673068
21
0.291932
0
LINE
8
BLACK
6
CONTINUOUS
10
0.673068
20
0.291932
11
0.670513
21
0.290225
0
LINE
8
BLACK
6
CONTINUOUS
10
0.670513
20
0.290225
11
0.6675
21
0.289626
0
LINE
8
BLACK
6
CONTINUOUS
10
0.6675
20
0.289626
11
0.6325
21
0.289626
0
LINE
8
BLACK
6
CONTINUOUS
10
0.6325
20
0.289626
11
0.629487
21
0.290225
0
LINE
8
BLACK
6
CONTINUOUS
10
0.629487
20
0.290225
11
0.626932
21
0.291932
0
LINE
8
BLACK
6
CONTINUOUS
10
0.626932
20
0.291932
11
0.625225
21
0.294487
0
LINE
8
BLACK
6
CONTINUOUS
10
0.625225
20
0.294487
11
0.624626
21
0.2975
0
LINE
8
BLACK
6
CONTINUOUS
10
0.624626
20
0.2975
11
0.624626
21
0.3525
0
LINE
8
BLACK
6
CONTINUOUS
10
0.624626
20
0.3525
11
0.625225
21
0.355513
0
LINE
8
BLACK
6
CONTINUOUS
10
0.625225
20
0.355513
11
0.626932
21
0.358068
0
LINE
8
BLACK
6
CONTINUOUS
10
0.626932
20
0.358068
11
0.629487
21
0.359775
0
LINE
8
BLACK
6
CONTINUOUS
10
0.629487
20
0.359775
11
0.6325
21
0.360374
0
LINE
8
BLACK
6
CONTINUOUS
10
0.6325
20
0.360374
11
0.6675
21
0.360374
0
LINE
8
BLACK
6
CONTINUOUS
10
0.6675
20
0.360374
11
0.670513
21
0.359775
0
LINE
8
BLACK
6
CONTINUOUS
10
0.745513
20
0.359775
11
0.748068
21
0.358068
0
LINE
8
BLACK
6
CONTINUOUS
10
0.748068
20
0.358068
11
0.749775
21
0.355513
0
LINE
8
BLACK
6
CONTINUOUS
10
0.749775
20
0.355513
11
0.750374
21
0.3525
0
LINE
8
BLACK
6
CONTINUOUS
10
0.750374
20
0.3525
11
0.750374
21
0.2975
0
LINE
8
BLACK
6
CONTINUOUS
10
0.750374
20
0.2975
11
0.749775
21
0.294487
0
LINE
8
BLACK
6
CONTINUOUS
10
0.749775
20
0.294487
11
0.748068
21
0.291932
0
LINE
8
BLACK
6
CONTINUOUS
10
0.748068
20
0.291932
11
0.745513
21
0.290225
0
LINE
8
BLACK
6
CONTINUOUS
10
0.745513
20
0.290225
11
0.7425
21
0.289626
0
LINE
8
BLACK
6
CONTINUOUS
10
0.7425
20
0.289626
11
0.7075
21
0.289626
0
LINE
8
BLACK
6
CONTINUOUS
10
0.7075
20
0.289626
11
0.704487
21
0.290225
0
LINE
8
BLACK
6
CONTINUOUS
10
0.704487
20
0.290225
11
0.701932
21
0.291932
0
LINE
8
BLACK
6
CONTINUOUS
10
0.701932
20
0.291932
11
0.700225
21
0.294487
0
LINE
8
BLACK
6
CONTINUOUS
10
0.700225
20
0.294487
11
0.699626
21
0.2975
0
LINE
8
BLACK
6
CONTINUOUS
10
0.699626
20
0.2975
11
0.699626
21
0.3525
0
LINE
8
BLACK
6
CONTINUOUS
10
0.699626
20
0.3525
11
0.700225
21
0.355513
0
LINE
8
BLACK
6
CONTINUOUS
10
0.700225
20
0.355513
11
0.701932
21
0.358068
0
LINE
8
BLACK
6
CONTINUOUS
10
0.701932
20
0.358068
11
0.704487
21
0.359775
0
LINE
8
BLACK
6
CONTINUOUS
10
0.704487
20
0.359775
11
0.7075
21
0.360374
0
LINE
8
BLACK
6
CONTINUOUS
10
0.7075
20
0.360374
11
0.7425
21
0.360374
0
LINE
8
BLACK
6
CONTINUOUS
10
0.7425
20
0.360374
11
0.745513
21
0.359775
0
LINE
8
BLACK
6
CONTINUOUS
10
0.868013
20
0.364775
11
0.870568
21
0.363068
0
LINE
8
BLACK
6
CONTINUOUS
10
0.870568
20
0.363068
11
0.872275
21
0.360513
0
LINE
8
BLACK
6
CONTINUOUS
10
0.872275
20
0.360513
11
0.872874
21
0.3575
0
LINE
8
BLACK
6
CONTINUOUS
10
0.872874
20
0.3575
11
0.872874
21
0.3025
0
LINE
8
BLACK
6
CONTINUOUS
10
0.872874
20
0.3025
11
0.872275
21
0.299487
0
LINE
8
BLACK
6
CONTINUOUS
10
0.872275
20
0.299487
11
0.870568
21
0.296932
0
LINE
8
BLACK
6
CONTINUOUS
10
0.870568
20
0.296932
11
0.868013
21
0.295225
0
LINE
8
BLACK
6
CONTINUOUS
10
0.868013
20
0.295225
11
0.865
21
0.294626
0
LINE
8
BLACK
6
CONTINUOUS
10
0.865
20
0.294626
11
0.83
21
0.294626
0
LINE
8
BLACK
6
CONTINUOUS
10
0.83
20
0.294626
11
0.826987
21
0.295225
0
LINE
8
BLACK
6
CONTINUOUS
10
0.826987
20
0.295225
11
0.824432
21
0.296932
0
LINE
8
BLACK
6
CONTINUOUS
10
0.824432
20
0.296932
11
0.822725
21
0.299487
0
LINE
8
BLACK
6
CONTINUOUS
10
0.822725
20
0.299487
11
0.822126
21
0.3025
0
LINE
8
BLACK
6
CONTINUOUS
10
0.822126
20
0.3025
11
0.822126
21
0.3575
0
LINE
8
BLACK
6
CONTINUOUS
10
0.822126
20
0.3575
11
0.822725
21
0.360513
0
LINE
8
BLACK
6
CONTINUOUS
10
0.822725
20
0.360513
11
0.824432
21
0.363068
0
LINE
8
BLACK
6
CONTINUOUS
10
0.824432
20
0.363068
11
0.826987
21
0.364775
0
LINE
8
BLACK
6
CONTINUOUS
10
0.826987
20
0.364775
11
0.83
21
0.365374
0
LINE
8
BLACK
6
CONTINUOUS
10
0.83
20
0.365374
11
0.865
21
0.365374
0
LINE
8
BLACK
6
CONTINUOUS
10
0.865
20
0.365374
11
0.868013
21
0.364775
0
LINE
8
BLACK
6
CONTINUOUS
10
0.943013
20
0.364775
11
0.945568
21
0.363068
0
LINE
8
BLACK
6
CONTINUOUS
10
0.945568
20
0.363068
11
0.947275
21
0.360513
0
LINE
8
BLACK
6
CONTINUOUS
10
0.947275
20
0.360513
11
0.947874
21
0.3575
0
LINE
8
BLACK
6
CONTINUOUS
10
0.947874
20
0.3575
11
0.947874
21
0.3025
0
LINE
8
BLACK
6
CONTINUOUS
10
0.947874
20
0.3025
11
0.947275
21
0.299487
0
LINE
8
BLACK
6
CONTINUOUS
10
0.947275
20
0.299487
11
0.945568
21
0.296932
0
LINE
8
BLACK
6
CONTINUOUS
10
0.945568
20
0.296932
11
0.943013
21
0.295225
0
LINE
8
BLACK
6
CONTINUOUS
10
0.943013
20
0.295225
11
0.94
21
0.294626
0
LINE
8
BLACK
6
CONTINUOUS
10
0.94
20
0.294626
11
0.905
21
0.294626
0
LINE
8
BLACK
6
CONTINUOUS
10
0.905
20
0.294626
11
0.901987
21
0.295225
0
LINE
8
BLACK
6
CONTINUOUS
10
0.901987
20
0.295225
11
0.899432
21
0.296932
0
LINE
8
BLACK
6
CONTINUOUS
10
0.899432
20
0.296932
11
0.897725
21
0.299487
0
LINE
8
BLACK
6
CONTINUOUS
10
0.897725
20
0.299487
11
0.897126
21
0.3025
0
LINE
8
BLACK
6
CONTINUOUS
10
0.897126
20
0.3025
11
0.897126
21
0.3575
0
LINE
8
BLACK
6
CONTINUOUS
10
0.897126
20
0.3575
11
0.897725
21
0.360513
0
LINE
8
BLACK
6
CONTINUOUS
10
0.897725
20
0.360513
11
0.899432
21
0.363068
0
LINE
8
BLACK
6
CONTINUOUS
10
0.899432
20
0.363068
11
0.901987
21
0.364775
0
LINE
8
BLACK
6
CONTINUOUS
10
0.901987
20
0.364775
11
0.905
21
0.365374
0
LINE
8
BLACK
6
CONTINUOUS
10
0.905
20
0.365374
11
0.94
21
0.365374
0
LINE
8
BLACK
6
CONTINUOUS
10
0.94
20
0.365374
11
0.943013
21
0.364775
0
LINE
8
BLACK
6
CONTINUOUS
10
1.05006
20
0.492925
11
1.05262
21
0.491218
0
LINE
8
BLACK
6
CONTINUOUS
10
1.05262
20
0.491218
11
1.05432
21
0.488663
0
LINE
8
BLACK
6
CONTINUOUS
10
1.05432
20
0.488663
11
1.05492
21
0.48565
0
LINE
8
BLACK
6
CONTINUOUS
10
1.05492
20
0.48565
11
1.05492
21
0.37935
0
LINE
8
BLACK
6
CONTINUOUS
10
1.05492
20
0.37935
11
1.05432
21
0.376337
0
LINE
8
BLACK
6
CONTINUOUS
10
1.05432
20
0.376337
11
1.05262
21
0.373782
0
LINE
8
BLACK
6
CONTINUOUS
10
1.05262
20
0.373782
11
1.05006
21
0.372075
0
LINE
8
BLACK
6
CONTINUOUS
10
1.05006
20
0.372075
11
1.04705
21
0.371476
0
LINE
8
BLACK
6
CONTINUOUS
10
1.04705
20
0.371476
11
0.98795
21
0.371476
0
LINE
8
BLACK
6
CONTINUOUS
10
0.98795
20
0.371476
11
0.984937
21
0.372075
0
LINE
8
BLACK
6
CONTINUOUS
10
0.984937
20
0.372075
11
0.982382
21
0.373782
0
LINE
8
BLACK
6
CONTINUOUS
10
0.982382
20
0.373782
11
0.980675
21
0.376337
0
LINE
8
BLACK
6
CONTINUOUS
10
0.980675
20
0.376337
11
0.980076
21
0.37935
0
LINE
8
BLACK
6
CONTINUOUS
10
0.980076
20
0.37935
11
0.980076
21
0.48565
0
LINE
8
BLACK
6
CONTINUOUS
10
0.980076
20
0.48565
11
0.980675
21
0.488663
0
LINE
8
BLACK
6
CONTINUOUS
10
0.980675
20
0.488663
11
0.982382
21
0.491218
0
LINE
8
BLACK
6
CONTINUOUS
10
0.982382
20
0.491218
11
0.984937
21
0.492925
0
LINE
8
BLACK
6
CONTINUOUS
10
0.984937
20
0.492925
11
0.98795
21
0.493524
0
LINE
8
BLACK
6
CONTINUOUS
10
0.98795
20
0.493524
11
1.04705
21
0.493524
0
LINE
8
BLACK
6
CONTINUOUS
10
1.04705
20
0.493524
11
1.05006
21
0.492925
0
LINE
8
BLACK
6
CONTINUOUS
10
1.23906
20
0.492925
11
1.24162
21
0.491218
0
LINE
8
BLACK
6
CONTINUOUS
10
1.24162
20
0.491218
11
1.24332
21
0.488663
0
LINE
8
BLACK
6
CONTINUOUS
10
1.24332
20
0.488663
11
1.24392
21
0.48565
0
LINE
8
BLACK
6
CONTINUOUS
10
1.24392
20
0.48565
11
1.24392
21
0.37935
0
LINE
8
BLACK
6
CONTINUOUS
10
1.24392
20
0.37935
11
1.24332
21
0.376337
0
LINE
8
BLACK
6
CONTINUOUS
10
1.24332
20
0.376337
11
1.24162
21
0.373782
0
LINE
8
BLACK
6
CONTINUOUS
10
1.24162
20
0.373782
11
1.23906
21
0.372075
0
LINE
8
BLACK
6
CONTINUOUS
10
1.23906
20
0.372075
11
1.23605
21
0.371476
0
LINE
8
BLACK
6
CONTINUOUS
10
1.23605
20
0.371476
11
1.17695
21
0.371476
0
LINE
8
BLACK
6
CONTINUOUS
10
1.17695
20
0.371476
11
1.17394
21
0.372075
0
LINE
8
BLACK
6
CONTINUOUS
10
1.17394
20
0.372075
11
1.17138
21
0.373782
0
LINE
8
BLACK
6
CONTINUOUS
10
1.17138
20
0.373782
11
1.16968
21
0.376337
0
LINE
8
BLACK
6
CONTINUOUS
10
1.16968
20
0.376337
11
1.16908
21
0.37935
0
LINE
8
BLACK
6
CONTINUOUS
10
1.16908
20
0.37935
11
1.16908
21
0.48565
0
LINE
8
BLACK
6
CONTINUOUS
10
1.16908
20
0.48565
11
1.16968
21
0.488663
0
LINE
8
BLACK
6
CONTINUOUS
10
1.16968
20
0.488663
11
1.17138
21
0.491218
0
LINE
8
BLACK
6
CONTINUOUS
10
1.17138
20
0.491218
11
1.17394
21
0.492925
0
LINE
8
BLACK
6
CONTINUOUS
10
1.17394
20
0.492925
11
1.17695
21
0.493524
0
LINE
8
BLACK
6
CONTINUOUS
10
1.17695
20
0.493524
11
1.23605
21
0.493524
0
LINE
8
BLACK
6
CONTINUOUS
10
1.23605
20
0.493524
11
1.23906
21
0.492925
0
LINE
8
BLACK
6
CONTINUOUS
10
0.868013
20
0.452275
11
0.870568
21
0.450568
0
LINE
8
BLACK
6
CONTINUOUS
10
0.870568
20
0.450568
11
0.872275
21
0.448013
0
LINE
8
BLACK
6
CONTINUOUS
10
0.872275
20
0.448013
11
0.872874
21
0.445
0
LINE
8
BLACK
6
CONTINUOUS
10
0.872874
20
0.445
11
0.872874
21
0.39
0
LINE
8
BLACK
6
CONTINUOUS
10
0.872874
20
0.39
11
0.872275
21
0.386987
0
LINE
8
BLACK
6
CONTINUOUS
10
0.872275
20
0.386987
11
0.870568
21
0.384432
0
LINE
8
BLACK
6
CONTINUOUS
10
0.870568
20
0.384432
11
0.868013
21
0.382725
0
LINE
8
BLACK
6
CONTINUOUS
10
0.868013
20
0.382725
11
0.865
21
0.382126
0
LINE
8
BLACK
6
CONTINUOUS
10
0.865
20
0.382126
11
0.83
21
0.382126
0
LINE
8
BLACK
6
CONTINUOUS
10
0.83
20
0.382126
11
0.826987
21
0.382725
0
LINE
8
BLACK
6
CONTINUOUS
10
0.826987
20
0.382725
11
0.824432
21
0.384432
0
LINE
8
BLACK
6
CONTINUOUS
10
0.824432
20
0.384432
11
0.822725
21
0.386987
0
LINE
8
BLACK
6
CONTINUOUS
10
0.822725
20
0.386987
11
0.822126
21
0.39
0
LINE
8
BLACK
6
CONTINUOUS
10
0.822126
20
0.39
11
0.822126
21
0.445
0
LINE
8
BLACK
6
CONTINUOUS
10
0.822126
20
0.445
11
0.822725
21
0.448013
0
LINE
8
BLACK
6
CONTINUOUS
10
0.822725
20
0.448013
11
0.824432
21
0.450568
0
LINE
8
BLACK
6
CONTINUOUS
10
0.824432
20
0.450568
11
0.826987
21
0.452275
0
LINE
8
BLACK
6
CONTINUOUS
10
0.826987
20
0.452275
11
0.83
21
0.452874
0
LINE
8
BLACK
6
CONTINUOUS
10
0.83
20
0.452874
11
0.865
21
0.452874
0
LINE
8
BLACK
6
CONTINUOUS
10
0.865
20
0.452874
11
0.868013
21
0.452275
0
LINE
8
BLACK
6
CONTINUOUS
10
0.943013
20
0.452275
11
0.945568
21
0.450568
0
LINE
8
BLACK
6
CONTINUOUS
10
0.945568
20
0.450568
11
0.947275
21
0.448013
0
LINE
8
BLACK
6
CONTINUOUS
10
0.947275
20
0.448013
11
0.947874
21
0.445
0
LINE
8
BLACK
6
CONTINUOUS
10
0.947874
20
0.445
11
0.947874
21
0.39
0
LINE
8
BLACK
6
CONTINUOUS
10
0.947874
20
0.39
11
0.947275
21
0.386987
0
LINE
8
BLACK
6
CONTINUOUS
10
0.947275
20
0.386987
11
0.945568
21
0.384432
0
LINE
8
BLACK
6
CONTINUOUS
10
0.945568
20
0.384432
11
0.943013
21
0.382725
0
LINE
8
BLACK
6
CONTINUOUS
10
0.943013
20
0.382725
11
0.94
21
0.382126
0
LINE
8
BLACK
6
CONTINUOUS
10
0.94
20
0.382126
11
0.905
21
0.382126
0
LINE
8
BLACK
6
CONTINUOUS
10
0.905
20
0.382126
11
0.901987
21
0.382725
0
LINE
8
BLACK
6
CONTINUOUS
10
0.901987
20
0.382725
11
0.899432
21
0.384432
0
LINE
8
BLACK
6
CONTINUOUS
10
0.899432
20
0.384432
11
0.897725
21
0.386987
0
LINE
8
BLACK
6
CONTINUOUS
10
0.897725
20
0.386987
11
0.897126
21
0.39
0
LINE
8
BLACK
6
CONTINUOUS
10
0.897126
20
0.39
11
0.897126
21
0.445
0
LINE
8
BLACK
6
CONTINUOUS
10
0.897126
20
0.445
11
0.897725
21
0.448013
0
LINE
8
BLACK
6
CONTINUOUS
10
0.897725
20
0.448013
11
0.899432
21
0.450568
0
LINE
8
BLACK
6
CONTINUOUS
10
0.899432
20
0.450568
11
0.901987
21
0.452275
0
LINE
8
BLACK
6
CONTINUOUS
10
0.901987
20
0.452275
11
0.905
21
0.452874
0
LINE
8
BLACK
6
CONTINUOUS
10
0.905
20
0.452874
11
0.94
21
0.452874
0
LINE
8
BLACK
6
CONTINUOUS
10
0.94
20
0.452874
11
0.943013
21
0.452275
0
LINE
8
BLACK
6
CONTINUOUS
10
0.193505
20
0.449794
11
0.19606
21
0.448087
0
LINE
8
BLACK
6
CONTINUOUS
10
0.19606
20
0.448087
11
0.197767
21
0.445533
0
LINE
8
BLACK
6
CONTINUOUS
10
0.197767
20
0.445533
11
0.198366
21
0.44252
0
LINE
8
BLACK
6
CONTINUOUS
10
0.198366
20
0.44252
11
0.198366
21
0.391339
0
LINE
8
BLACK
6
CONTINUOUS
10
0.198366
20
0.391339
11
0.197767
21
0.388325
0
LINE
8
BLACK
6
CONTINUOUS
10
0.197767
20
0.388325
11
0.19606
21
0.385771
0
LINE
8
BLACK
6
CONTINUOUS
10
0.19606
20
0.385771
11
0.193505
21
0.384064
0
LINE
8
BLACK
6
CONTINUOUS
10
0.193505
20
0.384064
11
0.190492
21
0.383465
0
LINE
8
BLACK
6
CONTINUOUS
10
0.190492
20
0.383465
11
0.0645079
21
0.383465
0
LINE
8
BLACK
6
CONTINUOUS
10
0.0645079
20
0.383465
11
0.0614946
21
0.384064
0
LINE
8
BLACK
6
CONTINUOUS
10
0.0614946
20
0.384064
11
0.0589401
21
0.385771
0
LINE
8
BLACK
6
CONTINUOUS
10
0.0589401
20
0.385771
11
0.0572332
21
0.388325
0
LINE
8
BLACK
6
CONTINUOUS
10
0.0572332
20
0.388325
11
0.0566339
21
0.391339
0
LINE
8
BLACK
6
CONTINUOUS
10
0.0566339
20
0.391339
11
0.0566339
21
0.44252
0
LINE
8
BLACK
6
CONTINUOUS
10
0.0566339
20
0.44252
11
0.0572332
21
0.445533
0
LINE
8
BLACK
6
CONTINUOUS
10
0.0572332
20
0.445533
11
0.0589401
21
0.448087
0
LINE
8
BLACK
6
CONTINUOUS
10
0.0589401
20
0.448087
11
0.0614946
21
0.449794
0
LINE
8
BLACK
6
CONTINUOUS
10
0.0614946
20
0.449794
11
0.0645079
21
0.450394
0
LINE
8
BLACK
6
CONTINUOUS
10
0.0645079
20
0.450394
11
0.190492
21
0.450394
0
LINE
8
BLACK
6
CONTINUOUS
10
0.190492
20
0.450394
11
0.193505
21
0.449794
0
LINE
8
BLACK
6
CONTINUOUS
10
0.550513
20
0.444775
11
0.553068
21
0.443068
0
LINE
8
BLACK
6
CONTINUOUS
10
0.553068
20
0.443068
11
0.554775
21
0.440513
0
LINE
8
BLACK
6
CONTINUOUS
10
0.554775
20
0.440513
11
0.555374
21
0.4375
0
LINE
8
BLACK
6
CONTINUOUS
10
0.555374
20
0.4375
11
0.555374
21
0.4025
0
LINE
8
BLACK
6
CONTINUOUS
10
0.555374
20
0.4025
11
0.554775
21
0.399487
0
LINE
8
BLACK
6
CONTINUOUS
10
0.554775
20
0.399487
11
0.553068
21
0.396932
0
LINE
8
BLACK
6
CONTINUOUS
10
0.553068
20
0.396932
11
0.550513
21
0.395225
0
LINE
8
BLACK
6
CONTINUOUS
10
0.550513
20
0.395225
11
0.5475
21
0.394626
0
LINE
8
BLACK
6
CONTINUOUS
10
0.5475
20
0.394626
11
0.4925
21
0.394626
0
LINE
8
BLACK
6
CONTINUOUS
10
0.4925
20
0.394626
11
0.489487
21
0.395225
0
LINE
8
BLACK
6
CONTINUOUS
10
0.489487
20
0.395225
11
0.486932
21
0.396932
0
LINE
8
BLACK
6
CONTINUOUS
10
0.486932
20
0.396932
11
0.485225
21
0.399487
0
LINE
8
BLACK
6
CONTINUOUS
10
0.485225
20
0.399487
11
0.484626
21
0.4025
0
LINE
8
BLACK
6
CONTINUOUS
10
0.484626
20
0.4025
11
0.484626
21
0.4375
0
LINE
8
BLACK
6
CONTINUOUS
10
0.484626
20
0.4375
11
0.485225
21
0.440513
0
LINE
8
BLACK
6
CONTINUOUS
10
0.485225
20
0.440513
11
0.486932
21
0.443068
0
LINE
8
BLACK
6
CONTINUOUS
10
0.486932
20
0.443068
11
0.489487
21
0.444775
0
LINE
8
BLACK
6
CONTINUOUS
10
0.489487
20
0.444775
11
0.4925
21
0.445374
0
LINE
8
BLACK
6
CONTINUOUS
10
0.4925
20
0.445374
11
0.5475
21
0.445374
0
LINE
8
BLACK
6
CONTINUOUS
10
0.5475
20
0.445374
11
0.550513
21
0.444775
0
LINE
8
BLACK
6
CONTINUOUS
10
0.550513
20
0.519775
11
0.553068
21
0.518068
0
LINE
8
BLACK
6
CONTINUOUS
10
0.553068
20
0.518068
11
0.554775
21
0.515513
0
LINE
8
BLACK
6
CONTINUOUS
10
0.554775
20
0.515513
11
0.555374
21
0.5125
0
LINE
8
BLACK
6
CONTINUOUS
10
0.555374
20
0.5125
11
0.555374
21
0.4775
0
LINE
8
BLACK
6
CONTINUOUS
10
0.555374
20
0.4775
11
0.554775
21
0.474487
0
LINE
8
BLACK
6
CONTINUOUS
10
0.554775
20
0.474487
11
0.553068
21
0.471932
0
LINE
8
BLACK
6
CONTINUOUS
10
0.553068
20
0.471932
11
0.550513
21
0.470225
0
LINE
8
BLACK
6
CONTINUOUS
10
0.550513
20
0.470225
11
0.5475
21
0.469626
0
LINE
8
BLACK
6
CONTINUOUS
10
0.5475
20
0.469626
11
0.4925
21
0.469626
0
LINE
8
BLACK
6
CONTINUOUS
10
0.4925
20
0.469626
11
0.489487
21
0.470225
0
LINE
8
BLACK
6
CONTINUOUS
10
0.489487
20
0.470225
11
0.486932
21
0.471932
0
LINE
8
BLACK
6
CONTINUOUS
10
0.486932
20
0.471932
11
0.485225
21
0.474487
0
LINE
8
BLACK
6
CONTINUOUS
10
0.485225
20
0.474487
11
0.484626
21
0.4775
0
LINE
8
BLACK
6
CONTINUOUS
10
0.484626
20
0.4775
11
0.484626
21
0.5125
0
LINE
8
BLACK
6
CONTINUOUS
10
0.484626
20
0.5125
11
0.485225
21
0.515513
0
LINE
8
BLACK
6
CONTINUOUS
10
0.485225
20
0.515513
11
0.486932
21
0.518068
0
LINE
8
BLACK
6
CONTINUOUS
10
0.486932
20
0.518068
11
0.489487
21
0.519775
0
LINE
8
BLACK
6
CONTINUOUS
10
0.489487
20
0.519775
11
0.4925
21
0.520374
0
LINE
8
BLACK
6
CONTINUOUS
10
0.4925
20
0.520374
11
0.5475
21
0.520374
0
LINE
8
BLACK
6
CONTINUOUS
10
0.5475
20
0.520374
11
0.550513
21
0.519775
0
LINE
8
BLACK
6
CONTINUOUS
10
0.69947
20
0.745385
11
0.702024
21
0.743678
0
LINE
8
BLACK
6
CONTINUOUS
10
0.702024
20
0.743678
11
0.703731
21
0.741124
0
LINE
8
BLACK
6
CONTINUOUS
10
0.703731
20
0.741124
11
0.704331
21
0.73811
0
LINE
8
BLACK
6
CONTINUOUS
10
0.704331
20
0.73811
11
0.704331
21
0.682992
0
LINE
8
BLACK
6
CONTINUOUS
10
0.704331
20
0.682992
11
0.703909
21
0.680873
0
LINE
8
BLACK
6
CONTINUOUS
10
0.703909
20
0.680873
11
0.706163
21
0.680424
0
LINE
8
BLACK
6
CONTINUOUS
10
0.706163
20
0.680424
11
0.708717
21
0.678717
0
LINE
8
BLACK
6
CONTINUOUS
10
0.708717
20
0.678717
11
0.710424
21
0.676163
0
LINE
8
BLACK
6
CONTINUOUS
10
0.710424
20
0.676163
11
0.710858
21
0.673984
0
LINE
8
BLACK
6
CONTINUOUS
10
0.710858
20
0.673984
11
0.712598
21
0.674331
0
LINE
8
BLACK
6
CONTINUOUS
10
0.712598
20
0.674331
11
0.767717
21
0.674331
0
LINE
8
BLACK
6
CONTINUOUS
10
0.767717
20
0.674331
11
0.77073
21
0.673731
0
LINE
8
BLACK
6
CONTINUOUS
10
0.77073
20
0.673731
11
0.773284
21
0.672024
0
LINE
8
BLACK
6
CONTINUOUS
10
0.773284
20
0.672024
11
0.774991
21
0.66947
0
LINE
8
BLACK
6
CONTINUOUS
10
0.774991
20
0.66947
11
0.775591
21
0.666457
0
LINE
8
BLACK
6
CONTINUOUS
10
0.775591
20
0.666457
11
0.775591
21
0.650709
0
LINE
8
BLACK
6
CONTINUOUS
10
0.775591
20
0.650709
11
0.774991
21
0.647695
0
LINE
8
BLACK
6
CONTINUOUS
10
0.774991
20
0.647695
11
0.77365
21
0.645689
0
LINE
8
BLACK
6
CONTINUOUS
10
0.77365
20
0.645689
11
0.774991
21
0.643683
0
LINE
8
BLACK
6
CONTINUOUS
10
0.774991
20
0.643683
11
0.775591
21
0.640669
0
LINE
8
BLACK
6
CONTINUOUS
10
0.775591
20
0.640669
11
0.775591
21
0.624921
0
LINE
8
BLACK
6
CONTINUOUS
10
0.775591
20
0.624921
11
0.774991
21
0.621908
0
LINE
8
BLACK
6
CONTINUOUS
10
0.774991
20
0.621908
11
0.773716
21
0.62
0
LINE
8
BLACK
6
CONTINUOUS
10
0.773716
20
0.62
11
0.774991
21
0.618092
0
LINE
8
BLACK
6
CONTINUOUS
10
0.774991
20
0.618092
11
0.775591
21
0.615079
0
LINE
8
BLACK
6
CONTINUOUS
10
0.775591
20
0.615079
11
0.775591
21
0.599331
0
LINE
8
BLACK
6
CONTINUOUS
10
0.775591
20
0.599331
11
0.774991
21
0.596317
0
LINE
8
BLACK
6
CONTINUOUS
10
0.774991
20
0.596317
11
0.77365
21
0.594311
0
LINE
8
BLACK
6
CONTINUOUS
10
0.77365
20
0.594311
11
0.774991
21
0.592305
0
LINE
8
BLACK
6
CONTINUOUS
10
0.774991
20
0.592305
11
0.775591
21
0.589291
0
LINE
8
BLACK
6
CONTINUOUS
10
0.775591
20
0.589291
11
0.775591
21
0.573543
0
LINE
8
BLACK
6
CONTINUOUS
10
0.775591
20
0.573543
11
0.774991
21
0.57053
0
LINE
8
BLACK
6
CONTINUOUS
10
0.774991
20
0.57053
11
0.773284
21
0.567976
0
LINE
8
BLACK
6
CONTINUOUS
10
0.773284
20
0.567976
11
0.77073
21
0.566269
0
LINE
8
BLACK
6
CONTINUOUS
10
0.77073
20
0.566269
11
0.767717
21
0.565669
0
LINE
8
BLACK
6
CONTINUOUS
10
0.767717
20
0.565669
11
0.712598
21
0.565669
0
LINE
8
BLACK
6
CONTINUOUS
10
0.712598
20
0.565669
11
0.710858
21
0.566016
0
LINE
8
BLACK
6
CONTINUOUS
10
0.710858
20
0.566016
11
0.710424
21
0.563837
0
LINE
8
BLACK
6
CONTINUOUS
10
0.710424
20
0.563837
11
0.708717
21
0.561283
0
LINE
8
BLACK
6
CONTINUOUS
10
0.708717
20
0.561283
11
0.706163
21
0.559576
0
LINE
8
BLACK
6
CONTINUOUS
10
0.706163
20
0.559576
11
0.703909
21
0.559127
0
LINE
8
BLACK
6
CONTINUOUS
10
0.703909
20
0.559127
11
0.704331
21
0.557008
0
LINE
8
BLACK
6
CONTINUOUS
10
0.704331
20
0.557008
11
0.704331
21
0.50189
0
LINE
8
BLACK
6
CONTINUOUS
10
0.704331
20
0.50189
11
0.703731
21
0.498876
0
LINE
8
BLACK
6
CONTINUOUS
10
0.703731
20
0.498876
11
0.702024
21
0.496322
0
LINE
8
BLACK
6
CONTINUOUS
10
0.702024
20
0.496322
11
0.69947
21
0.494615
0
LINE
8
BLACK
6
CONTINUOUS
10
0.69947
20
0.494615
11
0.696457
21
0.494016
0
LINE
8
BLACK
6
CONTINUOUS
10
0.696457
20
0.494016
11
0.680709
21
0.494016
0
LINE
8
BLACK
6
CONTINUOUS
10
0.680709
20
0.494016
11
0.677695
21
0.494615
0
LINE
8
BLACK
6
CONTINUOUS
10
0.677695
20
0.494615
11
0.675571
21
0.496035
0
LINE
8
BLACK
6
CONTINUOUS
10
0.675571
20
0.496035
11
0.673683
21
0.494773
0
LINE
8
BLACK
6
CONTINUOUS
10
0.673683
20
0.494773
11
0.670669
21
0.494173
0
LINE
8
BLACK
6
CONTINUOUS
10
0.670669
20
0.494173
11
0.654921
21
0.494173
0
LINE
8
BLACK
6
CONTINUOUS
10
0.654921
20
0.494173
11
0.651908
21
0.494773
0
LINE
8
BLACK
6
CONTINUOUS
10
0.651908
20
0.494773
11
0.65
21
0.496048
0
LINE
8
BLACK
6
CONTINUOUS
10
0.65
20
0.496048
11
0.648092
21
0.494773
0
LINE
8
BLACK
6
CONTINUOUS
10
0.648092
20
0.494773
11
0.645079
21
0.494173
0
LINE
8
BLACK
6
CONTINUOUS
10
0.645079
20
0.494173
11
0.629331
21
0.494173
0
LINE
8
BLACK
6
CONTINUOUS
10
0.629331
20
0.494173
11
0.626317
21
0.494773
0
LINE
8
BLACK
6
CONTINUOUS
10
0.626317
20
0.494773
11
0.624409
21
0.496048
0
LINE
8
BLACK
6
CONTINUOUS
10
0.624409
20
0.496048
11
0.622501
21
0.494773
0
LINE
8
BLACK
6
CONTINUOUS
10
0.622501
20
0.494773
11
0.619488
21
0.494173
0
LINE
8
BLACK
6
CONTINUOUS
10
0.619488
20
0.494173
11
0.60374
21
0.494173
0
LINE
8
BLACK
6
CONTINUOUS
10
0.60374
20
0.494173
11
0.600727
21
0.494773
0
LINE
8
BLACK
6
CONTINUOUS
10
0.600727
20
0.494773
11
0.598172
21
0.496479
0
LINE
8
BLACK
6
CONTINUOUS
10
0.598172
20
0.496479
11
0.596466
21
0.499034
0
LINE
8
BLACK
6
CONTINUOUS
10
0.596466
20
0.499034
11
0.595866
21
0.502047
0
LINE
8
BLACK
6
CONTINUOUS
10
0.595866
20
0.502047
11
0.595866
21
0.557165
0
LINE
8
BLACK
6
CONTINUOUS
10
0.595866
20
0.557165
11
0.59625
21
0.559096
0
LINE
8
BLACK
6
CONTINUOUS
10
0.59625
20
0.559096
11
0.593837
21
0.559576
0
LINE
8
BLACK
6
CONTINUOUS
10
0.593837
20
0.559576
11
0.591283
21
0.561283
0
LINE
8
BLACK
6
CONTINUOUS
10
0.591283
20
0.561283
11
0.589576
21
0.563837
0
LINE
8
BLACK
6
CONTINUOUS
10
0.589576
20
0.563837
11
0.58909
21
0.56628
0
LINE
8
BLACK
6
CONTINUOUS
10
0.58909
20
0.56628
11
0.587008
21
0.565866
0
LINE
8
BLACK
6
CONTINUOUS
10
0.587008
20
0.565866
11
0.53189
21
0.565866
0
LINE
8
BLACK
6
CONTINUOUS
10
0.53189
20
0.565866
11
0.528876
21
0.566466
0
LINE
8
BLACK
6
CONTINUOUS
10
0.528876
20
0.566466
11
0.526322
21
0.568172
0
LINE
8
BLACK
6
CONTINUOUS
10
0.526322
20
0.568172
11
0.524615
21
0.570727
0
LINE
8
BLACK
6
CONTINUOUS
10
0.524615
20
0.570727
11
0.524016
21
0.57374
0
LINE
8
BLACK
6
CONTINUOUS
10
0.524016
20
0.57374
11
0.524016
21
0.589488
0
LINE
8
BLACK
6
CONTINUOUS
10
0.524016
20
0.589488
11
0.524615
21
0.592501
0
LINE
8
BLACK
6
CONTINUOUS
10
0.524615
20
0.592501
11
0.52589
21
0.594409
0
LINE
8
BLACK
6
CONTINUOUS
10
0.52589
20
0.594409
11
0.524615
21
0.596317
0
LINE
8
BLACK
6
CONTINUOUS
10
0.524615
20
0.596317
11
0.524016
21
0.599331
0
LINE
8
BLACK
6
CONTINUOUS
10
0.524016
20
0.599331
11
0.524016
21
0.615079
0
LINE
8
BLACK
6
CONTINUOUS
10
0.524016
20
0.615079
11
0.524615
21
0.618092
0
LINE
8
BLACK
6
CONTINUOUS
10
0.524615
20
0.618092
11
0.52589
21
0.62
0
LINE
8
BLACK
6
CONTINUOUS
10
0.52589
20
0.62
11
0.524615
21
0.621908
0
LINE
8
BLACK
6
CONTINUOUS
10
0.524615
20
0.621908
11
0.524016
21
0.624921
0
LINE
8
BLACK
6
CONTINUOUS
10
0.524016
20
0.624921
11
0.524016
21
0.640669
0
LINE
8
BLACK
6
CONTINUOUS
10
0.524016
20
0.640669
11
0.524615
21
0.643683
0
LINE
8
BLACK
6
CONTINUOUS
10
0.524615
20
0.643683
11
0.525956
21
0.645689
0
LINE
8
BLACK
6
CONTINUOUS
10
0.525956
20
0.645689
11
0.524615
21
0.647695
0
LINE
8
BLACK
6
CONTINUOUS
10
0.524615
20
0.647695
11
0.524016
21
0.650709
0
LINE
8
BLACK
6
CONTINUOUS
10
0.524016
20
0.650709
11
0.524016
21
0.666457
0
LINE
8
BLACK
6
CONTINUOUS
10
0.524016
20
0.666457
11
0.524615
21
0.66947
0
LINE
8
BLACK
6
CONTINUOUS
10
0.524615
20
0.66947
11
0.526322
21
0.672024
0
LINE
8
BLACK
6
CONTINUOUS
10
0.526322
20
0.672024
11
0.528876
21
0.673731
0
LINE
8
BLACK
6
CONTINUOUS
10
0.528876
20
0.673731
11
0.53189
21
0.674331
0
LINE
8
BLACK
6
CONTINUOUS
10
0.53189
20
0.674331
11
0.587008
21
0.674331
0
LINE
8
BLACK
6
CONTINUOUS
10
0.587008
20
0.674331
11
0.589127
21
0.673909
0
LINE
8
BLACK
6
CONTINUOUS
10
0.589127
20
0.673909
11
0.589576
21
0.676163
0
LINE
8
BLACK
6
CONTINUOUS
10
0.589576
20
0.676163
11
0.591283
21
0.678717
0
LINE
8
BLACK
6
CONTINUOUS
10
0.591283
20
0.678717
11
0.593837
21
0.680424
0
LINE
8
BLACK
6
CONTINUOUS
10
0.593837
20
0.680424
11
0.59625
21
0.680904
0
LINE
8
BLACK
6
CONTINUOUS
10
0.59625
20
0.680904
11
0.595866
21
0.682835
0
LINE
8
BLACK
6
CONTINUOUS
10
0.595866
20
0.682835
11
0.595866
21
0.737953
0
LINE
8
BLACK
6
CONTINUOUS
10
0.595866
20
0.737953
11
0.596466
21
0.740966
0
LINE
8
BLACK
6
CONTINUOUS
10
0.596466
20
0.740966
11
0.598172
21
0.743521
0
LINE
8
BLACK
6
CONTINUOUS
10
0.598172
20
0.743521
11
0.600727
21
0.745227
0
LINE
8
BLACK
6
CONTINUOUS
10
0.600727
20
0.745227
11
0.60374
21
0.745827
0
LINE
8
BLACK
6
CONTINUOUS
10
0.60374
20
0.745827
11
0.619488
21
0.745827
0
LINE
8
BLACK
6
CONTINUOUS
10
0.619488
20
0.745827
11
0.622501
21
0.745227
0
LINE
8
BLACK
6
CONTINUOUS
10
0.622501
20
0.745227
11
0.624409
21
0.743953
0
LINE
8
BLACK
6
CONTINUOUS
10
0.624409
20
0.743953
11
0.626317
21
0.745227
0
LINE
8
BLACK
6
CONTINUOUS
10
0.626317
20
0.745227
11
0.629331
21
0.745827
0
LINE
8
BLACK
6
CONTINUOUS
10
0.629331
20
0.745827
11
0.645079
21
0.745827
0
LINE
8
BLACK
6
CONTINUOUS
10
0.645079
20
0.745827
11
0.648092
21
0.745227
0
LINE
8
BLACK
6
CONTINUOUS
10
0.648092
20
0.745227
11
0.65
21
0.743953
0
LINE
8
BLACK
6
CONTINUOUS
10
0.65
20
0.743953
11
0.651908
21
0.745227
0
LINE
8
BLACK
6
CONTINUOUS
10
0.651908
20
0.745227
11
0.654921
21
0.745827
0
LINE
8
BLACK
6
CONTINUOUS
10
0.654921
20
0.745827
11
0.670669
21
0.745827
0
LINE
8
BLACK
6
CONTINUOUS
10
0.670669
20
0.745827
11
0.673683
21
0.745227
0
LINE
8
BLACK
6
CONTINUOUS
10
0.673683
20
0.745227
11
0.675571
21
0.743965
0
LINE
8
BLACK
6
CONTINUOUS
10
0.675571
20
0.743965
11
0.677695
21
0.745385
0
LINE
8
BLACK
6
CONTINUOUS
10
0.677695
20
0.745385
11
0.680709
21
0.745984
0
LINE
8
BLACK
6
CONTINUOUS
10
0.680709
20
0.745984
11
0.696457
21
0.745984
0
LINE
8
BLACK
6
CONTINUOUS
10
0.696457
20
0.745984
11
0.69947
21
0.745385
0
LINE
8
BLACK
6
CONTINUOUS
10
0.905513
20
0.584775
11
0.908068
21
0.583068
0
LINE
8
BLACK
6
CONTINUOUS
10
0.908068
20
0.583068
11
0.909775
21
0.580513
0
LINE
8
BLACK
6
CONTINUOUS
10
0.909775
20
0.580513
11
0.910374
21
0.5775
0
LINE
8
BLACK
6
CONTINUOUS
10
0.910374
20
0.5775
11
0.910374
21
0.5225
0
LINE
8
BLACK
6
CONTINUOUS
10
0.910374
20
0.5225
11
0.909775
21
0.519487
0
LINE
8
BLACK
6
CONTINUOUS
10
0.909775
20
0.519487
11
0.908068
21
0.516932
0
LINE
8
BLACK
6
CONTINUOUS
10
0.908068
20
0.516932
11
0.905513
21
0.515225
0
LINE
8
BLACK
6
CONTINUOUS
10
0.905513
20
0.515225
11
0.9025
21
0.514626
0
LINE
8
BLACK
6
CONTINUOUS
10
0.9025
20
0.514626
11
0.8675
21
0.514626
0
LINE
8
BLACK
6
CONTINUOUS
10
0.8675
20
0.514626
11
0.864487
21
0.515225
0
LINE
8
BLACK
6
CONTINUOUS
10
0.864487
20
0.515225
11
0.861932
21
0.516932
0
LINE
8
BLACK
6
CONTINUOUS
10
0.861932
20
0.516932
11
0.860225
21
0.519487
0
LINE
8
BLACK
6
CONTINUOUS
10
0.860225
20
0.519487
11
0.859626
21
0.5225
0
LINE
8
BLACK
6
CONTINUOUS
10
0.859626
20
0.5225
11
0.859626
21
0.5775
0
LINE
8
BLACK
6
CONTINUOUS
10
0.859626
20
0.5775
11
0.860225
21
0.580513
0
LINE
8
BLACK
6
CONTINUOUS
10
0.860225
20
0.580513
11
0.861932
21
0.583068
0
LINE
8
BLACK
6
CONTINUOUS
10
0.861932
20
0.583068
11
0.864487
21
0.584775
0
LINE
8
BLACK
6
CONTINUOUS
10
0.864487
20
0.584775
11
0.8675
21
0.585374
0
LINE
8
BLACK
6
CONTINUOUS
10
0.8675
20
0.585374
11
0.9025
21
0.585374
0
LINE
8
BLACK
6
CONTINUOUS
10
0.9025
20
0.585374
11
0.905513
21
0.584775
0
LINE
8
BLACK
6
CONTINUOUS
10
0.980513
20
0.584775
11
0.983068
21
0.583068
0
LINE
8
BLACK
6
CONTINUOUS
10
0.983068
20
0.583068
11
0.984775
21
0.580513
0
LINE
8
BLACK
6
CONTINUOUS
10
0.984775
20
0.580513
11
0.985374
21
0.5775
0
LINE
8
BLACK
6
CONTINUOUS
10
0.985374
20
0.5775
11
0.985374
21
0.5225
0
LINE
8
BLACK
6
CONTINUOUS
10
0.985374
20
0.5225
11
0.984775
21
0.519487
0
LINE
8
BLACK
6
CONTINUOUS
10
0.984775
20
0.519487
11
0.983068
21
0.516932
0
LINE
8
BLACK
6
CONTINUOUS
10
0.983068
20
0.516932
11
0.980513
21
0.515225
0
LINE
8
BLACK
6
CONTINUOUS
10
0.980513
20
0.515225
11
0.9775
21
0.514626
0
LINE
8
BLACK
6
CONTINUOUS
10
0.9775
20
0.514626
11
0.9425
21
0.514626
0
LINE
8
BLACK
6
CONTINUOUS
10
0.9425
20
0.514626
11
0.939487
21
0.515225
0
LINE
8
BLACK
6
CONTINUOUS
10
0.939487
20
0.515225
11
0.936932
21
0.516932
0
LINE
8
BLACK
6
CONTINUOUS
10
0.936932
20
0.516932
11
0.935225
21
0.519487
0
LINE
8
BLACK
6
CONTINUOUS
10
0.935225
20
0.519487
11
0.934626
21
0.5225
0
LINE
8
BLACK
6
CONTINUOUS
10
0.934626
20
0.5225
11
0.934626
21
0.5775
0
LINE
8
BLACK
6
CONTINUOUS
10
0.934626
20
0.5775
11
0.935225
21
0.580513
0
LINE
8
BLACK
6
CONTINUOUS
10
0.935225
20
0.580513
11
0.936932
21
0.583068
0
LINE
8
BLACK
6
CONTINUOUS
10
0.936932
20
0.583068
11
0.939487
21
0.584775
0
LINE
8
BLACK
6
CONTINUOUS
10
0.939487
20
0.584775
11
0.9425
21
0.585374
0
LINE
8
BLACK
6
CONTINUOUS
10
0.9425
20
0.585374
11
0.9775
21
0.585374
0
LINE
8
BLACK
6
CONTINUOUS
10
0.9775
20
0.585374
11
0.980513
21
0.584775
0
LINE
8
BLACK
6
CONTINUOUS
10
0.470513
20
0.602275
11
0.473068
21
0.600568
0
LINE
8
BLACK
6
CONTINUOUS
10
0.473068
20
0.600568
11
0.474775
21
0.598013
0
LINE
8
BLACK
6
CONTINUOUS
10
0.474775
20
0.598013
11
0.475374
21
0.595
0
LINE
8
BLACK
6
CONTINUOUS
10
0.475374
20
0.595
11
0.475374
21
0.56
0
LINE
8
BLACK
6
CONTINUOUS
10
0.475374
20
0.56
11
0.474775
21
0.556987
0
LINE
8
BLACK
6
CONTINUOUS
10
0.474775
20
0.556987
11
0.473068
21
0.554432
0
LINE
8
BLACK
6
CONTINUOUS
10
0.473068
20
0.554432
11
0.470513
21
0.552725
0
LINE
8
BLACK
6
CONTINUOUS
10
0.470513
20
0.552725
11
0.4675
21
0.552126
0
LINE
8
BLACK
6
CONTINUOUS
10
0.4675
20
0.552126
11
0.4125
21
0.552126
0
LINE
8
BLACK
6
CONTINUOUS
10
0.4125
20
0.552126
11
0.409487
21
0.552725
0
LINE
8
BLACK
6
CONTINUOUS
10
0.409487
20
0.552725
11
0.406932
21
0.554432
0
LINE
8
BLACK
6
CONTINUOUS
10
0.406932
20
0.554432
11
0.405225
21
0.556987
0
LINE
8
BLACK
6
CONTINUOUS
10
0.405225
20
0.556987
11
0.404626
21
0.56
0
LINE
8
BLACK
6
CONTINUOUS
10
0.404626
20
0.56
11
0.404626
21
0.595
0
LINE
8
BLACK
6
CONTINUOUS
10
0.404626
20
0.595
11
0.405225
21
0.598013
0
LINE
8
BLACK
6
CONTINUOUS
10
0.405225
20
0.598013
11
0.406932
21
0.600568
0
LINE
8
BLACK
6
CONTINUOUS
10
0.406932
20
0.600568
11
0.409487
21
0.602275
0
LINE
8
BLACK
6
CONTINUOUS
10
0.409487
20
0.602275
11
0.4125
21
0.602874
0
LINE
8
BLACK
6
CONTINUOUS
10
0.4125
20
0.602874
11
0.4675
21
0.602874
0
LINE
8
BLACK
6
CONTINUOUS
10
0.4675
20
0.602874
11
0.470513
21
0.602275
0
LINE
8
BLACK
6
CONTINUOUS
10
0.300513
20
0.604775
11
0.303068
21
0.603068
0
LINE
8
BLACK
6
CONTINUOUS
10
0.303068
20
0.603068
11
0.304775
21
0.600513
0
LINE
8
BLACK
6
CONTINUOUS
10
0.304775
20
0.600513
11
0.305374
21
0.5975
0
LINE
8
BLACK
6
CONTINUOUS
10
0.305374
20
0.5975
11
0.305374
21
0.5625
0
LINE
8
BLACK
6
CONTINUOUS
10
0.305374
20
0.5625
11
0.304775
21
0.559487
0
LINE
8
BLACK
6
CONTINUOUS
10
0.304775
20
0.559487
11
0.303068
21
0.556932
0
LINE
8
BLACK
6
CONTINUOUS
10
0.303068
20
0.556932
11
0.300513
21
0.555225
0
LINE
8
BLACK
6
CONTINUOUS
10
0.300513
20
0.555225
11
0.2975
21
0.554626
0
LINE
8
BLACK
6
CONTINUOUS
10
0.2975
20
0.554626
11
0.2425
21
0.554626
0
LINE
8
BLACK
6
CONTINUOUS
10
0.2425
20
0.554626
11
0.239487
21
0.555225
0
LINE
8
BLACK
6
CONTINUOUS
10
0.239487
20
0.555225
11
0.236932
21
0.556932
0
LINE
8
BLACK
6
CONTINUOUS
10
0.236932
20
0.556932
11
0.235225
21
0.559487
0
LINE
8
BLACK
6
CONTINUOUS
10
0.235225
20
0.559487
11
0.234626
21
0.5625
0
LINE
8
BLACK
6
CONTINUOUS
10
0.234626
20
0.5625
11
0.234626
21
0.5975
0
LINE
8
BLACK
6
CONTINUOUS
10
0.234626
20
0.5975
11
0.235225
21
0.600513
0
LINE
8
BLACK
6
CONTINUOUS
10
0.235225
20
0.600513
11
0.236932
21
0.603068
0
LINE
8
BLACK
6
CONTINUOUS
10
0.236932
20
0.603068
11
0.239487
21
0.604775
0
LINE
8
BLACK
6
CONTINUOUS
10
0.239487
20
0.604775
11
0.2425
21
0.605374
0
LINE
8
BLACK
6
CONTINUOUS
10
0.2425
20
0.605374
11
0.2975
21
0.605374
0
LINE
8
BLACK
6
CONTINUOUS
10
0.2975
20
0.605374
11
0.300513
21
0.604775
0
LINE
8
BLACK
6
CONTINUOUS
10
0.385513
20
0.604775
11
0.388068
21
0.603068
0
LINE
8
BLACK
6
CONTINUOUS
10
0.388068
20
0.603068
11
0.389775
21
0.600513
0
LINE
8
BLACK
6
CONTINUOUS
10
0.389775
20
0.600513
11
0.390374
21
0.5975
0
LINE
8
BLACK
6
CONTINUOUS
10
0.390374
20
0.5975
11
0.390374
21
0.5625
0
LINE
8
BLACK
6
CONTINUOUS
10
0.390374
20
0.5625
11
0.389775
21
0.559487
0
LINE
8
BLACK
6
CONTINUOUS
10
0.389775
20
0.559487
11
0.388068
21
0.556932
0
LINE
8
BLACK
6
CONTINUOUS
10
0.388068
20
0.556932
11
0.385513
21
0.555225
0
LINE
8
BLACK
6
CONTINUOUS
10
0.385513
20
0.555225
11
0.3825
21
0.554626
0
LINE
8
BLACK
6
CONTINUOUS
10
0.3825
20
0.554626
11
0.3275
21
0.554626
0
LINE
8
BLACK
6
CONTINUOUS
10
0.3275
20
0.554626
11
0.324487
21
0.555225
0
LINE
8
BLACK
6
CONTINUOUS
10
0.324487
20
0.555225
11
0.321932
21
0.556932
0
LINE
8
BLACK
6
CONTINUOUS
10
0.321932
20
0.556932
11
0.320225
21
0.559487
0
LINE
8
BLACK
6
CONTINUOUS
10
0.320225
20
0.559487
11
0.319626
21
0.5625
0
LINE
8
BLACK
6
CONTINUOUS
10
0.319626
20
0.5625
11
0.319626
21
0.5975
0
LINE
8
BLACK
6
CONTINUOUS
10
0.319626
20
0.5975
11
0.320225
21
0.600513
0
LINE
8
BLACK
6
CONTINUOUS
10
0.320225
20
0.600513
11
0.321932
21
0.603068
0
LINE
8
BLACK
6
CONTINUOUS
10
0.321932
20
0.603068
11
0.324487
21
0.604775
0
LINE
8
BLACK
6
CONTINUOUS
10
0.324487
20
0.604775
11
0.3275
21
0.605374
0
LINE
8
BLACK
6
CONTINUOUS
10
0.3275
20
0.605374
11
0.3825
21
0.605374
0
LINE
8
BLACK
6
CONTINUOUS
10
0.3825
20
0.605374
11
0.385513
21
0.604775
0
LINE
8
BLACK
6
CONTINUOUS
10
1.37301
20
0.637275
11
1.37557
21
0.635568
0
LINE
8
BLACK
6
CONTINUOUS
10
1.37557
20
0.635568
11
1.37727
21
0.633013
0
LINE
8
BLACK
6
CONTINUOUS
10
1.37727
20
0.633013
11
1.37787
21
0.63
0
LINE
8
BLACK
6
CONTINUOUS
10
1.37787
20
0.63
11
1.37787
21
0.57
0
LINE
8
BLACK
6
CONTINUOUS
10
1.37787
20
0.57
11
1.37727
21
0.566987
0
LINE
8
BLACK
6
CONTINUOUS
10
1.37727
20
0.566987
11
1.37557
21
0.564432
0
LINE
8
BLACK
6
CONTINUOUS
10
1.37557
20
0.564432
11
1.37301
21
0.562725
0
LINE
8
BLACK
6
CONTINUOUS
10
1.37301
20
0.562725
11
1.37
21
0.562126
0
LINE
8
BLACK
6
CONTINUOUS
10
1.37
20
0.562126
11
1.31
21
0.562126
0
LINE
8
BLACK
6
CONTINUOUS
10
1.31
20
0.562126
11
1.30699
21
0.562725
0
LINE
8
BLACK
6
CONTINUOUS
10
1.30699
20
0.562725
11
1.30443
21
0.564432
0
LINE
8
BLACK
6
CONTINUOUS
10
1.30443
20
0.564432
11
1.30273
21
0.566987
0
LINE
8
BLACK
6
CONTINUOUS
10
1.30273
20
0.566987
11
1.30213
21
0.57
0
LINE
8
BLACK
6
CONTINUOUS
10
1.30213
20
0.57
11
1.30213
21
0.63
0
LINE
8
BLACK
6
CONTINUOUS
10
1.30213
20
0.63
11
1.30273
21
0.633013
0
LINE
8
BLACK
6
CONTINUOUS
10
1.30273
20
0.633013
11
1.30443
21
0.635568
0
LINE
8
BLACK
6
CONTINUOUS
10
1.30443
20
0.635568
11
1.30699
21
0.637275
0
LINE
8
BLACK
6
CONTINUOUS
10
1.30699
20
0.637275
11
1.31
21
0.637874
0
LINE
8
BLACK
6
CONTINUOUS
10
1.31
20
0.637874
11
1.37
21
0.637874
0
LINE
8
BLACK
6
CONTINUOUS
10
1.37
20
0.637874
11
1.37301
21
0.637275
0
LINE
8
BLACK
6
CONTINUOUS
10
1.47301
20
0.637275
11
1.47557
21
0.635568
0
LINE
8
BLACK
6
CONTINUOUS
10
1.47557
20
0.635568
11
1.47727
21
0.633013
0
LINE
8
BLACK
6
CONTINUOUS
10
1.47727
20
0.633013
11
1.47787
21
0.63
0
LINE
8
BLACK
6
CONTINUOUS
10
1.47787
20
0.63
11
1.47787
21
0.57
0
LINE
8
BLACK
6
CONTINUOUS
10
1.47787
20
0.57
11
1.47727
21
0.566987
0
LINE
8
BLACK
6
CONTINUOUS
10
1.47727
20
0.566987
11
1.47557
21
0.564432
0
LINE
8
BLACK
6
CONTINUOUS
10
1.47557
20
0.564432
11
1.47301
21
0.562725
0
LINE
8
BLACK
6
CONTINUOUS
10
1.47301
20
0.562725
11
1.47
21
0.562126
0
LINE
8
BLACK
6
CONTINUOUS
10
1.47
20
0.562126
11
1.41
21
0.562126
0
LINE
8
BLACK
6
CONTINUOUS
10
1.41
20
0.562126
11
1.40699
21
0.562725
0
LINE
8
BLACK
6
CONTINUOUS
10
1.40699
20
0.562725
11
1.40443
21
0.564432
0
LINE
8
BLACK
6
CONTINUOUS
10
1.40443
20
0.564432
11
1.40273
21
0.566987
0
LINE
8
BLACK
6
CONTINUOUS
10
1.40273
20
0.566987
11
1.40213
21
0.57
0
LINE
8
BLACK
6
CONTINUOUS
10
1.40213
20
0.57
11
1.40213
21
0.63
0
LINE
8
BLACK
6
CONTINUOUS
10
1.40213
20
0.63
11
1.40273
21
0.633013
0
LINE
8
BLACK
6
CONTINUOUS
10
1.40273
20
0.633013
11
1.40443
21
0.635568
0
LINE
8
BLACK
6
CONTINUOUS
10
1.40443
20
0.635568
11
1.40699
21
0.637275
0
LINE
8
BLACK
6
CONTINUOUS
10
1.40699
20
0.637275
11
1.41
21
0.637874
0
LINE
8
BLACK
6
CONTINUOUS
10
1.41
20
0.637874
11
1.47
21
0.637874
0
LINE
8
BLACK
6
CONTINUOUS
10
1.47
20
0.637874
11
1.47301
21
0.637275
0
LINE
8
BLACK
6
CONTINUOUS
10
0.905513
20
0.68827
11
0.908068
21
0.686563
0
LINE
8
BLACK
6
CONTINUOUS
10
0.908068
20
0.686563
11
0.909775
21
0.684009
0
LINE
8
BLACK
6
CONTINUOUS
10
0.909775
20
0.684009
11
0.910374
21
0.680995
0
LINE
8
BLACK
6
CONTINUOUS
10
0.910374
20
0.680995
11
0.910374
21
0.625995
0
LINE
8
BLACK
6
CONTINUOUS
10
0.910374
20
0.625995
11
0.909775
21
0.622982
0
LINE
8
BLACK
6
CONTINUOUS
10
0.909775
20
0.622982
11
0.908068
21
0.620428
0
LINE
8
BLACK
6
CONTINUOUS
10
0.908068
20
0.620428
11
0.905513
21
0.618721
0
LINE
8
BLACK
6
CONTINUOUS
10
0.905513
20
0.618721
11
0.9025
21
0.618121
0
LINE
8
BLACK
6
CONTINUOUS
10
0.9025
20
0.618121
11
0.8675
21
0.618121
0
LINE
8
BLACK
6
CONTINUOUS
10
0.8675
20
0.618121
11
0.864487
21
0.618721
0
LINE
8
BLACK
6
CONTINUOUS
10
0.864487
20
0.618721
11
0.861932
21
0.620428
0
LINE
8
BLACK
6
CONTINUOUS
10
0.861932
20
0.620428
11
0.860225
21
0.622982
0
LINE
8
BLACK
6
CONTINUOUS
10
0.860225
20
0.622982
11
0.859626
21
0.625995
0
LINE
8
BLACK
6
CONTINUOUS
10
0.859626
20
0.625995
11
0.859626
21
0.680995
0
LINE
8
BLACK
6
CONTINUOUS
10
0.859626
20
0.680995
11
0.860225
21
0.684009
0
LINE
8
BLACK
6
CONTINUOUS
10
0.860225
20
0.684009
11
0.861932
21
0.686563
0
LINE
8
BLACK
6
CONTINUOUS
10
0.861932
20
0.686563
11
0.864487
21
0.68827
0
LINE
8
BLACK
6
CONTINUOUS
10
0.864487
20
0.68827
11
0.8675
21
0.688869
0
LINE
8
BLACK
6
CONTINUOUS
10
0.8675
20
0.688869
11
0.9025
21
0.688869
0
LINE
8
BLACK
6
CONTINUOUS
10
0.9025
20
0.688869
11
0.905513
21
0.68827
0
LINE
8
BLACK
6
CONTINUOUS
10
0.980513
20
0.68827
11
0.983068
21
0.686563
0
LINE
8
BLACK
6
CONTINUOUS
10
0.983068
20
0.686563
11
0.984775
21
0.684009
0
LINE
8
BLACK
6
CONTINUOUS
10
0.984775
20
0.684009
11
0.985374
21
0.680995
0
LINE
8
BLACK
6
CONTINUOUS
10
0.985374
20
0.680995
11
0.985374
21
0.625995
0
LINE
8
BLACK
6
CONTINUOUS
10
0.985374
20
0.625995
11
0.984775
21
0.622982
0
LINE
8
BLACK
6
CONTINUOUS
10
0.984775
20
0.622982
11
0.983068
21
0.620428
0
LINE
8
BLACK
6
CONTINUOUS
10
0.983068
20
0.620428
11
0.980513
21
0.618721
0
LINE
8
BLACK
6
CONTINUOUS
10
0.980513
20
0.618721
11
0.9775
21
0.618121
0
LINE
8
BLACK
6
CONTINUOUS
10
0.9775
20
0.618121
11
0.9425
21
0.618121
0
LINE
8
BLACK
6
CONTINUOUS
10
0.9425
20
0.618121
11
0.939487
21
0.618721
0
LINE
8
BLACK
6
CONTINUOUS
10
0.939487
20
0.618721
11
0.936932
21
0.620428
0
LINE
8
BLACK
6
CONTINUOUS
10
0.936932
20
0.620428
11
0.935225
21
0.622982
0
LINE
8
BLACK
6
CONTINUOUS
10
0.935225
20
0.622982
11
0.934626
21
0.625995
0
LINE
8
BLACK
6
CONTINUOUS
10
0.934626
20
0.625995
11
0.934626
21
0.680995
0
LINE
8
BLACK
6
CONTINUOUS
10
0.934626
20
0.680995
11
0.935225
21
0.684009
0
LINE
8
BLACK
6
CONTINUOUS
10
0.935225
20
0.684009
11
0.936932
21
0.686563
0
LINE
8
BLACK
6
CONTINUOUS
10
0.936932
20
0.686563
11
0.939487
21
0.68827
0
LINE
8
BLACK
6
CONTINUOUS
10
0.939487
20
0.68827
11
0.9425
21
0.688869
0
LINE
8
BLACK
6
CONTINUOUS
10
0.9425
20
0.688869
11
0.9775
21
0.688869
0
LINE
8
BLACK
6
CONTINUOUS
10
0.9775
20
0.688869
11
0.980513
21
0.68827
0
LINE
8
BLACK
6
CONTINUOUS
10
0.470513
20
0.677275
11
0.473068
21
0.675568
0
LINE
8
BLACK
6
CONTINUOUS
10
0.473068
20
0.675568
11
0.474775
21
0.673013
0
LINE
8
BLACK
6
CONTINUOUS
10
0.474775
20
0.673013
11
0.475374
21
0.67
0
LINE
8
BLACK
6
CONTINUOUS
10
0.475374
20
0.67
11
0.475374
21
0.635
0
LINE
8
BLACK
6
CONTINUOUS
10
0.475374
20
0.635
11
0.474775
21
0.631987
0
LINE
8
BLACK
6
CONTINUOUS
10
0.474775
20
0.631987
11
0.473068
21
0.629432
0
LINE
8
BLACK
6
CONTINUOUS
10
0.473068
20
0.629432
11
0.470513
21
0.627725
0
LINE
8
BLACK
6
CONTINUOUS
10
0.470513
20
0.627725
11
0.4675
21
0.627126
0
LINE
8
BLACK
6
CONTINUOUS
10
0.4675
20
0.627126
11
0.4125
21
0.627126
0
LINE
8
BLACK
6
CONTINUOUS
10
0.4125
20
0.627126
11
0.409487
21
0.627725
0
LINE
8
BLACK
6
CONTINUOUS
10
0.409487
20
0.627725
11
0.406932
21
0.629432
0
LINE
8
BLACK
6
CONTINUOUS
10
0.406932
20
0.629432
11
0.405225
21
0.631987
0
LINE
8
BLACK
6
CONTINUOUS
10
0.405225
20
0.631987
11
0.404626
21
0.635
0
LINE
8
BLACK
6
CONTINUOUS
10
0.404626
20
0.635
11
0.404626
21
0.67
0
LINE
8
BLACK
6
CONTINUOUS
10
0.404626
20
0.67
11
0.405225
21
0.673013
0
LINE
8
BLACK
6
CONTINUOUS
10
0.405225
20
0.673013
11
0.406932
21
0.675568
0
LINE
8
BLACK
6
CONTINUOUS
10
0.406932
20
0.675568
11
0.409487
21
0.677275
0
LINE
8
BLACK
6
CONTINUOUS
10
0.409487
20
0.677275
11
0.4125
21
0.677874
0
LINE
8
BLACK
6
CONTINUOUS
10
0.4125
20
0.677874
11
0.4675
21
0.677874
0
LINE
8
BLACK
6
CONTINUOUS
10
0.4675
20
0.677874
11
0.470513
21
0.677275
0
LINE
8
BLACK
6
CONTINUOUS
10
0.300513
20
0.679775
11
0.303068
21
0.678068
0
LINE
8
BLACK
6
CONTINUOUS
10
0.303068
20
0.678068
11
0.304775
21
0.675513
0
LINE
8
BLACK
6
CONTINUOUS
10
0.304775
20
0.675513
11
0.305374
21
0.6725
0
LINE
8
BLACK
6
CONTINUOUS
10
0.305374
20
0.6725
11
0.305374
21
0.6375
0
LINE
8
BLACK
6
CONTINUOUS
10
0.305374
20
0.6375
11
0.304775
21
0.634487
0
LINE
8
BLACK
6
CONTINUOUS
10
0.304775
20
0.634487
11
0.303068
21
0.631932
0
LINE
8
BLACK
6
CONTINUOUS
10
0.303068
20
0.631932
11
0.300513
21
0.630225
0
LINE
8
BLACK
6
CONTINUOUS
10
0.300513
20
0.630225
11
0.2975
21
0.629626
0
LINE
8
BLACK
6
CONTINUOUS
10
0.2975
20
0.629626
11
0.2425
21
0.629626
0
LINE
8
BLACK
6
CONTINUOUS
10
0.2425
20
0.629626
11
0.239487
21
0.630225
0
LINE
8
BLACK
6
CONTINUOUS
10
0.239487
20
0.630225
11
0.236932
21
0.631932
0
LINE
8
BLACK
6
CONTINUOUS
10
0.236932
20
0.631932
11
0.235225
21
0.634487
0
LINE
8
BLACK
6
CONTINUOUS
10
0.235225
20
0.634487
11
0.234626
21
0.6375
0
LINE
8
BLACK
6
CONTINUOUS
10
0.234626
20
0.6375
11
0.234626
21
0.6725
0
LINE
8
BLACK
6
CONTINUOUS
10
0.234626
20
0.6725
11
0.235225
21
0.675513
0
LINE
8
BLACK
6
CONTINUOUS
10
0.235225
20
0.675513
11
0.236932
21
0.678068
0
LINE
8
BLACK
6
CONTINUOUS
10
0.236932
20
0.678068
11
0.239487
21
0.679775
0
LINE
8
BLACK
6
CONTINUOUS
10
0.239487
20
0.679775
11
0.2425
21
0.680374
0
LINE
8
BLACK
6
CONTINUOUS
10
0.2425
20
0.680374
11
0.2975
21
0.680374
0
LINE
8
BLACK
6
CONTINUOUS
10
0.2975
20
0.680374
11
0.300513
21
0.679775
0
LINE
8
BLACK
6
CONTINUOUS
10
0.385513
20
0.679775
11
0.388068
21
0.678068
0
LINE
8
BLACK
6
CONTINUOUS
10
0.388068
20
0.678068
11
0.389775
21
0.675513
0
LINE
8
BLACK
6
CONTINUOUS
10
0.389775
20
0.675513
11
0.390374
21
0.6725
0
LINE
8
BLACK
6
CONTINUOUS
10
0.390374
20
0.6725
11
0.390374
21
0.6375
0
LINE
8
BLACK
6
CONTINUOUS
10
0.390374
20
0.6375
11
0.389775
21
0.634487
0
LINE
8
BLACK
6
CONTINUOUS
10
0.389775
20
0.634487
11
0.388068
21
0.631932
0
LINE
8
BLACK
6
CONTINUOUS
10
0.388068
20
0.631932
11
0.385513
21
0.630225
0
LINE
8
BLACK
6
CONTINUOUS
10
0.385513
20
0.630225
11
0.3825
21
0.629626
0
LINE
8
BLACK
6
CONTINUOUS
10
0.3825
20
0.629626
11
0.3275
21
0.629626
0
LINE
8
BLACK
6
CONTINUOUS
10
0.3275
20
0.629626
11
0.324487
21
0.630225
0
LINE
8
BLACK
6
CONTINUOUS
10
0.324487
20
0.630225
11
0.321932
21
0.631932
0
LINE
8
BLACK
6
CONTINUOUS
10
0.321932
20
0.631932
11
0.320225
21
0.634487
0
LINE
8
BLACK
6
CONTINUOUS
10
0.320225
20
0.634487
11
0.319626
21
0.6375
0
LINE
8
BLACK
6
CONTINUOUS
10
0.319626
20
0.6375
11
0.319626
21
0.6725
0
LINE
8
BLACK
6
CONTINUOUS
10
0.319626
20
0.6725
11
0.320225
21
0.675513
0
LINE
8
BLACK
6
CONTINUOUS
10
0.320225
20
0.675513
11
0.321932
21
0.678068
0
LINE
8
BLACK
6
CONTINUOUS
10
0.321932
20
0.678068
11
0.324487
21
0.679775
0
LINE
8
BLACK
6
CONTINUOUS
10
0.324487
20
0.679775
11
0.3275
21
0.680374
0
LINE
8
BLACK
6
CONTINUOUS
10
0.3275
20
0.680374
11
0.3825
21
0.680374
0
LINE
8
BLACK
6
CONTINUOUS
10
0.3825
20
0.680374
11
0.385513
21
0.679775
0
LINE
8
BLACK
6
CONTINUOUS
10
1.37301
20
0.737275
11
1.37557
21
0.735568
0
LINE
8
BLACK
6
CONTINUOUS
10
1.37557
20
0.735568
11
1.37727
21
0.733013
0
LINE
8
BLACK
6
CONTINUOUS
10
1.37727
20
0.733013
11
1.37787
21
0.73
0
LINE
8
BLACK
6
CONTINUOUS
10
1.37787
20
0.73
11
1.37787
21
0.67
0
LINE
8
BLACK
6
CONTINUOUS
10
1.37787
20
0.67
11
1.37727
21
0.666987
0
LINE
8
BLACK
6
CONTINUOUS
10
1.37727
20
0.666987
11
1.37557
21
0.664432
0
LINE
8
BLACK
6
CONTINUOUS
10
1.37557
20
0.664432
11
1.37301
21
0.662725
0
LINE
8
BLACK
6
CONTINUOUS
10
1.37301
20
0.662725
11
1.37
21
0.662126
0
LINE
8
BLACK
6
CONTINUOUS
10
1.37
20
0.662126
11
1.31
21
0.662126
0
LINE
8
BLACK
6
CONTINUOUS
10
1.31
20
0.662126
11
1.30699
21
0.662725
0
LINE
8
BLACK
6
CONTINUOUS
10
1.30699
20
0.662725
11
1.30443
21
0.664432
0
LINE
8
BLACK
6
CONTINUOUS
10
1.30443
20
0.664432
11
1.30273
21
0.666987
0
LINE
8
BLACK
6
CONTINUOUS
10
1.30273
20
0.666987
11
1.30213
21
0.67
0
LINE
8
BLACK
6
CONTINUOUS
10
1.30213
20
0.67
11
1.30213
21
0.73
0
LINE
8
BLACK
6
CONTINUOUS
10
1.30213
20
0.73
11
1.30273
21
0.733013
0
LINE
8
BLACK
6
CONTINUOUS
10
1.30273
20
0.733013
11
1.30443
21
0.735568
0
LINE
8
BLACK
6
CONTINUOUS
10
1.30443
20
0.735568
11
1.30699
21
0.737275
0
LINE
8
BLACK
6
CONTINUOUS
10
1.30699
20
0.737275
11
1.31
21
0.737874
0
LINE
8
BLACK
6
CONTINUOUS
10
1.31
20
0.737874
11
1.37
21
0.737874
0
LINE
8
BLACK
6
CONTINUOUS
10
1.37
20
0.737874
11
1.37301
21
0.737275
0
LINE
8
BLACK
6
CONTINUOUS
10
1.47301
20
0.737275
11
1.47557
21
0.735568
0
LINE
8
BLACK
6
CONTINUOUS
10
1.47557
20
0.735568
11
1.47727
21
0.733013
0
LINE
8
BLACK
6
CONTINUOUS
10
1.47727
20
0.733013
11
1.47787
21
0.73
0
LINE
8
BLACK
6
CONTINUOUS
10
1.47787
20
0.73
11
1.47787
21
0.67
0
LINE
8
BLACK
6
CONTINUOUS
10
1.47787
20
0.67
11
1.47727
21
0.666987
0
LINE
8
BLACK
6
CONTINUOUS
10
1.47727
20
0.666987
11
1.47557
21
0.664432
0
LINE
8
BLACK
6
CONTINUOUS
10
1.47557
20
0.664432
11
1.47301
21
0.662725
0
LINE
8
BLACK
6
CONTINUOUS
10
1.47301
20
0.662725
11
1.47
21
0.662126
0
LINE
8
BLACK
6
CONTINUOUS
10
1.47
20
0.662126
11
1.41
21
0.662126
0
LINE
8
BLACK
6
CONTINUOUS
10
1.41
20
0.662126
11
1.40699
21
0.662725
0
LINE
8
BLACK
6
CONTINUOUS
10
1.40699
20
0.662725
11
1.40443
21
0.664432
0
LINE
8
BLACK
6
CONTINUOUS
10
1.40443
20
0.664432
11
1.40273
21
0.666987
0
LINE
8
BLACK
6
CONTINUOUS
10
1.40273
20
0.666987
11
1.40213
21
0.67
0
LINE
8
BLACK
6
CONTINUOUS
10
1.40213
20
0.67
11
1.40213
21
0.73
0
LINE
8
BLACK
6
CONTINUOUS
10
1.40213
20
0.73
11
1.40273
21
0.733013
0
LINE
8
BLACK
6
CONTINUOUS
10
1.40273
20
0.733013
11
1.40443
21
0.735568
0
LINE
8
BLACK
6
CONTINUOUS
10
1.40443
20
0.735568
11
1.40699
21
0.737275
0
LINE
8
BLACK
6
CONTINUOUS
10
1.40699
20
0.737275
11
1.41
21
0.737874
0
LINE
8
BLACK
6
CONTINUOUS
10
1.41
20
0.737874
11
1.47
21
0.737874
0
LINE
8
BLACK
6
CONTINUOUS
10
1.47
20
0.737874
11
1.47301
21
0.737275
0
LINE
8
BLACK
6
CONTINUOUS
10
0.193505
20
0.815936
11
0.19606
21
0.814229
0
LINE
8
BLACK
6
CONTINUOUS
10
0.19606
20
0.814229
11
0.197767
21
0.811675
0
LINE
8
BLACK
6
CONTINUOUS
10
0.197767
20
0.811675
11
0.198366
21
0.808661
0
LINE
8
BLACK
6
CONTINUOUS
10
0.198366
20
0.808661
11
0.198366
21
0.75748
0
LINE
8
BLACK
6
CONTINUOUS
10
0.198366
20
0.75748
11
0.197767
21
0.754467
0
LINE
8
BLACK
6
CONTINUOUS
10
0.197767
20
0.754467
11
0.19606
21
0.751913
0
LINE
8
BLACK
6
CONTINUOUS
10
0.19606
20
0.751913
11
0.193505
21
0.750206
0
LINE
8
BLACK
6
CONTINUOUS
10
0.193505
20
0.750206
11
0.190492
21
0.749606
0
LINE
8
BLACK
6
CONTINUOUS
10
0.190492
20
0.749606
11
0.0645079
21
0.749606
0
LINE
8
BLACK
6
CONTINUOUS
10
0.0645079
20
0.749606
11
0.0614946
21
0.750206
0
LINE
8
BLACK
6
CONTINUOUS
10
0.0614946
20
0.750206
11
0.0589401
21
0.751913
0
LINE
8
BLACK
6
CONTINUOUS
10
0.0589401
20
0.751913
11
0.0572332
21
0.754467
0
LINE
8
BLACK
6
CONTINUOUS
10
0.0572332
20
0.754467
11
0.0566339
21
0.75748
0
LINE
8
BLACK
6
CONTINUOUS
10
0.0566339
20
0.75748
11
0.0566339
21
0.808661
0
LINE
8
BLACK
6
CONTINUOUS
10
0.0566339
20
0.808661
11
0.0572332
21
0.811675
0
LINE
8
BLACK
6
CONTINUOUS
10
0.0572332
20
0.811675
11
0.0589401
21
0.814229
0
LINE
8
BLACK
6
CONTINUOUS
10
0.0589401
20
0.814229
11
0.0614946
21
0.815936
0
LINE
8
BLACK
6
CONTINUOUS
10
0.0614946
20
0.815936
11
0.0645079
21
0.816535
0
LINE
8
BLACK
6
CONTINUOUS
10
0.0645079
20
0.816535
11
0.190492
21
0.816535
0
LINE
8
BLACK
6
CONTINUOUS
10
0.190492
20
0.816535
11
0.193505
21
0.815936
0
LINE
8
BLACK
6
CONTINUOUS
10
1.05051
20
0.809775
11
1.05307
21
0.808068
0
LINE
8
BLACK
6
CONTINUOUS
10
1.05307
20
0.808068
11
1.05477
21
0.805513
0
LINE
8
BLACK
6
CONTINUOUS
10
1.05477
20
0.805513
11
1.05537
21
0.8025
0
LINE
8
BLACK
6
CONTINUOUS
10
1.05537
20
0.8025
11
1.05537
21
0.7675
0
LINE
8
BLACK
6
CONTINUOUS
10
1.05537
20
0.7675
11
1.05477
21
0.764487
0
LINE
8
BLACK
6
CONTINUOUS
10
1.05477
20
0.764487
11
1.05307
21
0.761932
0
LINE
8
BLACK
6
CONTINUOUS
10
1.05307
20
0.761932
11
1.05051
21
0.760225
0
LINE
8
BLACK
6
CONTINUOUS
10
1.05051
20
0.760225
11
1.0475
21
0.759626
0
LINE
8
BLACK
6
CONTINUOUS
10
1.0475
20
0.759626
11
0.9925
21
0.759626
0
LINE
8
BLACK
6
CONTINUOUS
10
0.9925
20
0.759626
11
0.989487
21
0.760225
0
LINE
8
BLACK
6
CONTINUOUS
10
0.989487
20
0.760225
11
0.986932
21
0.761932
0
LINE
8
BLACK
6
CONTINUOUS
10
0.986932
20
0.761932
11
0.985225
21
0.764487
0
LINE
8
BLACK
6
CONTINUOUS
10
0.985225
20
0.764487
11
0.984626
21
0.7675
0
LINE
8
BLACK
6
CONTINUOUS
10
0.984626
20
0.7675
11
0.984626
21
0.8025
0
LINE
8
BLACK
6
CONTINUOUS
10
0.984626
20
0.8025
11
0.985225
21
0.805513
0
LINE
8
BLACK
6
CONTINUOUS
10
0.985225
20
0.805513
11
0.986932
21
0.808068
0
LINE
8
BLACK
6
CONTINUOUS
10
0.986932
20
0.808068
11
0.989487
21
0.809775
0
LINE
8
BLACK
6
CONTINUOUS
10
0.989487
20
0.809775
11
0.9925
21
0.810374
0
LINE
8
BLACK
6
CONTINUOUS
10
0.9925
20
0.810374
11
1.0475
21
0.810374
0
LINE
8
BLACK
6
CONTINUOUS
10
1.0475
20
0.810374
11
1.05051
21
0.809775
0
LINE
8
BLACK
6
CONTINUOUS
10
0.545513
20
0.884775
11
0.548068
21
0.883068
0
LINE
8
BLACK
6
CONTINUOUS
10
0.548068
20
0.883068
11
0.549775
21
0.880513
0
LINE
8
BLACK
6
CONTINUOUS
10
0.549775
20
0.880513
11
0.550374
21
0.8775
0
LINE
8
BLACK
6
CONTINUOUS
10
0.550374
20
0.8775
11
0.550374
21
0.8225
0
LINE
8
BLACK
6
CONTINUOUS
10
0.550374
20
0.8225
11
0.549775
21
0.819487
0
LINE
8
BLACK
6
CONTINUOUS
10
0.549775
20
0.819487
11
0.548068
21
0.816932
0
LINE
8
BLACK
6
CONTINUOUS
10
0.548068
20
0.816932
11
0.545513
21
0.815225
0
LINE
8
BLACK
6
CONTINUOUS
10
0.545513
20
0.815225
11
0.5425
21
0.814626
0
LINE
8
BLACK
6
CONTINUOUS
10
0.5425
20
0.814626
11
0.5075
21
0.814626
0
LINE
8
BLACK
6
CONTINUOUS
10
0.5075
20
0.814626
11
0.504487
21
0.815225
0
LINE
8
BLACK
6
CONTINUOUS
10
0.504487
20
0.815225
11
0.501932
21
0.816932
0
LINE
8
BLACK
6
CONTINUOUS
10
0.501932
20
0.816932
11
0.500225
21
0.819487
0
LINE
8
BLACK
6
CONTINUOUS
10
0.500225
20
0.819487
11
0.499626
21
0.8225
0
LINE
8
BLACK
6
CONTINUOUS
10
0.499626
20
0.8225
11
0.499626
21
0.8775
0
LINE
8
BLACK
6
CONTINUOUS
10
0.499626
20
0.8775
11
0.500225
21
0.880513
0
LINE
8
BLACK
6
CONTINUOUS
10
0.500225
20
0.880513
11
0.501932
21
0.883068
0
LINE
8
BLACK
6
CONTINUOUS
10
0.501932
20
0.883068
11
0.504487
21
0.884775
0
LINE
8
BLACK
6
CONTINUOUS
10
0.504487
20
0.884775
11
0.5075
21
0.885374
0
LINE
8
BLACK
6
CONTINUOUS
10
0.5075
20
0.885374
11
0.5425
21
0.885374
0
LINE
8
BLACK
6
CONTINUOUS
10
0.5425
20
0.885374
11
0.545513
21
0.884775
0
LINE
8
BLACK
6
CONTINUOUS
10
0.620513
20
0.884775
11
0.623068
21
0.883068
0
LINE
8
BLACK
6
CONTINUOUS
10
0.623068
20
0.883068
11
0.624775
21
0.880513
0
LINE
8
BLACK
6
CONTINUOUS
10
0.624775
20
0.880513
11
0.625374
21
0.8775
0
LINE
8
BLACK
6
CONTINUOUS
10
0.625374
20
0.8775
11
0.625374
21
0.8225
0
LINE
8
BLACK
6
CONTINUOUS
10
0.625374
20
0.8225
11
0.624775
21
0.819487
0
LINE
8
BLACK
6
CONTINUOUS
10
0.624775
20
0.819487
11
0.623068
21
0.816932
0
LINE
8
BLACK
6
CONTINUOUS
10
0.623068
20
0.816932
11
0.620513
21
0.815225
0
LINE
8
BLACK
6
CONTINUOUS
10
0.620513
20
0.815225
11
0.6175
21
0.814626
0
LINE
8
BLACK
6
CONTINUOUS
10
0.6175
20
0.814626
11
0.5825
21
0.814626
0
LINE
8
BLACK
6
CONTINUOUS
10
0.5825
20
0.814626
11
0.579487
21
0.815225
0
LINE
8
BLACK
6
CONTINUOUS
10
0.579487
20
0.815225
11
0.576932
21
0.816932
0
LINE
8
BLACK
6
CONTINUOUS
10
0.576932
20
0.816932
11
0.575225
21
0.819487
0
LINE
8
BLACK
6
CONTINUOUS
10
0.575225
20
0.819487
11
0.574626
21
0.8225
0
LINE
8
BLACK
6
CONTINUOUS
10
0.574626
20
0.8225
11
0.574626
21
0.8775
0
LINE
8
BLACK
6
CONTINUOUS
10
0.574626
20
0.8775
11
0.575225
21
0.880513
0
LINE
8
BLACK
6
CONTINUOUS
10
0.575225
20
0.880513
11
0.576932
21
0.883068
0
LINE
8
BLACK
6
CONTINUOUS
10
0.576932
20
0.883068
11
0.579487
21
0.884775
0
LINE
8
BLACK
6
CONTINUOUS
10
0.579487
20
0.884775
11
0.5825
21
0.885374
0
LINE
8
BLACK
6
CONTINUOUS
10
0.5825
20
0.885374
11
0.6175
21
0.885374
0
LINE
8
BLACK
6
CONTINUOUS
10
0.6175
20
0.885374
11
0.620513
21
0.884775
0
LINE
8
BLACK
6
CONTINUOUS
10
1.05051
20
0.884775
11
1.05307
21
0.883068
0
LINE
8
BLACK
6
CONTINUOUS
10
1.05307
20
0.883068
11
1.05477
21
0.880513
0
LINE
8
BLACK
6
CONTINUOUS
10
1.05477
20
0.880513
11
1.05537
21
0.8775
0
LINE
8
BLACK
6
CONTINUOUS
10
1.05537
20
0.8775
11
1.05537
21
0.8425
0
LINE
8
BLACK
6
CONTINUOUS
10
1.05537
20
0.8425
11
1.05477
21
0.839487
0
LINE
8
BLACK
6
CONTINUOUS
10
1.05477
20
0.839487
11
1.05307
21
0.836932
0
LINE
8
BLACK
6
CONTINUOUS
10
1.05307
20
0.836932
11
1.05051
21
0.835225
0
LINE
8
BLACK
6
CONTINUOUS
10
1.05051
20
0.835225
11
1.0475
21
0.834626
0
LINE
8
BLACK
6
CONTINUOUS
10
1.0475
20
0.834626
11
0.9925
21
0.834626
0
LINE
8
BLACK
6
CONTINUOUS
10
0.9925
20
0.834626
11
0.989487
21
0.835225
0
LINE
8
BLACK
6
CONTINUOUS
10
0.989487
20
0.835225
11
0.986932
21
0.836932
0
LINE
8
BLACK
6
CONTINUOUS
10
0.986932
20
0.836932
11
0.985225
21
0.839487
0
LINE
8
BLACK
6
CONTINUOUS
10
0.985225
20
0.839487
11
0.984626
21
0.8425
0
LINE
8
BLACK
6
CONTINUOUS
10
0.984626
20
0.8425
11
0.984626
21
0.8775
0
LINE
8
BLACK
6
CONTINUOUS
10
0.984626
20
0.8775
11
0.985225
21
0.880513
0
LINE
8
BLACK
6
CONTINUOUS
10
0.985225
20
0.880513
11
0.986932
21
0.883068
0
LINE
8
BLACK
6
CONTINUOUS
10
0.986932
20
0.883068
11
0.989487
21
0.884775
0
LINE
8
BLACK
6
CONTINUOUS
10
0.989487
20
0.884775
11
0.9925
21
0.885374
0
LINE
8
BLACK
6
CONTINUOUS
10
0.9925
20
0.885374
11
1.0475
21
0.885374
0
LINE
8
BLACK
6
CONTINUOUS
10
1.0475
20
0.885374
11
1.05051
21
0.884775
0
LINE
8
BLACK
6
CONTINUOUS
10
1.14051
20
0.934775
11
1.14307
21
0.933068
0
LINE
8
BLACK
6
CONTINUOUS
10
1.14307
20
0.933068
11
1.14477
21
0.930513
0
LINE
8
BLACK
6
CONTINUOUS
10
1.14477
20
0.930513
11
1.14537
21
0.9275
0
LINE
8
BLACK
6
CONTINUOUS
10
1.14537
20
0.9275
11
1.14537
21
0.8725
0
LINE
8
BLACK
6
CONTINUOUS
10
1.14537
20
0.8725
11
1.14477
21
0.869487
0
LINE
8
BLACK
6
CONTINUOUS
10
1.14477
20
0.869487
11
1.14307
21
0.866932
0
LINE
8
BLACK
6
CONTINUOUS
10
1.14307
20
0.866932
11
1.14051
21
0.865225
0
LINE
8
BLACK
6
CONTINUOUS
10
1.14051
20
0.865225
11
1.1375
21
0.864626
0
LINE
8
BLACK
6
CONTINUOUS
10
1.1375
20
0.864626
11
1.1025
21
0.864626
0
LINE
8
BLACK
6
CONTINUOUS
10
1.1025
20
0.864626
11
1.09949
21
0.865225
0
LINE
8
BLACK
6
CONTINUOUS
10
1.09949
20
0.865225
11
1.09693
21
0.866932
0
LINE
8
BLACK
6
CONTINUOUS
10
1.09693
20
0.866932
11
1.09523
21
0.869487
0
LINE
8
BLACK
6
CONTINUOUS
10
1.09523
20
0.869487
11
1.09463
21
0.8725
0
LINE
8
BLACK
6
CONTINUOUS
10
1.09463
20
0.8725
11
1.09463
21
0.9275
0
LINE
8
BLACK
6
CONTINUOUS
10
1.09463
20
0.9275
11
1.09523
21
0.930513
0
LINE
8
BLACK
6
CONTINUOUS
10
1.09523
20
0.930513
11
1.09693
21
0.933068
0
LINE
8
BLACK
6
CONTINUOUS
10
1.09693
20
0.933068
11
1.09949
21
0.934775
0
LINE
8
BLACK
6
CONTINUOUS
10
1.09949
20
0.934775
11
1.1025
21
0.935374
0
LINE
8
BLACK
6
CONTINUOUS
10
1.1025
20
0.935374
11
1.1375
21
0.935374
0
LINE
8
BLACK
6
CONTINUOUS
10
1.1375
20
0.935374
11
1.14051
21
0.934775
0
LINE
8
BLACK
6
CONTINUOUS
10
1.21551
20
0.934775
11
1.21807
21
0.933068
0
LINE
8
BLACK
6
CONTINUOUS
10
1.21807
20
0.933068
11
1.21977
21
0.930513
0
LINE
8
BLACK
6
CONTINUOUS
10
1.21977
20
0.930513
11
1.22037
21
0.9275
0
LINE
8
BLACK
6
CONTINUOUS
10
1.22037
20
0.9275
11
1.22037
21
0.8725
0
LINE
8
BLACK
6
CONTINUOUS
10
1.22037
20
0.8725
11
1.21977
21
0.869487
0
LINE
8
BLACK
6
CONTINUOUS
10
1.21977
20
0.869487
11
1.21807
21
0.866932
0
LINE
8
BLACK
6
CONTINUOUS
10
1.21807
20
0.866932
11
1.21551
21
0.865225
0
LINE
8
BLACK
6
CONTINUOUS
10
1.21551
20
0.865225
11
1.2125
21
0.864626
0
LINE
8
BLACK
6
CONTINUOUS
10
1.2125
20
0.864626
11
1.1775
21
0.864626
0
LINE
8
BLACK
6
CONTINUOUS
10
1.1775
20
0.864626
11
1.17449
21
0.865225
0
LINE
8
BLACK
6
CONTINUOUS
10
1.17449
20
0.865225
11
1.17193
21
0.866932
0
LINE
8
BLACK
6
CONTINUOUS
10
1.17193
20
0.866932
11
1.17023
21
0.869487
0
LINE
8
BLACK
6
CONTINUOUS
10
1.17023
20
0.869487
11
1.16963
21
0.8725
0
LINE
8
BLACK
6
CONTINUOUS
10
1.16963
20
0.8725
11
1.16963
21
0.9275
0
LINE
8
BLACK
6
CONTINUOUS
10
1.16963
20
0.9275
11
1.17023
21
0.930513
0
LINE
8
BLACK
6
CONTINUOUS
10
1.17023
20
0.930513
11
1.17193
21
0.933068
0
LINE
8
BLACK
6
CONTINUOUS
10
1.17193
20
0.933068
11
1.17449
21
0.934775
0
LINE
8
BLACK
6
CONTINUOUS
10
1.17449
20
0.934775
11
1.1775
21
0.935374
0
LINE
8
BLACK
6
CONTINUOUS
10
1.1775
20
0.935374
11
1.2125
21
0.935374
0
LINE
8
BLACK
6
CONTINUOUS
10
1.2125
20
0.935374
11
1.21551
21
0.934775
0
LINE
8
BLACK
6
CONTINUOUS
10
0.214106
20
1.12519
11
0.228034
21
1.12283
0
LINE
8
BLACK
6
CONTINUOUS
10
0.228034
20
1.12283
11
0.24161
21
1.11891
0
LINE
8
BLACK
6
CONTINUOUS
10
0.24161
20
1.11891
11
0.254663
21
1.11351
0
LINE
8
BLACK
6
CONTINUOUS
10
0.254663
20
1.11351
11
0.267028
21
1.10667
0
LINE
8
BLACK
6
CONTINUOUS
10
0.267028
20
1.10667
11
0.27855
21
1.0985
0
LINE
8
BLACK
6
CONTINUOUS
10
0.27855
20
1.0985
11
0.289084
21
1.08908
0
LINE
8
BLACK
6
CONTINUOUS
10
0.289084
20
1.08908
11
0.298498
21
1.07855
0
LINE
8
BLACK
6
CONTINUOUS
10
0.298498
20
1.07855
11
0.306674
21
1.06703
0
LINE
8
BLACK
6
CONTINUOUS
10
0.306674
20
1.06703
11
0.313508
21
1.05466
0
LINE
8
BLACK
6
CONTINUOUS
10
0.313508
20
1.05466
11
0.318914
21
1.04161
0
LINE
8
BLACK
6
CONTINUOUS
10
0.318914
20
1.04161
11
0.322826
21
1.02803
0
LINE
8
BLACK
6
CONTINUOUS
10
0.322826
20
1.02803
11
0.325192
21
1.01411
0
LINE
8
BLACK
6
CONTINUOUS
10
0.325192
20
1.01411
11
0.325984
21
1
0
LINE
8
BLACK
6
CONTINUOUS
10
0.325984
20
1
11
0.325192
21
0.985894
0
LINE
8
BLACK
6
CONTINUOUS
10
0.325192
20
0.985894
11
0.322826
21
0.971966
0
LINE
8
BLACK
6
CONTINUOUS
10
0.322826
20
0.971966
11
0.318914
21
0.95839
0
LINE
8
BLACK
6
CONTINUOUS
10
0.318914
20
0.95839
11
0.313508
21
0.945337
0
LINE
8
BLACK
6
CONTINUOUS
10
0.313508
20
0.945337
11
0.306674
21
0.932972
0
LINE
8
BLACK
6
CONTINUOUS
10
0.306674
20
0.932972
11
0.298498
21
0.92145
0
LINE
8
BLACK
6
CONTINUOUS
10
0.298498
20
0.92145
11
0.289084
21
0.910916
0
LINE
8
BLACK
6
CONTINUOUS
10
0.289084
20
0.910916
11
0.27855
21
0.901502
0
LINE
8
BLACK
6
CONTINUOUS
10
0.27855
20
0.901502
11
0.267028
21
0.893326
0
LINE
8
BLACK
6
CONTINUOUS
10
0.267028
20
0.893326
11
0.254663
21
0.886492
0
LINE
8
BLACK
6
CONTINUOUS
10
0.254663
20
0.886492
11
0.24161
21
0.881086
0
LINE
8
BLACK
6
CONTINUOUS
10
0.24161
20
0.881086
11
0.228034
21
0.877174
0
LINE
8
BLACK
6
CONTINUOUS
10
0.228034
20
0.877174
11
0.214106
21
0.874808
0
LINE
8
BLACK
6
CONTINUOUS
10
0.214106
20
0.874808
11
0.2
21
0.874016
0
LINE
8
BLACK
6
CONTINUOUS
10
0.2
20
0.874016
11
0.185894
21
0.874808
0
LINE
8
BLACK
6
CONTINUOUS
10
0.185894
20
0.874808
11
0.171966
21
0.877174
0
LINE
8
BLACK
6
CONTINUOUS
10
0.171966
20
0.877174
11
0.15839
21
0.881086
0
LINE
8
BLACK
6
CONTINUOUS
10
0.15839
20
0.881086
11
0.145337
21
0.886492
0
LINE
8
BLACK
6
CONTINUOUS
10
0.145337
20
0.886492
11
0.132972
21
0.893326
0
LINE
8
BLACK
6
CONTINUOUS
10
0.132972
20
0.893326
11
0.12145
21
0.901502
0
LINE
8
BLACK
6
CONTINUOUS
10
0.12145
20
0.901502
11
0.110916
21
0.910916
0
LINE
8
BLACK
6
CONTINUOUS
10
0.110916
20
0.910916
11
0.101502
21
0.92145
0
LINE
8
BLACK
6
CONTINUOUS
10
0.101502
20
0.92145
11
0.0933261
21
0.932972
0
LINE
8
BLACK
6
CONTINUOUS
10
0.0933261
20
0.932972
11
0.0864921
21
0.945337
0
LINE
8
BLACK
6
CONTINUOUS
10
0.0864921
20
0.945337
11
0.0810856
21
0.95839
0
LINE
8
BLACK
6
CONTINUOUS
10
0.0810856
20
0.95839
11
0.0771744
21
0.971966
0
LINE
8
BLACK
6
CONTINUOUS
10
0.0771744
20
0.971966
11
0.0748079
21
0.985894
0
LINE
8
BLACK
6
CONTINUOUS
10
0.0748079
20
0.985894
11
0.0740157
21
1
0
LINE
8
BLACK
6
CONTINUOUS
10
0.0740157
20
1
11
0.0748079
21
1.01411
0
LINE
8
BLACK
6
CONTINUOUS
10
0.0748079
20
1.01411
11
0.0771744
21
1.02803
0
LINE
8
BLACK
6
CONTINUOUS
10
0.0771744
20
1.02803
11
0.0810856
21
1.04161
0
LINE
8
BLACK
6
CONTINUOUS
10
0.0810856
20
1.04161
11
0.0864921
21
1.05466
0
LINE
8
BLACK
6
CONTINUOUS
10
0.0864921
20
1.05466
11
0.0933261
21
1.06703
0
LINE
8
BLACK
6
CONTINUOUS
10
0.0933261
20
1.06703
11
0.101502
21
1.07855
0
LINE
8
BLACK
6
CONTINUOUS
10
0.101502
20
1.07855
11
0.110916
21
1.08908
0
LINE
8
BLACK
6
CONTINUOUS
10
0.110916
20
1.08908
11
0.12145
21
1.0985
0
LINE
8
BLACK
6
CONTINUOUS
10
0.12145
20
1.0985
11
0.132972
21
1.10667
0
LINE
8
BLACK
6
CONTINUOUS
10
0.132972
20
1.10667
11
0.145337
21
1.11351
0
LINE
8
BLACK
6
CONTINUOUS
10
0.145337
20
1.11351
11
0.15839
21
1.11891
0
LINE
8
BLACK
6
CONTINUOUS
10
0.15839
20
1.11891
11
0.171966
21
1.12283
0
LINE
8
BLACK
6
CONTINUOUS
10
0.171966
20
1.12283
11
0.185894
21
1.12519
0
LINE
8
BLACK
6
CONTINUOUS
10
0.185894
20
1.12519
11
0.2
21
1.12598
0
LINE
8
BLACK
6
CONTINUOUS
10
0.2
20
1.12598
11
0.214106
21
1.12519
0
LINE
8
BLACK
6
CONTINUOUS
10
1.41411
20
1.12519
11
1.42803
21
1.12283
0
LINE
8
BLACK
6
CONTINUOUS
10
1.42803
20
1.12283
11
1.44161
21
1.11891
0
LINE
8
BLACK
6
CONTINUOUS
10
1.44161
20
1.11891
11
1.45466
21
1.11351
0
LINE
8
BLACK
6
CONTINUOUS
10
1.45466
20
1.11351
11
1.46703
21
1.10667
0
LINE
8
BLACK
6
CONTINUOUS
10
1.46703
20
1.10667
11
1.47855
21
1.0985
0
LINE
8
BLACK
6
CONTINUOUS
10
1.47855
20
1.0985
11
1.48908
21
1.08908
0
LINE
8
BLACK
6
CONTINUOUS
10
1.48908
20
1.08908
11
1.4985
21
1.07855
0
LINE
8
BLACK
6
CONTINUOUS
10
1.4985
20
1.07855
11
1.50667
21
1.06703
0
LINE
8
BLACK
6
CONTINUOUS
10
1.50667
20
1.06703
11
1.51351
21
1.05466
0
LINE
8
BLACK
6
CONTINUOUS
10
1.51351
20
1.05466
11
1.51891
21
1.04161
0
LINE
8
BLACK
6
CONTINUOUS
10
1.51891
20
1.04161
11
1.52283
21
1.02803
0
LINE
8
BLACK
6
CONTINUOUS
10
1.52283
20
1.02803
11
1.52519
21
1.01411
0
LINE
8
BLACK
6
CONTINUOUS
10
1.52519
20
1.01411
11
1.52598
21
1
0
LINE
8
BLACK
6
CONTINUOUS
10
1.52598
20
1
11
1.52519
21
0.985894
0
LINE
8
BLACK
6
CONTINUOUS
10
1.52519
20
0.985894
11
1.52283
21
0.971966
0
LINE
8
BLACK
6
CONTINUOUS
10
1.52283
20
0.971966
11
1.51891
21
0.95839
0
LINE
8
BLACK
6
CONTINUOUS
10
1.51891
20
0.95839
11
1.51351
21
0.945337
0
LINE
8
BLACK
6
CONTINUOUS
10
1.51351
20
0.945337
11
1.50667
21
0.932972
0
LINE
8
BLACK
6
CONTINUOUS
10
1.50667
20
0.932972
11
1.4985
21
0.92145
0
LINE
8
BLACK
6
CONTINUOUS
10
1.4985
20
0.92145
11
1.48908
21
0.910916
0
LINE
8
BLACK
6
CONTINUOUS
10
1.48908
20
0.910916
11
1.47855
21
0.901502
0
LINE
8
BLACK
6
CONTINUOUS
10
1.47855
20
0.901502
11
1.46703
21
0.893326
0
LINE
8
BLACK
6
CONTINUOUS
10
1.46703
20
0.893326
11
1.45466
21
0.886492
0
LINE
8
BLACK
6
CONTINUOUS
10
1.45466
20
0.886492
11
1.44161
21
0.881086
0
LINE
8
BLACK
6
CONTINUOUS
10
1.44161
20
0.881086
11
1.42803
21
0.877174
0
LINE
8
BLACK
6
CONTINUOUS
10
1.42803
20
0.877174
11
1.41411
21
0.874808
0
LINE
8
BLACK
6
CONTINUOUS
10
1.41411
20
0.874808
11
1.4
21
0.874016
0
LINE
8
BLACK
6
CONTINUOUS
10
1.4
20
0.874016
11
1.38589
21
0.874808
0
LINE
8
BLACK
6
CONTINUOUS
10
1.38589
20
0.874808
11
1.37197
21
0.877174
0
LINE
8
BLACK
6
CONTINUOUS
10
1.37197
20
0.877174
11
1.35839
21
0.881086
0
LINE
8
BLACK
6
CONTINUOUS
10
1.35839
20
0.881086
11
1.34534
21
0.886492
0
LINE
8
BLACK
6
CONTINUOUS
10
1.34534
20
0.886492
11
1.33297
21
0.893326
0
LINE
8
BLACK
6
CONTINUOUS
10
1.33297
20
0.893326
11
1.32145
21
0.901502
0
LINE
8
BLACK
6
CONTINUOUS
10
1.32145
20
0.901502
11
1.31092
21
0.910916
0
LINE
8
BLACK
6
CONTINUOUS
10
1.31092
20
0.910916
11
1.3015
21
0.92145
0
LINE
8
BLACK
6
CONTINUOUS
10
1.3015
20
0.92145
11
1.29333
21
0.932972
0
LINE
8
BLACK
6
CONTINUOUS
10
1.29333
20
0.932972
11
1.28649
21
0.945337
0
LINE
8
BLACK
6
CONTINUOUS
10
1.28649
20
0.945337
11
1.28109
21
0.95839
0
LINE
8
BLACK
6
CONTINUOUS
10
1.28109
20
0.95839
11
1.27717
21
0.971966
0
LINE
8
BLACK
6
CONTINUOUS
10
1.27717
20
0.971966
11
1.27481
21
0.985894
0
LINE
8
BLACK
6
CONTINUOUS
10
1.27481
20
0.985894
11
1.27402
21
1
0
LINE
8
BLACK
6
CONTINUOUS
10
1.27402
20
1
11
1.27481
21
1.01411
0
LINE
8
BLACK
6
CONTINUOUS
10
1.27481
20
1.01411
11
1.27717
21
1.02803
0
LINE
8
BLACK
6
CONTINUOUS
10
1.27717
20
1.02803
11
1.28109
21
1.04161
0
LINE
8
BLACK
6
CONTINUOUS
10
1.28109
20
1.04161
11
1.28649
21
1.05466
0
LINE
8
BLACK
6
CONTINUOUS
10
1.28649
20
1.05466
11
1.29333
21
1.06703
0
LINE
8
BLACK
6
CONTINUOUS
10
1.29333
20
1.06703
11
1.3015
21
1.07855
0
LINE
8
BLACK
6
CONTINUOUS
10
1.3015
20
1.07855
11
1.31092
21
1.08908
0
LINE
8
BLACK
6
CONTINUOUS
10
1.31092
20
1.08908
11
1.32145
21
1.0985
0
LINE
8
BLACK
6
CONTINUOUS
10
1.32145
20
1.0985
11
1.33297
21
1.10667
0
LINE
8
BLACK
6
CONTINUOUS
10
1.33297
20
1.10667
11
1.34534
21
1.11351
0
LINE
8
BLACK
6
CONTINUOUS
10
1.34534
20
1.11351
11
1.35839
21
1.11891
0
LINE
8
BLACK
6
CONTINUOUS
10
1.35839
20
1.11891
11
1.37197
21
1.12283
0
LINE
8
BLACK
6
CONTINUOUS
10
1.37197
20
1.12283
11
1.38589
21
1.12519
0
LINE
8
BLACK
6
CONTINUOUS
10
1.38589
20
1.12519
11
1.4
21
1.12598
0
LINE
8
BLACK
6
CONTINUOUS
10
1.4
20
1.12598
11
1.41411
21
1.12519
0
LINE
8
BLACK
6
CONTINUOUS
10
0.725513
20
0.944775
11
0.728068
21
0.943068
0
LINE
8
BLACK
6
CONTINUOUS
10
0.728068
20
0.943068
11
0.729775
21
0.940513
0
LINE
8
BLACK
6
CONTINUOUS
10
0.729775
20
0.940513
11
0.730374
21
0.9375
0
LINE
8
BLACK
6
CONTINUOUS
10
0.730374
20
0.9375
11
0.730374
21
0.8825
0
LINE
8
BLACK
6
CONTINUOUS
10
0.730374
20
0.8825
11
0.729775
21
0.879487
0
LINE
8
BLACK
6
CONTINUOUS
10
0.729775
20
0.879487
11
0.728068
21
0.876932
0
LINE
8
BLACK
6
CONTINUOUS
10
0.728068
20
0.876932
11
0.725513
21
0.875225
0
LINE
8
BLACK
6
CONTINUOUS
10
0.725513
20
0.875225
11
0.7225
21
0.874626
0
LINE
8
BLACK
6
CONTINUOUS
10
0.7225
20
0.874626
11
0.6875
21
0.874626
0
LINE
8
BLACK
6
CONTINUOUS
10
0.6875
20
0.874626
11
0.684487
21
0.875225
0
LINE
8
BLACK
6
CONTINUOUS
10
0.684487
20
0.875225
11
0.681932
21
0.876932
0
LINE
8
BLACK
6
CONTINUOUS
10
0.681932
20
0.876932
11
0.680225
21
0.879487
0
LINE
8
BLACK
6
CONTINUOUS
10
0.680225
20
0.879487
11
0.679626
21
0.8825
0
LINE
8
BLACK
6
CONTINUOUS
10
0.679626
20
0.8825
11
0.679626
21
0.9375
0
LINE
8
BLACK
6
CONTINUOUS
10
0.679626
20
0.9375
11
0.680225
21
0.940513
0
LINE
8
BLACK
6
CONTINUOUS
10
0.680225
20
0.940513
11
0.681932
21
0.943068
0
LINE
8
BLACK
6
CONTINUOUS
10
0.681932
20
0.943068
11
0.684487
21
0.944775
0
LINE
8
BLACK
6
CONTINUOUS
10
0.684487
20
0.944775
11
0.6875
21
0.945374
0
LINE
8
BLACK
6
CONTINUOUS
10
0.6875
20
0.945374
11
0.7225
21
0.945374
0
LINE
8
BLACK
6
CONTINUOUS
10
0.7225
20
0.945374
11
0.725513
21
0.944775
0
LINE
8
BLACK
6
CONTINUOUS
10
0.800513
20
0.944775
11
0.803068
21
0.943068
0
LINE
8
BLACK
6
CONTINUOUS
10
0.803068
20
0.943068
11
0.804775
21
0.940513
0
LINE
8
BLACK
6
CONTINUOUS
10
0.804775
20
0.940513
11
0.805374
21
0.9375
0
LINE
8
BLACK
6
CONTINUOUS
10
0.805374
20
0.9375
11
0.805374
21
0.8825
0
LINE
8
BLACK
6
CONTINUOUS
10
0.805374
20
0.8825
11
0.804775
21
0.879487
0
LINE
8
BLACK
6
CONTINUOUS
10
0.804775
20
0.879487
11
0.803068
21
0.876932
0
LINE
8
BLACK
6
CONTINUOUS
10
0.803068
20
0.876932
11
0.800513
21
0.875225
0
LINE
8
BLACK
6
CONTINUOUS
10
0.800513
20
0.875225
11
0.7975
21
0.874626
0
LINE
8
BLACK
6
CONTINUOUS
10
0.7975
20
0.874626
11
0.7625
21
0.874626
0
LINE
8
BLACK
6
CONTINUOUS
10
0.7625
20
0.874626
11
0.759487
21
0.875225
0
LINE
8
BLACK
6
CONTINUOUS
10
0.759487
20
0.875225
11
0.756932
21
0.876932
0
LINE
8
BLACK
6
CONTINUOUS
10
0.756932
20
0.876932
11
0.755225
21
0.879487
0
LINE
8
BLACK
6
CONTINUOUS
10
0.755225
20
0.879487
11
0.754626
21
0.8825
0
LINE
8
BLACK
6
CONTINUOUS
10
0.754626
20
0.8825
11
0.754626
21
0.9375
0
LINE
8
BLACK
6
CONTINUOUS
10
0.754626
20
0.9375
11
0.755225
21
0.940513
0
LINE
8
BLACK
6
CONTINUOUS
10
0.755225
20
0.940513
11
0.756932
21
0.943068
0
LINE
8
BLACK
6
CONTINUOUS
10
0.756932
20
0.943068
11
0.759487
21
0.944775
0
LINE
8
BLACK
6
CONTINUOUS
10
0.759487
20
0.944775
11
0.7625
21
0.945374
0
LINE
8
BLACK
6
CONTINUOUS
10
0.7625
20
0.945374
11
0.7975
21
0.945374
0
LINE
8
BLACK
6
CONTINUOUS
10
0.7975
20
0.945374
11
0.800513
21
0.944775
0
LINE
8
BLACK
6
CONTINUOUS
10
0.883013
20
0.944775
11
0.885568
21
0.943068
0
LINE
8
BLACK
6
CONTINUOUS
10
0.885568
20
0.943068
11
0.887275
21
0.940513
0
LINE
8
BLACK
6
CONTINUOUS
10
0.887275
20
0.940513
11
0.887874
21
0.9375
0
LINE
8
BLACK
6
CONTINUOUS
10
0.887874
20
0.9375
11
0.887874
21
0.8825
0
LINE
8
BLACK
6
CONTINUOUS
10
0.887874
20
0.8825
11
0.887275
21
0.879487
0
LINE
8
BLACK
6
CONTINUOUS
10
0.887275
20
0.879487
11
0.885568
21
0.876932
0
LINE
8
BLACK
6
CONTINUOUS
10
0.885568
20
0.876932
11
0.883013
21
0.875225
0
LINE
8
BLACK
6
CONTINUOUS
10
0.883013
20
0.875225
11
0.88
21
0.874626
0
LINE
8
BLACK
6
CONTINUOUS
10
0.88
20
0.874626
11
0.845
21
0.874626
0
LINE
8
BLACK
6
CONTINUOUS
10
0.845
20
0.874626
11
0.841987
21
0.875225
0
LINE
8
BLACK
6
CONTINUOUS
10
0.841987
20
0.875225
11
0.839432
21
0.876932
0
LINE
8
BLACK
6
CONTINUOUS
10
0.839432
20
0.876932
11
0.837725
21
0.879487
0
LINE
8
BLACK
6
CONTINUOUS
10
0.837725
20
0.879487
11
0.837126
21
0.8825
0
LINE
8
BLACK
6
CONTINUOUS
10
0.837126
20
0.8825
11
0.837126
21
0.9375
0
LINE
8
BLACK
6
CONTINUOUS
10
0.837126
20
0.9375
11
0.837725
21
0.940513
0
LINE
8
BLACK
6
CONTINUOUS
10
0.837725
20
0.940513
11
0.839432
21
0.943068
0
LINE
8
BLACK
6
CONTINUOUS
10
0.839432
20
0.943068
11
0.841987
21
0.944775
0
LINE
8
BLACK
6
CONTINUOUS
10
0.841987
20
0.944775
11
0.845
21
0.945374
0
LINE
8
BLACK
6
CONTINUOUS
10
0.845
20
0.945374
11
0.88
21
0.945374
0
LINE
8
BLACK
6
CONTINUOUS
10
0.88
20
0.945374
11
0.883013
21
0.944775
0
LINE
8
BLACK
6
CONTINUOUS
10
0.958013
20
0.944775
11
0.960568
21
0.943068
0
LINE
8
BLACK
6
CONTINUOUS
10
0.960568
20
0.943068
11
0.962275
21
0.940513
0
LINE
8
BLACK
6
CONTINUOUS
10
0.962275
20
0.940513
11
0.962874
21
0.9375
0
LINE
8
BLACK
6
CONTINUOUS
10
0.962874
20
0.9375
11
0.962874
21
0.8825
0
LINE
8
BLACK
6
CONTINUOUS
10
0.962874
20
0.8825
11
0.962275
21
0.879487
0
LINE
8
BLACK
6
CONTINUOUS
10
0.962275
20
0.879487
11
0.960568
21
0.876932
0
LINE
8
BLACK
6
CONTINUOUS
10
0.960568
20
0.876932
11
0.958013
21
0.875225
0
LINE
8
BLACK
6
CONTINUOUS
10
0.958013
20
0.875225
11
0.955
21
0.874626
0
LINE
8
BLACK
6
CONTINUOUS
10
0.955
20
0.874626
11
0.92
21
0.874626
0
LINE
8
BLACK
6
CONTINUOUS
10
0.92
20
0.874626
11
0.916987
21
0.875225
0
LINE
8
BLACK
6
CONTINUOUS
10
0.916987
20
0.875225
11
0.914432
21
0.876932
0
LINE
8
BLACK
6
CONTINUOUS
10
0.914432
20
0.876932
11
0.912725
21
0.879487
0
LINE
8
BLACK
6
CONTINUOUS
10
0.912725
20
0.879487
11
0.912126
21
0.8825
0
LINE
8
BLACK
6
CONTINUOUS
10
0.912126
20
0.8825
11
0.912126
21
0.9375
0
LINE
8
BLACK
6
CONTINUOUS
10
0.912126
20
0.9375
11
0.912725
21
0.940513
0
LINE
8
BLACK
6
CONTINUOUS
10
0.912725
20
0.940513
11
0.914432
21
0.943068
0
LINE
8
BLACK
6
CONTINUOUS
10
0.914432
20
0.943068
11
0.916987
21
0.944775
0
LINE
8
BLACK
6
CONTINUOUS
10
0.916987
20
0.944775
11
0.92
21
0.945374
0
LINE
8
BLACK
6
CONTINUOUS
10
0.92
20
0.945374
11
0.955
21
0.945374
0
LINE
8
BLACK
6
CONTINUOUS
10
0.955
20
0.945374
11
0.958013
21
0.944775
0
LINE
8
BLACK
6
CONTINUOUS
10
0.623013
20
1.05504
11
0.625568
21
1.05334
0
LINE
8
BLACK
6
CONTINUOUS
10
0.625568
20
1.05334
11
0.627275
21
1.05078
0
LINE
8
BLACK
6
CONTINUOUS
10
0.627275
20
1.05078
11
0.627874
21
1.04777
0
LINE
8
BLACK
6
CONTINUOUS
10
0.627874
20
1.04777
11
0.627874
21
0.987769
0
LINE
8
BLACK
6
CONTINUOUS
10
0.627874
20
0.987769
11
0.627275
21
0.984756
0
LINE
8
BLACK
6
CONTINUOUS
10
0.627275
20
0.984756
11
0.625568
21
0.982201
0
LINE
8
BLACK
6
CONTINUOUS
10
0.625568
20
0.982201
11
0.623013
21
0.980494
0
LINE
8
BLACK
6
CONTINUOUS
10
0.623013
20
0.980494
11
0.62
21
0.979895
0
LINE
8
BLACK
6
CONTINUOUS
10
0.62
20
0.979895
11
0.56
21
0.979895
0
LINE
8
BLACK
6
CONTINUOUS
10
0.56
20
0.979895
11
0.556987
21
0.980494
0
LINE
8
BLACK
6
CONTINUOUS
10
0.556987
20
0.980494
11
0.554432
21
0.982201
0
LINE
8
BLACK
6
CONTINUOUS
10
0.554432
20
0.982201
11
0.552725
21
0.984756
0
LINE
8
BLACK
6
CONTINUOUS
10
0.552725
20
0.984756
11
0.552126
21
0.987769
0
LINE
8
BLACK
6
CONTINUOUS
10
0.552126
20
0.987769
11
0.552126
21
1.04777
0
LINE
8
BLACK
6
CONTINUOUS
10
0.552126
20
1.04777
11
0.552725
21
1.05078
0
LINE
8
BLACK
6
CONTINUOUS
10
0.552725
20
1.05078
11
0.554432
21
1.05334
0
LINE
8
BLACK
6
CONTINUOUS
10
0.554432
20
1.05334
11
0.556987
21
1.05504
0
LINE
8
BLACK
6
CONTINUOUS
10
0.556987
20
1.05504
11
0.56
21
1.05564
0
LINE
8
BLACK
6
CONTINUOUS
10
0.56
20
1.05564
11
0.62
21
1.05564
0
LINE
8
BLACK
6
CONTINUOUS
10
0.62
20
1.05564
11
0.623013
21
1.05504
0
LINE
8
BLACK
6
CONTINUOUS
10
0.723013
20
1.05504
11
0.725568
21
1.05334
0
LINE
8
BLACK
6
CONTINUOUS
10
0.725568
20
1.05334
11
0.727275
21
1.05078
0
LINE
8
BLACK
6
CONTINUOUS
10
0.727275
20
1.05078
11
0.727874
21
1.04777
0
LINE
8
BLACK
6
CONTINUOUS
10
0.727874
20
1.04777
11
0.727874
21
0.987769
0
LINE
8
BLACK
6
CONTINUOUS
10
0.727874
20
0.987769
11
0.727275
21
0.984756
0
LINE
8
BLACK
6
CONTINUOUS
10
0.727275
20
0.984756
11
0.725568
21
0.982201
0
LINE
8
BLACK
6
CONTINUOUS
10
0.725568
20
0.982201
11
0.723013
21
0.980494
0
LINE
8
BLACK
6
CONTINUOUS
10
0.723013
20
0.980494
11
0.72
21
0.979895
0
LINE
8
BLACK
6
CONTINUOUS
10
0.72
20
0.979895
11
0.66
21
0.979895
0
LINE
8
BLACK
6
CONTINUOUS
10
0.66
20
0.979895
11
0.656987
21
0.980494
0
LINE
8
BLACK
6
CONTINUOUS
10
0.656987
20
0.980494
11
0.654432
21
0.982201
0
LINE
8
BLACK
6
CONTINUOUS
10
0.654432
20
0.982201
11
0.652725
21
0.984756
0
LINE
8
BLACK
6
CONTINUOUS
10
0.652725
20
0.984756
11
0.652126
21
0.987769
0
LINE
8
BLACK
6
CONTINUOUS
10
0.652126
20
0.987769
11
0.652126
21
1.04777
0
LINE
8
BLACK
6
CONTINUOUS
10
0.652126
20
1.04777
11
0.652725
21
1.05078
0
LINE
8
BLACK
6
CONTINUOUS
10
0.652725
20
1.05078
11
0.654432
21
1.05334
0
LINE
8
BLACK
6
CONTINUOUS
10
0.654432
20
1.05334
11
0.656987
21
1.05504
0
LINE
8
BLACK
6
CONTINUOUS
10
0.656987
20
1.05504
11
0.66
21
1.05564
0
LINE
8
BLACK
6
CONTINUOUS
10
0.66
20
1.05564
11
0.72
21
1.05564
0
LINE
8
BLACK
6
CONTINUOUS
10
0.72
20
1.05564
11
0.723013
21
1.05504
0
LINE
8
BLACK
6
CONTINUOUS
10
0.823013
20
1.05504
11
0.825568
21
1.05334
0
LINE
8
BLACK
6
CONTINUOUS
10
0.825568
20
1.05334
11
0.827275
21
1.05078
0
LINE
8
BLACK
6
CONTINUOUS
10
0.827275
20
1.05078
11
0.827874
21
1.04777
0
LINE
8
BLACK
6
CONTINUOUS
10
0.827874
20
1.04777
11
0.827874
21
0.987769
0
LINE
8
BLACK
6
CONTINUOUS
10
0.827874
20
0.987769
11
0.827275
21
0.984756
0
LINE
8
BLACK
6
CONTINUOUS
10
0.827275
20
0.984756
11
0.825568
21
0.982201
0
LINE
8
BLACK
6
CONTINUOUS
10
0.825568
20
0.982201
11
0.823013
21
0.980494
0
LINE
8
BLACK
6
CONTINUOUS
10
0.823013
20
0.980494
11
0.82
21
0.979895
0
LINE
8
BLACK
6
CONTINUOUS
10
0.82
20
0.979895
11
0.76
21
0.979895
0
LINE
8
BLACK
6
CONTINUOUS
10
0.76
20
0.979895
11
0.756987
21
0.980494
0
LINE
8
BLACK
6
CONTINUOUS
10
0.756987
20
0.980494
11
0.754432
21
0.982201
0
LINE
8
BLACK
6
CONTINUOUS
10
0.754432
20
0.982201
11
0.752725
21
0.984756
0
LINE
8
BLACK
6
CONTINUOUS
10
0.752725
20
0.984756
11
0.752126
21
0.987769
0
LINE
8
BLACK
6
CONTINUOUS
10
0.752126
20
0.987769
11
0.752126
21
1.04777
0
LINE
8
BLACK
6
CONTINUOUS
10
0.752126
20
1.04777
11
0.752725
21
1.05078
0
LINE
8
BLACK
6
CONTINUOUS
10
0.752725
20
1.05078
11
0.754432
21
1.05334
0
LINE
8
BLACK
6
CONTINUOUS
10
0.754432
20
1.05334
11
0.756987
21
1.05504
0
LINE
8
BLACK
6
CONTINUOUS
10
0.756987
20
1.05504
11
0.76
21
1.05564
0
LINE
8
BLACK
6
CONTINUOUS
10
0.76
20
1.05564
11
0.82
21
1.05564
0
LINE
8
BLACK
6
CONTINUOUS
10
0.82
20
1.05564
11
0.823013
21
1.05504
0
LINE
8
BLACK
6
CONTINUOUS
10
0.923013
20
1.05504
11
0.925568
21
1.05334
0
LINE
8
BLACK
6
CONTINUOUS
10
0.925568
20
1.05334
11
0.927275
21
1.05078
0
LINE
8
BLACK
6
CONTINUOUS
10
0.927275
20
1.05078
11
0.927874
21
1.04777
0
LINE
8
BLACK
6
CONTINUOUS
10
0.927874
20
1.04777
11
0.927874
21
0.987769
0
LINE
8
BLACK
6
CONTINUOUS
10
0.927874
20
0.987769
11
0.927275
21
0.984756
0
LINE
8
BLACK
6
CONTINUOUS
10
0.927275
20
0.984756
11
0.925568
21
0.982201
0
LINE
8
BLACK
6
CONTINUOUS
10
0.925568
20
0.982201
11
0.923013
21
0.980494
0
LINE
8
BLACK
6
CONTINUOUS
10
0.923013
20
0.980494
11
0.92
21
0.979895
0
LINE
8
BLACK
6
CONTINUOUS
10
0.92
20
0.979895
11
0.86
21
0.979895
0
LINE
8
BLACK
6
CONTINUOUS
10
0.86
20
0.979895
11
0.856987
21
0.980494
0
LINE
8
BLACK
6
CONTINUOUS
10
0.856987
20
0.980494
11
0.854432
21
0.982201
0
LINE
8
BLACK
6
CONTINUOUS
10
0.854432
20
0.982201
11
0.852725
21
0.984756
0
LINE
8
BLACK
6
CONTINUOUS
10
0.852725
20
0.984756
11
0.852126
21
0.987769
0
LINE
8
BLACK
6
CONTINUOUS
10
0.852126
20
0.987769
11
0.852126
21
1.04777
0
LINE
8
BLACK
6
CONTINUOUS
10
0.852126
20
1.04777
11
0.852725
21
1.05078
0
LINE
8
BLACK
6
CONTINUOUS
10
0.852725
20
1.05078
11
0.854432
21
1.05334
0
LINE
8
BLACK
6
CONTINUOUS
10
0.854432
20
1.05334
11
0.856987
21
1.05504
0
LINE
8
BLACK
6
CONTINUOUS
10
0.856987
20
1.05504
11
0.86
21
1.05564
0
LINE
8
BLACK
6
CONTINUOUS
10
0.86
20
1.05564
11
0.92
21
1.05564
0
LINE
8
BLACK
6
CONTINUOUS
10
0.92
20
1.05564
11
0.923013
21
1.05504
0
LINE
8
BLACK
6
CONTINUOUS
10
1.02301
20
1.05504
11
1.02557
21
1.05334
0
LINE
8
BLACK
6
CONTINUOUS
10
1.02557
20
1.05334
11
1.02727
21
1.05078
0
LINE
8
BLACK
6
CONTINUOUS
10
1.02727
20
1.05078
11
1.02787
21
1.04777
0
LINE
8
BLACK
6
CONTINUOUS
10
1.02787
20
1.04777
11
1.02787
21
0.987769
0
LINE
8
BLACK
6
CONTINUOUS
10
1.02787
20
0.987769
11
1.02727
21
0.984756
0
LINE
8
BLACK
6
CONTINUOUS
10
1.02727
20
0.984756
11
1.02557
21
0.982201
0
LINE
8
BLACK
6
CONTINUOUS
10
1.02557
20
0.982201
11
1.02301
21
0.980494
0
LINE
8
BLACK
6
CONTINUOUS
10
1.02301
20
0.980494
11
1.02
21
0.979895
0
LINE
8
BLACK
6
CONTINUOUS
10
1.02
20
0.979895
11
0.96
21
0.979895
0
LINE
8
BLACK
6
CONTINUOUS
10
0.96
20
0.979895
11
0.956987
21
0.980494
0
LINE
8
BLACK
6
CONTINUOUS
10
0.956987
20
0.980494
11
0.954432
21
0.982201
0
LINE
8
BLACK
6
CONTINUOUS
10
0.954432
20
0.982201
11
0.952725
21
0.984756
0
LINE
8
BLACK
6
CONTINUOUS
10
0.952725
20
0.984756
11
0.952126
21
0.987769
0
LINE
8
BLACK
6
CONTINUOUS
10
0.952126
20
0.987769
11
0.952126
21
1.04777
0
LINE
8
BLACK
6
CONTINUOUS
10
0.952126
20
1.04777
11
0.952725
21
1.05078
0
LINE
8
BLACK
6
CONTINUOUS
10
0.952725
20
1.05078
11
0.954432
21
1.05334
0
LINE
8
BLACK
6
CONTINUOUS
10
0.954432
20
1.05334
11
0.956987
21
1.05504
0
LINE
8
BLACK
6
CONTINUOUS
10
0.956987
20
1.05504
11
0.96
21
1.05564
0
LINE
8
BLACK
6
CONTINUOUS
10
0.96
20
1.05564
11
1.02
21
1.05564
0
LINE
8
BLACK
6
CONTINUOUS
10
1.02
20
1.05564
11
1.02301
21
1.05504
0
LINE
8
BLACK
6
CONTINUOUS
10
1.20301
20
1.05727
11
1.20557
21
1.05557
0
LINE
8
BLACK
6
CONTINUOUS
10
1.20557
20
1.05557
11
1.20727
21
1.05301
0
LINE
8
BLACK
6
CONTINUOUS
10
1.20727
20
1.05301
11
1.20787
21
1.05
0
LINE
8
BLACK
6
CONTINUOUS
10
1.20787
20
1.05
11
1.20787
21
0.99
0
LINE
8
BLACK
6
CONTINUOUS
10
1.20787
20
0.99
11
1.20727
21
0.986987
0
LINE
8
BLACK
6
CONTINUOUS
10
1.20727
20
0.986987
11
1.20557
21
0.984432
0
LINE
8
BLACK
6
CONTINUOUS
10
1.20557
20
0.984432
11
1.20301
21
0.982725
0
LINE
8
BLACK
6
CONTINUOUS
10
1.20301
20
0.982725
11
1.2
21
0.982126
0
LINE
8
BLACK
6
CONTINUOUS
10
1.2
20
0.982126
11
1.14
21
0.982126
0
LINE
8
BLACK
6
CONTINUOUS
10
1.14
20
0.982126
11
1.13699
21
0.982725
0
LINE
8
BLACK
6
CONTINUOUS
10
1.13699
20
0.982725
11
1.13443
21
0.984432
0
LINE
8
BLACK
6
CONTINUOUS
10
1.13443
20
0.984432
11
1.13273
21
0.986987
0
LINE
8
BLACK
6
CONTINUOUS
10
1.13273
20
0.986987
11
1.13213
21
0.99
0
LINE
8
BLACK
6
CONTINUOUS
10
1.13213
20
0.99
11
1.13213
21
1.05
0
LINE
8
BLACK
6
CONTINUOUS
10
1.13213
20
1.05
11
1.13273
21
1.05301
0
LINE
8
BLACK
6
CONTINUOUS
10
1.13273
20
1.05301
11
1.13443
21
1.05557
0
LINE
8
BLACK
6
CONTINUOUS
10
1.13443
20
1.05557
11
1.13699
21
1.05727
0
LINE
8
BLACK
6
CONTINUOUS
10
1.13699
20
1.05727
11
1.14
21
1.05787
0
LINE
8
BLACK
6
CONTINUOUS
10
1.14
20
1.05787
11
1.2
21
1.05787
0
LINE
8
BLACK
6
CONTINUOUS
10
1.2
20
1.05787
11
1.20301
21
1.05727
0
LINE
8
BLACK
6
CONTINUOUS
10
0.623013
20
1.15504
11
0.625568
21
1.15334
0
LINE
8
BLACK
6
CONTINUOUS
10
0.625568
20
1.15334
11
0.627275
21
1.15078
0
LINE
8
BLACK
6
CONTINUOUS
10
0.627275
20
1.15078
11
0.627874
21
1.14777
0
LINE
8
BLACK
6
CONTINUOUS
10
0.627874
20
1.14777
11
0.627874
21
1.08777
0
LINE
8
BLACK
6
CONTINUOUS
10
0.627874
20
1.08777
11
0.627275
21
1.08476
0
LINE
8
BLACK
6
CONTINUOUS
10
0.627275
20
1.08476
11
0.625568
21
1.0822
0
LINE
8
BLACK
6
CONTINUOUS
10
0.625568
20
1.0822
11
0.623013
21
1.08049
0
LINE
8
BLACK
6
CONTINUOUS
10
0.623013
20
1.08049
11
0.62
21
1.07989
0
LINE
8
BLACK
6
CONTINUOUS
10
0.62
20
1.07989
11
0.56
21
1.07989
0
LINE
8
BLACK
6
CONTINUOUS
10
0.56
20
1.07989
11
0.556987
21
1.08049
0
LINE
8
BLACK
6
CONTINUOUS
10
0.556987
20
1.08049
11
0.554432
21
1.0822
0
LINE
8
BLACK
6
CONTINUOUS
10
0.554432
20
1.0822
11
0.552725
21
1.08476
0
LINE
8
BLACK
6
CONTINUOUS
10
0.552725
20
1.08476
11
0.552126
21
1.08777
0
LINE
8
BLACK
6
CONTINUOUS
10
0.552126
20
1.08777
11
0.552126
21
1.14777
0
LINE
8
BLACK
6
CONTINUOUS
10
0.552126
20
1.14777
11
0.552725
21
1.15078
0
LINE
8
BLACK
6
CONTINUOUS
10
0.552725
20
1.15078
11
0.554432
21
1.15334
0
LINE
8
BLACK
6
CONTINUOUS
10
0.554432
20
1.15334
11
0.556987
21
1.15504
0
LINE
8
BLACK
6
CONTINUOUS
10
0.556987
20
1.15504
11
0.56
21
1.15564
0
LINE
8
BLACK
6
CONTINUOUS
10
0.56
20
1.15564
11
0.62
21
1.15564
0
LINE
8
BLACK
6
CONTINUOUS
10
0.62
20
1.15564
11
0.623013
21
1.15504
0
LINE
8
BLACK
6
CONTINUOUS
10
0.723013
20
1.15504
11
0.725568
21
1.15334
0
LINE
8
BLACK
6
CONTINUOUS
10
0.725568
20
1.15334
11
0.727275
21
1.15078
0
LINE
8
BLACK
6
CONTINUOUS
10
0.727275
20
1.15078
11
0.727874
21
1.14777
0
LINE
8
BLACK
6
CONTINUOUS
10
0.727874
20
1.14777
11
0.727874
21
1.08777
0
LINE
8
BLACK
6
CONTINUOUS
10
0.727874
20
1.08777
11
0.727275
21
1.08476
0
LINE
8
BLACK
6
CONTINUOUS
10
0.727275
20
1.08476
11
0.725568
21
1.0822
0
LINE
8
BLACK
6
CONTINUOUS
10
0.725568
20
1.0822
11
0.723013
21
1.08049
0
LINE
8
BLACK
6
CONTINUOUS
10
0.723013
20
1.08049
11
0.72
21
1.07989
0
LINE
8
BLACK
6
CONTINUOUS
10
0.72
20
1.07989
11
0.66
21
1.07989
0
LINE
8
BLACK
6
CONTINUOUS
10
0.66
20
1.07989
11
0.656987
21
1.08049
0
LINE
8
BLACK
6
CONTINUOUS
10
0.656987
20
1.08049
11
0.654432
21
1.0822
0
LINE
8
BLACK
6
CONTINUOUS
10
0.654432
20
1.0822
11
0.652725
21
1.08476
0
LINE
8
BLACK
6
CONTINUOUS
10
0.652725
20
1.08476
11
0.652126
21
1.08777
0
LINE
8
BLACK
6
CONTINUOUS
10
0.652126
20
1.08777
11
0.652126
21
1.14777
0
LINE
8
BLACK
6
CONTINUOUS
10
0.652126
20
1.14777
11
0.652725
21
1.15078
0
LINE
8
BLACK
6
CONTINUOUS
10
0.652725
20
1.15078
11
0.654432
21
1.15334
0
LINE
8
BLACK
6
CONTINUOUS
10
0.654432
20
1.15334
11
0.656987
21
1.15504
0
LINE
8
BLACK
6
CONTINUOUS
10
0.656987
20
1.15504
11
0.66
21
1.15564
0
LINE
8
BLACK
6
CONTINUOUS
10
0.66
20
1.15564
11
0.72
21
1.15564
0
LINE
8
BLACK
6
CONTINUOUS
10
0.72
20
1.15564
11
0.723013
21
1.15504
0
LINE
8
BLACK
6
CONTINUOUS
10
0.823013
20
1.15504
11
0.825568
21
1.15334
0
LINE
8
BLACK
6
CONTINUOUS
10
0.825568
20
1.15334
11
0.827275
21
1.15078
0
LINE
8
BLACK
6
CONTINUOUS
10
0.827275
20
1.15078
11
0.827874
21
1.14777
0
LINE
8
BLACK
6
CONTINUOUS
10
0.827874
20
1.14777
11
0.827874
21
1.08777
0
LINE
8
BLACK
6
CONTINUOUS
10
0.827874
20
1.08777
11
0.827275
21
1.08476
0
LINE
8
BLACK
6
CONTINUOUS
10
0.827275
20
1.08476
11
0.825568
21
1.0822
0
LINE
8
BLACK
6
CONTINUOUS
10
0.825568
20
1.0822
11
0.823013
21
1.08049
0
LINE
8
BLACK
6
CONTINUOUS
10
0.823013
20
1.08049
11
0.82
21
1.07989
0
LINE
8
BLACK
6
CONTINUOUS
10
0.82
20
1.07989
11
0.76
21
1.07989
0
LINE
8
BLACK
6
CONTINUOUS
10
0.76
20
1.07989
11
0.756987
21
1.08049
0
LINE
8
BLACK
6
CONTINUOUS
10
0.756987
20
1.08049
11
0.754432
21
1.0822
0
LINE
8
BLACK
6
CONTINUOUS
10
0.754432
20
1.0822
11
0.752725
21
1.08476
0
LINE
8
BLACK
6
CONTINUOUS
10
0.752725
20
1.08476
11
0.752126
21
1.08777
0
LINE
8
BLACK
6
CONTINUOUS
10
0.752126
20
1.08777
11
0.752126
21
1.14777
0
LINE
8
BLACK
6
CONTINUOUS
10
0.752126
20
1.14777
11
0.752725
21
1.15078
0
LINE
8
BLACK
6
CONTINUOUS
10
0.752725
20
1.15078
11
0.754432
21
1.15334
0
LINE
8
BLACK
6
CONTINUOUS
10
0.754432
20
1.15334
11
0.756987
21
1.15504
0
LINE
8
BLACK
6
CONTINUOUS
10
0.756987
20
1.15504
11
0.76
21
1.15564
0
LINE
8
BLACK
6
CONTINUOUS
10
0.76
20
1.15564
11
0.82
21
1.15564
0
LINE
8
BLACK
6
CONTINUOUS
10
0.82
20
1.15564
11
0.823013
21
1.15504
0
LINE
8
BLACK
6
CONTINUOUS
10
0.923013
20
1.15504
11
0.925568
21
1.15334
0
LINE
8
BLACK
6
CONTINUOUS
10
0.925568
20
1.15334
11
0.927275
21
1.15078
0
LINE
8
BLACK
6
CONTINUOUS
10
0.927275
20
1.15078
11
0.927874
21
1.14777
0
LINE
8
BLACK
6
CONTINUOUS
10
0.927874
20
1.14777
11
0.927874
21
1.08777
0
LINE
8
BLACK
6
CONTINUOUS
10
0.927874
20
1.08777
11
0.927275
21
1.08476
0
LINE
8
BLACK
6
CONTINUOUS
10
0.927275
20
1.08476
11
0.925568
21
1.0822
0
LINE
8
BLACK
6
CONTINUOUS
10
0.925568
20
1.0822
11
0.923013
21
1.08049
0
LINE
8
BLACK
6
CONTINUOUS
10
0.923013
20
1.08049
11
0.92
21
1.07989
0
LINE
8
BLACK
6
CONTINUOUS
10
0.92
20
1.07989
11
0.86
21
1.07989
0
LINE
8
BLACK
6
CONTINUOUS
10
0.86
20
1.07989
11
0.856987
21
1.08049
0
LINE
8
BLACK
6
CONTINUOUS
10
0.856987
20
1.08049
11
0.854432
21
1.0822
0
LINE
8
BLACK
6
CONTINUOUS
10
0.854432
20
1.0822
11
0.852725
21
1.08476
0
LINE
8
BLACK
6
CONTINUOUS
10
0.852725
20
1.08476
11
0.852126
21
1.08777
0
LINE
8
BLACK
6
CONTINUOUS
10
0.852126
20
1.08777
11
0.852126
21
1.14777
0
LINE
8
BLACK
6
CONTINUOUS
10
0.852126
20
1.14777
11
0.852725
21
1.15078
0
LINE
8
BLACK
6
CONTINUOUS
10
0.852725
20
1.15078
11
0.854432
21
1.15334
0
LINE
8
BLACK
6
CONTINUOUS
10
0.854432
20
1.15334
11
0.856987
21
1.15504
0
LINE
8
BLACK
6
CONTINUOUS
10
0.856987
20
1.15504
11
0.86
21
1.15564
0
LINE
8
BLACK
6
CONTINUOUS
10
0.86
20
1.15564
11
0.92
21
1.15564
0
LINE
8
BLACK
6
CONTINUOUS
10
0.92
20
1.15564
11
0.923013
21
1.15504
0
LINE
8
BLACK
6
CONTINUOUS
10
1.02301
20
1.15504
11
1.02557
21
1.15334
0
LINE
8
BLACK
6
CONTINUOUS
10
1.02557
20
1.15334
11
1.02727
21
1.15078
0
LINE
8
BLACK
6
CONTINUOUS
10
1.02727
20
1.15078
11
1.02787
21
1.14777
0
LINE
8
BLACK
6
CONTINUOUS
10
1.02787
20
1.14777
11
1.02787
21
1.08777
0
LINE
8
BLACK
6
CONTINUOUS
10
1.02787
20
1.08777
11
1.02727
21
1.08476
0
LINE
8
BLACK
6
CONTINUOUS
10
1.02727
20
1.08476
11
1.02557
21
1.0822
0
LINE
8
BLACK
6
CONTINUOUS
10
1.02557
20
1.0822
11
1.02301
21
1.08049
0
LINE
8
BLACK
6
CONTINUOUS
10
1.02301
20
1.08049
11
1.02
21
1.07989
0
LINE
8
BLACK
6
CONTINUOUS
10
1.02
20
1.07989
11
0.96
21
1.07989
0
LINE
8
BLACK
6
CONTINUOUS
10
0.96
20
1.07989
11
0.956987
21
1.08049
0
LINE
8
BLACK
6
CONTINUOUS
10
0.956987
20
1.08049
11
0.954432
21
1.0822
0
LINE
8
BLACK
6
CONTINUOUS
10
0.954432
20
1.0822
11
0.952725
21
1.08476
0
LINE
8
BLACK
6
CONTINUOUS
10
0.952725
20
1.08476
11
0.952126
21
1.08777
0
LINE
8
BLACK
6
CONTINUOUS
10
0.952126
20
1.08777
11
0.952126
21
1.14777
0
LINE
8
BLACK
6
CONTINUOUS
10
0.952126
20
1.14777
11
0.952725
21
1.15078
0
LINE
8
BLACK
6
CONTINUOUS
10
0.952725
20
1.15078
11
0.954432
21
1.15334
0
LINE
8
BLACK
6
CONTINUOUS
10
0.954432
20
1.15334
11
0.956987
21
1.15504
0
LINE
8
BLACK
6
CONTINUOUS
10
0.956987
20
1.15504
11
0.96
21
1.15564
0
LINE
8
BLACK
6
CONTINUOUS
10
0.96
20
1.15564
11
1.02
21
1.15564
0
LINE
8
BLACK
6
CONTINUOUS
10
1.02
20
1.15564
11
1.02301
21
1.15504
0
LINE
8
BLACK
6
CONTINUOUS
10
1.20301
20
1.15727
11
1.20557
21
1.15557
0
LINE
8
BLACK
6
CONTINUOUS
10
1.20557
20
1.15557
11
1.20727
21
1.15301
0
LINE
8
BLACK
6
CONTINUOUS
10
1.20727
20
1.15301
11
1.20787
21
1.15
0
LINE
8
BLACK
6
CONTINUOUS
10
1.20787
20
1.15
11
1.20787
21
1.09
0
LINE
8
BLACK
6
CONTINUOUS
10
1.20787
20
1.09
11
1.20727
21
1.08699
0
LINE
8
BLACK
6
CONTINUOUS
10
1.20727
20
1.08699
11
1.20557
21
1.08443
0
LINE
8
BLACK
6
CONTINUOUS
10
1.20557
20
1.08443
11
1.20301
21
1.08273
0
LINE
8
BLACK
6
CONTINUOUS
10
1.20301
20
1.08273
11
1.2
21
1.08213
0
LINE
8
BLACK
6
CONTINUOUS
10
1.2
20
1.08213
11
1.14
21
1.08213
0
LINE
8
BLACK
6
CONTINUOUS
10
1.14
20
1.08213
11
1.13699
21
1.08273
0
LINE
8
BLACK
6
CONTINUOUS
10
1.13699
20
1.08273
11
1.13443
21
1.08443
0
LINE
8
BLACK
6
CONTINUOUS
10
1.13443
20
1.08443
11
1.13273
21
1.08699
0
LINE
8
BLACK
6
CONTINUOUS
10
1.13273
20
1.08699
11
1.13213
21
1.09
0
LINE
8
BLACK
6
CONTINUOUS
10
1.13213
20
1.09
11
1.13213
21
1.15
0
LINE
8
BLACK
6
CONTINUOUS
10
1.13213
20
1.15
11
1.13273
21
1.15301
0
LINE
8
BLACK
6
CONTINUOUS
10
1.13273
20
1.15301
11
1.13443
21
1.15557
0
LINE
8
BLACK
6
CONTINUOUS
10
1.13443
20
1.15557
11
1.13699
21
1.15727
0
LINE
8
BLACK
6
CONTINUOUS
10
1.13699
20
1.15727
11
1.14
21
1.15787
0
LINE
8
BLACK
6
CONTINUOUS
10
1.14
20
1.15787
11
1.2
21
1.15787
0
LINE
8
BLACK
6
CONTINUOUS
10
1.2
20
1.15787
11
1.20301
21
1.15727
  0
ENDSEC
  0
EOF
