<?xml version='1.0' encoding='ASCII' standalone='yes'?>
<svg xmlns:svg="http://www.w3.org/2000/svg" xmlns="http://www.w3.org/2000/svg" xmlns:xlink="http://www.w3.org/1999/xlink" version="1.1" width="297.0022mm" height="210.0072mm" viewBox="0.0000 0.0000 297.0022 210.0072">
<title>SVG Image created as LIGHTNING01-B_Fab.svg date 2023/07/05 15:00:01 </title>
  <desc>Image generated by PCBNEW </desc>
<g style="fill:#000084; fill-opacity:1.0000;stroke:#000084; stroke-opacity:1.0000; stroke-linecap:round; stroke-linejoin:round;" transform="translate(0 0) scale(1 1)">
</g>
<g style="fill:#000084; fill-opacity:0.0;  stroke:#000084; stroke-width:0.0000; stroke-opacity:1;  stroke-linecap:round; stroke-linejoin:round;">
</g>
<g style="fill:#000084; fill-opacity:0.01;  stroke:#000084; stroke-width:1.0457; stroke-opacity:1;  stroke-linecap:round; stroke-linejoin:round;">
<g transform="rotate(-90.000000 50.6087 105.0036)">
<text x="50.6087" y="108.4894" transform="scale(-1 1) translate(-101.217393 0)" textLength="69.2766" font-size="9.2955" lengthAdjust="spacingAndGlyphs" text-anchor="middle" opacity="0.01" style="font-family:monospace">MA55532-AE</text>
</g>
<g class="stroked-text"><desc>MA55532-AE</desc>
<path d="M53.7795 72.6352 L46.8079 72.6352 "/>
<path d="M46.8079 72.6352 L51.7876 74.9591 "/>
<path d="M51.7876 74.9591 L46.8079 77.2830 "/>
<path d="M46.8079 77.2830 L53.7795 77.2830 "/>
<path d="M51.7876 80.2708 L51.7876 83.5907 "/>
<path d="M53.7795 79.6069 L46.8079 81.9308 "/>
<path d="M46.8079 81.9308 L53.7795 84.2546 "/>
<path d="M46.8079 89.8984 L46.8079 86.5785 "/>
<path d="M46.8079 86.5785 L50.1277 86.2465 "/>
<path d="M50.1277 86.2465 L49.7957 86.5785 "/>
<path d="M49.7957 86.5785 L49.4637 87.2425 "/>
<path d="M49.4637 87.2425 L49.4637 88.9024 "/>
<path d="M49.4637 88.9024 L49.7957 89.5664 "/>
<path d="M49.7957 89.5664 L50.1277 89.8984 "/>
<path d="M50.1277 89.8984 L50.7917 90.2303 "/>
<path d="M50.7917 90.2303 L52.4516 90.2303 "/>
<path d="M52.4516 90.2303 L53.1156 89.8984 "/>
<path d="M53.1156 89.8984 L53.4476 89.5664 "/>
<path d="M53.4476 89.5664 L53.7795 88.9024 "/>
<path d="M53.7795 88.9024 L53.7795 87.2425 "/>
<path d="M53.7795 87.2425 L53.4476 86.5785 "/>
<path d="M53.4476 86.5785 L53.1156 86.2465 "/>
<path d="M46.8079 96.5380 L46.8079 93.2182 "/>
<path d="M46.8079 93.2182 L50.1277 92.8862 "/>
<path d="M50.1277 92.8862 L49.7957 93.2182 "/>
<path d="M49.7957 93.2182 L49.4637 93.8822 "/>
<path d="M49.4637 93.8822 L49.4637 95.5421 "/>
<path d="M49.4637 95.5421 L49.7957 96.2060 "/>
<path d="M49.7957 96.2060 L50.1277 96.5380 "/>
<path d="M50.1277 96.5380 L50.7917 96.8700 "/>
<path d="M50.7917 96.8700 L52.4516 96.8700 "/>
<path d="M52.4516 96.8700 L53.1156 96.5380 "/>
<path d="M53.1156 96.5380 L53.4476 96.2060 "/>
<path d="M53.4476 96.2060 L53.7795 95.5421 "/>
<path d="M53.7795 95.5421 L53.7795 93.8822 "/>
<path d="M53.7795 93.8822 L53.4476 93.2182 "/>
<path d="M53.4476 93.2182 L53.1156 92.8862 "/>
<path d="M46.8079 103.1777 L46.8079 99.8579 "/>
<path d="M46.8079 99.8579 L50.1277 99.5259 "/>
<path d="M50.1277 99.5259 L49.7957 99.8579 "/>
<path d="M49.7957 99.8579 L49.4637 100.5218 "/>
<path d="M49.4637 100.5218 L49.4637 102.1817 "/>
<path d="M49.4637 102.1817 L49.7957 102.8457 "/>
<path d="M49.7957 102.8457 L50.1277 103.1777 "/>
<path d="M50.1277 103.1777 L50.7917 103.5097 "/>
<path d="M50.7917 103.5097 L52.4516 103.5097 "/>
<path d="M52.4516 103.5097 L53.1156 103.1777 "/>
<path d="M53.1156 103.1777 L53.4476 102.8457 "/>
<path d="M53.4476 102.8457 L53.7795 102.1817 "/>
<path d="M53.7795 102.1817 L53.7795 100.5218 "/>
<path d="M53.7795 100.5218 L53.4476 99.8579 "/>
<path d="M53.4476 99.8579 L53.1156 99.5259 "/>
<path d="M46.8079 105.8336 L46.8079 110.1493 "/>
<path d="M46.8079 110.1493 L49.4637 107.8255 "/>
<path d="M49.4637 107.8255 L49.4637 108.8214 "/>
<path d="M49.4637 108.8214 L49.7957 109.4854 "/>
<path d="M49.7957 109.4854 L50.1277 109.8174 "/>
<path d="M50.1277 109.8174 L50.7917 110.1493 "/>
<path d="M50.7917 110.1493 L52.4516 110.1493 "/>
<path d="M52.4516 110.1493 L53.1156 109.8174 "/>
<path d="M53.1156 109.8174 L53.4476 109.4854 "/>
<path d="M53.4476 109.4854 L53.7795 108.8214 "/>
<path d="M53.7795 108.8214 L53.7795 106.8295 "/>
<path d="M53.7795 106.8295 L53.4476 106.1655 "/>
<path d="M53.4476 106.1655 L53.1156 105.8336 "/>
<path d="M47.4719 112.8052 L47.1399 113.1372 "/>
<path d="M47.1399 113.1372 L46.8079 113.8012 "/>
<path d="M46.8079 113.8012 L46.8079 115.4611 "/>
<path d="M46.8079 115.4611 L47.1399 116.1250 "/>
<path d="M47.1399 116.1250 L47.4719 116.4570 "/>
<path d="M47.4719 116.4570 L48.1358 116.7890 "/>
<path d="M48.1358 116.7890 L48.7998 116.7890 "/>
<path d="M48.7998 116.7890 L49.7957 116.4570 "/>
<path d="M49.7957 116.4570 L53.7795 112.4732 "/>
<path d="M53.7795 112.4732 L53.7795 116.7890 "/>
<path d="M51.1237 119.7769 L51.1237 125.0886 "/>
<path d="M51.7876 128.0764 L51.7876 131.3963 "/>
<path d="M53.7795 127.4125 L46.8079 129.7364 "/>
<path d="M46.8079 129.7364 L53.7795 132.0602 "/>
<path d="M50.1277 134.3841 L50.1277 136.7080 "/>
<path d="M53.7795 137.7039 L53.7795 134.3841 "/>
<path d="M53.7795 134.3841 L46.8079 134.3841 "/>
<path d="M46.8079 134.3841 L46.8079 137.7039 "/>
</g><g transform="rotate(-90.000000 29.4149 105.0036)">
<text x="29.4149" y="108.4894" transform="scale(-1 1) translate(-58.829769 0)" textLength="13.5034" font-size="9.2955" lengthAdjust="spacingAndGlyphs" text-anchor="middle" opacity="0.01" style="font-family:monospace">L1</text>
</g>
<g class="stroked-text"><desc>L1</desc>
<path d="M32.5857 103.8417 L32.5857 100.5218 "/>
<path d="M32.5857 100.5218 L25.6141 100.5218 "/>
<path d="M32.5857 109.8174 L32.5857 105.8336 "/>
<path d="M32.5857 107.8255 L25.6141 107.8255 "/>
<path d="M25.6141 107.8255 L26.6100 107.1615 "/>
<path d="M26.6100 107.1615 L27.2740 106.4975 "/>
<path d="M27.2740 106.4975 L27.6060 105.8336 "/>
</g><text x="122.1483" y="131.5795" transform="scale(-1 1) translate(-244.296537 0)" textLength="40.3941" font-size="9.2955" lengthAdjust="spacingAndGlyphs" text-anchor="middle" opacity="0.01" style="font-family:monospace">AS3935</text>
<g class="stroked-text"><desc>AS3935</desc>
<path d="M140.4073 129.2726 L137.0875 129.2726 "/>
<path d="M141.0713 131.2645 L138.7474 124.2929 "/>
<path d="M138.7474 124.2929 L136.4235 131.2645 "/>
<path d="M134.4316 130.9326 L133.4357 131.2645 "/>
<path d="M133.4357 131.2645 L131.7758 131.2645 "/>
<path d="M131.7758 131.2645 L131.1118 130.9326 "/>
<path d="M131.1118 130.9326 L130.7798 130.6006 "/>
<path d="M130.7798 130.6006 L130.4478 129.9366 "/>
<path d="M130.4478 129.9366 L130.4478 129.2726 "/>
<path d="M130.4478 129.2726 L130.7798 128.6087 "/>
<path d="M130.7798 128.6087 L131.1118 128.2767 "/>
<path d="M131.1118 128.2767 L131.7758 127.9447 "/>
<path d="M131.7758 127.9447 L133.1037 127.6127 "/>
<path d="M133.1037 127.6127 L133.7677 127.2807 "/>
<path d="M133.7677 127.2807 L134.0997 126.9488 "/>
<path d="M134.0997 126.9488 L134.4316 126.2848 "/>
<path d="M134.4316 126.2848 L134.4316 125.6208 "/>
<path d="M134.4316 125.6208 L134.0997 124.9569 "/>
<path d="M134.0997 124.9569 L133.7677 124.6249 "/>
<path d="M133.7677 124.6249 L133.1037 124.2929 "/>
<path d="M133.1037 124.2929 L131.4438 124.2929 "/>
<path d="M131.4438 124.2929 L130.4478 124.6249 "/>
<path d="M128.1240 124.2929 L123.8082 124.2929 "/>
<path d="M123.8082 124.2929 L126.1321 126.9488 "/>
<path d="M126.1321 126.9488 L125.1361 126.9488 "/>
<path d="M125.1361 126.9488 L124.4721 127.2807 "/>
<path d="M124.4721 127.2807 L124.1402 127.6127 "/>
<path d="M124.1402 127.6127 L123.8082 128.2767 "/>
<path d="M123.8082 128.2767 L123.8082 129.9366 "/>
<path d="M123.8082 129.9366 L124.1402 130.6006 "/>
<path d="M124.1402 130.6006 L124.4721 130.9326 "/>
<path d="M124.4721 130.9326 L125.1361 131.2645 "/>
<path d="M125.1361 131.2645 L127.1280 131.2645 "/>
<path d="M127.1280 131.2645 L127.7920 130.9326 "/>
<path d="M127.7920 130.9326 L128.1240 130.6006 "/>
<path d="M120.4883 131.2645 L119.1604 131.2645 "/>
<path d="M119.1604 131.2645 L118.4964 130.9326 "/>
<path d="M118.4964 130.9326 L118.1645 130.6006 "/>
<path d="M118.1645 130.6006 L117.5005 129.6046 "/>
<path d="M117.5005 129.6046 L117.1685 128.2767 "/>
<path d="M117.1685 128.2767 L117.1685 125.6208 "/>
<path d="M117.1685 125.6208 L117.5005 124.9569 "/>
<path d="M117.5005 124.9569 L117.8325 124.6249 "/>
<path d="M117.8325 124.6249 L118.4964 124.2929 "/>
<path d="M118.4964 124.2929 L119.8244 124.2929 "/>
<path d="M119.8244 124.2929 L120.4883 124.6249 "/>
<path d="M120.4883 124.6249 L120.8203 124.9569 "/>
<path d="M120.8203 124.9569 L121.1523 125.6208 "/>
<path d="M121.1523 125.6208 L121.1523 127.2807 "/>
<path d="M121.1523 127.2807 L120.8203 127.9447 "/>
<path d="M120.8203 127.9447 L120.4883 128.2767 "/>
<path d="M120.4883 128.2767 L119.8244 128.6087 "/>
<path d="M119.8244 128.6087 L118.4964 128.6087 "/>
<path d="M118.4964 128.6087 L117.8325 128.2767 "/>
<path d="M117.8325 128.2767 L117.5005 127.9447 "/>
<path d="M117.5005 127.9447 L117.1685 127.2807 "/>
<path d="M114.8446 124.2929 L110.5289 124.2929 "/>
<path d="M110.5289 124.2929 L112.8527 126.9488 "/>
<path d="M112.8527 126.9488 L111.8568 126.9488 "/>
<path d="M111.8568 126.9488 L111.1928 127.2807 "/>
<path d="M111.1928 127.2807 L110.8608 127.6127 "/>
<path d="M110.8608 127.6127 L110.5289 128.2767 "/>
<path d="M110.5289 128.2767 L110.5289 129.9366 "/>
<path d="M110.5289 129.9366 L110.8608 130.6006 "/>
<path d="M110.8608 130.6006 L111.1928 130.9326 "/>
<path d="M111.1928 130.9326 L111.8568 131.2645 "/>
<path d="M111.8568 131.2645 L113.8487 131.2645 "/>
<path d="M113.8487 131.2645 L114.5126 130.9326 "/>
<path d="M114.5126 130.9326 L114.8446 130.6006 "/>
<path d="M104.2212 124.2929 L107.5410 124.2929 "/>
<path d="M107.5410 124.2929 L107.8730 127.6127 "/>
<path d="M107.8730 127.6127 L107.5410 127.2807 "/>
<path d="M107.5410 127.2807 L106.8770 126.9488 "/>
<path d="M106.8770 126.9488 L105.2171 126.9488 "/>
<path d="M105.2171 126.9488 L104.5532 127.2807 "/>
<path d="M104.5532 127.2807 L104.2212 127.6127 "/>
<path d="M104.2212 127.6127 L103.8892 128.2767 "/>
<path d="M103.8892 128.2767 L103.8892 129.9366 "/>
<path d="M103.8892 129.9366 L104.2212 130.6006 "/>
<path d="M104.2212 130.6006 L104.5532 130.9326 "/>
<path d="M104.5532 130.9326 L105.2171 131.2645 "/>
<path d="M105.2171 131.2645 L106.8770 131.2645 "/>
<path d="M106.8770 131.2645 L107.5410 130.9326 "/>
<path d="M107.5410 130.9326 L107.8730 130.6006 "/>
</g></g>
<g style="fill:#000084; fill-opacity:0.0;  stroke:#000084; stroke-width:0.6972; stroke-opacity:1;  stroke-linecap:round; stroke-linejoin:round;">
<path d="M42.6610 63.8709 L16.1688 63.8709 "/>
<path d="M16.1688 63.8709 L16.1688 146.1363 "/>
<path d="M42.6610 146.1363 L42.6610 63.8709 "/>
<path d="M16.1688 146.1363 L42.6610 146.1363 "/>
<g>
</g>
<g>
</g>
<g>
</g>
<g>
</g>
<g>
</g>
<g>
</g>
<g>
</g>
<g>
</g>
<g>
</g>
<g>
</g>
<g>
</g>
<g>
</g>
<g>
</g>
<g>
</g>
<g>
</g>
<g>
</g>
<g>
</g>
<g>
</g>
<g>
</g>
<g>
</g>
<g>
</g>
<g>
</g>
<g>
</g>
<g>
</g>
<g>
</g>
<g>
</g>
<g>
</g>
<g>
</g>
<g>
</g>
<g>
</g>
<g>
</g>
<g>
</g>
<g>
</g>
<g>
</g>
<g>
</g>
<g>
</g>
</g> 
<svg:g><svg:g><svg:title>SVG Image created as LIGHTNING01-Edge_Cuts.svg date 2023/07/05 15:00:01 </svg:title>
  <svg:desc>Image generated by PCBNEW </svg:desc>
<svg:g style="fill:#C2C200; fill-opacity:1.0000;stroke:#C2C200; stroke-opacity:1.0000; stroke-linecap:round; stroke-linejoin:round;" transform="translate(0 0) scale(1 1)">
</svg:g>
<svg:g style="fill:#C2C200; fill-opacity:0.0;  stroke:#C2C200; stroke-width:0.0000; stroke-opacity:1;  stroke-linecap:round; stroke-linejoin:round;">
</svg:g>
<svg:g style="fill:#C2C200; fill-opacity:0.0;  stroke:#C2C200; stroke-width:1.0457; stroke-opacity:1;  stroke-linecap:round; stroke-linejoin:round;">
<svg:path d="M288.3942 209.4807 L288.3942 0.5265 "/>
<svg:path d="M8.6080 0.5265 L8.6080 209.4807 "/>
<svg:path d="M288.3942 0.5265 L8.6080 0.5265 "/>
<svg:path d="M8.6080 209.4807 L288.3942 209.4807 "/>
<svg:g>
</svg:g>
<svg:g>
</svg:g>
<svg:g>
</svg:g>
<svg:g>
</svg:g>
<svg:g>
</svg:g>
<svg:g>
</svg:g>
<svg:g>
</svg:g>
<svg:g>
</svg:g>
<svg:g>
</svg:g>
<svg:g>
</svg:g>
<svg:g>
</svg:g>
<svg:g>
</svg:g>
<svg:g>
</svg:g>
<svg:g>
</svg:g>
<svg:g>
</svg:g>
<svg:g>
</svg:g>
<svg:g>
</svg:g>
<svg:g>
</svg:g>
<svg:g>
</svg:g>
<svg:g>
</svg:g>
<svg:g>
</svg:g>
<svg:g>
</svg:g>
<svg:g>
</svg:g>
<svg:g>
</svg:g>
<svg:g>
</svg:g>
<svg:g>
</svg:g>
<svg:g>
</svg:g>
<svg:g>
</svg:g>
<svg:g>
</svg:g>
<svg:g>
</svg:g>
<svg:g>
</svg:g>
<svg:g>
</svg:g>
<svg:g>
</svg:g>
<svg:g>
</svg:g>
<svg:g>
</svg:g>
<svg:g>
</svg:g>
</svg:g> 
</svg:g></svg:g></svg>
