<?xml version='1.0' encoding='ASCII' standalone='yes'?>
<svg xmlns:svg="http://www.w3.org/2000/svg" xmlns="http://www.w3.org/2000/svg" xmlns:xlink="http://www.w3.org/1999/xlink" version="1.1" width="29.700220cm" height="21.000720cm" viewBox="0 0 2970022 2100072">
<title>SVG Picture created as LIGHTNING01-B_Fab.svg date 2023/07/04 23:34:57 </title>
  <desc>Picture generated by PCBNEW </desc>
<g style="fill:#000084; fill-opacity:1.000000;stroke:#000084; stroke-opacity:1.000000; stroke-linecap:round; stroke-linejoin:round;" transform="translate(0 0) scale(1 1)">
</g>
<g style="fill:#000084; fill-opacity:0.0;  stroke:#000084; stroke-width:0.000000; stroke-opacity:1;  stroke-linecap:round; stroke-linejoin:round;">
</g>
<g style="fill:#000084; fill-opacity:0.01;  stroke:#000084; stroke-width:10457.472943; stroke-opacity:1;  stroke-linecap:round; stroke-linejoin:round;">
<g transform="rotate(-90.000000 506086.963017 1050035.973707)">
<text x="506086.963017" y="1084894.216851" transform="scale(-1 1) translate(-1012173.926034 0)" textLength="680565.646371" font-size="92955.291813" lengthAdjust="spacingAndGlyphs" text-anchor="middle" opacity="0.01" style="font-family:monospace">MA55532-AE</text>
</g>
<g class="stroked-text"><desc>MA55532-AE</desc>
<path d="M537625 726352 L467908 726352 L517706 749591 L467908 772829 L537625 772829 "/>
<path d="M517706 802708 L517706 835906 "/>
<path d="M537625 796068 L467908 819307 L537625 842546 "/>
<path d="M467908 898983 L467908 865785 L501107 862465 L497787 865785 L494467 872424 L494467 889024 L497787 895663 L501107 898983 L507746 902303 L524345 902303 L530985 898983 L534305 895663 L537625 889024 L537625 872424 L534305 865785 L530985 862465 "/>
<path d="M467908 965380 L467908 932181 L501107 928862 L497787 932181 L494467 938821 L494467 955420 L497787 962060 L501107 965380 L507746 968700 L524345 968700 L530985 965380 L534305 962060 L537625 955420 L537625 938821 L534305 932181 L530985 928862 "/>
<path d="M467908 1031776 L467908 998578 L501107 995258 L497787 998578 L494467 1005218 L494467 1021817 L497787 1028457 L501107 1031776 L507746 1035096 L524345 1035096 L530985 1031776 L534305 1028457 L537625 1021817 L537625 1005218 L534305 998578 L530985 995258 "/>
<path d="M467908 1058335 L467908 1101493 L494467 1078254 L494467 1088214 L497787 1094853 L501107 1098173 L507746 1101493 L524345 1101493 L530985 1098173 L534305 1094853 L537625 1088214 L537625 1068295 L534305 1061655 L530985 1058335 "/>
<path d="M474548 1128051 L471228 1131371 L467908 1138011 L467908 1154610 L471228 1161250 L474548 1164570 L481188 1167890 L487827 1167890 L497787 1164570 L537625 1124732 L537625 1167890 "/>
<path d="M511066 1197768 L511066 1250885 "/>
<path d="M517706 1280764 L517706 1313962 "/>
<path d="M537625 1274124 L467908 1297363 L537625 1320602 "/>
<path d="M501107 1343841 L501107 1367079 "/>
<path d="M537625 1377039 L537625 1343841 L467908 1343841 L467908 1377039 "/>
</g><g transform="rotate(-90.000000 294148.844698 1050035.973707)">
<text x="294148.844698" y="1084894.216851" transform="scale(-1 1) translate(-588297.689396 0)" textLength="109239.110949" font-size="92955.291813" lengthAdjust="spacingAndGlyphs" text-anchor="middle" opacity="0.01" style="font-family:monospace">L1</text>
</g>
<g class="stroked-text"><desc>L1</desc>
<path d="M325687 1038416 L325687 1005218 L255970 1005218 "/>
<path d="M325687 1098173 L325687 1058335 "/>
<path d="M325687 1078254 L255970 1078254 L265930 1071614 L272569 1064975 L275889 1058335 "/>
</g><text x="1221482.687073" y="1315795.219441" transform="scale(-1 1) translate(-2442965.374145 0)" textLength="378145.568023" font-size="92955.291813" lengthAdjust="spacingAndGlyphs" text-anchor="middle" opacity="0.01" style="font-family:monospace">AS3935</text>
<g class="stroked-text"><desc>AS3935</desc>
<path d="M1404073 1292556 L1370875 1292556 "/>
<path d="M1410713 1312475 L1387474 1242758 L1364235 1312475 "/>
<path d="M1344316 1309155 L1334356 1312475 L1317757 1312475 L1311118 1309155 L1307798 1305835 L1304478 1299196 L1304478 1292556 L1307798 1285916 L1311118 1282596 L1317757 1279277 L1331037 1275957 L1337676 1272637 L1340996 1269317 L1344316 1262677 L1344316 1256038 L1340996 1249398 L1337676 1246078 L1331037 1242758 L1314437 1242758 L1304478 1246078 "/>
<path d="M1281239 1242758 L1238081 1242758 L1261320 1269317 L1251361 1269317 L1244721 1272637 L1241401 1275957 L1238081 1282596 L1238081 1299196 L1241401 1305835 L1244721 1309155 L1251361 1312475 L1271280 1312475 L1277919 1309155 L1281239 1305835 "/>
<path d="M1204883 1312475 L1191604 1312475 L1184964 1309155 L1181644 1305835 L1175005 1295876 L1171685 1282596 L1171685 1256038 L1175005 1249398 L1178324 1246078 L1184964 1242758 L1198243 1242758 L1204883 1246078 L1208203 1249398 L1211523 1256038 L1211523 1272637 L1208203 1279277 L1204883 1282596 L1198243 1285916 L1184964 1285916 L1178324 1282596 L1175005 1279277 L1171685 1272637 "/>
<path d="M1148446 1242758 L1105288 1242758 L1128527 1269317 L1118567 1269317 L1111928 1272637 L1108608 1275957 L1105288 1282596 L1105288 1299196 L1108608 1305835 L1111928 1309155 L1118567 1312475 L1138486 1312475 L1145126 1309155 L1148446 1305835 "/>
<path d="M1042211 1242758 L1075409 1242758 L1078729 1275957 L1075409 1272637 L1068770 1269317 L1052171 1269317 L1045531 1272637 L1042211 1275957 L1038891 1282596 L1038891 1299196 L1042211 1305835 L1045531 1309155 L1052171 1312475 L1068770 1312475 L1075409 1309155 L1078729 1305835 "/>
</g></g>
<g style="fill:#000084; fill-opacity:0.0;  stroke:#000084; stroke-width:6971.648629; stroke-opacity:1;  stroke-linecap:round; stroke-linejoin:round;">
<path d="M426610 638708 L161687 638708 "/>
<path d="M161687 638708 L161687 1461363 "/>
<path d="M426610 1461363 L426610 638708 "/>
<path d="M161687 1461363 L426610 1461363 "/>
<g>
</g>
<g>
</g>
<g>
</g>
<g>
</g>
<g>
</g>
<g>
</g>
<g>
</g>
<g>
</g>
<g>
</g>
<g>
</g>
<g>
</g>
<g>
</g>
<g>
</g>
<g>
</g>
<g>
</g>
<g>
</g>
<g>
</g>
<g>
</g>
<g>
</g>
<g>
</g>
<g>
</g>
<g>
</g>
<g>
</g>
<g>
</g>
<g>
</g>
<g>
</g>
<g>
</g>
<g>
</g>
<g>
</g>
<g>
</g>
<g>
</g>
<g>
</g>
<g>
</g>
<g>
</g>
<g>
</g>
<g>
</g>
</g> 
<svg:g><svg:g><svg:title>SVG Picture created as LIGHTNING01-Edge_Cuts.svg date 2023/07/04 23:34:57 </svg:title>
  <svg:desc>Picture generated by PCBNEW </svg:desc>
<svg:g style="fill:#C2C200; fill-opacity:1.000000;stroke:#C2C200; stroke-opacity:1.000000; stroke-linecap:round; stroke-linejoin:round;" transform="translate(0 0) scale(1 1)">
</svg:g>
<svg:g style="fill:#C2C200; fill-opacity:0.0;  stroke:#C2C200; stroke-width:0.000000; stroke-opacity:1;  stroke-linecap:round; stroke-linejoin:round;">
</svg:g>
<svg:g style="fill:#C2C200; fill-opacity:0.0;  stroke:#C2C200; stroke-width:10457.472943; stroke-opacity:1;  stroke-linecap:round; stroke-linejoin:round;">
<svg:path d="M2883942 2094807 L2883942 5264 "/>
<svg:path d="M86079 5264 L86079 2094807 "/>
<svg:path d="M2883942 5264 L86079 5264 "/>
<svg:path d="M86079 2094807 L2883942 2094807 "/>
<svg:g>
</svg:g>
<svg:g>
</svg:g>
<svg:g>
</svg:g>
<svg:g>
</svg:g>
<svg:g>
</svg:g>
<svg:g>
</svg:g>
<svg:g>
</svg:g>
<svg:g>
</svg:g>
<svg:g>
</svg:g>
<svg:g>
</svg:g>
<svg:g>
</svg:g>
<svg:g>
</svg:g>
<svg:g>
</svg:g>
<svg:g>
</svg:g>
<svg:g>
</svg:g>
<svg:g>
</svg:g>
<svg:g>
</svg:g>
<svg:g>
</svg:g>
<svg:g>
</svg:g>
<svg:g>
</svg:g>
<svg:g>
</svg:g>
<svg:g>
</svg:g>
<svg:g>
</svg:g>
<svg:g>
</svg:g>
<svg:g>
</svg:g>
<svg:g>
</svg:g>
<svg:g>
</svg:g>
<svg:g>
</svg:g>
<svg:g>
</svg:g>
<svg:g>
</svg:g>
<svg:g>
</svg:g>
<svg:g>
</svg:g>
<svg:g>
</svg:g>
<svg:g>
</svg:g>
<svg:g>
</svg:g>
<svg:g>
</svg:g>
</svg:g> 
</svg:g></svg:g></svg>
