%TF.GenerationSoftware,KiCad,Pcbnew,6.0.11+dfsg-1~bpo11+1*%
%TF.CreationDate,2023-05-28T09:01:05+00:00*%
%TF.ProjectId,LIGHTNING01,4c494748-544e-4494-9e47-30312e6b6963,01A*%
%TF.SameCoordinates,Original*%
%TF.FileFunction,Legend,Bot*%
%TF.FilePolarity,Positive*%
%FSLAX46Y46*%
G04 Gerber Fmt 4.6, Leading zero omitted, Abs format (unit mm)*
G04 Created by KiCad (PCBNEW 6.0.11+dfsg-1~bpo11+1) date 2023-05-28 09:01:05*
%MOMM*%
%LPD*%
G01*
G04 APERTURE LIST*
%ADD10C,0.200000*%
%ADD11C,0.109220*%
%ADD12C,0.150000*%
%ADD13C,0.304800*%
%ADD14C,0.099060*%
%ADD15C,0.120000*%
G04 APERTURE END LIST*
D10*
X40386000Y254000D02*
X254000Y254000D01*
X254000Y254000D02*
X254000Y30226000D01*
X254000Y30226000D02*
X40386000Y30226000D01*
X40386000Y30226000D02*
X40386000Y254000D01*
D11*
%TO.C,R2*%
X11259396Y15966138D02*
X11426190Y16204414D01*
X11545328Y15966138D02*
X11545328Y16466518D01*
X11354707Y16466518D01*
X11307051Y16442690D01*
X11283224Y16418863D01*
X11259396Y16371208D01*
X11259396Y16299725D01*
X11283224Y16252070D01*
X11307051Y16228242D01*
X11354707Y16204414D01*
X11545328Y16204414D01*
X11068775Y16418863D02*
X11044948Y16442690D01*
X10997292Y16466518D01*
X10878154Y16466518D01*
X10830499Y16442690D01*
X10806671Y16418863D01*
X10782844Y16371208D01*
X10782844Y16323552D01*
X10806671Y16252070D01*
X11092603Y15966138D01*
X10782844Y15966138D01*
X11727845Y15204138D02*
X12013776Y15204138D01*
X11870810Y15204138D02*
X11870810Y15704518D01*
X11918466Y15633035D01*
X11966121Y15585380D01*
X12013776Y15561552D01*
X11418086Y15704518D02*
X11370430Y15704518D01*
X11322775Y15680690D01*
X11298948Y15656863D01*
X11275120Y15609208D01*
X11251292Y15513897D01*
X11251292Y15394759D01*
X11275120Y15299449D01*
X11298948Y15251793D01*
X11322775Y15227966D01*
X11370430Y15204138D01*
X11418086Y15204138D01*
X11465741Y15227966D01*
X11489569Y15251793D01*
X11513396Y15299449D01*
X11537224Y15394759D01*
X11537224Y15513897D01*
X11513396Y15609208D01*
X11489569Y15656863D01*
X11465741Y15680690D01*
X11418086Y15704518D01*
X11036844Y15204138D02*
X11036844Y15704518D01*
X10989189Y15394759D02*
X10846223Y15204138D01*
X10846223Y15537725D02*
X11036844Y15347104D01*
%TO.C,C3*%
X13132707Y11703897D02*
X13156534Y11727725D01*
X13180362Y11799208D01*
X13180362Y11846863D01*
X13156534Y11918346D01*
X13108879Y11966001D01*
X13061224Y11989829D01*
X12965913Y12013656D01*
X12894430Y12013656D01*
X12799120Y11989829D01*
X12751465Y11966001D01*
X12703810Y11918346D01*
X12679982Y11846863D01*
X12679982Y11799208D01*
X12703810Y11727725D01*
X12727637Y11703897D01*
X12679982Y11537104D02*
X12679982Y11227345D01*
X12870603Y11394138D01*
X12870603Y11322655D01*
X12894430Y11275000D01*
X12918258Y11251172D01*
X12965913Y11227345D01*
X13085051Y11227345D01*
X13132707Y11251172D01*
X13156534Y11275000D01*
X13180362Y11322655D01*
X13180362Y11465621D01*
X13156534Y11513276D01*
X13132707Y11537104D01*
X13942362Y12283622D02*
X13942362Y12569553D01*
X13942362Y12426588D02*
X13441982Y12426588D01*
X13513465Y12474243D01*
X13561120Y12521898D01*
X13584948Y12569553D01*
X13441982Y11973863D02*
X13441982Y11926208D01*
X13465810Y11878552D01*
X13489637Y11854725D01*
X13537292Y11830897D01*
X13632603Y11807070D01*
X13751741Y11807070D01*
X13847051Y11830897D01*
X13894707Y11854725D01*
X13918534Y11878552D01*
X13942362Y11926208D01*
X13942362Y11973863D01*
X13918534Y12021518D01*
X13894707Y12045346D01*
X13847051Y12069173D01*
X13751741Y12093001D01*
X13632603Y12093001D01*
X13537292Y12069173D01*
X13489637Y12045346D01*
X13465810Y12021518D01*
X13441982Y11973863D01*
X13608775Y11378172D02*
X13942362Y11378172D01*
X13608775Y11592621D02*
X13870879Y11592621D01*
X13918534Y11568793D01*
X13942362Y11521138D01*
X13942362Y11449655D01*
X13918534Y11402000D01*
X13894707Y11378172D01*
X13680258Y10973103D02*
X13680258Y11139896D01*
X13942362Y11139896D02*
X13441982Y11139896D01*
X13441982Y10901620D01*
%TO.C,C6*%
X22562396Y8520793D02*
X22586224Y8496966D01*
X22657707Y8473138D01*
X22705362Y8473138D01*
X22776845Y8496966D01*
X22824500Y8544621D01*
X22848328Y8592276D01*
X22872155Y8687587D01*
X22872155Y8759070D01*
X22848328Y8854380D01*
X22824500Y8902035D01*
X22776845Y8949690D01*
X22705362Y8973518D01*
X22657707Y8973518D01*
X22586224Y8949690D01*
X22562396Y8925863D01*
X22133499Y8973518D02*
X22228810Y8973518D01*
X22276465Y8949690D01*
X22300292Y8925863D01*
X22347948Y8854380D01*
X22371775Y8759070D01*
X22371775Y8568449D01*
X22347948Y8520793D01*
X22324120Y8496966D01*
X22276465Y8473138D01*
X22181154Y8473138D01*
X22133499Y8496966D01*
X22109671Y8520793D01*
X22085844Y8568449D01*
X22085844Y8687587D01*
X22109671Y8735242D01*
X22133499Y8759070D01*
X22181154Y8782897D01*
X22276465Y8782897D01*
X22324120Y8759070D01*
X22347948Y8735242D01*
X22371775Y8687587D01*
X23126397Y7774638D02*
X23412329Y7774638D01*
X23269363Y7774638D02*
X23269363Y8275018D01*
X23317018Y8203535D01*
X23364673Y8155880D01*
X23412329Y8132052D01*
X22816638Y8275018D02*
X22768983Y8275018D01*
X22721328Y8251190D01*
X22697500Y8227363D01*
X22673672Y8179708D01*
X22649845Y8084397D01*
X22649845Y7965259D01*
X22673672Y7869949D01*
X22697500Y7822293D01*
X22721328Y7798466D01*
X22768983Y7774638D01*
X22816638Y7774638D01*
X22864293Y7798466D01*
X22888121Y7822293D01*
X22911949Y7869949D01*
X22935776Y7965259D01*
X22935776Y8084397D01*
X22911949Y8179708D01*
X22888121Y8227363D01*
X22864293Y8251190D01*
X22816638Y8275018D01*
X22340086Y8275018D02*
X22292430Y8275018D01*
X22244775Y8251190D01*
X22220948Y8227363D01*
X22197120Y8179708D01*
X22173292Y8084397D01*
X22173292Y7965259D01*
X22197120Y7869949D01*
X22220948Y7822293D01*
X22244775Y7798466D01*
X22292430Y7774638D01*
X22340086Y7774638D01*
X22387741Y7798466D01*
X22411569Y7822293D01*
X22435396Y7869949D01*
X22459224Y7965259D01*
X22459224Y8084397D01*
X22435396Y8179708D01*
X22411569Y8227363D01*
X22387741Y8251190D01*
X22340086Y8275018D01*
X21958844Y8108225D02*
X21958844Y7774638D01*
X21958844Y8060570D02*
X21935016Y8084397D01*
X21887361Y8108225D01*
X21815878Y8108225D01*
X21768223Y8084397D01*
X21744395Y8036742D01*
X21744395Y7774638D01*
X21339326Y8036742D02*
X21506119Y8036742D01*
X21506119Y7774638D02*
X21506119Y8275018D01*
X21267843Y8275018D01*
%TO.C,R9*%
X29483896Y22316138D02*
X29650690Y22554414D01*
X29769828Y22316138D02*
X29769828Y22816518D01*
X29579207Y22816518D01*
X29531551Y22792690D01*
X29507724Y22768863D01*
X29483896Y22721208D01*
X29483896Y22649725D01*
X29507724Y22602070D01*
X29531551Y22578242D01*
X29579207Y22554414D01*
X29769828Y22554414D01*
X29245620Y22316138D02*
X29150310Y22316138D01*
X29102654Y22339966D01*
X29078827Y22363793D01*
X29031171Y22435276D01*
X29007344Y22530587D01*
X29007344Y22721208D01*
X29031171Y22768863D01*
X29054999Y22792690D01*
X29102654Y22816518D01*
X29197965Y22816518D01*
X29245620Y22792690D01*
X29269448Y22768863D01*
X29293275Y22721208D01*
X29293275Y22602070D01*
X29269448Y22554414D01*
X29245620Y22530587D01*
X29197965Y22506759D01*
X29102654Y22506759D01*
X29054999Y22530587D01*
X29031171Y22554414D01*
X29007344Y22602070D01*
X29801517Y23515018D02*
X29753862Y23515018D01*
X29706207Y23491190D01*
X29682379Y23467363D01*
X29658551Y23419708D01*
X29634724Y23324397D01*
X29634724Y23205259D01*
X29658551Y23109949D01*
X29682379Y23062293D01*
X29706207Y23038466D01*
X29753862Y23014638D01*
X29801517Y23014638D01*
X29849172Y23038466D01*
X29873000Y23062293D01*
X29896828Y23109949D01*
X29920655Y23205259D01*
X29920655Y23324397D01*
X29896828Y23419708D01*
X29873000Y23467363D01*
X29849172Y23491190D01*
X29801517Y23515018D01*
X29134344Y23014638D02*
X29301137Y23252914D01*
X29420275Y23014638D02*
X29420275Y23515018D01*
X29229654Y23515018D01*
X29181999Y23491190D01*
X29158171Y23467363D01*
X29134344Y23419708D01*
X29134344Y23348225D01*
X29158171Y23300570D01*
X29181999Y23276742D01*
X29229654Y23252914D01*
X29420275Y23252914D01*
%TO.C,R10*%
X23181672Y22570138D02*
X23348466Y22808414D01*
X23467604Y22570138D02*
X23467604Y23070518D01*
X23276983Y23070518D01*
X23229328Y23046690D01*
X23205500Y23022863D01*
X23181672Y22975208D01*
X23181672Y22903725D01*
X23205500Y22856070D01*
X23229328Y22832242D01*
X23276983Y22808414D01*
X23467604Y22808414D01*
X22705120Y22570138D02*
X22991051Y22570138D01*
X22848086Y22570138D02*
X22848086Y23070518D01*
X22895741Y22999035D01*
X22943396Y22951380D01*
X22991051Y22927552D01*
X22395361Y23070518D02*
X22347706Y23070518D01*
X22300050Y23046690D01*
X22276223Y23022863D01*
X22252395Y22975208D01*
X22228568Y22879897D01*
X22228568Y22760759D01*
X22252395Y22665449D01*
X22276223Y22617793D01*
X22300050Y22593966D01*
X22347706Y22570138D01*
X22395361Y22570138D01*
X22443016Y22593966D01*
X22466844Y22617793D01*
X22490671Y22665449D01*
X22514499Y22760759D01*
X22514499Y22879897D01*
X22490671Y22975208D01*
X22466844Y23022863D01*
X22443016Y23046690D01*
X22395361Y23070518D01*
X23284845Y23268638D02*
X23570776Y23268638D01*
X23427810Y23268638D02*
X23427810Y23769018D01*
X23475466Y23697535D01*
X23523121Y23649880D01*
X23570776Y23626052D01*
X22975086Y23769018D02*
X22927430Y23769018D01*
X22879775Y23745190D01*
X22855948Y23721363D01*
X22832120Y23673708D01*
X22808292Y23578397D01*
X22808292Y23459259D01*
X22832120Y23363949D01*
X22855948Y23316293D01*
X22879775Y23292466D01*
X22927430Y23268638D01*
X22975086Y23268638D01*
X23022741Y23292466D01*
X23046569Y23316293D01*
X23070396Y23363949D01*
X23094224Y23459259D01*
X23094224Y23578397D01*
X23070396Y23673708D01*
X23046569Y23721363D01*
X23022741Y23745190D01*
X22975086Y23769018D01*
X22593844Y23268638D02*
X22593844Y23769018D01*
X22546189Y23459259D02*
X22403223Y23268638D01*
X22403223Y23602225D02*
X22593844Y23411604D01*
D12*
%TO.C,L1*%
X790880Y19506667D02*
X790880Y19982858D01*
X-209120Y19982858D01*
X790880Y18649524D02*
X790880Y19220953D01*
X790880Y18935239D02*
X-209120Y18935239D01*
X-66262Y19030477D01*
X28976Y19125715D01*
X76595Y19220953D01*
D11*
%TO.C,C1*%
X9227396Y16077293D02*
X9251224Y16053466D01*
X9322707Y16029638D01*
X9370362Y16029638D01*
X9441845Y16053466D01*
X9489500Y16101121D01*
X9513328Y16148776D01*
X9537155Y16244087D01*
X9537155Y16315570D01*
X9513328Y16410880D01*
X9489500Y16458535D01*
X9441845Y16506190D01*
X9370362Y16530018D01*
X9322707Y16530018D01*
X9251224Y16506190D01*
X9227396Y16482363D01*
X8750844Y16029638D02*
X9036775Y16029638D01*
X8893810Y16029638D02*
X8893810Y16530018D01*
X8941465Y16458535D01*
X8989120Y16410880D01*
X9036775Y16387052D01*
X9688225Y15768018D02*
X9926501Y15768018D01*
X9950329Y15529742D01*
X9926501Y15553570D01*
X9878846Y15577397D01*
X9759708Y15577397D01*
X9712052Y15553570D01*
X9688225Y15529742D01*
X9664397Y15482087D01*
X9664397Y15362949D01*
X9688225Y15315293D01*
X9712052Y15291466D01*
X9759708Y15267638D01*
X9878846Y15267638D01*
X9926501Y15291466D01*
X9950329Y15315293D01*
X9187845Y15267638D02*
X9473776Y15267638D01*
X9330810Y15267638D02*
X9330810Y15768018D01*
X9378466Y15696535D01*
X9426121Y15648880D01*
X9473776Y15625052D01*
X8878086Y15768018D02*
X8830430Y15768018D01*
X8782775Y15744190D01*
X8758948Y15720363D01*
X8735120Y15672708D01*
X8711292Y15577397D01*
X8711292Y15458259D01*
X8735120Y15362949D01*
X8758948Y15315293D01*
X8782775Y15291466D01*
X8830430Y15267638D01*
X8878086Y15267638D01*
X8925741Y15291466D01*
X8949569Y15315293D01*
X8973396Y15362949D01*
X8997224Y15458259D01*
X8997224Y15577397D01*
X8973396Y15672708D01*
X8949569Y15720363D01*
X8925741Y15744190D01*
X8878086Y15768018D01*
X8496844Y15601225D02*
X8496844Y15100845D01*
X8496844Y15577397D02*
X8449189Y15601225D01*
X8353878Y15601225D01*
X8306223Y15577397D01*
X8282395Y15553570D01*
X8258568Y15505914D01*
X8258568Y15362949D01*
X8282395Y15315293D01*
X8306223Y15291466D01*
X8353878Y15267638D01*
X8449189Y15267638D01*
X8496844Y15291466D01*
X7877326Y15529742D02*
X8044119Y15529742D01*
X8044119Y15267638D02*
X8044119Y15768018D01*
X7805843Y15768018D01*
%TO.C,C2*%
X7354207Y15767897D02*
X7378034Y15791725D01*
X7401862Y15863208D01*
X7401862Y15910863D01*
X7378034Y15982346D01*
X7330379Y16030001D01*
X7282724Y16053829D01*
X7187413Y16077656D01*
X7115930Y16077656D01*
X7020620Y16053829D01*
X6972965Y16030001D01*
X6925310Y15982346D01*
X6901482Y15910863D01*
X6901482Y15863208D01*
X6925310Y15791725D01*
X6949137Y15767897D01*
X6949137Y15577276D02*
X6925310Y15553449D01*
X6901482Y15505793D01*
X6901482Y15386655D01*
X6925310Y15339000D01*
X6949137Y15315172D01*
X6996792Y15291345D01*
X7044448Y15291345D01*
X7115930Y15315172D01*
X7401862Y15601104D01*
X7401862Y15291345D01*
X6369775Y16633553D02*
X6703362Y16633553D01*
X6179154Y16752691D02*
X6536569Y16871830D01*
X6536569Y16562070D01*
X6202982Y16419105D02*
X6202982Y16085518D01*
X6703362Y16299967D01*
X6202982Y15799587D02*
X6202982Y15751931D01*
X6226810Y15704276D01*
X6250637Y15680449D01*
X6298292Y15656621D01*
X6393603Y15632793D01*
X6512741Y15632793D01*
X6608051Y15656621D01*
X6655707Y15680449D01*
X6679534Y15704276D01*
X6703362Y15751931D01*
X6703362Y15799587D01*
X6679534Y15847242D01*
X6655707Y15871070D01*
X6608051Y15894897D01*
X6512741Y15918725D01*
X6393603Y15918725D01*
X6298292Y15894897D01*
X6250637Y15871070D01*
X6226810Y15847242D01*
X6202982Y15799587D01*
X6369775Y15418345D02*
X6870155Y15418345D01*
X6393603Y15418345D02*
X6369775Y15370690D01*
X6369775Y15275379D01*
X6393603Y15227724D01*
X6417430Y15203896D01*
X6465086Y15180069D01*
X6608051Y15180069D01*
X6655707Y15203896D01*
X6679534Y15227724D01*
X6703362Y15275379D01*
X6703362Y15370690D01*
X6679534Y15418345D01*
X6441258Y14798827D02*
X6441258Y14965620D01*
X6703362Y14965620D02*
X6202982Y14965620D01*
X6202982Y14727344D01*
%TO.C,C5*%
X22562396Y10743293D02*
X22586224Y10719466D01*
X22657707Y10695638D01*
X22705362Y10695638D01*
X22776845Y10719466D01*
X22824500Y10767121D01*
X22848328Y10814776D01*
X22872155Y10910087D01*
X22872155Y10981570D01*
X22848328Y11076880D01*
X22824500Y11124535D01*
X22776845Y11172190D01*
X22705362Y11196018D01*
X22657707Y11196018D01*
X22586224Y11172190D01*
X22562396Y11148363D01*
X22109671Y11196018D02*
X22347948Y11196018D01*
X22371775Y10957742D01*
X22347948Y10981570D01*
X22300292Y11005397D01*
X22181154Y11005397D01*
X22133499Y10981570D01*
X22109671Y10957742D01*
X22085844Y10910087D01*
X22085844Y10790949D01*
X22109671Y10743293D01*
X22133499Y10719466D01*
X22181154Y10695638D01*
X22300292Y10695638D01*
X22347948Y10719466D01*
X22371775Y10743293D01*
X23841226Y9997138D02*
X24127157Y9997138D01*
X23984191Y9997138D02*
X23984191Y10497518D01*
X24031847Y10426035D01*
X24079502Y10378380D01*
X24127157Y10354552D01*
X23531467Y10497518D02*
X23483811Y10497518D01*
X23436156Y10473690D01*
X23412329Y10449863D01*
X23388501Y10402208D01*
X23364673Y10306897D01*
X23364673Y10187759D01*
X23388501Y10092449D01*
X23412329Y10044793D01*
X23436156Y10020966D01*
X23483811Y9997138D01*
X23531467Y9997138D01*
X23579122Y10020966D01*
X23602950Y10044793D01*
X23626777Y10092449D01*
X23650605Y10187759D01*
X23650605Y10306897D01*
X23626777Y10402208D01*
X23602950Y10449863D01*
X23579122Y10473690D01*
X23531467Y10497518D01*
X22935776Y10330725D02*
X22935776Y9997138D01*
X23150225Y10330725D02*
X23150225Y10068621D01*
X23126397Y10020966D01*
X23078742Y9997138D01*
X23007259Y9997138D01*
X22959604Y10020966D01*
X22935776Y10044793D01*
X22530707Y10259242D02*
X22697500Y10259242D01*
X22697500Y9997138D02*
X22697500Y10497518D01*
X22459224Y10497518D01*
X21911189Y10521346D02*
X22340086Y9878000D01*
X21482291Y9997138D02*
X21768223Y9997138D01*
X21625257Y9997138D02*
X21625257Y10497518D01*
X21672912Y10426035D01*
X21720568Y10378380D01*
X21768223Y10354552D01*
X21172532Y10497518D02*
X21124877Y10497518D01*
X21077222Y10473690D01*
X21053394Y10449863D01*
X21029567Y10402208D01*
X21005739Y10306897D01*
X21005739Y10187759D01*
X21029567Y10092449D01*
X21053394Y10044793D01*
X21077222Y10020966D01*
X21124877Y9997138D01*
X21172532Y9997138D01*
X21220188Y10020966D01*
X21244015Y10044793D01*
X21267843Y10092449D01*
X21291670Y10187759D01*
X21291670Y10306897D01*
X21267843Y10402208D01*
X21244015Y10449863D01*
X21220188Y10473690D01*
X21172532Y10497518D01*
X20862773Y10497518D02*
X20695980Y9997138D01*
X20529187Y10497518D01*
D13*
%TO.C,D1*%
X29369657Y12836072D02*
X29369657Y14360072D01*
X29006800Y14360072D01*
X28789085Y14287500D01*
X28643942Y14142358D01*
X28571371Y13997215D01*
X28498800Y13706929D01*
X28498800Y13489215D01*
X28571371Y13198929D01*
X28643942Y13053786D01*
X28789085Y12908643D01*
X29006800Y12836072D01*
X29369657Y12836072D01*
X27047371Y12836072D02*
X27918228Y12836072D01*
X27482800Y12836072D02*
X27482800Y14360072D01*
X27627942Y14142358D01*
X27773085Y13997215D01*
X27918228Y13924643D01*
D14*
X26026351Y8610298D02*
X26026351Y9110678D01*
X25740420Y8610298D02*
X25954869Y8896230D01*
X25740420Y9110678D02*
X26026351Y8824747D01*
X30914098Y8852324D02*
X30675821Y8852324D01*
X30961753Y8709358D02*
X30794960Y9209738D01*
X30628166Y8709358D01*
D11*
%TO.C,R4*%
X12037362Y5099897D02*
X11799086Y5266690D01*
X12037362Y5385829D02*
X11536982Y5385829D01*
X11536982Y5195208D01*
X11560810Y5147552D01*
X11584637Y5123725D01*
X11632292Y5099897D01*
X11703775Y5099897D01*
X11751430Y5123725D01*
X11775258Y5147552D01*
X11799086Y5195208D01*
X11799086Y5385829D01*
X11703775Y4671000D02*
X12037362Y4671000D01*
X11513154Y4790138D02*
X11870569Y4909276D01*
X11870569Y4599517D01*
X11148241Y5334121D02*
X11148241Y4952880D01*
%TO.C,R5*%
X18942896Y23205138D02*
X19109690Y23443414D01*
X19228828Y23205138D02*
X19228828Y23705518D01*
X19038207Y23705518D01*
X18990551Y23681690D01*
X18966724Y23657863D01*
X18942896Y23610208D01*
X18942896Y23538725D01*
X18966724Y23491070D01*
X18990551Y23467242D01*
X19038207Y23443414D01*
X19228828Y23443414D01*
X18490171Y23705518D02*
X18728448Y23705518D01*
X18752275Y23467242D01*
X18728448Y23491070D01*
X18680792Y23514897D01*
X18561654Y23514897D01*
X18513999Y23491070D01*
X18490171Y23467242D01*
X18466344Y23419587D01*
X18466344Y23300449D01*
X18490171Y23252793D01*
X18513999Y23228966D01*
X18561654Y23205138D01*
X18680792Y23205138D01*
X18728448Y23228966D01*
X18752275Y23252793D01*
X19030345Y22506638D02*
X19316276Y22506638D01*
X19173310Y22506638D02*
X19173310Y23007018D01*
X19220966Y22935535D01*
X19268621Y22887880D01*
X19316276Y22864052D01*
X18720586Y23007018D02*
X18672930Y23007018D01*
X18625275Y22983190D01*
X18601448Y22959363D01*
X18577620Y22911708D01*
X18553792Y22816397D01*
X18553792Y22697259D01*
X18577620Y22601949D01*
X18601448Y22554293D01*
X18625275Y22530466D01*
X18672930Y22506638D01*
X18720586Y22506638D01*
X18768241Y22530466D01*
X18792069Y22554293D01*
X18815896Y22601949D01*
X18839724Y22697259D01*
X18839724Y22816397D01*
X18815896Y22911708D01*
X18792069Y22959363D01*
X18768241Y22983190D01*
X18720586Y23007018D01*
X18339344Y22506638D02*
X18339344Y23007018D01*
X18291689Y22697259D02*
X18148723Y22506638D01*
X18148723Y22840225D02*
X18339344Y22649604D01*
%TO.C,R6*%
X23514896Y16054921D02*
X23681690Y16293197D01*
X23800828Y16054921D02*
X23800828Y16555301D01*
X23610207Y16555301D01*
X23562551Y16531473D01*
X23538724Y16507646D01*
X23514896Y16459991D01*
X23514896Y16388508D01*
X23538724Y16340853D01*
X23562551Y16317025D01*
X23610207Y16293197D01*
X23800828Y16293197D01*
X23085999Y16555301D02*
X23181310Y16555301D01*
X23228965Y16531473D01*
X23252792Y16507646D01*
X23300448Y16436163D01*
X23324275Y16340853D01*
X23324275Y16150232D01*
X23300448Y16102576D01*
X23276620Y16078749D01*
X23228965Y16054921D01*
X23133654Y16054921D01*
X23085999Y16078749D01*
X23062171Y16102576D01*
X23038344Y16150232D01*
X23038344Y16269370D01*
X23062171Y16317025D01*
X23085999Y16340853D01*
X23133654Y16364680D01*
X23228965Y16364680D01*
X23276620Y16340853D01*
X23300448Y16317025D01*
X23324275Y16269370D01*
X23749120Y16944042D02*
X23367879Y16944042D01*
%TO.C,R7*%
X23514896Y14061138D02*
X23681690Y14299414D01*
X23800828Y14061138D02*
X23800828Y14561518D01*
X23610207Y14561518D01*
X23562551Y14537690D01*
X23538724Y14513863D01*
X23514896Y14466208D01*
X23514896Y14394725D01*
X23538724Y14347070D01*
X23562551Y14323242D01*
X23610207Y14299414D01*
X23800828Y14299414D01*
X23348103Y14561518D02*
X23014516Y14561518D01*
X23228965Y14061138D01*
X23578517Y13863018D02*
X23530862Y13863018D01*
X23483207Y13839190D01*
X23459379Y13815363D01*
X23435551Y13767708D01*
X23411724Y13672397D01*
X23411724Y13553259D01*
X23435551Y13457949D01*
X23459379Y13410293D01*
X23483207Y13386466D01*
X23530862Y13362638D01*
X23578517Y13362638D01*
X23626172Y13386466D01*
X23650000Y13410293D01*
X23673828Y13457949D01*
X23697655Y13553259D01*
X23697655Y13672397D01*
X23673828Y13767708D01*
X23650000Y13815363D01*
X23626172Y13839190D01*
X23578517Y13863018D01*
X22911344Y13362638D02*
X23078137Y13600914D01*
X23197275Y13362638D02*
X23197275Y13863018D01*
X23006654Y13863018D01*
X22958999Y13839190D01*
X22935171Y13815363D01*
X22911344Y13767708D01*
X22911344Y13696225D01*
X22935171Y13648570D01*
X22958999Y13624742D01*
X23006654Y13600914D01*
X23197275Y13600914D01*
%TO.C,R3*%
X13942362Y5163397D02*
X13704086Y5330190D01*
X13942362Y5449329D02*
X13441982Y5449329D01*
X13441982Y5258708D01*
X13465810Y5211052D01*
X13489637Y5187225D01*
X13537292Y5163397D01*
X13608775Y5163397D01*
X13656430Y5187225D01*
X13680258Y5211052D01*
X13704086Y5258708D01*
X13704086Y5449329D01*
X13441982Y4996604D02*
X13441982Y4686845D01*
X13632603Y4853638D01*
X13632603Y4782155D01*
X13656430Y4734500D01*
X13680258Y4710672D01*
X13727913Y4686845D01*
X13847051Y4686845D01*
X13894707Y4710672D01*
X13918534Y4734500D01*
X13942362Y4782155D01*
X13942362Y4925121D01*
X13918534Y4972776D01*
X13894707Y4996604D01*
X13949982Y5227018D02*
X13949982Y5179363D01*
X13973810Y5131708D01*
X13997637Y5107880D01*
X14045292Y5084052D01*
X14140603Y5060225D01*
X14259741Y5060225D01*
X14355051Y5084052D01*
X14402707Y5107880D01*
X14426534Y5131708D01*
X14450362Y5179363D01*
X14450362Y5227018D01*
X14426534Y5274673D01*
X14402707Y5298501D01*
X14355051Y5322329D01*
X14259741Y5346156D01*
X14140603Y5346156D01*
X14045292Y5322329D01*
X13997637Y5298501D01*
X13973810Y5274673D01*
X13949982Y5227018D01*
X14450362Y4559845D02*
X14212086Y4726638D01*
X14450362Y4845776D02*
X13949982Y4845776D01*
X13949982Y4655155D01*
X13973810Y4607500D01*
X13997637Y4583672D01*
X14045292Y4559845D01*
X14116775Y4559845D01*
X14164430Y4583672D01*
X14188258Y4607500D01*
X14212086Y4655155D01*
X14212086Y4845776D01*
%TO.C,R1*%
X17545896Y7711138D02*
X17712690Y7949414D01*
X17831828Y7711138D02*
X17831828Y8211518D01*
X17641207Y8211518D01*
X17593551Y8187690D01*
X17569724Y8163863D01*
X17545896Y8116208D01*
X17545896Y8044725D01*
X17569724Y7997070D01*
X17593551Y7973242D01*
X17641207Y7949414D01*
X17831828Y7949414D01*
X17069344Y7711138D02*
X17355275Y7711138D01*
X17212310Y7711138D02*
X17212310Y8211518D01*
X17259965Y8140035D01*
X17307620Y8092380D01*
X17355275Y8068552D01*
X17887345Y8409638D02*
X18173276Y8409638D01*
X18030310Y8409638D02*
X18030310Y8910018D01*
X18077966Y8838535D01*
X18125621Y8790880D01*
X18173276Y8767052D01*
X17577586Y8910018D02*
X17529930Y8910018D01*
X17482275Y8886190D01*
X17458448Y8862363D01*
X17434620Y8814708D01*
X17410792Y8719397D01*
X17410792Y8600259D01*
X17434620Y8504949D01*
X17458448Y8457293D01*
X17482275Y8433466D01*
X17529930Y8409638D01*
X17577586Y8409638D01*
X17625241Y8433466D01*
X17649069Y8457293D01*
X17672896Y8504949D01*
X17696724Y8600259D01*
X17696724Y8719397D01*
X17672896Y8814708D01*
X17649069Y8862363D01*
X17625241Y8886190D01*
X17577586Y8910018D01*
X17196344Y8409638D02*
X17196344Y8910018D01*
X17148689Y8600259D02*
X17005723Y8409638D01*
X17005723Y8743225D02*
X17196344Y8552604D01*
%TO.C,R8*%
X25991396Y21109638D02*
X26158190Y21347914D01*
X26277328Y21109638D02*
X26277328Y21610018D01*
X26086707Y21610018D01*
X26039051Y21586190D01*
X26015224Y21562363D01*
X25991396Y21514708D01*
X25991396Y21443225D01*
X26015224Y21395570D01*
X26039051Y21371742D01*
X26086707Y21347914D01*
X26277328Y21347914D01*
X25705465Y21395570D02*
X25753120Y21419397D01*
X25776948Y21443225D01*
X25800775Y21490880D01*
X25800775Y21514708D01*
X25776948Y21562363D01*
X25753120Y21586190D01*
X25705465Y21610018D01*
X25610154Y21610018D01*
X25562499Y21586190D01*
X25538671Y21562363D01*
X25514844Y21514708D01*
X25514844Y21490880D01*
X25538671Y21443225D01*
X25562499Y21419397D01*
X25610154Y21395570D01*
X25705465Y21395570D01*
X25753120Y21371742D01*
X25776948Y21347914D01*
X25800775Y21300259D01*
X25800775Y21204949D01*
X25776948Y21157293D01*
X25753120Y21133466D01*
X25705465Y21109638D01*
X25610154Y21109638D01*
X25562499Y21133466D01*
X25538671Y21157293D01*
X25514844Y21204949D01*
X25514844Y21300259D01*
X25538671Y21347914D01*
X25562499Y21371742D01*
X25610154Y21395570D01*
X26182017Y20848018D02*
X26134362Y20848018D01*
X26086707Y20824190D01*
X26062879Y20800363D01*
X26039051Y20752708D01*
X26015224Y20657397D01*
X26015224Y20538259D01*
X26039051Y20442949D01*
X26062879Y20395293D01*
X26086707Y20371466D01*
X26134362Y20347638D01*
X26182017Y20347638D01*
X26229672Y20371466D01*
X26253500Y20395293D01*
X26277328Y20442949D01*
X26301155Y20538259D01*
X26301155Y20657397D01*
X26277328Y20752708D01*
X26253500Y20800363D01*
X26229672Y20824190D01*
X26182017Y20848018D01*
X25514844Y20347638D02*
X25681637Y20585914D01*
X25800775Y20347638D02*
X25800775Y20848018D01*
X25610154Y20848018D01*
X25562499Y20824190D01*
X25538671Y20800363D01*
X25514844Y20752708D01*
X25514844Y20681225D01*
X25538671Y20633570D01*
X25562499Y20609742D01*
X25610154Y20585914D01*
X25800775Y20585914D01*
D12*
%TO.C,U1*%
X19391904Y10725620D02*
X19391904Y9916096D01*
X19344285Y9820858D01*
X19296666Y9773239D01*
X19201428Y9725620D01*
X19010952Y9725620D01*
X18915714Y9773239D01*
X18868095Y9820858D01*
X18820476Y9916096D01*
X18820476Y10725620D01*
X17820476Y9725620D02*
X18391904Y9725620D01*
X18106190Y9725620D02*
X18106190Y10725620D01*
X18201428Y10582762D01*
X18296666Y10487524D01*
X18391904Y10439905D01*
D11*
%TO.C,C4*%
X14370896Y21093793D02*
X14394724Y21069966D01*
X14466207Y21046138D01*
X14513862Y21046138D01*
X14585345Y21069966D01*
X14633000Y21117621D01*
X14656828Y21165276D01*
X14680655Y21260587D01*
X14680655Y21332070D01*
X14656828Y21427380D01*
X14633000Y21475035D01*
X14585345Y21522690D01*
X14513862Y21546518D01*
X14466207Y21546518D01*
X14394724Y21522690D01*
X14370896Y21498863D01*
X13941999Y21379725D02*
X13941999Y21046138D01*
X14061137Y21570346D02*
X14180275Y21212931D01*
X13870516Y21212931D01*
X14712345Y21744638D02*
X14998276Y21744638D01*
X14855310Y21744638D02*
X14855310Y22245018D01*
X14902966Y22173535D01*
X14950621Y22125880D01*
X14998276Y22102052D01*
X14283448Y22078225D02*
X14283448Y21744638D01*
X14497896Y22078225D02*
X14497896Y21816121D01*
X14474069Y21768466D01*
X14426413Y21744638D01*
X14354930Y21744638D01*
X14307275Y21768466D01*
X14283448Y21792293D01*
X13878378Y22006742D02*
X14045171Y22006742D01*
X14045171Y21744638D02*
X14045171Y22245018D01*
X13806895Y22245018D01*
D12*
%TO.C,R2*%
X10414000Y14097000D02*
X11938000Y14097000D01*
X11938000Y17145000D02*
X10414000Y17145000D01*
X11938000Y16129000D02*
X11938000Y17145000D01*
X10414000Y15113000D02*
X10414000Y14097000D01*
X10414000Y17145000D02*
X10414000Y16129000D01*
X11938000Y14097000D02*
X11938000Y15113000D01*
X10541000Y13970000D02*
G75*
G03*
X10541000Y13970000I-127000J0D01*
G01*
%TO.C,C3*%
X13970000Y10096500D02*
X13970000Y11112500D01*
X13970000Y12128500D02*
X13970000Y13144500D01*
X12446000Y11112500D02*
X12446000Y10096500D01*
X12446000Y13144500D02*
X12446000Y12128500D01*
X13970000Y13144500D02*
X12446000Y13144500D01*
X12446000Y10096500D02*
X13970000Y10096500D01*
X12573000Y9969500D02*
G75*
G03*
X12573000Y9969500I-127000J0D01*
G01*
%TO.C,C6*%
X20955000Y9144000D02*
X20955000Y7620000D01*
X24003000Y7620000D02*
X24003000Y9144000D01*
X20955000Y7620000D02*
X21971000Y7620000D01*
X21971000Y9144000D02*
X20955000Y9144000D01*
X22987000Y7620000D02*
X24003000Y7620000D01*
X24003000Y9144000D02*
X22987000Y9144000D01*
X24257000Y7620000D02*
G75*
G03*
X24257000Y7620000I-127000J0D01*
G01*
%TO.C,R9*%
X30924500Y22098000D02*
X30924500Y23622000D01*
X27876500Y22098000D02*
X28892500Y22098000D01*
X29908500Y22098000D02*
X30924500Y22098000D01*
X30924500Y23622000D02*
X29908500Y23622000D01*
X27876500Y23622000D02*
X27876500Y22098000D01*
X28892500Y23622000D02*
X27876500Y23622000D01*
X27876500Y23622000D02*
G75*
G03*
X27876500Y23622000I-127000J0D01*
G01*
%TO.C,R10*%
X23368000Y22352000D02*
X24384000Y22352000D01*
X24384000Y23876000D02*
X23368000Y23876000D01*
X22352000Y23876000D02*
X21336000Y23876000D01*
X21336000Y23876000D02*
X21336000Y22352000D01*
X24384000Y22352000D02*
X24384000Y23876000D01*
X21336000Y22352000D02*
X22352000Y22352000D01*
X21336000Y23876000D02*
G75*
G03*
X21336000Y23876000I-127000J0D01*
G01*
D15*
%TO.C,L1*%
X1338500Y21140000D02*
X5138500Y21140000D01*
X5138500Y21140000D02*
X5138500Y9340000D01*
X1338500Y9340000D02*
X1338500Y21140000D01*
X5138500Y9340000D02*
X1338500Y9340000D01*
D12*
%TO.C,C1*%
X9779000Y14160500D02*
X9779000Y15176500D01*
X9779000Y16192500D02*
X9779000Y17208500D01*
X8255000Y17208500D02*
X8255000Y16192500D01*
X8255000Y15176500D02*
X8255000Y14160500D01*
X8255000Y14160500D02*
X9779000Y14160500D01*
X9779000Y17208500D02*
X8255000Y17208500D01*
X8382000Y14033500D02*
G75*
G03*
X8382000Y14033500I-127000J0D01*
G01*
%TO.C,C2*%
X6096000Y17208500D02*
X6096000Y16192500D01*
X6096000Y15176500D02*
X6096000Y14160500D01*
X6096000Y14160500D02*
X7620000Y14160500D01*
X7620000Y17208500D02*
X6096000Y17208500D01*
X7620000Y16192500D02*
X7620000Y17208500D01*
X7620000Y14160500D02*
X7620000Y15176500D01*
X6223000Y14033500D02*
G75*
G03*
X6223000Y14033500I-127000J0D01*
G01*
%TO.C,C5*%
X24003000Y11366500D02*
X22987000Y11366500D01*
X20955000Y9842500D02*
X21971000Y9842500D01*
X21971000Y11366500D02*
X20955000Y11366500D01*
X24003000Y9842500D02*
X24003000Y11366500D01*
X20955000Y11366500D02*
X20955000Y9842500D01*
X22987000Y9842500D02*
X24003000Y9842500D01*
X24257000Y9842500D02*
G75*
G03*
X24257000Y9842500I-127000J0D01*
G01*
%TO.C,D1*%
X27094180Y10985500D02*
X28044140Y12235180D01*
X27045920Y9735820D02*
X29293820Y9735820D01*
X28044140Y12235180D02*
X28044140Y9735820D01*
X27045920Y12235180D02*
X27045920Y9735820D01*
X29344620Y9735820D02*
X29443680Y9735820D01*
X27045920Y12235180D02*
X29395420Y12235180D01*
X28044140Y9735820D02*
X27045920Y10985500D01*
X29344620Y12235180D02*
X29443680Y12235180D01*
%TO.C,R4*%
X12255500Y5524500D02*
X12255500Y6540500D01*
X12255500Y3492500D02*
X12255500Y4508500D01*
X10731500Y3492500D02*
X12255500Y3492500D01*
X10731500Y6540500D02*
X10731500Y5524500D01*
X10731500Y4508500D02*
X10731500Y3492500D01*
X12255500Y6540500D02*
X10731500Y6540500D01*
X10858500Y3365500D02*
G75*
G03*
X10858500Y3365500I-127000J0D01*
G01*
%TO.C,R5*%
X18351500Y23876000D02*
X17335500Y23876000D01*
X20383500Y22352000D02*
X20383500Y23876000D01*
X19367500Y22352000D02*
X20383500Y22352000D01*
X17335500Y22352000D02*
X18351500Y22352000D01*
X17335500Y23876000D02*
X17335500Y22352000D01*
X20383500Y23876000D02*
X19367500Y23876000D01*
X20637500Y22352000D02*
G75*
G03*
X20637500Y22352000I-127000J0D01*
G01*
%TO.C,R6*%
X21907500Y15836783D02*
X22923500Y15836783D01*
X24955500Y15836783D02*
X24955500Y17360783D01*
X24955500Y17360783D02*
X23939500Y17360783D01*
X23939500Y15836783D02*
X24955500Y15836783D01*
X21907500Y17360783D02*
X21907500Y15836783D01*
X22923500Y17360783D02*
X21907500Y17360783D01*
X21907500Y17360783D02*
G75*
G03*
X21907500Y17360783I-127000J0D01*
G01*
%TO.C,R7*%
X23939500Y13208000D02*
X24955500Y13208000D01*
X21907500Y13208000D02*
X22923500Y13208000D01*
X22923500Y14732000D02*
X21907500Y14732000D01*
X21907500Y14732000D02*
X21907500Y13208000D01*
X24955500Y13208000D02*
X24955500Y14732000D01*
X24955500Y14732000D02*
X23939500Y14732000D01*
X25209500Y13208000D02*
G75*
G03*
X25209500Y13208000I-127000J0D01*
G01*
%TO.C,R3*%
X13081000Y4572000D02*
X13081000Y3556000D01*
X13081000Y3556000D02*
X14605000Y3556000D01*
X14605000Y5588000D02*
X14605000Y6604000D01*
X14605000Y3556000D02*
X14605000Y4572000D01*
X13081000Y6604000D02*
X13081000Y5588000D01*
X14605000Y6604000D02*
X13081000Y6604000D01*
X14732000Y6731000D02*
G75*
G03*
X14732000Y6731000I-127000J0D01*
G01*
%TO.C,R1*%
X16954500Y9017000D02*
X15938500Y9017000D01*
X15938500Y7493000D02*
X16954500Y7493000D01*
X18986500Y7493000D02*
X18986500Y9017000D01*
X18986500Y9017000D02*
X17970500Y9017000D01*
X15938500Y9017000D02*
X15938500Y7493000D01*
X17970500Y7493000D02*
X18986500Y7493000D01*
X15938500Y9017000D02*
G75*
G03*
X15938500Y9017000I-127000J0D01*
G01*
%TO.C,R8*%
X26670000Y22415500D02*
X25146000Y22415500D01*
X26670000Y19367500D02*
X26670000Y20383500D01*
X26670000Y21399500D02*
X26670000Y22415500D01*
X25146000Y22415500D02*
X25146000Y21399500D01*
X25146000Y20383500D02*
X25146000Y19367500D01*
X25146000Y19367500D02*
X26670000Y19367500D01*
X26797000Y22542500D02*
G75*
G03*
X26797000Y22542500I-127000J0D01*
G01*
%TO.C,U1*%
X18510000Y13748000D02*
X18510000Y17748000D01*
X14510000Y17748000D02*
X14510000Y13748000D01*
X18510000Y17748000D02*
X14510000Y17748000D01*
X14510000Y13748000D02*
X18510000Y13748000D01*
X15223137Y14348000D02*
G75*
G03*
X15223137Y14348000I-113137J0D01*
G01*
%TO.C,C4*%
X15811500Y22352000D02*
X14795500Y22352000D01*
X13779500Y22352000D02*
X12763500Y22352000D01*
X12763500Y22352000D02*
X12763500Y20828000D01*
X12763500Y20828000D02*
X13779500Y20828000D01*
X14795500Y20828000D02*
X15811500Y20828000D01*
X15811500Y20828000D02*
X15811500Y22352000D01*
X12763500Y22352000D02*
G75*
G03*
X12763500Y22352000I-127000J0D01*
G01*
%TD*%
M02*
