M48
; DRILL file {KiCad 6.0.11+dfsg-1~bpo11+1} date Sun May 28 09:01:05 2023
; FORMAT={3:3/ absolute / metric / suppress leading zeros}
; #@! TF.CreationDate,2023-05-28T09:01:05+00:00
; #@! TF.GenerationSoftware,Kicad,Pcbnew,6.0.11+dfsg-1~bpo11+1
; #@! TF.FileFunction,Plated,1,2,PTH
FMAT,2
METRIC,TZ
; #@! TA.AperFunction,Plated,PTH,ViaDrill
T1C0.400
; #@! TA.AperFunction,Plated,PTH,ViaDrill
T2C0.600
; #@! TA.AperFunction,Plated,PTH,ComponentDrill
T3C0.889
; #@! TA.AperFunction,Plated,PTH,ComponentDrill
T4C3.000
%
G90
G05
T1
X17018Y19812
X19050Y12700
X20066Y12192
X20494Y14986
X21336Y12192
X21590Y21336
X27432Y17780
T2
X10414Y4064
X10414Y1524
X10668Y28448
X10668Y26670
X10668Y24638
X11176Y21844
X11430Y19812
X11938Y23114
X12700Y28448
X12700Y17780
X12827Y14097
X14224Y18288
X15748Y16510
X15748Y15050
X16510Y15748
X16963Y21567
X17272Y16510
X18542Y2794
X18542Y1524
X24384Y20574
X25908Y23622
X28194Y13716
X28194Y8636
X30734Y7366
X33274Y11430
X34544Y20320
X36322Y20320
T3
X14986Y28391
X14986Y25851
X16510Y5715
X16510Y3175
X17526Y28391
X17526Y25851
X20066Y28391
X20066Y25851
X22606Y28391
X22606Y25851
X22860Y5715
X22860Y3175
X25146Y28391
X25146Y25851
X25400Y5715
X25400Y3175
X27940Y5715
X27940Y3175
X29718Y28448
X29718Y25908
X34036Y17780
X34036Y15240
X36576Y17780
X36576Y15240
T4
X5080Y25400
X5080Y5080
X35560Y25400
X35560Y5080
T0
M30
