%TF.GenerationSoftware,KiCad,Pcbnew,6.0.11+dfsg-1~bpo11+1*%
%TF.CreationDate,2023-05-28T09:01:05+00:00*%
%TF.ProjectId,LIGHTNING01,4c494748-544e-4494-9e47-30312e6b6963,01A*%
%TF.SameCoordinates,Original*%
%TF.FileFunction,Copper,L2,Bot*%
%TF.FilePolarity,Positive*%
%FSLAX46Y46*%
G04 Gerber Fmt 4.6, Leading zero omitted, Abs format (unit mm)*
G04 Created by KiCad (PCBNEW 6.0.11+dfsg-1~bpo11+1) date 2023-05-28 09:01:05*
%MOMM*%
%LPD*%
G01*
G04 APERTURE LIST*
%ADD10C,0.250000*%
%TA.AperFunction,NonConductor*%
%ADD11C,0.250000*%
%TD*%
%TA.AperFunction,ComponentPad*%
%ADD12C,6.000000*%
%TD*%
%TA.AperFunction,ComponentPad*%
%ADD13R,1.524000X1.524000*%
%TD*%
%TA.AperFunction,SMDPad,CuDef*%
%ADD14R,1.397000X0.889000*%
%TD*%
%TA.AperFunction,SMDPad,CuDef*%
%ADD15R,0.889000X1.397000*%
%TD*%
%TA.AperFunction,SMDPad,CuDef*%
%ADD16R,3.200000X1.300000*%
%TD*%
%TA.AperFunction,SMDPad,CuDef*%
%ADD17R,1.501140X2.700020*%
%TD*%
%TA.AperFunction,SMDPad,CuDef*%
%ADD18R,1.400000X0.400000*%
%TD*%
%TA.AperFunction,SMDPad,CuDef*%
%ADD19R,0.400000X1.400000*%
%TD*%
%TA.AperFunction,SMDPad,CuDef*%
%ADD20R,2.700000X2.700000*%
%TD*%
%TA.AperFunction,ViaPad*%
%ADD21C,1.000000*%
%TD*%
%TA.AperFunction,ViaPad*%
%ADD22C,0.800000*%
%TD*%
%TA.AperFunction,Conductor*%
%ADD23C,0.350000*%
%TD*%
%TA.AperFunction,Conductor*%
%ADD24C,0.700000*%
%TD*%
%TA.AperFunction,Conductor*%
%ADD25C,0.250000*%
%TD*%
%TA.AperFunction,Conductor*%
%ADD26C,0.400000*%
%TD*%
%TA.AperFunction,Conductor*%
%ADD27C,0.800000*%
%TD*%
%TA.AperFunction,Conductor*%
%ADD28C,0.300000*%
%TD*%
%TA.AperFunction,Conductor*%
%ADD29C,0.600000*%
%TD*%
%TA.AperFunction,Conductor*%
%ADD30C,0.450000*%
%TD*%
G04 APERTURE END LIST*
D10*
D11*
X39450095Y28513810D02*
X39450095Y29109048D01*
X38150095Y29109048D01*
X39450095Y28097143D02*
X38150095Y28097143D01*
X38212000Y26847143D02*
X38150095Y26966191D01*
X38150095Y27144762D01*
X38212000Y27323334D01*
X38335809Y27442381D01*
X38459619Y27501905D01*
X38707238Y27561429D01*
X38892952Y27561429D01*
X39140571Y27501905D01*
X39264380Y27442381D01*
X39388190Y27323334D01*
X39450095Y27144762D01*
X39450095Y27025715D01*
X39388190Y26847143D01*
X39326285Y26787620D01*
X38892952Y26787620D01*
X38892952Y27025715D01*
X39450095Y26251905D02*
X38150095Y26251905D01*
X38769142Y26251905D02*
X38769142Y25537620D01*
X39450095Y25537620D02*
X38150095Y25537620D01*
X38150095Y25120953D02*
X38150095Y24406667D01*
X39450095Y24763810D02*
X38150095Y24763810D01*
X39450095Y23990000D02*
X38150095Y23990000D01*
X39450095Y23275715D01*
X38150095Y23275715D01*
X39450095Y22680477D02*
X38150095Y22680477D01*
X39450095Y22085239D02*
X38150095Y22085239D01*
X39450095Y21370953D01*
X38150095Y21370953D01*
X38212000Y20120953D02*
X38150095Y20240000D01*
X38150095Y20418572D01*
X38212000Y20597143D01*
X38335809Y20716191D01*
X38459619Y20775715D01*
X38707238Y20835239D01*
X38892952Y20835239D01*
X39140571Y20775715D01*
X39264380Y20716191D01*
X39388190Y20597143D01*
X39450095Y20418572D01*
X39450095Y20299524D01*
X39388190Y20120953D01*
X39326285Y20061429D01*
X38892952Y20061429D01*
X38892952Y20299524D01*
X38150095Y19287620D02*
X38150095Y19168572D01*
X38212000Y19049524D01*
X38273904Y18990000D01*
X38397714Y18930477D01*
X38645333Y18870953D01*
X38954857Y18870953D01*
X39202476Y18930477D01*
X39326285Y18990000D01*
X39388190Y19049524D01*
X39450095Y19168572D01*
X39450095Y19287620D01*
X39388190Y19406667D01*
X39326285Y19466191D01*
X39202476Y19525715D01*
X38954857Y19585239D01*
X38645333Y19585239D01*
X38397714Y19525715D01*
X38273904Y19466191D01*
X38212000Y19406667D01*
X38150095Y19287620D01*
X39450095Y17680477D02*
X39450095Y18394762D01*
X39450095Y18037620D02*
X38150095Y18037620D01*
X38335809Y18156667D01*
X38459619Y18275715D01*
X38521523Y18394762D01*
X39078666Y17204286D02*
X39078666Y16609048D01*
X39450095Y17323334D02*
X38150095Y16906667D01*
X39450095Y16490000D01*
X39388190Y16013810D02*
X39450095Y16013810D01*
X39573904Y16073334D01*
X39635809Y16132858D01*
X39450095Y14525715D02*
X38150095Y14525715D01*
X39078666Y14109048D01*
X38150095Y13692381D01*
X39450095Y13692381D01*
X39450095Y12501905D02*
X39450095Y13097143D01*
X38150095Y13097143D01*
X39078666Y12144762D02*
X39078666Y11549524D01*
X39450095Y12263810D02*
X38150095Y11847143D01*
X39450095Y11430477D01*
X38769142Y10597143D02*
X38831047Y10418572D01*
X38892952Y10359048D01*
X39016761Y10299524D01*
X39202476Y10299524D01*
X39326285Y10359048D01*
X39388190Y10418572D01*
X39450095Y10537620D01*
X39450095Y11013810D01*
X38150095Y11013810D01*
X38150095Y10597143D01*
X38212000Y10478096D01*
X38273904Y10418572D01*
X38397714Y10359048D01*
X38521523Y10359048D01*
X38645333Y10418572D01*
X38707238Y10478096D01*
X38769142Y10597143D01*
X38769142Y11013810D01*
X39326285Y9763810D02*
X39388190Y9704286D01*
X39450095Y9763810D01*
X39388190Y9823334D01*
X39326285Y9763810D01*
X39450095Y9763810D01*
X39388190Y8632858D02*
X39450095Y8751905D01*
X39450095Y8990001D01*
X39388190Y9109048D01*
X39326285Y9168572D01*
X39202476Y9228096D01*
X38831047Y9228096D01*
X38707238Y9168572D01*
X38645333Y9109048D01*
X38583428Y8990001D01*
X38583428Y8751905D01*
X38645333Y8632858D01*
X38583428Y8216191D02*
X38583428Y7561429D01*
X39450095Y8216191D01*
X39450095Y7561429D01*
X39388190Y7025715D02*
X39450095Y7025715D01*
X39573904Y7085239D01*
X39635809Y7144762D01*
X38273904Y5597143D02*
X38212000Y5537620D01*
X38150095Y5418572D01*
X38150095Y5120953D01*
X38212000Y5001905D01*
X38273904Y4942381D01*
X38397714Y4882858D01*
X38521523Y4882858D01*
X38707238Y4942381D01*
X39450095Y5656667D01*
X39450095Y4882858D01*
X38150095Y4109048D02*
X38150095Y3990001D01*
X38212000Y3870953D01*
X38273904Y3811429D01*
X38397714Y3751905D01*
X38645333Y3692381D01*
X38954857Y3692381D01*
X39202476Y3751905D01*
X39326285Y3811429D01*
X39388190Y3870953D01*
X39450095Y3990001D01*
X39450095Y4109048D01*
X39388190Y4228096D01*
X39326285Y4287620D01*
X39202476Y4347143D01*
X38954857Y4406667D01*
X38645333Y4406667D01*
X38397714Y4347143D01*
X38273904Y4287620D01*
X38212000Y4228096D01*
X38150095Y4109048D01*
X39450095Y2501905D02*
X39450095Y3216191D01*
X39450095Y2859048D02*
X38150095Y2859048D01*
X38335809Y2978096D01*
X38459619Y3097143D01*
X38521523Y3216191D01*
X38707238Y1787620D02*
X38645333Y1906667D01*
X38583428Y1966191D01*
X38459619Y2025715D01*
X38397714Y2025715D01*
X38273904Y1966191D01*
X38212000Y1906667D01*
X38150095Y1787620D01*
X38150095Y1549524D01*
X38212000Y1430477D01*
X38273904Y1370953D01*
X38397714Y1311429D01*
X38459619Y1311429D01*
X38583428Y1370953D01*
X38645333Y1430477D01*
X38707238Y1549524D01*
X38707238Y1787620D01*
X38769142Y1906667D01*
X38831047Y1966191D01*
X38954857Y2025715D01*
X39202476Y2025715D01*
X39326285Y1966191D01*
X39388190Y1906667D01*
X39450095Y1787620D01*
X39450095Y1549524D01*
X39388190Y1430477D01*
X39326285Y1370953D01*
X39202476Y1311429D01*
X38954857Y1311429D01*
X38831047Y1370953D01*
X38769142Y1430477D01*
X38707238Y1549524D01*
D12*
%TO.P,M3,1*%
%TO.N,GND*%
X35560000Y5080000D03*
%TD*%
%TO.P,M1,1*%
%TO.N,GND*%
X5080000Y25400000D03*
%TD*%
%TO.P,M2,1*%
%TO.N,GND*%
X5080000Y5080000D03*
%TD*%
%TO.P,M4,1*%
%TO.N,GND*%
X35560000Y25400000D03*
%TD*%
D13*
%TO.P,J1,1*%
%TO.N,/ADR0*%
X16510000Y5715000D03*
%TO.P,J1,2*%
%TO.N,VCC*%
X16510000Y3175000D03*
%TD*%
%TO.P,J3,1*%
%TO.N,/MISO*%
X29718000Y28448000D03*
%TO.P,J3,2*%
X29718000Y25908000D03*
%TD*%
%TO.P,J4,1*%
%TO.N,/SDA_MOSI*%
X22606000Y28391327D03*
%TO.P,J4,2*%
X22606000Y25851327D03*
%TD*%
%TO.P,J5,1*%
%TO.N,/SCL*%
X17526000Y28391327D03*
%TO.P,J5,2*%
X17526000Y25851327D03*
%TD*%
%TO.P,J6,1*%
%TO.N,/IRQ*%
X34036000Y15240000D03*
%TO.P,J6,2*%
X36576000Y15240000D03*
%TD*%
%TO.P,J10,1*%
%TO.N,GND*%
X27940000Y5715000D03*
%TO.P,J10,2*%
X27940000Y3175000D03*
%TO.P,J10,3*%
%TO.N,VCC*%
X25400000Y5715000D03*
%TO.P,J10,4*%
X25400000Y3175000D03*
%TO.P,J10,5*%
%TO.N,GND*%
X22860000Y5715000D03*
%TO.P,J10,6*%
X22860000Y3175000D03*
%TD*%
%TO.P,J8,1*%
%TO.N,GND*%
X25146000Y25851327D03*
%TO.P,J8,2*%
X25146000Y28391327D03*
%TD*%
%TO.P,J7,1*%
%TO.N,VCC*%
X20066000Y25851327D03*
%TO.P,J7,2*%
X20066000Y28391327D03*
%TD*%
%TO.P,J9,1*%
%TO.N,GND*%
X14986000Y25851327D03*
%TO.P,J9,2*%
X14986000Y28391327D03*
%TD*%
%TO.P,J2,1*%
%TO.N,/CS*%
X34036000Y17780000D03*
%TO.P,J2,2*%
X36576000Y17780000D03*
%TD*%
D14*
%TO.P,R2,1*%
%TO.N,GND*%
X11176000Y14668500D03*
%TO.P,R2,2*%
%TO.N,/IN+*%
X11176000Y16573500D03*
%TD*%
%TO.P,C3,1*%
%TO.N,GND*%
X13208000Y10668000D03*
%TO.P,C3,2*%
%TO.N,/ACG*%
X13208000Y12573000D03*
%TD*%
D15*
%TO.P,C6,1*%
%TO.N,VCC*%
X23431500Y8382000D03*
%TO.P,C6,2*%
%TO.N,GND*%
X21526500Y8382000D03*
%TD*%
%TO.P,R9,1*%
%TO.N,GND*%
X28448000Y22860000D03*
%TO.P,R9,2*%
%TO.N,/MISO*%
X30353000Y22860000D03*
%TD*%
%TO.P,R10,1*%
%TO.N,VCC*%
X21907500Y23114000D03*
%TO.P,R10,2*%
%TO.N,/SDA_MOSI*%
X23812500Y23114000D03*
%TD*%
D16*
%TO.P,L1,1*%
%TO.N,/IN+*%
X3238500Y19890000D03*
%TO.P,L1,2*%
%TO.N,GND*%
X3238500Y10590000D03*
%TD*%
D14*
%TO.P,C1,1*%
%TO.N,GND*%
X9017000Y14732000D03*
%TO.P,C1,2*%
%TO.N,/IN+*%
X9017000Y16637000D03*
%TD*%
%TO.P,C2,1*%
%TO.N,GND*%
X6858000Y14732000D03*
%TO.P,C2,2*%
%TO.N,/IN+*%
X6858000Y16637000D03*
%TD*%
D15*
%TO.P,C5,1*%
%TO.N,VCC*%
X23431500Y10604500D03*
%TO.P,C5,2*%
%TO.N,GND*%
X21526500Y10604500D03*
%TD*%
D17*
%TO.P,D1,1*%
%TO.N,VCC*%
X25844500Y10985500D03*
%TO.P,D1,2*%
%TO.N,GND*%
X30645100Y10985500D03*
%TD*%
D14*
%TO.P,R4,1*%
%TO.N,GND*%
X11493500Y4064000D03*
%TO.P,R4,2*%
%TO.N,/ADR1*%
X11493500Y5969000D03*
%TD*%
D15*
%TO.P,R5,1*%
%TO.N,VCC*%
X19812000Y23114000D03*
%TO.P,R5,2*%
%TO.N,/SCL*%
X17907000Y23114000D03*
%TD*%
%TO.P,R6,1*%
%TO.N,/SI*%
X22479000Y16598783D03*
%TO.P,R6,2*%
%TO.N,GND*%
X24384000Y16598783D03*
%TD*%
%TO.P,R7,1*%
%TO.N,VCC*%
X24384000Y13970000D03*
%TO.P,R7,2*%
%TO.N,/SI*%
X22479000Y13970000D03*
%TD*%
D14*
%TO.P,R3,1*%
%TO.N,/ADR1*%
X13843000Y6032500D03*
%TO.P,R3,2*%
%TO.N,VCC*%
X13843000Y4127500D03*
%TD*%
D15*
%TO.P,R1,1*%
%TO.N,/ADR0*%
X16510000Y8255000D03*
%TO.P,R1,2*%
%TO.N,GND*%
X18415000Y8255000D03*
%TD*%
D14*
%TO.P,R8,1*%
%TO.N,GND*%
X25908000Y21844000D03*
%TO.P,R8,2*%
%TO.N,/CS*%
X25908000Y19939000D03*
%TD*%
D18*
%TO.P,U1,1*%
%TO.N,/ACG*%
X14210000Y14773000D03*
%TO.P,U1,2*%
%TO.N,GND*%
X14210000Y15423000D03*
%TO.P,U1,3*%
%TO.N,/IN+*%
X14210000Y16073000D03*
%TO.P,U1,4*%
%TO.N,GND*%
X14210000Y16728000D03*
D19*
%TO.P,U1,5*%
%TO.N,VCC*%
X15535000Y18044000D03*
%TO.P,U1,6*%
%TO.N,Net-(C4-Pad2)*%
X16185000Y18044000D03*
%TO.P,U1,7*%
%TO.N,VCC*%
X16835000Y18044000D03*
%TO.P,U1,8*%
%TO.N,/CS*%
X17490000Y18048000D03*
D18*
%TO.P,U1,9*%
%TO.N,/SI*%
X18800000Y16728000D03*
%TO.P,U1,10*%
%TO.N,/IRQ*%
X18800000Y16073000D03*
%TO.P,U1,11*%
%TO.N,/SCL*%
X18800000Y15423000D03*
%TO.P,U1,12*%
%TO.N,/MISO*%
X18800000Y14768000D03*
D19*
%TO.P,U1,13*%
%TO.N,/SDA_MOSI*%
X17490000Y13448000D03*
%TO.P,U1,14*%
%TO.N,N/C*%
X16835000Y13452000D03*
%TO.P,U1,15*%
%TO.N,/ADR0*%
X16185000Y13452000D03*
%TO.P,U1,16*%
%TO.N,/ADR1*%
X15535000Y13452000D03*
D20*
%TO.P,U1,17*%
%TO.N,GND*%
X16510000Y15748000D03*
%TD*%
D15*
%TO.P,C4,1*%
%TO.N,GND*%
X13335000Y21590000D03*
%TO.P,C4,2*%
%TO.N,Net-(C4-Pad2)*%
X15240000Y21590000D03*
%TD*%
D21*
%TO.N,GND*%
X10414000Y1524000D03*
X18542000Y1524000D03*
X10414000Y4064000D03*
X24384000Y20574000D03*
D22*
X17272000Y16510000D03*
D21*
X11176000Y21844000D03*
X12700000Y17780000D03*
X33274000Y11430000D03*
X34544000Y20320000D03*
X36322000Y20320000D03*
X28194000Y13716000D03*
X10668000Y24638000D03*
X16962773Y21566673D03*
X18542000Y2794000D03*
X10668000Y28448000D03*
D22*
X16510000Y15748000D03*
D21*
X25908000Y23622000D03*
X30734000Y7366000D03*
X12827000Y14097000D03*
X11430000Y19812000D03*
X10668000Y26670000D03*
X12700000Y28448000D03*
X11938000Y23114000D03*
D22*
X15748000Y16510000D03*
D21*
X28194000Y8636000D03*
D22*
X15748000Y15049500D03*
D21*
%TO.N,VCC*%
X14224000Y18288000D03*
D22*
X17018000Y19812000D03*
%TO.N,/SCL*%
X21590000Y21336000D03*
X20493984Y14986000D03*
%TO.N,/CS*%
X27432000Y17780000D03*
%TO.N,/MISO*%
X20066000Y12192000D03*
%TO.N,/IRQ*%
X21336000Y12192000D03*
%TO.N,/SDA_MOSI*%
X19050000Y12700000D03*
%TD*%
D23*
%TO.N,GND*%
X12382500Y14668500D02*
X12524501Y14668500D01*
D24*
X9144000Y25400000D02*
X10160000Y25400000D01*
D25*
X15535000Y16723000D02*
X16510000Y15748000D01*
D26*
X13556990Y16923010D02*
X13760000Y16923010D01*
D24*
X9017000Y14732000D02*
X6858000Y14732000D01*
D27*
X3492500Y12700000D02*
X3492500Y10590000D01*
D23*
X12524501Y14668500D02*
X11176000Y14668500D01*
X12827000Y15113000D02*
X12382500Y14668500D01*
D24*
X18542000Y1524000D02*
X18542000Y2794000D01*
X12700000Y17780000D02*
X13556990Y16923010D01*
X5080000Y25400000D02*
X9144000Y25400000D01*
X33274000Y11430000D02*
X33274000Y9906000D01*
X14986000Y25851327D02*
X14986000Y24389327D01*
X10668000Y28448000D02*
X10668000Y26670000D01*
X12756673Y28391327D02*
X12700000Y28448000D01*
X12255500Y14668500D02*
X12827000Y14097000D01*
D28*
X12827000Y15113000D02*
X12827000Y14097000D01*
D24*
X6858000Y14732000D02*
X5524500Y14732000D01*
X25146000Y24384000D02*
X25908000Y23622000D01*
D26*
X14010000Y16723000D02*
X15535000Y16723000D01*
D24*
X28194000Y8636000D02*
X28194000Y13716000D01*
X16510000Y22865327D02*
X16510000Y21874002D01*
X11176000Y14668500D02*
X12255500Y14668500D01*
D23*
X13137000Y15423000D02*
X12827000Y15113000D01*
D24*
X33274000Y9906000D02*
X30734000Y7366000D01*
X14986000Y24389327D02*
X16510000Y22865327D01*
X9144000Y5080000D02*
X9906000Y5080000D01*
D27*
X5524500Y14732000D02*
X3492500Y12700000D01*
D24*
X34544000Y20320000D02*
X36322000Y20320000D01*
X12827000Y14097000D02*
X12524501Y14399499D01*
X12524501Y14399499D02*
X12524501Y14668500D01*
X16510000Y21874002D02*
X16817329Y21566673D01*
X16817329Y21566673D02*
X16962773Y21566673D01*
X11938000Y23114000D02*
X11938000Y22606000D01*
X11176000Y14668500D02*
X12382500Y14668500D01*
X10414000Y4064000D02*
X10414000Y1524000D01*
X25146000Y25851327D02*
X25146000Y24384000D01*
X14986000Y28391327D02*
X12756673Y28391327D01*
D23*
X13760000Y15423000D02*
X13137000Y15423000D01*
D24*
X5080000Y5080000D02*
X9144000Y5080000D01*
D29*
X10922000Y14732000D02*
X8509000Y14732000D01*
D24*
X11938000Y22606000D02*
X11176000Y21844000D01*
D23*
%TO.N,VCC*%
X14523999Y17988001D02*
X14686001Y17988001D01*
D24*
X25400000Y10020300D02*
X25539700Y10160000D01*
D23*
X17018000Y19741000D02*
X16835000Y19558000D01*
X15240000Y18199000D02*
X15509999Y18468999D01*
D24*
X16510000Y3175000D02*
X14795500Y3175000D01*
X23431500Y8382000D02*
X23431500Y10604500D01*
X21907500Y23114000D02*
X19812000Y23114000D01*
D28*
X14537501Y17988001D02*
X14583500Y18034000D01*
D24*
X25539700Y12814300D02*
X24384000Y13970000D01*
D23*
X16835000Y19629000D02*
X17018000Y19812000D01*
D25*
X16835000Y18494000D02*
X16835000Y19304000D01*
D24*
X25400000Y3175000D02*
X25400000Y5715000D01*
D23*
X14224000Y18288000D02*
X14732000Y17780000D01*
X17018000Y19812000D02*
X17018000Y19741000D01*
X14732000Y18034000D02*
X14583500Y18034000D01*
D24*
X25400000Y5715000D02*
X25400000Y8382000D01*
X23431500Y8382000D02*
X24576000Y8382000D01*
D28*
X14523999Y17988001D02*
X14537501Y17988001D01*
D23*
X16835000Y19304000D02*
X16835000Y19629000D01*
X14686001Y17988001D02*
X14732000Y18034000D01*
X14224000Y18288000D02*
X14523999Y17988001D01*
X15240000Y17780000D02*
X15240000Y18199000D01*
D24*
X20066000Y25851327D02*
X20066000Y23368000D01*
X25539700Y10160000D02*
X25539700Y12814300D01*
D25*
X16835000Y19558000D02*
X16835000Y19629000D01*
D24*
X25400000Y8382000D02*
X25400000Y10020300D01*
D23*
X15303999Y18288000D02*
X15509999Y18494000D01*
D24*
X14795500Y3175000D02*
X13843000Y4127500D01*
D23*
X14732000Y18034000D02*
X15430500Y18034000D01*
D25*
X16835000Y19304000D02*
X16835000Y19558000D01*
D23*
X15509999Y18468999D02*
X15509999Y18494000D01*
D24*
X20066000Y28391327D02*
X20066000Y25851327D01*
D23*
X14732000Y17780000D02*
X15240000Y17780000D01*
D24*
X24576000Y8382000D02*
X25400000Y8382000D01*
D23*
X14224000Y18288000D02*
X15303999Y18288000D01*
D28*
%TO.N,/ACG*%
X14010000Y14773000D02*
X14010000Y13375000D01*
X14010000Y13375000D02*
X13208000Y12573000D01*
D30*
%TO.N,/SCL*%
X18536500Y21336000D02*
X21590000Y21336000D01*
X17907000Y21965500D02*
X18536500Y21336000D01*
X17526000Y28391327D02*
X17526000Y25851327D01*
D23*
X20056984Y15423000D02*
X20493984Y14986000D01*
X19250000Y15423000D02*
X20056984Y15423000D01*
D30*
X17907000Y23114000D02*
X17907000Y21965500D01*
D26*
X19010000Y15423000D02*
X19203542Y15423000D01*
D30*
X17526000Y23495000D02*
X17907000Y23114000D01*
X17526000Y25851327D02*
X17526000Y23495000D01*
%TO.N,/SI*%
X22270501Y16598783D02*
X22146284Y16723000D01*
X22479000Y16598783D02*
X22479000Y13970000D01*
D26*
X22146284Y16723000D02*
X19010000Y16723000D01*
D25*
%TO.N,/CS*%
X17485000Y18075000D02*
X17780000Y17780000D01*
D30*
X25400000Y18288000D02*
X21844000Y18288000D01*
X21844000Y18288000D02*
X21336000Y17780000D01*
X27432000Y17780000D02*
X25908000Y17780000D01*
X25908000Y19939000D02*
X25908000Y18796000D01*
D25*
X17485000Y18244000D02*
X17485000Y18075000D01*
D30*
X25908000Y17780000D02*
X25400000Y18288000D01*
X21336000Y17780000D02*
X17780000Y17780000D01*
X36576000Y17780000D02*
X34036000Y17780000D01*
X25908000Y18796000D02*
X25400000Y18288000D01*
%TO.N,/MISO*%
X19250000Y13786998D02*
X20066000Y12970998D01*
X19250000Y14768000D02*
X19250000Y13786998D01*
X30353000Y25273000D02*
X29718000Y25908000D01*
X29718000Y25908000D02*
X29718000Y28448000D01*
X30353000Y22860000D02*
X30353000Y25273000D01*
X20066000Y12970998D02*
X20066000Y12192000D01*
%TO.N,/IRQ*%
X21336000Y14139084D02*
X21336000Y12192000D01*
D26*
X19250000Y16073000D02*
X20503000Y16073000D01*
D30*
X20503000Y16073000D02*
X21336000Y15240000D01*
X21336000Y15240000D02*
X21336000Y14139084D01*
X36576000Y15240000D02*
X34036000Y15240000D01*
%TO.N,/SDA_MOSI*%
X23812500Y24644827D02*
X22606000Y25851327D01*
X18498000Y13252000D02*
X19050000Y12700000D01*
X17485000Y13252000D02*
X18498000Y13252000D01*
X23812500Y23114000D02*
X23812500Y24644827D01*
X22606000Y28391327D02*
X22606000Y25851327D01*
%TO.N,/ADR1*%
X13335000Y7493000D02*
X13335000Y6032500D01*
D26*
X15535000Y13252000D02*
X15535000Y9693000D01*
D30*
X15535000Y9693000D02*
X13335000Y7493000D01*
X13843000Y6032500D02*
X11557000Y6032500D01*
X11557000Y6032500D02*
X11493500Y5969000D01*
D23*
%TO.N,/IN+*%
X13010000Y16073000D02*
X12509500Y16573500D01*
D27*
X5645500Y16637000D02*
X3492500Y18790000D01*
D30*
X6858000Y16637000D02*
X8001000Y16637000D01*
D27*
X3492500Y18790000D02*
X3492500Y19890000D01*
X8001000Y16637000D02*
X5645500Y16637000D01*
D23*
X13760000Y16073000D02*
X13010000Y16073000D01*
D29*
X10922000Y16637000D02*
X8509000Y16637000D01*
D27*
X8509000Y16637000D02*
X8001000Y16637000D01*
D23*
X12509500Y16573500D02*
X11176000Y16573500D01*
D30*
%TO.N,/ADR0*%
X16185000Y9728500D02*
X16510000Y9403500D01*
D26*
X16185000Y13252000D02*
X16185000Y9728500D01*
D30*
X16510000Y9403500D02*
X16510000Y8255000D01*
X16510000Y5715000D02*
X16510000Y8255000D01*
D23*
%TO.N,Net-(C4-Pad2)*%
X15240000Y20541500D02*
X15240000Y21590000D01*
X16185000Y19243998D02*
X15240000Y20188998D01*
X16185000Y18494000D02*
X16185000Y19243998D01*
X15240000Y20188998D02*
X15240000Y20541500D01*
%TD*%
%TA.AperFunction,Conductor*%
%TO.N,GND*%
G36*
X13828169Y29697498D02*
G01*
X13874662Y29643842D01*
X13884766Y29573568D01*
X13860874Y29515935D01*
X13779214Y29406976D01*
X13770676Y29391381D01*
X13725522Y29270933D01*
X13721895Y29255678D01*
X13716369Y29204813D01*
X13716000Y29197999D01*
X13716000Y28663442D01*
X13720475Y28648203D01*
X13721865Y28646998D01*
X13729548Y28645327D01*
X15114000Y28645327D01*
X15182121Y28625325D01*
X15228614Y28571669D01*
X15240000Y28519327D01*
X15240000Y24599443D01*
X15244475Y24584204D01*
X15245865Y24582999D01*
X15253548Y24581328D01*
X15792669Y24581328D01*
X15799490Y24581698D01*
X15850352Y24587222D01*
X15865604Y24590848D01*
X15986054Y24636003D01*
X16001649Y24644541D01*
X16103724Y24721042D01*
X16116285Y24733603D01*
X16154862Y24785076D01*
X16211721Y24827591D01*
X16282540Y24832617D01*
X16344833Y24798557D01*
X16356509Y24785082D01*
X16400739Y24726066D01*
X16517295Y24638712D01*
X16653684Y24587582D01*
X16671437Y24585653D01*
X16680110Y24584711D01*
X16745672Y24557468D01*
X16786097Y24499104D01*
X16792500Y24459448D01*
X16792500Y23560166D01*
X16791067Y23541217D01*
X16787957Y23520773D01*
X16788550Y23513481D01*
X16788550Y23513478D01*
X16792085Y23470021D01*
X16792500Y23459806D01*
X16792500Y23452174D01*
X16792922Y23448555D01*
X16792923Y23448536D01*
X16795675Y23424931D01*
X16796107Y23420565D01*
X16801823Y23350296D01*
X16804081Y23343327D01*
X16805184Y23337807D01*
X16806466Y23332382D01*
X16807314Y23325110D01*
X16809811Y23318231D01*
X16831382Y23258804D01*
X16832810Y23254644D01*
X16852280Y23194542D01*
X16852282Y23194538D01*
X16854536Y23187580D01*
X16858330Y23181328D01*
X16860672Y23176212D01*
X16863176Y23171211D01*
X16865673Y23164333D01*
X16869683Y23158216D01*
X16869686Y23158211D01*
X16904347Y23105346D01*
X16906695Y23101625D01*
X16935719Y23053794D01*
X16954000Y22988429D01*
X16954000Y22367366D01*
X16960755Y22305184D01*
X17011885Y22168795D01*
X17099239Y22052239D01*
X17106419Y22046858D01*
X17122785Y22034592D01*
X17165299Y21977731D01*
X17172802Y21943999D01*
X17173084Y21940538D01*
X17173500Y21930306D01*
X17173500Y21922674D01*
X17173922Y21919055D01*
X17173923Y21919036D01*
X17176675Y21895431D01*
X17177108Y21891056D01*
X17180936Y21844000D01*
X17182823Y21820796D01*
X17185081Y21813827D01*
X17186184Y21808307D01*
X17187466Y21802882D01*
X17188314Y21795610D01*
X17209720Y21736639D01*
X17212382Y21729304D01*
X17213810Y21725144D01*
X17233280Y21665042D01*
X17233282Y21665038D01*
X17235536Y21658080D01*
X17239330Y21651828D01*
X17241672Y21646712D01*
X17244176Y21641711D01*
X17246673Y21634833D01*
X17250683Y21628716D01*
X17250686Y21628711D01*
X17285347Y21575846D01*
X17287695Y21572124D01*
X17324267Y21511855D01*
X17327979Y21507652D01*
X17331429Y21503745D01*
X17331412Y21503730D01*
X17334346Y21500420D01*
X17336442Y21497913D01*
X17340454Y21491794D01*
X17345766Y21486762D01*
X17394776Y21440334D01*
X17397218Y21437956D01*
X17971755Y20863419D01*
X17984141Y20849007D01*
X17996400Y20832349D01*
X18001983Y20827606D01*
X18035213Y20799375D01*
X18042729Y20792445D01*
X18048119Y20787055D01*
X18069655Y20770016D01*
X18072995Y20767276D01*
X18121171Y20726348D01*
X18121174Y20726346D01*
X18126751Y20721608D01*
X18133268Y20718280D01*
X18137934Y20715168D01*
X18142699Y20712226D01*
X18148442Y20707682D01*
X18203037Y20682166D01*
X18212317Y20677829D01*
X18216263Y20675901D01*
X18279082Y20643824D01*
X18286193Y20642084D01*
X18291445Y20640131D01*
X18296763Y20638362D01*
X18303395Y20635262D01*
X18372447Y20620899D01*
X18376731Y20619929D01*
X18445221Y20603170D01*
X18450823Y20602822D01*
X18450826Y20602822D01*
X18456020Y20602500D01*
X18456019Y20602476D01*
X18460434Y20602212D01*
X18463684Y20601922D01*
X18470852Y20600431D01*
X18545623Y20602454D01*
X18549031Y20602500D01*
X21013004Y20602500D01*
X21081125Y20582498D01*
X21087065Y20578436D01*
X21133248Y20544882D01*
X21139276Y20542198D01*
X21139278Y20542197D01*
X21301681Y20469891D01*
X21307712Y20467206D01*
X21384134Y20450962D01*
X21488056Y20428872D01*
X21488061Y20428872D01*
X21494513Y20427500D01*
X21685487Y20427500D01*
X21691939Y20428872D01*
X21691944Y20428872D01*
X21795866Y20450962D01*
X21872288Y20467206D01*
X21878319Y20469891D01*
X22040722Y20542197D01*
X22040724Y20542198D01*
X22046752Y20544882D01*
X22201253Y20657134D01*
X22218148Y20675898D01*
X22324621Y20794148D01*
X22324622Y20794149D01*
X22329040Y20799056D01*
X22424527Y20964444D01*
X22483542Y21146072D01*
X22503504Y21336000D01*
X22492538Y21440334D01*
X22484232Y21519365D01*
X22484232Y21519367D01*
X22483542Y21525928D01*
X22424527Y21707556D01*
X22407736Y21736639D01*
X22390999Y21805635D01*
X22414220Y21872726D01*
X22472626Y21917620D01*
X22590297Y21961733D01*
X22598705Y21964885D01*
X22715261Y22052239D01*
X22759174Y22110832D01*
X22816033Y22153347D01*
X22886852Y22158373D01*
X22949145Y22124313D01*
X22960825Y22110833D01*
X23004739Y22052239D01*
X23121295Y21964885D01*
X23257684Y21913755D01*
X23319866Y21907000D01*
X24305134Y21907000D01*
X24367316Y21913755D01*
X24503705Y21964885D01*
X24620261Y22052239D01*
X24625642Y22059419D01*
X24627318Y22061095D01*
X24689630Y22095121D01*
X24716413Y22098000D01*
X25635885Y22098000D01*
X25651124Y22102475D01*
X25652329Y22103865D01*
X25654000Y22111548D01*
X25654000Y22116115D01*
X26162000Y22116115D01*
X26166475Y22100876D01*
X26167865Y22099671D01*
X26175548Y22098000D01*
X27096384Y22098000D01*
X27111623Y22102475D01*
X27112828Y22103865D01*
X27114499Y22111548D01*
X27114499Y22116831D01*
X27495501Y22116831D01*
X27495871Y22110010D01*
X27501395Y22059148D01*
X27505021Y22043896D01*
X27550176Y21923446D01*
X27558714Y21907851D01*
X27635215Y21805776D01*
X27647776Y21793215D01*
X27749851Y21716714D01*
X27765446Y21708176D01*
X27885894Y21663022D01*
X27901149Y21659395D01*
X27952014Y21653869D01*
X27958828Y21653500D01*
X28175885Y21653500D01*
X28191124Y21657975D01*
X28192329Y21659365D01*
X28194000Y21667048D01*
X28194000Y22587885D01*
X28189525Y22603124D01*
X28188135Y22604329D01*
X28180452Y22606000D01*
X27513616Y22606000D01*
X27498377Y22601525D01*
X27497172Y22600135D01*
X27495501Y22592452D01*
X27495501Y22116831D01*
X27114499Y22116831D01*
X27114499Y22333169D01*
X27114129Y22339990D01*
X27108605Y22390852D01*
X27104979Y22406104D01*
X27059824Y22526554D01*
X27051286Y22542149D01*
X26974785Y22644224D01*
X26962224Y22656785D01*
X26860149Y22733286D01*
X26844554Y22741824D01*
X26724106Y22786978D01*
X26708851Y22790605D01*
X26657986Y22796131D01*
X26651172Y22796500D01*
X26180115Y22796500D01*
X26164876Y22792025D01*
X26163671Y22790635D01*
X26162000Y22782952D01*
X26162000Y22116115D01*
X25654000Y22116115D01*
X25654000Y22778384D01*
X25649525Y22793623D01*
X25648135Y22794828D01*
X25640452Y22796499D01*
X25164831Y22796499D01*
X25158010Y22796129D01*
X25107148Y22790605D01*
X25091896Y22786979D01*
X24971442Y22741823D01*
X24952009Y22731183D01*
X24882652Y22716014D01*
X24816104Y22740750D01*
X24773494Y22797538D01*
X24765500Y22841703D01*
X24765500Y23132115D01*
X27495500Y23132115D01*
X27499975Y23116876D01*
X27501365Y23115671D01*
X27509048Y23114000D01*
X28175885Y23114000D01*
X28191124Y23118475D01*
X28192329Y23119865D01*
X28194000Y23127548D01*
X28194000Y24048384D01*
X28189525Y24063623D01*
X28188135Y24064828D01*
X28180452Y24066499D01*
X27958831Y24066499D01*
X27952010Y24066129D01*
X27901148Y24060605D01*
X27885896Y24056979D01*
X27765446Y24011824D01*
X27749851Y24003286D01*
X27647776Y23926785D01*
X27635215Y23914224D01*
X27558714Y23812149D01*
X27550176Y23796554D01*
X27505022Y23676106D01*
X27501395Y23660851D01*
X27495869Y23609986D01*
X27495500Y23603172D01*
X27495500Y23132115D01*
X24765500Y23132115D01*
X24765500Y23860634D01*
X24758745Y23922816D01*
X24707615Y24059205D01*
X24620261Y24175761D01*
X24607005Y24185696D01*
X24596434Y24193619D01*
X24553919Y24250478D01*
X24546000Y24294444D01*
X24546000Y24455327D01*
X24566002Y24523448D01*
X24619658Y24569941D01*
X24672000Y24581327D01*
X24873885Y24581327D01*
X24889124Y24585802D01*
X24890329Y24587192D01*
X24892000Y24594875D01*
X24892000Y24599443D01*
X25400000Y24599443D01*
X25404475Y24584204D01*
X25405865Y24582999D01*
X25413548Y24581328D01*
X25952669Y24581328D01*
X25959490Y24581698D01*
X26010352Y24587222D01*
X26025604Y24590848D01*
X26146054Y24636003D01*
X26161649Y24644541D01*
X26263724Y24721042D01*
X26276285Y24733603D01*
X26352786Y24835678D01*
X26361324Y24851273D01*
X26406478Y24971721D01*
X26410105Y24986976D01*
X26415631Y25037841D01*
X26416000Y25044655D01*
X26416000Y25579212D01*
X26411525Y25594451D01*
X26410135Y25595656D01*
X26402452Y25597327D01*
X25418115Y25597327D01*
X25402876Y25592852D01*
X25401671Y25591462D01*
X25400000Y25583779D01*
X25400000Y24599443D01*
X24892000Y24599443D01*
X24892000Y26123442D01*
X25400000Y26123442D01*
X25404475Y26108203D01*
X25405865Y26106998D01*
X25413548Y26105327D01*
X26397884Y26105327D01*
X26413123Y26109802D01*
X26414328Y26111192D01*
X26415999Y26118875D01*
X26415999Y26657996D01*
X26415629Y26664817D01*
X26410105Y26715679D01*
X26406479Y26730931D01*
X26361324Y26851381D01*
X26352786Y26866976D01*
X26276285Y26969051D01*
X26263725Y26981611D01*
X26211835Y27020500D01*
X26169319Y27077359D01*
X26164293Y27148178D01*
X26198353Y27210471D01*
X26211835Y27222154D01*
X26263725Y27261043D01*
X26276285Y27273603D01*
X26352786Y27375678D01*
X26361324Y27391273D01*
X26406478Y27511721D01*
X26410105Y27526976D01*
X26415631Y27577841D01*
X26416000Y27584655D01*
X26416000Y28119212D01*
X26411525Y28134451D01*
X26410135Y28135656D01*
X26402452Y28137327D01*
X25418115Y28137327D01*
X25402876Y28132852D01*
X25401671Y28131462D01*
X25400000Y28123779D01*
X25400000Y26123442D01*
X24892000Y26123442D01*
X24892000Y28519327D01*
X24912002Y28587448D01*
X24965658Y28633941D01*
X25018000Y28645327D01*
X26397884Y28645327D01*
X26413123Y28649802D01*
X26414328Y28651192D01*
X26415999Y28658875D01*
X26415999Y29197996D01*
X26415629Y29204817D01*
X26410105Y29255679D01*
X26406479Y29270931D01*
X26361324Y29391381D01*
X26352786Y29406976D01*
X26271126Y29515935D01*
X26246278Y29582442D01*
X26261331Y29651824D01*
X26311506Y29702054D01*
X26371952Y29717500D01*
X28448949Y29717500D01*
X28517070Y29697498D01*
X28563563Y29643842D01*
X28573667Y29573568D01*
X28549777Y29515937D01*
X28505385Y29456705D01*
X28454255Y29320316D01*
X28447500Y29258134D01*
X28447500Y27637866D01*
X28454255Y27575684D01*
X28505385Y27439295D01*
X28592739Y27322739D01*
X28599919Y27317358D01*
X28651332Y27278826D01*
X28693847Y27221967D01*
X28698873Y27151148D01*
X28664813Y27088855D01*
X28651333Y27077175D01*
X28592739Y27033261D01*
X28505385Y26916705D01*
X28454255Y26780316D01*
X28447500Y26718134D01*
X28447500Y25097866D01*
X28454255Y25035684D01*
X28505385Y24899295D01*
X28592739Y24782739D01*
X28709295Y24695385D01*
X28845684Y24644255D01*
X28907866Y24637500D01*
X29493500Y24637500D01*
X29561621Y24617498D01*
X29608114Y24563842D01*
X29619500Y24511500D01*
X29619500Y24040444D01*
X29599498Y23972323D01*
X29569066Y23939619D01*
X29556519Y23930215D01*
X29545239Y23921761D01*
X29501013Y23862751D01*
X29444156Y23820236D01*
X29373337Y23815210D01*
X29311044Y23849270D01*
X29299362Y23862751D01*
X29260785Y23914224D01*
X29248224Y23926785D01*
X29146149Y24003286D01*
X29130554Y24011824D01*
X29010106Y24056978D01*
X28994851Y24060605D01*
X28943986Y24066131D01*
X28937172Y24066500D01*
X28720115Y24066500D01*
X28704876Y24062025D01*
X28703671Y24060635D01*
X28702000Y24052952D01*
X28702000Y21671616D01*
X28706475Y21656377D01*
X28707865Y21655172D01*
X28715548Y21653501D01*
X28937169Y21653501D01*
X28943990Y21653871D01*
X28994852Y21659395D01*
X29010104Y21663021D01*
X29130554Y21708176D01*
X29146149Y21716714D01*
X29248224Y21793215D01*
X29260785Y21805776D01*
X29299362Y21857249D01*
X29356221Y21899764D01*
X29427040Y21904790D01*
X29489333Y21870730D01*
X29501009Y21857255D01*
X29545239Y21798239D01*
X29661795Y21710885D01*
X29798184Y21659755D01*
X29860366Y21653000D01*
X30845634Y21653000D01*
X30907816Y21659755D01*
X31044205Y21710885D01*
X31160761Y21798239D01*
X31248115Y21914795D01*
X31299245Y22051184D01*
X31306000Y22113366D01*
X31306000Y23606634D01*
X31299245Y23668816D01*
X31248115Y23805205D01*
X31160761Y23921761D01*
X31149481Y23930215D01*
X31136934Y23939619D01*
X31094419Y23996478D01*
X31086500Y24040444D01*
X31086500Y25207826D01*
X31087933Y25226777D01*
X31089944Y25239993D01*
X31089944Y25239996D01*
X31091044Y25247226D01*
X31086915Y25297987D01*
X31086500Y25308202D01*
X31086500Y25315826D01*
X31083324Y25343066D01*
X31082895Y25347406D01*
X31077771Y25410407D01*
X31077770Y25410411D01*
X31077177Y25417704D01*
X31074921Y25424668D01*
X31073819Y25430183D01*
X31072533Y25435622D01*
X31071686Y25442890D01*
X31069189Y25449768D01*
X31069188Y25449774D01*
X31047618Y25509197D01*
X31046208Y25513300D01*
X31024465Y25580420D01*
X31020664Y25586683D01*
X31018321Y25591801D01*
X31015823Y25596789D01*
X31013327Y25603667D01*
X31009317Y25609784D01*
X31009314Y25609789D01*
X31009131Y25610068D01*
X31009067Y25610282D01*
X31006035Y25616337D01*
X31007100Y25616870D01*
X30988500Y25679157D01*
X30988500Y26718134D01*
X30981745Y26780316D01*
X30930615Y26916705D01*
X30843261Y27033261D01*
X30784668Y27077174D01*
X30742153Y27134033D01*
X30737127Y27204852D01*
X30771187Y27267145D01*
X30784668Y27278826D01*
X30836081Y27317358D01*
X30843261Y27322739D01*
X30930615Y27439295D01*
X30981745Y27575684D01*
X30988500Y27637866D01*
X30988500Y29258134D01*
X30981745Y29320316D01*
X30930615Y29456705D01*
X30886223Y29515936D01*
X30861377Y29582442D01*
X30876430Y29651824D01*
X30926605Y29702054D01*
X30987051Y29717500D01*
X36993500Y29717500D01*
X37061621Y29697498D01*
X37108114Y29643842D01*
X37119500Y29591500D01*
X37119500Y19176500D01*
X37099498Y19108379D01*
X37045842Y19061886D01*
X36993500Y19050500D01*
X35765866Y19050500D01*
X35703684Y19043745D01*
X35567295Y18992615D01*
X35450739Y18905261D01*
X35420755Y18865253D01*
X35406826Y18846668D01*
X35349967Y18804153D01*
X35279148Y18799127D01*
X35216855Y18833187D01*
X35205174Y18846668D01*
X35191245Y18865253D01*
X35161261Y18905261D01*
X35044705Y18992615D01*
X34908316Y19043745D01*
X34846134Y19050500D01*
X33225866Y19050500D01*
X33163684Y19043745D01*
X33027295Y18992615D01*
X32910739Y18905261D01*
X32823385Y18788705D01*
X32772255Y18652316D01*
X32765500Y18590134D01*
X32765500Y16969866D01*
X32772255Y16907684D01*
X32823385Y16771295D01*
X32910739Y16654739D01*
X32917919Y16649358D01*
X32969332Y16610826D01*
X33011847Y16553967D01*
X33016873Y16483148D01*
X32982813Y16420855D01*
X32969333Y16409175D01*
X32910739Y16365261D01*
X32823385Y16248705D01*
X32772255Y16112316D01*
X32765500Y16050134D01*
X32765500Y14429866D01*
X32772255Y14367684D01*
X32823385Y14231295D01*
X32910739Y14114739D01*
X33027295Y14027385D01*
X33163684Y13976255D01*
X33225866Y13969500D01*
X34846134Y13969500D01*
X34908316Y13976255D01*
X35044705Y14027385D01*
X35161261Y14114739D01*
X35205174Y14173332D01*
X35262033Y14215847D01*
X35332852Y14220873D01*
X35395145Y14186813D01*
X35406825Y14173333D01*
X35450739Y14114739D01*
X35567295Y14027385D01*
X35703684Y13976255D01*
X35765866Y13969500D01*
X36993500Y13969500D01*
X37061621Y13949498D01*
X37108114Y13895842D01*
X37119500Y13843500D01*
X37119500Y888500D01*
X37099498Y820379D01*
X37045842Y773886D01*
X36993500Y762500D01*
X9778000Y762500D01*
X9709879Y782502D01*
X9663386Y836158D01*
X9652000Y888500D01*
X9652000Y3574831D01*
X10287001Y3574831D01*
X10287371Y3568010D01*
X10292895Y3517148D01*
X10296521Y3501896D01*
X10341676Y3381446D01*
X10350214Y3365851D01*
X10426715Y3263776D01*
X10439276Y3251215D01*
X10541351Y3174714D01*
X10556946Y3166176D01*
X10677394Y3121022D01*
X10692649Y3117395D01*
X10743514Y3111869D01*
X10750328Y3111500D01*
X11221385Y3111500D01*
X11236624Y3115975D01*
X11237829Y3117365D01*
X11239500Y3125048D01*
X11239500Y3791885D01*
X11235025Y3807124D01*
X11233635Y3808329D01*
X11225952Y3810000D01*
X10305116Y3810000D01*
X10289877Y3805525D01*
X10288672Y3804135D01*
X10287001Y3796452D01*
X10287001Y3574831D01*
X9652000Y3574831D01*
X9652000Y10178831D01*
X12001501Y10178831D01*
X12001871Y10172010D01*
X12007395Y10121148D01*
X12011021Y10105896D01*
X12056176Y9985446D01*
X12064714Y9969851D01*
X12141215Y9867776D01*
X12153776Y9855215D01*
X12255851Y9778714D01*
X12271446Y9770176D01*
X12391894Y9725022D01*
X12407149Y9721395D01*
X12458014Y9715869D01*
X12464828Y9715500D01*
X12935885Y9715500D01*
X12951124Y9719975D01*
X12952329Y9721365D01*
X12954000Y9729048D01*
X12954000Y9733616D01*
X13462000Y9733616D01*
X13466475Y9718377D01*
X13467865Y9717172D01*
X13475548Y9715501D01*
X13951169Y9715501D01*
X13957990Y9715871D01*
X14008852Y9721395D01*
X14024104Y9725021D01*
X14144554Y9770176D01*
X14160149Y9778714D01*
X14262224Y9855215D01*
X14274785Y9867776D01*
X14351286Y9969851D01*
X14359824Y9985446D01*
X14404978Y10105894D01*
X14408605Y10121149D01*
X14414131Y10172014D01*
X14414500Y10178828D01*
X14414500Y10395885D01*
X14410025Y10411124D01*
X14408635Y10412329D01*
X14400952Y10414000D01*
X13480115Y10414000D01*
X13464876Y10409525D01*
X13463671Y10408135D01*
X13462000Y10400452D01*
X13462000Y9733616D01*
X12954000Y9733616D01*
X12954000Y10395885D01*
X12949525Y10411124D01*
X12948135Y10412329D01*
X12940452Y10414000D01*
X12019616Y10414000D01*
X12004377Y10409525D01*
X12003172Y10408135D01*
X12001501Y10400452D01*
X12001501Y10178831D01*
X9652000Y10178831D01*
X9652000Y12368127D01*
X9672002Y12436248D01*
X9721651Y12480825D01*
X11894829Y13567414D01*
X11964703Y13579988D01*
X12030283Y13552789D01*
X12070748Y13494453D01*
X12077021Y13448424D01*
X12071421Y13336409D01*
X12070005Y13308095D01*
X12057723Y13264641D01*
X12058885Y13264205D01*
X12007755Y13127816D01*
X12001000Y13065634D01*
X12001000Y12080366D01*
X12007755Y12018184D01*
X12058885Y11881795D01*
X12146239Y11765239D01*
X12205249Y11721013D01*
X12247764Y11664156D01*
X12252790Y11593337D01*
X12218730Y11531044D01*
X12205249Y11519362D01*
X12153776Y11480785D01*
X12141215Y11468224D01*
X12064714Y11366149D01*
X12056176Y11350554D01*
X12011022Y11230106D01*
X12007395Y11214851D01*
X12001869Y11163986D01*
X12001500Y11157172D01*
X12001500Y10940115D01*
X12005975Y10924876D01*
X12007365Y10923671D01*
X12015048Y10922000D01*
X14396384Y10922000D01*
X14411623Y10926475D01*
X14412828Y10927865D01*
X14414499Y10935548D01*
X14414499Y11157169D01*
X14414129Y11163990D01*
X14408605Y11214852D01*
X14404979Y11230104D01*
X14359824Y11350554D01*
X14351286Y11366149D01*
X14274785Y11468224D01*
X14262224Y11480785D01*
X14210751Y11519362D01*
X14168236Y11576221D01*
X14163210Y11647040D01*
X14197270Y11709333D01*
X14210745Y11721009D01*
X14269761Y11765239D01*
X14357115Y11881795D01*
X14408245Y12018184D01*
X14415000Y12080366D01*
X14415000Y12794444D01*
X14435002Y12862565D01*
X14449150Y12880697D01*
X14481619Y12915273D01*
X14484374Y12918115D01*
X14504926Y12938667D01*
X14507638Y12942163D01*
X14515349Y12951192D01*
X14541544Y12979087D01*
X14546972Y12984867D01*
X14551416Y12992951D01*
X14557301Y13003655D01*
X14568158Y13020184D01*
X14576447Y13030869D01*
X14576448Y13030871D01*
X14581304Y13037131D01*
X14584862Y13045353D01*
X14585382Y13045978D01*
X14588488Y13051230D01*
X14589335Y13050729D01*
X14630271Y13099929D01*
X14697978Y13121291D01*
X14766485Y13102656D01*
X14814043Y13049942D01*
X14826500Y12995316D01*
X14826500Y10074016D01*
X14806498Y10005895D01*
X14789595Y9984921D01*
X12862423Y8057748D01*
X12848011Y8045361D01*
X12831349Y8033100D01*
X12826606Y8027517D01*
X12798369Y7994280D01*
X12791439Y7986764D01*
X12786055Y7981380D01*
X12783792Y7978519D01*
X12783787Y7978514D01*
X12769068Y7959909D01*
X12766279Y7956507D01*
X12725347Y7908328D01*
X12725344Y7908324D01*
X12720608Y7902749D01*
X12717279Y7896228D01*
X12714158Y7891549D01*
X12711222Y7886795D01*
X12706682Y7881057D01*
X12703585Y7874430D01*
X12703584Y7874429D01*
X12676811Y7817146D01*
X12674901Y7813239D01*
X12642824Y7750418D01*
X12641084Y7743306D01*
X12639118Y7738020D01*
X12637360Y7732735D01*
X12634261Y7726105D01*
X12632771Y7718940D01*
X12619895Y7657037D01*
X12618925Y7652753D01*
X12602170Y7584279D01*
X12601500Y7573480D01*
X12601476Y7573481D01*
X12601212Y7569066D01*
X12600922Y7565816D01*
X12599431Y7558648D01*
X12599629Y7551331D01*
X12601454Y7483877D01*
X12601500Y7480469D01*
X12601500Y6984884D01*
X12581498Y6916763D01*
X12527842Y6870270D01*
X12457568Y6860166D01*
X12431272Y6866901D01*
X12302316Y6915245D01*
X12240134Y6922000D01*
X10746866Y6922000D01*
X10684684Y6915245D01*
X10548295Y6864115D01*
X10431739Y6776761D01*
X10344385Y6660205D01*
X10293255Y6523816D01*
X10286500Y6461634D01*
X10286500Y5476366D01*
X10293255Y5414184D01*
X10344385Y5277795D01*
X10431739Y5161239D01*
X10490749Y5117013D01*
X10533264Y5060156D01*
X10538290Y4989337D01*
X10504230Y4927044D01*
X10490749Y4915362D01*
X10439276Y4876785D01*
X10426715Y4864224D01*
X10350214Y4762149D01*
X10341676Y4746554D01*
X10296522Y4626106D01*
X10292895Y4610851D01*
X10287369Y4559986D01*
X10287000Y4553172D01*
X10287000Y4336115D01*
X10291475Y4320876D01*
X10292865Y4319671D01*
X10300548Y4318000D01*
X11621500Y4318000D01*
X11689621Y4297998D01*
X11736114Y4244342D01*
X11747500Y4192000D01*
X11747500Y3129616D01*
X11751975Y3114377D01*
X11753365Y3113172D01*
X11761048Y3111501D01*
X12236669Y3111501D01*
X12243490Y3111871D01*
X12294352Y3117395D01*
X12309604Y3121021D01*
X12430054Y3166176D01*
X12445649Y3174714D01*
X12547724Y3251215D01*
X12560281Y3263772D01*
X12592527Y3306798D01*
X12649387Y3349313D01*
X12720205Y3354339D01*
X12779652Y3321856D01*
X12781239Y3319739D01*
X12897795Y3232385D01*
X13034184Y3181255D01*
X13096366Y3174500D01*
X13529708Y3174500D01*
X13597829Y3154498D01*
X13618803Y3137595D01*
X14159174Y2597224D01*
X14166316Y2589458D01*
X14199971Y2549633D01*
X14205390Y2545490D01*
X14205392Y2545488D01*
X14264508Y2500290D01*
X14266929Y2498391D01*
X14324918Y2451768D01*
X14330238Y2447491D01*
X14336350Y2444457D01*
X14339144Y2442670D01*
X14339504Y2442418D01*
X14339873Y2442215D01*
X14342734Y2440483D01*
X14348152Y2436340D01*
X14354335Y2433457D01*
X14354338Y2433455D01*
X14421768Y2402011D01*
X14424541Y2400677D01*
X14491200Y2367587D01*
X14491204Y2367585D01*
X14497313Y2364553D01*
X14503932Y2362903D01*
X14507068Y2361749D01*
X14507457Y2361587D01*
X14507879Y2361463D01*
X14511019Y2360394D01*
X14517204Y2357510D01*
X14592581Y2340662D01*
X14596498Y2339786D01*
X14599496Y2339077D01*
X14678301Y2319428D01*
X14685122Y2319237D01*
X14688425Y2318785D01*
X14689309Y2318626D01*
X14694192Y2317948D01*
X14699240Y2316820D01*
X14704963Y2316500D01*
X14781344Y2316500D01*
X14784863Y2316451D01*
X14864757Y2314219D01*
X14871461Y2315498D01*
X14878262Y2316045D01*
X14878304Y2315525D01*
X14888625Y2316500D01*
X15153748Y2316500D01*
X15221869Y2296498D01*
X15268362Y2242842D01*
X15271730Y2234729D01*
X15297385Y2166295D01*
X15384739Y2049739D01*
X15501295Y1962385D01*
X15637684Y1911255D01*
X15699866Y1904500D01*
X17320134Y1904500D01*
X17382316Y1911255D01*
X17518705Y1962385D01*
X17635261Y2049739D01*
X17722615Y2166295D01*
X17773745Y2302684D01*
X17780500Y2364866D01*
X17780500Y2368331D01*
X21590001Y2368331D01*
X21590371Y2361510D01*
X21595895Y2310648D01*
X21599521Y2295396D01*
X21644676Y2174946D01*
X21653214Y2159351D01*
X21729715Y2057276D01*
X21742276Y2044715D01*
X21844351Y1968214D01*
X21859946Y1959676D01*
X21980394Y1914522D01*
X21995649Y1910895D01*
X22046514Y1905369D01*
X22053328Y1905000D01*
X22587885Y1905000D01*
X22603124Y1909475D01*
X22604329Y1910865D01*
X22606000Y1918548D01*
X22606000Y2902885D01*
X22601525Y2918124D01*
X22600135Y2919329D01*
X22592452Y2921000D01*
X21608116Y2921000D01*
X21592877Y2916525D01*
X21591672Y2915135D01*
X21590001Y2907452D01*
X21590001Y2368331D01*
X17780500Y2368331D01*
X17780500Y3447115D01*
X21590000Y3447115D01*
X21594475Y3431876D01*
X21595865Y3430671D01*
X21603548Y3429000D01*
X22587885Y3429000D01*
X22603124Y3433475D01*
X22604329Y3434865D01*
X22606000Y3442548D01*
X22606000Y5442885D01*
X22601525Y5458124D01*
X22600135Y5459329D01*
X22592452Y5461000D01*
X21608116Y5461000D01*
X21592877Y5456525D01*
X21591672Y5455135D01*
X21590001Y5447452D01*
X21590001Y4908331D01*
X21590371Y4901510D01*
X21595895Y4850648D01*
X21599521Y4835396D01*
X21644676Y4714946D01*
X21653214Y4699351D01*
X21729715Y4597276D01*
X21742275Y4584716D01*
X21794165Y4545827D01*
X21836681Y4488968D01*
X21841707Y4418149D01*
X21807647Y4355856D01*
X21794165Y4344173D01*
X21742275Y4305284D01*
X21729715Y4292724D01*
X21653214Y4190649D01*
X21644676Y4175054D01*
X21599522Y4054606D01*
X21595895Y4039351D01*
X21590369Y3988486D01*
X21590000Y3981672D01*
X21590000Y3447115D01*
X17780500Y3447115D01*
X17780500Y3985134D01*
X17773745Y4047316D01*
X17722615Y4183705D01*
X17635261Y4300261D01*
X17576668Y4344174D01*
X17534153Y4401033D01*
X17529127Y4471852D01*
X17563187Y4534145D01*
X17576668Y4545826D01*
X17628081Y4584358D01*
X17635261Y4589739D01*
X17722615Y4706295D01*
X17773745Y4842684D01*
X17780500Y4904866D01*
X17780500Y6525134D01*
X17773745Y6587316D01*
X17722615Y6723705D01*
X17635261Y6840261D01*
X17518705Y6927615D01*
X17382316Y6978745D01*
X17374467Y6979598D01*
X17374045Y6979698D01*
X17312399Y7014916D01*
X17279580Y7077872D01*
X17286007Y7148577D01*
X17312960Y7189640D01*
X17317761Y7193239D01*
X17361987Y7252249D01*
X17418844Y7294764D01*
X17489663Y7299790D01*
X17551956Y7265730D01*
X17563638Y7252249D01*
X17602215Y7200776D01*
X17614776Y7188215D01*
X17716851Y7111714D01*
X17732446Y7103176D01*
X17852894Y7058022D01*
X17868149Y7054395D01*
X17919014Y7048869D01*
X17925828Y7048500D01*
X18142885Y7048500D01*
X18158124Y7052975D01*
X18159329Y7054365D01*
X18161000Y7062048D01*
X18161000Y7066616D01*
X18669000Y7066616D01*
X18673475Y7051377D01*
X18674865Y7050172D01*
X18682548Y7048501D01*
X18904169Y7048501D01*
X18910990Y7048871D01*
X18961852Y7054395D01*
X18977104Y7058021D01*
X19097554Y7103176D01*
X19113149Y7111714D01*
X19215224Y7188215D01*
X19227785Y7200776D01*
X19304286Y7302851D01*
X19312824Y7318446D01*
X19357978Y7438894D01*
X19361605Y7454149D01*
X19367131Y7505014D01*
X19367500Y7511828D01*
X19367500Y7638831D01*
X20574001Y7638831D01*
X20574371Y7632010D01*
X20579895Y7581148D01*
X20583521Y7565896D01*
X20628676Y7445446D01*
X20637214Y7429851D01*
X20713715Y7327776D01*
X20726276Y7315215D01*
X20828351Y7238714D01*
X20843946Y7230176D01*
X20964394Y7185022D01*
X20979649Y7181395D01*
X21030514Y7175869D01*
X21037328Y7175500D01*
X21254385Y7175500D01*
X21269624Y7179975D01*
X21270829Y7181365D01*
X21272500Y7189048D01*
X21272500Y8109885D01*
X21268025Y8125124D01*
X21266635Y8126329D01*
X21258952Y8128000D01*
X20592116Y8128000D01*
X20576877Y8123525D01*
X20575672Y8122135D01*
X20574001Y8114452D01*
X20574001Y7638831D01*
X19367500Y7638831D01*
X19367500Y7982885D01*
X19363025Y7998124D01*
X19361635Y7999329D01*
X19353952Y8001000D01*
X18687115Y8001000D01*
X18671876Y7996525D01*
X18670671Y7995135D01*
X18669000Y7987452D01*
X18669000Y7066616D01*
X18161000Y7066616D01*
X18161000Y8527115D01*
X18669000Y8527115D01*
X18673475Y8511876D01*
X18674865Y8510671D01*
X18682548Y8509000D01*
X19349384Y8509000D01*
X19364623Y8513475D01*
X19365828Y8514865D01*
X19367499Y8522548D01*
X19367499Y8654115D01*
X20574000Y8654115D01*
X20578475Y8638876D01*
X20579865Y8637671D01*
X20587548Y8636000D01*
X21254385Y8636000D01*
X21269624Y8640475D01*
X21270829Y8641865D01*
X21272500Y8649548D01*
X21272500Y10332385D01*
X21268025Y10347624D01*
X21266635Y10348829D01*
X21258952Y10350500D01*
X20592116Y10350500D01*
X20576877Y10346025D01*
X20575672Y10344635D01*
X20574001Y10336952D01*
X20574001Y9861331D01*
X20574371Y9854510D01*
X20579895Y9803648D01*
X20583521Y9788396D01*
X20628676Y9667946D01*
X20637214Y9652351D01*
X20699821Y9568815D01*
X20724669Y9502308D01*
X20709616Y9432926D01*
X20699821Y9417685D01*
X20637214Y9334149D01*
X20628676Y9318554D01*
X20583522Y9198106D01*
X20579895Y9182851D01*
X20574369Y9131986D01*
X20574000Y9125172D01*
X20574000Y8654115D01*
X19367499Y8654115D01*
X19367499Y8998169D01*
X19367129Y9004990D01*
X19361605Y9055852D01*
X19357979Y9071104D01*
X19312824Y9191554D01*
X19304286Y9207149D01*
X19227785Y9309224D01*
X19215224Y9321785D01*
X19113149Y9398286D01*
X19097554Y9406824D01*
X18977106Y9451978D01*
X18961851Y9455605D01*
X18910986Y9461131D01*
X18904172Y9461500D01*
X18687115Y9461500D01*
X18671876Y9457025D01*
X18670671Y9455635D01*
X18669000Y9447952D01*
X18669000Y8527115D01*
X18161000Y8527115D01*
X18161000Y9443384D01*
X18156525Y9458623D01*
X18155135Y9459828D01*
X18147452Y9461499D01*
X17925831Y9461499D01*
X17919010Y9461129D01*
X17868148Y9455605D01*
X17852896Y9451979D01*
X17732446Y9406824D01*
X17716851Y9398286D01*
X17614776Y9321785D01*
X17602215Y9309224D01*
X17563638Y9257751D01*
X17506779Y9215236D01*
X17435960Y9210210D01*
X17373667Y9244270D01*
X17361991Y9257745D01*
X17317761Y9316761D01*
X17297934Y9331620D01*
X17294215Y9334408D01*
X17251701Y9391269D01*
X17244198Y9425003D01*
X17243916Y9428465D01*
X17243500Y9438695D01*
X17243500Y9446326D01*
X17242067Y9458623D01*
X17240327Y9473541D01*
X17239894Y9477917D01*
X17235411Y9533030D01*
X17234177Y9548205D01*
X17231921Y9555169D01*
X17230823Y9560665D01*
X17229534Y9566118D01*
X17228686Y9573390D01*
X17204616Y9639702D01*
X17203193Y9643847D01*
X17183719Y9703962D01*
X17183717Y9703966D01*
X17181464Y9710921D01*
X17177671Y9717172D01*
X17175329Y9722288D01*
X17172822Y9727295D01*
X17170327Y9734167D01*
X17166319Y9740280D01*
X17166317Y9740284D01*
X17131647Y9793163D01*
X17129300Y9796884D01*
X17095647Y9852343D01*
X17095646Y9852344D01*
X17092733Y9857145D01*
X17085570Y9865255D01*
X17085588Y9865271D01*
X17082658Y9868575D01*
X17080559Y9871086D01*
X17076546Y9877206D01*
X17022205Y9928684D01*
X17019763Y9931062D01*
X16930405Y10020420D01*
X16896379Y10082732D01*
X16893500Y10109515D01*
X16893500Y12524600D01*
X16913502Y12592721D01*
X16967158Y12639214D01*
X17037432Y12649318D01*
X17076799Y12636818D01*
X17227582Y12559824D01*
X17234688Y12558085D01*
X17234691Y12558084D01*
X17313613Y12538772D01*
X17393721Y12519170D01*
X17399323Y12518822D01*
X17399326Y12518822D01*
X17402581Y12518620D01*
X17402591Y12518620D01*
X17404520Y12518500D01*
X18062176Y12518500D01*
X18130297Y12498498D01*
X18176790Y12444842D01*
X18182007Y12431442D01*
X18215473Y12328444D01*
X18310960Y12163056D01*
X18438747Y12021134D01*
X18593248Y11908882D01*
X18599276Y11906198D01*
X18599278Y11906197D01*
X18761681Y11833891D01*
X18767712Y11831206D01*
X18860421Y11811500D01*
X18948056Y11792872D01*
X18948061Y11792872D01*
X18954513Y11791500D01*
X19145487Y11791500D01*
X19151944Y11792872D01*
X19158515Y11793563D01*
X19158780Y11791040D01*
X19218195Y11786512D01*
X19274831Y11743701D01*
X19282728Y11731668D01*
X19326960Y11655056D01*
X19331378Y11650149D01*
X19331379Y11650148D01*
X19370003Y11607252D01*
X19454747Y11513134D01*
X19609248Y11400882D01*
X19615276Y11398198D01*
X19615278Y11398197D01*
X19720984Y11351134D01*
X19783712Y11323206D01*
X19877113Y11303353D01*
X19964056Y11284872D01*
X19964061Y11284872D01*
X19970513Y11283500D01*
X20161487Y11283500D01*
X20167939Y11284872D01*
X20167944Y11284872D01*
X20254888Y11303353D01*
X20348288Y11323206D01*
X20396751Y11344783D01*
X20467118Y11354217D01*
X20531415Y11324110D01*
X20569229Y11264022D01*
X20574000Y11229676D01*
X20574000Y10876615D01*
X20578475Y10861376D01*
X20579865Y10860171D01*
X20587548Y10858500D01*
X21654500Y10858500D01*
X21722621Y10838498D01*
X21769114Y10784842D01*
X21780500Y10732500D01*
X21780500Y7193616D01*
X21784975Y7178377D01*
X21786365Y7177172D01*
X21794048Y7175501D01*
X21818904Y7175501D01*
X21887025Y7155499D01*
X21933518Y7101843D01*
X21943622Y7031569D01*
X21914128Y6966989D01*
X21867761Y6934739D01*
X21867818Y6934634D01*
X21866843Y6934100D01*
X21863132Y6931519D01*
X21859949Y6930326D01*
X21844351Y6921786D01*
X21742276Y6845285D01*
X21729715Y6832724D01*
X21653214Y6730649D01*
X21644676Y6715054D01*
X21599522Y6594606D01*
X21595895Y6579351D01*
X21590369Y6528486D01*
X21590000Y6521672D01*
X21590000Y5987115D01*
X21594475Y5971876D01*
X21595865Y5970671D01*
X21603548Y5969000D01*
X22988000Y5969000D01*
X23056121Y5948998D01*
X23102614Y5895342D01*
X23114000Y5843000D01*
X23114000Y1923116D01*
X23118475Y1907877D01*
X23119865Y1906672D01*
X23127548Y1905001D01*
X23666669Y1905001D01*
X23673490Y1905371D01*
X23724352Y1910895D01*
X23739604Y1914521D01*
X23860054Y1959676D01*
X23875649Y1968214D01*
X23977724Y2044715D01*
X23990285Y2057276D01*
X24028862Y2108749D01*
X24085721Y2151264D01*
X24156540Y2156290D01*
X24218833Y2122230D01*
X24230509Y2108755D01*
X24274739Y2049739D01*
X24391295Y1962385D01*
X24527684Y1911255D01*
X24589866Y1904500D01*
X26210134Y1904500D01*
X26272316Y1911255D01*
X26408705Y1962385D01*
X26525261Y2049739D01*
X26569487Y2108749D01*
X26626344Y2151264D01*
X26697163Y2156290D01*
X26759456Y2122230D01*
X26771138Y2108749D01*
X26809715Y2057276D01*
X26822276Y2044715D01*
X26924351Y1968214D01*
X26939946Y1959676D01*
X27060394Y1914522D01*
X27075649Y1910895D01*
X27126514Y1905369D01*
X27133328Y1905000D01*
X27667885Y1905000D01*
X27683124Y1909475D01*
X27684329Y1910865D01*
X27686000Y1918548D01*
X27686000Y1923116D01*
X28194000Y1923116D01*
X28198475Y1907877D01*
X28199865Y1906672D01*
X28207548Y1905001D01*
X28746669Y1905001D01*
X28753490Y1905371D01*
X28804352Y1910895D01*
X28819604Y1914521D01*
X28940054Y1959676D01*
X28955649Y1968214D01*
X29057724Y2044715D01*
X29070285Y2057276D01*
X29146786Y2159351D01*
X29155324Y2174946D01*
X29200478Y2295394D01*
X29204105Y2310649D01*
X29209631Y2361514D01*
X29210000Y2368328D01*
X29210000Y2902885D01*
X29205525Y2918124D01*
X29204135Y2919329D01*
X29196452Y2921000D01*
X28212115Y2921000D01*
X28196876Y2916525D01*
X28195671Y2915135D01*
X28194000Y2907452D01*
X28194000Y1923116D01*
X27686000Y1923116D01*
X27686000Y3447115D01*
X28194000Y3447115D01*
X28198475Y3431876D01*
X28199865Y3430671D01*
X28207548Y3429000D01*
X29191884Y3429000D01*
X29207123Y3433475D01*
X29208328Y3434865D01*
X29209999Y3442548D01*
X29209999Y3981669D01*
X29209629Y3988490D01*
X29204105Y4039352D01*
X29200479Y4054604D01*
X29155324Y4175054D01*
X29146786Y4190649D01*
X29070285Y4292724D01*
X29057725Y4305284D01*
X29005835Y4344173D01*
X28963319Y4401032D01*
X28958293Y4471851D01*
X28992353Y4534144D01*
X29005835Y4545827D01*
X29057725Y4584716D01*
X29070285Y4597276D01*
X29146786Y4699351D01*
X29155324Y4714946D01*
X29200478Y4835394D01*
X29204105Y4850649D01*
X29209631Y4901514D01*
X29210000Y4908328D01*
X29210000Y5442885D01*
X29205525Y5458124D01*
X29204135Y5459329D01*
X29196452Y5461000D01*
X28212115Y5461000D01*
X28196876Y5456525D01*
X28195671Y5455135D01*
X28194000Y5447452D01*
X28194000Y3447115D01*
X27686000Y3447115D01*
X27686000Y5987115D01*
X28194000Y5987115D01*
X28198475Y5971876D01*
X28199865Y5970671D01*
X28207548Y5969000D01*
X29191884Y5969000D01*
X29207123Y5973475D01*
X29208328Y5974865D01*
X29209999Y5982548D01*
X29209999Y6521669D01*
X29209629Y6528490D01*
X29204105Y6579352D01*
X29200479Y6594604D01*
X29155324Y6715054D01*
X29146786Y6730649D01*
X29070285Y6832724D01*
X29057724Y6845285D01*
X28955649Y6921786D01*
X28940054Y6930324D01*
X28819606Y6975478D01*
X28804351Y6979105D01*
X28753486Y6984631D01*
X28746672Y6985000D01*
X28212115Y6985000D01*
X28196876Y6980525D01*
X28195671Y6979135D01*
X28194000Y6971452D01*
X28194000Y5987115D01*
X27686000Y5987115D01*
X27686000Y6966884D01*
X27681525Y6982123D01*
X27680135Y6983328D01*
X27672452Y6984999D01*
X27133331Y6984999D01*
X27126510Y6984629D01*
X27075648Y6979105D01*
X27060396Y6975479D01*
X26939946Y6930324D01*
X26924351Y6921786D01*
X26822276Y6845285D01*
X26809715Y6832724D01*
X26771138Y6781251D01*
X26714279Y6738736D01*
X26643460Y6733710D01*
X26581167Y6767770D01*
X26569491Y6781245D01*
X26525261Y6840261D01*
X26408705Y6927615D01*
X26400296Y6930767D01*
X26400295Y6930768D01*
X26340271Y6953270D01*
X26283506Y6995911D01*
X26258806Y7062473D01*
X26258500Y7071252D01*
X26258500Y8300990D01*
X26260192Y8321569D01*
X26261101Y8327058D01*
X26261101Y8327061D01*
X26262216Y8333795D01*
X26258673Y8401394D01*
X26258500Y8407988D01*
X26258500Y9000990D01*
X26278502Y9069111D01*
X26332158Y9115604D01*
X26384500Y9126990D01*
X26643204Y9126990D01*
X26705386Y9133745D01*
X26841775Y9184875D01*
X26958331Y9272229D01*
X27045685Y9388785D01*
X27096815Y9525174D01*
X27103570Y9587356D01*
X27103570Y9590821D01*
X29386531Y9590821D01*
X29386901Y9584000D01*
X29392425Y9533138D01*
X29396051Y9517886D01*
X29441206Y9397436D01*
X29449744Y9381841D01*
X29526245Y9279766D01*
X29538806Y9267205D01*
X29640881Y9190704D01*
X29656476Y9182166D01*
X29776924Y9137012D01*
X29792179Y9133385D01*
X29843044Y9127859D01*
X29849858Y9127490D01*
X30372985Y9127490D01*
X30388224Y9131965D01*
X30389429Y9133355D01*
X30391100Y9141038D01*
X30391100Y9145606D01*
X30899100Y9145606D01*
X30903575Y9130367D01*
X30904965Y9129162D01*
X30912648Y9127491D01*
X31440339Y9127491D01*
X31447160Y9127861D01*
X31498022Y9133385D01*
X31513274Y9137011D01*
X31633724Y9182166D01*
X31649319Y9190704D01*
X31751394Y9267205D01*
X31763955Y9279766D01*
X31840456Y9381841D01*
X31848994Y9397436D01*
X31894148Y9517884D01*
X31897775Y9533139D01*
X31903301Y9584004D01*
X31903670Y9590818D01*
X31903670Y10713385D01*
X31899195Y10728624D01*
X31897805Y10729829D01*
X31890122Y10731500D01*
X30917215Y10731500D01*
X30901976Y10727025D01*
X30900771Y10725635D01*
X30899100Y10717952D01*
X30899100Y9145606D01*
X30391100Y9145606D01*
X30391100Y10713385D01*
X30386625Y10728624D01*
X30385235Y10729829D01*
X30377552Y10731500D01*
X29404646Y10731500D01*
X29389407Y10727025D01*
X29388202Y10725635D01*
X29386531Y10717952D01*
X29386531Y9590821D01*
X27103570Y9590821D01*
X27103570Y11257615D01*
X29386530Y11257615D01*
X29391005Y11242376D01*
X29392395Y11241171D01*
X29400078Y11239500D01*
X30372985Y11239500D01*
X30388224Y11243975D01*
X30389429Y11245365D01*
X30391100Y11253048D01*
X30391100Y11257615D01*
X30899100Y11257615D01*
X30903575Y11242376D01*
X30904965Y11241171D01*
X30912648Y11239500D01*
X31885554Y11239500D01*
X31900793Y11243975D01*
X31901998Y11245365D01*
X31903669Y11253048D01*
X31903669Y12380179D01*
X31903299Y12387000D01*
X31897775Y12437862D01*
X31894149Y12453114D01*
X31848994Y12573564D01*
X31840456Y12589159D01*
X31763955Y12691234D01*
X31751394Y12703795D01*
X31649319Y12780296D01*
X31633724Y12788834D01*
X31513276Y12833988D01*
X31498021Y12837615D01*
X31447156Y12843141D01*
X31440342Y12843510D01*
X30917215Y12843510D01*
X30901976Y12839035D01*
X30900771Y12837645D01*
X30899100Y12829962D01*
X30899100Y11257615D01*
X30391100Y11257615D01*
X30391100Y12825394D01*
X30386625Y12840633D01*
X30385235Y12841838D01*
X30377552Y12843509D01*
X29849861Y12843509D01*
X29843040Y12843139D01*
X29792178Y12837615D01*
X29776926Y12833989D01*
X29656476Y12788834D01*
X29640881Y12780296D01*
X29538806Y12703795D01*
X29526245Y12691234D01*
X29449744Y12589159D01*
X29441206Y12573564D01*
X29396052Y12453116D01*
X29392425Y12437861D01*
X29386899Y12386996D01*
X29386530Y12380182D01*
X29386530Y11257615D01*
X27103570Y11257615D01*
X27103570Y12383644D01*
X27096815Y12445826D01*
X27045685Y12582215D01*
X26958331Y12698771D01*
X26841775Y12786125D01*
X26705386Y12837255D01*
X26643204Y12844010D01*
X26513088Y12844010D01*
X26444967Y12864012D01*
X26398474Y12917668D01*
X26387825Y12956401D01*
X26383854Y12992951D01*
X26383117Y12999737D01*
X26380939Y13006208D01*
X26380227Y13009448D01*
X26380150Y13009883D01*
X26380034Y13010283D01*
X26379237Y13013526D01*
X26378335Y13020288D01*
X26350539Y13096656D01*
X26349541Y13099506D01*
X26342658Y13119960D01*
X26323622Y13176523D01*
X26320109Y13182370D01*
X26318707Y13185404D01*
X26318547Y13185792D01*
X26318336Y13186179D01*
X26316872Y13189153D01*
X26314538Y13195567D01*
X26270976Y13264210D01*
X26269451Y13266679D01*
X26227553Y13336409D01*
X26222863Y13341368D01*
X26220848Y13344023D01*
X26220340Y13344754D01*
X26217362Y13348692D01*
X26214591Y13353059D01*
X26210771Y13357332D01*
X26156775Y13411328D01*
X26154321Y13413850D01*
X26104081Y13466977D01*
X26099392Y13471936D01*
X26093744Y13475774D01*
X26088552Y13480193D01*
X26088892Y13480593D01*
X26080903Y13487200D01*
X25373905Y14194198D01*
X25339879Y14256510D01*
X25337000Y14283293D01*
X25337000Y14716634D01*
X25330245Y14778816D01*
X25279115Y14915205D01*
X25191761Y15031761D01*
X25075205Y15119115D01*
X25066796Y15122267D01*
X25066795Y15122268D01*
X24948336Y15166676D01*
X24891571Y15209317D01*
X24866871Y15275879D01*
X24882078Y15345228D01*
X24932364Y15395346D01*
X24948335Y15402640D01*
X25066554Y15446959D01*
X25082149Y15455497D01*
X25184224Y15531998D01*
X25196785Y15544559D01*
X25273286Y15646634D01*
X25281824Y15662229D01*
X25326978Y15782677D01*
X25330605Y15797932D01*
X25336131Y15848797D01*
X25336500Y15855611D01*
X25336500Y16326668D01*
X25332025Y16341907D01*
X25330635Y16343112D01*
X25322952Y16344783D01*
X24256000Y16344783D01*
X24187879Y16364785D01*
X24141386Y16418441D01*
X24130000Y16470783D01*
X24130000Y16726783D01*
X24150002Y16794904D01*
X24203658Y16841397D01*
X24256000Y16852783D01*
X25318384Y16852783D01*
X25333623Y16857258D01*
X25334828Y16858648D01*
X25336499Y16866331D01*
X25336499Y17040062D01*
X25356501Y17108183D01*
X25410157Y17154676D01*
X25480431Y17164780D01*
X25519448Y17150626D01*
X25519942Y17151682D01*
X25583817Y17121829D01*
X25587763Y17119901D01*
X25650582Y17087824D01*
X25657693Y17086084D01*
X25662945Y17084131D01*
X25668263Y17082362D01*
X25674895Y17079262D01*
X25743947Y17064899D01*
X25748231Y17063929D01*
X25816721Y17047170D01*
X25822323Y17046822D01*
X25822326Y17046822D01*
X25827520Y17046500D01*
X25827519Y17046476D01*
X25831934Y17046212D01*
X25835184Y17045922D01*
X25842352Y17044431D01*
X25917123Y17046454D01*
X25920531Y17046500D01*
X26855004Y17046500D01*
X26923125Y17026498D01*
X26929065Y17022436D01*
X26975248Y16988882D01*
X26981276Y16986198D01*
X26981278Y16986197D01*
X27143681Y16913891D01*
X27149712Y16911206D01*
X27243112Y16891353D01*
X27330056Y16872872D01*
X27330061Y16872872D01*
X27336513Y16871500D01*
X27527487Y16871500D01*
X27533939Y16872872D01*
X27533944Y16872872D01*
X27620888Y16891353D01*
X27714288Y16911206D01*
X27720319Y16913891D01*
X27882722Y16986197D01*
X27882724Y16986198D01*
X27888752Y16988882D01*
X28043253Y17101134D01*
X28060148Y17119898D01*
X28166621Y17238148D01*
X28166622Y17238149D01*
X28171040Y17243056D01*
X28266527Y17408444D01*
X28325542Y17590072D01*
X28345504Y17780000D01*
X28331897Y17909465D01*
X28326232Y17963365D01*
X28326232Y17963367D01*
X28325542Y17969928D01*
X28266527Y18151556D01*
X28171040Y18316944D01*
X28043253Y18458866D01*
X27900070Y18562895D01*
X27894094Y18567237D01*
X27894093Y18567238D01*
X27888752Y18571118D01*
X27882724Y18573802D01*
X27882722Y18573803D01*
X27720319Y18646109D01*
X27720318Y18646109D01*
X27714288Y18648794D01*
X27617119Y18669448D01*
X27533944Y18687128D01*
X27533939Y18687128D01*
X27527487Y18688500D01*
X27336513Y18688500D01*
X27330061Y18687128D01*
X27330056Y18687128D01*
X27246881Y18669448D01*
X27149712Y18648794D01*
X27143682Y18646109D01*
X27143681Y18646109D01*
X26981278Y18573803D01*
X26981276Y18573802D01*
X26975248Y18571118D01*
X26969907Y18567238D01*
X26969906Y18567237D01*
X26929065Y18537564D01*
X26862197Y18513706D01*
X26855004Y18513500D01*
X26754588Y18513500D01*
X26686467Y18533502D01*
X26639974Y18587158D01*
X26629870Y18657432D01*
X26632199Y18669448D01*
X26639495Y18699266D01*
X26640830Y18704721D01*
X26641500Y18715520D01*
X26641524Y18715519D01*
X26641788Y18719934D01*
X26642078Y18723184D01*
X26643569Y18730352D01*
X26641546Y18805123D01*
X26641500Y18808531D01*
X26641500Y18877192D01*
X26661502Y18945313D01*
X26715158Y18991806D01*
X26723270Y18995174D01*
X26844797Y19040733D01*
X26853205Y19043885D01*
X26969761Y19131239D01*
X27057115Y19247795D01*
X27108245Y19384184D01*
X27115000Y19446366D01*
X27115000Y20431634D01*
X27108245Y20493816D01*
X27057115Y20630205D01*
X26969761Y20746761D01*
X26910751Y20790987D01*
X26868236Y20847844D01*
X26863210Y20918663D01*
X26897270Y20980956D01*
X26910751Y20992638D01*
X26962224Y21031215D01*
X26974785Y21043776D01*
X27051286Y21145851D01*
X27059824Y21161446D01*
X27104978Y21281894D01*
X27108605Y21297149D01*
X27114131Y21348014D01*
X27114500Y21354828D01*
X27114500Y21571885D01*
X27110025Y21587124D01*
X27108635Y21588329D01*
X27100952Y21590000D01*
X24719616Y21590000D01*
X24704377Y21585525D01*
X24703172Y21584135D01*
X24701501Y21576452D01*
X24701501Y21354831D01*
X24701871Y21348010D01*
X24707395Y21297148D01*
X24711021Y21281896D01*
X24756176Y21161446D01*
X24764714Y21145851D01*
X24841215Y21043776D01*
X24853776Y21031215D01*
X24905249Y20992638D01*
X24947764Y20935779D01*
X24952790Y20864960D01*
X24918730Y20802667D01*
X24905255Y20790991D01*
X24846239Y20746761D01*
X24758885Y20630205D01*
X24707755Y20493816D01*
X24701000Y20431634D01*
X24701000Y19446366D01*
X24707755Y19384184D01*
X24758885Y19247795D01*
X24764270Y19240610D01*
X24764271Y19240608D01*
X24777419Y19223065D01*
X24802267Y19156558D01*
X24787214Y19087176D01*
X24737040Y19036946D01*
X24676593Y19021500D01*
X21909166Y19021500D01*
X21890216Y19022933D01*
X21877007Y19024943D01*
X21877003Y19024943D01*
X21869773Y19026043D01*
X21862481Y19025450D01*
X21862477Y19025450D01*
X21819019Y19021915D01*
X21808805Y19021500D01*
X21801174Y19021500D01*
X21797540Y19021076D01*
X21797534Y19021076D01*
X21785039Y19019619D01*
X21773942Y19018325D01*
X21769594Y19017895D01*
X21699295Y19012177D01*
X21692331Y19009921D01*
X21686835Y19008823D01*
X21681382Y19007534D01*
X21674110Y19006686D01*
X21607798Y18982616D01*
X21603667Y18981198D01*
X21583894Y18974792D01*
X21543538Y18961719D01*
X21543534Y18961717D01*
X21536579Y18959464D01*
X21530329Y18955672D01*
X21525212Y18953329D01*
X21520205Y18950822D01*
X21513333Y18948327D01*
X21507220Y18944319D01*
X21507216Y18944317D01*
X21454337Y18909647D01*
X21450616Y18907300D01*
X21407728Y18881275D01*
X21390355Y18870733D01*
X21382245Y18863570D01*
X21382229Y18863588D01*
X21378925Y18860658D01*
X21376414Y18858559D01*
X21370294Y18854546D01*
X21365262Y18849234D01*
X21318816Y18800205D01*
X21316438Y18797763D01*
X21069080Y18550405D01*
X21006768Y18516379D01*
X20979985Y18513500D01*
X18136446Y18513500D01*
X18068325Y18533502D01*
X18034510Y18565439D01*
X17955132Y18674694D01*
X17955129Y18674697D01*
X17950472Y18681107D01*
X17827144Y18783133D01*
X17788889Y18801134D01*
X17763396Y18819052D01*
X17762457Y18820457D01*
X17729213Y18842669D01*
X17717042Y18845090D01*
X17705974Y18847292D01*
X17705970Y18847292D01*
X17699899Y18848500D01*
X17696314Y18848500D01*
X17682344Y18851422D01*
X17682318Y18851283D01*
X17619039Y18863354D01*
X17555873Y18895766D01*
X17520258Y18957183D01*
X17523501Y19028106D01*
X17568588Y19089058D01*
X17619238Y19125858D01*
X17629253Y19133134D01*
X17634012Y19138419D01*
X17752621Y19270148D01*
X17752622Y19270149D01*
X17757040Y19275056D01*
X17852527Y19440444D01*
X17911542Y19622072D01*
X17923272Y19733672D01*
X17930814Y19805435D01*
X17931504Y19812000D01*
X17919359Y19927552D01*
X17912232Y19995365D01*
X17912232Y19995367D01*
X17911542Y20001928D01*
X17852527Y20183556D01*
X17757040Y20348944D01*
X17725594Y20383869D01*
X17633675Y20485955D01*
X17633674Y20485956D01*
X17629253Y20490866D01*
X17474752Y20603118D01*
X17468724Y20605802D01*
X17468722Y20605803D01*
X17306319Y20678109D01*
X17306318Y20678109D01*
X17300288Y20680794D01*
X17173791Y20707682D01*
X17119944Y20719128D01*
X17119939Y20719128D01*
X17113487Y20720500D01*
X16922513Y20720500D01*
X16916061Y20719128D01*
X16916056Y20719128D01*
X16862209Y20707682D01*
X16735712Y20680794D01*
X16729682Y20678109D01*
X16729681Y20678109D01*
X16567278Y20605803D01*
X16567276Y20605802D01*
X16561248Y20603118D01*
X16406747Y20490866D01*
X16278960Y20348944D01*
X16275659Y20343226D01*
X16271775Y20337881D01*
X16270621Y20338719D01*
X16224655Y20294890D01*
X16154941Y20281455D01*
X16089031Y20307842D01*
X16077824Y20317789D01*
X16045763Y20349850D01*
X16011737Y20412162D01*
X16016802Y20482977D01*
X16044153Y20525535D01*
X16047761Y20528239D01*
X16135115Y20644795D01*
X16186245Y20781184D01*
X16193000Y20843366D01*
X16193000Y22336634D01*
X16186245Y22398816D01*
X16135115Y22535205D01*
X16047761Y22651761D01*
X15931205Y22739115D01*
X15794816Y22790245D01*
X15732634Y22797000D01*
X14747366Y22797000D01*
X14685184Y22790245D01*
X14548795Y22739115D01*
X14432239Y22651761D01*
X14388013Y22592751D01*
X14331156Y22550236D01*
X14260337Y22545210D01*
X14198044Y22579270D01*
X14186362Y22592751D01*
X14147785Y22644224D01*
X14135224Y22656785D01*
X14033149Y22733286D01*
X14017554Y22741824D01*
X13897106Y22786978D01*
X13881851Y22790605D01*
X13830986Y22796131D01*
X13824172Y22796500D01*
X13607115Y22796500D01*
X13591876Y22792025D01*
X13590671Y22790635D01*
X13589000Y22782952D01*
X13589000Y20401616D01*
X13593475Y20386377D01*
X13594865Y20385172D01*
X13602548Y20383501D01*
X13824169Y20383501D01*
X13830990Y20383871D01*
X13881852Y20389395D01*
X13897104Y20393021D01*
X14017554Y20438176D01*
X14033149Y20446714D01*
X14135224Y20523215D01*
X14147785Y20535776D01*
X14186362Y20587249D01*
X14243221Y20629764D01*
X14314040Y20634790D01*
X14376333Y20600730D01*
X14388009Y20587255D01*
X14432239Y20528239D01*
X14439419Y20522858D01*
X14439420Y20522857D01*
X14506065Y20472909D01*
X14548580Y20416049D01*
X14556500Y20372083D01*
X14556500Y20217043D01*
X14556208Y20208475D01*
X14552424Y20152964D01*
X14553729Y20145487D01*
X14553729Y20145484D01*
X14563002Y20092351D01*
X14563965Y20085827D01*
X14571355Y20024763D01*
X14574042Y20017653D01*
X14575246Y20012750D01*
X14578114Y20002264D01*
X14579561Y19997472D01*
X14580866Y19989994D01*
X14583918Y19983042D01*
X14583918Y19983041D01*
X14605595Y19933657D01*
X14608086Y19927552D01*
X14627145Y19877116D01*
X14629831Y19870009D01*
X14634131Y19863752D01*
X14636467Y19859284D01*
X14641725Y19849838D01*
X14644307Y19845472D01*
X14647362Y19838513D01*
X14684823Y19789694D01*
X14688686Y19784375D01*
X14715283Y19745677D01*
X14723534Y19733672D01*
X14729203Y19728621D01*
X14768323Y19693766D01*
X14773598Y19688785D01*
X15181194Y19281189D01*
X15215220Y19218877D01*
X15210155Y19148062D01*
X15167608Y19091226D01*
X15163072Y19088200D01*
X15159514Y19086638D01*
X15153490Y19082016D01*
X15153484Y19082012D01*
X15151214Y19080270D01*
X15132296Y19068264D01*
X15122993Y19063462D01*
X15079955Y19025917D01*
X15015474Y18996209D01*
X14945167Y19006078D01*
X14916815Y19023778D01*
X14790675Y19128130D01*
X14616701Y19222198D01*
X14427768Y19280682D01*
X14421643Y19281326D01*
X14421642Y19281326D01*
X14237204Y19300711D01*
X14237202Y19300711D01*
X14231075Y19301355D01*
X14148576Y19293847D01*
X14040251Y19283989D01*
X14040248Y19283988D01*
X14034112Y19283430D01*
X14028206Y19281692D01*
X14028202Y19281691D01*
X13941601Y19256203D01*
X13844381Y19227590D01*
X13838923Y19224737D01*
X13838919Y19224735D01*
X13748147Y19177280D01*
X13669110Y19135960D01*
X13514975Y19012032D01*
X13387846Y18860526D01*
X13384879Y18855128D01*
X13384875Y18855123D01*
X13348362Y18788705D01*
X13292567Y18687213D01*
X13290706Y18681346D01*
X13290705Y18681344D01*
X13260688Y18586717D01*
X13232765Y18498694D01*
X13210719Y18302149D01*
X13211235Y18296005D01*
X13222884Y18157279D01*
X13227268Y18105066D01*
X13281783Y17914950D01*
X13372187Y17739044D01*
X13376013Y17734217D01*
X13460933Y17627073D01*
X13487570Y17561263D01*
X13474399Y17491499D01*
X13425601Y17439930D01*
X13399677Y17429562D01*
X13399793Y17429252D01*
X13271946Y17381324D01*
X13256351Y17372786D01*
X13154276Y17296285D01*
X13141715Y17283724D01*
X13059828Y17174462D01*
X13056805Y17176728D01*
X13019086Y17139145D01*
X12949684Y17124178D01*
X12881155Y17150687D01*
X12866172Y17162435D01*
X12859248Y17165561D01*
X12854939Y17168171D01*
X12845524Y17173542D01*
X12841076Y17175927D01*
X12834861Y17180295D01*
X12777539Y17202644D01*
X12771471Y17205194D01*
X12715395Y17230514D01*
X12707918Y17231900D01*
X12703098Y17233410D01*
X12692665Y17236382D01*
X12687804Y17237630D01*
X12680728Y17240389D01*
X12619738Y17248418D01*
X12613222Y17249450D01*
X12560200Y17259277D01*
X12552733Y17260661D01*
X12545153Y17260224D01*
X12545152Y17260224D01*
X12492858Y17257209D01*
X12485606Y17257000D01*
X12393917Y17257000D01*
X12325796Y17277002D01*
X12293091Y17307435D01*
X12243143Y17374080D01*
X12243142Y17374081D01*
X12237761Y17381261D01*
X12230581Y17386642D01*
X12228905Y17388318D01*
X12194879Y17450630D01*
X12192000Y17477413D01*
X12192000Y17526000D01*
X9721650Y18761175D01*
X9669667Y18809529D01*
X9652000Y18873872D01*
X9652000Y20846831D01*
X12382501Y20846831D01*
X12382871Y20840010D01*
X12388395Y20789148D01*
X12392021Y20773896D01*
X12437176Y20653446D01*
X12445714Y20637851D01*
X12522215Y20535776D01*
X12534776Y20523215D01*
X12636851Y20446714D01*
X12652446Y20438176D01*
X12772894Y20393022D01*
X12788149Y20389395D01*
X12839014Y20383869D01*
X12845828Y20383500D01*
X13062885Y20383500D01*
X13078124Y20387975D01*
X13079329Y20389365D01*
X13081000Y20397048D01*
X13081000Y21317885D01*
X13076525Y21333124D01*
X13075135Y21334329D01*
X13067452Y21336000D01*
X12400616Y21336000D01*
X12385377Y21331525D01*
X12384172Y21330135D01*
X12382501Y21322452D01*
X12382501Y20846831D01*
X9652000Y20846831D01*
X9652000Y21862115D01*
X12382500Y21862115D01*
X12386975Y21846876D01*
X12388365Y21845671D01*
X12396048Y21844000D01*
X13062885Y21844000D01*
X13078124Y21848475D01*
X13079329Y21849865D01*
X13081000Y21857548D01*
X13081000Y22778384D01*
X13076525Y22793623D01*
X13075135Y22794828D01*
X13067452Y22796499D01*
X12845831Y22796499D01*
X12839010Y22796129D01*
X12788148Y22790605D01*
X12772896Y22786979D01*
X12652446Y22741824D01*
X12636851Y22733286D01*
X12534776Y22656785D01*
X12522215Y22644224D01*
X12445714Y22542149D01*
X12437176Y22526554D01*
X12392022Y22406106D01*
X12388395Y22390851D01*
X12382869Y22339986D01*
X12382500Y22333172D01*
X12382500Y21862115D01*
X9652000Y21862115D01*
X9652000Y25044658D01*
X13716001Y25044658D01*
X13716371Y25037837D01*
X13721895Y24986975D01*
X13725521Y24971723D01*
X13770676Y24851273D01*
X13779214Y24835678D01*
X13855715Y24733603D01*
X13868276Y24721042D01*
X13970351Y24644541D01*
X13985946Y24636003D01*
X14106394Y24590849D01*
X14121649Y24587222D01*
X14172514Y24581696D01*
X14179328Y24581327D01*
X14713885Y24581327D01*
X14729124Y24585802D01*
X14730329Y24587192D01*
X14732000Y24594875D01*
X14732000Y25579212D01*
X14727525Y25594451D01*
X14726135Y25595656D01*
X14718452Y25597327D01*
X13734116Y25597327D01*
X13718877Y25592852D01*
X13717672Y25591462D01*
X13716001Y25583779D01*
X13716001Y25044658D01*
X9652000Y25044658D01*
X9652000Y26123442D01*
X13716000Y26123442D01*
X13720475Y26108203D01*
X13721865Y26106998D01*
X13729548Y26105327D01*
X14713885Y26105327D01*
X14729124Y26109802D01*
X14730329Y26111192D01*
X14732000Y26118875D01*
X14732000Y28119212D01*
X14727525Y28134451D01*
X14726135Y28135656D01*
X14718452Y28137327D01*
X13734116Y28137327D01*
X13718877Y28132852D01*
X13717672Y28131462D01*
X13716001Y28123779D01*
X13716001Y27584658D01*
X13716371Y27577837D01*
X13721895Y27526975D01*
X13725521Y27511723D01*
X13770676Y27391273D01*
X13779214Y27375678D01*
X13855715Y27273603D01*
X13868275Y27261043D01*
X13920165Y27222154D01*
X13962681Y27165295D01*
X13967707Y27094476D01*
X13933647Y27032183D01*
X13920165Y27020500D01*
X13868275Y26981611D01*
X13855715Y26969051D01*
X13779214Y26866976D01*
X13770676Y26851381D01*
X13725522Y26730933D01*
X13721895Y26715678D01*
X13716369Y26664813D01*
X13716000Y26657999D01*
X13716000Y26123442D01*
X9652000Y26123442D01*
X9652000Y29591500D01*
X9672002Y29659621D01*
X9725658Y29706114D01*
X9778000Y29717500D01*
X13760048Y29717500D01*
X13828169Y29697498D01*
G37*
%TD.AperFunction*%
%TD*%
M02*
