%TF.GenerationSoftware,KiCad,Pcbnew,7.0.5.1-1-g8f565ef7f0-dirty-deb11*%
%TF.CreationDate,2023-07-05T14:59:33+00:00*%
%TF.ProjectId,LIGHTNING01,4c494748-544e-4494-9e47-30312e6b6963,01A*%
%TF.SameCoordinates,Original*%
%TF.FileFunction,Legend,Top*%
%TF.FilePolarity,Positive*%
%FSLAX46Y46*%
G04 Gerber Fmt 4.6, Leading zero omitted, Abs format (unit mm)*
G04 Created by KiCad (PCBNEW 7.0.5.1-1-g8f565ef7f0-dirty-deb11) date 2023-07-05 14:59:33*
%MOMM*%
%LPD*%
G01*
G04 APERTURE LIST*
%ADD10C,0.200000*%
%ADD11C,0.250000*%
%ADD12C,0.300000*%
%ADD13C,0.350000*%
%ADD14C,0.050000*%
%ADD15C,0.150000*%
%ADD16R,1.524000X1.524000*%
G04 APERTURE END LIST*
D10*
X40386000Y254000D02*
X254000Y254000D01*
X254000Y30226000D02*
X40386000Y30226000D01*
X254000Y254000D02*
X254000Y30226000D01*
X40386000Y30226000D02*
X40386000Y254000D01*
D11*
X24799285Y21691715D02*
X24742142Y21577429D01*
X24742142Y21577429D02*
X24742142Y21406001D01*
X24742142Y21406001D02*
X24799285Y21234572D01*
X24799285Y21234572D02*
X24913571Y21120287D01*
X24913571Y21120287D02*
X25027857Y21063144D01*
X25027857Y21063144D02*
X25256428Y21006001D01*
X25256428Y21006001D02*
X25427857Y21006001D01*
X25427857Y21006001D02*
X25656428Y21063144D01*
X25656428Y21063144D02*
X25770714Y21120287D01*
X25770714Y21120287D02*
X25885000Y21234572D01*
X25885000Y21234572D02*
X25942142Y21406001D01*
X25942142Y21406001D02*
X25942142Y21520287D01*
X25942142Y21520287D02*
X25885000Y21691715D01*
X25885000Y21691715D02*
X25827857Y21748858D01*
X25827857Y21748858D02*
X25427857Y21748858D01*
X25427857Y21748858D02*
X25427857Y21520287D01*
X25942142Y22263144D02*
X24742142Y22263144D01*
X24742142Y22263144D02*
X25942142Y22948858D01*
X25942142Y22948858D02*
X24742142Y22948858D01*
X25942142Y23520287D02*
X24742142Y23520287D01*
X24742142Y23520287D02*
X24742142Y23806001D01*
X24742142Y23806001D02*
X24799285Y23977430D01*
X24799285Y23977430D02*
X24913571Y24091715D01*
X24913571Y24091715D02*
X25027857Y24148858D01*
X25027857Y24148858D02*
X25256428Y24206001D01*
X25256428Y24206001D02*
X25427857Y24206001D01*
X25427857Y24206001D02*
X25656428Y24148858D01*
X25656428Y24148858D02*
X25770714Y24091715D01*
X25770714Y24091715D02*
X25885000Y23977430D01*
X25885000Y23977430D02*
X25942142Y23806001D01*
X25942142Y23806001D02*
X25942142Y23520287D01*
X18461857Y17745429D02*
X18519000Y17688286D01*
X18519000Y17688286D02*
X18576142Y17516858D01*
X18576142Y17516858D02*
X18576142Y17402572D01*
X18576142Y17402572D02*
X18519000Y17231143D01*
X18519000Y17231143D02*
X18404714Y17116858D01*
X18404714Y17116858D02*
X18290428Y17059715D01*
X18290428Y17059715D02*
X18061857Y17002572D01*
X18061857Y17002572D02*
X17890428Y17002572D01*
X17890428Y17002572D02*
X17661857Y17059715D01*
X17661857Y17059715D02*
X17547571Y17116858D01*
X17547571Y17116858D02*
X17433285Y17231143D01*
X17433285Y17231143D02*
X17376142Y17402572D01*
X17376142Y17402572D02*
X17376142Y17516858D01*
X17376142Y17516858D02*
X17433285Y17688286D01*
X17433285Y17688286D02*
X17490428Y17745429D01*
X18576142Y18831143D02*
X18576142Y18259715D01*
X18576142Y18259715D02*
X17376142Y18259715D01*
X18576142Y19231144D02*
X17376142Y19231144D01*
X18576142Y19916858D02*
X17890428Y19402572D01*
X17376142Y19916858D02*
X18061857Y19231144D01*
X18519000Y21288287D02*
X18576142Y21459715D01*
X18576142Y21459715D02*
X18576142Y21745430D01*
X18576142Y21745430D02*
X18519000Y21859715D01*
X18519000Y21859715D02*
X18461857Y21916858D01*
X18461857Y21916858D02*
X18347571Y21974001D01*
X18347571Y21974001D02*
X18233285Y21974001D01*
X18233285Y21974001D02*
X18119000Y21916858D01*
X18119000Y21916858D02*
X18061857Y21859715D01*
X18061857Y21859715D02*
X18004714Y21745430D01*
X18004714Y21745430D02*
X17947571Y21516858D01*
X17947571Y21516858D02*
X17890428Y21402573D01*
X17890428Y21402573D02*
X17833285Y21345430D01*
X17833285Y21345430D02*
X17719000Y21288287D01*
X17719000Y21288287D02*
X17604714Y21288287D01*
X17604714Y21288287D02*
X17490428Y21345430D01*
X17490428Y21345430D02*
X17433285Y21402573D01*
X17433285Y21402573D02*
X17376142Y21516858D01*
X17376142Y21516858D02*
X17376142Y21802573D01*
X17376142Y21802573D02*
X17433285Y21974001D01*
X18461857Y23174001D02*
X18519000Y23116858D01*
X18519000Y23116858D02*
X18576142Y22945430D01*
X18576142Y22945430D02*
X18576142Y22831144D01*
X18576142Y22831144D02*
X18519000Y22659715D01*
X18519000Y22659715D02*
X18404714Y22545430D01*
X18404714Y22545430D02*
X18290428Y22488287D01*
X18290428Y22488287D02*
X18061857Y22431144D01*
X18061857Y22431144D02*
X17890428Y22431144D01*
X17890428Y22431144D02*
X17661857Y22488287D01*
X17661857Y22488287D02*
X17547571Y22545430D01*
X17547571Y22545430D02*
X17433285Y22659715D01*
X17433285Y22659715D02*
X17376142Y22831144D01*
X17376142Y22831144D02*
X17376142Y22945430D01*
X17376142Y22945430D02*
X17433285Y23116858D01*
X17433285Y23116858D02*
X17490428Y23174001D01*
X18576142Y24259715D02*
X18576142Y23688287D01*
X18576142Y23688287D02*
X17376142Y23688287D01*
X14912142Y1061813D02*
X13197857Y1061813D01*
X13312142Y3061813D02*
X13312142Y3176099D01*
X13312142Y3176099D02*
X13369285Y3290385D01*
X13369285Y3290385D02*
X13426428Y3347527D01*
X13426428Y3347527D02*
X13540714Y3404670D01*
X13540714Y3404670D02*
X13769285Y3461813D01*
X13769285Y3461813D02*
X14055000Y3461813D01*
X14055000Y3461813D02*
X14283571Y3404670D01*
X14283571Y3404670D02*
X14397857Y3347527D01*
X14397857Y3347527D02*
X14455000Y3290385D01*
X14455000Y3290385D02*
X14512142Y3176099D01*
X14512142Y3176099D02*
X14512142Y3061813D01*
X14512142Y3061813D02*
X14455000Y2947527D01*
X14455000Y2947527D02*
X14397857Y2890385D01*
X14397857Y2890385D02*
X14283571Y2833242D01*
X14283571Y2833242D02*
X14055000Y2776099D01*
X14055000Y2776099D02*
X13769285Y2776099D01*
X13769285Y2776099D02*
X13540714Y2833242D01*
X13540714Y2833242D02*
X13426428Y2890385D01*
X13426428Y2890385D02*
X13369285Y2947527D01*
X13369285Y2947527D02*
X13312142Y3061813D01*
X14512142Y3861813D02*
X13712142Y4490384D01*
X13712142Y3861813D02*
X14512142Y4490384D01*
X13312142Y5176099D02*
X13312142Y5290385D01*
X13312142Y5290385D02*
X13369285Y5404671D01*
X13369285Y5404671D02*
X13426428Y5461813D01*
X13426428Y5461813D02*
X13540714Y5518956D01*
X13540714Y5518956D02*
X13769285Y5576099D01*
X13769285Y5576099D02*
X14055000Y5576099D01*
X14055000Y5576099D02*
X14283571Y5518956D01*
X14283571Y5518956D02*
X14397857Y5461813D01*
X14397857Y5461813D02*
X14455000Y5404671D01*
X14455000Y5404671D02*
X14512142Y5290385D01*
X14512142Y5290385D02*
X14512142Y5176099D01*
X14512142Y5176099D02*
X14455000Y5061813D01*
X14455000Y5061813D02*
X14397857Y5004671D01*
X14397857Y5004671D02*
X14283571Y4947528D01*
X14283571Y4947528D02*
X14055000Y4890385D01*
X14055000Y4890385D02*
X13769285Y4890385D01*
X13769285Y4890385D02*
X13540714Y4947528D01*
X13540714Y4947528D02*
X13426428Y5004671D01*
X13426428Y5004671D02*
X13369285Y5061813D01*
X13369285Y5061813D02*
X13312142Y5176099D01*
X13312142Y6604670D02*
X13312142Y6376099D01*
X13312142Y6376099D02*
X13369285Y6261813D01*
X13369285Y6261813D02*
X13426428Y6204670D01*
X13426428Y6204670D02*
X13597857Y6090385D01*
X13597857Y6090385D02*
X13826428Y6033242D01*
X13826428Y6033242D02*
X14283571Y6033242D01*
X14283571Y6033242D02*
X14397857Y6090385D01*
X14397857Y6090385D02*
X14455000Y6147528D01*
X14455000Y6147528D02*
X14512142Y6261813D01*
X14512142Y6261813D02*
X14512142Y6490385D01*
X14512142Y6490385D02*
X14455000Y6604670D01*
X14455000Y6604670D02*
X14397857Y6661813D01*
X14397857Y6661813D02*
X14283571Y6718956D01*
X14283571Y6718956D02*
X13997857Y6718956D01*
X13997857Y6718956D02*
X13883571Y6661813D01*
X13883571Y6661813D02*
X13826428Y6604670D01*
X13826428Y6604670D02*
X13769285Y6490385D01*
X13769285Y6490385D02*
X13769285Y6261813D01*
X13769285Y6261813D02*
X13826428Y6147528D01*
X13826428Y6147528D02*
X13883571Y6090385D01*
X13883571Y6090385D02*
X13997857Y6033242D01*
X23402142Y16037429D02*
X22202142Y16037429D01*
X22202142Y16037429D02*
X23059285Y16437429D01*
X23059285Y16437429D02*
X22202142Y16837429D01*
X22202142Y16837429D02*
X23402142Y16837429D01*
X22202142Y17637429D02*
X22202142Y17866001D01*
X22202142Y17866001D02*
X22259285Y17980286D01*
X22259285Y17980286D02*
X22373571Y18094572D01*
X22373571Y18094572D02*
X22602142Y18151715D01*
X22602142Y18151715D02*
X23002142Y18151715D01*
X23002142Y18151715D02*
X23230714Y18094572D01*
X23230714Y18094572D02*
X23345000Y17980286D01*
X23345000Y17980286D02*
X23402142Y17866001D01*
X23402142Y17866001D02*
X23402142Y17637429D01*
X23402142Y17637429D02*
X23345000Y17523143D01*
X23345000Y17523143D02*
X23230714Y17408858D01*
X23230714Y17408858D02*
X23002142Y17351715D01*
X23002142Y17351715D02*
X22602142Y17351715D01*
X22602142Y17351715D02*
X22373571Y17408858D01*
X22373571Y17408858D02*
X22259285Y17523143D01*
X22259285Y17523143D02*
X22202142Y17637429D01*
X23345000Y18608858D02*
X23402142Y18780286D01*
X23402142Y18780286D02*
X23402142Y19066001D01*
X23402142Y19066001D02*
X23345000Y19180286D01*
X23345000Y19180286D02*
X23287857Y19237429D01*
X23287857Y19237429D02*
X23173571Y19294572D01*
X23173571Y19294572D02*
X23059285Y19294572D01*
X23059285Y19294572D02*
X22945000Y19237429D01*
X22945000Y19237429D02*
X22887857Y19180286D01*
X22887857Y19180286D02*
X22830714Y19066001D01*
X22830714Y19066001D02*
X22773571Y18837429D01*
X22773571Y18837429D02*
X22716428Y18723144D01*
X22716428Y18723144D02*
X22659285Y18666001D01*
X22659285Y18666001D02*
X22545000Y18608858D01*
X22545000Y18608858D02*
X22430714Y18608858D01*
X22430714Y18608858D02*
X22316428Y18666001D01*
X22316428Y18666001D02*
X22259285Y18723144D01*
X22259285Y18723144D02*
X22202142Y18837429D01*
X22202142Y18837429D02*
X22202142Y19123144D01*
X22202142Y19123144D02*
X22259285Y19294572D01*
X23402142Y19808858D02*
X22202142Y19808858D01*
X23345000Y21237430D02*
X23402142Y21408858D01*
X23402142Y21408858D02*
X23402142Y21694573D01*
X23402142Y21694573D02*
X23345000Y21808858D01*
X23345000Y21808858D02*
X23287857Y21866001D01*
X23287857Y21866001D02*
X23173571Y21923144D01*
X23173571Y21923144D02*
X23059285Y21923144D01*
X23059285Y21923144D02*
X22945000Y21866001D01*
X22945000Y21866001D02*
X22887857Y21808858D01*
X22887857Y21808858D02*
X22830714Y21694573D01*
X22830714Y21694573D02*
X22773571Y21466001D01*
X22773571Y21466001D02*
X22716428Y21351716D01*
X22716428Y21351716D02*
X22659285Y21294573D01*
X22659285Y21294573D02*
X22545000Y21237430D01*
X22545000Y21237430D02*
X22430714Y21237430D01*
X22430714Y21237430D02*
X22316428Y21294573D01*
X22316428Y21294573D02*
X22259285Y21351716D01*
X22259285Y21351716D02*
X22202142Y21466001D01*
X22202142Y21466001D02*
X22202142Y21751716D01*
X22202142Y21751716D02*
X22259285Y21923144D01*
X23402142Y22437430D02*
X22202142Y22437430D01*
X22202142Y22437430D02*
X22202142Y22723144D01*
X22202142Y22723144D02*
X22259285Y22894573D01*
X22259285Y22894573D02*
X22373571Y23008858D01*
X22373571Y23008858D02*
X22487857Y23066001D01*
X22487857Y23066001D02*
X22716428Y23123144D01*
X22716428Y23123144D02*
X22887857Y23123144D01*
X22887857Y23123144D02*
X23116428Y23066001D01*
X23116428Y23066001D02*
X23230714Y23008858D01*
X23230714Y23008858D02*
X23345000Y22894573D01*
X23345000Y22894573D02*
X23402142Y22723144D01*
X23402142Y22723144D02*
X23402142Y22437430D01*
X23059285Y23580287D02*
X23059285Y24151715D01*
X23402142Y23466001D02*
X22202142Y23866001D01*
X22202142Y23866001D02*
X23402142Y24266001D01*
X20908404Y1685097D02*
X19608404Y1685097D01*
X19608404Y1685097D02*
X19608404Y2161287D01*
X19608404Y2161287D02*
X19670309Y2280335D01*
X19670309Y2280335D02*
X19732214Y2339858D01*
X19732214Y2339858D02*
X19856023Y2399382D01*
X19856023Y2399382D02*
X20041738Y2399382D01*
X20041738Y2399382D02*
X20165547Y2339858D01*
X20165547Y2339858D02*
X20227452Y2280335D01*
X20227452Y2280335D02*
X20289357Y2161287D01*
X20289357Y2161287D02*
X20289357Y1685097D01*
X19608404Y3173192D02*
X19608404Y3411287D01*
X19608404Y3411287D02*
X19670309Y3530335D01*
X19670309Y3530335D02*
X19794119Y3649382D01*
X19794119Y3649382D02*
X20041738Y3708906D01*
X20041738Y3708906D02*
X20475071Y3708906D01*
X20475071Y3708906D02*
X20722690Y3649382D01*
X20722690Y3649382D02*
X20846500Y3530335D01*
X20846500Y3530335D02*
X20908404Y3411287D01*
X20908404Y3411287D02*
X20908404Y3173192D01*
X20908404Y3173192D02*
X20846500Y3054144D01*
X20846500Y3054144D02*
X20722690Y2935097D01*
X20722690Y2935097D02*
X20475071Y2875573D01*
X20475071Y2875573D02*
X20041738Y2875573D01*
X20041738Y2875573D02*
X19794119Y2935097D01*
X19794119Y2935097D02*
X19670309Y3054144D01*
X19670309Y3054144D02*
X19608404Y3173192D01*
X19608404Y4125573D02*
X20908404Y4423192D01*
X20908404Y4423192D02*
X19979833Y4661287D01*
X19979833Y4661287D02*
X20908404Y4899382D01*
X20908404Y4899382D02*
X19608404Y5197001D01*
X20227452Y5673192D02*
X20227452Y6089858D01*
X20908404Y6268430D02*
X20908404Y5673192D01*
X20908404Y5673192D02*
X19608404Y5673192D01*
X19608404Y5673192D02*
X19608404Y6268430D01*
X20908404Y7518429D02*
X20289357Y7101763D01*
X20908404Y6804144D02*
X19608404Y6804144D01*
X19608404Y6804144D02*
X19608404Y7280334D01*
X19608404Y7280334D02*
X19670309Y7399382D01*
X19670309Y7399382D02*
X19732214Y7458905D01*
X19732214Y7458905D02*
X19856023Y7518429D01*
X19856023Y7518429D02*
X20041738Y7518429D01*
X20041738Y7518429D02*
X20165547Y7458905D01*
X20165547Y7458905D02*
X20227452Y7399382D01*
X20227452Y7399382D02*
X20289357Y7280334D01*
X20289357Y7280334D02*
X20289357Y6804144D01*
X19662142Y21431430D02*
X20862142Y21831430D01*
X20862142Y21831430D02*
X19662142Y22231430D01*
X20805000Y23145715D02*
X20862142Y23031430D01*
X20862142Y23031430D02*
X20862142Y22802858D01*
X20862142Y22802858D02*
X20805000Y22688573D01*
X20805000Y22688573D02*
X20747857Y22631430D01*
X20747857Y22631430D02*
X20633571Y22574287D01*
X20633571Y22574287D02*
X20290714Y22574287D01*
X20290714Y22574287D02*
X20176428Y22631430D01*
X20176428Y22631430D02*
X20119285Y22688573D01*
X20119285Y22688573D02*
X20062142Y22802858D01*
X20062142Y22802858D02*
X20062142Y23031430D01*
X20062142Y23031430D02*
X20119285Y23145715D01*
X20805000Y24174286D02*
X20862142Y24060001D01*
X20862142Y24060001D02*
X20862142Y23831429D01*
X20862142Y23831429D02*
X20805000Y23717144D01*
X20805000Y23717144D02*
X20747857Y23660001D01*
X20747857Y23660001D02*
X20633571Y23602858D01*
X20633571Y23602858D02*
X20290714Y23602858D01*
X20290714Y23602858D02*
X20176428Y23660001D01*
X20176428Y23660001D02*
X20119285Y23717144D01*
X20119285Y23717144D02*
X20062142Y23831429D01*
X20062142Y23831429D02*
X20062142Y24060001D01*
X20062142Y24060001D02*
X20119285Y24174286D01*
X31923857Y18088001D02*
X31981000Y18030858D01*
X31981000Y18030858D02*
X32038142Y17859430D01*
X32038142Y17859430D02*
X32038142Y17745144D01*
X32038142Y17745144D02*
X31981000Y17573715D01*
X31981000Y17573715D02*
X31866714Y17459430D01*
X31866714Y17459430D02*
X31752428Y17402287D01*
X31752428Y17402287D02*
X31523857Y17345144D01*
X31523857Y17345144D02*
X31352428Y17345144D01*
X31352428Y17345144D02*
X31123857Y17402287D01*
X31123857Y17402287D02*
X31009571Y17459430D01*
X31009571Y17459430D02*
X30895285Y17573715D01*
X30895285Y17573715D02*
X30838142Y17745144D01*
X30838142Y17745144D02*
X30838142Y17859430D01*
X30838142Y17859430D02*
X30895285Y18030858D01*
X30895285Y18030858D02*
X30952428Y18088001D01*
X31981000Y18545144D02*
X32038142Y18716572D01*
X32038142Y18716572D02*
X32038142Y19002287D01*
X32038142Y19002287D02*
X31981000Y19116572D01*
X31981000Y19116572D02*
X31923857Y19173715D01*
X31923857Y19173715D02*
X31809571Y19230858D01*
X31809571Y19230858D02*
X31695285Y19230858D01*
X31695285Y19230858D02*
X31581000Y19173715D01*
X31581000Y19173715D02*
X31523857Y19116572D01*
X31523857Y19116572D02*
X31466714Y19002287D01*
X31466714Y19002287D02*
X31409571Y18773715D01*
X31409571Y18773715D02*
X31352428Y18659430D01*
X31352428Y18659430D02*
X31295285Y18602287D01*
X31295285Y18602287D02*
X31181000Y18545144D01*
X31181000Y18545144D02*
X31066714Y18545144D01*
X31066714Y18545144D02*
X30952428Y18602287D01*
X30952428Y18602287D02*
X30895285Y18659430D01*
X30895285Y18659430D02*
X30838142Y18773715D01*
X30838142Y18773715D02*
X30838142Y19059430D01*
X30838142Y19059430D02*
X30895285Y19230858D01*
D12*
X6266328Y11386857D02*
X4766328Y11386857D01*
X4766328Y11386857D02*
X5837757Y11886857D01*
X5837757Y11886857D02*
X4766328Y12386857D01*
X4766328Y12386857D02*
X6266328Y12386857D01*
X6266328Y13815429D02*
X6266328Y13101143D01*
X6266328Y13101143D02*
X4766328Y13101143D01*
X5837757Y14244001D02*
X5837757Y14958286D01*
X6266328Y14101144D02*
X4766328Y14601144D01*
X4766328Y14601144D02*
X6266328Y15101144D01*
X5480614Y16101143D02*
X5552042Y16315429D01*
X5552042Y16315429D02*
X5623471Y16386858D01*
X5623471Y16386858D02*
X5766328Y16458286D01*
X5766328Y16458286D02*
X5980614Y16458286D01*
X5980614Y16458286D02*
X6123471Y16386858D01*
X6123471Y16386858D02*
X6194900Y16315429D01*
X6194900Y16315429D02*
X6266328Y16172572D01*
X6266328Y16172572D02*
X6266328Y15601143D01*
X6266328Y15601143D02*
X4766328Y15601143D01*
X4766328Y15601143D02*
X4766328Y16101143D01*
X4766328Y16101143D02*
X4837757Y16244000D01*
X4837757Y16244000D02*
X4909185Y16315429D01*
X4909185Y16315429D02*
X5052042Y16386858D01*
X5052042Y16386858D02*
X5194900Y16386858D01*
X5194900Y16386858D02*
X5337757Y16315429D01*
X5337757Y16315429D02*
X5409185Y16244000D01*
X5409185Y16244000D02*
X5480614Y16101143D01*
X5480614Y16101143D02*
X5480614Y15601143D01*
X6123471Y17101143D02*
X6194900Y17172572D01*
X6194900Y17172572D02*
X6266328Y17101143D01*
X6266328Y17101143D02*
X6194900Y17029715D01*
X6194900Y17029715D02*
X6123471Y17101143D01*
X6123471Y17101143D02*
X6266328Y17101143D01*
X6194900Y18458286D02*
X6266328Y18315429D01*
X6266328Y18315429D02*
X6266328Y18029715D01*
X6266328Y18029715D02*
X6194900Y17886858D01*
X6194900Y17886858D02*
X6123471Y17815429D01*
X6123471Y17815429D02*
X5980614Y17744001D01*
X5980614Y17744001D02*
X5552042Y17744001D01*
X5552042Y17744001D02*
X5409185Y17815429D01*
X5409185Y17815429D02*
X5337757Y17886858D01*
X5337757Y17886858D02*
X5266328Y18029715D01*
X5266328Y18029715D02*
X5266328Y18315429D01*
X5266328Y18315429D02*
X5337757Y18458286D01*
X5266328Y18958286D02*
X5266328Y19744000D01*
X5266328Y19744000D02*
X6266328Y18958286D01*
X6266328Y18958286D02*
X6266328Y19744000D01*
D11*
X14639285Y21691715D02*
X14582142Y21577429D01*
X14582142Y21577429D02*
X14582142Y21406001D01*
X14582142Y21406001D02*
X14639285Y21234572D01*
X14639285Y21234572D02*
X14753571Y21120287D01*
X14753571Y21120287D02*
X14867857Y21063144D01*
X14867857Y21063144D02*
X15096428Y21006001D01*
X15096428Y21006001D02*
X15267857Y21006001D01*
X15267857Y21006001D02*
X15496428Y21063144D01*
X15496428Y21063144D02*
X15610714Y21120287D01*
X15610714Y21120287D02*
X15725000Y21234572D01*
X15725000Y21234572D02*
X15782142Y21406001D01*
X15782142Y21406001D02*
X15782142Y21520287D01*
X15782142Y21520287D02*
X15725000Y21691715D01*
X15725000Y21691715D02*
X15667857Y21748858D01*
X15667857Y21748858D02*
X15267857Y21748858D01*
X15267857Y21748858D02*
X15267857Y21520287D01*
X15782142Y22263144D02*
X14582142Y22263144D01*
X14582142Y22263144D02*
X15782142Y22948858D01*
X15782142Y22948858D02*
X14582142Y22948858D01*
X15782142Y23520287D02*
X14582142Y23520287D01*
X14582142Y23520287D02*
X14582142Y23806001D01*
X14582142Y23806001D02*
X14639285Y23977430D01*
X14639285Y23977430D02*
X14753571Y24091715D01*
X14753571Y24091715D02*
X14867857Y24148858D01*
X14867857Y24148858D02*
X15096428Y24206001D01*
X15096428Y24206001D02*
X15267857Y24206001D01*
X15267857Y24206001D02*
X15496428Y24148858D01*
X15496428Y24148858D02*
X15610714Y24091715D01*
X15610714Y24091715D02*
X15725000Y23977430D01*
X15725000Y23977430D02*
X15782142Y23806001D01*
X15782142Y23806001D02*
X15782142Y23520287D01*
D13*
X9865990Y8744000D02*
X9865990Y8029714D01*
X9865990Y8029714D02*
X8265990Y8029714D01*
X9865990Y9244000D02*
X8265990Y9244000D01*
X8342180Y10744001D02*
X8265990Y10601143D01*
X8265990Y10601143D02*
X8265990Y10386858D01*
X8265990Y10386858D02*
X8342180Y10172572D01*
X8342180Y10172572D02*
X8494561Y10029715D01*
X8494561Y10029715D02*
X8646942Y9958286D01*
X8646942Y9958286D02*
X8951704Y9886858D01*
X8951704Y9886858D02*
X9180276Y9886858D01*
X9180276Y9886858D02*
X9485038Y9958286D01*
X9485038Y9958286D02*
X9637419Y10029715D01*
X9637419Y10029715D02*
X9789800Y10172572D01*
X9789800Y10172572D02*
X9865990Y10386858D01*
X9865990Y10386858D02*
X9865990Y10529715D01*
X9865990Y10529715D02*
X9789800Y10744001D01*
X9789800Y10744001D02*
X9713609Y10815429D01*
X9713609Y10815429D02*
X9180276Y10815429D01*
X9180276Y10815429D02*
X9180276Y10529715D01*
X9865990Y11458286D02*
X8265990Y11458286D01*
X9027895Y11458286D02*
X9027895Y12315429D01*
X9865990Y12315429D02*
X8265990Y12315429D01*
X8265990Y12815430D02*
X8265990Y13672572D01*
X9865990Y13244001D02*
X8265990Y13244001D01*
X9865990Y14172572D02*
X8265990Y14172572D01*
X8265990Y14172572D02*
X9865990Y15029715D01*
X9865990Y15029715D02*
X8265990Y15029715D01*
X9865990Y15744001D02*
X8265990Y15744001D01*
X9865990Y16458287D02*
X8265990Y16458287D01*
X8265990Y16458287D02*
X9865990Y17315430D01*
X9865990Y17315430D02*
X8265990Y17315430D01*
X8342180Y18815431D02*
X8265990Y18672573D01*
X8265990Y18672573D02*
X8265990Y18458288D01*
X8265990Y18458288D02*
X8342180Y18244002D01*
X8342180Y18244002D02*
X8494561Y18101145D01*
X8494561Y18101145D02*
X8646942Y18029716D01*
X8646942Y18029716D02*
X8951704Y17958288D01*
X8951704Y17958288D02*
X9180276Y17958288D01*
X9180276Y17958288D02*
X9485038Y18029716D01*
X9485038Y18029716D02*
X9637419Y18101145D01*
X9637419Y18101145D02*
X9789800Y18244002D01*
X9789800Y18244002D02*
X9865990Y18458288D01*
X9865990Y18458288D02*
X9865990Y18601145D01*
X9865990Y18601145D02*
X9789800Y18815431D01*
X9789800Y18815431D02*
X9713609Y18886859D01*
X9713609Y18886859D02*
X9180276Y18886859D01*
X9180276Y18886859D02*
X9180276Y18601145D01*
X8265990Y19815431D02*
X8265990Y19958288D01*
X8265990Y19958288D02*
X8342180Y20101145D01*
X8342180Y20101145D02*
X8418371Y20172573D01*
X8418371Y20172573D02*
X8570752Y20244002D01*
X8570752Y20244002D02*
X8875514Y20315431D01*
X8875514Y20315431D02*
X9256466Y20315431D01*
X9256466Y20315431D02*
X9561228Y20244002D01*
X9561228Y20244002D02*
X9713609Y20172573D01*
X9713609Y20172573D02*
X9789800Y20101145D01*
X9789800Y20101145D02*
X9865990Y19958288D01*
X9865990Y19958288D02*
X9865990Y19815431D01*
X9865990Y19815431D02*
X9789800Y19672573D01*
X9789800Y19672573D02*
X9713609Y19601145D01*
X9713609Y19601145D02*
X9561228Y19529716D01*
X9561228Y19529716D02*
X9256466Y19458288D01*
X9256466Y19458288D02*
X8875514Y19458288D01*
X8875514Y19458288D02*
X8570752Y19529716D01*
X8570752Y19529716D02*
X8418371Y19601145D01*
X8418371Y19601145D02*
X8342180Y19672573D01*
X8342180Y19672573D02*
X8265990Y19815431D01*
X9865990Y21744002D02*
X9865990Y20886859D01*
X9865990Y21315430D02*
X8265990Y21315430D01*
X8265990Y21315430D02*
X8494561Y21172573D01*
X8494561Y21172573D02*
X8646942Y21029716D01*
X8646942Y21029716D02*
X8723133Y20886859D01*
X9408847Y22315430D02*
X9408847Y23029715D01*
X9865990Y22172573D02*
X8265990Y22672573D01*
X8265990Y22672573D02*
X9865990Y23172573D01*
D11*
X16582285Y7594858D02*
X16582285Y8166286D01*
X16925142Y7480572D02*
X15725142Y7880572D01*
X15725142Y7880572D02*
X16925142Y8280572D01*
X16925142Y8680572D02*
X15725142Y8680572D01*
X15725142Y8680572D02*
X15725142Y8966286D01*
X15725142Y8966286D02*
X15782285Y9137715D01*
X15782285Y9137715D02*
X15896571Y9252000D01*
X15896571Y9252000D02*
X16010857Y9309143D01*
X16010857Y9309143D02*
X16239428Y9366286D01*
X16239428Y9366286D02*
X16410857Y9366286D01*
X16410857Y9366286D02*
X16639428Y9309143D01*
X16639428Y9309143D02*
X16753714Y9252000D01*
X16753714Y9252000D02*
X16868000Y9137715D01*
X16868000Y9137715D02*
X16925142Y8966286D01*
X16925142Y8966286D02*
X16925142Y8680572D01*
X16925142Y9880572D02*
X15725142Y9880572D01*
X15725142Y9880572D02*
X15725142Y10166286D01*
X15725142Y10166286D02*
X15782285Y10337715D01*
X15782285Y10337715D02*
X15896571Y10452000D01*
X15896571Y10452000D02*
X16010857Y10509143D01*
X16010857Y10509143D02*
X16239428Y10566286D01*
X16239428Y10566286D02*
X16410857Y10566286D01*
X16410857Y10566286D02*
X16639428Y10509143D01*
X16639428Y10509143D02*
X16753714Y10452000D01*
X16753714Y10452000D02*
X16868000Y10337715D01*
X16868000Y10337715D02*
X16925142Y10166286D01*
X16925142Y10166286D02*
X16925142Y9880572D01*
X15725142Y11309143D02*
X15725142Y11423429D01*
X15725142Y11423429D02*
X15782285Y11537715D01*
X15782285Y11537715D02*
X15839428Y11594857D01*
X15839428Y11594857D02*
X15953714Y11652000D01*
X15953714Y11652000D02*
X16182285Y11709143D01*
X16182285Y11709143D02*
X16468000Y11709143D01*
X16468000Y11709143D02*
X16696571Y11652000D01*
X16696571Y11652000D02*
X16810857Y11594857D01*
X16810857Y11594857D02*
X16868000Y11537715D01*
X16868000Y11537715D02*
X16925142Y11423429D01*
X16925142Y11423429D02*
X16925142Y11309143D01*
X16925142Y11309143D02*
X16868000Y11194857D01*
X16868000Y11194857D02*
X16810857Y11137715D01*
X16810857Y11137715D02*
X16696571Y11080572D01*
X16696571Y11080572D02*
X16468000Y11023429D01*
X16468000Y11023429D02*
X16182285Y11023429D01*
X16182285Y11023429D02*
X15953714Y11080572D01*
X15953714Y11080572D02*
X15839428Y11137715D01*
X15839428Y11137715D02*
X15782285Y11194857D01*
X15782285Y11194857D02*
X15725142Y11309143D01*
X12365857Y1347527D02*
X12423000Y1404670D01*
X12423000Y1404670D02*
X12480142Y1347527D01*
X12480142Y1347527D02*
X12423000Y1290384D01*
X12423000Y1290384D02*
X12365857Y1347527D01*
X12365857Y1347527D02*
X12480142Y1347527D01*
X11737285Y1347527D02*
X11794428Y1404670D01*
X11794428Y1404670D02*
X11851571Y1347527D01*
X11851571Y1347527D02*
X11794428Y1290384D01*
X11794428Y1290384D02*
X11737285Y1347527D01*
X11737285Y1347527D02*
X11851571Y1347527D01*
X11280142Y3061813D02*
X11280142Y3176099D01*
X11280142Y3176099D02*
X11337285Y3290385D01*
X11337285Y3290385D02*
X11394428Y3347527D01*
X11394428Y3347527D02*
X11508714Y3404670D01*
X11508714Y3404670D02*
X11737285Y3461813D01*
X11737285Y3461813D02*
X12023000Y3461813D01*
X12023000Y3461813D02*
X12251571Y3404670D01*
X12251571Y3404670D02*
X12365857Y3347527D01*
X12365857Y3347527D02*
X12423000Y3290385D01*
X12423000Y3290385D02*
X12480142Y3176099D01*
X12480142Y3176099D02*
X12480142Y3061813D01*
X12480142Y3061813D02*
X12423000Y2947527D01*
X12423000Y2947527D02*
X12365857Y2890385D01*
X12365857Y2890385D02*
X12251571Y2833242D01*
X12251571Y2833242D02*
X12023000Y2776099D01*
X12023000Y2776099D02*
X11737285Y2776099D01*
X11737285Y2776099D02*
X11508714Y2833242D01*
X11508714Y2833242D02*
X11394428Y2890385D01*
X11394428Y2890385D02*
X11337285Y2947527D01*
X11337285Y2947527D02*
X11280142Y3061813D01*
X12480142Y3861813D02*
X11680142Y4490384D01*
X11680142Y3861813D02*
X12480142Y4490384D01*
X11280142Y5176099D02*
X11280142Y5290385D01*
X11280142Y5290385D02*
X11337285Y5404671D01*
X11337285Y5404671D02*
X11394428Y5461813D01*
X11394428Y5461813D02*
X11508714Y5518956D01*
X11508714Y5518956D02*
X11737285Y5576099D01*
X11737285Y5576099D02*
X12023000Y5576099D01*
X12023000Y5576099D02*
X12251571Y5518956D01*
X12251571Y5518956D02*
X12365857Y5461813D01*
X12365857Y5461813D02*
X12423000Y5404671D01*
X12423000Y5404671D02*
X12480142Y5290385D01*
X12480142Y5290385D02*
X12480142Y5176099D01*
X12480142Y5176099D02*
X12423000Y5061813D01*
X12423000Y5061813D02*
X12365857Y5004671D01*
X12365857Y5004671D02*
X12251571Y4947528D01*
X12251571Y4947528D02*
X12023000Y4890385D01*
X12023000Y4890385D02*
X11737285Y4890385D01*
X11737285Y4890385D02*
X11508714Y4947528D01*
X11508714Y4947528D02*
X11394428Y5004671D01*
X11394428Y5004671D02*
X11337285Y5061813D01*
X11337285Y5061813D02*
X11280142Y5176099D01*
X11680142Y6604670D02*
X12480142Y6604670D01*
X11223000Y6318956D02*
X12080142Y6033242D01*
X12080142Y6033242D02*
X12080142Y6776099D01*
X30514142Y20466286D02*
X29314142Y20466286D01*
X29314142Y20466286D02*
X30171285Y20866286D01*
X30171285Y20866286D02*
X29314142Y21266286D01*
X29314142Y21266286D02*
X30514142Y21266286D01*
X30514142Y21837715D02*
X29314142Y21837715D01*
X30457000Y22352001D02*
X30514142Y22523429D01*
X30514142Y22523429D02*
X30514142Y22809144D01*
X30514142Y22809144D02*
X30457000Y22923429D01*
X30457000Y22923429D02*
X30399857Y22980572D01*
X30399857Y22980572D02*
X30285571Y23037715D01*
X30285571Y23037715D02*
X30171285Y23037715D01*
X30171285Y23037715D02*
X30057000Y22980572D01*
X30057000Y22980572D02*
X29999857Y22923429D01*
X29999857Y22923429D02*
X29942714Y22809144D01*
X29942714Y22809144D02*
X29885571Y22580572D01*
X29885571Y22580572D02*
X29828428Y22466287D01*
X29828428Y22466287D02*
X29771285Y22409144D01*
X29771285Y22409144D02*
X29657000Y22352001D01*
X29657000Y22352001D02*
X29542714Y22352001D01*
X29542714Y22352001D02*
X29428428Y22409144D01*
X29428428Y22409144D02*
X29371285Y22466287D01*
X29371285Y22466287D02*
X29314142Y22580572D01*
X29314142Y22580572D02*
X29314142Y22866287D01*
X29314142Y22866287D02*
X29371285Y23037715D01*
X29314142Y23780572D02*
X29314142Y24009144D01*
X29314142Y24009144D02*
X29371285Y24123429D01*
X29371285Y24123429D02*
X29485571Y24237715D01*
X29485571Y24237715D02*
X29714142Y24294858D01*
X29714142Y24294858D02*
X30114142Y24294858D01*
X30114142Y24294858D02*
X30342714Y24237715D01*
X30342714Y24237715D02*
X30457000Y24123429D01*
X30457000Y24123429D02*
X30514142Y24009144D01*
X30514142Y24009144D02*
X30514142Y23780572D01*
X30514142Y23780572D02*
X30457000Y23666286D01*
X30457000Y23666286D02*
X30342714Y23552001D01*
X30342714Y23552001D02*
X30114142Y23494858D01*
X30114142Y23494858D02*
X29714142Y23494858D01*
X29714142Y23494858D02*
X29485571Y23552001D01*
X29485571Y23552001D02*
X29371285Y23666286D01*
X29371285Y23666286D02*
X29314142Y23780572D01*
X32038142Y13503429D02*
X30838142Y13503429D01*
X32038142Y14760572D02*
X31466714Y14360572D01*
X32038142Y14074858D02*
X30838142Y14074858D01*
X30838142Y14074858D02*
X30838142Y14532001D01*
X30838142Y14532001D02*
X30895285Y14646286D01*
X30895285Y14646286D02*
X30952428Y14703429D01*
X30952428Y14703429D02*
X31066714Y14760572D01*
X31066714Y14760572D02*
X31238142Y14760572D01*
X31238142Y14760572D02*
X31352428Y14703429D01*
X31352428Y14703429D02*
X31409571Y14646286D01*
X31409571Y14646286D02*
X31466714Y14532001D01*
X31466714Y14532001D02*
X31466714Y14074858D01*
X32152428Y16074858D02*
X32095285Y15960572D01*
X32095285Y15960572D02*
X31981000Y15846286D01*
X31981000Y15846286D02*
X31809571Y15674858D01*
X31809571Y15674858D02*
X31752428Y15560572D01*
X31752428Y15560572D02*
X31752428Y15446286D01*
X32038142Y15503429D02*
X31981000Y15389143D01*
X31981000Y15389143D02*
X31866714Y15274858D01*
X31866714Y15274858D02*
X31638142Y15217715D01*
X31638142Y15217715D02*
X31238142Y15217715D01*
X31238142Y15217715D02*
X31009571Y15274858D01*
X31009571Y15274858D02*
X30895285Y15389143D01*
X30895285Y15389143D02*
X30838142Y15503429D01*
X30838142Y15503429D02*
X30838142Y15732001D01*
X30838142Y15732001D02*
X30895285Y15846286D01*
X30895285Y15846286D02*
X31009571Y15960572D01*
X31009571Y15960572D02*
X31238142Y16017715D01*
X31238142Y16017715D02*
X31638142Y16017715D01*
X31638142Y16017715D02*
X31866714Y15960572D01*
X31866714Y15960572D02*
X31981000Y15846286D01*
X31981000Y15846286D02*
X32038142Y15732001D01*
X32038142Y15732001D02*
X32038142Y15503429D01*
D10*
X38022814Y8439430D02*
X37960909Y8501334D01*
X37960909Y8501334D02*
X37899004Y8625144D01*
X37899004Y8625144D02*
X37899004Y8934668D01*
X37899004Y8934668D02*
X37960909Y9058477D01*
X37960909Y9058477D02*
X38022814Y9120382D01*
X38022814Y9120382D02*
X38146623Y9182287D01*
X38146623Y9182287D02*
X38270433Y9182287D01*
X38270433Y9182287D02*
X38456147Y9120382D01*
X38456147Y9120382D02*
X39199004Y8377525D01*
X39199004Y8377525D02*
X39199004Y9182287D01*
X37899004Y9987048D02*
X37899004Y10110858D01*
X37899004Y10110858D02*
X37960909Y10234667D01*
X37960909Y10234667D02*
X38022814Y10296572D01*
X38022814Y10296572D02*
X38146623Y10358477D01*
X38146623Y10358477D02*
X38394242Y10420382D01*
X38394242Y10420382D02*
X38703766Y10420382D01*
X38703766Y10420382D02*
X38951385Y10358477D01*
X38951385Y10358477D02*
X39075195Y10296572D01*
X39075195Y10296572D02*
X39137100Y10234667D01*
X39137100Y10234667D02*
X39199004Y10110858D01*
X39199004Y10110858D02*
X39199004Y9987048D01*
X39199004Y9987048D02*
X39137100Y9863239D01*
X39137100Y9863239D02*
X39075195Y9801334D01*
X39075195Y9801334D02*
X38951385Y9739429D01*
X38951385Y9739429D02*
X38703766Y9677525D01*
X38703766Y9677525D02*
X38394242Y9677525D01*
X38394242Y9677525D02*
X38146623Y9739429D01*
X38146623Y9739429D02*
X38022814Y9801334D01*
X38022814Y9801334D02*
X37960909Y9863239D01*
X37960909Y9863239D02*
X37899004Y9987048D01*
X39199004Y11658477D02*
X39199004Y10915620D01*
X39199004Y11287048D02*
X37899004Y11287048D01*
X37899004Y11287048D02*
X38084719Y11163239D01*
X38084719Y11163239D02*
X38208528Y11039429D01*
X38208528Y11039429D02*
X38270433Y10915620D01*
X38456147Y12401334D02*
X38394242Y12277524D01*
X38394242Y12277524D02*
X38332338Y12215619D01*
X38332338Y12215619D02*
X38208528Y12153715D01*
X38208528Y12153715D02*
X38146623Y12153715D01*
X38146623Y12153715D02*
X38022814Y12215619D01*
X38022814Y12215619D02*
X37960909Y12277524D01*
X37960909Y12277524D02*
X37899004Y12401334D01*
X37899004Y12401334D02*
X37899004Y12648953D01*
X37899004Y12648953D02*
X37960909Y12772762D01*
X37960909Y12772762D02*
X38022814Y12834667D01*
X38022814Y12834667D02*
X38146623Y12896572D01*
X38146623Y12896572D02*
X38208528Y12896572D01*
X38208528Y12896572D02*
X38332338Y12834667D01*
X38332338Y12834667D02*
X38394242Y12772762D01*
X38394242Y12772762D02*
X38456147Y12648953D01*
X38456147Y12648953D02*
X38456147Y12401334D01*
X38456147Y12401334D02*
X38518052Y12277524D01*
X38518052Y12277524D02*
X38579957Y12215619D01*
X38579957Y12215619D02*
X38703766Y12153715D01*
X38703766Y12153715D02*
X38951385Y12153715D01*
X38951385Y12153715D02*
X39075195Y12215619D01*
X39075195Y12215619D02*
X39137100Y12277524D01*
X39137100Y12277524D02*
X39199004Y12401334D01*
X39199004Y12401334D02*
X39199004Y12648953D01*
X39199004Y12648953D02*
X39137100Y12772762D01*
X39137100Y12772762D02*
X39075195Y12834667D01*
X39075195Y12834667D02*
X38951385Y12896572D01*
X38951385Y12896572D02*
X38703766Y12896572D01*
X38703766Y12896572D02*
X38579957Y12834667D01*
X38579957Y12834667D02*
X38518052Y12772762D01*
X38518052Y12772762D02*
X38456147Y12648953D01*
D12*
X12207900Y11340001D02*
X12269804Y11525715D01*
X12269804Y11525715D02*
X12269804Y11835239D01*
X12269804Y11835239D02*
X12207900Y11959048D01*
X12207900Y11959048D02*
X12145995Y12020953D01*
X12145995Y12020953D02*
X12022185Y12082858D01*
X12022185Y12082858D02*
X11898376Y12082858D01*
X11898376Y12082858D02*
X11774566Y12020953D01*
X11774566Y12020953D02*
X11712661Y11959048D01*
X11712661Y11959048D02*
X11650757Y11835239D01*
X11650757Y11835239D02*
X11588852Y11587620D01*
X11588852Y11587620D02*
X11526947Y11463810D01*
X11526947Y11463810D02*
X11465042Y11401905D01*
X11465042Y11401905D02*
X11341233Y11340001D01*
X11341233Y11340001D02*
X11217423Y11340001D01*
X11217423Y11340001D02*
X11093614Y11401905D01*
X11093614Y11401905D02*
X11031709Y11463810D01*
X11031709Y11463810D02*
X10969804Y11587620D01*
X10969804Y11587620D02*
X10969804Y11897143D01*
X10969804Y11897143D02*
X11031709Y12082858D01*
X12269804Y12640000D02*
X10969804Y12640000D01*
X10969804Y12640000D02*
X10969804Y13135238D01*
X10969804Y13135238D02*
X11031709Y13259048D01*
X11031709Y13259048D02*
X11093614Y13320953D01*
X11093614Y13320953D02*
X11217423Y13382857D01*
X11217423Y13382857D02*
X11403138Y13382857D01*
X11403138Y13382857D02*
X11526947Y13320953D01*
X11526947Y13320953D02*
X11588852Y13259048D01*
X11588852Y13259048D02*
X11650757Y13135238D01*
X11650757Y13135238D02*
X11650757Y12640000D01*
X12269804Y13940000D02*
X10969804Y13940000D01*
X12269804Y16540000D02*
X10969804Y16540000D01*
X11093614Y17097144D02*
X11031709Y17159048D01*
X11031709Y17159048D02*
X10969804Y17282858D01*
X10969804Y17282858D02*
X10969804Y17592382D01*
X10969804Y17592382D02*
X11031709Y17716191D01*
X11031709Y17716191D02*
X11093614Y17778096D01*
X11093614Y17778096D02*
X11217423Y17840001D01*
X11217423Y17840001D02*
X11341233Y17840001D01*
X11341233Y17840001D02*
X11526947Y17778096D01*
X11526947Y17778096D02*
X12269804Y17035239D01*
X12269804Y17035239D02*
X12269804Y17840001D01*
X12145995Y19140000D02*
X12207900Y19078096D01*
X12207900Y19078096D02*
X12269804Y18892381D01*
X12269804Y18892381D02*
X12269804Y18768572D01*
X12269804Y18768572D02*
X12207900Y18582858D01*
X12207900Y18582858D02*
X12084090Y18459048D01*
X12084090Y18459048D02*
X11960280Y18397143D01*
X11960280Y18397143D02*
X11712661Y18335239D01*
X11712661Y18335239D02*
X11526947Y18335239D01*
X11526947Y18335239D02*
X11279328Y18397143D01*
X11279328Y18397143D02*
X11155519Y18459048D01*
X11155519Y18459048D02*
X11031709Y18582858D01*
X11031709Y18582858D02*
X10969804Y18768572D01*
X10969804Y18768572D02*
X10969804Y18892381D01*
X10969804Y18892381D02*
X11031709Y19078096D01*
X11031709Y19078096D02*
X11093614Y19140000D01*
D14*
%TO.C,J10*%
X28168709Y7508858D02*
X28168709Y7223144D01*
X28168709Y7366001D02*
X27668709Y7366001D01*
X27668709Y7366001D02*
X27740138Y7318382D01*
X27740138Y7318382D02*
X27787757Y7270763D01*
X27787757Y7270763D02*
X27811566Y7223144D01*
D15*
%TO.C,J1*%
X15240000Y6985000D02*
X17780000Y6985000D01*
X17780000Y1905000D02*
X15240000Y1905000D01*
X17780000Y6985000D02*
X17780000Y1905000D01*
X15240000Y1905000D02*
X15240000Y6985000D01*
%TO.C,J3*%
X30988000Y24638000D02*
X28448000Y24638000D01*
X28448000Y24638000D02*
X28448000Y29718000D01*
X30988000Y29718000D02*
X30988000Y24638000D01*
X28448000Y29718000D02*
X30988000Y29718000D01*
%TO.C,J4*%
X23876000Y29661327D02*
X23876000Y24581327D01*
X23876000Y24581327D02*
X21336000Y24581327D01*
X21336000Y24581327D02*
X21336000Y29661327D01*
X21336000Y29661327D02*
X23876000Y29661327D01*
%TO.C,J5*%
X16256000Y29661327D02*
X18796000Y29661327D01*
X16256000Y24581327D02*
X16256000Y29661327D01*
X18796000Y24581327D02*
X16256000Y24581327D01*
X18796000Y29661327D02*
X18796000Y24581327D01*
%TO.C,J6*%
X32766000Y16510000D02*
X37846000Y16510000D01*
X37846000Y16510000D02*
X37846000Y13970000D01*
X32766000Y13970000D02*
X32766000Y16510000D01*
X37846000Y13970000D02*
X32766000Y13970000D01*
%TO.C,J10*%
X21590000Y6985000D02*
X29210000Y6985000D01*
X29210000Y1905000D02*
X21590000Y1905000D01*
X21590000Y1905000D02*
X21590000Y6985000D01*
X29210000Y6985000D02*
X29210000Y1905000D01*
%TO.C,J8*%
X26416000Y24581327D02*
X23876000Y24581327D01*
X26416000Y29661327D02*
X26416000Y24581327D01*
X23876000Y24581327D02*
X23876000Y29661327D01*
X23876000Y29661327D02*
X26416000Y29661327D01*
%TO.C,J7*%
X21336000Y29661327D02*
X21336000Y24581327D01*
X18796000Y29661327D02*
X21336000Y29661327D01*
X18796000Y24581327D02*
X18796000Y29661327D01*
X21336000Y24581327D02*
X18796000Y24581327D01*
%TO.C,J9*%
X16256000Y29661327D02*
X16256000Y24581327D01*
X13716000Y29661327D02*
X16256000Y29661327D01*
X16256000Y24581327D02*
X13716000Y24581327D01*
X13716000Y24581327D02*
X13716000Y29661327D01*
%TO.C,J2*%
X37846000Y19050000D02*
X37846000Y16510000D01*
X32766000Y19050000D02*
X37846000Y19050000D01*
X37846000Y16510000D02*
X32766000Y16510000D01*
X32766000Y16510000D02*
X32766000Y19050000D01*
%TD*%
D16*
%TO.C,J1*%
X16510000Y5715000D03*
X16510000Y3175000D03*
%TD*%
%TO.C,J3*%
X29718000Y28448000D03*
X29718000Y25908000D03*
%TD*%
%TO.C,J4*%
X22606000Y28391327D03*
X22606000Y25851327D03*
%TD*%
%TO.C,J5*%
X17526000Y28391327D03*
X17526000Y25851327D03*
%TD*%
%TO.C,J6*%
X34036000Y15240000D03*
X36576000Y15240000D03*
%TD*%
%TO.C,J10*%
X27940000Y5715000D03*
X27940000Y3175000D03*
X25400000Y5715000D03*
X25400000Y3175000D03*
X22860000Y5715000D03*
X22860000Y3175000D03*
%TD*%
%TO.C,J8*%
X25146000Y25851327D03*
X25146000Y28391327D03*
%TD*%
%TO.C,J7*%
X20066000Y25851327D03*
X20066000Y28391327D03*
%TD*%
%TO.C,J9*%
X14986000Y25851327D03*
X14986000Y28391327D03*
%TD*%
%TO.C,J2*%
X34036000Y17780000D03*
X36576000Y17780000D03*
%TD*%
M02*
