%TF.GenerationSoftware,KiCad,Pcbnew,7.0.5.1-1-g8f565ef7f0-dirty-deb11*%
%TF.CreationDate,2023-07-05T14:59:33+00:00*%
%TF.ProjectId,LIGHTNING01,4c494748-544e-4494-9e47-30312e6b6963,01A*%
%TF.SameCoordinates,Original*%
%TF.FileFunction,Copper,L1,Top*%
%TF.FilePolarity,Positive*%
%FSLAX46Y46*%
G04 Gerber Fmt 4.6, Leading zero omitted, Abs format (unit mm)*
G04 Created by KiCad (PCBNEW 7.0.5.1-1-g8f565ef7f0-dirty-deb11) date 2023-07-05 14:59:33*
%MOMM*%
%LPD*%
G01*
G04 APERTURE LIST*
%TA.AperFunction,ComponentPad*%
%ADD10C,6.000000*%
%TD*%
%TA.AperFunction,ComponentPad*%
%ADD11R,1.524000X1.524000*%
%TD*%
%TA.AperFunction,ViaPad*%
%ADD12C,1.000000*%
%TD*%
%TA.AperFunction,ViaPad*%
%ADD13C,0.800000*%
%TD*%
%TA.AperFunction,Conductor*%
%ADD14C,0.700000*%
%TD*%
%TA.AperFunction,Conductor*%
%ADD15C,0.450000*%
%TD*%
G04 APERTURE END LIST*
D10*
%TO.P,M3,1*%
%TO.N,GND*%
X35560000Y5080000D03*
%TD*%
%TO.P,M1,1*%
%TO.N,GND*%
X5080000Y25400000D03*
%TD*%
%TO.P,M2,1*%
%TO.N,GND*%
X5080000Y5080000D03*
%TD*%
%TO.P,M4,1*%
%TO.N,GND*%
X35560000Y25400000D03*
%TD*%
D11*
%TO.P,J1,1*%
%TO.N,/ADR0*%
X16510000Y5715000D03*
%TO.P,J1,2*%
%TO.N,VCC*%
X16510000Y3175000D03*
%TD*%
%TO.P,J3,1*%
%TO.N,/MISO*%
X29718000Y28448000D03*
%TO.P,J3,2*%
X29718000Y25908000D03*
%TD*%
%TO.P,J4,1*%
%TO.N,/SDA_MOSI*%
X22606000Y28391327D03*
%TO.P,J4,2*%
X22606000Y25851327D03*
%TD*%
%TO.P,J5,1*%
%TO.N,/SCL*%
X17526000Y28391327D03*
%TO.P,J5,2*%
X17526000Y25851327D03*
%TD*%
%TO.P,J6,1*%
%TO.N,/IRQ*%
X34036000Y15240000D03*
%TO.P,J6,2*%
X36576000Y15240000D03*
%TD*%
%TO.P,J10,1*%
%TO.N,GND*%
X27940000Y5715000D03*
%TO.P,J10,2*%
X27940000Y3175000D03*
%TO.P,J10,3*%
%TO.N,VCC*%
X25400000Y5715000D03*
%TO.P,J10,4*%
X25400000Y3175000D03*
%TO.P,J10,5*%
%TO.N,GND*%
X22860000Y5715000D03*
%TO.P,J10,6*%
X22860000Y3175000D03*
%TD*%
%TO.P,J8,1*%
%TO.N,GND*%
X25146000Y25851327D03*
%TO.P,J8,2*%
X25146000Y28391327D03*
%TD*%
%TO.P,J7,1*%
%TO.N,VCC*%
X20066000Y25851327D03*
%TO.P,J7,2*%
X20066000Y28391327D03*
%TD*%
%TO.P,J9,1*%
%TO.N,GND*%
X14986000Y25851327D03*
%TO.P,J9,2*%
X14986000Y28391327D03*
%TD*%
%TO.P,J2,1*%
%TO.N,/CS*%
X34036000Y17780000D03*
%TO.P,J2,2*%
X36576000Y17780000D03*
%TD*%
D12*
%TO.N,GND*%
X10414000Y1524000D03*
X18542000Y1524000D03*
X10414000Y4064000D03*
X24384000Y20574000D03*
D13*
X17272000Y16510000D03*
D12*
X11176000Y21844000D03*
X12700000Y17780000D03*
X33274000Y11430000D03*
X34544000Y20320000D03*
X36322000Y20320000D03*
X28194000Y13716000D03*
X10668000Y24638000D03*
X16962773Y21566673D03*
X18542000Y2794000D03*
X10668000Y28448000D03*
D13*
X16510000Y15748000D03*
D12*
X25908000Y23622000D03*
X30734000Y7366000D03*
X12827000Y14097000D03*
X11430000Y19812000D03*
X10668000Y26670000D03*
X12700000Y28448000D03*
X11938000Y23114000D03*
D13*
X15748000Y16510000D03*
D12*
X28194000Y8636000D03*
D13*
X15748000Y15049500D03*
D12*
%TO.N,VCC*%
X14224000Y18288000D03*
D13*
X17018000Y19812000D03*
%TO.N,/SCL*%
X21590000Y21336000D03*
X20493984Y14986000D03*
%TO.N,/CS*%
X27432000Y17780000D03*
%TO.N,/MISO*%
X20066000Y12192000D03*
%TO.N,/IRQ*%
X21336000Y12192000D03*
%TO.N,/SDA_MOSI*%
X19050000Y12700000D03*
%TD*%
D14*
%TO.N,GND*%
X11176000Y21844000D02*
X11176000Y20066000D01*
X15748000Y15049500D02*
X15748000Y9398000D01*
X12700000Y28448000D02*
X10668000Y28448000D01*
X15748000Y9398000D02*
X10414000Y4064000D01*
X10668000Y24638000D02*
X10668000Y24384000D01*
X25146000Y25851327D02*
X25146000Y21336000D01*
X35560000Y25400000D02*
X32560001Y22400001D01*
X32560001Y22400001D02*
X32560001Y22303999D01*
X10414000Y1524000D02*
X18542000Y1524000D01*
X10668000Y26670000D02*
X10668000Y24638000D01*
X35560000Y9322640D02*
X33452640Y11430000D01*
X33452640Y11430000D02*
X33274000Y11430000D01*
X35560000Y5080000D02*
X35560000Y9322640D01*
X11176000Y20066000D02*
X11430000Y19812000D01*
X25146000Y21336000D02*
X24384000Y20574000D01*
X29464000Y7366000D02*
X28194000Y8636000D01*
X32560001Y22303999D02*
X34544000Y20320000D01*
X10668000Y24384000D02*
X11938000Y23114000D01*
X16510000Y15748000D02*
X15748000Y16510000D01*
X16510000Y15748000D02*
X16510000Y16002000D01*
X30734000Y7366000D02*
X29464000Y7366000D01*
%TO.N,VCC*%
X25400000Y5715000D02*
X25400000Y7177000D01*
D15*
X17018000Y19812000D02*
X16764000Y19812000D01*
D14*
X17922001Y10668000D02*
X17922001Y4587001D01*
X20066000Y19812000D02*
X20066000Y25851327D01*
X17922001Y14112001D02*
X20066000Y16256000D01*
D15*
X16764000Y19812000D02*
X15748000Y19812000D01*
X15748000Y19812000D02*
X14224000Y18288000D01*
D14*
X21909000Y10668000D02*
X17922001Y10668000D01*
X20066000Y18542000D02*
X20066000Y19812000D01*
X17922001Y10668000D02*
X17922001Y14112001D01*
X25400000Y7177000D02*
X21909000Y10668000D01*
X20066000Y16256000D02*
X20066000Y18542000D01*
X17922001Y4587001D02*
X16510000Y3175000D01*
D15*
X20066000Y19812000D02*
X17018000Y19812000D01*
%TO.N,/SCL*%
X20493984Y14986000D02*
X21590000Y16002000D01*
X21590000Y21336000D02*
X21590000Y16002000D01*
%TO.N,/CS*%
X27432000Y17780000D02*
X34036000Y17780000D01*
%TO.N,/MISO*%
X29718000Y25908000D02*
X29718000Y21844000D01*
X29718000Y21844000D02*
X20066000Y12192000D01*
%TO.N,/IRQ*%
X25908000Y16764000D02*
X24384000Y15240000D01*
X24384000Y15240000D02*
X21336000Y12192000D01*
X33782000Y15240000D02*
X32258000Y16764000D01*
X32258000Y16764000D02*
X25908000Y16764000D01*
X34036000Y15240000D02*
X33782000Y15240000D01*
%TO.N,/SDA_MOSI*%
X20828000Y14224000D02*
X22606000Y16002000D01*
X19587001Y12999999D02*
X20811002Y14224000D01*
X19050000Y12700000D02*
X19349999Y12999999D01*
X22606000Y16002000D02*
X22606000Y25851327D01*
X19349999Y12999999D02*
X19587001Y12999999D01*
X20811002Y14224000D02*
X20828000Y14224000D01*
%TD*%
%TA.AperFunction,Conductor*%
%TO.N,GND*%
G36*
X22664960Y5309996D02*
G01*
X22793002Y5270500D01*
X22893312Y5270500D01*
X22992499Y5285450D01*
X23113224Y5343588D01*
X23114000Y5344309D01*
X23114000Y3539806D01*
X23055040Y3580004D01*
X22926998Y3619500D01*
X22826688Y3619500D01*
X22727501Y3604550D01*
X22606776Y3546412D01*
X22606000Y3545692D01*
X22606000Y5350195D01*
X22664960Y5309996D01*
G37*
%TD.AperFunction*%
%TA.AperFunction,Conductor*%
G36*
X27744960Y5309996D02*
G01*
X27873002Y5270500D01*
X27973312Y5270500D01*
X28072499Y5285450D01*
X28193224Y5343588D01*
X28194000Y5344309D01*
X28194000Y3539806D01*
X28135040Y3580004D01*
X28006998Y3619500D01*
X27906688Y3619500D01*
X27807501Y3604550D01*
X27686776Y3546412D01*
X27686000Y3545692D01*
X27686000Y5350195D01*
X27744960Y5309996D01*
G37*
%TD.AperFunction*%
%TA.AperFunction,Conductor*%
G36*
X14790960Y27986323D02*
G01*
X14919002Y27946827D01*
X15019312Y27946827D01*
X15118499Y27961777D01*
X15239224Y28019915D01*
X15240000Y28020636D01*
X15240000Y26216133D01*
X15181040Y26256331D01*
X15052998Y26295827D01*
X14952688Y26295827D01*
X14853501Y26280877D01*
X14732776Y26222739D01*
X14732000Y26222019D01*
X14732000Y28026522D01*
X14790960Y27986323D01*
G37*
%TD.AperFunction*%
%TA.AperFunction,Conductor*%
G36*
X24950960Y27986323D02*
G01*
X25079002Y27946827D01*
X25179312Y27946827D01*
X25278499Y27961777D01*
X25399224Y28019915D01*
X25400000Y28020636D01*
X25400000Y26216133D01*
X25341040Y26256331D01*
X25212998Y26295827D01*
X25112688Y26295827D01*
X25013501Y26280877D01*
X24892776Y26222739D01*
X24892000Y26222019D01*
X24892000Y28026522D01*
X24950960Y27986323D01*
G37*
%TD.AperFunction*%
%TA.AperFunction,Conductor*%
G36*
X40252621Y30130498D02*
G01*
X40299114Y30076842D01*
X40310500Y30024500D01*
X40310500Y455500D01*
X40290498Y387379D01*
X40236842Y340886D01*
X40184500Y329500D01*
X9778000Y329500D01*
X9709879Y349502D01*
X9663386Y403158D01*
X9652000Y455500D01*
X9652000Y12368128D01*
X9672002Y12436249D01*
X9721649Y12480825D01*
X12192000Y13716000D01*
X12192000Y17526000D01*
X11063388Y18090306D01*
X10668006Y18287997D01*
X13210620Y18287997D01*
X13230090Y18090306D01*
X13230091Y18090300D01*
X13230092Y18090299D01*
X13287759Y17900196D01*
X13381405Y17724996D01*
X13507432Y17571432D01*
X13660996Y17445405D01*
X13836196Y17351759D01*
X14026299Y17294092D01*
X14026303Y17294092D01*
X14026305Y17294091D01*
X14223997Y17274620D01*
X14224000Y17274620D01*
X14224003Y17274620D01*
X14421694Y17294091D01*
X14421695Y17294092D01*
X14421701Y17294092D01*
X14611804Y17351759D01*
X14787004Y17445405D01*
X14940568Y17571432D01*
X15066595Y17724996D01*
X15160241Y17900196D01*
X15217908Y18090299D01*
X15230344Y18216572D01*
X15256926Y18282403D01*
X15266633Y18293309D01*
X16014921Y19041596D01*
X16077234Y19075621D01*
X16104017Y19078500D01*
X16441004Y19078500D01*
X16509125Y19058498D01*
X16515065Y19054436D01*
X16524647Y19047474D01*
X16561248Y19020882D01*
X16735712Y18943206D01*
X16922513Y18903500D01*
X17113487Y18903500D01*
X17300288Y18943206D01*
X17474752Y19020882D01*
X17520934Y19054436D01*
X17587803Y19078295D01*
X17594996Y19078500D01*
X19081500Y19078500D01*
X19149621Y19058498D01*
X19196114Y19004842D01*
X19207500Y18952500D01*
X19207500Y16663793D01*
X19187498Y16595672D01*
X19170595Y16574698D01*
X17341439Y14745542D01*
X17337676Y14742073D01*
X17295062Y14705876D01*
X17295055Y14705868D01*
X17246094Y14641464D01*
X17245045Y14640122D01*
X17194378Y14577087D01*
X17193543Y14575780D01*
X17182857Y14558553D01*
X17182050Y14557213D01*
X17148077Y14483781D01*
X17147340Y14482245D01*
X17111410Y14409797D01*
X17110859Y14408296D01*
X17104121Y14389156D01*
X17103644Y14387741D01*
X17086254Y14308738D01*
X17085865Y14307078D01*
X17066344Y14228582D01*
X17066137Y14227060D01*
X17063657Y14206810D01*
X17063501Y14205368D01*
X17063501Y14124465D01*
X17063478Y14122759D01*
X17061287Y14041912D01*
X17061416Y14040328D01*
X17063501Y14018402D01*
X17063501Y10748166D01*
X17061841Y10727783D01*
X17059705Y10714752D01*
X17063409Y10646428D01*
X17063501Y10643038D01*
X17063501Y7111500D01*
X17043499Y7043379D01*
X16989843Y6996886D01*
X16937501Y6985500D01*
X15699350Y6985500D01*
X15638803Y6978991D01*
X15638795Y6978989D01*
X15501797Y6927890D01*
X15501792Y6927888D01*
X15384738Y6840262D01*
X15297112Y6723208D01*
X15297110Y6723203D01*
X15246011Y6586205D01*
X15246009Y6586197D01*
X15239500Y6525650D01*
X15239500Y4904351D01*
X15246009Y4843804D01*
X15246011Y4843796D01*
X15297110Y4706798D01*
X15297112Y4706793D01*
X15384739Y4589739D01*
X15443343Y4545867D01*
X15485889Y4489031D01*
X15490953Y4418216D01*
X15456928Y4355904D01*
X15443343Y4344133D01*
X15384739Y4300262D01*
X15297112Y4183208D01*
X15297110Y4183203D01*
X15246011Y4046205D01*
X15246009Y4046197D01*
X15239500Y3985650D01*
X15239500Y2364351D01*
X15246009Y2303804D01*
X15246011Y2303796D01*
X15297110Y2166798D01*
X15297112Y2166793D01*
X15384738Y2049739D01*
X15501792Y1962113D01*
X15501794Y1962112D01*
X15501796Y1962111D01*
X15560875Y1940076D01*
X15638795Y1911012D01*
X15638803Y1911010D01*
X15699350Y1904501D01*
X15699355Y1904501D01*
X15699362Y1904500D01*
X15699368Y1904500D01*
X17320632Y1904500D01*
X17320638Y1904500D01*
X17320645Y1904501D01*
X17320649Y1904501D01*
X17381196Y1911010D01*
X17381199Y1911011D01*
X17381201Y1911011D01*
X17518204Y1962111D01*
X17518799Y1962556D01*
X17635261Y2049739D01*
X17722887Y2166793D01*
X17722887Y2166794D01*
X17722889Y2166796D01*
X17773989Y2303799D01*
X17780500Y2364362D01*
X17780500Y3179208D01*
X17800502Y3247329D01*
X17817400Y3268299D01*
X18502578Y3953478D01*
X18506331Y3956936D01*
X18548943Y3993130D01*
X18597925Y4057566D01*
X18598911Y4058829D01*
X18649622Y4121914D01*
X18649624Y4121920D01*
X18650576Y4123408D01*
X18661037Y4140273D01*
X18661943Y4141780D01*
X18661950Y4141788D01*
X18695938Y4215254D01*
X18696632Y4216702D01*
X18732591Y4289204D01*
X18732591Y4289208D01*
X18732593Y4289210D01*
X18733163Y4290761D01*
X18739818Y4309662D01*
X18740356Y4311258D01*
X18740356Y4311262D01*
X18740358Y4311264D01*
X18757752Y4390293D01*
X18758132Y4391910D01*
X18760385Y4400968D01*
X18777658Y4470420D01*
X18777658Y4470425D01*
X18777881Y4472060D01*
X18780319Y4491968D01*
X18780501Y4493638D01*
X18780501Y4574524D01*
X18780524Y4576230D01*
X18782714Y4657090D01*
X18782582Y4658711D01*
X18780501Y4680600D01*
X18780501Y9683500D01*
X18800503Y9751621D01*
X18854159Y9798114D01*
X18906501Y9809500D01*
X21501207Y9809500D01*
X21569328Y9789498D01*
X21590302Y9772595D01*
X24313687Y7049211D01*
X24347713Y6986899D01*
X24342648Y6916084D01*
X24300103Y6859249D01*
X24274738Y6840262D01*
X24230554Y6781239D01*
X24173717Y6738694D01*
X24102902Y6733630D01*
X24040590Y6767656D01*
X24028819Y6781241D01*
X23984904Y6839905D01*
X23867965Y6927445D01*
X23731093Y6978495D01*
X23670597Y6985000D01*
X23114000Y6985000D01*
X23114000Y6079806D01*
X23055040Y6120004D01*
X22926998Y6159500D01*
X22826688Y6159500D01*
X22727501Y6144550D01*
X22606776Y6086412D01*
X22606000Y6085692D01*
X22606000Y6985000D01*
X22049402Y6985000D01*
X21988906Y6978495D01*
X21852035Y6927445D01*
X21852034Y6927445D01*
X21735095Y6839905D01*
X21647555Y6722966D01*
X21647555Y6722965D01*
X21596505Y6586094D01*
X21590000Y6525598D01*
X21590000Y5969000D01*
X22493382Y5969000D01*
X22441553Y5879228D01*
X22411736Y5748593D01*
X22421749Y5614972D01*
X22470703Y5490240D01*
X22494021Y5461000D01*
X21590000Y5461000D01*
X21590000Y4904403D01*
X21596505Y4843907D01*
X21647555Y4707036D01*
X21647555Y4707035D01*
X21735094Y4590098D01*
X21794177Y4545868D01*
X21836723Y4489031D01*
X21841787Y4418216D01*
X21807762Y4355904D01*
X21794177Y4344132D01*
X21735094Y4299903D01*
X21647555Y4182966D01*
X21647555Y4182965D01*
X21596505Y4046094D01*
X21590000Y3985598D01*
X21590000Y3429000D01*
X22493382Y3429000D01*
X22441553Y3339228D01*
X22411736Y3208593D01*
X22421749Y3074972D01*
X22470703Y2950240D01*
X22494021Y2921000D01*
X21590000Y2921000D01*
X21590000Y2364403D01*
X21596505Y2303907D01*
X21647555Y2167036D01*
X21647555Y2167035D01*
X21735095Y2050096D01*
X21852034Y1962556D01*
X21988906Y1911506D01*
X22049402Y1905001D01*
X22049415Y1905000D01*
X22606000Y1905000D01*
X22606000Y2810195D01*
X22664960Y2769996D01*
X22793002Y2730500D01*
X22893312Y2730500D01*
X22992499Y2745450D01*
X23113224Y2803588D01*
X23114000Y2804309D01*
X23114000Y1905000D01*
X23670585Y1905000D01*
X23670597Y1905001D01*
X23731093Y1911506D01*
X23867964Y1962556D01*
X23867965Y1962556D01*
X23984903Y2050096D01*
X24028818Y2108759D01*
X24085654Y2151306D01*
X24156469Y2156372D01*
X24218782Y2122347D01*
X24230554Y2108761D01*
X24274738Y2049740D01*
X24391792Y1962113D01*
X24391794Y1962112D01*
X24391796Y1962111D01*
X24450875Y1940076D01*
X24528795Y1911012D01*
X24528803Y1911010D01*
X24589350Y1904501D01*
X24589355Y1904501D01*
X24589362Y1904500D01*
X24589368Y1904500D01*
X26210632Y1904500D01*
X26210638Y1904500D01*
X26210645Y1904501D01*
X26210649Y1904501D01*
X26271196Y1911010D01*
X26271199Y1911011D01*
X26271201Y1911011D01*
X26408204Y1962111D01*
X26408799Y1962556D01*
X26525261Y2049739D01*
X26569444Y2108760D01*
X26626280Y2151307D01*
X26697095Y2156371D01*
X26759408Y2122346D01*
X26771180Y2108760D01*
X26815095Y2050096D01*
X26932034Y1962556D01*
X27068906Y1911506D01*
X27129402Y1905001D01*
X27129415Y1905000D01*
X27686000Y1905000D01*
X27686000Y2810195D01*
X27744960Y2769996D01*
X27873002Y2730500D01*
X27973312Y2730500D01*
X28072499Y2745450D01*
X28193224Y2803588D01*
X28194000Y2804309D01*
X28194000Y1905000D01*
X28750585Y1905000D01*
X28750597Y1905001D01*
X28811093Y1911506D01*
X28947964Y1962556D01*
X28947965Y1962556D01*
X29064904Y2050096D01*
X29152444Y2167035D01*
X29152444Y2167036D01*
X29203494Y2303907D01*
X29209999Y2364403D01*
X29210000Y2364415D01*
X29210000Y2921000D01*
X28306618Y2921000D01*
X28358447Y3010772D01*
X28388264Y3141407D01*
X28378251Y3275028D01*
X28329297Y3399760D01*
X28305979Y3429000D01*
X29210000Y3429000D01*
X29210000Y3985586D01*
X29209999Y3985598D01*
X29203494Y4046094D01*
X29152444Y4182965D01*
X29152444Y4182966D01*
X29064904Y4299905D01*
X29005823Y4344132D01*
X28963276Y4400968D01*
X28958212Y4471783D01*
X28992237Y4534096D01*
X29005823Y4545868D01*
X29064904Y4590096D01*
X29152444Y4707035D01*
X29152444Y4707036D01*
X29203494Y4843907D01*
X29209999Y4904403D01*
X29210000Y4904415D01*
X29210000Y5461000D01*
X28306618Y5461000D01*
X28358447Y5550772D01*
X28388264Y5681407D01*
X28378251Y5815028D01*
X28329297Y5939760D01*
X28305979Y5969000D01*
X29210000Y5969000D01*
X29210000Y6525586D01*
X29209999Y6525598D01*
X29203494Y6586094D01*
X29152444Y6722965D01*
X29152444Y6722966D01*
X29064904Y6839905D01*
X28947965Y6927445D01*
X28811093Y6978495D01*
X28750597Y6985000D01*
X28194000Y6985000D01*
X28194000Y6079806D01*
X28135040Y6120004D01*
X28006998Y6159500D01*
X27906688Y6159500D01*
X27807501Y6144550D01*
X27686776Y6086412D01*
X27686000Y6085692D01*
X27686000Y6985000D01*
X27129402Y6985000D01*
X27068906Y6978495D01*
X26932035Y6927445D01*
X26932034Y6927445D01*
X26815095Y6839904D01*
X26771179Y6781240D01*
X26714343Y6738694D01*
X26643527Y6733630D01*
X26581216Y6767655D01*
X26569444Y6781240D01*
X26525527Y6839905D01*
X26525261Y6840261D01*
X26525259Y6840262D01*
X26525259Y6840263D01*
X26408207Y6927888D01*
X26408204Y6927889D01*
X26340466Y6953155D01*
X26283631Y6995703D01*
X26258821Y7062223D01*
X26258500Y7071210D01*
X26258500Y7139551D01*
X26258708Y7144666D01*
X26263245Y7200381D01*
X26263245Y7200382D01*
X26252321Y7280563D01*
X26252114Y7282257D01*
X26243372Y7362640D01*
X26243370Y7362645D01*
X26243003Y7364315D01*
X26238457Y7383716D01*
X26238036Y7385412D01*
X26225871Y7418522D01*
X26210120Y7461395D01*
X26209575Y7462944D01*
X26183746Y7539605D01*
X26183040Y7541131D01*
X26174394Y7559174D01*
X26173640Y7560694D01*
X26130078Y7628845D01*
X26129179Y7630295D01*
X26116711Y7651015D01*
X26087476Y7699605D01*
X26087473Y7699608D01*
X26087472Y7699610D01*
X26086515Y7700869D01*
X26074055Y7716808D01*
X26073073Y7718029D01*
X26073072Y7718030D01*
X26015838Y7775264D01*
X26014684Y7776450D01*
X25959058Y7835174D01*
X25959054Y7835177D01*
X25957814Y7836231D01*
X25940863Y7850239D01*
X22542540Y11248562D01*
X22539070Y11252325D01*
X22502870Y11294943D01*
X22495115Y11300838D01*
X22438393Y11343957D01*
X22437180Y11344906D01*
X22374087Y11395621D01*
X22374084Y11395623D01*
X22372708Y11396502D01*
X22355561Y11407139D01*
X22354218Y11407947D01*
X22280794Y11441917D01*
X22279278Y11442643D01*
X22206797Y11478590D01*
X22206795Y11478591D01*
X22206794Y11478591D01*
X22205312Y11479136D01*
X22186249Y11485848D01*
X22184741Y11486357D01*
X22169079Y11489804D01*
X22106852Y11523984D01*
X22072981Y11586380D01*
X22078222Y11657183D01*
X22087041Y11675844D01*
X22170527Y11820444D01*
X22229542Y12002072D01*
X22230297Y12009257D01*
X22257304Y12074913D01*
X22266494Y12085170D01*
X24932869Y14751543D01*
X24932868Y14751543D01*
X26174923Y15993598D01*
X26237233Y16027621D01*
X26264016Y16030500D01*
X31901984Y16030500D01*
X31970105Y16010498D01*
X31991079Y15993595D01*
X32728595Y15256079D01*
X32762621Y15193767D01*
X32765500Y15166984D01*
X32765500Y14429351D01*
X32772009Y14368804D01*
X32772011Y14368796D01*
X32823110Y14231798D01*
X32823112Y14231793D01*
X32910738Y14114739D01*
X33027792Y14027113D01*
X33027794Y14027112D01*
X33027796Y14027111D01*
X33086875Y14005076D01*
X33164795Y13976012D01*
X33164803Y13976010D01*
X33225350Y13969501D01*
X33225355Y13969501D01*
X33225362Y13969500D01*
X33225368Y13969500D01*
X34846632Y13969500D01*
X34846638Y13969500D01*
X34846645Y13969501D01*
X34846649Y13969501D01*
X34907196Y13976010D01*
X34907199Y13976011D01*
X34907201Y13976011D01*
X35044204Y14027111D01*
X35161261Y14114739D01*
X35205130Y14173343D01*
X35261968Y14215890D01*
X35332784Y14220954D01*
X35395096Y14186929D01*
X35406868Y14173343D01*
X35450738Y14114739D01*
X35567792Y14027113D01*
X35567794Y14027112D01*
X35567796Y14027111D01*
X35626875Y14005076D01*
X35704795Y13976012D01*
X35704803Y13976010D01*
X35765350Y13969501D01*
X35765355Y13969501D01*
X35765362Y13969500D01*
X35765368Y13969500D01*
X37386632Y13969500D01*
X37386638Y13969500D01*
X37386645Y13969501D01*
X37386649Y13969501D01*
X37447196Y13976010D01*
X37447199Y13976011D01*
X37447201Y13976011D01*
X37584204Y14027111D01*
X37701261Y14114739D01*
X37788889Y14231796D01*
X37839989Y14368799D01*
X37842026Y14387741D01*
X37846499Y14429351D01*
X37846500Y14429368D01*
X37846500Y16050633D01*
X37846499Y16050650D01*
X37839990Y16111197D01*
X37839988Y16111205D01*
X37788889Y16248203D01*
X37788887Y16248208D01*
X37701261Y16365262D01*
X37642657Y16409132D01*
X37600110Y16465968D01*
X37595046Y16536784D01*
X37629071Y16599096D01*
X37642657Y16610868D01*
X37701261Y16654739D01*
X37788887Y16771793D01*
X37788887Y16771794D01*
X37788889Y16771796D01*
X37839989Y16908799D01*
X37846500Y16969362D01*
X37846500Y18590638D01*
X37846000Y18595289D01*
X37839990Y18651197D01*
X37839988Y18651205D01*
X37788889Y18788203D01*
X37788887Y18788208D01*
X37701261Y18905262D01*
X37584207Y18992888D01*
X37584202Y18992890D01*
X37447204Y19043989D01*
X37447196Y19043991D01*
X37386649Y19050500D01*
X37386638Y19050500D01*
X35765362Y19050500D01*
X35765350Y19050500D01*
X35704803Y19043991D01*
X35704795Y19043989D01*
X35567797Y18992890D01*
X35567792Y18992888D01*
X35450738Y18905261D01*
X35406867Y18846657D01*
X35350031Y18804111D01*
X35279216Y18799047D01*
X35216904Y18833072D01*
X35205133Y18846657D01*
X35161261Y18905261D01*
X35044207Y18992888D01*
X35044202Y18992890D01*
X34907204Y19043989D01*
X34907196Y19043991D01*
X34846649Y19050500D01*
X34846638Y19050500D01*
X33225362Y19050500D01*
X33225350Y19050500D01*
X33164803Y19043991D01*
X33164795Y19043989D01*
X33027797Y18992890D01*
X33027792Y18992888D01*
X32910738Y18905262D01*
X32823112Y18788208D01*
X32823110Y18788203D01*
X32772011Y18651205D01*
X32772009Y18651196D01*
X32769305Y18626034D01*
X32742137Y18560441D01*
X32683820Y18519949D01*
X32644027Y18513500D01*
X28008996Y18513500D01*
X27940875Y18533502D01*
X27934935Y18537564D01*
X27888752Y18571118D01*
X27775094Y18621722D01*
X27720998Y18667703D01*
X27700349Y18735630D01*
X27719702Y18803938D01*
X27737244Y18825920D01*
X30192393Y21281069D01*
X30206232Y21293029D01*
X30224785Y21306840D01*
X30257542Y21345881D01*
X30261249Y21349924D01*
X30266869Y21355543D01*
X30286176Y21379962D01*
X30287335Y21381386D01*
X30335002Y21438191D01*
X30335004Y21438196D01*
X30339039Y21444329D01*
X30339128Y21444271D01*
X30342779Y21450003D01*
X30342689Y21450059D01*
X30346539Y21456302D01*
X30346540Y21456305D01*
X30346543Y21456308D01*
X30377880Y21523515D01*
X30378676Y21525157D01*
X30411956Y21591421D01*
X30411957Y21591427D01*
X30414464Y21598313D01*
X30414563Y21598277D01*
X30416799Y21604709D01*
X30416699Y21604742D01*
X30419008Y21611712D01*
X30434004Y21684342D01*
X30434376Y21686022D01*
X30451500Y21758266D01*
X30451500Y21758269D01*
X30452352Y21765554D01*
X30452454Y21765542D01*
X30453146Y21772313D01*
X30453042Y21772322D01*
X30453680Y21779628D01*
X30453682Y21779636D01*
X30452411Y21823299D01*
X30451527Y21853724D01*
X30451500Y21855556D01*
X30451500Y24516027D01*
X30471502Y24584148D01*
X30525158Y24630641D01*
X30564034Y24641305D01*
X30589195Y24644010D01*
X30589198Y24644011D01*
X30589201Y24644011D01*
X30726204Y24695111D01*
X30843261Y24782739D01*
X30930889Y24899796D01*
X30981989Y25036799D01*
X30982408Y25040689D01*
X30988499Y25097351D01*
X30988500Y25097368D01*
X30988500Y26718633D01*
X30988499Y26718650D01*
X30981990Y26779197D01*
X30981988Y26779205D01*
X30946094Y26875438D01*
X30930889Y26916204D01*
X30930888Y26916206D01*
X30930887Y26916208D01*
X30843260Y27033263D01*
X30784656Y27077134D01*
X30742110Y27133970D01*
X30737046Y27204786D01*
X30771072Y27267098D01*
X30784651Y27278865D01*
X30843261Y27322739D01*
X30930889Y27439796D01*
X30981989Y27576799D01*
X30982408Y27580689D01*
X30988499Y27637351D01*
X30988500Y27637368D01*
X30988500Y29258633D01*
X30988499Y29258650D01*
X30981990Y29319197D01*
X30981988Y29319205D01*
X30946094Y29415438D01*
X30930889Y29456204D01*
X30930888Y29456206D01*
X30930887Y29456208D01*
X30843261Y29573262D01*
X30726207Y29660888D01*
X30726202Y29660890D01*
X30589204Y29711989D01*
X30589196Y29711991D01*
X30528649Y29718500D01*
X30528638Y29718500D01*
X28907362Y29718500D01*
X28907350Y29718500D01*
X28846803Y29711991D01*
X28846795Y29711989D01*
X28709797Y29660890D01*
X28709792Y29660888D01*
X28592738Y29573262D01*
X28505112Y29456208D01*
X28505110Y29456203D01*
X28454011Y29319205D01*
X28454009Y29319197D01*
X28447500Y29258650D01*
X28447500Y27637351D01*
X28454009Y27576804D01*
X28454011Y27576796D01*
X28505110Y27439798D01*
X28505112Y27439793D01*
X28592738Y27322739D01*
X28651342Y27278869D01*
X28693889Y27222033D01*
X28698954Y27151218D01*
X28664928Y27088906D01*
X28651344Y27077134D01*
X28592738Y27033261D01*
X28505112Y26916208D01*
X28505110Y26916203D01*
X28454011Y26779205D01*
X28454009Y26779197D01*
X28447500Y26718650D01*
X28447500Y25097351D01*
X28454009Y25036804D01*
X28454011Y25036796D01*
X28505110Y24899798D01*
X28505112Y24899793D01*
X28592738Y24782739D01*
X28709792Y24695113D01*
X28709794Y24695112D01*
X28709796Y24695111D01*
X28768875Y24673076D01*
X28846795Y24644012D01*
X28846798Y24644012D01*
X28846799Y24644011D01*
X28846804Y24644010D01*
X28871966Y24641305D01*
X28937559Y24614137D01*
X28978051Y24555820D01*
X28984500Y24516027D01*
X28984500Y22200017D01*
X28964498Y22131896D01*
X28947595Y22110922D01*
X23554595Y16717922D01*
X23492283Y16683896D01*
X23421468Y16688961D01*
X23364632Y16731508D01*
X23339821Y16798028D01*
X23339500Y16807017D01*
X23339500Y24459354D01*
X23359502Y24527475D01*
X23413158Y24573968D01*
X23452034Y24584632D01*
X23477195Y24587337D01*
X23477198Y24587338D01*
X23477201Y24587338D01*
X23614204Y24638438D01*
X23614799Y24638883D01*
X23731261Y24726066D01*
X23775444Y24785087D01*
X23832280Y24827634D01*
X23903095Y24832698D01*
X23965408Y24798673D01*
X23977180Y24785087D01*
X24021095Y24726423D01*
X24138034Y24638883D01*
X24274906Y24587833D01*
X24335402Y24581328D01*
X24335415Y24581327D01*
X24892000Y24581327D01*
X24892000Y25486522D01*
X24950960Y25446323D01*
X25079002Y25406827D01*
X25179312Y25406827D01*
X25278499Y25421777D01*
X25399224Y25479915D01*
X25400000Y25480636D01*
X25400000Y24581327D01*
X25956585Y24581327D01*
X25956597Y24581328D01*
X26017093Y24587833D01*
X26153964Y24638883D01*
X26153965Y24638883D01*
X26270904Y24726423D01*
X26358444Y24843362D01*
X26358444Y24843363D01*
X26409494Y24980234D01*
X26415999Y25040730D01*
X26416000Y25040742D01*
X26416000Y25597327D01*
X25512618Y25597327D01*
X25564447Y25687099D01*
X25594264Y25817734D01*
X25584251Y25951355D01*
X25535297Y26076087D01*
X25511979Y26105327D01*
X26416000Y26105327D01*
X26416000Y26661913D01*
X26415999Y26661925D01*
X26409494Y26722421D01*
X26358444Y26859292D01*
X26358444Y26859293D01*
X26270904Y26976232D01*
X26211823Y27020459D01*
X26169276Y27077295D01*
X26164212Y27148110D01*
X26198237Y27210423D01*
X26211823Y27222195D01*
X26270904Y27266423D01*
X26358444Y27383362D01*
X26358444Y27383363D01*
X26409494Y27520234D01*
X26415999Y27580730D01*
X26416000Y27580742D01*
X26416000Y28137327D01*
X25512618Y28137327D01*
X25564447Y28227099D01*
X25594264Y28357734D01*
X25584251Y28491355D01*
X25535297Y28616087D01*
X25511979Y28645327D01*
X26416000Y28645327D01*
X26416000Y29201913D01*
X26415999Y29201925D01*
X26409494Y29262421D01*
X26358444Y29399292D01*
X26358444Y29399293D01*
X26270904Y29516232D01*
X26153965Y29603772D01*
X26017093Y29654822D01*
X25956597Y29661327D01*
X25400000Y29661327D01*
X25400000Y28756133D01*
X25341040Y28796331D01*
X25212998Y28835827D01*
X25112688Y28835827D01*
X25013501Y28820877D01*
X24892776Y28762739D01*
X24892000Y28762019D01*
X24892000Y29661327D01*
X24335402Y29661327D01*
X24274906Y29654822D01*
X24138035Y29603772D01*
X24138034Y29603772D01*
X24021095Y29516231D01*
X23977179Y29457567D01*
X23920343Y29415021D01*
X23849527Y29409957D01*
X23787216Y29443982D01*
X23775444Y29457567D01*
X23731527Y29516232D01*
X23731261Y29516588D01*
X23731259Y29516589D01*
X23731259Y29516590D01*
X23614207Y29604215D01*
X23614202Y29604217D01*
X23477204Y29655316D01*
X23477196Y29655318D01*
X23416649Y29661827D01*
X23416638Y29661827D01*
X21795362Y29661827D01*
X21795350Y29661827D01*
X21734803Y29655318D01*
X21734795Y29655316D01*
X21597797Y29604217D01*
X21597792Y29604215D01*
X21480738Y29516588D01*
X21436867Y29457984D01*
X21380031Y29415438D01*
X21309216Y29410374D01*
X21246904Y29444399D01*
X21235133Y29457984D01*
X21191261Y29516588D01*
X21074207Y29604215D01*
X21074202Y29604217D01*
X20937204Y29655316D01*
X20937196Y29655318D01*
X20876649Y29661827D01*
X20876638Y29661827D01*
X19255362Y29661827D01*
X19255350Y29661827D01*
X19194803Y29655318D01*
X19194795Y29655316D01*
X19057797Y29604217D01*
X19057792Y29604215D01*
X18940738Y29516588D01*
X18896867Y29457984D01*
X18840031Y29415438D01*
X18769216Y29410374D01*
X18706904Y29444399D01*
X18695133Y29457984D01*
X18651261Y29516588D01*
X18534207Y29604215D01*
X18534202Y29604217D01*
X18397204Y29655316D01*
X18397196Y29655318D01*
X18336649Y29661827D01*
X18336638Y29661827D01*
X16715362Y29661827D01*
X16715350Y29661827D01*
X16654803Y29655318D01*
X16654795Y29655316D01*
X16517797Y29604217D01*
X16517792Y29604215D01*
X16400739Y29516589D01*
X16356554Y29457566D01*
X16299717Y29415021D01*
X16228902Y29409957D01*
X16166590Y29443983D01*
X16154819Y29457568D01*
X16110904Y29516232D01*
X15993965Y29603772D01*
X15857093Y29654822D01*
X15796597Y29661327D01*
X15240000Y29661327D01*
X15240000Y28756133D01*
X15181040Y28796331D01*
X15052998Y28835827D01*
X14952688Y28835827D01*
X14853501Y28820877D01*
X14732776Y28762739D01*
X14732000Y28762019D01*
X14732000Y29661327D01*
X14175402Y29661327D01*
X14114906Y29654822D01*
X13978035Y29603772D01*
X13978034Y29603772D01*
X13861095Y29516232D01*
X13773555Y29399293D01*
X13773555Y29399292D01*
X13722505Y29262421D01*
X13716000Y29201925D01*
X13716000Y28645327D01*
X14619382Y28645327D01*
X14567553Y28555555D01*
X14537736Y28424920D01*
X14547749Y28291299D01*
X14596703Y28166567D01*
X14620021Y28137327D01*
X13716000Y28137327D01*
X13716000Y27580730D01*
X13722505Y27520234D01*
X13773555Y27383363D01*
X13773555Y27383362D01*
X13861094Y27266425D01*
X13920177Y27222195D01*
X13962723Y27165358D01*
X13967787Y27094543D01*
X13933762Y27032231D01*
X13920177Y27020459D01*
X13861094Y26976230D01*
X13773555Y26859293D01*
X13773555Y26859292D01*
X13722505Y26722421D01*
X13716000Y26661925D01*
X13716000Y26105327D01*
X14619382Y26105327D01*
X14567553Y26015555D01*
X14537736Y25884920D01*
X14547749Y25751299D01*
X14596703Y25626567D01*
X14620021Y25597327D01*
X13716000Y25597327D01*
X13716000Y25040730D01*
X13722505Y24980234D01*
X13773555Y24843363D01*
X13773555Y24843362D01*
X13861095Y24726423D01*
X13978034Y24638883D01*
X14114906Y24587833D01*
X14175402Y24581328D01*
X14175415Y24581327D01*
X14732000Y24581327D01*
X14732000Y25486522D01*
X14790960Y25446323D01*
X14919002Y25406827D01*
X15019312Y25406827D01*
X15118499Y25421777D01*
X15239224Y25479915D01*
X15240000Y25480636D01*
X15240000Y24581327D01*
X15796585Y24581327D01*
X15796597Y24581328D01*
X15857093Y24587833D01*
X15993964Y24638883D01*
X15993965Y24638883D01*
X16110903Y24726423D01*
X16154818Y24785086D01*
X16211654Y24827633D01*
X16282469Y24832699D01*
X16344782Y24798674D01*
X16356554Y24785088D01*
X16400738Y24726067D01*
X16517792Y24638440D01*
X16517794Y24638439D01*
X16517796Y24638438D01*
X16576875Y24616403D01*
X16654795Y24587339D01*
X16654803Y24587337D01*
X16715350Y24580828D01*
X16715355Y24580828D01*
X16715362Y24580827D01*
X16715368Y24580827D01*
X18336632Y24580827D01*
X18336638Y24580827D01*
X18336645Y24580828D01*
X18336649Y24580828D01*
X18397196Y24587337D01*
X18397199Y24587338D01*
X18397201Y24587338D01*
X18534204Y24638438D01*
X18534799Y24638883D01*
X18651261Y24726066D01*
X18695132Y24784670D01*
X18751968Y24827217D01*
X18822784Y24832281D01*
X18885096Y24798256D01*
X18896868Y24784670D01*
X18940738Y24726066D01*
X19057792Y24638440D01*
X19057796Y24638438D01*
X19125533Y24613173D01*
X19182368Y24570627D01*
X19207179Y24504106D01*
X19207500Y24495118D01*
X19207500Y20671500D01*
X19187498Y20603379D01*
X19133842Y20556886D01*
X19081500Y20545500D01*
X17594996Y20545500D01*
X17526875Y20565502D01*
X17520935Y20569564D01*
X17474752Y20603118D01*
X17300288Y20680794D01*
X17113487Y20720500D01*
X16922513Y20720500D01*
X16735711Y20680794D01*
X16561247Y20603118D01*
X16515065Y20569564D01*
X16448197Y20545705D01*
X16441004Y20545500D01*
X15810608Y20545500D01*
X15792348Y20546830D01*
X15769478Y20550180D01*
X15769477Y20550180D01*
X15718721Y20545740D01*
X15713228Y20545500D01*
X15705282Y20545500D01*
X15674304Y20541881D01*
X15672512Y20541698D01*
X15641843Y20539015D01*
X15598669Y20535237D01*
X15591477Y20533752D01*
X15591456Y20533854D01*
X15584804Y20532379D01*
X15584828Y20532278D01*
X15577688Y20530586D01*
X15508000Y20505223D01*
X15506272Y20504622D01*
X15435895Y20481301D01*
X15429250Y20478201D01*
X15429206Y20478294D01*
X15423079Y20475328D01*
X15423125Y20475236D01*
X15416570Y20471944D01*
X15354631Y20431208D01*
X15353087Y20430224D01*
X15289958Y20391286D01*
X15284203Y20386735D01*
X15284140Y20386815D01*
X15278860Y20382514D01*
X15278926Y20382435D01*
X15273309Y20377722D01*
X15222444Y20323809D01*
X15221167Y20322494D01*
X14229316Y19330644D01*
X14167004Y19296618D01*
X14152572Y19294346D01*
X14026305Y19281910D01*
X13836195Y19224241D01*
X13660995Y19130595D01*
X13507432Y19004568D01*
X13381405Y18851005D01*
X13287759Y18675805D01*
X13230090Y18485695D01*
X13210620Y18288004D01*
X13210620Y18287997D01*
X10668006Y18287997D01*
X9721651Y18761175D01*
X9669667Y18809530D01*
X9652000Y18873873D01*
X9652000Y30024500D01*
X9672002Y30092621D01*
X9725658Y30139114D01*
X9778000Y30150500D01*
X40184500Y30150500D01*
X40252621Y30130498D01*
G37*
%TD.AperFunction*%
%TD*%
M02*
