%TF.GenerationSoftware,KiCad,Pcbnew,6.0.11+dfsg-1~bpo11+1*%
%TF.CreationDate,2023-05-28T09:01:05+00:00*%
%TF.ProjectId,LIGHTNING01,4c494748-544e-4494-9e47-30312e6b6963,01A*%
%TF.SameCoordinates,Original*%
%TF.FileFunction,Copper,L1,Top*%
%TF.FilePolarity,Positive*%
%FSLAX46Y46*%
G04 Gerber Fmt 4.6, Leading zero omitted, Abs format (unit mm)*
G04 Created by KiCad (PCBNEW 6.0.11+dfsg-1~bpo11+1) date 2023-05-28 09:01:05*
%MOMM*%
%LPD*%
G01*
G04 APERTURE LIST*
%TA.AperFunction,ComponentPad*%
%ADD10C,6.000000*%
%TD*%
%TA.AperFunction,ComponentPad*%
%ADD11R,1.524000X1.524000*%
%TD*%
%TA.AperFunction,ViaPad*%
%ADD12C,1.000000*%
%TD*%
%TA.AperFunction,ViaPad*%
%ADD13C,0.800000*%
%TD*%
%TA.AperFunction,Conductor*%
%ADD14C,0.700000*%
%TD*%
%TA.AperFunction,Conductor*%
%ADD15C,0.450000*%
%TD*%
G04 APERTURE END LIST*
D10*
%TO.P,M3,1*%
%TO.N,GND*%
X35560000Y5080000D03*
%TD*%
%TO.P,M1,1*%
%TO.N,GND*%
X5080000Y25400000D03*
%TD*%
%TO.P,M2,1*%
%TO.N,GND*%
X5080000Y5080000D03*
%TD*%
%TO.P,M4,1*%
%TO.N,GND*%
X35560000Y25400000D03*
%TD*%
D11*
%TO.P,J1,1*%
%TO.N,/ADR0*%
X16510000Y5715000D03*
%TO.P,J1,2*%
%TO.N,VCC*%
X16510000Y3175000D03*
%TD*%
%TO.P,J3,1*%
%TO.N,/MISO*%
X29718000Y28448000D03*
%TO.P,J3,2*%
X29718000Y25908000D03*
%TD*%
%TO.P,J4,1*%
%TO.N,/SDA_MOSI*%
X22606000Y28391327D03*
%TO.P,J4,2*%
X22606000Y25851327D03*
%TD*%
%TO.P,J5,1*%
%TO.N,/SCL*%
X17526000Y28391327D03*
%TO.P,J5,2*%
X17526000Y25851327D03*
%TD*%
%TO.P,J6,1*%
%TO.N,/IRQ*%
X34036000Y15240000D03*
%TO.P,J6,2*%
X36576000Y15240000D03*
%TD*%
%TO.P,J10,1*%
%TO.N,GND*%
X27940000Y5715000D03*
%TO.P,J10,2*%
X27940000Y3175000D03*
%TO.P,J10,3*%
%TO.N,VCC*%
X25400000Y5715000D03*
%TO.P,J10,4*%
X25400000Y3175000D03*
%TO.P,J10,5*%
%TO.N,GND*%
X22860000Y5715000D03*
%TO.P,J10,6*%
X22860000Y3175000D03*
%TD*%
%TO.P,J8,1*%
%TO.N,GND*%
X25146000Y25851327D03*
%TO.P,J8,2*%
X25146000Y28391327D03*
%TD*%
%TO.P,J7,1*%
%TO.N,VCC*%
X20066000Y25851327D03*
%TO.P,J7,2*%
X20066000Y28391327D03*
%TD*%
%TO.P,J9,1*%
%TO.N,GND*%
X14986000Y25851327D03*
%TO.P,J9,2*%
X14986000Y28391327D03*
%TD*%
%TO.P,J2,1*%
%TO.N,/CS*%
X34036000Y17780000D03*
%TO.P,J2,2*%
X36576000Y17780000D03*
%TD*%
D12*
%TO.N,GND*%
X10414000Y1524000D03*
X18542000Y1524000D03*
X10414000Y4064000D03*
X24384000Y20574000D03*
D13*
X17272000Y16510000D03*
D12*
X11176000Y21844000D03*
X12700000Y17780000D03*
X33274000Y11430000D03*
X34544000Y20320000D03*
X36322000Y20320000D03*
X28194000Y13716000D03*
X10668000Y24638000D03*
X16962773Y21566673D03*
X18542000Y2794000D03*
X10668000Y28448000D03*
D13*
X16510000Y15748000D03*
D12*
X25908000Y23622000D03*
X30734000Y7366000D03*
X12827000Y14097000D03*
X11430000Y19812000D03*
X10668000Y26670000D03*
X12700000Y28448000D03*
X11938000Y23114000D03*
D13*
X15748000Y16510000D03*
D12*
X28194000Y8636000D03*
D13*
X15748000Y15049500D03*
D12*
%TO.N,VCC*%
X14224000Y18288000D03*
D13*
X17018000Y19812000D03*
%TO.N,/SCL*%
X21590000Y21336000D03*
X20493984Y14986000D03*
%TO.N,/CS*%
X27432000Y17780000D03*
%TO.N,/MISO*%
X20066000Y12192000D03*
%TO.N,/IRQ*%
X21336000Y12192000D03*
%TO.N,/SDA_MOSI*%
X19050000Y12700000D03*
%TD*%
D14*
%TO.N,GND*%
X11176000Y21844000D02*
X11176000Y20066000D01*
X15748000Y15049500D02*
X15748000Y9398000D01*
X12700000Y28448000D02*
X10668000Y28448000D01*
X15748000Y9398000D02*
X10414000Y4064000D01*
X10668000Y24638000D02*
X10668000Y24384000D01*
X25146000Y25851327D02*
X25146000Y21336000D01*
X35560000Y25400000D02*
X32560001Y22400001D01*
X32560001Y22400001D02*
X32560001Y22303999D01*
X10414000Y1524000D02*
X18542000Y1524000D01*
X10668000Y26670000D02*
X10668000Y24638000D01*
X35560000Y9322640D02*
X33452640Y11430000D01*
X33452640Y11430000D02*
X33274000Y11430000D01*
X35560000Y5080000D02*
X35560000Y9322640D01*
X11176000Y20066000D02*
X11430000Y19812000D01*
X25146000Y21336000D02*
X24384000Y20574000D01*
X29464000Y7366000D02*
X28194000Y8636000D01*
X32560001Y22303999D02*
X34544000Y20320000D01*
X10668000Y24384000D02*
X11938000Y23114000D01*
X16510000Y15748000D02*
X15748000Y16510000D01*
X16510000Y15748000D02*
X16510000Y16002000D01*
X30734000Y7366000D02*
X29464000Y7366000D01*
%TO.N,VCC*%
X25400000Y5715000D02*
X25400000Y7177000D01*
D15*
X17018000Y19812000D02*
X16764000Y19812000D01*
D14*
X17922001Y10668000D02*
X17922001Y4587001D01*
X20066000Y19812000D02*
X20066000Y25851327D01*
X17922001Y14112001D02*
X20066000Y16256000D01*
D15*
X16764000Y19812000D02*
X15748000Y19812000D01*
X15748000Y19812000D02*
X14224000Y18288000D01*
D14*
X21909000Y10668000D02*
X17922001Y10668000D01*
X20066000Y18542000D02*
X20066000Y19812000D01*
X17922001Y10668000D02*
X17922001Y14112001D01*
X25400000Y7177000D02*
X21909000Y10668000D01*
X20066000Y16256000D02*
X20066000Y18542000D01*
X17922001Y4587001D02*
X16510000Y3175000D01*
D15*
X20066000Y19812000D02*
X17018000Y19812000D01*
%TO.N,/SCL*%
X20493984Y14986000D02*
X21590000Y16002000D01*
X21590000Y21336000D02*
X21590000Y16002000D01*
%TO.N,/CS*%
X27432000Y17780000D02*
X34036000Y17780000D01*
%TO.N,/MISO*%
X29718000Y25908000D02*
X29718000Y21844000D01*
X29718000Y21844000D02*
X20066000Y12192000D01*
%TO.N,/IRQ*%
X25908000Y16764000D02*
X24384000Y15240000D01*
X24384000Y15240000D02*
X21336000Y12192000D01*
X33782000Y15240000D02*
X32258000Y16764000D01*
X32258000Y16764000D02*
X25908000Y16764000D01*
X34036000Y15240000D02*
X33782000Y15240000D01*
%TO.N,/SDA_MOSI*%
X20828000Y14224000D02*
X22606000Y16002000D01*
X19587001Y12999999D02*
X20811002Y14224000D01*
X19050000Y12700000D02*
X19349999Y12999999D01*
X22606000Y16002000D02*
X22606000Y25851327D01*
X19349999Y12999999D02*
X19587001Y12999999D01*
X20811002Y14224000D02*
X20828000Y14224000D01*
%TD*%
%TA.AperFunction,Conductor*%
%TO.N,GND*%
G36*
X13828169Y29697498D02*
G01*
X13874662Y29643842D01*
X13884766Y29573568D01*
X13860874Y29515935D01*
X13779214Y29406976D01*
X13770676Y29391381D01*
X13725522Y29270933D01*
X13721895Y29255678D01*
X13716369Y29204813D01*
X13716000Y29197999D01*
X13716000Y28663442D01*
X13720475Y28648203D01*
X13721865Y28646998D01*
X13729548Y28645327D01*
X15114000Y28645327D01*
X15182121Y28625325D01*
X15228614Y28571669D01*
X15240000Y28519327D01*
X15240000Y24599443D01*
X15244475Y24584204D01*
X15245865Y24582999D01*
X15253548Y24581328D01*
X15792669Y24581328D01*
X15799490Y24581698D01*
X15850352Y24587222D01*
X15865604Y24590848D01*
X15986054Y24636003D01*
X16001649Y24644541D01*
X16103724Y24721042D01*
X16116285Y24733603D01*
X16154862Y24785076D01*
X16211721Y24827591D01*
X16282540Y24832617D01*
X16344833Y24798557D01*
X16356509Y24785082D01*
X16400739Y24726066D01*
X16517295Y24638712D01*
X16653684Y24587582D01*
X16715866Y24580827D01*
X18336134Y24580827D01*
X18398316Y24587582D01*
X18534705Y24638712D01*
X18651261Y24726066D01*
X18695174Y24784659D01*
X18752033Y24827174D01*
X18822852Y24832200D01*
X18885145Y24798140D01*
X18896825Y24784660D01*
X18940739Y24726066D01*
X19057295Y24638712D01*
X19065704Y24635560D01*
X19065705Y24635559D01*
X19125729Y24613057D01*
X19182494Y24570416D01*
X19207194Y24503854D01*
X19207500Y24495075D01*
X19207500Y20671500D01*
X19187498Y20603379D01*
X19133842Y20556886D01*
X19081500Y20545500D01*
X17594996Y20545500D01*
X17526875Y20565502D01*
X17520935Y20569564D01*
X17480094Y20599237D01*
X17480093Y20599238D01*
X17474752Y20603118D01*
X17468724Y20605802D01*
X17468722Y20605803D01*
X17306319Y20678109D01*
X17306318Y20678109D01*
X17300288Y20680794D01*
X17206888Y20700647D01*
X17119944Y20719128D01*
X17119939Y20719128D01*
X17113487Y20720500D01*
X16922513Y20720500D01*
X16916061Y20719128D01*
X16916056Y20719128D01*
X16829113Y20700647D01*
X16735712Y20680794D01*
X16729682Y20678109D01*
X16729681Y20678109D01*
X16567278Y20605803D01*
X16567276Y20605802D01*
X16561248Y20603118D01*
X16555907Y20599238D01*
X16555906Y20599237D01*
X16515065Y20569564D01*
X16448197Y20545706D01*
X16441004Y20545500D01*
X15813166Y20545500D01*
X15794216Y20546933D01*
X15781007Y20548943D01*
X15781003Y20548943D01*
X15773773Y20550043D01*
X15766481Y20549450D01*
X15766477Y20549450D01*
X15723019Y20545915D01*
X15712805Y20545500D01*
X15705174Y20545500D01*
X15701540Y20545076D01*
X15701534Y20545076D01*
X15689039Y20543619D01*
X15677942Y20542325D01*
X15673594Y20541895D01*
X15603295Y20536177D01*
X15596331Y20533921D01*
X15590835Y20532823D01*
X15585382Y20531534D01*
X15578110Y20530686D01*
X15511798Y20506616D01*
X15507667Y20505198D01*
X15487894Y20498792D01*
X15447538Y20485719D01*
X15447534Y20485717D01*
X15440579Y20483464D01*
X15434329Y20479672D01*
X15429212Y20477329D01*
X15424205Y20474822D01*
X15417333Y20472327D01*
X15411220Y20468319D01*
X15411216Y20468317D01*
X15358337Y20433647D01*
X15354616Y20431300D01*
X15294355Y20394733D01*
X15286245Y20387570D01*
X15286229Y20387588D01*
X15282925Y20384658D01*
X15280414Y20382559D01*
X15274294Y20378546D01*
X15269262Y20373234D01*
X15222816Y20324205D01*
X15220438Y20321763D01*
X14229174Y19330499D01*
X14166862Y19296473D01*
X14151501Y19294113D01*
X14115090Y19290800D01*
X14040251Y19283989D01*
X14040248Y19283988D01*
X14034112Y19283430D01*
X14028206Y19281692D01*
X14028202Y19281691D01*
X13923076Y19250751D01*
X13844381Y19227590D01*
X13838923Y19224737D01*
X13838919Y19224735D01*
X13748147Y19177280D01*
X13669110Y19135960D01*
X13514975Y19012032D01*
X13387846Y18860526D01*
X13384879Y18855128D01*
X13384875Y18855123D01*
X13348362Y18788705D01*
X13292567Y18687213D01*
X13290706Y18681346D01*
X13290705Y18681344D01*
X13245095Y18537564D01*
X13232765Y18498694D01*
X13210719Y18302149D01*
X13227268Y18105066D01*
X13281783Y17914950D01*
X13372187Y17739044D01*
X13495035Y17584047D01*
X13499728Y17580053D01*
X13499729Y17580052D01*
X13565264Y17524278D01*
X13645650Y17455864D01*
X13818294Y17359376D01*
X14006392Y17298260D01*
X14202777Y17274842D01*
X14208912Y17275314D01*
X14208914Y17275314D01*
X14393830Y17289543D01*
X14393834Y17289544D01*
X14399972Y17290016D01*
X14590463Y17343202D01*
X14595967Y17345982D01*
X14595969Y17345983D01*
X14761495Y17429596D01*
X14761497Y17429597D01*
X14766996Y17432375D01*
X14922847Y17554139D01*
X15052078Y17703855D01*
X15149769Y17875821D01*
X15212197Y18063487D01*
X15232150Y18221432D01*
X15260532Y18286509D01*
X15268061Y18294735D01*
X16014921Y19041595D01*
X16077233Y19075621D01*
X16104016Y19078500D01*
X16441004Y19078500D01*
X16509125Y19058498D01*
X16515065Y19054436D01*
X16520483Y19050500D01*
X16561248Y19020882D01*
X16567276Y19018198D01*
X16567278Y19018197D01*
X16636834Y18987229D01*
X16735712Y18943206D01*
X16829112Y18923353D01*
X16916056Y18904872D01*
X16916061Y18904872D01*
X16922513Y18903500D01*
X17113487Y18903500D01*
X17119939Y18904872D01*
X17119944Y18904872D01*
X17206888Y18923353D01*
X17300288Y18943206D01*
X17399166Y18987229D01*
X17468722Y19018197D01*
X17468724Y19018198D01*
X17474752Y19020882D01*
X17515518Y19050500D01*
X17520935Y19054436D01*
X17587803Y19078294D01*
X17594996Y19078500D01*
X19081500Y19078500D01*
X19149621Y19058498D01*
X19196114Y19004842D01*
X19207500Y18952500D01*
X19207500Y16663792D01*
X19187498Y16595671D01*
X19170595Y16574697D01*
X17344218Y14748321D01*
X17336452Y14741179D01*
X17296634Y14707530D01*
X17292487Y14702106D01*
X17292486Y14702105D01*
X17247327Y14643039D01*
X17245433Y14640622D01*
X17194491Y14577263D01*
X17191454Y14571144D01*
X17189666Y14568349D01*
X17189413Y14567988D01*
X17189211Y14567621D01*
X17187480Y14564763D01*
X17183341Y14559349D01*
X17161071Y14511590D01*
X17149016Y14485739D01*
X17147682Y14482968D01*
X17111554Y14410187D01*
X17109903Y14403566D01*
X17108752Y14400438D01*
X17108588Y14400045D01*
X17108469Y14399640D01*
X17107392Y14396476D01*
X17104511Y14390297D01*
X17097803Y14360285D01*
X17086786Y14310999D01*
X17086077Y14308003D01*
X17066429Y14229200D01*
X17066238Y14222379D01*
X17065786Y14219076D01*
X17065627Y14218192D01*
X17064949Y14213309D01*
X17063821Y14208261D01*
X17063501Y14202538D01*
X17063501Y14126157D01*
X17063452Y14122638D01*
X17061220Y14042744D01*
X17062499Y14036040D01*
X17063046Y14029239D01*
X17062526Y14029197D01*
X17063501Y14018876D01*
X17063501Y10749010D01*
X17061809Y10728431D01*
X17059785Y10716205D01*
X17060142Y10709389D01*
X17060142Y10709385D01*
X17063328Y10648607D01*
X17063501Y10642012D01*
X17063501Y7111500D01*
X17043499Y7043379D01*
X16989843Y6996886D01*
X16937501Y6985500D01*
X15699866Y6985500D01*
X15637684Y6978745D01*
X15501295Y6927615D01*
X15384739Y6840261D01*
X15297385Y6723705D01*
X15246255Y6587316D01*
X15239500Y6525134D01*
X15239500Y4904866D01*
X15246255Y4842684D01*
X15297385Y4706295D01*
X15384739Y4589739D01*
X15391919Y4584358D01*
X15443332Y4545826D01*
X15485847Y4488967D01*
X15490873Y4418148D01*
X15456813Y4355855D01*
X15443333Y4344175D01*
X15384739Y4300261D01*
X15297385Y4183705D01*
X15246255Y4047316D01*
X15239500Y3985134D01*
X15239500Y2364866D01*
X15246255Y2302684D01*
X15297385Y2166295D01*
X15384739Y2049739D01*
X15501295Y1962385D01*
X15637684Y1911255D01*
X15699866Y1904500D01*
X17320134Y1904500D01*
X17382316Y1911255D01*
X17518705Y1962385D01*
X17635261Y2049739D01*
X17722615Y2166295D01*
X17773745Y2302684D01*
X17780500Y2364866D01*
X17780500Y2368331D01*
X21590001Y2368331D01*
X21590371Y2361510D01*
X21595895Y2310648D01*
X21599521Y2295396D01*
X21644676Y2174946D01*
X21653214Y2159351D01*
X21729715Y2057276D01*
X21742276Y2044715D01*
X21844351Y1968214D01*
X21859946Y1959676D01*
X21980394Y1914522D01*
X21995649Y1910895D01*
X22046514Y1905369D01*
X22053328Y1905000D01*
X22587885Y1905000D01*
X22603124Y1909475D01*
X22604329Y1910865D01*
X22606000Y1918548D01*
X22606000Y2902885D01*
X22601525Y2918124D01*
X22600135Y2919329D01*
X22592452Y2921000D01*
X21608116Y2921000D01*
X21592877Y2916525D01*
X21591672Y2915135D01*
X21590001Y2907452D01*
X21590001Y2368331D01*
X17780500Y2368331D01*
X17780500Y3179207D01*
X17800502Y3247328D01*
X17817405Y3268303D01*
X17996217Y3447115D01*
X21590000Y3447115D01*
X21594475Y3431876D01*
X21595865Y3430671D01*
X21603548Y3429000D01*
X22587885Y3429000D01*
X22603124Y3433475D01*
X22604329Y3434865D01*
X22606000Y3442548D01*
X22606000Y5442885D01*
X22601525Y5458124D01*
X22600135Y5459329D01*
X22592452Y5461000D01*
X21608116Y5461000D01*
X21592877Y5456525D01*
X21591672Y5455135D01*
X21590001Y5447452D01*
X21590001Y4908331D01*
X21590371Y4901510D01*
X21595895Y4850648D01*
X21599521Y4835396D01*
X21644676Y4714946D01*
X21653214Y4699351D01*
X21729715Y4597276D01*
X21742275Y4584716D01*
X21794165Y4545827D01*
X21836681Y4488968D01*
X21841707Y4418149D01*
X21807647Y4355856D01*
X21794165Y4344173D01*
X21742275Y4305284D01*
X21729715Y4292724D01*
X21653214Y4190649D01*
X21644676Y4175054D01*
X21599522Y4054606D01*
X21595895Y4039351D01*
X21590369Y3988486D01*
X21590000Y3981672D01*
X21590000Y3447115D01*
X17996217Y3447115D01*
X18499790Y3950687D01*
X18507557Y3957829D01*
X18542154Y3987065D01*
X18542158Y3987069D01*
X18547368Y3991472D01*
X18596680Y4055970D01*
X18598574Y4058386D01*
X18645233Y4116418D01*
X18645234Y4116419D01*
X18649511Y4121739D01*
X18652548Y4127858D01*
X18654336Y4130653D01*
X18654589Y4131014D01*
X18654791Y4131381D01*
X18656522Y4134239D01*
X18660661Y4139653D01*
X18694987Y4213265D01*
X18696321Y4216037D01*
X18729415Y4282705D01*
X18732448Y4288815D01*
X18734099Y4295436D01*
X18735250Y4298564D01*
X18735414Y4298957D01*
X18735533Y4299362D01*
X18736610Y4302526D01*
X18739491Y4308705D01*
X18757216Y4388003D01*
X18757925Y4390999D01*
X18775922Y4463180D01*
X18775922Y4463181D01*
X18777573Y4469802D01*
X18777764Y4476623D01*
X18778216Y4479926D01*
X18778375Y4480810D01*
X18779053Y4485693D01*
X18780181Y4490741D01*
X18780501Y4496464D01*
X18780501Y4572845D01*
X18780550Y4576364D01*
X18782591Y4649438D01*
X18782782Y4656258D01*
X18781503Y4662962D01*
X18780956Y4669763D01*
X18781476Y4669805D01*
X18780501Y4680126D01*
X18780501Y5987115D01*
X21590000Y5987115D01*
X21594475Y5971876D01*
X21595865Y5970671D01*
X21603548Y5969000D01*
X22587885Y5969000D01*
X22603124Y5973475D01*
X22604329Y5974865D01*
X22606000Y5982548D01*
X22606000Y6966884D01*
X22601525Y6982123D01*
X22600135Y6983328D01*
X22592452Y6984999D01*
X22053331Y6984999D01*
X22046510Y6984629D01*
X21995648Y6979105D01*
X21980396Y6975479D01*
X21859946Y6930324D01*
X21844351Y6921786D01*
X21742276Y6845285D01*
X21729715Y6832724D01*
X21653214Y6730649D01*
X21644676Y6715054D01*
X21599522Y6594606D01*
X21595895Y6579351D01*
X21590369Y6528486D01*
X21590000Y6521672D01*
X21590000Y5987115D01*
X18780501Y5987115D01*
X18780501Y9683500D01*
X18800503Y9751621D01*
X18854159Y9798114D01*
X18906501Y9809500D01*
X21501208Y9809500D01*
X21569329Y9789498D01*
X21590303Y9772595D01*
X24313675Y7049222D01*
X24347701Y6986910D01*
X24342636Y6916094D01*
X24300145Y6859302D01*
X24274739Y6840261D01*
X24230513Y6781251D01*
X24173656Y6738736D01*
X24102837Y6733710D01*
X24040544Y6767770D01*
X24028862Y6781251D01*
X23990285Y6832724D01*
X23977724Y6845285D01*
X23875649Y6921786D01*
X23860054Y6930324D01*
X23739606Y6975478D01*
X23724351Y6979105D01*
X23673486Y6984631D01*
X23666672Y6985000D01*
X23132115Y6985000D01*
X23116876Y6980525D01*
X23115671Y6979135D01*
X23114000Y6971452D01*
X23114000Y1923116D01*
X23118475Y1907877D01*
X23119865Y1906672D01*
X23127548Y1905001D01*
X23666669Y1905001D01*
X23673490Y1905371D01*
X23724352Y1910895D01*
X23739604Y1914521D01*
X23860054Y1959676D01*
X23875649Y1968214D01*
X23977724Y2044715D01*
X23990285Y2057276D01*
X24028862Y2108749D01*
X24085721Y2151264D01*
X24156540Y2156290D01*
X24218833Y2122230D01*
X24230509Y2108755D01*
X24274739Y2049739D01*
X24391295Y1962385D01*
X24527684Y1911255D01*
X24589866Y1904500D01*
X26210134Y1904500D01*
X26272316Y1911255D01*
X26408705Y1962385D01*
X26525261Y2049739D01*
X26569487Y2108749D01*
X26626344Y2151264D01*
X26697163Y2156290D01*
X26759456Y2122230D01*
X26771138Y2108749D01*
X26809715Y2057276D01*
X26822276Y2044715D01*
X26924351Y1968214D01*
X26939946Y1959676D01*
X27060394Y1914522D01*
X27075649Y1910895D01*
X27126514Y1905369D01*
X27133328Y1905000D01*
X27667885Y1905000D01*
X27683124Y1909475D01*
X27684329Y1910865D01*
X27686000Y1918548D01*
X27686000Y1923116D01*
X28194000Y1923116D01*
X28198475Y1907877D01*
X28199865Y1906672D01*
X28207548Y1905001D01*
X28746669Y1905001D01*
X28753490Y1905371D01*
X28804352Y1910895D01*
X28819604Y1914521D01*
X28940054Y1959676D01*
X28955649Y1968214D01*
X29057724Y2044715D01*
X29070285Y2057276D01*
X29146786Y2159351D01*
X29155324Y2174946D01*
X29200478Y2295394D01*
X29204105Y2310649D01*
X29209631Y2361514D01*
X29210000Y2368328D01*
X29210000Y2902885D01*
X29205525Y2918124D01*
X29204135Y2919329D01*
X29196452Y2921000D01*
X28212115Y2921000D01*
X28196876Y2916525D01*
X28195671Y2915135D01*
X28194000Y2907452D01*
X28194000Y1923116D01*
X27686000Y1923116D01*
X27686000Y3447115D01*
X28194000Y3447115D01*
X28198475Y3431876D01*
X28199865Y3430671D01*
X28207548Y3429000D01*
X29191884Y3429000D01*
X29207123Y3433475D01*
X29208328Y3434865D01*
X29209999Y3442548D01*
X29209999Y3981669D01*
X29209629Y3988490D01*
X29204105Y4039352D01*
X29200479Y4054604D01*
X29155324Y4175054D01*
X29146786Y4190649D01*
X29070285Y4292724D01*
X29057725Y4305284D01*
X29005835Y4344173D01*
X28963319Y4401032D01*
X28958293Y4471851D01*
X28992353Y4534144D01*
X29005835Y4545827D01*
X29057725Y4584716D01*
X29070285Y4597276D01*
X29146786Y4699351D01*
X29155324Y4714946D01*
X29200478Y4835394D01*
X29204105Y4850649D01*
X29209631Y4901514D01*
X29210000Y4908328D01*
X29210000Y5442885D01*
X29205525Y5458124D01*
X29204135Y5459329D01*
X29196452Y5461000D01*
X28212115Y5461000D01*
X28196876Y5456525D01*
X28195671Y5455135D01*
X28194000Y5447452D01*
X28194000Y3447115D01*
X27686000Y3447115D01*
X27686000Y5987115D01*
X28194000Y5987115D01*
X28198475Y5971876D01*
X28199865Y5970671D01*
X28207548Y5969000D01*
X29191884Y5969000D01*
X29207123Y5973475D01*
X29208328Y5974865D01*
X29209999Y5982548D01*
X29209999Y6521669D01*
X29209629Y6528490D01*
X29204105Y6579352D01*
X29200479Y6594604D01*
X29155324Y6715054D01*
X29146786Y6730649D01*
X29070285Y6832724D01*
X29057724Y6845285D01*
X28955649Y6921786D01*
X28940054Y6930324D01*
X28819606Y6975478D01*
X28804351Y6979105D01*
X28753486Y6984631D01*
X28746672Y6985000D01*
X28212115Y6985000D01*
X28196876Y6980525D01*
X28195671Y6979135D01*
X28194000Y6971452D01*
X28194000Y5987115D01*
X27686000Y5987115D01*
X27686000Y6966884D01*
X27681525Y6982123D01*
X27680135Y6983328D01*
X27672452Y6984999D01*
X27133331Y6984999D01*
X27126510Y6984629D01*
X27075648Y6979105D01*
X27060396Y6975479D01*
X26939946Y6930324D01*
X26924351Y6921786D01*
X26822276Y6845285D01*
X26809715Y6832724D01*
X26771138Y6781251D01*
X26714279Y6738736D01*
X26643460Y6733710D01*
X26581167Y6767770D01*
X26569491Y6781245D01*
X26525261Y6840261D01*
X26408705Y6927615D01*
X26400296Y6930767D01*
X26400295Y6930768D01*
X26340271Y6953270D01*
X26283506Y6995911D01*
X26258806Y7062473D01*
X26258500Y7071252D01*
X26258500Y7135609D01*
X26258942Y7146152D01*
X26262733Y7191300D01*
X26263304Y7198098D01*
X26252563Y7278605D01*
X26252193Y7281659D01*
X26244154Y7355651D01*
X26243417Y7362437D01*
X26241239Y7368908D01*
X26240527Y7372148D01*
X26240450Y7372583D01*
X26240334Y7372983D01*
X26239537Y7376226D01*
X26238635Y7382988D01*
X26210839Y7459356D01*
X26209841Y7462206D01*
X26186098Y7532757D01*
X26183922Y7539223D01*
X26180409Y7545070D01*
X26179007Y7548104D01*
X26178847Y7548492D01*
X26178636Y7548879D01*
X26177172Y7551854D01*
X26174838Y7558267D01*
X26131333Y7626820D01*
X26129715Y7629439D01*
X26091369Y7693257D01*
X26087853Y7699109D01*
X26083160Y7704072D01*
X26081150Y7706720D01*
X26080627Y7707473D01*
X26077654Y7711404D01*
X26074891Y7715758D01*
X26071071Y7720032D01*
X26017075Y7774028D01*
X26014621Y7776550D01*
X25964381Y7829677D01*
X25959692Y7834636D01*
X25954044Y7838474D01*
X25948852Y7842893D01*
X25949192Y7843293D01*
X25941203Y7849900D01*
X22545320Y11245783D01*
X22538177Y11253550D01*
X22508935Y11288153D01*
X22504529Y11293367D01*
X22440031Y11342679D01*
X22437615Y11344573D01*
X22379583Y11391232D01*
X22379582Y11391233D01*
X22374262Y11395510D01*
X22368143Y11398547D01*
X22365348Y11400335D01*
X22364987Y11400588D01*
X22364620Y11400790D01*
X22361762Y11402521D01*
X22356348Y11406660D01*
X22282736Y11440986D01*
X22279964Y11442320D01*
X22213296Y11475414D01*
X22207186Y11478447D01*
X22200565Y11480098D01*
X22197437Y11481249D01*
X22197044Y11481413D01*
X22196639Y11481532D01*
X22193475Y11482609D01*
X22187296Y11485490D01*
X22168560Y11489678D01*
X22106443Y11524059D01*
X22072775Y11586565D01*
X22078244Y11657350D01*
X22086927Y11675644D01*
X22167223Y11814721D01*
X22167224Y11814722D01*
X22170527Y11820444D01*
X22229542Y12002072D01*
X22230232Y12008642D01*
X22230234Y12008649D01*
X22230299Y12009269D01*
X22230437Y12009604D01*
X22231605Y12015100D01*
X22232610Y12014886D01*
X22257315Y12074924D01*
X22266513Y12085188D01*
X24845739Y14664414D01*
X24845750Y14664424D01*
X26174921Y15993595D01*
X26237233Y16027621D01*
X26264016Y16030500D01*
X31901984Y16030500D01*
X31970105Y16010498D01*
X31991079Y15993595D01*
X32728595Y15256079D01*
X32762621Y15193767D01*
X32765500Y15166984D01*
X32765500Y14429866D01*
X32772255Y14367684D01*
X32823385Y14231295D01*
X32910739Y14114739D01*
X33027295Y14027385D01*
X33163684Y13976255D01*
X33225866Y13969500D01*
X34846134Y13969500D01*
X34908316Y13976255D01*
X35044705Y14027385D01*
X35161261Y14114739D01*
X35205174Y14173332D01*
X35262033Y14215847D01*
X35332852Y14220873D01*
X35395145Y14186813D01*
X35406825Y14173333D01*
X35450739Y14114739D01*
X35567295Y14027385D01*
X35703684Y13976255D01*
X35765866Y13969500D01*
X37386134Y13969500D01*
X37448316Y13976255D01*
X37584705Y14027385D01*
X37701261Y14114739D01*
X37788615Y14231295D01*
X37839745Y14367684D01*
X37846500Y14429866D01*
X37846500Y16050134D01*
X37839745Y16112316D01*
X37788615Y16248705D01*
X37701261Y16365261D01*
X37642668Y16409174D01*
X37600153Y16466033D01*
X37595127Y16536852D01*
X37629187Y16599145D01*
X37642668Y16610826D01*
X37701261Y16654739D01*
X37788615Y16771295D01*
X37839745Y16907684D01*
X37846500Y16969866D01*
X37846500Y18590134D01*
X37839745Y18652316D01*
X37788615Y18788705D01*
X37701261Y18905261D01*
X37584705Y18992615D01*
X37448316Y19043745D01*
X37386134Y19050500D01*
X35765866Y19050500D01*
X35703684Y19043745D01*
X35567295Y18992615D01*
X35450739Y18905261D01*
X35445358Y18898081D01*
X35406826Y18846668D01*
X35349967Y18804153D01*
X35279148Y18799127D01*
X35216855Y18833187D01*
X35205174Y18846668D01*
X35166642Y18898081D01*
X35161261Y18905261D01*
X35044705Y18992615D01*
X34908316Y19043745D01*
X34846134Y19050500D01*
X33225866Y19050500D01*
X33163684Y19043745D01*
X33027295Y18992615D01*
X32910739Y18905261D01*
X32823385Y18788705D01*
X32772255Y18652316D01*
X32771402Y18644461D01*
X32769384Y18625890D01*
X32742141Y18560328D01*
X32683777Y18519903D01*
X32644121Y18513500D01*
X28008996Y18513500D01*
X27940875Y18533502D01*
X27934935Y18537564D01*
X27894094Y18567237D01*
X27894093Y18567238D01*
X27888752Y18571118D01*
X27882724Y18573802D01*
X27882722Y18573803D01*
X27775095Y18621721D01*
X27721000Y18667701D01*
X27700350Y18735628D01*
X27719702Y18803936D01*
X27737249Y18825923D01*
X30190577Y21279252D01*
X30204990Y21291639D01*
X30215752Y21299559D01*
X30221651Y21303900D01*
X30254631Y21342720D01*
X30261561Y21350236D01*
X30266945Y21355620D01*
X30269224Y21358500D01*
X30283945Y21377106D01*
X30286716Y21380486D01*
X30332392Y21434251D01*
X30335722Y21440772D01*
X30338826Y21445427D01*
X30341771Y21450195D01*
X30346318Y21455942D01*
X30376174Y21519823D01*
X30378102Y21523769D01*
X30406847Y21580063D01*
X30410176Y21586582D01*
X30411916Y21593693D01*
X30413869Y21598945D01*
X30415638Y21604263D01*
X30418738Y21610895D01*
X30433102Y21679951D01*
X30434072Y21684236D01*
X30449495Y21747267D01*
X30450830Y21752721D01*
X30451500Y21763520D01*
X30451524Y21763519D01*
X30451788Y21767934D01*
X30452078Y21771184D01*
X30453569Y21778352D01*
X30451546Y21853123D01*
X30451500Y21856531D01*
X30451500Y24516121D01*
X30471502Y24584242D01*
X30525158Y24630735D01*
X30563890Y24641384D01*
X30572563Y24642326D01*
X30590316Y24644255D01*
X30726705Y24695385D01*
X30843261Y24782739D01*
X30930615Y24899295D01*
X30981745Y25035684D01*
X30988500Y25097866D01*
X30988500Y26718134D01*
X30981745Y26780316D01*
X30930615Y26916705D01*
X30843261Y27033261D01*
X30784668Y27077174D01*
X30742153Y27134033D01*
X30737127Y27204852D01*
X30771187Y27267145D01*
X30784668Y27278826D01*
X30836081Y27317358D01*
X30843261Y27322739D01*
X30930615Y27439295D01*
X30981745Y27575684D01*
X30988500Y27637866D01*
X30988500Y29258134D01*
X30981745Y29320316D01*
X30930615Y29456705D01*
X30886223Y29515936D01*
X30861377Y29582442D01*
X30876430Y29651824D01*
X30926605Y29702054D01*
X30987051Y29717500D01*
X39751500Y29717500D01*
X39819621Y29697498D01*
X39866114Y29643842D01*
X39877500Y29591500D01*
X39877500Y888500D01*
X39857498Y820379D01*
X39803842Y773886D01*
X39751500Y762500D01*
X9778000Y762500D01*
X9709879Y782502D01*
X9663386Y836158D01*
X9652000Y888500D01*
X9652000Y12368127D01*
X9672002Y12436248D01*
X9721651Y12480825D01*
X12175798Y13707899D01*
X12192000Y13716000D01*
X12192000Y17526000D01*
X9721650Y18761175D01*
X9669667Y18809529D01*
X9652000Y18873872D01*
X9652000Y25044658D01*
X13716001Y25044658D01*
X13716371Y25037837D01*
X13721895Y24986975D01*
X13725521Y24971723D01*
X13770676Y24851273D01*
X13779214Y24835678D01*
X13855715Y24733603D01*
X13868276Y24721042D01*
X13970351Y24644541D01*
X13985946Y24636003D01*
X14106394Y24590849D01*
X14121649Y24587222D01*
X14172514Y24581696D01*
X14179328Y24581327D01*
X14713885Y24581327D01*
X14729124Y24585802D01*
X14730329Y24587192D01*
X14732000Y24594875D01*
X14732000Y25579212D01*
X14727525Y25594451D01*
X14726135Y25595656D01*
X14718452Y25597327D01*
X13734116Y25597327D01*
X13718877Y25592852D01*
X13717672Y25591462D01*
X13716001Y25583779D01*
X13716001Y25044658D01*
X9652000Y25044658D01*
X9652000Y26123442D01*
X13716000Y26123442D01*
X13720475Y26108203D01*
X13721865Y26106998D01*
X13729548Y26105327D01*
X14713885Y26105327D01*
X14729124Y26109802D01*
X14730329Y26111192D01*
X14732000Y26118875D01*
X14732000Y28119212D01*
X14727525Y28134451D01*
X14726135Y28135656D01*
X14718452Y28137327D01*
X13734116Y28137327D01*
X13718877Y28132852D01*
X13717672Y28131462D01*
X13716001Y28123779D01*
X13716001Y27584658D01*
X13716371Y27577837D01*
X13721895Y27526975D01*
X13725521Y27511723D01*
X13770676Y27391273D01*
X13779214Y27375678D01*
X13855715Y27273603D01*
X13868275Y27261043D01*
X13920165Y27222154D01*
X13962681Y27165295D01*
X13967707Y27094476D01*
X13933647Y27032183D01*
X13920165Y27020500D01*
X13868275Y26981611D01*
X13855715Y26969051D01*
X13779214Y26866976D01*
X13770676Y26851381D01*
X13725522Y26730933D01*
X13721895Y26715678D01*
X13716369Y26664813D01*
X13716000Y26657999D01*
X13716000Y26123442D01*
X9652000Y26123442D01*
X9652000Y29591500D01*
X9672002Y29659621D01*
X9725658Y29706114D01*
X9778000Y29717500D01*
X13760048Y29717500D01*
X13828169Y29697498D01*
G37*
%TD.AperFunction*%
%TA.AperFunction,Conductor*%
G36*
X28517070Y29697498D02*
G01*
X28563563Y29643842D01*
X28573667Y29573568D01*
X28549777Y29515937D01*
X28505385Y29456705D01*
X28454255Y29320316D01*
X28447500Y29258134D01*
X28447500Y27637866D01*
X28454255Y27575684D01*
X28505385Y27439295D01*
X28592739Y27322739D01*
X28599919Y27317358D01*
X28651332Y27278826D01*
X28693847Y27221967D01*
X28698873Y27151148D01*
X28664813Y27088855D01*
X28651333Y27077175D01*
X28592739Y27033261D01*
X28505385Y26916705D01*
X28454255Y26780316D01*
X28447500Y26718134D01*
X28447500Y25097866D01*
X28454255Y25035684D01*
X28505385Y24899295D01*
X28592739Y24782739D01*
X28709295Y24695385D01*
X28845684Y24644255D01*
X28863437Y24642326D01*
X28872110Y24641384D01*
X28937672Y24614141D01*
X28978097Y24555777D01*
X28984500Y24516121D01*
X28984500Y22200016D01*
X28964498Y22131895D01*
X28947595Y22110921D01*
X26167174Y19330499D01*
X23554595Y16717920D01*
X23492283Y16683894D01*
X23421468Y16688959D01*
X23364632Y16731506D01*
X23339821Y16798026D01*
X23339500Y16807015D01*
X23339500Y24459448D01*
X23359502Y24527569D01*
X23413158Y24574062D01*
X23451890Y24584711D01*
X23460563Y24585653D01*
X23478316Y24587582D01*
X23614705Y24638712D01*
X23731261Y24726066D01*
X23775487Y24785076D01*
X23832344Y24827591D01*
X23903163Y24832617D01*
X23965456Y24798557D01*
X23977138Y24785076D01*
X24015715Y24733603D01*
X24028276Y24721042D01*
X24130351Y24644541D01*
X24145946Y24636003D01*
X24266394Y24590849D01*
X24281649Y24587222D01*
X24332514Y24581696D01*
X24339328Y24581327D01*
X24873885Y24581327D01*
X24889124Y24585802D01*
X24890329Y24587192D01*
X24892000Y24594875D01*
X24892000Y24599443D01*
X25400000Y24599443D01*
X25404475Y24584204D01*
X25405865Y24582999D01*
X25413548Y24581328D01*
X25952669Y24581328D01*
X25959490Y24581698D01*
X26010352Y24587222D01*
X26025604Y24590848D01*
X26146054Y24636003D01*
X26161649Y24644541D01*
X26263724Y24721042D01*
X26276285Y24733603D01*
X26352786Y24835678D01*
X26361324Y24851273D01*
X26406478Y24971721D01*
X26410105Y24986976D01*
X26415631Y25037841D01*
X26416000Y25044655D01*
X26416000Y25579212D01*
X26411525Y25594451D01*
X26410135Y25595656D01*
X26402452Y25597327D01*
X25418115Y25597327D01*
X25402876Y25592852D01*
X25401671Y25591462D01*
X25400000Y25583779D01*
X25400000Y24599443D01*
X24892000Y24599443D01*
X24892000Y26123442D01*
X25400000Y26123442D01*
X25404475Y26108203D01*
X25405865Y26106998D01*
X25413548Y26105327D01*
X26397884Y26105327D01*
X26413123Y26109802D01*
X26414328Y26111192D01*
X26415999Y26118875D01*
X26415999Y26657996D01*
X26415629Y26664817D01*
X26410105Y26715679D01*
X26406479Y26730931D01*
X26361324Y26851381D01*
X26352786Y26866976D01*
X26276285Y26969051D01*
X26263725Y26981611D01*
X26211835Y27020500D01*
X26169319Y27077359D01*
X26164293Y27148178D01*
X26198353Y27210471D01*
X26211835Y27222154D01*
X26263725Y27261043D01*
X26276285Y27273603D01*
X26352786Y27375678D01*
X26361324Y27391273D01*
X26406478Y27511721D01*
X26410105Y27526976D01*
X26415631Y27577841D01*
X26416000Y27584655D01*
X26416000Y28119212D01*
X26411525Y28134451D01*
X26410135Y28135656D01*
X26402452Y28137327D01*
X25418115Y28137327D01*
X25402876Y28132852D01*
X25401671Y28131462D01*
X25400000Y28123779D01*
X25400000Y26123442D01*
X24892000Y26123442D01*
X24892000Y28519327D01*
X24912002Y28587448D01*
X24965658Y28633941D01*
X25018000Y28645327D01*
X26397884Y28645327D01*
X26413123Y28649802D01*
X26414328Y28651192D01*
X26415999Y28658875D01*
X26415999Y29197996D01*
X26415629Y29204817D01*
X26410105Y29255679D01*
X26406479Y29270931D01*
X26361324Y29391381D01*
X26352786Y29406976D01*
X26271126Y29515935D01*
X26246278Y29582442D01*
X26261331Y29651824D01*
X26311506Y29702054D01*
X26371952Y29717500D01*
X28448949Y29717500D01*
X28517070Y29697498D01*
G37*
%TD.AperFunction*%
%TD*%
M02*
