%TF.GenerationSoftware,KiCad,Pcbnew,7.0.5.1-1-g8f565ef7f0-dirty-deb11*%
%TF.CreationDate,2023-07-05T14:59:33+00:00*%
%TF.ProjectId,LIGHTNING01,4c494748-544e-4494-9e47-30312e6b6963,01A*%
%TF.SameCoordinates,Original*%
%TF.FileFunction,Legend,Bot*%
%TF.FilePolarity,Positive*%
%FSLAX46Y46*%
G04 Gerber Fmt 4.6, Leading zero omitted, Abs format (unit mm)*
G04 Created by KiCad (PCBNEW 7.0.5.1-1-g8f565ef7f0-dirty-deb11) date 2023-07-05 14:59:33*
%MOMM*%
%LPD*%
G01*
G04 APERTURE LIST*
%ADD10C,0.200000*%
%ADD11C,0.109220*%
%ADD12C,0.150000*%
%ADD13C,0.304800*%
%ADD14C,0.099060*%
%ADD15C,0.120000*%
G04 APERTURE END LIST*
D10*
X40386000Y254000D02*
X254000Y254000D01*
X254000Y254000D02*
X254000Y30226000D01*
X254000Y30226000D02*
X40386000Y30226000D01*
X40386000Y30226000D02*
X40386000Y254000D01*
D11*
%TO.C,R2*%
X11259396Y15966695D02*
X11426189Y16204971D01*
X11545327Y15966695D02*
X11545327Y16467075D01*
X11545327Y16467075D02*
X11354706Y16467075D01*
X11354706Y16467075D02*
X11307051Y16443247D01*
X11307051Y16443247D02*
X11283224Y16419420D01*
X11283224Y16419420D02*
X11259396Y16371764D01*
X11259396Y16371764D02*
X11259396Y16300282D01*
X11259396Y16300282D02*
X11283224Y16252626D01*
X11283224Y16252626D02*
X11307051Y16228799D01*
X11307051Y16228799D02*
X11354706Y16204971D01*
X11354706Y16204971D02*
X11545327Y16204971D01*
X11068775Y16419420D02*
X11044947Y16443247D01*
X11044947Y16443247D02*
X10997292Y16467075D01*
X10997292Y16467075D02*
X10878154Y16467075D01*
X10878154Y16467075D02*
X10830499Y16443247D01*
X10830499Y16443247D02*
X10806671Y16419420D01*
X10806671Y16419420D02*
X10782844Y16371764D01*
X10782844Y16371764D02*
X10782844Y16324109D01*
X10782844Y16324109D02*
X10806671Y16252626D01*
X10806671Y16252626D02*
X11092603Y15966695D01*
X11092603Y15966695D02*
X10782844Y15966695D01*
X11727845Y15204695D02*
X12013776Y15204695D01*
X11870810Y15204695D02*
X11870810Y15705075D01*
X11870810Y15705075D02*
X11918466Y15633592D01*
X11918466Y15633592D02*
X11966121Y15585937D01*
X11966121Y15585937D02*
X12013776Y15562109D01*
X11418086Y15705075D02*
X11370431Y15705075D01*
X11370431Y15705075D02*
X11322775Y15681247D01*
X11322775Y15681247D02*
X11298948Y15657420D01*
X11298948Y15657420D02*
X11275120Y15609764D01*
X11275120Y15609764D02*
X11251293Y15514454D01*
X11251293Y15514454D02*
X11251293Y15395316D01*
X11251293Y15395316D02*
X11275120Y15300005D01*
X11275120Y15300005D02*
X11298948Y15252350D01*
X11298948Y15252350D02*
X11322775Y15228522D01*
X11322775Y15228522D02*
X11370431Y15204695D01*
X11370431Y15204695D02*
X11418086Y15204695D01*
X11418086Y15204695D02*
X11465741Y15228522D01*
X11465741Y15228522D02*
X11489569Y15252350D01*
X11489569Y15252350D02*
X11513396Y15300005D01*
X11513396Y15300005D02*
X11537224Y15395316D01*
X11537224Y15395316D02*
X11537224Y15514454D01*
X11537224Y15514454D02*
X11513396Y15609764D01*
X11513396Y15609764D02*
X11489569Y15657420D01*
X11489569Y15657420D02*
X11465741Y15681247D01*
X11465741Y15681247D02*
X11418086Y15705075D01*
X11036844Y15204695D02*
X11036844Y15705075D01*
X10989189Y15395316D02*
X10846223Y15204695D01*
X10846223Y15538282D02*
X11036844Y15347661D01*
%TO.C,C3*%
X13132150Y11703897D02*
X13155978Y11727725D01*
X13155978Y11727725D02*
X13179805Y11799207D01*
X13179805Y11799207D02*
X13179805Y11846863D01*
X13179805Y11846863D02*
X13155978Y11918346D01*
X13155978Y11918346D02*
X13108322Y11966001D01*
X13108322Y11966001D02*
X13060667Y11989828D01*
X13060667Y11989828D02*
X12965357Y12013656D01*
X12965357Y12013656D02*
X12893874Y12013656D01*
X12893874Y12013656D02*
X12798563Y11989828D01*
X12798563Y11989828D02*
X12750908Y11966001D01*
X12750908Y11966001D02*
X12703253Y11918346D01*
X12703253Y11918346D02*
X12679425Y11846863D01*
X12679425Y11846863D02*
X12679425Y11799207D01*
X12679425Y11799207D02*
X12703253Y11727725D01*
X12703253Y11727725D02*
X12727080Y11703897D01*
X12679425Y11537104D02*
X12679425Y11227345D01*
X12679425Y11227345D02*
X12870046Y11394138D01*
X12870046Y11394138D02*
X12870046Y11322655D01*
X12870046Y11322655D02*
X12893874Y11275000D01*
X12893874Y11275000D02*
X12917701Y11251172D01*
X12917701Y11251172D02*
X12965357Y11227345D01*
X12965357Y11227345D02*
X13084495Y11227345D01*
X13084495Y11227345D02*
X13132150Y11251172D01*
X13132150Y11251172D02*
X13155978Y11275000D01*
X13155978Y11275000D02*
X13179805Y11322655D01*
X13179805Y11322655D02*
X13179805Y11465621D01*
X13179805Y11465621D02*
X13155978Y11513276D01*
X13155978Y11513276D02*
X13132150Y11537104D01*
X13941805Y12283622D02*
X13941805Y12569553D01*
X13941805Y12426587D02*
X13441425Y12426587D01*
X13441425Y12426587D02*
X13512908Y12474243D01*
X13512908Y12474243D02*
X13560563Y12521898D01*
X13560563Y12521898D02*
X13584391Y12569553D01*
X13441425Y11973863D02*
X13441425Y11926208D01*
X13441425Y11926208D02*
X13465253Y11878552D01*
X13465253Y11878552D02*
X13489080Y11854725D01*
X13489080Y11854725D02*
X13536736Y11830897D01*
X13536736Y11830897D02*
X13632046Y11807070D01*
X13632046Y11807070D02*
X13751184Y11807070D01*
X13751184Y11807070D02*
X13846495Y11830897D01*
X13846495Y11830897D02*
X13894150Y11854725D01*
X13894150Y11854725D02*
X13917978Y11878552D01*
X13917978Y11878552D02*
X13941805Y11926208D01*
X13941805Y11926208D02*
X13941805Y11973863D01*
X13941805Y11973863D02*
X13917978Y12021518D01*
X13917978Y12021518D02*
X13894150Y12045346D01*
X13894150Y12045346D02*
X13846495Y12069173D01*
X13846495Y12069173D02*
X13751184Y12093001D01*
X13751184Y12093001D02*
X13632046Y12093001D01*
X13632046Y12093001D02*
X13536736Y12069173D01*
X13536736Y12069173D02*
X13489080Y12045346D01*
X13489080Y12045346D02*
X13465253Y12021518D01*
X13465253Y12021518D02*
X13441425Y11973863D01*
X13608218Y11378173D02*
X13941805Y11378173D01*
X13608218Y11592621D02*
X13870322Y11592621D01*
X13870322Y11592621D02*
X13917978Y11568794D01*
X13917978Y11568794D02*
X13941805Y11521139D01*
X13941805Y11521139D02*
X13941805Y11449656D01*
X13941805Y11449656D02*
X13917978Y11402000D01*
X13917978Y11402000D02*
X13894150Y11378173D01*
X13679701Y10973103D02*
X13679701Y11139896D01*
X13941805Y11139896D02*
X13441425Y11139896D01*
X13441425Y11139896D02*
X13441425Y10901620D01*
%TO.C,C6*%
X22562396Y8521350D02*
X22586224Y8497522D01*
X22586224Y8497522D02*
X22657706Y8473695D01*
X22657706Y8473695D02*
X22705362Y8473695D01*
X22705362Y8473695D02*
X22776845Y8497522D01*
X22776845Y8497522D02*
X22824500Y8545178D01*
X22824500Y8545178D02*
X22848327Y8592833D01*
X22848327Y8592833D02*
X22872155Y8688143D01*
X22872155Y8688143D02*
X22872155Y8759626D01*
X22872155Y8759626D02*
X22848327Y8854937D01*
X22848327Y8854937D02*
X22824500Y8902592D01*
X22824500Y8902592D02*
X22776845Y8950247D01*
X22776845Y8950247D02*
X22705362Y8974075D01*
X22705362Y8974075D02*
X22657706Y8974075D01*
X22657706Y8974075D02*
X22586224Y8950247D01*
X22586224Y8950247D02*
X22562396Y8926420D01*
X22133499Y8974075D02*
X22228809Y8974075D01*
X22228809Y8974075D02*
X22276465Y8950247D01*
X22276465Y8950247D02*
X22300292Y8926420D01*
X22300292Y8926420D02*
X22347947Y8854937D01*
X22347947Y8854937D02*
X22371775Y8759626D01*
X22371775Y8759626D02*
X22371775Y8569005D01*
X22371775Y8569005D02*
X22347947Y8521350D01*
X22347947Y8521350D02*
X22324120Y8497522D01*
X22324120Y8497522D02*
X22276465Y8473695D01*
X22276465Y8473695D02*
X22181154Y8473695D01*
X22181154Y8473695D02*
X22133499Y8497522D01*
X22133499Y8497522D02*
X22109671Y8521350D01*
X22109671Y8521350D02*
X22085844Y8569005D01*
X22085844Y8569005D02*
X22085844Y8688143D01*
X22085844Y8688143D02*
X22109671Y8735799D01*
X22109671Y8735799D02*
X22133499Y8759626D01*
X22133499Y8759626D02*
X22181154Y8783454D01*
X22181154Y8783454D02*
X22276465Y8783454D01*
X22276465Y8783454D02*
X22324120Y8759626D01*
X22324120Y8759626D02*
X22347947Y8735799D01*
X22347947Y8735799D02*
X22371775Y8688143D01*
X23126397Y7775195D02*
X23412328Y7775195D01*
X23269362Y7775195D02*
X23269362Y8275575D01*
X23269362Y8275575D02*
X23317018Y8204092D01*
X23317018Y8204092D02*
X23364673Y8156437D01*
X23364673Y8156437D02*
X23412328Y8132609D01*
X22816638Y8275575D02*
X22768983Y8275575D01*
X22768983Y8275575D02*
X22721327Y8251747D01*
X22721327Y8251747D02*
X22697500Y8227920D01*
X22697500Y8227920D02*
X22673672Y8180264D01*
X22673672Y8180264D02*
X22649845Y8084954D01*
X22649845Y8084954D02*
X22649845Y7965816D01*
X22649845Y7965816D02*
X22673672Y7870505D01*
X22673672Y7870505D02*
X22697500Y7822850D01*
X22697500Y7822850D02*
X22721327Y7799022D01*
X22721327Y7799022D02*
X22768983Y7775195D01*
X22768983Y7775195D02*
X22816638Y7775195D01*
X22816638Y7775195D02*
X22864293Y7799022D01*
X22864293Y7799022D02*
X22888121Y7822850D01*
X22888121Y7822850D02*
X22911948Y7870505D01*
X22911948Y7870505D02*
X22935776Y7965816D01*
X22935776Y7965816D02*
X22935776Y8084954D01*
X22935776Y8084954D02*
X22911948Y8180264D01*
X22911948Y8180264D02*
X22888121Y8227920D01*
X22888121Y8227920D02*
X22864293Y8251747D01*
X22864293Y8251747D02*
X22816638Y8275575D01*
X22340086Y8275575D02*
X22292431Y8275575D01*
X22292431Y8275575D02*
X22244775Y8251747D01*
X22244775Y8251747D02*
X22220948Y8227920D01*
X22220948Y8227920D02*
X22197120Y8180264D01*
X22197120Y8180264D02*
X22173293Y8084954D01*
X22173293Y8084954D02*
X22173293Y7965816D01*
X22173293Y7965816D02*
X22197120Y7870505D01*
X22197120Y7870505D02*
X22220948Y7822850D01*
X22220948Y7822850D02*
X22244775Y7799022D01*
X22244775Y7799022D02*
X22292431Y7775195D01*
X22292431Y7775195D02*
X22340086Y7775195D01*
X22340086Y7775195D02*
X22387741Y7799022D01*
X22387741Y7799022D02*
X22411569Y7822850D01*
X22411569Y7822850D02*
X22435396Y7870505D01*
X22435396Y7870505D02*
X22459224Y7965816D01*
X22459224Y7965816D02*
X22459224Y8084954D01*
X22459224Y8084954D02*
X22435396Y8180264D01*
X22435396Y8180264D02*
X22411569Y8227920D01*
X22411569Y8227920D02*
X22387741Y8251747D01*
X22387741Y8251747D02*
X22340086Y8275575D01*
X21958844Y8108782D02*
X21958844Y7775195D01*
X21958844Y8061126D02*
X21935017Y8084954D01*
X21935017Y8084954D02*
X21887362Y8108782D01*
X21887362Y8108782D02*
X21815879Y8108782D01*
X21815879Y8108782D02*
X21768223Y8084954D01*
X21768223Y8084954D02*
X21744396Y8037299D01*
X21744396Y8037299D02*
X21744396Y7775195D01*
X21339326Y8037299D02*
X21506119Y8037299D01*
X21506119Y7775195D02*
X21506119Y8275575D01*
X21506119Y8275575D02*
X21267843Y8275575D01*
%TO.C,R9*%
X29483896Y22316695D02*
X29650689Y22554971D01*
X29769827Y22316695D02*
X29769827Y22817075D01*
X29769827Y22817075D02*
X29579206Y22817075D01*
X29579206Y22817075D02*
X29531551Y22793247D01*
X29531551Y22793247D02*
X29507724Y22769420D01*
X29507724Y22769420D02*
X29483896Y22721764D01*
X29483896Y22721764D02*
X29483896Y22650282D01*
X29483896Y22650282D02*
X29507724Y22602626D01*
X29507724Y22602626D02*
X29531551Y22578799D01*
X29531551Y22578799D02*
X29579206Y22554971D01*
X29579206Y22554971D02*
X29769827Y22554971D01*
X29245620Y22316695D02*
X29150309Y22316695D01*
X29150309Y22316695D02*
X29102654Y22340522D01*
X29102654Y22340522D02*
X29078826Y22364350D01*
X29078826Y22364350D02*
X29031171Y22435833D01*
X29031171Y22435833D02*
X29007344Y22531143D01*
X29007344Y22531143D02*
X29007344Y22721764D01*
X29007344Y22721764D02*
X29031171Y22769420D01*
X29031171Y22769420D02*
X29054999Y22793247D01*
X29054999Y22793247D02*
X29102654Y22817075D01*
X29102654Y22817075D02*
X29197965Y22817075D01*
X29197965Y22817075D02*
X29245620Y22793247D01*
X29245620Y22793247D02*
X29269447Y22769420D01*
X29269447Y22769420D02*
X29293275Y22721764D01*
X29293275Y22721764D02*
X29293275Y22602626D01*
X29293275Y22602626D02*
X29269447Y22554971D01*
X29269447Y22554971D02*
X29245620Y22531143D01*
X29245620Y22531143D02*
X29197965Y22507316D01*
X29197965Y22507316D02*
X29102654Y22507316D01*
X29102654Y22507316D02*
X29054999Y22531143D01*
X29054999Y22531143D02*
X29031171Y22554971D01*
X29031171Y22554971D02*
X29007344Y22602626D01*
X29801517Y23515575D02*
X29753862Y23515575D01*
X29753862Y23515575D02*
X29706206Y23491747D01*
X29706206Y23491747D02*
X29682379Y23467920D01*
X29682379Y23467920D02*
X29658551Y23420264D01*
X29658551Y23420264D02*
X29634724Y23324954D01*
X29634724Y23324954D02*
X29634724Y23205816D01*
X29634724Y23205816D02*
X29658551Y23110505D01*
X29658551Y23110505D02*
X29682379Y23062850D01*
X29682379Y23062850D02*
X29706206Y23039022D01*
X29706206Y23039022D02*
X29753862Y23015195D01*
X29753862Y23015195D02*
X29801517Y23015195D01*
X29801517Y23015195D02*
X29849172Y23039022D01*
X29849172Y23039022D02*
X29873000Y23062850D01*
X29873000Y23062850D02*
X29896827Y23110505D01*
X29896827Y23110505D02*
X29920655Y23205816D01*
X29920655Y23205816D02*
X29920655Y23324954D01*
X29920655Y23324954D02*
X29896827Y23420264D01*
X29896827Y23420264D02*
X29873000Y23467920D01*
X29873000Y23467920D02*
X29849172Y23491747D01*
X29849172Y23491747D02*
X29801517Y23515575D01*
X29134344Y23015195D02*
X29301137Y23253471D01*
X29420275Y23015195D02*
X29420275Y23515575D01*
X29420275Y23515575D02*
X29229654Y23515575D01*
X29229654Y23515575D02*
X29181999Y23491747D01*
X29181999Y23491747D02*
X29158172Y23467920D01*
X29158172Y23467920D02*
X29134344Y23420264D01*
X29134344Y23420264D02*
X29134344Y23348782D01*
X29134344Y23348782D02*
X29158172Y23301126D01*
X29158172Y23301126D02*
X29181999Y23277299D01*
X29181999Y23277299D02*
X29229654Y23253471D01*
X29229654Y23253471D02*
X29420275Y23253471D01*
%TO.C,R10*%
X23181672Y22570695D02*
X23348465Y22808971D01*
X23467603Y22570695D02*
X23467603Y23071075D01*
X23467603Y23071075D02*
X23276982Y23071075D01*
X23276982Y23071075D02*
X23229327Y23047247D01*
X23229327Y23047247D02*
X23205500Y23023420D01*
X23205500Y23023420D02*
X23181672Y22975764D01*
X23181672Y22975764D02*
X23181672Y22904282D01*
X23181672Y22904282D02*
X23205500Y22856626D01*
X23205500Y22856626D02*
X23229327Y22832799D01*
X23229327Y22832799D02*
X23276982Y22808971D01*
X23276982Y22808971D02*
X23467603Y22808971D01*
X22705120Y22570695D02*
X22991051Y22570695D01*
X22848085Y22570695D02*
X22848085Y23071075D01*
X22848085Y23071075D02*
X22895741Y22999592D01*
X22895741Y22999592D02*
X22943396Y22951937D01*
X22943396Y22951937D02*
X22991051Y22928109D01*
X22395361Y23071075D02*
X22347706Y23071075D01*
X22347706Y23071075D02*
X22300050Y23047247D01*
X22300050Y23047247D02*
X22276223Y23023420D01*
X22276223Y23023420D02*
X22252395Y22975764D01*
X22252395Y22975764D02*
X22228568Y22880454D01*
X22228568Y22880454D02*
X22228568Y22761316D01*
X22228568Y22761316D02*
X22252395Y22666005D01*
X22252395Y22666005D02*
X22276223Y22618350D01*
X22276223Y22618350D02*
X22300050Y22594522D01*
X22300050Y22594522D02*
X22347706Y22570695D01*
X22347706Y22570695D02*
X22395361Y22570695D01*
X22395361Y22570695D02*
X22443016Y22594522D01*
X22443016Y22594522D02*
X22466844Y22618350D01*
X22466844Y22618350D02*
X22490671Y22666005D01*
X22490671Y22666005D02*
X22514499Y22761316D01*
X22514499Y22761316D02*
X22514499Y22880454D01*
X22514499Y22880454D02*
X22490671Y22975764D01*
X22490671Y22975764D02*
X22466844Y23023420D01*
X22466844Y23023420D02*
X22443016Y23047247D01*
X22443016Y23047247D02*
X22395361Y23071075D01*
X23284845Y23269195D02*
X23570776Y23269195D01*
X23427810Y23269195D02*
X23427810Y23769575D01*
X23427810Y23769575D02*
X23475466Y23698092D01*
X23475466Y23698092D02*
X23523121Y23650437D01*
X23523121Y23650437D02*
X23570776Y23626609D01*
X22975086Y23769575D02*
X22927431Y23769575D01*
X22927431Y23769575D02*
X22879775Y23745747D01*
X22879775Y23745747D02*
X22855948Y23721920D01*
X22855948Y23721920D02*
X22832120Y23674264D01*
X22832120Y23674264D02*
X22808293Y23578954D01*
X22808293Y23578954D02*
X22808293Y23459816D01*
X22808293Y23459816D02*
X22832120Y23364505D01*
X22832120Y23364505D02*
X22855948Y23316850D01*
X22855948Y23316850D02*
X22879775Y23293022D01*
X22879775Y23293022D02*
X22927431Y23269195D01*
X22927431Y23269195D02*
X22975086Y23269195D01*
X22975086Y23269195D02*
X23022741Y23293022D01*
X23022741Y23293022D02*
X23046569Y23316850D01*
X23046569Y23316850D02*
X23070396Y23364505D01*
X23070396Y23364505D02*
X23094224Y23459816D01*
X23094224Y23459816D02*
X23094224Y23578954D01*
X23094224Y23578954D02*
X23070396Y23674264D01*
X23070396Y23674264D02*
X23046569Y23721920D01*
X23046569Y23721920D02*
X23022741Y23745747D01*
X23022741Y23745747D02*
X22975086Y23769575D01*
X22593844Y23269195D02*
X22593844Y23769575D01*
X22546189Y23459816D02*
X22403223Y23269195D01*
X22403223Y23602782D02*
X22593844Y23412161D01*
D12*
%TO.C,L1*%
X793319Y19506667D02*
X793319Y19982857D01*
X793319Y19982857D02*
X-206681Y19982857D01*
X793319Y18649524D02*
X793319Y19220952D01*
X793319Y18935238D02*
X-206681Y18935238D01*
X-206681Y18935238D02*
X-63824Y19030476D01*
X-63824Y19030476D02*
X31414Y19125714D01*
X31414Y19125714D02*
X79033Y19220952D01*
D11*
%TO.C,C1*%
X9227396Y16077850D02*
X9251224Y16054022D01*
X9251224Y16054022D02*
X9322706Y16030195D01*
X9322706Y16030195D02*
X9370362Y16030195D01*
X9370362Y16030195D02*
X9441845Y16054022D01*
X9441845Y16054022D02*
X9489500Y16101678D01*
X9489500Y16101678D02*
X9513327Y16149333D01*
X9513327Y16149333D02*
X9537155Y16244643D01*
X9537155Y16244643D02*
X9537155Y16316126D01*
X9537155Y16316126D02*
X9513327Y16411437D01*
X9513327Y16411437D02*
X9489500Y16459092D01*
X9489500Y16459092D02*
X9441845Y16506747D01*
X9441845Y16506747D02*
X9370362Y16530575D01*
X9370362Y16530575D02*
X9322706Y16530575D01*
X9322706Y16530575D02*
X9251224Y16506747D01*
X9251224Y16506747D02*
X9227396Y16482920D01*
X8750844Y16030195D02*
X9036775Y16030195D01*
X8893809Y16030195D02*
X8893809Y16530575D01*
X8893809Y16530575D02*
X8941465Y16459092D01*
X8941465Y16459092D02*
X8989120Y16411437D01*
X8989120Y16411437D02*
X9036775Y16387609D01*
X9688224Y15768575D02*
X9926500Y15768575D01*
X9926500Y15768575D02*
X9950328Y15530299D01*
X9950328Y15530299D02*
X9926500Y15554126D01*
X9926500Y15554126D02*
X9878845Y15577954D01*
X9878845Y15577954D02*
X9759707Y15577954D01*
X9759707Y15577954D02*
X9712052Y15554126D01*
X9712052Y15554126D02*
X9688224Y15530299D01*
X9688224Y15530299D02*
X9664397Y15482643D01*
X9664397Y15482643D02*
X9664397Y15363505D01*
X9664397Y15363505D02*
X9688224Y15315850D01*
X9688224Y15315850D02*
X9712052Y15292022D01*
X9712052Y15292022D02*
X9759707Y15268195D01*
X9759707Y15268195D02*
X9878845Y15268195D01*
X9878845Y15268195D02*
X9926500Y15292022D01*
X9926500Y15292022D02*
X9950328Y15315850D01*
X9187845Y15268195D02*
X9473776Y15268195D01*
X9330810Y15268195D02*
X9330810Y15768575D01*
X9330810Y15768575D02*
X9378466Y15697092D01*
X9378466Y15697092D02*
X9426121Y15649437D01*
X9426121Y15649437D02*
X9473776Y15625609D01*
X8878086Y15768575D02*
X8830431Y15768575D01*
X8830431Y15768575D02*
X8782775Y15744747D01*
X8782775Y15744747D02*
X8758948Y15720920D01*
X8758948Y15720920D02*
X8735120Y15673264D01*
X8735120Y15673264D02*
X8711293Y15577954D01*
X8711293Y15577954D02*
X8711293Y15458816D01*
X8711293Y15458816D02*
X8735120Y15363505D01*
X8735120Y15363505D02*
X8758948Y15315850D01*
X8758948Y15315850D02*
X8782775Y15292022D01*
X8782775Y15292022D02*
X8830431Y15268195D01*
X8830431Y15268195D02*
X8878086Y15268195D01*
X8878086Y15268195D02*
X8925741Y15292022D01*
X8925741Y15292022D02*
X8949569Y15315850D01*
X8949569Y15315850D02*
X8973396Y15363505D01*
X8973396Y15363505D02*
X8997224Y15458816D01*
X8997224Y15458816D02*
X8997224Y15577954D01*
X8997224Y15577954D02*
X8973396Y15673264D01*
X8973396Y15673264D02*
X8949569Y15720920D01*
X8949569Y15720920D02*
X8925741Y15744747D01*
X8925741Y15744747D02*
X8878086Y15768575D01*
X8496844Y15601782D02*
X8496844Y15101402D01*
X8496844Y15577954D02*
X8449189Y15601782D01*
X8449189Y15601782D02*
X8353879Y15601782D01*
X8353879Y15601782D02*
X8306223Y15577954D01*
X8306223Y15577954D02*
X8282396Y15554126D01*
X8282396Y15554126D02*
X8258568Y15506471D01*
X8258568Y15506471D02*
X8258568Y15363505D01*
X8258568Y15363505D02*
X8282396Y15315850D01*
X8282396Y15315850D02*
X8306223Y15292022D01*
X8306223Y15292022D02*
X8353879Y15268195D01*
X8353879Y15268195D02*
X8449189Y15268195D01*
X8449189Y15268195D02*
X8496844Y15292022D01*
X7877326Y15530299D02*
X8044119Y15530299D01*
X8044119Y15268195D02*
X8044119Y15768575D01*
X8044119Y15768575D02*
X7805843Y15768575D01*
%TO.C,C2*%
X7353650Y15767897D02*
X7377478Y15791725D01*
X7377478Y15791725D02*
X7401305Y15863207D01*
X7401305Y15863207D02*
X7401305Y15910863D01*
X7401305Y15910863D02*
X7377478Y15982346D01*
X7377478Y15982346D02*
X7329822Y16030001D01*
X7329822Y16030001D02*
X7282167Y16053828D01*
X7282167Y16053828D02*
X7186857Y16077656D01*
X7186857Y16077656D02*
X7115374Y16077656D01*
X7115374Y16077656D02*
X7020063Y16053828D01*
X7020063Y16053828D02*
X6972408Y16030001D01*
X6972408Y16030001D02*
X6924753Y15982346D01*
X6924753Y15982346D02*
X6900925Y15910863D01*
X6900925Y15910863D02*
X6900925Y15863207D01*
X6900925Y15863207D02*
X6924753Y15791725D01*
X6924753Y15791725D02*
X6948580Y15767897D01*
X6948580Y15577276D02*
X6924753Y15553448D01*
X6924753Y15553448D02*
X6900925Y15505793D01*
X6900925Y15505793D02*
X6900925Y15386655D01*
X6900925Y15386655D02*
X6924753Y15339000D01*
X6924753Y15339000D02*
X6948580Y15315172D01*
X6948580Y15315172D02*
X6996236Y15291345D01*
X6996236Y15291345D02*
X7043891Y15291345D01*
X7043891Y15291345D02*
X7115374Y15315172D01*
X7115374Y15315172D02*
X7401305Y15601104D01*
X7401305Y15601104D02*
X7401305Y15291345D01*
X6369218Y16633553D02*
X6702805Y16633553D01*
X6178598Y16752691D02*
X6536012Y16871829D01*
X6536012Y16871829D02*
X6536012Y16562070D01*
X6202425Y16419105D02*
X6202425Y16085518D01*
X6202425Y16085518D02*
X6702805Y16299967D01*
X6202425Y15799587D02*
X6202425Y15751932D01*
X6202425Y15751932D02*
X6226253Y15704276D01*
X6226253Y15704276D02*
X6250080Y15680449D01*
X6250080Y15680449D02*
X6297736Y15656621D01*
X6297736Y15656621D02*
X6393046Y15632794D01*
X6393046Y15632794D02*
X6512184Y15632794D01*
X6512184Y15632794D02*
X6607495Y15656621D01*
X6607495Y15656621D02*
X6655150Y15680449D01*
X6655150Y15680449D02*
X6678978Y15704276D01*
X6678978Y15704276D02*
X6702805Y15751932D01*
X6702805Y15751932D02*
X6702805Y15799587D01*
X6702805Y15799587D02*
X6678978Y15847242D01*
X6678978Y15847242D02*
X6655150Y15871070D01*
X6655150Y15871070D02*
X6607495Y15894897D01*
X6607495Y15894897D02*
X6512184Y15918725D01*
X6512184Y15918725D02*
X6393046Y15918725D01*
X6393046Y15918725D02*
X6297736Y15894897D01*
X6297736Y15894897D02*
X6250080Y15871070D01*
X6250080Y15871070D02*
X6226253Y15847242D01*
X6226253Y15847242D02*
X6202425Y15799587D01*
X6369218Y15418345D02*
X6869598Y15418345D01*
X6393046Y15418345D02*
X6369218Y15370690D01*
X6369218Y15370690D02*
X6369218Y15275380D01*
X6369218Y15275380D02*
X6393046Y15227724D01*
X6393046Y15227724D02*
X6416874Y15203897D01*
X6416874Y15203897D02*
X6464529Y15180069D01*
X6464529Y15180069D02*
X6607495Y15180069D01*
X6607495Y15180069D02*
X6655150Y15203897D01*
X6655150Y15203897D02*
X6678978Y15227724D01*
X6678978Y15227724D02*
X6702805Y15275380D01*
X6702805Y15275380D02*
X6702805Y15370690D01*
X6702805Y15370690D02*
X6678978Y15418345D01*
X6440701Y14798827D02*
X6440701Y14965620D01*
X6702805Y14965620D02*
X6202425Y14965620D01*
X6202425Y14965620D02*
X6202425Y14727344D01*
%TO.C,C5*%
X22562396Y10743850D02*
X22586224Y10720022D01*
X22586224Y10720022D02*
X22657706Y10696195D01*
X22657706Y10696195D02*
X22705362Y10696195D01*
X22705362Y10696195D02*
X22776845Y10720022D01*
X22776845Y10720022D02*
X22824500Y10767678D01*
X22824500Y10767678D02*
X22848327Y10815333D01*
X22848327Y10815333D02*
X22872155Y10910643D01*
X22872155Y10910643D02*
X22872155Y10982126D01*
X22872155Y10982126D02*
X22848327Y11077437D01*
X22848327Y11077437D02*
X22824500Y11125092D01*
X22824500Y11125092D02*
X22776845Y11172747D01*
X22776845Y11172747D02*
X22705362Y11196575D01*
X22705362Y11196575D02*
X22657706Y11196575D01*
X22657706Y11196575D02*
X22586224Y11172747D01*
X22586224Y11172747D02*
X22562396Y11148920D01*
X22109671Y11196575D02*
X22347947Y11196575D01*
X22347947Y11196575D02*
X22371775Y10958299D01*
X22371775Y10958299D02*
X22347947Y10982126D01*
X22347947Y10982126D02*
X22300292Y11005954D01*
X22300292Y11005954D02*
X22181154Y11005954D01*
X22181154Y11005954D02*
X22133499Y10982126D01*
X22133499Y10982126D02*
X22109671Y10958299D01*
X22109671Y10958299D02*
X22085844Y10910643D01*
X22085844Y10910643D02*
X22085844Y10791505D01*
X22085844Y10791505D02*
X22109671Y10743850D01*
X22109671Y10743850D02*
X22133499Y10720022D01*
X22133499Y10720022D02*
X22181154Y10696195D01*
X22181154Y10696195D02*
X22300292Y10696195D01*
X22300292Y10696195D02*
X22347947Y10720022D01*
X22347947Y10720022D02*
X22371775Y10743850D01*
X23841225Y9997695D02*
X24127156Y9997695D01*
X23984190Y9997695D02*
X23984190Y10498075D01*
X23984190Y10498075D02*
X24031846Y10426592D01*
X24031846Y10426592D02*
X24079501Y10378937D01*
X24079501Y10378937D02*
X24127156Y10355109D01*
X23531466Y10498075D02*
X23483811Y10498075D01*
X23483811Y10498075D02*
X23436155Y10474247D01*
X23436155Y10474247D02*
X23412328Y10450420D01*
X23412328Y10450420D02*
X23388500Y10402764D01*
X23388500Y10402764D02*
X23364673Y10307454D01*
X23364673Y10307454D02*
X23364673Y10188316D01*
X23364673Y10188316D02*
X23388500Y10093005D01*
X23388500Y10093005D02*
X23412328Y10045350D01*
X23412328Y10045350D02*
X23436155Y10021522D01*
X23436155Y10021522D02*
X23483811Y9997695D01*
X23483811Y9997695D02*
X23531466Y9997695D01*
X23531466Y9997695D02*
X23579121Y10021522D01*
X23579121Y10021522D02*
X23602949Y10045350D01*
X23602949Y10045350D02*
X23626776Y10093005D01*
X23626776Y10093005D02*
X23650604Y10188316D01*
X23650604Y10188316D02*
X23650604Y10307454D01*
X23650604Y10307454D02*
X23626776Y10402764D01*
X23626776Y10402764D02*
X23602949Y10450420D01*
X23602949Y10450420D02*
X23579121Y10474247D01*
X23579121Y10474247D02*
X23531466Y10498075D01*
X22935776Y10331282D02*
X22935776Y9997695D01*
X23150224Y10331282D02*
X23150224Y10069178D01*
X23150224Y10069178D02*
X23126397Y10021522D01*
X23126397Y10021522D02*
X23078742Y9997695D01*
X23078742Y9997695D02*
X23007259Y9997695D01*
X23007259Y9997695D02*
X22959603Y10021522D01*
X22959603Y10021522D02*
X22935776Y10045350D01*
X22530706Y10259799D02*
X22697499Y10259799D01*
X22697499Y9997695D02*
X22697499Y10498075D01*
X22697499Y10498075D02*
X22459223Y10498075D01*
X21911188Y10521902D02*
X22340085Y9878557D01*
X21482291Y9997695D02*
X21768222Y9997695D01*
X21625256Y9997695D02*
X21625256Y10498075D01*
X21625256Y10498075D02*
X21672912Y10426592D01*
X21672912Y10426592D02*
X21720567Y10378937D01*
X21720567Y10378937D02*
X21768222Y10355109D01*
X21172532Y10498075D02*
X21124877Y10498075D01*
X21124877Y10498075D02*
X21077221Y10474247D01*
X21077221Y10474247D02*
X21053394Y10450420D01*
X21053394Y10450420D02*
X21029566Y10402764D01*
X21029566Y10402764D02*
X21005739Y10307454D01*
X21005739Y10307454D02*
X21005739Y10188316D01*
X21005739Y10188316D02*
X21029566Y10093005D01*
X21029566Y10093005D02*
X21053394Y10045350D01*
X21053394Y10045350D02*
X21077221Y10021522D01*
X21077221Y10021522D02*
X21124877Y9997695D01*
X21124877Y9997695D02*
X21172532Y9997695D01*
X21172532Y9997695D02*
X21220187Y10021522D01*
X21220187Y10021522D02*
X21244015Y10045350D01*
X21244015Y10045350D02*
X21267842Y10093005D01*
X21267842Y10093005D02*
X21291670Y10188316D01*
X21291670Y10188316D02*
X21291670Y10307454D01*
X21291670Y10307454D02*
X21267842Y10402764D01*
X21267842Y10402764D02*
X21244015Y10450420D01*
X21244015Y10450420D02*
X21220187Y10474247D01*
X21220187Y10474247D02*
X21172532Y10498075D01*
X20862773Y10498075D02*
X20695980Y9997695D01*
X20695980Y9997695D02*
X20529187Y10498075D01*
D13*
%TO.C,D1*%
X29369656Y12836319D02*
X29369656Y14360319D01*
X29369656Y14360319D02*
X29006799Y14360319D01*
X29006799Y14360319D02*
X28789085Y14287748D01*
X28789085Y14287748D02*
X28643942Y14142605D01*
X28643942Y14142605D02*
X28571371Y13997462D01*
X28571371Y13997462D02*
X28498799Y13707176D01*
X28498799Y13707176D02*
X28498799Y13489462D01*
X28498799Y13489462D02*
X28571371Y13199176D01*
X28571371Y13199176D02*
X28643942Y13054033D01*
X28643942Y13054033D02*
X28789085Y12908890D01*
X28789085Y12908890D02*
X29006799Y12836319D01*
X29006799Y12836319D02*
X29369656Y12836319D01*
X27047371Y12836319D02*
X27918228Y12836319D01*
X27482799Y12836319D02*
X27482799Y14360319D01*
X27482799Y14360319D02*
X27627942Y14142605D01*
X27627942Y14142605D02*
X27773085Y13997462D01*
X27773085Y13997462D02*
X27918228Y13924890D01*
D14*
X26026351Y8610327D02*
X26026351Y9110707D01*
X25740420Y8610327D02*
X25954869Y8896258D01*
X25740420Y9110707D02*
X26026351Y8824775D01*
X30914097Y8852353D02*
X30675821Y8852353D01*
X30961752Y8709387D02*
X30794959Y9209767D01*
X30794959Y9209767D02*
X30628166Y8709387D01*
D11*
%TO.C,R4*%
X12036805Y5099897D02*
X11798529Y5266690D01*
X12036805Y5385828D02*
X11536425Y5385828D01*
X11536425Y5385828D02*
X11536425Y5195207D01*
X11536425Y5195207D02*
X11560253Y5147552D01*
X11560253Y5147552D02*
X11584080Y5123725D01*
X11584080Y5123725D02*
X11631736Y5099897D01*
X11631736Y5099897D02*
X11703218Y5099897D01*
X11703218Y5099897D02*
X11750874Y5123725D01*
X11750874Y5123725D02*
X11774701Y5147552D01*
X11774701Y5147552D02*
X11798529Y5195207D01*
X11798529Y5195207D02*
X11798529Y5385828D01*
X11703218Y4671000D02*
X12036805Y4671000D01*
X11512598Y4790138D02*
X11870012Y4909276D01*
X11870012Y4909276D02*
X11870012Y4599517D01*
X11147684Y5334121D02*
X11147684Y4952879D01*
%TO.C,R5*%
X18942896Y23205695D02*
X19109689Y23443971D01*
X19228827Y23205695D02*
X19228827Y23706075D01*
X19228827Y23706075D02*
X19038206Y23706075D01*
X19038206Y23706075D02*
X18990551Y23682247D01*
X18990551Y23682247D02*
X18966724Y23658420D01*
X18966724Y23658420D02*
X18942896Y23610764D01*
X18942896Y23610764D02*
X18942896Y23539282D01*
X18942896Y23539282D02*
X18966724Y23491626D01*
X18966724Y23491626D02*
X18990551Y23467799D01*
X18990551Y23467799D02*
X19038206Y23443971D01*
X19038206Y23443971D02*
X19228827Y23443971D01*
X18490171Y23706075D02*
X18728447Y23706075D01*
X18728447Y23706075D02*
X18752275Y23467799D01*
X18752275Y23467799D02*
X18728447Y23491626D01*
X18728447Y23491626D02*
X18680792Y23515454D01*
X18680792Y23515454D02*
X18561654Y23515454D01*
X18561654Y23515454D02*
X18513999Y23491626D01*
X18513999Y23491626D02*
X18490171Y23467799D01*
X18490171Y23467799D02*
X18466344Y23420143D01*
X18466344Y23420143D02*
X18466344Y23301005D01*
X18466344Y23301005D02*
X18490171Y23253350D01*
X18490171Y23253350D02*
X18513999Y23229522D01*
X18513999Y23229522D02*
X18561654Y23205695D01*
X18561654Y23205695D02*
X18680792Y23205695D01*
X18680792Y23205695D02*
X18728447Y23229522D01*
X18728447Y23229522D02*
X18752275Y23253350D01*
X19030345Y22507195D02*
X19316276Y22507195D01*
X19173310Y22507195D02*
X19173310Y23007575D01*
X19173310Y23007575D02*
X19220966Y22936092D01*
X19220966Y22936092D02*
X19268621Y22888437D01*
X19268621Y22888437D02*
X19316276Y22864609D01*
X18720586Y23007575D02*
X18672931Y23007575D01*
X18672931Y23007575D02*
X18625275Y22983747D01*
X18625275Y22983747D02*
X18601448Y22959920D01*
X18601448Y22959920D02*
X18577620Y22912264D01*
X18577620Y22912264D02*
X18553793Y22816954D01*
X18553793Y22816954D02*
X18553793Y22697816D01*
X18553793Y22697816D02*
X18577620Y22602505D01*
X18577620Y22602505D02*
X18601448Y22554850D01*
X18601448Y22554850D02*
X18625275Y22531022D01*
X18625275Y22531022D02*
X18672931Y22507195D01*
X18672931Y22507195D02*
X18720586Y22507195D01*
X18720586Y22507195D02*
X18768241Y22531022D01*
X18768241Y22531022D02*
X18792069Y22554850D01*
X18792069Y22554850D02*
X18815896Y22602505D01*
X18815896Y22602505D02*
X18839724Y22697816D01*
X18839724Y22697816D02*
X18839724Y22816954D01*
X18839724Y22816954D02*
X18815896Y22912264D01*
X18815896Y22912264D02*
X18792069Y22959920D01*
X18792069Y22959920D02*
X18768241Y22983747D01*
X18768241Y22983747D02*
X18720586Y23007575D01*
X18339344Y22507195D02*
X18339344Y23007575D01*
X18291689Y22697816D02*
X18148723Y22507195D01*
X18148723Y22840782D02*
X18339344Y22650161D01*
%TO.C,R6*%
X23514896Y16055478D02*
X23681689Y16293754D01*
X23800827Y16055478D02*
X23800827Y16555858D01*
X23800827Y16555858D02*
X23610206Y16555858D01*
X23610206Y16555858D02*
X23562551Y16532030D01*
X23562551Y16532030D02*
X23538724Y16508203D01*
X23538724Y16508203D02*
X23514896Y16460547D01*
X23514896Y16460547D02*
X23514896Y16389065D01*
X23514896Y16389065D02*
X23538724Y16341409D01*
X23538724Y16341409D02*
X23562551Y16317582D01*
X23562551Y16317582D02*
X23610206Y16293754D01*
X23610206Y16293754D02*
X23800827Y16293754D01*
X23085999Y16555858D02*
X23181309Y16555858D01*
X23181309Y16555858D02*
X23228965Y16532030D01*
X23228965Y16532030D02*
X23252792Y16508203D01*
X23252792Y16508203D02*
X23300447Y16436720D01*
X23300447Y16436720D02*
X23324275Y16341409D01*
X23324275Y16341409D02*
X23324275Y16150788D01*
X23324275Y16150788D02*
X23300447Y16103133D01*
X23300447Y16103133D02*
X23276620Y16079305D01*
X23276620Y16079305D02*
X23228965Y16055478D01*
X23228965Y16055478D02*
X23133654Y16055478D01*
X23133654Y16055478D02*
X23085999Y16079305D01*
X23085999Y16079305D02*
X23062171Y16103133D01*
X23062171Y16103133D02*
X23038344Y16150788D01*
X23038344Y16150788D02*
X23038344Y16269926D01*
X23038344Y16269926D02*
X23062171Y16317582D01*
X23062171Y16317582D02*
X23085999Y16341409D01*
X23085999Y16341409D02*
X23133654Y16365237D01*
X23133654Y16365237D02*
X23228965Y16365237D01*
X23228965Y16365237D02*
X23276620Y16341409D01*
X23276620Y16341409D02*
X23300447Y16317582D01*
X23300447Y16317582D02*
X23324275Y16269926D01*
X23749120Y16944599D02*
X23367879Y16944599D01*
%TO.C,R7*%
X23514896Y14061695D02*
X23681689Y14299971D01*
X23800827Y14061695D02*
X23800827Y14562075D01*
X23800827Y14562075D02*
X23610206Y14562075D01*
X23610206Y14562075D02*
X23562551Y14538247D01*
X23562551Y14538247D02*
X23538724Y14514420D01*
X23538724Y14514420D02*
X23514896Y14466764D01*
X23514896Y14466764D02*
X23514896Y14395282D01*
X23514896Y14395282D02*
X23538724Y14347626D01*
X23538724Y14347626D02*
X23562551Y14323799D01*
X23562551Y14323799D02*
X23610206Y14299971D01*
X23610206Y14299971D02*
X23800827Y14299971D01*
X23348103Y14562075D02*
X23014516Y14562075D01*
X23014516Y14562075D02*
X23228965Y14061695D01*
X23578517Y13863575D02*
X23530862Y13863575D01*
X23530862Y13863575D02*
X23483206Y13839747D01*
X23483206Y13839747D02*
X23459379Y13815920D01*
X23459379Y13815920D02*
X23435551Y13768264D01*
X23435551Y13768264D02*
X23411724Y13672954D01*
X23411724Y13672954D02*
X23411724Y13553816D01*
X23411724Y13553816D02*
X23435551Y13458505D01*
X23435551Y13458505D02*
X23459379Y13410850D01*
X23459379Y13410850D02*
X23483206Y13387022D01*
X23483206Y13387022D02*
X23530862Y13363195D01*
X23530862Y13363195D02*
X23578517Y13363195D01*
X23578517Y13363195D02*
X23626172Y13387022D01*
X23626172Y13387022D02*
X23650000Y13410850D01*
X23650000Y13410850D02*
X23673827Y13458505D01*
X23673827Y13458505D02*
X23697655Y13553816D01*
X23697655Y13553816D02*
X23697655Y13672954D01*
X23697655Y13672954D02*
X23673827Y13768264D01*
X23673827Y13768264D02*
X23650000Y13815920D01*
X23650000Y13815920D02*
X23626172Y13839747D01*
X23626172Y13839747D02*
X23578517Y13863575D01*
X22911344Y13363195D02*
X23078137Y13601471D01*
X23197275Y13363195D02*
X23197275Y13863575D01*
X23197275Y13863575D02*
X23006654Y13863575D01*
X23006654Y13863575D02*
X22958999Y13839747D01*
X22958999Y13839747D02*
X22935172Y13815920D01*
X22935172Y13815920D02*
X22911344Y13768264D01*
X22911344Y13768264D02*
X22911344Y13696782D01*
X22911344Y13696782D02*
X22935172Y13649126D01*
X22935172Y13649126D02*
X22958999Y13625299D01*
X22958999Y13625299D02*
X23006654Y13601471D01*
X23006654Y13601471D02*
X23197275Y13601471D01*
%TO.C,R3*%
X13941805Y5163397D02*
X13703529Y5330190D01*
X13941805Y5449328D02*
X13441425Y5449328D01*
X13441425Y5449328D02*
X13441425Y5258707D01*
X13441425Y5258707D02*
X13465253Y5211052D01*
X13465253Y5211052D02*
X13489080Y5187225D01*
X13489080Y5187225D02*
X13536736Y5163397D01*
X13536736Y5163397D02*
X13608218Y5163397D01*
X13608218Y5163397D02*
X13655874Y5187225D01*
X13655874Y5187225D02*
X13679701Y5211052D01*
X13679701Y5211052D02*
X13703529Y5258707D01*
X13703529Y5258707D02*
X13703529Y5449328D01*
X13441425Y4996604D02*
X13441425Y4686845D01*
X13441425Y4686845D02*
X13632046Y4853638D01*
X13632046Y4853638D02*
X13632046Y4782155D01*
X13632046Y4782155D02*
X13655874Y4734500D01*
X13655874Y4734500D02*
X13679701Y4710672D01*
X13679701Y4710672D02*
X13727357Y4686845D01*
X13727357Y4686845D02*
X13846495Y4686845D01*
X13846495Y4686845D02*
X13894150Y4710672D01*
X13894150Y4710672D02*
X13917978Y4734500D01*
X13917978Y4734500D02*
X13941805Y4782155D01*
X13941805Y4782155D02*
X13941805Y4925121D01*
X13941805Y4925121D02*
X13917978Y4972776D01*
X13917978Y4972776D02*
X13894150Y4996604D01*
X13949425Y5227018D02*
X13949425Y5179363D01*
X13949425Y5179363D02*
X13973253Y5131707D01*
X13973253Y5131707D02*
X13997080Y5107880D01*
X13997080Y5107880D02*
X14044736Y5084052D01*
X14044736Y5084052D02*
X14140046Y5060225D01*
X14140046Y5060225D02*
X14259184Y5060225D01*
X14259184Y5060225D02*
X14354495Y5084052D01*
X14354495Y5084052D02*
X14402150Y5107880D01*
X14402150Y5107880D02*
X14425978Y5131707D01*
X14425978Y5131707D02*
X14449805Y5179363D01*
X14449805Y5179363D02*
X14449805Y5227018D01*
X14449805Y5227018D02*
X14425978Y5274673D01*
X14425978Y5274673D02*
X14402150Y5298501D01*
X14402150Y5298501D02*
X14354495Y5322328D01*
X14354495Y5322328D02*
X14259184Y5346156D01*
X14259184Y5346156D02*
X14140046Y5346156D01*
X14140046Y5346156D02*
X14044736Y5322328D01*
X14044736Y5322328D02*
X13997080Y5298501D01*
X13997080Y5298501D02*
X13973253Y5274673D01*
X13973253Y5274673D02*
X13949425Y5227018D01*
X14449805Y4559845D02*
X14211529Y4726638D01*
X14449805Y4845776D02*
X13949425Y4845776D01*
X13949425Y4845776D02*
X13949425Y4655155D01*
X13949425Y4655155D02*
X13973253Y4607500D01*
X13973253Y4607500D02*
X13997080Y4583673D01*
X13997080Y4583673D02*
X14044736Y4559845D01*
X14044736Y4559845D02*
X14116218Y4559845D01*
X14116218Y4559845D02*
X14163874Y4583673D01*
X14163874Y4583673D02*
X14187701Y4607500D01*
X14187701Y4607500D02*
X14211529Y4655155D01*
X14211529Y4655155D02*
X14211529Y4845776D01*
%TO.C,R1*%
X17545896Y7711695D02*
X17712689Y7949971D01*
X17831827Y7711695D02*
X17831827Y8212075D01*
X17831827Y8212075D02*
X17641206Y8212075D01*
X17641206Y8212075D02*
X17593551Y8188247D01*
X17593551Y8188247D02*
X17569724Y8164420D01*
X17569724Y8164420D02*
X17545896Y8116764D01*
X17545896Y8116764D02*
X17545896Y8045282D01*
X17545896Y8045282D02*
X17569724Y7997626D01*
X17569724Y7997626D02*
X17593551Y7973799D01*
X17593551Y7973799D02*
X17641206Y7949971D01*
X17641206Y7949971D02*
X17831827Y7949971D01*
X17069344Y7711695D02*
X17355275Y7711695D01*
X17212309Y7711695D02*
X17212309Y8212075D01*
X17212309Y8212075D02*
X17259965Y8140592D01*
X17259965Y8140592D02*
X17307620Y8092937D01*
X17307620Y8092937D02*
X17355275Y8069109D01*
X17887345Y8410195D02*
X18173276Y8410195D01*
X18030310Y8410195D02*
X18030310Y8910575D01*
X18030310Y8910575D02*
X18077966Y8839092D01*
X18077966Y8839092D02*
X18125621Y8791437D01*
X18125621Y8791437D02*
X18173276Y8767609D01*
X17577586Y8910575D02*
X17529931Y8910575D01*
X17529931Y8910575D02*
X17482275Y8886747D01*
X17482275Y8886747D02*
X17458448Y8862920D01*
X17458448Y8862920D02*
X17434620Y8815264D01*
X17434620Y8815264D02*
X17410793Y8719954D01*
X17410793Y8719954D02*
X17410793Y8600816D01*
X17410793Y8600816D02*
X17434620Y8505505D01*
X17434620Y8505505D02*
X17458448Y8457850D01*
X17458448Y8457850D02*
X17482275Y8434022D01*
X17482275Y8434022D02*
X17529931Y8410195D01*
X17529931Y8410195D02*
X17577586Y8410195D01*
X17577586Y8410195D02*
X17625241Y8434022D01*
X17625241Y8434022D02*
X17649069Y8457850D01*
X17649069Y8457850D02*
X17672896Y8505505D01*
X17672896Y8505505D02*
X17696724Y8600816D01*
X17696724Y8600816D02*
X17696724Y8719954D01*
X17696724Y8719954D02*
X17672896Y8815264D01*
X17672896Y8815264D02*
X17649069Y8862920D01*
X17649069Y8862920D02*
X17625241Y8886747D01*
X17625241Y8886747D02*
X17577586Y8910575D01*
X17196344Y8410195D02*
X17196344Y8910575D01*
X17148689Y8600816D02*
X17005723Y8410195D01*
X17005723Y8743782D02*
X17196344Y8553161D01*
%TO.C,R8*%
X25991396Y21110195D02*
X26158189Y21348471D01*
X26277327Y21110195D02*
X26277327Y21610575D01*
X26277327Y21610575D02*
X26086706Y21610575D01*
X26086706Y21610575D02*
X26039051Y21586747D01*
X26039051Y21586747D02*
X26015224Y21562920D01*
X26015224Y21562920D02*
X25991396Y21515264D01*
X25991396Y21515264D02*
X25991396Y21443782D01*
X25991396Y21443782D02*
X26015224Y21396126D01*
X26015224Y21396126D02*
X26039051Y21372299D01*
X26039051Y21372299D02*
X26086706Y21348471D01*
X26086706Y21348471D02*
X26277327Y21348471D01*
X25705465Y21396126D02*
X25753120Y21419954D01*
X25753120Y21419954D02*
X25776947Y21443782D01*
X25776947Y21443782D02*
X25800775Y21491437D01*
X25800775Y21491437D02*
X25800775Y21515264D01*
X25800775Y21515264D02*
X25776947Y21562920D01*
X25776947Y21562920D02*
X25753120Y21586747D01*
X25753120Y21586747D02*
X25705465Y21610575D01*
X25705465Y21610575D02*
X25610154Y21610575D01*
X25610154Y21610575D02*
X25562499Y21586747D01*
X25562499Y21586747D02*
X25538671Y21562920D01*
X25538671Y21562920D02*
X25514844Y21515264D01*
X25514844Y21515264D02*
X25514844Y21491437D01*
X25514844Y21491437D02*
X25538671Y21443782D01*
X25538671Y21443782D02*
X25562499Y21419954D01*
X25562499Y21419954D02*
X25610154Y21396126D01*
X25610154Y21396126D02*
X25705465Y21396126D01*
X25705465Y21396126D02*
X25753120Y21372299D01*
X25753120Y21372299D02*
X25776947Y21348471D01*
X25776947Y21348471D02*
X25800775Y21300816D01*
X25800775Y21300816D02*
X25800775Y21205505D01*
X25800775Y21205505D02*
X25776947Y21157850D01*
X25776947Y21157850D02*
X25753120Y21134022D01*
X25753120Y21134022D02*
X25705465Y21110195D01*
X25705465Y21110195D02*
X25610154Y21110195D01*
X25610154Y21110195D02*
X25562499Y21134022D01*
X25562499Y21134022D02*
X25538671Y21157850D01*
X25538671Y21157850D02*
X25514844Y21205505D01*
X25514844Y21205505D02*
X25514844Y21300816D01*
X25514844Y21300816D02*
X25538671Y21348471D01*
X25538671Y21348471D02*
X25562499Y21372299D01*
X25562499Y21372299D02*
X25610154Y21396126D01*
X26182017Y20848575D02*
X26134362Y20848575D01*
X26134362Y20848575D02*
X26086706Y20824747D01*
X26086706Y20824747D02*
X26062879Y20800920D01*
X26062879Y20800920D02*
X26039051Y20753264D01*
X26039051Y20753264D02*
X26015224Y20657954D01*
X26015224Y20657954D02*
X26015224Y20538816D01*
X26015224Y20538816D02*
X26039051Y20443505D01*
X26039051Y20443505D02*
X26062879Y20395850D01*
X26062879Y20395850D02*
X26086706Y20372022D01*
X26086706Y20372022D02*
X26134362Y20348195D01*
X26134362Y20348195D02*
X26182017Y20348195D01*
X26182017Y20348195D02*
X26229672Y20372022D01*
X26229672Y20372022D02*
X26253500Y20395850D01*
X26253500Y20395850D02*
X26277327Y20443505D01*
X26277327Y20443505D02*
X26301155Y20538816D01*
X26301155Y20538816D02*
X26301155Y20657954D01*
X26301155Y20657954D02*
X26277327Y20753264D01*
X26277327Y20753264D02*
X26253500Y20800920D01*
X26253500Y20800920D02*
X26229672Y20824747D01*
X26229672Y20824747D02*
X26182017Y20848575D01*
X25514844Y20348195D02*
X25681637Y20586471D01*
X25800775Y20348195D02*
X25800775Y20848575D01*
X25800775Y20848575D02*
X25610154Y20848575D01*
X25610154Y20848575D02*
X25562499Y20824747D01*
X25562499Y20824747D02*
X25538672Y20800920D01*
X25538672Y20800920D02*
X25514844Y20753264D01*
X25514844Y20753264D02*
X25514844Y20681782D01*
X25514844Y20681782D02*
X25538672Y20634126D01*
X25538672Y20634126D02*
X25562499Y20610299D01*
X25562499Y20610299D02*
X25610154Y20586471D01*
X25610154Y20586471D02*
X25800775Y20586471D01*
D12*
%TO.C,U1*%
X19391904Y10723181D02*
X19391904Y9913658D01*
X19391904Y9913658D02*
X19344285Y9818420D01*
X19344285Y9818420D02*
X19296666Y9770800D01*
X19296666Y9770800D02*
X19201428Y9723181D01*
X19201428Y9723181D02*
X19010952Y9723181D01*
X19010952Y9723181D02*
X18915714Y9770800D01*
X18915714Y9770800D02*
X18868095Y9818420D01*
X18868095Y9818420D02*
X18820476Y9913658D01*
X18820476Y9913658D02*
X18820476Y10723181D01*
X17820476Y9723181D02*
X18391904Y9723181D01*
X18106190Y9723181D02*
X18106190Y10723181D01*
X18106190Y10723181D02*
X18201428Y10580324D01*
X18201428Y10580324D02*
X18296666Y10485086D01*
X18296666Y10485086D02*
X18391904Y10437467D01*
D11*
%TO.C,C4*%
X14370896Y21094350D02*
X14394724Y21070522D01*
X14394724Y21070522D02*
X14466206Y21046695D01*
X14466206Y21046695D02*
X14513862Y21046695D01*
X14513862Y21046695D02*
X14585345Y21070522D01*
X14585345Y21070522D02*
X14633000Y21118178D01*
X14633000Y21118178D02*
X14656827Y21165833D01*
X14656827Y21165833D02*
X14680655Y21261143D01*
X14680655Y21261143D02*
X14680655Y21332626D01*
X14680655Y21332626D02*
X14656827Y21427937D01*
X14656827Y21427937D02*
X14633000Y21475592D01*
X14633000Y21475592D02*
X14585345Y21523247D01*
X14585345Y21523247D02*
X14513862Y21547075D01*
X14513862Y21547075D02*
X14466206Y21547075D01*
X14466206Y21547075D02*
X14394724Y21523247D01*
X14394724Y21523247D02*
X14370896Y21499420D01*
X13941999Y21380282D02*
X13941999Y21046695D01*
X14061137Y21570902D02*
X14180275Y21213488D01*
X14180275Y21213488D02*
X13870516Y21213488D01*
X14712345Y21745195D02*
X14998276Y21745195D01*
X14855310Y21745195D02*
X14855310Y22245575D01*
X14855310Y22245575D02*
X14902966Y22174092D01*
X14902966Y22174092D02*
X14950621Y22126437D01*
X14950621Y22126437D02*
X14998276Y22102609D01*
X14283448Y22078782D02*
X14283448Y21745195D01*
X14497896Y22078782D02*
X14497896Y21816678D01*
X14497896Y21816678D02*
X14474069Y21769022D01*
X14474069Y21769022D02*
X14426414Y21745195D01*
X14426414Y21745195D02*
X14354931Y21745195D01*
X14354931Y21745195D02*
X14307275Y21769022D01*
X14307275Y21769022D02*
X14283448Y21792850D01*
X13878378Y22007299D02*
X14045171Y22007299D01*
X14045171Y21745195D02*
X14045171Y22245575D01*
X14045171Y22245575D02*
X13806895Y22245575D01*
D12*
%TO.C,R2*%
X10414000Y14097000D02*
X11938000Y14097000D01*
X11938000Y17145000D02*
X10414000Y17145000D01*
X11938000Y16129000D02*
X11938000Y17145000D01*
X10414000Y15113000D02*
X10414000Y14097000D01*
X10414000Y17145000D02*
X10414000Y16129000D01*
X11938000Y14097000D02*
X11938000Y15113000D01*
X10541000Y13970000D02*
G75*
G03*
X10541000Y13970000I-127000J0D01*
G01*
%TO.C,C3*%
X13970000Y10096500D02*
X13970000Y11112500D01*
X13970000Y12128500D02*
X13970000Y13144500D01*
X12446000Y11112500D02*
X12446000Y10096500D01*
X12446000Y13144500D02*
X12446000Y12128500D01*
X13970000Y13144500D02*
X12446000Y13144500D01*
X12446000Y10096500D02*
X13970000Y10096500D01*
X12573000Y9969500D02*
G75*
G03*
X12573000Y9969500I-127000J0D01*
G01*
%TO.C,C6*%
X20955000Y9144000D02*
X20955000Y7620000D01*
X24003000Y7620000D02*
X24003000Y9144000D01*
X20955000Y7620000D02*
X21971000Y7620000D01*
X21971000Y9144000D02*
X20955000Y9144000D01*
X22987000Y7620000D02*
X24003000Y7620000D01*
X24003000Y9144000D02*
X22987000Y9144000D01*
X24257000Y7620000D02*
G75*
G03*
X24257000Y7620000I-127000J0D01*
G01*
%TO.C,R9*%
X30924500Y22098000D02*
X30924500Y23622000D01*
X27876500Y22098000D02*
X28892500Y22098000D01*
X29908500Y22098000D02*
X30924500Y22098000D01*
X30924500Y23622000D02*
X29908500Y23622000D01*
X27876500Y23622000D02*
X27876500Y22098000D01*
X28892500Y23622000D02*
X27876500Y23622000D01*
X27876500Y23622000D02*
G75*
G03*
X27876500Y23622000I-127000J0D01*
G01*
%TO.C,R10*%
X23368000Y22352000D02*
X24384000Y22352000D01*
X24384000Y23876000D02*
X23368000Y23876000D01*
X22352000Y23876000D02*
X21336000Y23876000D01*
X21336000Y23876000D02*
X21336000Y22352000D01*
X24384000Y22352000D02*
X24384000Y23876000D01*
X21336000Y22352000D02*
X22352000Y22352000D01*
X21336000Y23876000D02*
G75*
G03*
X21336000Y23876000I-127000J0D01*
G01*
D15*
%TO.C,L1*%
X1338500Y21140000D02*
X5138500Y21140000D01*
X5138500Y21140000D02*
X5138500Y9340000D01*
X1338500Y9340000D02*
X1338500Y21140000D01*
X5138500Y9340000D02*
X1338500Y9340000D01*
D12*
%TO.C,C1*%
X9779000Y14160500D02*
X9779000Y15176500D01*
X9779000Y16192500D02*
X9779000Y17208500D01*
X8255000Y17208500D02*
X8255000Y16192500D01*
X8255000Y15176500D02*
X8255000Y14160500D01*
X8255000Y14160500D02*
X9779000Y14160500D01*
X9779000Y17208500D02*
X8255000Y17208500D01*
X8382000Y14033500D02*
G75*
G03*
X8382000Y14033500I-127000J0D01*
G01*
%TO.C,C2*%
X6096000Y17208500D02*
X6096000Y16192500D01*
X6096000Y15176500D02*
X6096000Y14160500D01*
X6096000Y14160500D02*
X7620000Y14160500D01*
X7620000Y17208500D02*
X6096000Y17208500D01*
X7620000Y16192500D02*
X7620000Y17208500D01*
X7620000Y14160500D02*
X7620000Y15176500D01*
X6223000Y14033500D02*
G75*
G03*
X6223000Y14033500I-127000J0D01*
G01*
%TO.C,C5*%
X24003000Y11366500D02*
X22987000Y11366500D01*
X20955000Y9842500D02*
X21971000Y9842500D01*
X21971000Y11366500D02*
X20955000Y11366500D01*
X24003000Y9842500D02*
X24003000Y11366500D01*
X20955000Y11366500D02*
X20955000Y9842500D01*
X22987000Y9842500D02*
X24003000Y9842500D01*
X24257000Y9842500D02*
G75*
G03*
X24257000Y9842500I-127000J0D01*
G01*
%TO.C,D1*%
X27094180Y10985500D02*
X28044140Y12235180D01*
X27045920Y9735820D02*
X29293820Y9735820D01*
X28044140Y12235180D02*
X28044140Y9735820D01*
X27045920Y12235180D02*
X27045920Y9735820D01*
X29344620Y9735820D02*
X29443680Y9735820D01*
X27045920Y12235180D02*
X29395420Y12235180D01*
X28044140Y9735820D02*
X27045920Y10985500D01*
X29344620Y12235180D02*
X29443680Y12235180D01*
%TO.C,R4*%
X12255500Y5524500D02*
X12255500Y6540500D01*
X12255500Y3492500D02*
X12255500Y4508500D01*
X10731500Y3492500D02*
X12255500Y3492500D01*
X10731500Y6540500D02*
X10731500Y5524500D01*
X10731500Y4508500D02*
X10731500Y3492500D01*
X12255500Y6540500D02*
X10731500Y6540500D01*
X10858500Y3365500D02*
G75*
G03*
X10858500Y3365500I-127000J0D01*
G01*
%TO.C,R5*%
X18351500Y23876000D02*
X17335500Y23876000D01*
X20383500Y22352000D02*
X20383500Y23876000D01*
X19367500Y22352000D02*
X20383500Y22352000D01*
X17335500Y22352000D02*
X18351500Y22352000D01*
X17335500Y23876000D02*
X17335500Y22352000D01*
X20383500Y23876000D02*
X19367500Y23876000D01*
X20637500Y22352000D02*
G75*
G03*
X20637500Y22352000I-127000J0D01*
G01*
%TO.C,R6*%
X21907500Y15836783D02*
X22923500Y15836783D01*
X24955500Y15836783D02*
X24955500Y17360783D01*
X24955500Y17360783D02*
X23939500Y17360783D01*
X23939500Y15836783D02*
X24955500Y15836783D01*
X21907500Y17360783D02*
X21907500Y15836783D01*
X22923500Y17360783D02*
X21907500Y17360783D01*
X21907500Y17360783D02*
G75*
G03*
X21907500Y17360783I-127000J0D01*
G01*
%TO.C,R7*%
X23939500Y13208000D02*
X24955500Y13208000D01*
X21907500Y13208000D02*
X22923500Y13208000D01*
X22923500Y14732000D02*
X21907500Y14732000D01*
X21907500Y14732000D02*
X21907500Y13208000D01*
X24955500Y13208000D02*
X24955500Y14732000D01*
X24955500Y14732000D02*
X23939500Y14732000D01*
X25209500Y13208000D02*
G75*
G03*
X25209500Y13208000I-127000J0D01*
G01*
%TO.C,R3*%
X13081000Y4572000D02*
X13081000Y3556000D01*
X13081000Y3556000D02*
X14605000Y3556000D01*
X14605000Y5588000D02*
X14605000Y6604000D01*
X14605000Y3556000D02*
X14605000Y4572000D01*
X13081000Y6604000D02*
X13081000Y5588000D01*
X14605000Y6604000D02*
X13081000Y6604000D01*
X14732000Y6731000D02*
G75*
G03*
X14732000Y6731000I-127000J0D01*
G01*
%TO.C,R1*%
X16954500Y9017000D02*
X15938500Y9017000D01*
X15938500Y7493000D02*
X16954500Y7493000D01*
X18986500Y7493000D02*
X18986500Y9017000D01*
X18986500Y9017000D02*
X17970500Y9017000D01*
X15938500Y9017000D02*
X15938500Y7493000D01*
X17970500Y7493000D02*
X18986500Y7493000D01*
X15938500Y9017000D02*
G75*
G03*
X15938500Y9017000I-127000J0D01*
G01*
%TO.C,R8*%
X26670000Y22415500D02*
X25146000Y22415500D01*
X26670000Y19367500D02*
X26670000Y20383500D01*
X26670000Y21399500D02*
X26670000Y22415500D01*
X25146000Y22415500D02*
X25146000Y21399500D01*
X25146000Y20383500D02*
X25146000Y19367500D01*
X25146000Y19367500D02*
X26670000Y19367500D01*
X26797000Y22542500D02*
G75*
G03*
X26797000Y22542500I-127000J0D01*
G01*
%TO.C,U1*%
X18510000Y13748000D02*
X18510000Y17748000D01*
X14510000Y17748000D02*
X14510000Y13748000D01*
X18510000Y17748000D02*
X14510000Y17748000D01*
X14510000Y13748000D02*
X18510000Y13748000D01*
X15223137Y14348000D02*
G75*
G03*
X15223137Y14348000I-113137J0D01*
G01*
%TO.C,C4*%
X15811500Y22352000D02*
X14795500Y22352000D01*
X13779500Y22352000D02*
X12763500Y22352000D01*
X12763500Y22352000D02*
X12763500Y20828000D01*
X12763500Y20828000D02*
X13779500Y20828000D01*
X14795500Y20828000D02*
X15811500Y20828000D01*
X15811500Y20828000D02*
X15811500Y22352000D01*
X12763500Y22352000D02*
G75*
G03*
X12763500Y22352000I-127000J0D01*
G01*
%TD*%
M02*
